<?xml version="1.0" encoding="UTF-8" standalone="no"?>
<!DOCTYPE svg PUBLIC "-//W3C//DTD SVG 1.1//EN"
 "http://www.w3.org/Graphics/SVG/1.1/DTD/svg11.dtd">
<!-- Generated by graphviz version 2.43.0 (0)
 -->
<!-- Title: G Pages: 1 -->
<svg width="498pt" height="542pt"
 viewBox="0.00 0.00 497.50 542.00" xmlns="http://www.w3.org/2000/svg" xmlns:xlink="http://www.w3.org/1999/xlink">
<g id="graph0" class="graph" transform="scale(1 1) rotate(0) translate(4 538)">
<title>G</title>
<!-- b_0 -->
<g id="node1" class="node">
<title>b_0</title>
<polygon fill="none" stroke="black" points="123,-375.5 123,-533.5 379,-533.5 379,-375.5 123,-375.5"/>
<text text-anchor="start" x="131" y="-518.3" font-family="consolas" font-size="14.00">&#45;&#45;&#45;&#45;&#45; &#160;&#160;BLOCK ~0 &#45;&#45;&#45;&#45;&#45;</text>
<text text-anchor="start" x="131" y="-503.3" font-family="consolas" font-size="14.00"> 0x0: .3 = PHI~0&#45;MEM</text>
<text text-anchor="start" x="131" y="-488.3" font-family="consolas" font-size="14.00"> 0x0: .0 = #80</text>
<text text-anchor="start" x="131" y="-473.3" font-family="consolas" font-size="14.00"> 0x2: .1 = #40</text>
<text text-anchor="start" x="131" y="-458.3" font-family="consolas" font-size="14.00"> 0x4: .2 = MSTORE(.3, .1, .0)</text>
<text text-anchor="start" x="131" y="-443.3" font-family="consolas" font-size="14.00"> 0x5: .4 = #4</text>
<text text-anchor="start" x="131" y="-428.3" font-family="consolas" font-size="14.00"> 0x7: .5 = CALLDATASIZE</text>
<text text-anchor="start" x="131" y="-413.3" font-family="consolas" font-size="14.00"> 0x8: .6 = LT(.5, .4)</text>
<text text-anchor="start" x="131" y="-398.3" font-family="consolas" font-size="14.00"> 0x9: .7 = #56</text>
<text text-anchor="start" x="131" y="-383.3" font-family="consolas" font-size="14.00"> 0xc: .8 = JUMPI(.7, .6)</text>
</g>
<!-- b_d -->
<g id="node2" class="node">
<title>b_d</title>
<polygon fill="none" stroke="black" points="127,-150.5 127,-323.5 375,-323.5 375,-150.5 127,-150.5"/>
<text text-anchor="start" x="135" y="-308.3" font-family="consolas" font-size="14.00">&#45;&#45;&#45;&#45;&#45; &#160;&#160;BLOCK ~d &#45;&#45;&#45;&#45;&#45;</text>
<text text-anchor="start" x="135" y="-293.3" font-family="consolas" font-size="14.00"> 0xd: .0 = #ffffffff</text>
<text text-anchor="start" x="135" y="-278.3" font-family="consolas" font-size="14.00"> 0x12: .1 = #100000...</text>
<text text-anchor="start" x="135" y="-263.3" font-family="consolas" font-size="14.00"> 0x30: .2 = #0</text>
<text text-anchor="start" x="135" y="-248.3" font-family="consolas" font-size="14.00"> 0x32: .3 = CALLDATALOAD(.2)</text>
<text text-anchor="start" x="135" y="-233.3" font-family="consolas" font-size="14.00"> 0x33: .4 = DIV(.3, .1)</text>
<text text-anchor="start" x="135" y="-218.3" font-family="consolas" font-size="14.00"> 0x34: .5 = AND(.4, .0)</text>
<text text-anchor="start" x="135" y="-203.3" font-family="consolas" font-size="14.00"> 0x35: .6 = #6ae17ab7</text>
<text text-anchor="start" x="135" y="-188.3" font-family="consolas" font-size="14.00"> 0x3b: .7 = EQ(.5, .6)</text>
<text text-anchor="start" x="135" y="-173.3" font-family="consolas" font-size="14.00"> 0x3c: .8 = #5b</text>
<text text-anchor="start" x="135" y="-158.3" font-family="consolas" font-size="14.00"> 0x3f: .9 = JUMPI(.8, .7)</text>
</g>
<!-- b_0&#45;&gt;b_d -->
<g id="edge1" class="edge">
<title>b_0&#45;&gt;b_d</title>
<path fill="none" stroke="red" d="M251,-375.39C251,-361.92 251,-347.78 251,-333.9"/>
<polygon fill="red" stroke="red" points="254.5,-333.86 251,-323.86 247.5,-333.86 254.5,-333.86"/>
<text text-anchor="middle" x="259.5" y="-345.8" font-family="consolas" font-size="14.00">NT</text>
</g>
<!-- b_40 -->
<g id="node3" class="node">
<title>b_40</title>
<polygon fill="none" stroke="black" points="0,-0.5 0,-98.5 248,-98.5 248,-0.5 0,-0.5"/>
<text text-anchor="start" x="8" y="-83.3" font-family="consolas" font-size="14.00">&#45;&#45;&#45;&#45;&#45; &#160;&#160;BLOCK ~40 &#45;&#45;&#45;&#45;&#45;</text>
<text text-anchor="start" x="8" y="-68.3" font-family="consolas" font-size="14.00"> 0x40: .0 = PHI~40[&#45;1](~d.5)</text>
<text text-anchor="start" x="8" y="-53.3" font-family="consolas" font-size="14.00"> 0x41: .1 = #771c0ad9</text>
<text text-anchor="start" x="8" y="-38.3" font-family="consolas" font-size="14.00"> 0x46: .2 = EQ(.1, .0)</text>
<text text-anchor="start" x="8" y="-23.3" font-family="consolas" font-size="14.00"> 0x47: .3 = #8d</text>
<text text-anchor="start" x="8" y="-8.3" font-family="consolas" font-size="14.00"> 0x4a: .4 = JUMPI(.3, .2)</text>
</g>
<!-- b_d&#45;&gt;b_40 -->
<g id="edge2" class="edge">
<title>b_d&#45;&gt;b_40</title>
<path fill="none" stroke="red" d="M192.33,-150.31C182.27,-135.61 172.04,-120.67 162.67,-106.98"/>
<polygon fill="red" stroke="red" points="165.49,-104.91 156.95,-98.63 159.72,-108.86 165.49,-104.91"/>
<text text-anchor="middle" x="185.5" y="-120.8" font-family="consolas" font-size="14.00">NT</text>
</g>
<!-- b_5b -->
<g id="node4" class="node">
<title>b_5b</title>
<polygon fill="none" stroke="black" points="266.5,-8 266.5,-91 489.5,-91 489.5,-8 266.5,-8"/>
<text text-anchor="start" x="274.5" y="-75.8" font-family="consolas" font-size="14.00">&#45;&#45;&#45;&#45;&#45; &#160;&#160;BLOCK ~5b &#45;&#45;&#45;&#45;&#45;</text>
<text text-anchor="start" x="274.5" y="-60.8" font-family="consolas" font-size="14.00"> 0x5c: .0 = CALLVALUE</text>
<text text-anchor="start" x="274.5" y="-45.8" font-family="consolas" font-size="14.00"> 0x5e: .1 = ISZERO(.0)</text>
<text text-anchor="start" x="274.5" y="-30.8" font-family="consolas" font-size="14.00"> 0x5f: .2 = #67</text>
<text text-anchor="start" x="274.5" y="-15.8" font-family="consolas" font-size="14.00"> 0x62: .3 = JUMPI(.2, .1)</text>
</g>
<!-- b_d&#45;&gt;b_5b -->
<g id="edge3" class="edge">
<title>b_d&#45;&gt;b_5b</title>
<path fill="none" stroke="green" d="M309.67,-150.31C321.51,-133.01 333.58,-115.38 344.22,-99.84"/>
<polygon fill="green" stroke="green" points="347.21,-101.67 349.97,-91.45 341.43,-97.72 347.21,-101.67"/>
<text text-anchor="middle" x="334.5" y="-120.8" font-family="consolas" font-size="14.00">T</text>
</g>
</g>
</svg>
