<?xml version="1.0" encoding="UTF-8" standalone="no"?>
<!DOCTYPE svg PUBLIC "-//W3C//DTD SVG 1.1//EN"
 "http://www.w3.org/Graphics/SVG/1.1/DTD/svg11.dtd">
<!-- Generated by graphviz version 2.43.0 (0)
 -->
<!-- Title: G Pages: 1 -->
<svg width="530pt" height="557pt"
 viewBox="0.00 0.00 530.00 557.00" xmlns="http://www.w3.org/2000/svg" xmlns:xlink="http://www.w3.org/1999/xlink">
<g id="graph0" class="graph" transform="scale(1 1) rotate(0) translate(4 553)">
<title>G</title>
<!-- b_0 -->
<g id="node1" class="node">
<title>b_0</title>
<polygon fill="none" stroke="black" points="106.5,-390.5 106.5,-548.5 411.5,-548.5 411.5,-390.5 106.5,-390.5"/>
<text text-anchor="start" x="114.5" y="-533.3" font-family="consolas" font-size="14.00">&#45;&#45;&#45;&#45;&#45; * BLOCK ~0 &#45;&#45;&#45;&#45;&#45;</text>
<text text-anchor="start" x="114.5" y="-518.3" font-family="consolas" font-size="14.00">*0x0: .3 \ PHI~0&#45;MEM</text>
<text text-anchor="start" x="114.5" y="-503.3" font-family="consolas" font-size="14.00"> 0x0: .0 = #80</text>
<text text-anchor="start" x="114.5" y="-488.3" font-family="consolas" font-size="14.00"> 0x2: .1 = #40</text>
<text text-anchor="start" x="114.5" y="-473.3" font-family="consolas" font-size="14.00">*0x4: .2 \ MSTORE(.3, .1#40, .0#80)</text>
<text text-anchor="start" x="114.5" y="-458.3" font-family="consolas" font-size="14.00"> 0x5: .4 = #4</text>
<text text-anchor="start" x="114.5" y="-443.3" font-family="consolas" font-size="14.00"> 0x7: .5 = CALLDATASIZE</text>
<text text-anchor="start" x="114.5" y="-428.3" font-family="consolas" font-size="14.00"> 0x8: .6 = LT(.5, .4#4)</text>
<text text-anchor="start" x="114.5" y="-413.3" font-family="consolas" font-size="14.00"> 0x9: .7 = #56</text>
<text text-anchor="start" x="114.5" y="-398.3" font-family="consolas" font-size="14.00"> 0xc: .8 \ JUMPI(.7#56, .6)</text>
</g>
<!-- b_d -->
<g id="node2" class="node">
<title>b_d</title>
<polygon fill="none" stroke="black" points="127,-150.5 127,-338.5 391,-338.5 391,-150.5 127,-150.5"/>
<text text-anchor="start" x="135" y="-323.3" font-family="consolas" font-size="14.00">&#45;&#45;&#45;&#45;&#45; * BLOCK ~d &#45;&#45;&#45;&#45;&#45;</text>
<text text-anchor="start" x="135" y="-308.3" font-family="consolas" font-size="14.00">*0xd: .10 \ PHI~d&#45;MEM(~0.2)</text>
<text text-anchor="start" x="135" y="-293.3" font-family="consolas" font-size="14.00"> 0xd: .0 = #ffffffff</text>
<text text-anchor="start" x="135" y="-278.3" font-family="consolas" font-size="14.00"> 0x12: .1 = #10000...</text>
<text text-anchor="start" x="135" y="-263.3" font-family="consolas" font-size="14.00"> 0x30: .2 = #0</text>
<text text-anchor="start" x="135" y="-248.3" font-family="consolas" font-size="14.00">*0x32: .3 = CALLDATALOAD(.2#0)</text>
<text text-anchor="start" x="135" y="-233.3" font-family="consolas" font-size="14.00">*0x33: .4 = DIV(.3, .1#1000)</text>
<text text-anchor="start" x="135" y="-218.3" font-family="consolas" font-size="14.00">*0x34: .5 = AND(.4, .0#ffff)</text>
<text text-anchor="start" x="135" y="-203.3" font-family="consolas" font-size="14.00"> 0x35: .6 = #6ae17ab7</text>
<text text-anchor="start" x="135" y="-188.3" font-family="consolas" font-size="14.00">*0x3b: .7 = EQ(.5, .6#6ae1)</text>
<text text-anchor="start" x="135" y="-173.3" font-family="consolas" font-size="14.00"> 0x3c: .8 = #5b</text>
<text text-anchor="start" x="135" y="-158.3" font-family="consolas" font-size="14.00">*0x3f: .9 \ JUMPI(.8#5b, .7)</text>
</g>
<!-- b_0&#45;&gt;b_d -->
<g id="edge1" class="edge">
<title>b_0&#45;&gt;b_d</title>
<path fill="none" stroke="red" d="M259,-390.19C259,-376.76 259,-362.62 259,-348.66"/>
<polygon fill="red" stroke="red" points="262.5,-348.54 259,-338.54 255.5,-348.54 262.5,-348.54"/>
<text text-anchor="middle" x="267.5" y="-360.8" font-family="consolas" font-size="14.00">NT</text>
</g>
<!-- b_40 -->
<g id="node3" class="node">
<title>b_40</title>
<polygon fill="none" stroke="black" points="0,-0.5 0,-98.5 248,-98.5 248,-0.5 0,-0.5"/>
<text text-anchor="start" x="8" y="-83.3" font-family="consolas" font-size="14.00">&#45;&#45;&#45;&#45;&#45; &#160;&#160;BLOCK ~40 &#45;&#45;&#45;&#45;&#45;</text>
<text text-anchor="start" x="8" y="-68.3" font-family="consolas" font-size="14.00"> 0x40: .0 = PHI~40[&#45;1](~d.5)</text>
<text text-anchor="start" x="8" y="-53.3" font-family="consolas" font-size="14.00"> 0x41: .1 = #771c0ad9</text>
<text text-anchor="start" x="8" y="-38.3" font-family="consolas" font-size="14.00"> 0x46: .2 = EQ(.1#771c, .0)</text>
<text text-anchor="start" x="8" y="-23.3" font-family="consolas" font-size="14.00"> 0x47: .3 = #8d</text>
<text text-anchor="start" x="8" y="-8.3" font-family="consolas" font-size="14.00"> 0x4a: .4 \ JUMPI(.3#8d, .2)</text>
</g>
<!-- b_d&#45;&gt;b_40 -->
<g id="edge2" class="edge">
<title>b_d&#45;&gt;b_40</title>
<path fill="none" stroke="red" d="M193.87,-150.39C183.49,-135.54 173.03,-120.59 163.48,-106.94"/>
<polygon fill="red" stroke="red" points="166.26,-104.8 157.66,-98.61 160.52,-108.82 166.26,-104.8"/>
<text text-anchor="middle" x="188.5" y="-120.8" font-family="consolas" font-size="14.00">NT</text>
</g>
<!-- b_5b -->
<g id="node4" class="node">
<title>b_5b</title>
<polygon fill="none" stroke="black" points="266,-0.5 266,-98.5 522,-98.5 522,-0.5 266,-0.5"/>
<text text-anchor="start" x="274" y="-83.3" font-family="consolas" font-size="14.00">&#45;&#45;&#45;&#45;&#45; * BLOCK ~5b &#45;&#45;&#45;&#45;&#45;</text>
<text text-anchor="start" x="274" y="-68.3" font-family="consolas" font-size="14.00">*0x5b: .4 \ PHI~5b&#45;MEM(~d.10)</text>
<text text-anchor="start" x="274" y="-53.3" font-family="consolas" font-size="14.00">*0x5c: .0 = CALLVALUE</text>
<text text-anchor="start" x="274" y="-38.3" font-family="consolas" font-size="14.00">*0x5e: .1 = ISZERO(.0)</text>
<text text-anchor="start" x="274" y="-23.3" font-family="consolas" font-size="14.00"> 0x5f: .2 = #67</text>
<text text-anchor="start" x="274" y="-8.3" font-family="consolas" font-size="14.00">*0x62: .3 \ JUMPI(.2#67, .1)</text>
</g>
<!-- b_d&#45;&gt;b_5b -->
<g id="edge3" class="edge">
<title>b_d&#45;&gt;b_5b</title>
<path fill="none" stroke="green" d="M324.13,-150.39C334.51,-135.54 344.97,-120.59 354.52,-106.94"/>
<polygon fill="green" stroke="green" points="357.48,-108.82 360.34,-98.61 351.74,-104.8 357.48,-108.82"/>
<text text-anchor="middle" x="351.5" y="-120.8" font-family="consolas" font-size="14.00">T</text>
</g>
</g>
</svg>
