<?xml version="1.0" encoding="UTF-8" standalone="no"?>
<!DOCTYPE svg PUBLIC "-//W3C//DTD SVG 1.1//EN"
 "http://www.w3.org/Graphics/SVG/1.1/DTD/svg11.dtd">
<!-- Generated by graphviz version 2.43.0 (0)
 -->
<!-- Title: G Pages: 1 -->
<svg width="418pt" height="603pt"
 viewBox="0.00 0.00 417.50 603.00" xmlns="http://www.w3.org/2000/svg" xmlns:xlink="http://www.w3.org/1999/xlink">
<g id="graph0" class="graph" transform="scale(1 1) rotate(0) translate(4 599)">
<title>G</title>
<!-- b_0 -->
<g id="node1" class="node">
<title>b_0</title>
<polygon fill="none" stroke="black" points="195,-511.5 195,-594.5 393,-594.5 393,-511.5 195,-511.5"/>
<text text-anchor="start" x="203" y="-579.3" font-family="consolas" font-size="14.00">&#45;&#45;&#45;&#45;&#45; * BLOCK ~0 &#45;&#45;&#45;&#45;&#45;</text>
<text text-anchor="start" x="203" y="-564.3" font-family="consolas" font-size="14.00">ons:</text>
<text text-anchor="start" x="203" y="-549.3" font-family="consolas" font-size="14.00"> . 1 2 3</text>
<text text-anchor="start" x="203" y="-534.3" font-family="consolas" font-size="14.00">avail_ons:</text>
<text text-anchor="start" x="203" y="-519.3" font-family="consolas" font-size="14.00"> . 1&#45;3</text>
</g>
<!-- b_d -->
<g id="node2" class="node">
<title>b_d</title>
<polygon fill="none" stroke="black" points="178.5,-376.5 178.5,-459.5 409.5,-459.5 409.5,-376.5 178.5,-376.5"/>
<text text-anchor="start" x="186.5" y="-444.3" font-family="consolas" font-size="14.00">&#45;&#45;&#45;&#45;&#45; * BLOCK ~d &#45;&#45;&#45;&#45;&#45;</text>
<text text-anchor="start" x="186.5" y="-429.3" font-family="consolas" font-size="14.00">ons:</text>
<text text-anchor="start" x="186.5" y="-414.3" font-family="consolas" font-size="14.00"> . 4 5 6 7 8 9 10 11 12 13</text>
<text text-anchor="start" x="186.5" y="-399.3" font-family="consolas" font-size="14.00">avail_ons:</text>
<text text-anchor="start" x="186.5" y="-384.3" font-family="consolas" font-size="14.00"> . 1&#45;13</text>
</g>
<!-- b_0&#45;&gt;b_d -->
<g id="edge1" class="edge">
<title>b_0&#45;&gt;b_d</title>
<path fill="none" stroke="red" d="M294,-511.37C294,-498.35 294,-483.75 294,-470.07"/>
<polygon fill="red" stroke="red" points="297.5,-469.84 294,-459.84 290.5,-469.84 297.5,-469.84"/>
<text text-anchor="middle" x="302.5" y="-481.8" font-family="consolas" font-size="14.00">NT</text>
</g>
<!-- b_5b -->
<g id="node3" class="node">
<title>b_5b</title>
<polygon fill="none" stroke="black" points="77,-241.5 77,-324.5 283,-324.5 283,-241.5 77,-241.5"/>
<text text-anchor="start" x="85" y="-309.3" font-family="consolas" font-size="14.00">&#45;&#45;&#45;&#45;&#45; * BLOCK ~5b &#45;&#45;&#45;&#45;&#45;</text>
<text text-anchor="start" x="85" y="-294.3" font-family="consolas" font-size="14.00">ons:</text>
<text text-anchor="start" x="85" y="-279.3" font-family="consolas" font-size="14.00"> . 14 15 16 17</text>
<text text-anchor="start" x="85" y="-264.3" font-family="consolas" font-size="14.00">avail_ons:</text>
<text text-anchor="start" x="85" y="-249.3" font-family="consolas" font-size="14.00"> . 1&#45;17</text>
</g>
<!-- b_d&#45;&gt;b_5b -->
<g id="edge3" class="edge">
<title>b_d&#45;&gt;b_5b</title>
<path fill="none" stroke="green" d="M259.18,-376.37C247.35,-362.58 234.02,-347.03 221.72,-332.67"/>
<polygon fill="green" stroke="green" points="224.17,-330.15 215,-324.84 218.85,-334.71 224.17,-330.15"/>
<text text-anchor="middle" x="245.5" y="-346.8" font-family="consolas" font-size="14.00">T</text>
</g>
<!-- b_40 -->
<g id="node6" class="node">
<title>b_40</title>
<ellipse fill="none" stroke="black" cx="333" cy="-283" rx="32.49" ry="18"/>
<text text-anchor="middle" x="333" y="-279.3" font-family="consolas" font-size="14.00">b_40</text>
</g>
<!-- b_d&#45;&gt;b_40 -->
<g id="edge2" class="edge">
<title>b_d&#45;&gt;b_40</title>
<path fill="none" stroke="red" d="M305.91,-376.37C312.19,-354.97 319.71,-329.34 325.23,-310.51"/>
<polygon fill="red" stroke="red" points="328.61,-311.4 328.07,-300.82 321.9,-309.43 328.61,-311.4"/>
<text text-anchor="middle" x="322.5" y="-346.8" font-family="consolas" font-size="14.00">NT</text>
</g>
<!-- b_67 -->
<g id="node4" class="node">
<title>b_67</title>
<polygon fill="none" stroke="black" points="0,-106.5 0,-189.5 206,-189.5 206,-106.5 0,-106.5"/>
<text text-anchor="start" x="8" y="-174.3" font-family="consolas" font-size="14.00">&#45;&#45;&#45;&#45;&#45; * BLOCK ~67 &#45;&#45;&#45;&#45;&#45;</text>
<text text-anchor="start" x="8" y="-159.3" font-family="consolas" font-size="14.00">ons:</text>
<text text-anchor="start" x="8" y="-144.3" font-family="consolas" font-size="14.00"> . 18 19 20 21</text>
<text text-anchor="start" x="8" y="-129.3" font-family="consolas" font-size="14.00">avail_ons:</text>
<text text-anchor="start" x="8" y="-114.3" font-family="consolas" font-size="14.00"> . 1&#45;21</text>
</g>
<!-- b_5b&#45;&gt;b_67 -->
<g id="edge5" class="edge">
<title>b_5b&#45;&gt;b_67</title>
<path fill="none" stroke="green" d="M156.48,-241.37C148.72,-227.96 139.99,-212.89 131.87,-198.87"/>
<polygon fill="green" stroke="green" points="134.68,-196.74 126.64,-189.84 128.62,-200.24 134.68,-196.74"/>
<text text-anchor="middle" x="148.5" y="-211.8" font-family="consolas" font-size="14.00">T</text>
</g>
<!-- b_63 -->
<g id="node7" class="node">
<title>b_63</title>
<ellipse fill="none" stroke="black" cx="256" cy="-148" rx="32.49" ry="18"/>
<text text-anchor="middle" x="256" y="-144.3" font-family="consolas" font-size="14.00">b_63</text>
</g>
<!-- b_5b&#45;&gt;b_63 -->
<g id="edge4" class="edge">
<title>b_5b&#45;&gt;b_63</title>
<path fill="none" stroke="red" d="M203.22,-241.37C215.69,-219.55 230.68,-193.31 241.49,-174.39"/>
<polygon fill="red" stroke="red" points="244.66,-175.9 246.58,-165.48 238.58,-172.43 244.66,-175.9"/>
<text text-anchor="middle" x="229.5" y="-211.8" font-family="consolas" font-size="14.00">NT</text>
</g>
<!-- b_e9 -->
<g id="node5" class="node">
<title>b_e9</title>
<polygon fill="none" stroke="black" points="0,-0.5 0,-68.5 206,-68.5 206,-0.5 0,-0.5"/>
<text text-anchor="start" x="8" y="-53.3" font-family="consolas" font-size="14.00">&#45;&#45;&#45;&#45;&#45; * BLOCK ~e9 &#45;&#45;&#45;&#45;&#45;</text>
<text text-anchor="start" x="8" y="-38.3" font-family="consolas" font-size="14.00">ons:</text>
<text text-anchor="start" x="8" y="-23.3" font-family="consolas" font-size="14.00">avail_ons:</text>
<text text-anchor="start" x="8" y="-8.3" font-family="consolas" font-size="14.00"> . 1&#45;21</text>
</g>
<!-- b_67&#45;&gt;b_e9 -->
<g id="edge6" class="edge">
<title>b_67&#45;&gt;b_e9</title>
<path fill="none" stroke="black" d="M103,-106.43C103,-97.38 103,-87.76 103,-78.61"/>
<polygon fill="black" stroke="black" points="106.5,-78.54 103,-68.54 99.5,-78.54 106.5,-78.54"/>
</g>
</g>
</svg>
