<?xml version="1.0" encoding="UTF-8"?>
<!DOCTYPE svg PUBLIC "-//W3C//DTD SVG 1.1//EN" "http://www.w3.org/Graphics/SVG/1.1/DTD/svg11.dtd">
<svg width="294mm" height="208mm" viewBox="0 0 29400 20800" version="1.1" xmlns="http://www.w3.org/2000/svg" xmlns:xlink="http://www.w3.org/1999/xlink" stroke-width="28.222" stroke-linejoin="round" xml:space="preserve">
 <path fill="rgb(255,255,255)" stroke="none" d="M 14701,20771 L 0,20771 0,0 29401,0 29401,20771 14701,20771 Z"/>
 <path fill="none" stroke="rgb(179,179,179)" stroke-linejoin="round" d="M 14988,18822 L 1166,18822 1166,1661 28810,1661 28810,18822 14988,18822 Z"/>
 <path fill="none" stroke="rgb(179,179,179)" stroke-linejoin="round" d="M 28810,18821 L 1166,18821"/>
 <path fill="none" stroke="rgb(179,179,179)" stroke-linejoin="round" d="M 28810,16914 L 1166,16914"/>
 <path fill="none" stroke="rgb(179,179,179)" stroke-linejoin="round" d="M 28810,15007 L 1166,15007"/>
 <path fill="none" stroke="rgb(179,179,179)" stroke-linejoin="round" d="M 28810,13100 L 1166,13100"/>
 <path fill="none" stroke="rgb(179,179,179)" stroke-linejoin="round" d="M 28810,11193 L 1166,11193"/>
 <path fill="none" stroke="rgb(179,179,179)" stroke-linejoin="round" d="M 28810,9287 L 1166,9287"/>
 <path fill="none" stroke="rgb(179,179,179)" stroke-linejoin="round" d="M 28810,7380 L 1166,7380"/>
 <path fill="none" stroke="rgb(179,179,179)" stroke-linejoin="round" d="M 28810,5473 L 1166,5473"/>
 <path fill="none" stroke="rgb(179,179,179)" stroke-linejoin="round" d="M 28810,3566 L 1166,3566"/>
 <path fill="none" stroke="rgb(179,179,179)" stroke-linejoin="round" d="M 28810,1660 L 1166,1660"/>
 <path fill="none" stroke="rgb(179,179,179)" stroke-linejoin="round" d="M 1166,18971 L 1166,18821"/>
 <path fill="none" stroke="rgb(179,179,179)" stroke-linejoin="round" d="M 1166,18971 L 1166,18821"/>
 <path fill="none" stroke="rgb(179,179,179)" stroke-linejoin="round" d="M 2893,18971 L 2893,18821"/>
 <path fill="none" stroke="rgb(179,179,179)" stroke-linejoin="round" d="M 2893,18971 L 2893,18821"/>
 <path fill="none" stroke="rgb(179,179,179)" stroke-linejoin="round" d="M 4621,18971 L 4621,18821"/>
 <path fill="none" stroke="rgb(179,179,179)" stroke-linejoin="round" d="M 4621,18971 L 4621,18821"/>
 <path fill="none" stroke="rgb(179,179,179)" stroke-linejoin="round" d="M 6349,18971 L 6349,18821"/>
 <path fill="none" stroke="rgb(179,179,179)" stroke-linejoin="round" d="M 6349,18971 L 6349,18821"/>
 <path fill="none" stroke="rgb(179,179,179)" stroke-linejoin="round" d="M 8077,18971 L 8077,18821"/>
 <path fill="none" stroke="rgb(179,179,179)" stroke-linejoin="round" d="M 8077,18971 L 8077,18821"/>
 <path fill="none" stroke="rgb(179,179,179)" stroke-linejoin="round" d="M 9805,18971 L 9805,18821"/>
 <path fill="none" stroke="rgb(179,179,179)" stroke-linejoin="round" d="M 9805,18971 L 9805,18821"/>
 <path fill="none" stroke="rgb(179,179,179)" stroke-linejoin="round" d="M 11532,18971 L 11532,18821"/>
 <path fill="none" stroke="rgb(179,179,179)" stroke-linejoin="round" d="M 11532,18971 L 11532,18821"/>
 <path fill="none" stroke="rgb(179,179,179)" stroke-linejoin="round" d="M 13260,18971 L 13260,18821"/>
 <path fill="none" stroke="rgb(179,179,179)" stroke-linejoin="round" d="M 13260,18971 L 13260,18821"/>
 <path fill="none" stroke="rgb(179,179,179)" stroke-linejoin="round" d="M 14987,18971 L 14987,18821"/>
 <path fill="none" stroke="rgb(179,179,179)" stroke-linejoin="round" d="M 14987,18971 L 14987,18821"/>
 <path fill="none" stroke="rgb(179,179,179)" stroke-linejoin="round" d="M 16715,18971 L 16715,18821"/>
 <path fill="none" stroke="rgb(179,179,179)" stroke-linejoin="round" d="M 16715,18971 L 16715,18821"/>
 <path fill="none" stroke="rgb(179,179,179)" stroke-linejoin="round" d="M 18443,18971 L 18443,18821"/>
 <path fill="none" stroke="rgb(179,179,179)" stroke-linejoin="round" d="M 18443,18971 L 18443,18821"/>
 <path fill="none" stroke="rgb(179,179,179)" stroke-linejoin="round" d="M 20170,18971 L 20170,18821"/>
 <path fill="none" stroke="rgb(179,179,179)" stroke-linejoin="round" d="M 20170,18971 L 20170,18821"/>
 <path fill="none" stroke="rgb(179,179,179)" stroke-linejoin="round" d="M 21898,18971 L 21898,18821"/>
 <path fill="none" stroke="rgb(179,179,179)" stroke-linejoin="round" d="M 21898,18971 L 21898,18821"/>
 <path fill="none" stroke="rgb(179,179,179)" stroke-linejoin="round" d="M 23626,18971 L 23626,18821"/>
 <path fill="none" stroke="rgb(179,179,179)" stroke-linejoin="round" d="M 23626,18971 L 23626,18821"/>
 <path fill="none" stroke="rgb(179,179,179)" stroke-linejoin="round" d="M 25354,18971 L 25354,18821"/>
 <path fill="none" stroke="rgb(179,179,179)" stroke-linejoin="round" d="M 25354,18971 L 25354,18821"/>
 <path fill="none" stroke="rgb(179,179,179)" stroke-linejoin="round" d="M 27082,18971 L 27082,18821"/>
 <path fill="none" stroke="rgb(179,179,179)" stroke-linejoin="round" d="M 27082,18971 L 27082,18821"/>
 <path fill="none" stroke="rgb(179,179,179)" stroke-linejoin="round" d="M 28810,18971 L 28810,18821"/>
 <path fill="none" stroke="rgb(179,179,179)" stroke-linejoin="round" d="M 28810,18971 L 28810,18821"/>
 <path fill="none" stroke="rgb(179,179,179)" stroke-linejoin="round" d="M 1166,18821 L 28810,18821"/>
 <path fill="none" stroke="rgb(179,179,179)" stroke-linejoin="round" d="M 1016,18821 L 1166,18821"/>
 <path fill="none" stroke="rgb(179,179,179)" stroke-linejoin="round" d="M 1016,18821 L 1166,18821"/>
 <path fill="none" stroke="rgb(179,179,179)" stroke-linejoin="round" d="M 1016,16914 L 1166,16914"/>
 <path fill="none" stroke="rgb(179,179,179)" stroke-linejoin="round" d="M 1016,16914 L 1166,16914"/>
 <path fill="none" stroke="rgb(179,179,179)" stroke-linejoin="round" d="M 1016,15007 L 1166,15007"/>
 <path fill="none" stroke="rgb(179,179,179)" stroke-linejoin="round" d="M 1016,15007 L 1166,15007"/>
 <path fill="none" stroke="rgb(179,179,179)" stroke-linejoin="round" d="M 1016,13100 L 1166,13100"/>
 <path fill="none" stroke="rgb(179,179,179)" stroke-linejoin="round" d="M 1016,13100 L 1166,13100"/>
 <path fill="none" stroke="rgb(179,179,179)" stroke-linejoin="round" d="M 1016,11193 L 1166,11193"/>
 <path fill="none" stroke="rgb(179,179,179)" stroke-linejoin="round" d="M 1016,11193 L 1166,11193"/>
 <path fill="none" stroke="rgb(179,179,179)" stroke-linejoin="round" d="M 1016,9287 L 1166,9287"/>
 <path fill="none" stroke="rgb(179,179,179)" stroke-linejoin="round" d="M 1016,9287 L 1166,9287"/>
 <path fill="none" stroke="rgb(179,179,179)" stroke-linejoin="round" d="M 1016,7380 L 1166,7380"/>
 <path fill="none" stroke="rgb(179,179,179)" stroke-linejoin="round" d="M 1016,7380 L 1166,7380"/>
 <path fill="none" stroke="rgb(179,179,179)" stroke-linejoin="round" d="M 1016,5473 L 1166,5473"/>
 <path fill="none" stroke="rgb(179,179,179)" stroke-linejoin="round" d="M 1016,5473 L 1166,5473"/>
 <path fill="none" stroke="rgb(179,179,179)" stroke-linejoin="round" d="M 1016,3566 L 1166,3566"/>
 <path fill="none" stroke="rgb(179,179,179)" stroke-linejoin="round" d="M 1016,3566 L 1166,3566"/>
 <path fill="none" stroke="rgb(179,179,179)" stroke-linejoin="round" d="M 1016,1660 L 1166,1660"/>
 <path fill="none" stroke="rgb(179,179,179)" stroke-linejoin="round" d="M 1016,1660 L 1166,1660"/>
 <path fill="none" stroke="rgb(179,179,179)" stroke-linejoin="round" d="M 1166,18821 L 1166,1660"/>
 <path fill="rgb(0,69,134)" stroke="none" d="M 13548,18821 L 14124,18821 14124,18821 13548,18821 Z"/>
 <path fill="rgb(0,69,134)" stroke="none" d="M 11820,18821 L 12396,18821 12396,16914 11820,16914 11820,18821 Z"/>
 <path fill="rgb(0,69,134)" stroke="none" d="M 10093,18821 L 10668,18821 10668,15007 10093,15007 10093,18821 Z"/>
 <path fill="rgb(0,69,134)" stroke="none" d="M 8365,18821 L 8941,18821 8941,13100 8365,13100 8365,18821 Z"/>
 <path fill="rgb(0,69,134)" stroke="none" d="M 6637,18821 L 7213,18821 7213,16914 6637,16914 6637,18821 Z"/>
 <path fill="rgb(0,69,134)" stroke="none" d="M 4909,18821 L 5485,18821 5485,16914 4909,16914 4909,18821 Z"/>
 <path fill="rgb(0,69,134)" stroke="none" d="M 3181,18821 L 3757,18821 3757,15007 3181,15007 3181,18821 Z"/>
 <path fill="rgb(0,69,134)" stroke="none" d="M 1453,18821 L 2029,18821 2029,18821 1453,18821 Z"/>
 <path fill="rgb(255,66,14)" stroke="none" d="M 27946,18821 L 28522,18821 28522,18821 27946,18821 Z"/>
 <path fill="rgb(255,66,14)" stroke="none" d="M 26218,18821 L 26794,18821 26794,18821 26218,18821 Z"/>
 <path fill="rgb(255,66,14)" stroke="none" d="M 24490,18821 L 25066,18821 25066,3566 24490,3566 24490,18821 Z"/>
 <path fill="rgb(255,66,14)" stroke="none" d="M 22762,18821 L 23338,18821 23338,16914 22762,16914 22762,18821 Z"/>
 <path fill="rgb(255,66,14)" stroke="none" d="M 21034,18821 L 21610,18821 21610,18821 21034,18821 Z"/>
 <path fill="rgb(255,66,14)" stroke="none" d="M 19307,18821 L 19882,18821 19882,16914 19307,16914 19307,18821 Z"/>
 <path fill="rgb(255,66,14)" stroke="none" d="M 17579,18821 L 18155,18821 18155,18821 17579,18821 Z"/>
 <text class="TextShape"><tspan class="TextParagraph" font-family="Liberation Sans, sans-serif" font-size="564px" font-weight="400"><tspan class="TextPosition" x="1291" y="19583"><tspan fill="rgb(0,0,0)" stroke="none">39.50</tspan></tspan></tspan></text>
 <text class="TextShape"><tspan class="TextParagraph" font-family="Liberation Sans, sans-serif" font-size="564px" font-weight="400"><tspan class="TextPosition" x="3019" y="19583"><tspan fill="rgb(0,0,0)" stroke="none">40.00</tspan></tspan></tspan></text>
 <text class="TextShape"><tspan class="TextParagraph" font-family="Liberation Sans, sans-serif" font-size="564px" font-weight="400"><tspan class="TextPosition" x="4747" y="19583"><tspan fill="rgb(0,0,0)" stroke="none">40.50</tspan></tspan></tspan></text>
 <text class="TextShape"><tspan class="TextParagraph" font-family="Liberation Sans, sans-serif" font-size="564px" font-weight="400"><tspan class="TextPosition" x="6475" y="19583"><tspan fill="rgb(0,0,0)" stroke="none">41.00</tspan></tspan></tspan></text>
 <text class="TextShape"><tspan class="TextParagraph" font-family="Liberation Sans, sans-serif" font-size="564px" font-weight="400"><tspan class="TextPosition" x="8203" y="19583"><tspan fill="rgb(0,0,0)" stroke="none">41.50</tspan></tspan></tspan></text>
 <text class="TextShape"><tspan class="TextParagraph" font-family="Liberation Sans, sans-serif" font-size="564px" font-weight="400"><tspan class="TextPosition" x="9930" y="19583"><tspan fill="rgb(0,0,0)" stroke="none">42.00</tspan></tspan></tspan></text>
 <text class="TextShape"><tspan class="TextParagraph" font-family="Liberation Sans, sans-serif" font-size="564px" font-weight="400"><tspan class="TextPosition" x="11658" y="19583"><tspan fill="rgb(0,0,0)" stroke="none">42.50</tspan></tspan></tspan></text>
 <text class="TextShape"><tspan class="TextParagraph" font-family="Liberation Sans, sans-serif" font-size="564px" font-weight="400"><tspan class="TextPosition" x="13386" y="19583"><tspan fill="rgb(0,0,0)" stroke="none">43.00</tspan></tspan></tspan></text>
 <text class="TextShape"><tspan class="TextParagraph" font-family="Liberation Sans, sans-serif" font-size="564px" font-weight="400"><tspan class="TextPosition" x="16842" y="19583"><tspan fill="rgb(0,0,0)" stroke="none">46.50</tspan></tspan></tspan></text>
 <text class="TextShape"><tspan class="TextParagraph" font-family="Liberation Sans, sans-serif" font-size="564px" font-weight="400"><tspan class="TextPosition" x="18570" y="19583"><tspan fill="rgb(0,0,0)" stroke="none">46.75</tspan></tspan></tspan></text>
 <text class="TextShape"><tspan class="TextParagraph" font-family="Liberation Sans, sans-serif" font-size="564px" font-weight="400"><tspan class="TextPosition" x="20297" y="19583"><tspan fill="rgb(0,0,0)" stroke="none">47.00</tspan></tspan></tspan></text>
 <text class="TextShape"><tspan class="TextParagraph" font-family="Liberation Sans, sans-serif" font-size="564px" font-weight="400"><tspan class="TextPosition" x="22025" y="19583"><tspan fill="rgb(0,0,0)" stroke="none">47.25</tspan></tspan></tspan></text>
 <text class="TextShape"><tspan class="TextParagraph" font-family="Liberation Sans, sans-serif" font-size="564px" font-weight="400"><tspan class="TextPosition" x="23753" y="19583"><tspan fill="rgb(0,0,0)" stroke="none">47.50</tspan></tspan></tspan></text>
 <text class="TextShape"><tspan class="TextParagraph" font-family="Liberation Sans, sans-serif" font-size="564px" font-weight="400"><tspan class="TextPosition" x="25481" y="19583"><tspan fill="rgb(0,0,0)" stroke="none">47.75</tspan></tspan></tspan></text>
 <text class="TextShape"><tspan class="TextParagraph" font-family="Liberation Sans, sans-serif" font-size="564px" font-weight="400"><tspan class="TextPosition" x="27209" y="19583"><tspan fill="rgb(0,0,0)" stroke="none">48.00</tspan></tspan></tspan></text>
 <text class="TextShape"><tspan class="TextParagraph" font-family="Liberation Sans, sans-serif" font-size="564px" font-weight="400"><tspan class="TextPosition" x="588" y="19017"><tspan fill="rgb(0,0,0)" stroke="none">0</tspan></tspan></tspan></text>
 <text class="TextShape"><tspan class="TextParagraph" font-family="Liberation Sans, sans-serif" font-size="564px" font-weight="400"><tspan class="TextPosition" x="588" y="17110"><tspan fill="rgb(0,0,0)" stroke="none">1</tspan></tspan></tspan></text>
 <text class="TextShape"><tspan class="TextParagraph" font-family="Liberation Sans, sans-serif" font-size="564px" font-weight="400"><tspan class="TextPosition" x="588" y="15203"><tspan fill="rgb(0,0,0)" stroke="none">2</tspan></tspan></tspan></text>
 <text class="TextShape"><tspan class="TextParagraph" font-family="Liberation Sans, sans-serif" font-size="564px" font-weight="400"><tspan class="TextPosition" x="588" y="13296"><tspan fill="rgb(0,0,0)" stroke="none">3</tspan></tspan></tspan></text>
 <text class="TextShape"><tspan class="TextParagraph" font-family="Liberation Sans, sans-serif" font-size="564px" font-weight="400"><tspan class="TextPosition" x="588" y="11389"><tspan fill="rgb(0,0,0)" stroke="none">4</tspan></tspan></tspan></text>
 <text class="TextShape"><tspan class="TextParagraph" font-family="Liberation Sans, sans-serif" font-size="564px" font-weight="400"><tspan class="TextPosition" x="588" y="9482"><tspan fill="rgb(0,0,0)" stroke="none">5</tspan></tspan></tspan></text>
 <text class="TextShape"><tspan class="TextParagraph" font-family="Liberation Sans, sans-serif" font-size="564px" font-weight="400"><tspan class="TextPosition" x="588" y="7575"><tspan fill="rgb(0,0,0)" stroke="none">6</tspan></tspan></tspan></text>
 <text class="TextShape"><tspan class="TextParagraph" font-family="Liberation Sans, sans-serif" font-size="564px" font-weight="400"><tspan class="TextPosition" x="588" y="5668"><tspan fill="rgb(0,0,0)" stroke="none">7</tspan></tspan></tspan></text>
 <text class="TextShape"><tspan class="TextParagraph" font-family="Liberation Sans, sans-serif" font-size="564px" font-weight="400"><tspan class="TextPosition" x="588" y="3761"><tspan fill="rgb(0,0,0)" stroke="none">8</tspan></tspan></tspan></text>
 <text class="TextShape"><tspan class="TextParagraph" font-family="Liberation Sans, sans-serif" font-size="564px" font-weight="400"><tspan class="TextPosition" x="588" y="1855"><tspan fill="rgb(0,0,0)" stroke="none">9</tspan></tspan></tspan></text>
 <text class="TextShape"><tspan class="TextParagraph" font-family="Liberation Sans, sans-serif" font-size="564px" font-weight="400"><tspan class="TextPosition" x="826" y="1050"><tspan fill="rgb(0,0,0)" stroke="none">Ιστόγραμμα 10 εκτελέσεων, Full prefetch, 4 Threads</tspan></tspan></tspan></text>
 <path fill="rgb(0,69,134)" stroke="none" d="M 24471,1082 L 24302,1082 24302,744 24640,744 24640,1082 24471,1082 Z"/>
 <path fill="rgb(255,66,14)" stroke="none" d="M 26413,1082 L 26244,1082 26244,744 26582,744 26582,1082 26413,1082 Z"/>
 <text class="TextShape"><tspan class="TextParagraph" font-family="Liberation Sans, sans-serif" font-size="564px" font-weight="400"><tspan class="TextPosition" x="24764" y="1107"><tspan fill="rgb(0,0,0)" stroke="none">sata</tspan></tspan></tspan></text>
 <text class="TextShape"><tspan class="TextParagraph" font-family="Liberation Sans, sans-serif" font-size="564px" font-weight="400"><tspan class="TextPosition" x="26706" y="1107"><tspan fill="rgb(0,0,0)" stroke="none">nvme</tspan></tspan></tspan></text>
 <text class="TextShape"><tspan class="TextParagraph" font-family="Liberation Sans, sans-serif" font-size="564px" font-weight="400"><tspan class="TextPosition" x="26228" y="20290"><tspan fill="rgb(0,0,0)" stroke="none">Block/sec</tspan></tspan></tspan></text>
</svg>