<?xml version="1.0" encoding="UTF-8"?>
<!DOCTYPE svg PUBLIC "-//W3C//DTD SVG 1.1//EN" "http://www.w3.org/Graphics/SVG/1.1/DTD/svg11.dtd">
<svg width="280mm" height="172mm" viewBox="0 0 28000 17200" version="1.1" xmlns="http://www.w3.org/2000/svg" xmlns:xlink="http://www.w3.org/1999/xlink" stroke-width="28.222" stroke-linejoin="round" xml:space="preserve">
 <path fill="rgb(255,255,255)" stroke="none" d="M 13930,17150 L 0,17150 0,0 27860,0 27860,17150 13930,17150 Z"/>
 <path fill="none" stroke="rgb(179,179,179)" stroke-linejoin="round" d="M 14005,16018 L 2171,16018 2171,2006 25838,2006 25838,16018 14005,16018 Z"/>
 <path fill="none" stroke="rgb(179,179,179)" stroke-linejoin="round" d="M 25838,16017 L 2171,16017"/>
 <path fill="none" stroke="rgb(179,179,179)" stroke-linejoin="round" d="M 25838,14015 L 2171,14015"/>
 <path fill="none" stroke="rgb(179,179,179)" stroke-linejoin="round" d="M 25838,12013 L 2171,12013"/>
 <path fill="none" stroke="rgb(179,179,179)" stroke-linejoin="round" d="M 25838,10011 L 2171,10011"/>
 <path fill="none" stroke="rgb(179,179,179)" stroke-linejoin="round" d="M 25838,8010 L 2171,8010"/>
 <path fill="none" stroke="rgb(179,179,179)" stroke-linejoin="round" d="M 25838,6008 L 2171,6008"/>
 <path fill="none" stroke="rgb(179,179,179)" stroke-linejoin="round" d="M 25838,4006 L 2171,4006"/>
 <path fill="none" stroke="rgb(179,179,179)" stroke-linejoin="round" d="M 25838,2005 L 2171,2005"/>
 <path fill="none" stroke="rgb(179,179,179)" stroke-linejoin="round" d="M 2171,16167 L 2171,16017"/>
 <path fill="none" stroke="rgb(179,179,179)" stroke-linejoin="round" d="M 2171,16167 L 2171,16017"/>
 <path fill="none" stroke="rgb(179,179,179)" stroke-linejoin="round" d="M 6115,16167 L 6115,16017"/>
 <path fill="none" stroke="rgb(179,179,179)" stroke-linejoin="round" d="M 6115,16167 L 6115,16017"/>
 <path fill="none" stroke="rgb(179,179,179)" stroke-linejoin="round" d="M 10060,16167 L 10060,16017"/>
 <path fill="none" stroke="rgb(179,179,179)" stroke-linejoin="round" d="M 10060,16167 L 10060,16017"/>
 <path fill="none" stroke="rgb(179,179,179)" stroke-linejoin="round" d="M 14005,16167 L 14005,16017"/>
 <path fill="none" stroke="rgb(179,179,179)" stroke-linejoin="round" d="M 14005,16167 L 14005,16017"/>
 <path fill="none" stroke="rgb(179,179,179)" stroke-linejoin="round" d="M 17948,16167 L 17948,16017"/>
 <path fill="none" stroke="rgb(179,179,179)" stroke-linejoin="round" d="M 17948,16167 L 17948,16017"/>
 <path fill="none" stroke="rgb(179,179,179)" stroke-linejoin="round" d="M 21893,16167 L 21893,16017"/>
 <path fill="none" stroke="rgb(179,179,179)" stroke-linejoin="round" d="M 21893,16167 L 21893,16017"/>
 <path fill="none" stroke="rgb(179,179,179)" stroke-linejoin="round" d="M 25838,16167 L 25838,16017"/>
 <path fill="none" stroke="rgb(179,179,179)" stroke-linejoin="round" d="M 25838,16167 L 25838,16017"/>
 <path fill="none" stroke="rgb(179,179,179)" stroke-linejoin="round" d="M 2171,16017 L 25838,16017"/>
 <path fill="none" stroke="rgb(179,179,179)" stroke-linejoin="round" d="M 2022,16017 L 2171,16017"/>
 <path fill="none" stroke="rgb(179,179,179)" stroke-linejoin="round" d="M 2022,16017 L 2171,16017"/>
 <path fill="none" stroke="rgb(179,179,179)" stroke-linejoin="round" d="M 2022,14015 L 2171,14015"/>
 <path fill="none" stroke="rgb(179,179,179)" stroke-linejoin="round" d="M 2022,14015 L 2171,14015"/>
 <path fill="none" stroke="rgb(179,179,179)" stroke-linejoin="round" d="M 2022,12013 L 2171,12013"/>
 <path fill="none" stroke="rgb(179,179,179)" stroke-linejoin="round" d="M 2022,12013 L 2171,12013"/>
 <path fill="none" stroke="rgb(179,179,179)" stroke-linejoin="round" d="M 2022,10011 L 2171,10011"/>
 <path fill="none" stroke="rgb(179,179,179)" stroke-linejoin="round" d="M 2022,10011 L 2171,10011"/>
 <path fill="none" stroke="rgb(179,179,179)" stroke-linejoin="round" d="M 2022,8010 L 2171,8010"/>
 <path fill="none" stroke="rgb(179,179,179)" stroke-linejoin="round" d="M 2022,8010 L 2171,8010"/>
 <path fill="none" stroke="rgb(179,179,179)" stroke-linejoin="round" d="M 2022,6008 L 2171,6008"/>
 <path fill="none" stroke="rgb(179,179,179)" stroke-linejoin="round" d="M 2022,6008 L 2171,6008"/>
 <path fill="none" stroke="rgb(179,179,179)" stroke-linejoin="round" d="M 2022,4006 L 2171,4006"/>
 <path fill="none" stroke="rgb(179,179,179)" stroke-linejoin="round" d="M 2022,4006 L 2171,4006"/>
 <path fill="none" stroke="rgb(179,179,179)" stroke-linejoin="round" d="M 2022,2005 L 2171,2005"/>
 <path fill="none" stroke="rgb(179,179,179)" stroke-linejoin="round" d="M 2022,2005 L 2171,2005"/>
 <path fill="none" stroke="rgb(179,179,179)" stroke-linejoin="round" d="M 2171,16017 L 2171,2005"/>
 <path fill="rgb(89,131,176)" stroke="none" d="M 22287,16017 L 23077,16017 23077,10024 22287,10024 22287,16017 Z"/>
 <path fill="rgb(89,131,176)" stroke="none" d="M 18343,16017 L 19132,16017 19132,8531 18343,8531 18343,16017 Z"/>
 <path fill="rgb(89,131,176)" stroke="none" d="M 14398,16017 L 15187,16017 15187,7154 14398,7154 14398,16017 Z"/>
 <path fill="rgb(89,131,176)" stroke="none" d="M 10454,16017 L 11243,16017 11243,6484 10454,6484 10454,16017 Z"/>
 <path fill="rgb(89,131,176)" stroke="none" d="M 6510,16017 L 7299,16017 7299,5757 6510,5757 6510,16017 Z"/>
 <path fill="rgb(89,131,176)" stroke="none" d="M 2565,16017 L 3354,16017 3354,4104 2565,4104 2565,16017 Z"/>
 <path fill="rgb(255,66,14)" stroke="none" d="M 23077,16017 L 23865,16017 23865,11713 23077,11713 23077,16017 Z"/>
 <path fill="rgb(255,66,14)" stroke="none" d="M 19132,16017 L 19921,16017 19921,9818 19132,9818 19132,16017 Z"/>
 <path fill="rgb(255,66,14)" stroke="none" d="M 15187,16017 L 15976,16017 15976,8082 15187,8082 15187,16017 Z"/>
 <path fill="rgb(255,66,14)" stroke="none" d="M 11243,16017 L 12032,16017 12032,7383 11243,7383 11243,16017 Z"/>
 <path fill="rgb(255,66,14)" stroke="none" d="M 7299,16017 L 8087,16017 8087,6302 7299,6302 7299,16017 Z"/>
 <path fill="rgb(255,66,14)" stroke="none" d="M 3354,16017 L 4143,16017 4143,4819 3354,4819 3354,16017 Z"/>
 <path fill="rgb(255,211,32)" stroke="none" d="M 23865,16017 L 24654,16017 24654,11621 23865,11621 23865,16017 Z"/>
 <path fill="rgb(255,211,32)" stroke="none" d="M 19921,16017 L 20709,16017 20709,9497 19921,9497 19921,16017 Z"/>
 <path fill="rgb(255,211,32)" stroke="none" d="M 15976,16017 L 16765,16017 16765,7847 15976,7847 15976,16017 Z"/>
 <path fill="rgb(255,211,32)" stroke="none" d="M 12032,16017 L 12821,16017 12821,7194 12032,7194 12032,16017 Z"/>
 <path fill="rgb(255,211,32)" stroke="none" d="M 8087,16017 L 8876,16017 8876,6165 8087,6165 8087,16017 Z"/>
 <path fill="rgb(255,211,32)" stroke="none" d="M 4143,16017 L 4931,16017 4931,4739 4143,4739 4143,16017 Z"/>
 <path fill="rgb(87,157,28)" stroke="none" d="M 24654,16017 L 25443,16017 25443,11282 24654,11282 24654,16017 Z"/>
 <path fill="rgb(87,157,28)" stroke="none" d="M 20709,16017 L 21498,16017 21498,9285 20709,9285 20709,16017 Z"/>
 <path fill="rgb(87,157,28)" stroke="none" d="M 16765,16017 L 17554,16017 17554,7505 16765,7505 16765,16017 Z"/>
 <path fill="rgb(87,157,28)" stroke="none" d="M 12821,16017 L 13610,16017 13610,6871 12821,6871 12821,16017 Z"/>
 <path fill="rgb(87,157,28)" stroke="none" d="M 8876,16017 L 9665,16017 9665,5872 8876,5872 8876,16017 Z"/>
 <path fill="rgb(87,157,28)" stroke="none" d="M 4931,16017 L 5721,16017 5721,4471 4931,4471 4931,16017 Z"/>
 <text class="TextShape"><tspan class="TextParagraph" font-family="Liberation Sans, sans-serif" font-size="564px" font-weight="400"><tspan class="TextPosition" x="3980" y="16779"><tspan fill="rgb(0,0,0)" stroke="none">0</tspan></tspan></tspan></text>
 <text class="TextShape"><tspan class="TextParagraph" font-family="Liberation Sans, sans-serif" font-size="564px" font-weight="400"><tspan class="TextPosition" x="7925" y="16779"><tspan fill="rgb(0,0,0)" stroke="none">1</tspan></tspan></tspan></text>
 <text class="TextShape"><tspan class="TextParagraph" font-family="Liberation Sans, sans-serif" font-size="564px" font-weight="400"><tspan class="TextPosition" x="11870" y="16779"><tspan fill="rgb(0,0,0)" stroke="none">2</tspan></tspan></tspan></text>
 <text class="TextShape"><tspan class="TextParagraph" font-family="Liberation Sans, sans-serif" font-size="564px" font-weight="400"><tspan class="TextPosition" x="15813" y="16779"><tspan fill="rgb(0,0,0)" stroke="none">3</tspan></tspan></tspan></text>
 <text class="TextShape"><tspan class="TextParagraph" font-family="Liberation Sans, sans-serif" font-size="564px" font-weight="400"><tspan class="TextPosition" x="19758" y="16779"><tspan fill="rgb(0,0,0)" stroke="none">6</tspan></tspan></tspan></text>
 <text class="TextShape"><tspan class="TextParagraph" font-family="Liberation Sans, sans-serif" font-size="564px" font-weight="400"><tspan class="TextPosition" x="23540" y="16779"><tspan fill="rgb(0,0,0)" stroke="none">15</tspan></tspan></tspan></text>
 <text class="TextShape"><tspan class="TextParagraph" font-family="Liberation Sans, sans-serif" font-size="564px" font-weight="400"><tspan class="TextPosition" x="273" y="16213"><tspan fill="rgb(0,0,0)" stroke="none">76.0%</tspan></tspan></tspan></text>
 <text class="TextShape"><tspan class="TextParagraph" font-family="Liberation Sans, sans-serif" font-size="564px" font-weight="400"><tspan class="TextPosition" x="273" y="14211"><tspan fill="rgb(0,0,0)" stroke="none">76.5%</tspan></tspan></tspan></text>
 <text class="TextShape"><tspan class="TextParagraph" font-family="Liberation Sans, sans-serif" font-size="564px" font-weight="400"><tspan class="TextPosition" x="273" y="12209"><tspan fill="rgb(0,0,0)" stroke="none">77.0%</tspan></tspan></tspan></text>
 <text class="TextShape"><tspan class="TextParagraph" font-family="Liberation Sans, sans-serif" font-size="564px" font-weight="400"><tspan class="TextPosition" x="273" y="10207"><tspan fill="rgb(0,0,0)" stroke="none">77.5%</tspan></tspan></tspan></text>
 <text class="TextShape"><tspan class="TextParagraph" font-family="Liberation Sans, sans-serif" font-size="564px" font-weight="400"><tspan class="TextPosition" x="273" y="8205"><tspan fill="rgb(0,0,0)" stroke="none">78.0%</tspan></tspan></tspan></text>
 <text class="TextShape"><tspan class="TextParagraph" font-family="Liberation Sans, sans-serif" font-size="564px" font-weight="400"><tspan class="TextPosition" x="273" y="6203"><tspan fill="rgb(0,0,0)" stroke="none">78.5%</tspan></tspan></tspan></text>
 <text class="TextShape"><tspan class="TextParagraph" font-family="Liberation Sans, sans-serif" font-size="564px" font-weight="400"><tspan class="TextPosition" x="273" y="4201"><tspan fill="rgb(0,0,0)" stroke="none">79.0%</tspan></tspan></tspan></text>
 <text class="TextShape"><tspan class="TextParagraph" font-family="Liberation Sans, sans-serif" font-size="564px" font-weight="400"><tspan class="TextPosition" x="273" y="2200"><tspan fill="rgb(0,0,0)" stroke="none">79.5%</tspan></tspan></tspan></text>
 <text class="TextShape"><tspan class="TextParagraph" font-family="Liberation Sans, sans-serif" font-size="635px" font-weight="400"><tspan class="TextPosition" x="2450" y="1251"><tspan fill="rgb(0,0,0)" stroke="none">Coverage ( TP / P )     NVME</tspan></tspan></tspan></text>
 <text class="TextShape"><tspan class="TextParagraph" font-family="Liberation Sans, sans-serif" font-size="564px" font-weight="400"><tspan class="TextPosition" x="17428" y="1222"><tspan fill="rgb(0,0,0)" stroke="none">Prefetch Threads</tspan></tspan></tspan></text>
 <path fill="rgb(89,131,176)" stroke="none" d="M 22355,1198 L 22187,1198 22187,860 22524,860 22524,1198 22355,1198 Z"/>
 <path fill="rgb(255,66,14)" stroke="none" d="M 23304,1198 L 23136,1198 23136,860 23472,860 23472,1198 23304,1198 Z"/>
 <path fill="rgb(255,211,32)" stroke="none" d="M 24253,1198 L 24085,1198 24085,860 24421,860 24421,1198 24253,1198 Z"/>
 <path fill="rgb(87,157,28)" stroke="none" d="M 25202,1198 L 25034,1198 25034,860 25370,860 25370,1198 25202,1198 Z"/>
 <text class="TextShape"><tspan class="TextParagraph" font-family="Liberation Sans, sans-serif" font-size="564px" font-weight="400"><tspan class="TextPosition" x="22647" y="1223"><tspan fill="rgb(0,0,0)" stroke="none">1</tspan></tspan></tspan></text>
 <text class="TextShape"><tspan class="TextParagraph" font-family="Liberation Sans, sans-serif" font-size="564px" font-weight="400"><tspan class="TextPosition" x="23596" y="1223"><tspan fill="rgb(0,0,0)" stroke="none">2</tspan></tspan></tspan></text>
 <text class="TextShape"><tspan class="TextParagraph" font-family="Liberation Sans, sans-serif" font-size="564px" font-weight="400"><tspan class="TextPosition" x="24545" y="1223"><tspan fill="rgb(0,0,0)" stroke="none">4</tspan></tspan></tspan></text>
 <text class="TextShape"><tspan class="TextParagraph" font-family="Liberation Sans, sans-serif" font-size="564px" font-weight="400"><tspan class="TextPosition" x="25494" y="1223"><tspan fill="rgb(0,0,0)" stroke="none">8</tspan></tspan></tspan></text>
 <text class="TextShape"><tspan class="TextParagraph" font-family="Liberation Sans, sans-serif" font-size="564px" font-weight="400"><tspan class="TextPosition" x="24890" y="16799"><tspan fill="rgb(0,0,0)" stroke="none">Readahead</tspan></tspan></tspan></text>
</svg>