<?xml version="1.0" encoding="UTF-8"?>
<!DOCTYPE svg PUBLIC "-//W3C//DTD SVG 1.1//EN" "http://www.w3.org/Graphics/SVG/1.1/DTD/svg11.dtd">
<svg width="242mm" height="144mm" viewBox="0 0 24200 14400" version="1.1" xmlns="http://www.w3.org/2000/svg" xmlns:xlink="http://www.w3.org/1999/xlink" stroke-width="28.222" stroke-linejoin="round" xml:space="preserve">
 <path fill="rgb(255,255,255)" stroke="none" d="M 12123,14381 L 0,14381 0,0 24245,0 24245,14381 12123,14381 Z"/>
 <path fill="none" stroke="rgb(179,179,179)" stroke-linejoin="round" d="M 12406,13209 L 1882,13209 1882,2001 22930,2001 22930,13209 12406,13209 Z"/>
 <path fill="none" stroke="rgb(179,179,179)" stroke-linejoin="round" d="M 1882,2000 L 1882,13208"/>
 <path fill="none" stroke="rgb(179,179,179)" stroke-linejoin="round" d="M 5390,2000 L 5390,13208"/>
 <path fill="none" stroke="rgb(179,179,179)" stroke-linejoin="round" d="M 8898,2000 L 8898,13208"/>
 <path fill="none" stroke="rgb(179,179,179)" stroke-linejoin="round" d="M 12405,2000 L 12405,13208"/>
 <path fill="none" stroke="rgb(179,179,179)" stroke-linejoin="round" d="M 15913,2000 L 15913,13208"/>
 <path fill="none" stroke="rgb(179,179,179)" stroke-linejoin="round" d="M 19421,2000 L 19421,13208"/>
 <path fill="none" stroke="rgb(179,179,179)" stroke-linejoin="round" d="M 22930,2000 L 22930,13208"/>
 <path fill="none" stroke="rgb(179,179,179)" stroke-linejoin="round" d="M 22930,13208 L 1882,13208"/>
 <path fill="none" stroke="rgb(179,179,179)" stroke-linejoin="round" d="M 22930,11339 L 1882,11339"/>
 <path fill="none" stroke="rgb(179,179,179)" stroke-linejoin="round" d="M 22930,9471 L 1882,9471"/>
 <path fill="none" stroke="rgb(179,179,179)" stroke-linejoin="round" d="M 22930,7603 L 1882,7603"/>
 <path fill="none" stroke="rgb(179,179,179)" stroke-linejoin="round" d="M 22930,5736 L 1882,5736"/>
 <path fill="none" stroke="rgb(179,179,179)" stroke-linejoin="round" d="M 22930,3868 L 1882,3868"/>
 <path fill="none" stroke="rgb(179,179,179)" stroke-linejoin="round" d="M 22930,2000 L 1882,2000"/>
 <path fill="none" stroke="rgb(179,179,179)" stroke-linejoin="round" d="M 1882,13358 L 1882,13208"/>
 <path fill="none" stroke="rgb(179,179,179)" stroke-linejoin="round" d="M 1882,13358 L 1882,13208"/>
 <path fill="none" stroke="rgb(179,179,179)" stroke-linejoin="round" d="M 5390,13358 L 5390,13208"/>
 <path fill="none" stroke="rgb(179,179,179)" stroke-linejoin="round" d="M 5390,13358 L 5390,13208"/>
 <path fill="none" stroke="rgb(179,179,179)" stroke-linejoin="round" d="M 8898,13358 L 8898,13208"/>
 <path fill="none" stroke="rgb(179,179,179)" stroke-linejoin="round" d="M 8898,13358 L 8898,13208"/>
 <path fill="none" stroke="rgb(179,179,179)" stroke-linejoin="round" d="M 12405,13358 L 12405,13208"/>
 <path fill="none" stroke="rgb(179,179,179)" stroke-linejoin="round" d="M 12405,13358 L 12405,13208"/>
 <path fill="none" stroke="rgb(179,179,179)" stroke-linejoin="round" d="M 15913,13358 L 15913,13208"/>
 <path fill="none" stroke="rgb(179,179,179)" stroke-linejoin="round" d="M 15913,13358 L 15913,13208"/>
 <path fill="none" stroke="rgb(179,179,179)" stroke-linejoin="round" d="M 19421,13358 L 19421,13208"/>
 <path fill="none" stroke="rgb(179,179,179)" stroke-linejoin="round" d="M 19421,13358 L 19421,13208"/>
 <path fill="none" stroke="rgb(179,179,179)" stroke-linejoin="round" d="M 22930,13358 L 22930,13208"/>
 <path fill="none" stroke="rgb(179,179,179)" stroke-linejoin="round" d="M 22930,13358 L 22930,13208"/>
 <path fill="none" stroke="rgb(179,179,179)" stroke-linejoin="round" d="M 1882,13208 L 22930,13208"/>
 <path fill="none" stroke="rgb(179,179,179)" stroke-linejoin="round" d="M 1732,13208 L 1882,13208"/>
 <path fill="none" stroke="rgb(179,179,179)" stroke-linejoin="round" d="M 1732,13208 L 1882,13208"/>
 <path fill="none" stroke="rgb(179,179,179)" stroke-linejoin="round" d="M 1732,11339 L 1882,11339"/>
 <path fill="none" stroke="rgb(179,179,179)" stroke-linejoin="round" d="M 1732,11339 L 1882,11339"/>
 <path fill="none" stroke="rgb(179,179,179)" stroke-linejoin="round" d="M 1732,9471 L 1882,9471"/>
 <path fill="none" stroke="rgb(179,179,179)" stroke-linejoin="round" d="M 1732,9471 L 1882,9471"/>
 <path fill="none" stroke="rgb(179,179,179)" stroke-linejoin="round" d="M 1732,7603 L 1882,7603"/>
 <path fill="none" stroke="rgb(179,179,179)" stroke-linejoin="round" d="M 1732,7603 L 1882,7603"/>
 <path fill="none" stroke="rgb(179,179,179)" stroke-linejoin="round" d="M 1732,5736 L 1882,5736"/>
 <path fill="none" stroke="rgb(179,179,179)" stroke-linejoin="round" d="M 1732,5736 L 1882,5736"/>
 <path fill="none" stroke="rgb(179,179,179)" stroke-linejoin="round" d="M 1732,3868 L 1882,3868"/>
 <path fill="none" stroke="rgb(179,179,179)" stroke-linejoin="round" d="M 1732,3868 L 1882,3868"/>
 <path fill="none" stroke="rgb(179,179,179)" stroke-linejoin="round" d="M 1732,2000 L 1882,2000"/>
 <path fill="none" stroke="rgb(179,179,179)" stroke-linejoin="round" d="M 1732,2000 L 1882,2000"/>
 <path fill="none" stroke="rgb(179,179,179)" stroke-linejoin="round" d="M 1882,13208 L 1882,2000"/>
 <path fill="rgb(0,69,134)" stroke="none" d="M 17669,7833 L 17669,8083 17919,8083 17919,7833 17669,7833 Z"/>
 <path fill="none" stroke="rgb(0,69,134)" stroke-linejoin="round" d="M 17669,7833 L 17669,8083 17919,8083 17919,7833 17669,7833 Z"/>
 <path fill="rgb(0,69,134)" stroke="none" d="M 10801,5349 L 10801,5599 11051,5599 11051,5349 10801,5349 Z"/>
 <path fill="none" stroke="rgb(0,69,134)" stroke-linejoin="round" d="M 10801,5349 L 10801,5599 11051,5599 11051,5349 10801,5349 Z"/>
 <path fill="rgb(0,69,134)" stroke="none" d="M 17027,7422 L 17027,7672 17277,7672 17277,7422 17027,7422 Z"/>
 <path fill="none" stroke="rgb(0,69,134)" stroke-linejoin="round" d="M 17027,7422 L 17027,7672 17277,7672 17277,7422 17027,7422 Z"/>
 <path fill="rgb(0,69,134)" stroke="none" d="M 10383,5200 L 10383,5450 10633,5450 10633,5200 10383,5200 Z"/>
 <path fill="none" stroke="rgb(0,69,134)" stroke-linejoin="round" d="M 10383,5200 L 10383,5450 10633,5450 10633,5200 10383,5200 Z"/>
 <path fill="rgb(0,69,134)" stroke="none" d="M 17195,7478 L 17195,7728 17445,7728 17445,7478 17195,7478 Z"/>
 <path fill="none" stroke="rgb(0,69,134)" stroke-linejoin="round" d="M 17195,7478 L 17195,7728 17445,7728 17445,7478 17195,7478 Z"/>
 <path fill="rgb(0,69,134)" stroke="none" d="M 10390,5256 L 10390,5506 10640,5506 10640,5256 10390,5256 Z"/>
 <path fill="none" stroke="rgb(0,69,134)" stroke-linejoin="round" d="M 10390,5256 L 10390,5506 10640,5506 10640,5256 10390,5256 Z"/>
 <path fill="rgb(0,69,134)" stroke="none" d="M 19654,8207 L 19654,8457 19904,8457 19904,8207 19654,8207 Z"/>
 <path fill="none" stroke="rgb(0,69,134)" stroke-linejoin="round" d="M 19654,8207 L 19654,8457 19904,8457 19904,8207 19654,8207 Z"/>
 <path fill="rgb(0,69,134)" stroke="none" d="M 11927,5723 L 11927,5973 12176,5973 12176,5723 11927,5723 Z"/>
 <path fill="none" stroke="rgb(0,69,134)" stroke-linejoin="round" d="M 11927,5723 L 11927,5973 12176,5973 12176,5723 11927,5723 Z"/>
 <path fill="rgb(0,69,134)" stroke="none" d="M 17897,7758 L 17897,8008 18147,8008 18147,7758 17897,7758 Z"/>
 <path fill="none" stroke="rgb(0,69,134)" stroke-linejoin="round" d="M 17897,7758 L 17897,8008 18147,8008 18147,7758 17897,7758 Z"/>
 <path fill="rgb(0,69,134)" stroke="none" d="M 10716,5405 L 10716,5655 10966,5655 10966,5405 10716,5405 Z"/>
 <path fill="none" stroke="rgb(0,69,134)" stroke-linejoin="round" d="M 10716,5405 L 10716,5655 10966,5655 10966,5405 10716,5405 Z"/>
 <path fill="rgb(0,69,134)" stroke="none" d="M 17532,7683 L 17532,7933 17782,7933 17782,7683 17532,7683 Z"/>
 <path fill="none" stroke="rgb(0,69,134)" stroke-linejoin="round" d="M 17532,7683 L 17532,7933 17782,7933 17782,7683 17532,7683 Z"/>
 <path fill="rgb(0,69,134)" stroke="none" d="M 10366,5200 L 10366,5450 10616,5450 10616,5200 10366,5200 Z"/>
 <path fill="none" stroke="rgb(0,69,134)" stroke-linejoin="round" d="M 10366,5200 L 10366,5450 10616,5450 10616,5200 10366,5200 Z"/>
 <path fill="rgb(0,69,134)" stroke="none" d="M 17304,7590 L 17304,7840 17554,7840 17554,7590 17304,7590 Z"/>
 <path fill="none" stroke="rgb(0,69,134)" stroke-linejoin="round" d="M 17304,7590 L 17304,7840 17554,7840 17554,7590 17304,7590 Z"/>
 <path fill="rgb(0,69,134)" stroke="none" d="M 10425,5237 L 10425,5487 10675,5487 10675,5237 10425,5237 Z"/>
 <path fill="none" stroke="rgb(0,69,134)" stroke-linejoin="round" d="M 10425,5237 L 10425,5487 10675,5487 10675,5237 10425,5237 Z"/>
 <path fill="rgb(0,69,134)" stroke="none" d="M 18928,8020 L 18928,8270 19178,8270 19178,8020 18928,8020 Z"/>
 <path fill="none" stroke="rgb(0,69,134)" stroke-linejoin="round" d="M 18928,8020 L 18928,8270 19178,8270 19178,8020 18928,8020 Z"/>
 <path fill="rgb(0,69,134)" stroke="none" d="M 11920,5723 L 11920,5973 12169,5973 12169,5723 11920,5723 Z"/>
 <path fill="none" stroke="rgb(0,69,134)" stroke-linejoin="round" d="M 11920,5723 L 11920,5973 12169,5973 12169,5723 11920,5723 Z"/>
 <path fill="rgb(0,69,134)" stroke="none" d="M 18521,7478 L 18521,7728 18771,7728 18771,7478 18521,7478 Z"/>
 <path fill="none" stroke="rgb(0,69,134)" stroke-linejoin="round" d="M 18521,7478 L 18521,7728 18771,7728 18771,7478 18521,7478 Z"/>
 <path fill="rgb(0,69,134)" stroke="none" d="M 11155,5088 L 11155,5338 11405,5338 11405,5088 11155,5088 Z"/>
 <path fill="none" stroke="rgb(0,69,134)" stroke-linejoin="round" d="M 11155,5088 L 11155,5338 11405,5338 11405,5088 11155,5088 Z"/>
 <path fill="rgb(0,69,134)" stroke="none" d="M 18047,7254 L 18047,7504 18297,7504 18297,7254 18047,7254 Z"/>
 <path fill="none" stroke="rgb(0,69,134)" stroke-linejoin="round" d="M 18047,7254 L 18047,7504 18297,7504 18297,7254 18047,7254 Z"/>
 <path fill="rgb(0,69,134)" stroke="none" d="M 10699,4957 L 10699,5207 10949,5207 10949,4957 10699,4957 Z"/>
 <path fill="none" stroke="rgb(0,69,134)" stroke-linejoin="round" d="M 10699,4957 L 10699,5207 10949,5207 10949,4957 10699,4957 Z"/>
 <path fill="rgb(0,69,134)" stroke="none" d="M 18167,7291 L 18167,7541 18417,7541 18417,7291 18167,7291 Z"/>
 <path fill="none" stroke="rgb(0,69,134)" stroke-linejoin="round" d="M 18167,7291 L 18167,7541 18417,7541 18417,7291 18167,7291 Z"/>
 <path fill="rgb(0,69,134)" stroke="none" d="M 10737,4938 L 10737,5188 10987,5188 10987,4938 10737,4938 Z"/>
 <path fill="none" stroke="rgb(0,69,134)" stroke-linejoin="round" d="M 10737,4938 L 10737,5188 10987,5188 10987,4938 10737,4938 Z"/>
 <path fill="rgb(0,69,134)" stroke="none" d="M 20475,8038 L 20475,8288 20725,8288 20725,8038 20475,8038 Z"/>
 <path fill="none" stroke="rgb(0,69,134)" stroke-linejoin="round" d="M 20475,8038 L 20475,8288 20725,8288 20725,8038 20475,8038 Z"/>
 <path fill="rgb(0,69,134)" stroke="none" d="M 12329,5480 L 12329,5730 12579,5730 12579,5480 12329,5480 Z"/>
 <path fill="none" stroke="rgb(0,69,134)" stroke-linejoin="round" d="M 12329,5480 L 12329,5730 12579,5730 12579,5480 12329,5480 Z"/>
 <path fill="rgb(0,69,134)" stroke="none" d="M 17030,7049 L 17030,7298 17280,7298 17280,7049 17030,7049 Z"/>
 <path fill="none" stroke="rgb(0,69,134)" stroke-linejoin="round" d="M 17030,7049 L 17030,7298 17280,7298 17280,7049 17030,7049 Z"/>
 <path fill="rgb(0,69,134)" stroke="none" d="M 8762,4378 L 8762,4628 9012,4628 9012,4378 8762,4378 Z"/>
 <path fill="none" stroke="rgb(0,69,134)" stroke-linejoin="round" d="M 8762,4378 L 8762,4628 9012,4628 9012,4378 8762,4378 Z"/>
 <path fill="rgb(0,69,134)" stroke="none" d="M 14560,6246 L 14560,6496 14810,6496 14810,6246 14560,6246 Z"/>
 <path fill="none" stroke="rgb(0,69,134)" stroke-linejoin="round" d="M 14560,6246 L 14560,6496 14810,6496 14810,6246 14560,6246 Z"/>
 <path fill="rgb(0,69,134)" stroke="none" d="M 8433,4210 L 8433,4460 8683,4460 8683,4210 8433,4210 Z"/>
 <path fill="none" stroke="rgb(0,69,134)" stroke-linejoin="round" d="M 8433,4210 L 8433,4460 8683,4460 8683,4210 8433,4210 Z"/>
 <path fill="rgb(0,69,134)" stroke="none" d="M 15592,6582 L 15592,6832 15842,6832 15842,6582 15592,6582 Z"/>
 <path fill="none" stroke="rgb(0,69,134)" stroke-linejoin="round" d="M 15592,6582 L 15592,6832 15842,6832 15842,6582 15592,6582 Z"/>
 <path fill="rgb(0,69,134)" stroke="none" d="M 8397,4228 L 8397,4478 8647,4478 8647,4228 8397,4228 Z"/>
 <path fill="none" stroke="rgb(0,69,134)" stroke-linejoin="round" d="M 8397,4228 L 8397,4478 8647,4478 8647,4228 8397,4228 Z"/>
 <path fill="rgb(0,69,134)" stroke="none" d="M 18068,7347 L 18068,7597 18318,7597 18318,7347 18068,7347 Z"/>
 <path fill="none" stroke="rgb(0,69,134)" stroke-linejoin="round" d="M 18068,7347 L 18068,7597 18318,7597 18318,7347 18068,7347 Z"/>
 <path fill="rgb(0,69,134)" stroke="none" d="M 9909,4733 L 9909,4983 10159,4983 10159,4733 9909,4733 Z"/>
 <path fill="none" stroke="rgb(0,69,134)" stroke-linejoin="round" d="M 9909,4733 L 9909,4983 10159,4983 10159,4733 9909,4733 Z"/>
 <path fill="rgb(0,69,134)" stroke="none" d="M 15444,6713 L 15444,6963 15694,6963 15694,6713 15444,6713 Z"/>
 <path fill="none" stroke="rgb(0,69,134)" stroke-linejoin="round" d="M 15444,6713 L 15444,6963 15694,6963 15694,6713 15444,6713 Z"/>
 <path fill="rgb(0,69,134)" stroke="none" d="M 11481,5312 L 11481,5562 11731,5562 11731,5312 11481,5312 Z"/>
 <path fill="none" stroke="rgb(0,69,134)" stroke-linejoin="round" d="M 11481,5312 L 11481,5562 11731,5562 11731,5312 11481,5312 Z"/>
 <path fill="rgb(0,69,134)" stroke="none" d="M 9962,4994 L 9962,5244 10212,5244 10212,4994 9962,4994 Z"/>
 <path fill="none" stroke="rgb(0,69,134)" stroke-linejoin="round" d="M 9962,4994 L 9962,5244 10212,5244 10212,4994 9962,4994 Z"/>
 <path fill="rgb(0,69,134)" stroke="none" d="M 8871,5648 L 8871,5898 9121,5898 9121,5648 8871,5648 Z"/>
 <path fill="none" stroke="rgb(0,69,134)" stroke-linejoin="round" d="M 8871,5648 L 8871,5898 9121,5898 9121,5648 8871,5648 Z"/>
 <path fill="rgb(0,69,134)" stroke="none" d="M 9881,5349 L 9881,5599 10131,5599 10131,5349 9881,5349 Z"/>
 <path fill="none" stroke="rgb(0,69,134)" stroke-linejoin="round" d="M 9881,5349 L 9881,5599 10131,5599 10131,5349 9881,5349 Z"/>
 <path fill="rgb(0,69,134)" stroke="none" d="M 12067,5984 L 12067,6234 12316,6234 12316,5984 12067,5984 Z"/>
 <path fill="none" stroke="rgb(0,69,134)" stroke-linejoin="round" d="M 12067,5984 L 12067,6234 12316,6234 12316,5984 12067,5984 Z"/>
 <path fill="rgb(0,69,134)" stroke="none" d="M 9997,5256 L 9997,5506 10247,5506 10247,5256 9997,5256 Z"/>
 <path fill="none" stroke="rgb(0,69,134)" stroke-linejoin="round" d="M 9997,5256 L 9997,5506 10247,5506 10247,5256 9997,5256 Z"/>
 <path fill="rgb(0,69,134)" stroke="none" d="M 10867,5536 L 10867,5786 11117,5786 11117,5536 10867,5536 Z"/>
 <path fill="none" stroke="rgb(0,69,134)" stroke-linejoin="round" d="M 10867,5536 L 10867,5786 11117,5786 11117,5536 10867,5536 Z"/>
 <path fill="rgb(0,69,134)" stroke="none" d="M 11414,6209 L 11414,6459 11664,6459 11664,6209 11414,6209 Z"/>
 <path fill="none" stroke="rgb(0,69,134)" stroke-linejoin="round" d="M 11414,6209 L 11414,6459 11664,6459 11664,6209 11414,6209 Z"/>
 <path fill="rgb(0,69,134)" stroke="none" d="M 5952,3948 L 5952,4198 6202,4198 6202,3948 5952,3948 Z"/>
 <path fill="none" stroke="rgb(0,69,134)" stroke-linejoin="round" d="M 5952,3948 L 5952,4198 6202,4198 6202,3948 5952,3948 Z"/>
 <path fill="rgb(0,69,134)" stroke="none" d="M 10748,5760 L 10748,6010 10998,6010 10998,5760 10748,5760 Z"/>
 <path fill="none" stroke="rgb(0,69,134)" stroke-linejoin="round" d="M 10748,5760 L 10748,6010 10998,6010 10998,5760 10748,5760 Z"/>
 <path fill="rgb(0,69,134)" stroke="none" d="M 5819,3873 L 5819,4123 6069,4123 6069,3873 5819,3873 Z"/>
 <path fill="none" stroke="rgb(0,69,134)" stroke-linejoin="round" d="M 5819,3873 L 5819,4123 6069,4123 6069,3873 5819,3873 Z"/>
 <path fill="rgb(0,69,134)" stroke="none" d="M 10958,6059 L 10958,6309 11208,6309 11208,6059 10958,6059 Z"/>
 <path fill="none" stroke="rgb(0,69,134)" stroke-linejoin="round" d="M 10958,6059 L 10958,6309 11208,6309 11208,6059 10958,6059 Z"/>
 <path fill="rgb(0,69,134)" stroke="none" d="M 5798,3873 L 5798,4123 6048,4123 6048,3873 5798,3873 Z"/>
 <path fill="none" stroke="rgb(0,69,134)" stroke-linejoin="round" d="M 5798,3873 L 5798,4123 6048,4123 6048,3873 5798,3873 Z"/>
 <path fill="rgb(0,69,134)" stroke="none" d="M 13357,6694 L 13357,6944 13607,6944 13607,6694 13357,6694 Z"/>
 <path fill="none" stroke="rgb(0,69,134)" stroke-linejoin="round" d="M 13357,6694 L 13357,6944 13607,6944 13607,6694 13357,6694 Z"/>
 <path fill="rgb(0,69,134)" stroke="none" d="M 6250,4098 L 6250,4348 6500,4348 6500,4098 6250,4098 Z"/>
 <path fill="none" stroke="rgb(0,69,134)" stroke-linejoin="round" d="M 6250,4098 L 6250,4348 6500,4348 6500,4098 6250,4098 Z"/>
 <path fill="rgb(0,69,134)" stroke="none" d="M 12483,6470 L 12483,6720 12733,6720 12733,6470 12483,6470 Z"/>
 <path fill="none" stroke="rgb(0,69,134)" stroke-linejoin="round" d="M 12483,6470 L 12483,6720 12733,6720 12733,6470 12483,6470 Z"/>
 <path fill="rgb(0,69,134)" stroke="none" d="M 5931,3929 L 5931,4179 6181,4179 6181,3929 5931,3929 Z"/>
 <path fill="none" stroke="rgb(0,69,134)" stroke-linejoin="round" d="M 5931,3929 L 5931,4179 6181,4179 6181,3929 5931,3929 Z"/>
 <path fill="rgb(0,69,134)" stroke="none" d="M 11204,6059 L 11204,6309 11454,6309 11454,6059 11204,6059 Z"/>
 <path fill="none" stroke="rgb(0,69,134)" stroke-linejoin="round" d="M 11204,6059 L 11204,6309 11454,6309 11454,6059 11204,6059 Z"/>
 <path fill="rgb(0,69,134)" stroke="none" d="M 5798,3892 L 5798,4142 6048,4142 6048,3892 5798,3892 Z"/>
 <path fill="none" stroke="rgb(0,69,134)" stroke-linejoin="round" d="M 5798,3892 L 5798,4142 6048,4142 6048,3892 5798,3892 Z"/>
 <path fill="rgb(0,69,134)" stroke="none" d="M 11706,6134 L 11706,6384 11956,6384 11956,6134 11706,6134 Z"/>
 <path fill="none" stroke="rgb(0,69,134)" stroke-linejoin="round" d="M 11706,6134 L 11706,6384 11956,6384 11956,6134 11706,6134 Z"/>
 <path fill="rgb(0,69,134)" stroke="none" d="M 5812,3892 L 5812,4142 6062,4142 6062,3892 5812,3892 Z"/>
 <path fill="none" stroke="rgb(0,69,134)" stroke-linejoin="round" d="M 5812,3892 L 5812,4142 6062,4142 6062,3892 5812,3892 Z"/>
 <path fill="rgb(0,69,134)" stroke="none" d="M 12975,6582 L 12975,6832 13225,6832 13225,6582 12975,6582 Z"/>
 <path fill="none" stroke="rgb(0,69,134)" stroke-linejoin="round" d="M 12975,6582 L 12975,6832 13225,6832 13225,6582 12975,6582 Z"/>
 <path fill="rgb(0,69,134)" stroke="none" d="M 6264,4079 L 6264,4329 6514,4329 6514,4079 6264,4079 Z"/>
 <path fill="none" stroke="rgb(0,69,134)" stroke-linejoin="round" d="M 6264,4079 L 6264,4329 6514,4329 6514,4079 6264,4079 Z"/>
 <path fill="rgb(0,69,134)" stroke="none" d="M 10481,5499 L 10481,5749 10731,5749 10731,5499 10481,5499 Z"/>
 <path fill="none" stroke="rgb(0,69,134)" stroke-linejoin="round" d="M 10481,5499 L 10481,5749 10731,5749 10731,5499 10481,5499 Z"/>
 <path fill="rgb(0,69,134)" stroke="none" d="M 5798,3743 L 5798,3993 6048,3993 6048,3743 5798,3743 Z"/>
 <path fill="none" stroke="rgb(0,69,134)" stroke-linejoin="round" d="M 5798,3743 L 5798,3993 6048,3993 6048,3743 5798,3743 Z"/>
 <path fill="rgb(0,69,134)" stroke="none" d="M 10471,5779 L 10471,6029 10721,6029 10721,5779 10471,5779 Z"/>
 <path fill="none" stroke="rgb(0,69,134)" stroke-linejoin="round" d="M 10471,5779 L 10471,6029 10721,6029 10721,5779 10471,5779 Z"/>
 <path fill="rgb(0,69,134)" stroke="none" d="M 5675,3687 L 5675,3937 5925,3937 5925,3687 5675,3687 Z"/>
 <path fill="none" stroke="rgb(0,69,134)" stroke-linejoin="round" d="M 5675,3687 L 5675,3937 5925,3937 5925,3687 5675,3687 Z"/>
 <path fill="rgb(0,69,134)" stroke="none" d="M 10053,5349 L 10053,5599 10303,5599 10303,5349 10053,5349 Z"/>
 <path fill="none" stroke="rgb(0,69,134)" stroke-linejoin="round" d="M 10053,5349 L 10053,5599 10303,5599 10303,5349 10053,5349 Z"/>
 <path fill="rgb(0,69,134)" stroke="none" d="M 5682,3743 L 5682,3993 5932,3993 5932,3743 5682,3743 Z"/>
 <path fill="none" stroke="rgb(0,69,134)" stroke-linejoin="round" d="M 5682,3743 L 5682,3993 5932,3993 5932,3743 5682,3743 Z"/>
 <path fill="rgb(0,69,134)" stroke="none" d="M 10352,5742 L 10352,5992 10602,5992 10602,5742 10352,5742 Z"/>
 <path fill="none" stroke="rgb(0,69,134)" stroke-linejoin="round" d="M 10352,5742 L 10352,5992 10602,5992 10602,5742 10352,5742 Z"/>
 <path fill="rgb(0,69,134)" stroke="none" d="M 6149,3873 L 6149,4123 6399,4123 6399,3873 6149,3873 Z"/>
 <path fill="none" stroke="rgb(0,69,134)" stroke-linejoin="round" d="M 6149,3873 L 6149,4123 6399,4123 6399,3873 6149,3873 Z"/>
 <path fill="rgb(0,69,134)" stroke="none" d="M 9264,5331 L 9264,5581 9514,5581 9514,5331 9264,5331 Z"/>
 <path fill="none" stroke="rgb(0,69,134)" stroke-linejoin="round" d="M 9264,5331 L 9264,5581 9514,5581 9514,5331 9264,5331 Z"/>
 <path fill="rgb(0,69,134)" stroke="none" d="M 5900,3761 L 5900,4011 6150,4011 6150,3761 5900,3761 Z"/>
 <path fill="none" stroke="rgb(0,69,134)" stroke-linejoin="round" d="M 5900,3761 L 5900,4011 6150,4011 6150,3761 5900,3761 Z"/>
 <path fill="rgb(0,69,134)" stroke="none" d="M 9752,5293 L 9752,5543 10002,5543 10002,5293 9752,5293 Z"/>
 <path fill="none" stroke="rgb(0,69,134)" stroke-linejoin="round" d="M 9752,5293 L 9752,5543 10002,5543 10002,5293 9752,5293 Z"/>
 <path fill="rgb(0,69,134)" stroke="none" d="M 5717,3705 L 5717,3955 5967,3955 5967,3705 5717,3705 Z"/>
 <path fill="none" stroke="rgb(0,69,134)" stroke-linejoin="round" d="M 5717,3705 L 5717,3955 5967,3955 5967,3705 5717,3705 Z"/>
 <path fill="rgb(0,69,134)" stroke="none" d="M 10751,5816 L 10751,6066 11001,6066 11001,5816 10751,5816 Z"/>
 <path fill="none" stroke="rgb(0,69,134)" stroke-linejoin="round" d="M 10751,5816 L 10751,6066 11001,6066 11001,5816 10751,5816 Z"/>
 <path fill="rgb(0,69,134)" stroke="none" d="M 5745,3705 L 5745,3955 5995,3955 5995,3705 5745,3705 Z"/>
 <path fill="none" stroke="rgb(0,69,134)" stroke-linejoin="round" d="M 5745,3705 L 5745,3955 5995,3955 5995,3705 5745,3705 Z"/>
 <path fill="rgb(0,69,134)" stroke="none" d="M 11899,6059 L 11899,6309 12148,6309 12148,6059 11899,6059 Z"/>
 <path fill="none" stroke="rgb(0,69,134)" stroke-linejoin="round" d="M 11899,6059 L 11899,6309 12148,6309 12148,6059 11899,6059 Z"/>
 <path fill="rgb(0,69,134)" stroke="none" d="M 6198,3855 L 6198,4105 6448,4105 6448,3855 6198,3855 Z"/>
 <path fill="none" stroke="rgb(0,69,134)" stroke-linejoin="round" d="M 6198,3855 L 6198,4105 6448,4105 6448,3855 6198,3855 Z"/>
 <path fill="rgb(0,69,134)" stroke="none" d="M 10236,5480 L 10236,5730 10486,5730 10486,5480 10236,5480 Z"/>
 <path fill="none" stroke="rgb(0,69,134)" stroke-linejoin="round" d="M 10236,5480 L 10236,5730 10486,5730 10486,5480 10236,5480 Z"/>
 <path fill="rgb(0,69,134)" stroke="none" d="M 5861,3705 L 5861,3955 6111,3955 6111,3705 5861,3705 Z"/>
 <path fill="none" stroke="rgb(0,69,134)" stroke-linejoin="round" d="M 5861,3705 L 5861,3955 6111,3955 6111,3705 5861,3705 Z"/>
 <path fill="rgb(0,69,134)" stroke="none" d="M 9355,5106 L 9355,5356 9605,5356 9605,5106 9355,5106 Z"/>
 <path fill="none" stroke="rgb(0,69,134)" stroke-linejoin="round" d="M 9355,5106 L 9355,5356 9605,5356 9605,5106 9355,5106 Z"/>
 <path fill="rgb(0,69,134)" stroke="none" d="M 5805,3724 L 5805,3974 6055,3974 6055,3724 5805,3724 Z"/>
 <path fill="none" stroke="rgb(0,69,134)" stroke-linejoin="round" d="M 5805,3724 L 5805,3974 6055,3974 6055,3724 5805,3724 Z"/>
 <path fill="rgb(0,69,134)" stroke="none" d="M 9629,5219 L 9629,5469 9879,5469 9879,5219 9629,5219 Z"/>
 <path fill="none" stroke="rgb(0,69,134)" stroke-linejoin="round" d="M 9629,5219 L 9629,5469 9879,5469 9879,5219 9629,5219 Z"/>
 <path fill="rgb(0,69,134)" stroke="none" d="M 5693,3780 L 5693,4030 5943,4030 5943,3780 5693,3780 Z"/>
 <path fill="none" stroke="rgb(0,69,134)" stroke-linejoin="round" d="M 5693,3780 L 5693,4030 5943,4030 5943,3780 5693,3780 Z"/>
 <path fill="rgb(0,69,134)" stroke="none" d="M 10383,5424 L 10383,5674 10633,5674 10633,5424 10383,5424 Z"/>
 <path fill="none" stroke="rgb(0,69,134)" stroke-linejoin="round" d="M 10383,5424 L 10383,5674 10633,5674 10633,5424 10383,5424 Z"/>
 <path fill="rgb(0,69,134)" stroke="none" d="M 6264,3817 L 6264,4067 6514,4067 6514,3817 6264,3817 Z"/>
 <path fill="none" stroke="rgb(0,69,134)" stroke-linejoin="round" d="M 6264,3817 L 6264,4067 6514,4067 6514,3817 6264,3817 Z"/>
 <path fill="rgb(0,69,134)" stroke="none" d="M 10692,5405 L 10692,5655 10942,5655 10942,5405 10692,5405 Z"/>
 <path fill="none" stroke="rgb(0,69,134)" stroke-linejoin="round" d="M 10692,5405 L 10692,5655 10942,5655 10942,5405 10692,5405 Z"/>
 <path fill="rgb(0,69,134)" stroke="none" d="M 5872,3705 L 5872,3955 6122,3955 6122,3705 5872,3705 Z"/>
 <path fill="none" stroke="rgb(0,69,134)" stroke-linejoin="round" d="M 5872,3705 L 5872,3955 6122,3955 6122,3705 5872,3705 Z"/>
 <path fill="rgb(0,69,134)" stroke="none" d="M 9987,5275 L 9987,5525 10237,5525 10237,5275 9987,5275 Z"/>
 <path fill="none" stroke="rgb(0,69,134)" stroke-linejoin="round" d="M 9987,5275 L 9987,5525 10237,5525 10237,5275 9987,5275 Z"/>
 <path fill="rgb(0,69,134)" stroke="none" d="M 5742,3649 L 5742,3899 5992,3899 5992,3649 5742,3649 Z"/>
 <path fill="none" stroke="rgb(0,69,134)" stroke-linejoin="round" d="M 5742,3649 L 5742,3899 5992,3899 5992,3649 5742,3649 Z"/>
 <path fill="rgb(0,69,134)" stroke="none" d="M 9208,5349 L 9208,5599 9458,5599 9458,5349 9208,5349 Z"/>
 <path fill="none" stroke="rgb(0,69,134)" stroke-linejoin="round" d="M 9208,5349 L 9208,5599 9458,5599 9458,5349 9208,5349 Z"/>
 <path fill="rgb(0,69,134)" stroke="none" d="M 5756,3631 L 5756,3881 6006,3881 6006,3631 5756,3631 Z"/>
 <path fill="none" stroke="rgb(0,69,134)" stroke-linejoin="round" d="M 5756,3631 L 5756,3881 6006,3881 6006,3631 5756,3631 Z"/>
 <path fill="rgb(0,69,134)" stroke="none" d="M 11436,5704 L 11436,5954 11686,5954 11686,5704 11436,5704 Z"/>
 <path fill="none" stroke="rgb(0,69,134)" stroke-linejoin="round" d="M 11436,5704 L 11436,5954 11686,5954 11686,5704 11436,5704 Z"/>
 <path fill="rgb(0,69,134)" stroke="none" d="M 6233,3855 L 6233,4105 6483,4105 6483,3855 6233,3855 Z"/>
 <path fill="none" stroke="rgb(0,69,134)" stroke-linejoin="round" d="M 6233,3855 L 6233,4105 6483,4105 6483,3855 6233,3855 Z"/>
 <path fill="rgb(0,69,134)" stroke="none" d="M 10341,5331 L 10341,5581 10591,5581 10591,5331 10341,5331 Z"/>
 <path fill="none" stroke="rgb(0,69,134)" stroke-linejoin="round" d="M 10341,5331 L 10341,5581 10591,5581 10591,5331 10341,5331 Z"/>
 <path fill="rgb(0,69,134)" stroke="none" d="M 10123,5405 L 10123,5655 10373,5655 10373,5405 10123,5405 Z"/>
 <path fill="none" stroke="rgb(0,69,134)" stroke-linejoin="round" d="M 10123,5405 L 10123,5655 10373,5655 10373,5405 10123,5405 Z"/>
 <path fill="rgb(0,69,134)" stroke="none" d="M 8969,4957 L 8969,5207 9219,5207 9219,4957 8969,4957 Z"/>
 <path fill="none" stroke="rgb(0,69,134)" stroke-linejoin="round" d="M 8969,4957 L 8969,5207 9219,5207 9219,4957 8969,4957 Z"/>
 <path fill="rgb(0,69,134)" stroke="none" d="M 11008,5611 L 11008,5861 11258,5861 11258,5611 11008,5611 Z"/>
 <path fill="none" stroke="rgb(0,69,134)" stroke-linejoin="round" d="M 11008,5611 L 11008,5861 11258,5861 11258,5611 11008,5611 Z"/>
 <path fill="rgb(0,69,134)" stroke="none" d="M 10025,5349 L 10025,5599 10275,5599 10275,5349 10025,5349 Z"/>
 <path fill="none" stroke="rgb(0,69,134)" stroke-linejoin="round" d="M 10025,5349 L 10025,5599 10275,5599 10275,5349 10025,5349 Z"/>
 <path fill="rgb(0,69,134)" stroke="none" d="M 9973,5219 L 9973,5469 10223,5469 10223,5219 9973,5219 Z"/>
 <path fill="none" stroke="rgb(0,69,134)" stroke-linejoin="round" d="M 9973,5219 L 9973,5469 10223,5469 10223,5219 9973,5219 Z"/>
 <path fill="rgb(0,69,134)" stroke="none" d="M 9853,5162 L 9853,5412 10103,5412 10103,5162 9853,5162 Z"/>
 <path fill="none" stroke="rgb(0,69,134)" stroke-linejoin="round" d="M 9853,5162 L 9853,5412 10103,5412 10103,5162 9853,5162 Z"/>
 <path fill="rgb(0,69,134)" stroke="none" d="M 11362,5742 L 11362,5992 11612,5992 11612,5742 11362,5742 Z"/>
 <path fill="none" stroke="rgb(0,69,134)" stroke-linejoin="round" d="M 11362,5742 L 11362,5992 11612,5992 11612,5742 11362,5742 Z"/>
 <path fill="rgb(0,69,134)" stroke="none" d="M 11692,5910 L 11692,6160 11942,6160 11942,5910 11692,5910 Z"/>
 <path fill="none" stroke="rgb(0,69,134)" stroke-linejoin="round" d="M 11692,5910 L 11692,6160 11942,6160 11942,5910 11692,5910 Z"/>
 <path fill="rgb(0,69,134)" stroke="none" d="M 10523,5611 L 10523,5861 10773,5861 10773,5611 10523,5611 Z"/>
 <path fill="none" stroke="rgb(0,69,134)" stroke-linejoin="round" d="M 10523,5611 L 10523,5861 10773,5861 10773,5611 10523,5611 Z"/>
 <path fill="rgb(0,69,134)" stroke="none" d="M 9050,4938 L 9050,5188 9300,5188 9300,4938 9050,4938 Z"/>
 <path fill="none" stroke="rgb(0,69,134)" stroke-linejoin="round" d="M 9050,4938 L 9050,5188 9300,5188 9300,4938 9050,4938 Z"/>
 <path fill="rgb(0,69,134)" stroke="none" d="M 11450,5891 L 11450,6141 11700,6141 11700,5891 11450,5891 Z"/>
 <path fill="none" stroke="rgb(0,69,134)" stroke-linejoin="round" d="M 11450,5891 L 11450,6141 11700,6141 11700,5891 11450,5891 Z"/>
 <path fill="rgb(0,69,134)" stroke="none" d="M 9724,5256 L 9724,5506 9974,5506 9974,5256 9724,5256 Z"/>
 <path fill="none" stroke="rgb(0,69,134)" stroke-linejoin="round" d="M 9724,5256 L 9724,5506 9974,5506 9974,5256 9724,5256 Z"/>
 <path fill="rgb(0,69,134)" stroke="none" d="M 9902,5125 L 9902,5375 10152,5375 10152,5125 9902,5125 Z"/>
 <path fill="none" stroke="rgb(0,69,134)" stroke-linejoin="round" d="M 9902,5125 L 9902,5375 10152,5375 10152,5125 9902,5125 Z"/>
 <path fill="none" stroke="rgb(0,0,0)" stroke-width="51" stroke-linejoin="round" stroke-dasharray="100,65" d="M 2292,2891 L 22930,9296"/>
 <text class="TextShape"><tspan class="TextParagraph" font-family="Liberation Sans, sans-serif" font-size="564px" font-weight="400"><tspan class="TextPosition" x="1216" y="13970"><tspan fill="rgb(0,0,0)" stroke="none">0.0%</tspan></tspan></tspan></text>
 <text class="TextShape"><tspan class="TextParagraph" font-family="Liberation Sans, sans-serif" font-size="564px" font-weight="400"><tspan class="TextPosition" x="4560" y="13970"><tspan fill="rgb(0,0,0)" stroke="none">10.0%</tspan></tspan></tspan></text>
 <text class="TextShape"><tspan class="TextParagraph" font-family="Liberation Sans, sans-serif" font-size="564px" font-weight="400"><tspan class="TextPosition" x="8068" y="13970"><tspan fill="rgb(0,0,0)" stroke="none">20.0%</tspan></tspan></tspan></text>
 <text class="TextShape"><tspan class="TextParagraph" font-family="Liberation Sans, sans-serif" font-size="564px" font-weight="400"><tspan class="TextPosition" x="11576" y="13970"><tspan fill="rgb(0,0,0)" stroke="none">30.0%</tspan></tspan></tspan></text>
 <text class="TextShape"><tspan class="TextParagraph" font-family="Liberation Sans, sans-serif" font-size="564px" font-weight="400"><tspan class="TextPosition" x="15084" y="13970"><tspan fill="rgb(0,0,0)" stroke="none">40.0%</tspan></tspan></tspan></text>
 <text class="TextShape"><tspan class="TextParagraph" font-family="Liberation Sans, sans-serif" font-size="564px" font-weight="400"><tspan class="TextPosition" x="18592" y="13970"><tspan fill="rgb(0,0,0)" stroke="none">50.0%</tspan></tspan></tspan></text>
 <text class="TextShape"><tspan class="TextParagraph" font-family="Liberation Sans, sans-serif" font-size="564px" font-weight="400"><tspan class="TextPosition" x="22101" y="13970"><tspan fill="rgb(0,0,0)" stroke="none">60.0%</tspan></tspan></tspan></text>
 <text class="TextShape"><tspan class="TextParagraph" font-family="Liberation Sans, sans-serif" font-size="564px" font-weight="400"><tspan class="TextPosition" x="813" y="13404"><tspan fill="rgb(0,0,0)" stroke="none">0.0</tspan></tspan></tspan></text>
 <text class="TextShape"><tspan class="TextParagraph" font-family="Liberation Sans, sans-serif" font-size="564px" font-weight="400"><tspan class="TextPosition" x="485" y="11535"><tspan fill="rgb(0,0,0)" stroke="none">10.0</tspan></tspan></tspan></text>
 <text class="TextShape"><tspan class="TextParagraph" font-family="Liberation Sans, sans-serif" font-size="564px" font-weight="400"><tspan class="TextPosition" x="485" y="9667"><tspan fill="rgb(0,0,0)" stroke="none">20.0</tspan></tspan></tspan></text>
 <text class="TextShape"><tspan class="TextParagraph" font-family="Liberation Sans, sans-serif" font-size="564px" font-weight="400"><tspan class="TextPosition" x="485" y="7799"><tspan fill="rgb(0,0,0)" stroke="none">30.0</tspan></tspan></tspan></text>
 <text class="TextShape"><tspan class="TextParagraph" font-family="Liberation Sans, sans-serif" font-size="564px" font-weight="400"><tspan class="TextPosition" x="485" y="5931"><tspan fill="rgb(0,0,0)" stroke="none">40.0</tspan></tspan></tspan></text>
 <text class="TextShape"><tspan class="TextParagraph" font-family="Liberation Sans, sans-serif" font-size="564px" font-weight="400"><tspan class="TextPosition" x="485" y="4063"><tspan fill="rgb(0,0,0)" stroke="none">50.0</tspan></tspan></tspan></text>
 <text class="TextShape"><tspan class="TextParagraph" font-family="Liberation Sans, sans-serif" font-size="564px" font-weight="400"><tspan class="TextPosition" x="485" y="2195"><tspan fill="rgb(0,0,0)" stroke="none">60.0</tspan></tspan></tspan></text>
 <text class="TextShape"><tspan class="TextParagraph" font-family="Liberation Sans, sans-serif" font-size="564px" font-weight="400"><tspan class="TextPosition" x="2857" y="5548"><tspan fill="rgb(0,0,0)" stroke="none">y = − 58.28 x + 55.91</tspan></tspan></tspan><tspan class="TextParagraph" font-family="Liberation Sans, sans-serif" font-size="564px" font-weight="400"><tspan class="TextPosition" x="2857" y="6183"><tspan fill="rgb(0,0,0)" stroke="none">R² = 0.95</tspan></tspan></tspan></text>
 <text class="TextShape"><tspan class="TextParagraph" font-family="Liberation Sans, sans-serif" font-size="564px" font-weight="400"><tspan class="TextPosition" x="5343" y="1104"><tspan fill="rgb(0,0,0)" stroke="none">Blocks / second vs % of time main thread waiting DB</tspan></tspan></tspan></text>
</svg>