<svg version="1.1" class="highcharts-root" style="font-family:&quot;Lucida Grande&quot;, &quot;Lucida Sans Unicode&quot;, Arial, Helvetica, sans-serif;font-size:12px;"
    xmlns="http://www.w3.org/2000/svg" width="600" height="400" viewBox="0 0 600 400">
    <desc>Created with Highcharts 9.3.3</desc>
    <defs>
        <clipPath id="highcharts-s277pag-10-">
            <rect x="0" y="0" width="580" height="375" fill="none"></rect>
        </clipPath>
    </defs>
    <rect fill="#252830" class="highcharts-background" x="0" y="0" width="600" height="400" rx="0" ry="0"></rect>
    <rect fill="none" class="highcharts-plot-background" x="10" y="10" width="580" height="375"></rect>
    <rect fill="none" class="highcharts-plot-border" data-z-index="1" x="10" y="10" width="580" height="375"></rect>
    <g class="highcharts-series-group" data-z-index="3">
        <g class="highcharts-series highcharts-series-0 highcharts-pie-series highcharts-tracker" data-z-index="0.1" opacity="1" transform="translate(10,10) scale(1 1)" style="cursor:pointer;" clip-path="none">
            <path fill="#1997c6" d="M 317.46944901944573 48.00000311120809 A 150 150 0 1 1 197.58161065035281 107.89128845784987 L 198.38106657935046 108.49201320146419 A 149 149 0 1 0 317.4696526926494 49.00000309046669 Z" class="highcharts-halo highcharts-color-0" data-z-index="-1" fill-opacity="0.25" visibility="hidden"></path>
            <path fill="#1997c6" d="M 317.46944901944573 48.00000311120809 A 150 150 0 1 1 197.58161065035281 107.89128845784987 L 317.5 198 A 0 0 0 1 0 317.5 198 Z" transform="translate(0,0)" stroke="#252830" stroke-width="1" opacity="1" stroke-linejoin="round" class="highcharts-point highcharts-color-0"></path>
            <path fill="#18b37e" d="M 197.67177930606653 107.77141514283863 A 150 150 0 0 1 244.48440918002427 66.97052431910646 L 317.5 198 A 0 0 0 0 0 317.5 198 Z" transform="translate(0,0)" stroke="#252830" stroke-width="1" opacity="1" stroke-linejoin="round" class="highcharts-point highcharts-color-1"></path>
            <path fill="#8b6cff" d="M 244.61547514165932 66.89757425518809 A 150 150 0 0 1 292.6566568219949 50.071610906696264 L 317.5 198 A 0 0 0 0 0 317.5 198 Z" transform="translate(0,0)" stroke="#252830" stroke-width="1" opacity="1" stroke-linejoin="round" class="highcharts-point highcharts-color-2"></path>
            <path fill="#e1d420" d="M 292.804597608104 50.04684153184718 A 150 150 0 0 1 307.8483253814825 48.31083814431233 L 317.5 198 A 0 0 0 0 0 317.5 198 Z" transform="translate(0,0)" stroke="#252830" stroke-width="1" opacity="1" stroke-linejoin="round" class="highcharts-point highcharts-color-3"></path>
            <path fill="#e33145" d="M 307.9980193442269 48.3012613158771 A 150 150 0 0 1 315.04176299228016 48.02014444994995 L 317.5 198 A 0 0 0 0 0 317.5 198 Z" transform="translate(0,0)" stroke="#252830" stroke-width="1" opacity="1" stroke-linejoin="round" class="highcharts-point highcharts-color-4"></path>
            <path fill="#51586a" d="M 315.191744051952 48.017761203273466 A 150 150 0 0 1 315.9416809744488 48.008094745701015 L 317.5 198 A 0 0 0 0 0 317.5 198 Z" transform="translate(0,0)" stroke="#252830" stroke-width="1" opacity="1" stroke-linejoin="round" class="highcharts-point highcharts-color-5"></path>
            <path fill="#1997c6" d="M 316.09167363386393 48.00661142288155 A 150 150 0 0 1 316.5416594620891 48.00306141986297 L 317.5 198 A 0 0 0 0 0 317.5 198 Z" transform="translate(0,0)" stroke="#252830" stroke-width="1" opacity="1" stroke-linejoin="round" class="highcharts-point highcharts-color-6"></path>
            <path fill="#18b37e" d="M 316.69165685484006 48.00217807794783 A 150 150 0 0 1 316.9916539153728 48.00086138827916 L 317.5 198 A 0 0 0 0 0 317.5 198 Z" transform="translate(0,0)" stroke="#252830" stroke-width="1" opacity="1" stroke-linejoin="round" class="highcharts-point highcharts-color-7"></path>
            <path fill="#8b6cff" d="M 317.1416532831578 48.0004280418423 A 150 150 0 0 1 317.29165300928923 48.000144694964916 L 317.5 198 A 0 0 0 0 0 317.5 198 Z" transform="translate(0,0)" stroke="#252830" stroke-width="1" opacity="1" stroke-linejoin="round" class="highcharts-point highcharts-color-8"></path>
        </g>
        <g class="highcharts-markers highcharts-series-0 highcharts-pie-series" data-z-index="0.1" opacity="1" transform="translate(10,10) scale(1 1)" clip-path="none"></g>
    </g>
    <text x="300" text-anchor="middle" class="highcharts-title" data-z-index="4" style="color:#333333;font-size:18px;fill:#333333;" y="24"></text>
    <text x="300" text-anchor="middle" class="highcharts-subtitle" data-z-index="4" style="color:#666666;fill:#666666;" y="24"></text>
    <text x="10" text-anchor="start" class="highcharts-caption" data-z-index="4" style="color:#666666;fill:#666666;" y="397"></text>
    <g class="highcharts-data-labels highcharts-series-0 highcharts-pie-series highcharts-tracker" data-z-index="6" opacity="1" transform="translate(10,10) scale(1 1)" style="cursor:pointer;">
        <path fill="none" class="highcharts-data-label-connector highcharts-color-0" stroke="#1997c6" stroke-width="1" d="M 402.86967793106163 359.0612146646654 C 397.86967793106163 359.0612146646654 389.83271013795553 342.9550931981988 387.1537208735868 337.58638604271 L 384.47473160921805 332.21767888722115" opacity="1"></path>
        <path fill="none" class="highcharts-data-label-connector highcharts-color-1" stroke="#18b37e" stroke-width="1" d="M 145.96682267805386 129.6867446899414 C 150.96682267805386 129.6867446899414 211.07262012585966 75.86395776378934 215.014374936013 80.387514883649 L 218.95612974616637 84.91107200350866" opacity="1"></path>
        <path fill="none" class="highcharts-data-label-connector highcharts-color-2" stroke="#8b6cff" stroke-width="1" d="M 156.9928684932296 107.34939575195312 C 161.9928684932296 107.34939575195312 263.99212005726764 45.091835456591326 265.97389338847995 50.755100810050905 L 267.95566671969226 56.418366163510484" opacity="1"></path>
        <path fill="none" class="highcharts-data-label-connector highcharts-color-3" stroke="#e1d420" stroke-width="1" d="M 172.3796144922862 85.01204681396484 C 177.3796144922862 85.01204681396484 298.9933038888482 37.0605635680009 299.6787370781501 43.02128343585272 L 300.36417026745204 48.982003303704545" opacity="1"></path>
        <path fill="none" class="highcharts-data-label-connector highcharts-color-4" stroke="#e33145" stroke-width="1" d="M 193.8110678915604 62.67469787597656 C 198.8110678915604 62.67469787597656 311.08149998242584 36.12720161335197 311.31922220529896 42.122490442487084 L 311.5569444281721 48.1177792716222" opacity="1"></path>
        <path fill="none" class="highcharts-data-label-connector highcharts-color-5" stroke="#51586a" stroke-width="1" d="M 225.6524988264007 40.33734893798828 C 230.6524988264007 40.33734893798828 315.43925691092045 36.01310751199401 315.5155807290345 42.01262204858682 L 315.5919045471486 48.01213658517963" opacity="1"></path>
        <path fill="none" class="highcharts-data-label-connector highcharts-color-6" stroke="#1997c6" stroke-width="1" d="M 311.09092128465664 18.005515370125956 C 316.09092128465664 18.005515370125956 316.2318291561886 36.004963833113365 316.27879844670014 42.0047799874425 L 316.32576773721166 48.00459614177163" visibility="hidden" opacity="1"></path>
        <path fill="none" class="highcharts-data-label-connector highcharts-color-7" stroke="#18b37e" stroke-width="1" d="M 311.79545524533086 18 C 316.79545524533086 18 316.86590972079415 36.00124096303139 316.8893945459499 42.00119500143764 L 316.9128793711057 48.00114903984388" opacity="1"></path>
        <path fill="none" class="highcharts-data-label-connector highcharts-color-8" stroke="#8b6cff" stroke-width="1" d="M 312.32386338966586 18.00008617809145 C 317.32386338966586 18.00008617809145 317.34147705072064 36.00007756028231 317.34734827106433 42.00007468767926 L 317.353219491408 48.00007181507621" visibility="hidden" opacity="1"></path>
        <g class="highcharts-label highcharts-data-label highcharts-data-label-color-0" data-z-index="1" style="cursor:pointer;" transform="translate(408,349)" opacity="1">
            <text x="5" data-z-index="1" y="16" style="color:rgb(255, 255, 255);font-size:11px;font-weight:normal;fill:rgb(255, 255, 255);">
                <tspan class="highcharts-text-outline" fill="0px" stroke="0px" stroke-width="0px" stroke-linejoin="round" style="">geth: 5475 (85.3%)
                    <tspan x="5" y="16">​</tspan>
                </tspan>geth: 5475 (85.3%)
            </text>
        </g>
        <g class="highcharts-label highcharts-data-label highcharts-data-label-color-1" data-z-index="1" style="cursor:pointer;" transform="translate(0,120)" opacity="1">
            <text x="5" data-z-index="1" y="16" style="color:rgb(255, 255, 255);font-size:11px;font-weight:normal;fill:rgb(255, 255, 255);">
                <tspan class="highcharts-text-outline" fill="0px" stroke="0px" stroke-width="0px" stroke-linejoin="round" style="">openethereum: 427 (6.7%)
                    <tspan x="5" y="16">​</tspan>
                </tspan>openethereum: 427 (6.7%)
            </text>
        </g>
        <g class="highcharts-label highcharts-data-label highcharts-data-label-color-2" data-z-index="1" style="cursor:pointer;" transform="translate(52,97)" opacity="1">
            <text x="5" data-z-index="1" y="16" style="color:rgb(255, 255, 255);font-size:11px;font-weight:normal;fill:rgb(255, 255, 255);">
                <tspan class="highcharts-text-outline" fill="0px" stroke="0px" stroke-width="0px" stroke-linejoin="round" style="">erigon: 350 (5.5%)
                    <tspan x="5" y="16">​</tspan>
                </tspan>erigon: 350 (5.5%)
            </text>
        </g>
        <g class="highcharts-label highcharts-data-label highcharts-data-label-color-3" data-z-index="1" style="cursor:pointer;" transform="translate(43,75)" opacity="1">
            <text x="5" data-z-index="1" y="16" style="color:rgb(255, 255, 255);font-size:11px;font-weight:normal;fill:rgb(255, 255, 255);">
                <tspan class="highcharts-text-outline" fill="0px" stroke="0px" stroke-width="0px" stroke-linejoin="round" style="">nethermind: 104 (1.6%)
                    <tspan x="5" y="16">​</tspan>
                </tspan>nethermind: 104 (1.6%)
            </text>
        </g>
        <g class="highcharts-label highcharts-data-label highcharts-data-label-color-4" data-z-index="1" style="cursor:pointer;" transform="translate(101,53)" opacity="1">
            <text x="5" data-z-index="1" y="16" style="color:rgb(255, 255, 255);font-size:11px;font-weight:normal;fill:rgb(255, 255, 255);">
                <tspan class="highcharts-text-outline" fill="0px" stroke="0px" stroke-width="0px" stroke-linejoin="round" style="">besu: 49 (0.8%)
                    <tspan x="5" y="16">​</tspan>
                </tspan>besu: 49 (0.8%)
            </text>
        </g>
        <g class="highcharts-label highcharts-data-label highcharts-data-label-color-5" data-z-index="1" style="cursor:pointer;" transform="translate(120,30)" opacity="1">
            <text x="5" data-z-index="1" y="16" style="color:rgb(255, 255, 255);font-size:11px;font-weight:normal;fill:rgb(255, 255, 255);">
                <tspan class="highcharts-text-outline" fill="0px" stroke="0px" stroke-width="0px" stroke-linejoin="round" style="">coregeth: 6 (0.1%)
                    <tspan x="5" y="16">​</tspan>
                </tspan>coregeth: 6 (0.1%)
            </text>
        </g>
        <g class="highcharts-label highcharts-data-label highcharts-data-label-color-6" data-z-index="1" style="cursor:pointer;" transform="translate(230,8)" visibility="hidden" opacity="1">
            <text x="5" data-z-index="1" y="16" style="color:rgb(255, 255, 255);font-size:11px;font-weight:normal;fill:rgb(255, 255, 255);">
                <tspan class="highcharts-text-outline" fill="0px" stroke="0px" stroke-width="0px" stroke-linejoin="round" style="">teth: 4 (0.1%)
                    <tspan x="5" y="16">​</tspan>
                </tspan>teth: 4 (0.1%)
            </text>
        </g>
        <g class="highcharts-label highcharts-data-label highcharts-data-label-color-7" data-z-index="1" style="cursor:pointer;" transform="translate(195,8)" opacity="1">
            <text x="5" data-z-index="1" y="16" style="color:rgb(255, 255, 255);font-size:11px;font-weight:normal;fill:rgb(255, 255, 255);">
                <tspan class="highcharts-text-outline" fill="0px" stroke="0px" stroke-width="0px" stroke-linejoin="round" style="">merp-client: 4 (0.1%)
                    <tspan x="5" y="16">​</tspan>
                </tspan>merp-client: 4 (0.1%)
            </text>
        </g>
        <g class="highcharts-label highcharts-data-label highcharts-data-label-color-8" data-z-index="1" style="cursor:pointer;" transform="translate(234,8)" visibility="hidden" opacity="1">
            <text x="5" data-z-index="1" y="16" style="color:rgb(255, 255, 255);font-size:11px;font-weight:normal;fill:rgb(255, 255, 255);">
                <tspan class="highcharts-text-outline" fill="0px" stroke="0px" stroke-width="0px" stroke-linejoin="round" style="">bor: 2 (0.0%)
                    <tspan x="5" y="16">​</tspan>
                </tspan>bor: 2 (0.0%)
            </text>
        </g>
    </g>
    <g class="highcharts-legend highcharts-no-tooltip" data-z-index="7">
        <rect fill="none" class="highcharts-legend-box" rx="0" ry="0" x="0" y="0" width="8" height="8" visibility="hidden"></rect>
        <g data-z-index="1">
            <g></g>
        </g>
    </g>
    <text x="590" class="highcharts-credits" text-anchor="end" data-z-index="8" style="cursor:pointer;color:#999999;font-size:9px;fill:#999999;" y="395">Chart provided by ethernodes.org</text>
    <g class="highcharts-label highcharts-tooltip highcharts-color-0" style="cursor:default;white-space:nowrap;pointer-events:none;" data-z-index="8" transform="translate(419,-9999)" opacity="0" visibility="hidden">
        <path fill="none" class="highcharts-label-box highcharts-tooltip-box highcharts-shadow" d="M 3.5 0.5 L 88.5 0.5 C 91.5 0.5 91.5 0.5 91.5 3.5 L 91.5 40.5 C 91.5 43.5 91.5 43.5 88.5 43.5 L 3.5 43.5 C 0.5 43.5 0.5 43.5 0.5 40.5 L 0.5 3.5 C 0.5 0.5 0.5 0.5 3.5 0.5" stroke="#000000" stroke-opacity="0.049999999999999996" stroke-width="5" transform="translate(1, 1)"></path>
        <path fill="none" class="highcharts-label-box highcharts-tooltip-box highcharts-shadow" d="M 3.5 0.5 L 88.5 0.5 C 91.5 0.5 91.5 0.5 91.5 3.5 L 91.5 40.5 C 91.5 43.5 91.5 43.5 88.5 43.5 L 3.5 43.5 C 0.5 43.5 0.5 43.5 0.5 40.5 L 0.5 3.5 C 0.5 0.5 0.5 0.5 3.5 0.5" stroke="#000000" stroke-opacity="0.09999999999999999" stroke-width="3" transform="translate(1, 1)"></path>
        <path fill="none" class="highcharts-label-box highcharts-tooltip-box highcharts-shadow" d="M 3.5 0.5 L 88.5 0.5 C 91.5 0.5 91.5 0.5 91.5 3.5 L 91.5 40.5 C 91.5 43.5 91.5 43.5 88.5 43.5 L 3.5 43.5 C 0.5 43.5 0.5 43.5 0.5 40.5 L 0.5 3.5 C 0.5 0.5 0.5 0.5 3.5 0.5" stroke="#000000" stroke-opacity="0.15" stroke-width="1" transform="translate(1, 1)"></path>
        <path fill="rgba(247,247,247,0.85)" class="highcharts-label-box highcharts-tooltip-box" d="M 3.5 0.5 L 88.5 0.5 C 91.5 0.5 91.5 0.5 91.5 3.5 L 91.5 40.5 C 91.5 43.5 91.5 43.5 88.5 43.5 L 3.5 43.5 C 0.5 43.5 0.5 43.5 0.5 40.5 L 0.5 3.5 C 0.5 0.5 0.5 0.5 3.5 0.5" stroke="#1997c6" stroke-width="1"></path>
        <text x="8" data-z-index="1" y="18" style="color:#333333;font-size:12px;fill:#333333;">
            <tspan style="font-size: 10px">geth</tspan>
            <tspan class="highcharts-br" dy="15" x="8">​</tspan>
            <tspan style="font-weight:bold;">5 475 (85.3%)</tspan>
        </text>
    </g>
</svg>
