<?xml version="1.0" encoding="UTF-8"?>
<!DOCTYPE svg PUBLIC "-//W3C//DTD SVG 1.1//EN" "http://www.w3.org/Graphics/SVG/1.1/DTD/svg11.dtd">
<svg width="326mm" height="184mm" viewBox="0 0 32600 18400" version="1.1" xmlns="http://www.w3.org/2000/svg" xmlns:xlink="http://www.w3.org/1999/xlink" stroke-width="28.222" stroke-linejoin="round" xml:space="preserve">
 <path fill="rgb(255,255,255)" stroke="none" d="M 16319,18358 L 0,18358 0,0 32638,0 32638,18358 16319,18358 Z"/>
 <path fill="none" stroke="rgb(179,179,179)" stroke-linejoin="round" d="M 17000,17062 L 2069,17062 2069,1621 31932,1621 31932,17062 17000,17062 Z"/>
 <path fill="none" stroke="rgb(179,179,179)" stroke-linejoin="round" d="M 2069,1620 L 2069,17061"/>
 <path fill="none" stroke="rgb(179,179,179)" stroke-linejoin="round" d="M 5462,1620 L 5462,17061"/>
 <path fill="none" stroke="rgb(179,179,179)" stroke-linejoin="round" d="M 8856,1620 L 8856,17061"/>
 <path fill="none" stroke="rgb(179,179,179)" stroke-linejoin="round" d="M 12249,1620 L 12249,17061"/>
 <path fill="none" stroke="rgb(179,179,179)" stroke-linejoin="round" d="M 15643,1620 L 15643,17061"/>
 <path fill="none" stroke="rgb(179,179,179)" stroke-linejoin="round" d="M 19036,1620 L 19036,17061"/>
 <path fill="none" stroke="rgb(179,179,179)" stroke-linejoin="round" d="M 22429,1620 L 22429,17061"/>
 <path fill="none" stroke="rgb(179,179,179)" stroke-linejoin="round" d="M 25823,1620 L 25823,17061"/>
 <path fill="none" stroke="rgb(179,179,179)" stroke-linejoin="round" d="M 29217,1620 L 29217,17061"/>
 <path fill="none" stroke="rgb(179,179,179)" stroke-linejoin="round" d="M 31932,17061 L 2069,17061"/>
 <path fill="none" stroke="rgb(179,179,179)" stroke-linejoin="round" d="M 31932,15516 L 2069,15516"/>
 <path fill="none" stroke="rgb(179,179,179)" stroke-linejoin="round" d="M 31932,13972 L 2069,13972"/>
 <path fill="none" stroke="rgb(179,179,179)" stroke-linejoin="round" d="M 31932,12428 L 2069,12428"/>
 <path fill="none" stroke="rgb(179,179,179)" stroke-linejoin="round" d="M 31932,10884 L 2069,10884"/>
 <path fill="none" stroke="rgb(179,179,179)" stroke-linejoin="round" d="M 31932,9340 L 2069,9340"/>
 <path fill="none" stroke="rgb(179,179,179)" stroke-linejoin="round" d="M 31932,7796 L 2069,7796"/>
 <path fill="none" stroke="rgb(179,179,179)" stroke-linejoin="round" d="M 31932,6252 L 2069,6252"/>
 <path fill="none" stroke="rgb(179,179,179)" stroke-linejoin="round" d="M 31932,4708 L 2069,4708"/>
 <path fill="none" stroke="rgb(179,179,179)" stroke-linejoin="round" d="M 31932,3164 L 2069,3164"/>
 <path fill="none" stroke="rgb(179,179,179)" stroke-linejoin="round" d="M 31932,1620 L 2069,1620"/>
 <path fill="none" stroke="rgb(179,179,179)" stroke-linejoin="round" d="M 2069,17211 L 2069,17061"/>
 <path fill="none" stroke="rgb(179,179,179)" stroke-linejoin="round" d="M 2069,17211 L 2069,17061"/>
 <path fill="none" stroke="rgb(179,179,179)" stroke-linejoin="round" d="M 5462,17211 L 5462,17061"/>
 <path fill="none" stroke="rgb(179,179,179)" stroke-linejoin="round" d="M 5462,17211 L 5462,17061"/>
 <path fill="none" stroke="rgb(179,179,179)" stroke-linejoin="round" d="M 8856,17211 L 8856,17061"/>
 <path fill="none" stroke="rgb(179,179,179)" stroke-linejoin="round" d="M 8856,17211 L 8856,17061"/>
 <path fill="none" stroke="rgb(179,179,179)" stroke-linejoin="round" d="M 12249,17211 L 12249,17061"/>
 <path fill="none" stroke="rgb(179,179,179)" stroke-linejoin="round" d="M 12249,17211 L 12249,17061"/>
 <path fill="none" stroke="rgb(179,179,179)" stroke-linejoin="round" d="M 15643,17211 L 15643,17061"/>
 <path fill="none" stroke="rgb(179,179,179)" stroke-linejoin="round" d="M 15643,17211 L 15643,17061"/>
 <path fill="none" stroke="rgb(179,179,179)" stroke-linejoin="round" d="M 19036,17211 L 19036,17061"/>
 <path fill="none" stroke="rgb(179,179,179)" stroke-linejoin="round" d="M 19036,17211 L 19036,17061"/>
 <path fill="none" stroke="rgb(179,179,179)" stroke-linejoin="round" d="M 22429,17211 L 22429,17061"/>
 <path fill="none" stroke="rgb(179,179,179)" stroke-linejoin="round" d="M 22429,17211 L 22429,17061"/>
 <path fill="none" stroke="rgb(179,179,179)" stroke-linejoin="round" d="M 25823,17211 L 25823,17061"/>
 <path fill="none" stroke="rgb(179,179,179)" stroke-linejoin="round" d="M 25823,17211 L 25823,17061"/>
 <path fill="none" stroke="rgb(179,179,179)" stroke-linejoin="round" d="M 29217,17211 L 29217,17061"/>
 <path fill="none" stroke="rgb(179,179,179)" stroke-linejoin="round" d="M 29217,17211 L 29217,17061"/>
 <path fill="none" stroke="rgb(179,179,179)" stroke-linejoin="round" d="M 2069,17061 L 31932,17061"/>
 <path fill="none" stroke="rgb(179,179,179)" stroke-linejoin="round" d="M 1919,17061 L 2069,17061"/>
 <path fill="none" stroke="rgb(179,179,179)" stroke-linejoin="round" d="M 1919,17061 L 2069,17061"/>
 <path fill="none" stroke="rgb(179,179,179)" stroke-linejoin="round" d="M 1919,15516 L 2069,15516"/>
 <path fill="none" stroke="rgb(179,179,179)" stroke-linejoin="round" d="M 1919,15516 L 2069,15516"/>
 <path fill="none" stroke="rgb(179,179,179)" stroke-linejoin="round" d="M 1919,13972 L 2069,13972"/>
 <path fill="none" stroke="rgb(179,179,179)" stroke-linejoin="round" d="M 1919,13972 L 2069,13972"/>
 <path fill="none" stroke="rgb(179,179,179)" stroke-linejoin="round" d="M 1919,12428 L 2069,12428"/>
 <path fill="none" stroke="rgb(179,179,179)" stroke-linejoin="round" d="M 1919,12428 L 2069,12428"/>
 <path fill="none" stroke="rgb(179,179,179)" stroke-linejoin="round" d="M 1919,10884 L 2069,10884"/>
 <path fill="none" stroke="rgb(179,179,179)" stroke-linejoin="round" d="M 1919,10884 L 2069,10884"/>
 <path fill="none" stroke="rgb(179,179,179)" stroke-linejoin="round" d="M 1919,9340 L 2069,9340"/>
 <path fill="none" stroke="rgb(179,179,179)" stroke-linejoin="round" d="M 1919,9340 L 2069,9340"/>
 <path fill="none" stroke="rgb(179,179,179)" stroke-linejoin="round" d="M 1919,7796 L 2069,7796"/>
 <path fill="none" stroke="rgb(179,179,179)" stroke-linejoin="round" d="M 1919,7796 L 2069,7796"/>
 <path fill="none" stroke="rgb(179,179,179)" stroke-linejoin="round" d="M 1919,6252 L 2069,6252"/>
 <path fill="none" stroke="rgb(179,179,179)" stroke-linejoin="round" d="M 1919,6252 L 2069,6252"/>
 <path fill="none" stroke="rgb(179,179,179)" stroke-linejoin="round" d="M 1919,4708 L 2069,4708"/>
 <path fill="none" stroke="rgb(179,179,179)" stroke-linejoin="round" d="M 1919,4708 L 2069,4708"/>
 <path fill="none" stroke="rgb(179,179,179)" stroke-linejoin="round" d="M 1919,3164 L 2069,3164"/>
 <path fill="none" stroke="rgb(179,179,179)" stroke-linejoin="round" d="M 1919,3164 L 2069,3164"/>
 <path fill="none" stroke="rgb(179,179,179)" stroke-linejoin="round" d="M 1919,1620 L 2069,1620"/>
 <path fill="none" stroke="rgb(179,179,179)" stroke-linejoin="round" d="M 1919,1620 L 2069,1620"/>
 <path fill="none" stroke="rgb(179,179,179)" stroke-linejoin="round" d="M 2069,17061 L 2069,1620"/>
 <path fill="none" stroke="rgb(255,0,0)" stroke-width="80" stroke-linejoin="round" stroke-dasharray="80,457" d="M 2069,17061 L 21208,16906 21208,16288 21479,15516 21479,13972 21479,12428 21751,10884 21751,9340 23651,7796 23923,6252 26230,4708 29760,3164 31932,3108"/>
 <path fill="none" stroke="rgb(255,0,0)" stroke-width="80" stroke-linejoin="round" d="M 2069,17061 L 21208,16674 21208,16288 21479,15516 21479,13972 21479,12428 21751,10884 21751,10112 22022,9340 22022,8954 23380,8568 23651,8182 23651,7796 23923,7024 23923,6252 25008,5480 26230,4708 30031,3164 31932,3129"/>
 <path fill="none" stroke="rgb(42,96,153)" stroke-width="80" stroke-linejoin="round" stroke-dasharray="80,457" d="M 2069,17061 L 8428,16906 11590,16288 11590,15516 11729,13972 11729,12428 11729,10884 11729,9340 11868,7796 13814,6252 13814,4708 13953,3164 13953,2392 14092,1774 14231,1697 14370,1635 14370,1627 15621,1621 31932,1621"/>
 <path fill="none" stroke="rgb(42,96,153)" stroke-width="80" stroke-linejoin="round" d="M 2069,17061 L 8428,16906 9957,16674 11590,16288 11590,15516 11590,13972 11590,12428 11729,10884 11729,9340 11729,8568 11868,7796 11868,7410 11868,7024 12702,6638 13814,6252 13814,5480 13814,4708 13814,3164 13953,2392 14092,2006 14092,1697 31932,1686"/>
 <text class="TextShape"><tspan class="TextParagraph" font-family="Liberation Sans, sans-serif" font-size="564px" font-weight="400"><tspan class="TextPosition" x="1905" y="17823"><tspan fill="rgb(0,0,0)" stroke="none">0</tspan></tspan></tspan></text>
 <text class="TextShape"><tspan class="TextParagraph" font-family="Liberation Sans, sans-serif" font-size="564px" font-weight="400"><tspan class="TextPosition" x="5134" y="17823"><tspan fill="rgb(0,0,0)" stroke="none">25</tspan></tspan></tspan></text>
 <text class="TextShape"><tspan class="TextParagraph" font-family="Liberation Sans, sans-serif" font-size="564px" font-weight="400"><tspan class="TextPosition" x="8528" y="17823"><tspan fill="rgb(0,0,0)" stroke="none">50</tspan></tspan></tspan></text>
 <text class="TextShape"><tspan class="TextParagraph" font-family="Liberation Sans, sans-serif" font-size="564px" font-weight="400"><tspan class="TextPosition" x="11921" y="17823"><tspan fill="rgb(0,0,0)" stroke="none">75</tspan></tspan></tspan></text>
 <text class="TextShape"><tspan class="TextParagraph" font-family="Liberation Sans, sans-serif" font-size="564px" font-weight="400"><tspan class="TextPosition" x="15151" y="17823"><tspan fill="rgb(0,0,0)" stroke="none">100</tspan></tspan></tspan></text>
 <text class="TextShape"><tspan class="TextParagraph" font-family="Liberation Sans, sans-serif" font-size="564px" font-weight="400"><tspan class="TextPosition" x="18545" y="17823"><tspan fill="rgb(0,0,0)" stroke="none">125</tspan></tspan></tspan></text>
 <text class="TextShape"><tspan class="TextParagraph" font-family="Liberation Sans, sans-serif" font-size="564px" font-weight="400"><tspan class="TextPosition" x="21938" y="17823"><tspan fill="rgb(0,0,0)" stroke="none">150</tspan></tspan></tspan></text>
 <text class="TextShape"><tspan class="TextParagraph" font-family="Liberation Sans, sans-serif" font-size="564px" font-weight="400"><tspan class="TextPosition" x="25332" y="17823"><tspan fill="rgb(0,0,0)" stroke="none">175</tspan></tspan></tspan></text>
 <text class="TextShape"><tspan class="TextParagraph" font-family="Liberation Sans, sans-serif" font-size="564px" font-weight="400"><tspan class="TextPosition" x="28726" y="17823"><tspan fill="rgb(0,0,0)" stroke="none">200</tspan></tspan></tspan></text>
 <text class="TextShape"><tspan class="TextParagraph" font-family="Liberation Sans, sans-serif" font-size="564px" font-weight="400"><tspan class="TextPosition" x="979" y="17257"><tspan fill="rgb(0,0,0)" stroke="none">0%</tspan></tspan></tspan></text>
 <text class="TextShape"><tspan class="TextParagraph" font-family="Liberation Sans, sans-serif" font-size="564px" font-weight="400"><tspan class="TextPosition" x="651" y="15712"><tspan fill="rgb(0,0,0)" stroke="none">10%</tspan></tspan></tspan></text>
 <text class="TextShape"><tspan class="TextParagraph" font-family="Liberation Sans, sans-serif" font-size="564px" font-weight="400"><tspan class="TextPosition" x="651" y="14168"><tspan fill="rgb(0,0,0)" stroke="none">20%</tspan></tspan></tspan></text>
 <text class="TextShape"><tspan class="TextParagraph" font-family="Liberation Sans, sans-serif" font-size="564px" font-weight="400"><tspan class="TextPosition" x="651" y="12624"><tspan fill="rgb(0,0,0)" stroke="none">30%</tspan></tspan></tspan></text>
 <text class="TextShape"><tspan class="TextParagraph" font-family="Liberation Sans, sans-serif" font-size="564px" font-weight="400"><tspan class="TextPosition" x="651" y="11080"><tspan fill="rgb(0,0,0)" stroke="none">40%</tspan></tspan></tspan></text>
 <text class="TextShape"><tspan class="TextParagraph" font-family="Liberation Sans, sans-serif" font-size="564px" font-weight="400"><tspan class="TextPosition" x="651" y="9536"><tspan fill="rgb(0,0,0)" stroke="none">50%</tspan></tspan></tspan></text>
 <text class="TextShape"><tspan class="TextParagraph" font-family="Liberation Sans, sans-serif" font-size="564px" font-weight="400"><tspan class="TextPosition" x="651" y="7991"><tspan fill="rgb(0,0,0)" stroke="none">60%</tspan></tspan></tspan></text>
 <text class="TextShape"><tspan class="TextParagraph" font-family="Liberation Sans, sans-serif" font-size="564px" font-weight="400"><tspan class="TextPosition" x="651" y="6447"><tspan fill="rgb(0,0,0)" stroke="none">70%</tspan></tspan></tspan></text>
 <text class="TextShape"><tspan class="TextParagraph" font-family="Liberation Sans, sans-serif" font-size="564px" font-weight="400"><tspan class="TextPosition" x="651" y="4903"><tspan fill="rgb(0,0,0)" stroke="none">80%</tspan></tspan></tspan></text>
 <text class="TextShape"><tspan class="TextParagraph" font-family="Liberation Sans, sans-serif" font-size="564px" font-weight="400"><tspan class="TextPosition" x="651" y="3359"><tspan fill="rgb(0,0,0)" stroke="none">90%</tspan></tspan></tspan></text>
 <text class="TextShape"><tspan class="TextParagraph" font-family="Liberation Sans, sans-serif" font-size="564px" font-weight="400"><tspan class="TextPosition" x="324" y="1815"><tspan fill="rgb(0,0,0)" stroke="none">100%</tspan></tspan></tspan></text>
 <text class="TextShape"><tspan class="TextParagraph" font-family="Liberation Sans, sans-serif" font-size="564px" font-weight="400"><tspan class="TextPosition" x="2388" y="1010"><tspan fill="rgb(0,0,0)" stroke="none">Χρόνος απόκρησης, random read 4KiB, 1T sync IO</tspan></tspan></tspan></text>
 <path fill="none" stroke="rgb(42,96,153)" stroke-width="80" stroke-linejoin="round" d="M 22751,864 L 24351,864"/>
 <path fill="none" stroke="rgb(255,0,0)" stroke-width="80" stroke-linejoin="round" d="M 27506,864 L 29106,864"/>
 <text class="TextShape"><tspan class="TextParagraph" font-family="Liberation Sans, sans-serif" font-size="564px" font-weight="400"><tspan class="TextPosition" x="24475" y="1058"><tspan fill="rgb(0,0,0)" stroke="none">NVME</tspan></tspan></tspan></text>
 <text class="TextShape"><tspan class="TextParagraph" font-family="Liberation Sans, sans-serif" font-size="564px" font-weight="400"><tspan class="TextPosition" x="29230" y="1058"><tspan fill="rgb(0,0,0)" stroke="none">SATA</tspan></tspan></tspan></text>
 <text class="TextShape"><tspan class="TextParagraph" font-family="Liberation Sans, sans-serif" font-size="564px" font-weight="400"><tspan class="TextPosition" x="31215" y="17746"><tspan fill="rgb(0,0,0)" stroke="none">μs</tspan></tspan></tspan></text>
</svg>