<?xml version="1.0" encoding="UTF-8"?>
<!DOCTYPE svg PUBLIC "-//W3C//DTD SVG 1.1//EN" "http://www.w3.org/Graphics/SVG/1.1/DTD/svg11.dtd">
<svg width="326mm" height="184mm" viewBox="0 0 32600 18400" version="1.1" xmlns="http://www.w3.org/2000/svg" xmlns:xlink="http://www.w3.org/1999/xlink" stroke-width="28.222" stroke-linejoin="round" xml:space="preserve">
 <path fill="rgb(255,255,255)" stroke="none" d="M 16319,18358 L 0,18358 0,0 32638,0 32638,18358 16319,18358 Z"/>
 <path fill="none" stroke="rgb(179,179,179)" stroke-linejoin="round" d="M 17000,17062 L 2069,17062 2069,1621 31932,1621 31932,17062 17000,17062 Z"/>
 <path fill="none" stroke="rgb(179,179,179)" stroke-linejoin="round" d="M 2069,1620 L 2069,17061"/>
 <path fill="none" stroke="rgb(179,179,179)" stroke-linejoin="round" d="M 5212,1620 L 5212,17061"/>
 <path fill="none" stroke="rgb(179,179,179)" stroke-linejoin="round" d="M 8356,1620 L 8356,17061"/>
 <path fill="none" stroke="rgb(179,179,179)" stroke-linejoin="round" d="M 11499,1620 L 11499,17061"/>
 <path fill="none" stroke="rgb(179,179,179)" stroke-linejoin="round" d="M 14643,1620 L 14643,17061"/>
 <path fill="none" stroke="rgb(179,179,179)" stroke-linejoin="round" d="M 17785,1620 L 17785,17061"/>
 <path fill="none" stroke="rgb(179,179,179)" stroke-linejoin="round" d="M 20929,1620 L 20929,17061"/>
 <path fill="none" stroke="rgb(179,179,179)" stroke-linejoin="round" d="M 24073,1620 L 24073,17061"/>
 <path fill="none" stroke="rgb(179,179,179)" stroke-linejoin="round" d="M 27216,1620 L 27216,17061"/>
 <path fill="none" stroke="rgb(179,179,179)" stroke-linejoin="round" d="M 30360,1620 L 30360,17061"/>
 <path fill="none" stroke="rgb(179,179,179)" stroke-linejoin="round" d="M 31932,17061 L 2069,17061"/>
 <path fill="none" stroke="rgb(179,179,179)" stroke-linejoin="round" d="M 31932,15516 L 2069,15516"/>
 <path fill="none" stroke="rgb(179,179,179)" stroke-linejoin="round" d="M 31932,13972 L 2069,13972"/>
 <path fill="none" stroke="rgb(179,179,179)" stroke-linejoin="round" d="M 31932,12428 L 2069,12428"/>
 <path fill="none" stroke="rgb(179,179,179)" stroke-linejoin="round" d="M 31932,10884 L 2069,10884"/>
 <path fill="none" stroke="rgb(179,179,179)" stroke-linejoin="round" d="M 31932,9340 L 2069,9340"/>
 <path fill="none" stroke="rgb(179,179,179)" stroke-linejoin="round" d="M 31932,7796 L 2069,7796"/>
 <path fill="none" stroke="rgb(179,179,179)" stroke-linejoin="round" d="M 31932,6252 L 2069,6252"/>
 <path fill="none" stroke="rgb(179,179,179)" stroke-linejoin="round" d="M 31932,4708 L 2069,4708"/>
 <path fill="none" stroke="rgb(179,179,179)" stroke-linejoin="round" d="M 31932,3164 L 2069,3164"/>
 <path fill="none" stroke="rgb(179,179,179)" stroke-linejoin="round" d="M 31932,1620 L 2069,1620"/>
 <path fill="none" stroke="rgb(179,179,179)" stroke-linejoin="round" d="M 2069,17211 L 2069,17061"/>
 <path fill="none" stroke="rgb(179,179,179)" stroke-linejoin="round" d="M 2069,17211 L 2069,17061"/>
 <path fill="none" stroke="rgb(179,179,179)" stroke-linejoin="round" d="M 5212,17211 L 5212,17061"/>
 <path fill="none" stroke="rgb(179,179,179)" stroke-linejoin="round" d="M 5212,17211 L 5212,17061"/>
 <path fill="none" stroke="rgb(179,179,179)" stroke-linejoin="round" d="M 8356,17211 L 8356,17061"/>
 <path fill="none" stroke="rgb(179,179,179)" stroke-linejoin="round" d="M 8356,17211 L 8356,17061"/>
 <path fill="none" stroke="rgb(179,179,179)" stroke-linejoin="round" d="M 11499,17211 L 11499,17061"/>
 <path fill="none" stroke="rgb(179,179,179)" stroke-linejoin="round" d="M 11499,17211 L 11499,17061"/>
 <path fill="none" stroke="rgb(179,179,179)" stroke-linejoin="round" d="M 14643,17211 L 14643,17061"/>
 <path fill="none" stroke="rgb(179,179,179)" stroke-linejoin="round" d="M 14643,17211 L 14643,17061"/>
 <path fill="none" stroke="rgb(179,179,179)" stroke-linejoin="round" d="M 17785,17211 L 17785,17061"/>
 <path fill="none" stroke="rgb(179,179,179)" stroke-linejoin="round" d="M 17785,17211 L 17785,17061"/>
 <path fill="none" stroke="rgb(179,179,179)" stroke-linejoin="round" d="M 20929,17211 L 20929,17061"/>
 <path fill="none" stroke="rgb(179,179,179)" stroke-linejoin="round" d="M 20929,17211 L 20929,17061"/>
 <path fill="none" stroke="rgb(179,179,179)" stroke-linejoin="round" d="M 24073,17211 L 24073,17061"/>
 <path fill="none" stroke="rgb(179,179,179)" stroke-linejoin="round" d="M 24073,17211 L 24073,17061"/>
 <path fill="none" stroke="rgb(179,179,179)" stroke-linejoin="round" d="M 27216,17211 L 27216,17061"/>
 <path fill="none" stroke="rgb(179,179,179)" stroke-linejoin="round" d="M 27216,17211 L 27216,17061"/>
 <path fill="none" stroke="rgb(179,179,179)" stroke-linejoin="round" d="M 30360,17211 L 30360,17061"/>
 <path fill="none" stroke="rgb(179,179,179)" stroke-linejoin="round" d="M 30360,17211 L 30360,17061"/>
 <path fill="none" stroke="rgb(179,179,179)" stroke-linejoin="round" d="M 2069,17061 L 31932,17061"/>
 <path fill="none" stroke="rgb(179,179,179)" stroke-linejoin="round" d="M 1919,17061 L 2069,17061"/>
 <path fill="none" stroke="rgb(179,179,179)" stroke-linejoin="round" d="M 1919,17061 L 2069,17061"/>
 <path fill="none" stroke="rgb(179,179,179)" stroke-linejoin="round" d="M 1919,15516 L 2069,15516"/>
 <path fill="none" stroke="rgb(179,179,179)" stroke-linejoin="round" d="M 1919,15516 L 2069,15516"/>
 <path fill="none" stroke="rgb(179,179,179)" stroke-linejoin="round" d="M 1919,13972 L 2069,13972"/>
 <path fill="none" stroke="rgb(179,179,179)" stroke-linejoin="round" d="M 1919,13972 L 2069,13972"/>
 <path fill="none" stroke="rgb(179,179,179)" stroke-linejoin="round" d="M 1919,12428 L 2069,12428"/>
 <path fill="none" stroke="rgb(179,179,179)" stroke-linejoin="round" d="M 1919,12428 L 2069,12428"/>
 <path fill="none" stroke="rgb(179,179,179)" stroke-linejoin="round" d="M 1919,10884 L 2069,10884"/>
 <path fill="none" stroke="rgb(179,179,179)" stroke-linejoin="round" d="M 1919,10884 L 2069,10884"/>
 <path fill="none" stroke="rgb(179,179,179)" stroke-linejoin="round" d="M 1919,9340 L 2069,9340"/>
 <path fill="none" stroke="rgb(179,179,179)" stroke-linejoin="round" d="M 1919,9340 L 2069,9340"/>
 <path fill="none" stroke="rgb(179,179,179)" stroke-linejoin="round" d="M 1919,7796 L 2069,7796"/>
 <path fill="none" stroke="rgb(179,179,179)" stroke-linejoin="round" d="M 1919,7796 L 2069,7796"/>
 <path fill="none" stroke="rgb(179,179,179)" stroke-linejoin="round" d="M 1919,6252 L 2069,6252"/>
 <path fill="none" stroke="rgb(179,179,179)" stroke-linejoin="round" d="M 1919,6252 L 2069,6252"/>
 <path fill="none" stroke="rgb(179,179,179)" stroke-linejoin="round" d="M 1919,4708 L 2069,4708"/>
 <path fill="none" stroke="rgb(179,179,179)" stroke-linejoin="round" d="M 1919,4708 L 2069,4708"/>
 <path fill="none" stroke="rgb(179,179,179)" stroke-linejoin="round" d="M 1919,3164 L 2069,3164"/>
 <path fill="none" stroke="rgb(179,179,179)" stroke-linejoin="round" d="M 1919,3164 L 2069,3164"/>
 <path fill="none" stroke="rgb(179,179,179)" stroke-linejoin="round" d="M 1919,1620 L 2069,1620"/>
 <path fill="none" stroke="rgb(179,179,179)" stroke-linejoin="round" d="M 1919,1620 L 2069,1620"/>
 <path fill="none" stroke="rgb(179,179,179)" stroke-linejoin="round" d="M 2069,17061 L 2069,1620"/>
 <path fill="none" stroke="rgb(255,0,0)" stroke-width="80" stroke-linejoin="round" stroke-dasharray="80,457" d="M 2069,17061 L 6501,16906 6501,16288 6564,15516 6564,13972 6564,12428 6627,10884 6627,9340 7067,7796 7130,6252 7664,4708 8481,3164 15397,2392 31932,1816"/>
 <path fill="none" stroke="rgb(255,0,0)" stroke-width="80" stroke-linejoin="round" d="M 2069,17061 L 6501,16674 6501,16288 6564,15516 6564,13972 6564,12428 6627,10884 6627,10112 6690,9340 6690,8954 7004,8568 7067,8182 7067,7796 7130,7024 7130,6252 7381,5480 7664,4708 8544,3164 13480,2778 15554,2392 30014,2006 31932,1793"/>
 <path fill="none" stroke="rgb(42,96,153)" stroke-width="80" stroke-linejoin="round" stroke-dasharray="80,457" d="M 2069,17061 L 3541,16906 4274,16288 4274,15516 4306,13972 4306,12428 4306,10884 4306,9340 4338,7796 4789,6252 4789,4708 4821,3164 4821,2392 4853,1774 4885,1697 4917,1635 4917,1627 5207,1621 31932,1620"/>
 <path fill="none" stroke="rgb(42,96,153)" stroke-width="80" stroke-linejoin="round" d="M 2069,17061 L 3541,16906 3895,16674 4274,16288 4274,15516 4274,13972 4274,12428 4306,10884 4306,9340 4306,8568 4338,7796 4338,7410 4338,7024 4531,6638 4789,6252 4789,5480 4789,4708 4789,3164 4821,2392 4853,2006 4853,1697 31932,1624"/>
 <text class="TextShape"><tspan class="TextParagraph" font-family="Liberation Sans, sans-serif" font-size="564px" font-weight="400"><tspan class="TextPosition" x="1905" y="17823"><tspan fill="rgb(0,0,0)" stroke="none">0</tspan></tspan></tspan></text>
 <text class="TextShape"><tspan class="TextParagraph" font-family="Liberation Sans, sans-serif" font-size="564px" font-weight="400"><tspan class="TextPosition" x="4720" y="17823"><tspan fill="rgb(0,0,0)" stroke="none">100</tspan></tspan></tspan></text>
 <text class="TextShape"><tspan class="TextParagraph" font-family="Liberation Sans, sans-serif" font-size="564px" font-weight="400"><tspan class="TextPosition" x="7864" y="17823"><tspan fill="rgb(0,0,0)" stroke="none">200</tspan></tspan></tspan></text>
 <text class="TextShape"><tspan class="TextParagraph" font-family="Liberation Sans, sans-serif" font-size="564px" font-weight="400"><tspan class="TextPosition" x="11007" y="17823"><tspan fill="rgb(0,0,0)" stroke="none">300</tspan></tspan></tspan></text>
 <text class="TextShape"><tspan class="TextParagraph" font-family="Liberation Sans, sans-serif" font-size="564px" font-weight="400"><tspan class="TextPosition" x="14151" y="17823"><tspan fill="rgb(0,0,0)" stroke="none">400</tspan></tspan></tspan></text>
 <text class="TextShape"><tspan class="TextParagraph" font-family="Liberation Sans, sans-serif" font-size="564px" font-weight="400"><tspan class="TextPosition" x="17294" y="17823"><tspan fill="rgb(0,0,0)" stroke="none">500</tspan></tspan></tspan></text>
 <text class="TextShape"><tspan class="TextParagraph" font-family="Liberation Sans, sans-serif" font-size="564px" font-weight="400"><tspan class="TextPosition" x="20438" y="17823"><tspan fill="rgb(0,0,0)" stroke="none">600</tspan></tspan></tspan></text>
 <text class="TextShape"><tspan class="TextParagraph" font-family="Liberation Sans, sans-serif" font-size="564px" font-weight="400"><tspan class="TextPosition" x="23582" y="17823"><tspan fill="rgb(0,0,0)" stroke="none">700</tspan></tspan></tspan></text>
 <text class="TextShape"><tspan class="TextParagraph" font-family="Liberation Sans, sans-serif" font-size="564px" font-weight="400"><tspan class="TextPosition" x="26725" y="17823"><tspan fill="rgb(0,0,0)" stroke="none">800</tspan></tspan></tspan></text>
 <text class="TextShape"><tspan class="TextParagraph" font-family="Liberation Sans, sans-serif" font-size="564px" font-weight="400"><tspan class="TextPosition" x="29869" y="17823"><tspan fill="rgb(0,0,0)" stroke="none">900</tspan></tspan></tspan></text>
 <text class="TextShape"><tspan class="TextParagraph" font-family="Liberation Sans, sans-serif" font-size="564px" font-weight="400"><tspan class="TextPosition" x="979" y="17257"><tspan fill="rgb(0,0,0)" stroke="none">0%</tspan></tspan></tspan></text>
 <text class="TextShape"><tspan class="TextParagraph" font-family="Liberation Sans, sans-serif" font-size="564px" font-weight="400"><tspan class="TextPosition" x="651" y="15712"><tspan fill="rgb(0,0,0)" stroke="none">10%</tspan></tspan></tspan></text>
 <text class="TextShape"><tspan class="TextParagraph" font-family="Liberation Sans, sans-serif" font-size="564px" font-weight="400"><tspan class="TextPosition" x="651" y="14168"><tspan fill="rgb(0,0,0)" stroke="none">20%</tspan></tspan></tspan></text>
 <text class="TextShape"><tspan class="TextParagraph" font-family="Liberation Sans, sans-serif" font-size="564px" font-weight="400"><tspan class="TextPosition" x="651" y="12624"><tspan fill="rgb(0,0,0)" stroke="none">30%</tspan></tspan></tspan></text>
 <text class="TextShape"><tspan class="TextParagraph" font-family="Liberation Sans, sans-serif" font-size="564px" font-weight="400"><tspan class="TextPosition" x="651" y="11080"><tspan fill="rgb(0,0,0)" stroke="none">40%</tspan></tspan></tspan></text>
 <text class="TextShape"><tspan class="TextParagraph" font-family="Liberation Sans, sans-serif" font-size="564px" font-weight="400"><tspan class="TextPosition" x="651" y="9536"><tspan fill="rgb(0,0,0)" stroke="none">50%</tspan></tspan></tspan></text>
 <text class="TextShape"><tspan class="TextParagraph" font-family="Liberation Sans, sans-serif" font-size="564px" font-weight="400"><tspan class="TextPosition" x="651" y="7991"><tspan fill="rgb(0,0,0)" stroke="none">60%</tspan></tspan></tspan></text>
 <text class="TextShape"><tspan class="TextParagraph" font-family="Liberation Sans, sans-serif" font-size="564px" font-weight="400"><tspan class="TextPosition" x="651" y="6447"><tspan fill="rgb(0,0,0)" stroke="none">70%</tspan></tspan></tspan></text>
 <text class="TextShape"><tspan class="TextParagraph" font-family="Liberation Sans, sans-serif" font-size="564px" font-weight="400"><tspan class="TextPosition" x="651" y="4903"><tspan fill="rgb(0,0,0)" stroke="none">80%</tspan></tspan></tspan></text>
 <text class="TextShape"><tspan class="TextParagraph" font-family="Liberation Sans, sans-serif" font-size="564px" font-weight="400"><tspan class="TextPosition" x="651" y="3359"><tspan fill="rgb(0,0,0)" stroke="none">90%</tspan></tspan></tspan></text>
 <text class="TextShape"><tspan class="TextParagraph" font-family="Liberation Sans, sans-serif" font-size="564px" font-weight="400"><tspan class="TextPosition" x="324" y="1815"><tspan fill="rgb(0,0,0)" stroke="none">100%</tspan></tspan></tspan></text>
 <text class="TextShape"><tspan class="TextParagraph" font-family="Liberation Sans, sans-serif" font-size="564px" font-weight="400"><tspan class="TextPosition" x="2388" y="1012"><tspan fill="rgb(0,0,0)" stroke="none">Χρόνος απόκρησης, random read 4KiB, 1T sync IO</tspan></tspan></tspan></text>
 <path fill="none" stroke="rgb(42,96,153)" stroke-width="80" stroke-linejoin="round" d="M 22751,864 L 24351,864"/>
 <path fill="none" stroke="rgb(255,0,0)" stroke-width="80" stroke-linejoin="round" d="M 27506,864 L 29106,864"/>
 <text class="TextShape"><tspan class="TextParagraph" font-family="Liberation Sans, sans-serif" font-size="564px" font-weight="400"><tspan class="TextPosition" x="24475" y="1058"><tspan fill="rgb(0,0,0)" stroke="none">NVME</tspan></tspan></tspan></text>
 <text class="TextShape"><tspan class="TextParagraph" font-family="Liberation Sans, sans-serif" font-size="564px" font-weight="400"><tspan class="TextPosition" x="29230" y="1058"><tspan fill="rgb(0,0,0)" stroke="none">SATA</tspan></tspan></tspan></text>
 <text class="TextShape"><tspan class="TextParagraph" font-family="Liberation Sans, sans-serif" font-size="564px" font-weight="400"><tspan class="TextPosition" x="31215" y="17748"><tspan fill="rgb(0,0,0)" stroke="none">μs</tspan></tspan></tspan></text>
</svg>