<?xml version="1.0" encoding="utf-8" standalone="no"?>
<!DOCTYPE svg PUBLIC "-//W3C//DTD SVG 1.1//EN"
  "http://www.w3.org/Graphics/SVG/1.1/DTD/svg11.dtd">
<svg xmlns:xlink="http://www.w3.org/1999/xlink" width="605.52pt" height="390.24pt" viewBox="0 0 605.52 390.24" xmlns="http://www.w3.org/2000/svg" version="1.1">
 <metadata>
  <rdf:RDF xmlns:dc="http://purl.org/dc/elements/1.1/" xmlns:cc="http://creativecommons.org/ns#" xmlns:rdf="http://www.w3.org/1999/02/22-rdf-syntax-ns#">
   <cc:Work>
    <dc:type rdf:resource="http://purl.org/dc/dcmitype/StillImage"/>
    <dc:date>2022-03-01T14:24:46.968954</dc:date>
    <dc:format>image/svg+xml</dc:format>
    <dc:creator>
     <cc:Agent>
      <dc:title>Matplotlib v3.5.1, https://matplotlib.org/</dc:title>
     </cc:Agent>
    </dc:creator>
   </cc:Work>
  </rdf:RDF>
 </metadata>
 <defs>
  <style type="text/css">*{stroke-linejoin: round; stroke-linecap: butt}</style>
 </defs>
 <g id="figure_1">
  <g id="patch_1">
   <path d="M 0 390.24 
L 605.52 390.24 
L 605.52 0 
L 0 0 
z
" style="fill: #ffffff"/>
  </g>
  <g id="axes_1">
   <g id="patch_2">
    <path d="M 75.69 347.3136 
L 544.968 347.3136 
L 544.968 46.8288 
L 75.69 46.8288 
z
" style="fill: #ffffff"/>
   </g>
   <g id="patch_3">
    <path d="M 97.020818 347.3136 
L 116.218615 347.3136 
L 116.218615 61.1376 
L 97.020818 61.1376 
z
" clip-path="url(#pf8a154afe8)" style="fill: #1f77b4"/>
   </g>
   <g id="patch_4">
    <path d="M 117.76955 347.3136 
L 129.056935 347.3136 
L 129.056935 175.48909 
L 117.76955 175.48909 
z
" clip-path="url(#pf8a154afe8)" style="fill: #1f77b4"/>
   </g>
   <g id="patch_5">
    <path d="M 130.090772 347.3136 
L 138.109732 347.3136 
L 138.109732 214.363414 
L 130.090772 214.363414 
z
" clip-path="url(#pf8a154afe8)" style="fill: #1f77b4"/>
   </g>
   <g id="patch_6">
    <path d="M 138.885079 347.3136 
L 145.108328 347.3136 
L 145.108328 257.201394 
L 138.885079 257.201394 
z
" clip-path="url(#pf8a154afe8)" style="fill: #1f77b4"/>
   </g>
   <g id="patch_7">
    <path d="M 145.728594 347.3136 
L 150.814694 347.3136 
L 150.814694 275.281765 
L 145.728594 275.281765 
z
" clip-path="url(#pf8a154afe8)" style="fill: #1f77b4"/>
   </g>
   <g id="patch_8">
    <path d="M 151.586823 347.3136 
L 159.605784 347.3136 
L 159.605784 208.783805 
L 151.586823 208.783805 
z
" clip-path="url(#pf8a154afe8)" style="fill: #1f77b4"/>
   </g>
   <g id="patch_9">
    <path d="M 160.38113 347.3136 
L 166.60438 347.3136 
L 166.60438 221.924851 
L 160.38113 221.924851 
z
" clip-path="url(#pf8a154afe8)" style="fill: #1f77b4"/>
   </g>
   <g id="patch_10">
    <path d="M 167.377792 347.3136 
L 174.692654 347.3136 
L 174.692654 185.718373 
L 167.377792 185.718373 
z
" clip-path="url(#pf8a154afe8)" style="fill: #1f77b4"/>
   </g>
   <g id="patch_11">
    <path d="M 175.408353 347.3136 
L 181.19982 347.3136 
L 181.19982 212.000465 
L 175.408353 212.000465 
z
" clip-path="url(#pf8a154afe8)" style="fill: #1f77b4"/>
   </g>
   <g id="patch_12">
    <path d="M 181.877182 347.3136 
L 188.100431 347.3136 
L 188.100431 198.920398 
L 181.877182 198.920398 
z
" clip-path="url(#pf8a154afe8)" style="fill: #1f77b4"/>
   </g>
   <g id="patch_13">
    <path d="M 188.797365 347.3136 
L 195.020614 347.3136 
L 195.020614 200.322923 
L 188.797365 200.322923 
z
" clip-path="url(#pf8a154afe8)" style="fill: #1f77b4"/>
   </g>
   <g id="patch_14">
    <path d="M 195.763458 347.3136 
L 202.646918 347.3136 
L 202.646918 170.625989 
L 195.763458 170.625989 
z
" clip-path="url(#pf8a154afe8)" style="fill: #1f77b4"/>
   </g>
   <g id="patch_15">
    <path d="M 203.373233 347.3136 
L 209.596483 347.3136 
L 209.596483 168.689895 
L 203.373233 168.689895 
z
" clip-path="url(#pf8a154afe8)" style="fill: #1f77b4"/>
   </g>
   <g id="patch_16">
    <path d="M 210.293416 347.3136 
L 216.516666 347.3136 
L 216.516666 169.833257 
L 210.293416 169.833257 
z
" clip-path="url(#pf8a154afe8)" style="fill: #1f77b4"/>
   </g>
   <g id="patch_17">
    <path d="M 217.22891 347.3136 
L 223.674013 347.3136 
L 223.674013 135.989729 
L 217.22891 135.989729 
z
" clip-path="url(#pf8a154afe8)" style="fill: #1f77b4"/>
   </g>
   <g id="patch_18">
    <path d="M 224.38697 347.3136 
L 230.698472 347.3136 
L 230.698472 134.297552 
L 224.38697 134.297552 
z
" clip-path="url(#pf8a154afe8)" style="fill: #1f77b4"/>
   </g>
   <g id="patch_19">
    <path d="M 231.423594 347.3136 
L 237.99705 347.3136 
L 237.99705 97.450792 
L 231.423594 97.450792 
z
" clip-path="url(#pf8a154afe8)" style="fill: #1f77b4"/>
   </g>
   <g id="patch_20">
    <path d="M 238.724962 347.3136 
L 245.170065 347.3136 
L 245.170065 66.458047 
L 238.724962 66.458047 
z
" clip-path="url(#pf8a154afe8)" style="fill: #1f77b4"/>
   </g>
   <g id="patch_21">
    <path d="M 245.883021 347.3136 
L 252.194524 347.3136 
L 252.194524 102.039486 
L 245.883021 102.039486 
z
" clip-path="url(#pf8a154afe8)" style="fill: #1f77b4"/>
   </g>
   <g id="patch_22">
    <path d="M 252.919646 347.3136 
L 259.493102 347.3136 
L 259.493102 158.460612 
L 252.919646 158.460612 
z
" clip-path="url(#pf8a154afe8)" style="fill: #1f77b4"/>
   </g>
   <g id="patch_23">
    <path d="M 260.213359 347.3136 
L 266.547761 347.3136 
L 266.547761 170.869906 
L 260.213359 170.869906 
z
" clip-path="url(#pf8a154afe8)" style="fill: #1f77b4"/>
   </g>
   <g id="patch_24">
    <path d="M 267.263412 347.3136 
L 273.685618 347.3136 
L 273.685618 176.358046 
L 267.263412 176.358046 
z
" clip-path="url(#pf8a154afe8)" style="fill: #1f77b4"/>
   </g>
   <g id="patch_25">
    <path d="M 274.40601 347.3136 
L 280.839924 347.3136 
L 280.839924 218.32707 
L 274.40601 218.32707 
z
" clip-path="url(#pf8a154afe8)" style="fill: #1f77b4"/>
   </g>
   <g id="patch_26">
    <path d="M 281.559768 347.3136 
L 287.978211 347.3136 
L 287.978211 225.126266 
L 281.559768 225.126266 
z
" clip-path="url(#pf8a154afe8)" style="fill: #1f77b4"/>
   </g>
   <g id="patch_27">
    <path d="M 288.698416 347.3136 
L 295.13205 347.3136 
L 295.13205 224.120107 
L 288.698416 224.120107 
z
" clip-path="url(#pf8a154afe8)" style="fill: #1f77b4"/>
   </g>
   <g id="patch_28">
    <path d="M 295.851157 347.3136 
L 302.259117 347.3136 
L 302.259117 249.883874 
L 295.851157 249.883874 
z
" clip-path="url(#pf8a154afe8)" style="fill: #1f77b4"/>
   </g>
   <g id="patch_29">
    <path d="M 302.9788 347.3136 
L 309.411655 347.3136 
L 309.411655 265.936683 
L 302.9788 265.936683 
z
" clip-path="url(#pf8a154afe8)" style="fill: #1f77b4"/>
   </g>
   <g id="patch_30">
    <path d="M 310.131768 347.3136 
L 316.554767 347.3136 
L 316.554767 279.42836 
L 310.131768 279.42836 
z
" clip-path="url(#pf8a154afe8)" style="fill: #1f77b4"/>
   </g>
   <g id="patch_31">
    <path d="M 317.274341 347.3136 
L 323.695917 347.3136 
L 323.695917 292.279754 
L 317.274341 292.279754 
z
" clip-path="url(#pf8a154afe8)" style="fill: #1f77b4"/>
   </g>
   <g id="patch_32">
    <path d="M 324.415028 347.3136 
L 330.830841 347.3136 
L 330.830841 308.378297 
L 324.415028 308.378297 
z
" clip-path="url(#pf8a154afe8)" style="fill: #1f77b4"/>
   </g>
   <g id="patch_33">
    <path d="M 331.550419 347.3136 
L 337.976687 347.3136 
L 337.976687 307.204445 
L 331.550419 307.204445 
z
" clip-path="url(#pf8a154afe8)" style="fill: #1f77b4"/>
   </g>
   <g id="patch_34">
    <path d="M 338.696135 347.3136 
L 345.113781 347.3136 
L 345.113781 314.232313 
L 338.696135 314.232313 
z
" clip-path="url(#pf8a154afe8)" style="fill: #1f77b4"/>
   </g>
   <g id="patch_35">
    <path d="M 345.833234 347.3136 
L 352.256527 347.3136 
L 352.256527 329.538125 
L 345.833234 329.538125 
z
" clip-path="url(#pf8a154afe8)" style="fill: #1f77b4"/>
   </g>
   <g id="patch_36">
    <path d="M 352.976182 347.3136 
L 359.398742 347.3136 
L 359.398742 331.672402 
L 352.976182 331.672402 
z
" clip-path="url(#pf8a154afe8)" style="fill: #1f77b4"/>
   </g>
   <g id="patch_37">
    <path d="M 360.118362 347.3136 
L 366.540884 347.3136 
L 366.540884 335.300672 
L 360.118362 335.300672 
z
" clip-path="url(#pf8a154afe8)" style="fill: #1f77b4"/>
   </g>
   <g id="patch_38">
    <path d="M 367.260222 347.3136 
L 373.678699 347.3136 
L 373.678699 334.264023 
L 367.260222 334.264023 
z
" clip-path="url(#pf8a154afe8)" style="fill: #1f77b4"/>
   </g>
   <g id="patch_39">
    <path d="M 374.398124 347.3136 
L 380.820463 347.3136 
L 380.820463 337.648376 
L 374.398124 337.648376 
z
" clip-path="url(#pf8a154afe8)" style="fill: #1f77b4"/>
   </g>
   <g id="patch_40">
    <path d="M 381.539953 347.3136 
L 387.96074 347.3136 
L 387.96074 342.709661 
L 381.539953 342.709661 
z
" clip-path="url(#pf8a154afe8)" style="fill: #1f77b4"/>
   </g>
   <g id="patch_41">
    <path d="M 388.680247 347.3136 
L 395.102277 347.3136 
L 395.102277 345.164079 
L 388.680247 345.164079 
z
" clip-path="url(#pf8a154afe8)" style="fill: #1f77b4"/>
   </g>
   <g id="patch_42">
    <path d="M 395.821821 347.3136 
L 402.243576 347.3136 
L 402.243576 344.112185 
L 395.821821 344.112185 
z
" clip-path="url(#pf8a154afe8)" style="fill: #1f77b4"/>
   </g>
   <g id="patch_43">
    <path d="M 402.963053 347.3136 
L 409.384027 347.3136 
L 409.384027 346.200727 
L 402.963053 346.200727 
z
" clip-path="url(#pf8a154afe8)" style="fill: #1f77b4"/>
   </g>
   <g id="patch_44">
    <path d="M 410.103497 347.3136 
L 416.524893 347.3136 
L 416.524893 345.423241 
L 410.103497 345.423241 
z
" clip-path="url(#pf8a154afe8)" style="fill: #1f77b4"/>
   </g>
   <g id="patch_45">
    <path d="M 417.24438 347.3136 
L 423.66573 347.3136 
L 423.66573 346.90199 
L 417.24438 346.90199 
z
" clip-path="url(#pf8a154afe8)" style="fill: #1f77b4"/>
   </g>
   <g id="patch_46">
    <path d="M 424.385212 347.3136 
L 430.806517 347.3136 
L 430.806517 346.36842 
L 424.385212 346.36842 
z
" clip-path="url(#pf8a154afe8)" style="fill: #1f77b4"/>
   </g>
   <g id="patch_47">
    <path d="M 431.525997 347.3136 
L 437.947309 347.3136 
L 437.947309 346.719052 
L 431.525997 346.719052 
z
" clip-path="url(#pf8a154afe8)" style="fill: #1f77b4"/>
   </g>
   <g id="patch_48">
    <path d="M 438.666788 347.3136 
L 445.088082 347.3136 
L 445.088082 346.8715 
L 438.666788 346.8715 
z
" clip-path="url(#pf8a154afe8)" style="fill: #1f77b4"/>
   </g>
   <g id="patch_49">
    <path d="M 445.80756 347.3136 
L 452.228847 347.3136 
L 452.228847 346.764786 
L 445.80756 346.764786 
z
" clip-path="url(#pf8a154afe8)" style="fill: #1f77b4"/>
   </g>
   <g id="patch_50">
    <path d="M 452.948336 347.3136 
L 459.369787 347.3136 
L 459.369787 347.084928 
L 452.948336 347.084928 
z
" clip-path="url(#pf8a154afe8)" style="fill: #1f77b4"/>
   </g>
   <g id="patch_51">
    <path d="M 460.089265 347.3136 
L 466.510457 347.3136 
L 466.510457 346.170238 
L 460.089265 346.170238 
z
" clip-path="url(#pf8a154afe8)" style="fill: #1f77b4"/>
   </g>
   <g id="patch_52">
    <path d="M 467.229936 347.3136 
L 473.651309 347.3136 
L 473.651309 347.039193 
L 467.229936 347.039193 
z
" clip-path="url(#pf8a154afe8)" style="fill: #1f77b4"/>
   </g>
   <g id="patch_53">
    <path d="M 474.370799 347.3136 
L 480.792221 347.3136 
L 480.792221 346.39891 
L 474.370799 346.39891 
z
" clip-path="url(#pf8a154afe8)" style="fill: #1f77b4"/>
   </g>
   <g id="patch_54">
    <path d="M 481.511707 347.3136 
L 487.933037 347.3136 
L 487.933037 346.261707 
L 481.511707 346.261707 
z
" clip-path="url(#pf8a154afe8)" style="fill: #1f77b4"/>
   </g>
   <g id="patch_55">
    <path d="M 488.652519 347.3136 
L 495.073835 347.3136 
L 495.073835 347.206886 
L 488.652519 347.206886 
z
" clip-path="url(#pf8a154afe8)" style="fill: #1f77b4"/>
   </g>
   <g id="patch_56">
    <path d="M 495.793318 347.3136 
L 502.214667 347.3136 
L 502.214667 347.3136 
L 495.793318 347.3136 
z
" clip-path="url(#pf8a154afe8)" style="fill: #1f77b4"/>
   </g>
   <g id="patch_57">
    <path d="M 502.934151 347.3136 
L 509.355498 347.3136 
L 509.355498 347.237376 
L 502.934151 347.237376 
z
" clip-path="url(#pf8a154afe8)" style="fill: #1f77b4"/>
   </g>
   <g id="patch_58">
    <path d="M 510.074983 347.3136 
L 516.496339 347.3136 
L 516.496339 347.206886 
L 510.074983 347.206886 
z
" clip-path="url(#pf8a154afe8)" style="fill: #1f77b4"/>
   </g>
   <g id="patch_59">
    <path d="M 517.215824 347.3136 
L 523.637182 347.3136 
L 523.637182 347.3136 
L 517.215824 347.3136 
z
" clip-path="url(#pf8a154afe8)" style="fill: #1f77b4"/>
   </g>
   <g id="matplotlib.axis_1">
    <g id="xtick_1">
     <g id="line2d_1">
      <path d="M 95.507726 347.3136 
L 95.507726 46.8288 
" clip-path="url(#pf8a154afe8)" style="fill: none; stroke: #b0b0b0; stroke-width: 0.8; stroke-linecap: square"/>
     </g>
     <g id="line2d_2">
      <defs>
       <path id="ma3fddfc0df" d="M 0 0 
L 0 3.5 
" style="stroke: #000000; stroke-width: 0.8"/>
      </defs>
      <g>
       <use xlink:href="#ma3fddfc0df" x="95.507726" y="347.3136" style="stroke: #000000; stroke-width: 0.8"/>
      </g>
     </g>
     <g id="text_1">
      <!-- $\mathdefault{10^{0}}$ -->
      <g transform="translate(86.707726 361.912037)scale(0.1 -0.1)">
       <defs>
        <path id="DejaVuSans-31" d="M 794 531 
L 1825 531 
L 1825 4091 
L 703 3866 
L 703 4441 
L 1819 4666 
L 2450 4666 
L 2450 531 
L 3481 531 
L 3481 0 
L 794 0 
L 794 531 
z
" transform="scale(0.015625)"/>
        <path id="DejaVuSans-30" d="M 2034 4250 
Q 1547 4250 1301 3770 
Q 1056 3291 1056 2328 
Q 1056 1369 1301 889 
Q 1547 409 2034 409 
Q 2525 409 2770 889 
Q 3016 1369 3016 2328 
Q 3016 3291 2770 3770 
Q 2525 4250 2034 4250 
z
M 2034 4750 
Q 2819 4750 3233 4129 
Q 3647 3509 3647 2328 
Q 3647 1150 3233 529 
Q 2819 -91 2034 -91 
Q 1250 -91 836 529 
Q 422 1150 422 2328 
Q 422 3509 836 4129 
Q 1250 4750 2034 4750 
z
" transform="scale(0.015625)"/>
       </defs>
       <use xlink:href="#DejaVuSans-31" transform="translate(0 0.765625)"/>
       <use xlink:href="#DejaVuSans-30" transform="translate(63.623047 0.765625)"/>
       <use xlink:href="#DejaVuSans-30" transform="translate(128.203125 39.046875)scale(0.7)"/>
      </g>
     </g>
    </g>
    <g id="xtick_2">
     <g id="line2d_3">
      <path d="M 166.916063 347.3136 
L 166.916063 46.8288 
" clip-path="url(#pf8a154afe8)" style="fill: none; stroke: #b0b0b0; stroke-width: 0.8; stroke-linecap: square"/>
     </g>
     <g id="line2d_4">
      <g>
       <use xlink:href="#ma3fddfc0df" x="166.916063" y="347.3136" style="stroke: #000000; stroke-width: 0.8"/>
      </g>
     </g>
     <g id="text_2">
      <!-- $\mathdefault{10^{1}}$ -->
      <g transform="translate(158.116063 361.912037)scale(0.1 -0.1)">
       <use xlink:href="#DejaVuSans-31" transform="translate(0 0.684375)"/>
       <use xlink:href="#DejaVuSans-30" transform="translate(63.623047 0.684375)"/>
       <use xlink:href="#DejaVuSans-31" transform="translate(128.203125 38.965625)scale(0.7)"/>
      </g>
     </g>
    </g>
    <g id="xtick_3">
     <g id="line2d_5">
      <path d="M 238.324401 347.3136 
L 238.324401 46.8288 
" clip-path="url(#pf8a154afe8)" style="fill: none; stroke: #b0b0b0; stroke-width: 0.8; stroke-linecap: square"/>
     </g>
     <g id="line2d_6">
      <g>
       <use xlink:href="#ma3fddfc0df" x="238.324401" y="347.3136" style="stroke: #000000; stroke-width: 0.8"/>
      </g>
     </g>
     <g id="text_3">
      <!-- $\mathdefault{10^{2}}$ -->
      <g transform="translate(229.524401 361.912037)scale(0.1 -0.1)">
       <defs>
        <path id="DejaVuSans-32" d="M 1228 531 
L 3431 531 
L 3431 0 
L 469 0 
L 469 531 
Q 828 903 1448 1529 
Q 2069 2156 2228 2338 
Q 2531 2678 2651 2914 
Q 2772 3150 2772 3378 
Q 2772 3750 2511 3984 
Q 2250 4219 1831 4219 
Q 1534 4219 1204 4116 
Q 875 4013 500 3803 
L 500 4441 
Q 881 4594 1212 4672 
Q 1544 4750 1819 4750 
Q 2544 4750 2975 4387 
Q 3406 4025 3406 3419 
Q 3406 3131 3298 2873 
Q 3191 2616 2906 2266 
Q 2828 2175 2409 1742 
Q 1991 1309 1228 531 
z
" transform="scale(0.015625)"/>
       </defs>
       <use xlink:href="#DejaVuSans-31" transform="translate(0 0.765625)"/>
       <use xlink:href="#DejaVuSans-30" transform="translate(63.623047 0.765625)"/>
       <use xlink:href="#DejaVuSans-32" transform="translate(128.203125 39.046875)scale(0.7)"/>
      </g>
     </g>
    </g>
    <g id="xtick_4">
     <g id="line2d_7">
      <path d="M 309.732738 347.3136 
L 309.732738 46.8288 
" clip-path="url(#pf8a154afe8)" style="fill: none; stroke: #b0b0b0; stroke-width: 0.8; stroke-linecap: square"/>
     </g>
     <g id="line2d_8">
      <g>
       <use xlink:href="#ma3fddfc0df" x="309.732738" y="347.3136" style="stroke: #000000; stroke-width: 0.8"/>
      </g>
     </g>
     <g id="text_4">
      <!-- $\mathdefault{10^{3}}$ -->
      <g transform="translate(300.932738 361.912037)scale(0.1 -0.1)">
       <defs>
        <path id="DejaVuSans-33" d="M 2597 2516 
Q 3050 2419 3304 2112 
Q 3559 1806 3559 1356 
Q 3559 666 3084 287 
Q 2609 -91 1734 -91 
Q 1441 -91 1130 -33 
Q 819 25 488 141 
L 488 750 
Q 750 597 1062 519 
Q 1375 441 1716 441 
Q 2309 441 2620 675 
Q 2931 909 2931 1356 
Q 2931 1769 2642 2001 
Q 2353 2234 1838 2234 
L 1294 2234 
L 1294 2753 
L 1863 2753 
Q 2328 2753 2575 2939 
Q 2822 3125 2822 3475 
Q 2822 3834 2567 4026 
Q 2313 4219 1838 4219 
Q 1578 4219 1281 4162 
Q 984 4106 628 3988 
L 628 4550 
Q 988 4650 1302 4700 
Q 1616 4750 1894 4750 
Q 2613 4750 3031 4423 
Q 3450 4097 3450 3541 
Q 3450 3153 3228 2886 
Q 3006 2619 2597 2516 
z
" transform="scale(0.015625)"/>
       </defs>
       <use xlink:href="#DejaVuSans-31" transform="translate(0 0.765625)"/>
       <use xlink:href="#DejaVuSans-30" transform="translate(63.623047 0.765625)"/>
       <use xlink:href="#DejaVuSans-33" transform="translate(128.203125 39.046875)scale(0.7)"/>
      </g>
     </g>
    </g>
    <g id="xtick_5">
     <g id="line2d_9">
      <path d="M 381.141076 347.3136 
L 381.141076 46.8288 
" clip-path="url(#pf8a154afe8)" style="fill: none; stroke: #b0b0b0; stroke-width: 0.8; stroke-linecap: square"/>
     </g>
     <g id="line2d_10">
      <g>
       <use xlink:href="#ma3fddfc0df" x="381.141076" y="347.3136" style="stroke: #000000; stroke-width: 0.8"/>
      </g>
     </g>
     <g id="text_5">
      <!-- $\mathdefault{10^{4}}$ -->
      <g transform="translate(372.341076 361.912037)scale(0.1 -0.1)">
       <defs>
        <path id="DejaVuSans-34" d="M 2419 4116 
L 825 1625 
L 2419 1625 
L 2419 4116 
z
M 2253 4666 
L 3047 4666 
L 3047 1625 
L 3713 1625 
L 3713 1100 
L 3047 1100 
L 3047 0 
L 2419 0 
L 2419 1100 
L 313 1100 
L 313 1709 
L 2253 4666 
z
" transform="scale(0.015625)"/>
       </defs>
       <use xlink:href="#DejaVuSans-31" transform="translate(0 0.684375)"/>
       <use xlink:href="#DejaVuSans-30" transform="translate(63.623047 0.684375)"/>
       <use xlink:href="#DejaVuSans-34" transform="translate(128.203125 38.965625)scale(0.7)"/>
      </g>
     </g>
    </g>
    <g id="xtick_6">
     <g id="line2d_11">
      <path d="M 452.549413 347.3136 
L 452.549413 46.8288 
" clip-path="url(#pf8a154afe8)" style="fill: none; stroke: #b0b0b0; stroke-width: 0.8; stroke-linecap: square"/>
     </g>
     <g id="line2d_12">
      <g>
       <use xlink:href="#ma3fddfc0df" x="452.549413" y="347.3136" style="stroke: #000000; stroke-width: 0.8"/>
      </g>
     </g>
     <g id="text_6">
      <!-- $\mathdefault{10^{5}}$ -->
      <g transform="translate(443.749413 361.912037)scale(0.1 -0.1)">
       <defs>
        <path id="DejaVuSans-35" d="M 691 4666 
L 3169 4666 
L 3169 4134 
L 1269 4134 
L 1269 2991 
Q 1406 3038 1543 3061 
Q 1681 3084 1819 3084 
Q 2600 3084 3056 2656 
Q 3513 2228 3513 1497 
Q 3513 744 3044 326 
Q 2575 -91 1722 -91 
Q 1428 -91 1123 -41 
Q 819 9 494 109 
L 494 744 
Q 775 591 1075 516 
Q 1375 441 1709 441 
Q 2250 441 2565 725 
Q 2881 1009 2881 1497 
Q 2881 1984 2565 2268 
Q 2250 2553 1709 2553 
Q 1456 2553 1204 2497 
Q 953 2441 691 2322 
L 691 4666 
z
" transform="scale(0.015625)"/>
       </defs>
       <use xlink:href="#DejaVuSans-31" transform="translate(0 0.684375)"/>
       <use xlink:href="#DejaVuSans-30" transform="translate(63.623047 0.684375)"/>
       <use xlink:href="#DejaVuSans-35" transform="translate(128.203125 38.965625)scale(0.7)"/>
      </g>
     </g>
    </g>
    <g id="xtick_7">
     <g id="line2d_13">
      <path d="M 523.957751 347.3136 
L 523.957751 46.8288 
" clip-path="url(#pf8a154afe8)" style="fill: none; stroke: #b0b0b0; stroke-width: 0.8; stroke-linecap: square"/>
     </g>
     <g id="line2d_14">
      <g>
       <use xlink:href="#ma3fddfc0df" x="523.957751" y="347.3136" style="stroke: #000000; stroke-width: 0.8"/>
      </g>
     </g>
     <g id="text_7">
      <!-- $\mathdefault{10^{6}}$ -->
      <g transform="translate(515.157751 361.912037)scale(0.1 -0.1)">
       <defs>
        <path id="DejaVuSans-36" d="M 2113 2584 
Q 1688 2584 1439 2293 
Q 1191 2003 1191 1497 
Q 1191 994 1439 701 
Q 1688 409 2113 409 
Q 2538 409 2786 701 
Q 3034 994 3034 1497 
Q 3034 2003 2786 2293 
Q 2538 2584 2113 2584 
z
M 3366 4563 
L 3366 3988 
Q 3128 4100 2886 4159 
Q 2644 4219 2406 4219 
Q 1781 4219 1451 3797 
Q 1122 3375 1075 2522 
Q 1259 2794 1537 2939 
Q 1816 3084 2150 3084 
Q 2853 3084 3261 2657 
Q 3669 2231 3669 1497 
Q 3669 778 3244 343 
Q 2819 -91 2113 -91 
Q 1303 -91 875 529 
Q 447 1150 447 2328 
Q 447 3434 972 4092 
Q 1497 4750 2381 4750 
Q 2619 4750 2861 4703 
Q 3103 4656 3366 4563 
z
" transform="scale(0.015625)"/>
       </defs>
       <use xlink:href="#DejaVuSans-31" transform="translate(0 0.765625)"/>
       <use xlink:href="#DejaVuSans-30" transform="translate(63.623047 0.765625)"/>
       <use xlink:href="#DejaVuSans-36" transform="translate(128.203125 39.046875)scale(0.7)"/>
      </g>
     </g>
    </g>
    <g id="xtick_8">
     <g id="line2d_15">
      <defs>
       <path id="m75a09966bd" d="M 0 0 
L 0 2 
" style="stroke: #000000; stroke-width: 0.6"/>
      </defs>
      <g>
       <use xlink:href="#m75a09966bd" x="79.665875" y="347.3136" style="stroke: #000000; stroke-width: 0.6"/>
      </g>
     </g>
    </g>
    <g id="xtick_9">
     <g id="line2d_16">
      <g>
       <use xlink:href="#m75a09966bd" x="84.446434" y="347.3136" style="stroke: #000000; stroke-width: 0.6"/>
      </g>
     </g>
    </g>
    <g id="xtick_10">
     <g id="line2d_17">
      <g>
       <use xlink:href="#m75a09966bd" x="88.587543" y="347.3136" style="stroke: #000000; stroke-width: 0.6"/>
      </g>
     </g>
    </g>
    <g id="xtick_11">
     <g id="line2d_18">
      <g>
       <use xlink:href="#m75a09966bd" x="92.240259" y="347.3136" style="stroke: #000000; stroke-width: 0.6"/>
      </g>
     </g>
    </g>
    <g id="xtick_12">
     <g id="line2d_19">
      <g>
       <use xlink:href="#m75a09966bd" x="117.003777" y="347.3136" style="stroke: #000000; stroke-width: 0.6"/>
      </g>
     </g>
    </g>
    <g id="xtick_13">
     <g id="line2d_20">
      <g>
       <use xlink:href="#m75a09966bd" x="129.578161" y="347.3136" style="stroke: #000000; stroke-width: 0.6"/>
      </g>
     </g>
    </g>
    <g id="xtick_14">
     <g id="line2d_21">
      <g>
       <use xlink:href="#m75a09966bd" x="138.499829" y="347.3136" style="stroke: #000000; stroke-width: 0.6"/>
      </g>
     </g>
    </g>
    <g id="xtick_15">
     <g id="line2d_22">
      <g>
       <use xlink:href="#m75a09966bd" x="145.420012" y="347.3136" style="stroke: #000000; stroke-width: 0.6"/>
      </g>
     </g>
    </g>
    <g id="xtick_16">
     <g id="line2d_23">
      <g>
       <use xlink:href="#m75a09966bd" x="151.074213" y="347.3136" style="stroke: #000000; stroke-width: 0.6"/>
      </g>
     </g>
    </g>
    <g id="xtick_17">
     <g id="line2d_24">
      <g>
       <use xlink:href="#m75a09966bd" x="155.854772" y="347.3136" style="stroke: #000000; stroke-width: 0.6"/>
      </g>
     </g>
    </g>
    <g id="xtick_18">
     <g id="line2d_25">
      <g>
       <use xlink:href="#m75a09966bd" x="159.99588" y="347.3136" style="stroke: #000000; stroke-width: 0.6"/>
      </g>
     </g>
    </g>
    <g id="xtick_19">
     <g id="line2d_26">
      <g>
       <use xlink:href="#m75a09966bd" x="163.648597" y="347.3136" style="stroke: #000000; stroke-width: 0.6"/>
      </g>
     </g>
    </g>
    <g id="xtick_20">
     <g id="line2d_27">
      <g>
       <use xlink:href="#m75a09966bd" x="188.412115" y="347.3136" style="stroke: #000000; stroke-width: 0.6"/>
      </g>
     </g>
    </g>
    <g id="xtick_21">
     <g id="line2d_28">
      <g>
       <use xlink:href="#m75a09966bd" x="200.986499" y="347.3136" style="stroke: #000000; stroke-width: 0.6"/>
      </g>
     </g>
    </g>
    <g id="xtick_22">
     <g id="line2d_29">
      <g>
       <use xlink:href="#m75a09966bd" x="209.908166" y="347.3136" style="stroke: #000000; stroke-width: 0.6"/>
      </g>
     </g>
    </g>
    <g id="xtick_23">
     <g id="line2d_30">
      <g>
       <use xlink:href="#m75a09966bd" x="216.828349" y="347.3136" style="stroke: #000000; stroke-width: 0.6"/>
      </g>
     </g>
    </g>
    <g id="xtick_24">
     <g id="line2d_31">
      <g>
       <use xlink:href="#m75a09966bd" x="222.48255" y="347.3136" style="stroke: #000000; stroke-width: 0.6"/>
      </g>
     </g>
    </g>
    <g id="xtick_25">
     <g id="line2d_32">
      <g>
       <use xlink:href="#m75a09966bd" x="227.263109" y="347.3136" style="stroke: #000000; stroke-width: 0.6"/>
      </g>
     </g>
    </g>
    <g id="xtick_26">
     <g id="line2d_33">
      <g>
       <use xlink:href="#m75a09966bd" x="231.404218" y="347.3136" style="stroke: #000000; stroke-width: 0.6"/>
      </g>
     </g>
    </g>
    <g id="xtick_27">
     <g id="line2d_34">
      <g>
       <use xlink:href="#m75a09966bd" x="235.056934" y="347.3136" style="stroke: #000000; stroke-width: 0.6"/>
      </g>
     </g>
    </g>
    <g id="xtick_28">
     <g id="line2d_35">
      <g>
       <use xlink:href="#m75a09966bd" x="259.820452" y="347.3136" style="stroke: #000000; stroke-width: 0.6"/>
      </g>
     </g>
    </g>
    <g id="xtick_29">
     <g id="line2d_36">
      <g>
       <use xlink:href="#m75a09966bd" x="272.394836" y="347.3136" style="stroke: #000000; stroke-width: 0.6"/>
      </g>
     </g>
    </g>
    <g id="xtick_30">
     <g id="line2d_37">
      <g>
       <use xlink:href="#m75a09966bd" x="281.316504" y="347.3136" style="stroke: #000000; stroke-width: 0.6"/>
      </g>
     </g>
    </g>
    <g id="xtick_31">
     <g id="line2d_38">
      <g>
       <use xlink:href="#m75a09966bd" x="288.236687" y="347.3136" style="stroke: #000000; stroke-width: 0.6"/>
      </g>
     </g>
    </g>
    <g id="xtick_32">
     <g id="line2d_39">
      <g>
       <use xlink:href="#m75a09966bd" x="293.890888" y="347.3136" style="stroke: #000000; stroke-width: 0.6"/>
      </g>
     </g>
    </g>
    <g id="xtick_33">
     <g id="line2d_40">
      <g>
       <use xlink:href="#m75a09966bd" x="298.671447" y="347.3136" style="stroke: #000000; stroke-width: 0.6"/>
      </g>
     </g>
    </g>
    <g id="xtick_34">
     <g id="line2d_41">
      <g>
       <use xlink:href="#m75a09966bd" x="302.812555" y="347.3136" style="stroke: #000000; stroke-width: 0.6"/>
      </g>
     </g>
    </g>
    <g id="xtick_35">
     <g id="line2d_42">
      <g>
       <use xlink:href="#m75a09966bd" x="306.465272" y="347.3136" style="stroke: #000000; stroke-width: 0.6"/>
      </g>
     </g>
    </g>
    <g id="xtick_36">
     <g id="line2d_43">
      <g>
       <use xlink:href="#m75a09966bd" x="331.22879" y="347.3136" style="stroke: #000000; stroke-width: 0.6"/>
      </g>
     </g>
    </g>
    <g id="xtick_37">
     <g id="line2d_44">
      <g>
       <use xlink:href="#m75a09966bd" x="343.803174" y="347.3136" style="stroke: #000000; stroke-width: 0.6"/>
      </g>
     </g>
    </g>
    <g id="xtick_38">
     <g id="line2d_45">
      <g>
       <use xlink:href="#m75a09966bd" x="352.724841" y="347.3136" style="stroke: #000000; stroke-width: 0.6"/>
      </g>
     </g>
    </g>
    <g id="xtick_39">
     <g id="line2d_46">
      <g>
       <use xlink:href="#m75a09966bd" x="359.645024" y="347.3136" style="stroke: #000000; stroke-width: 0.6"/>
      </g>
     </g>
    </g>
    <g id="xtick_40">
     <g id="line2d_47">
      <g>
       <use xlink:href="#m75a09966bd" x="365.299225" y="347.3136" style="stroke: #000000; stroke-width: 0.6"/>
      </g>
     </g>
    </g>
    <g id="xtick_41">
     <g id="line2d_48">
      <g>
       <use xlink:href="#m75a09966bd" x="370.079784" y="347.3136" style="stroke: #000000; stroke-width: 0.6"/>
      </g>
     </g>
    </g>
    <g id="xtick_42">
     <g id="line2d_49">
      <g>
       <use xlink:href="#m75a09966bd" x="374.220893" y="347.3136" style="stroke: #000000; stroke-width: 0.6"/>
      </g>
     </g>
    </g>
    <g id="xtick_43">
     <g id="line2d_50">
      <g>
       <use xlink:href="#m75a09966bd" x="377.873609" y="347.3136" style="stroke: #000000; stroke-width: 0.6"/>
      </g>
     </g>
    </g>
    <g id="xtick_44">
     <g id="line2d_51">
      <g>
       <use xlink:href="#m75a09966bd" x="402.637127" y="347.3136" style="stroke: #000000; stroke-width: 0.6"/>
      </g>
     </g>
    </g>
    <g id="xtick_45">
     <g id="line2d_52">
      <g>
       <use xlink:href="#m75a09966bd" x="415.211511" y="347.3136" style="stroke: #000000; stroke-width: 0.6"/>
      </g>
     </g>
    </g>
    <g id="xtick_46">
     <g id="line2d_53">
      <g>
       <use xlink:href="#m75a09966bd" x="424.133179" y="347.3136" style="stroke: #000000; stroke-width: 0.6"/>
      </g>
     </g>
    </g>
    <g id="xtick_47">
     <g id="line2d_54">
      <g>
       <use xlink:href="#m75a09966bd" x="431.053361" y="347.3136" style="stroke: #000000; stroke-width: 0.6"/>
      </g>
     </g>
    </g>
    <g id="xtick_48">
     <g id="line2d_55">
      <g>
       <use xlink:href="#m75a09966bd" x="436.707563" y="347.3136" style="stroke: #000000; stroke-width: 0.6"/>
      </g>
     </g>
    </g>
    <g id="xtick_49">
     <g id="line2d_56">
      <g>
       <use xlink:href="#m75a09966bd" x="441.488122" y="347.3136" style="stroke: #000000; stroke-width: 0.6"/>
      </g>
     </g>
    </g>
    <g id="xtick_50">
     <g id="line2d_57">
      <g>
       <use xlink:href="#m75a09966bd" x="445.62923" y="347.3136" style="stroke: #000000; stroke-width: 0.6"/>
      </g>
     </g>
    </g>
    <g id="xtick_51">
     <g id="line2d_58">
      <g>
       <use xlink:href="#m75a09966bd" x="449.281947" y="347.3136" style="stroke: #000000; stroke-width: 0.6"/>
      </g>
     </g>
    </g>
    <g id="xtick_52">
     <g id="line2d_59">
      <g>
       <use xlink:href="#m75a09966bd" x="474.045465" y="347.3136" style="stroke: #000000; stroke-width: 0.6"/>
      </g>
     </g>
    </g>
    <g id="xtick_53">
     <g id="line2d_60">
      <g>
       <use xlink:href="#m75a09966bd" x="486.619849" y="347.3136" style="stroke: #000000; stroke-width: 0.6"/>
      </g>
     </g>
    </g>
    <g id="xtick_54">
     <g id="line2d_61">
      <g>
       <use xlink:href="#m75a09966bd" x="495.541516" y="347.3136" style="stroke: #000000; stroke-width: 0.6"/>
      </g>
     </g>
    </g>
    <g id="xtick_55">
     <g id="line2d_62">
      <g>
       <use xlink:href="#m75a09966bd" x="502.461699" y="347.3136" style="stroke: #000000; stroke-width: 0.6"/>
      </g>
     </g>
    </g>
    <g id="xtick_56">
     <g id="line2d_63">
      <g>
       <use xlink:href="#m75a09966bd" x="508.1159" y="347.3136" style="stroke: #000000; stroke-width: 0.6"/>
      </g>
     </g>
    </g>
    <g id="xtick_57">
     <g id="line2d_64">
      <g>
       <use xlink:href="#m75a09966bd" x="512.896459" y="347.3136" style="stroke: #000000; stroke-width: 0.6"/>
      </g>
     </g>
    </g>
    <g id="xtick_58">
     <g id="line2d_65">
      <g>
       <use xlink:href="#m75a09966bd" x="517.037568" y="347.3136" style="stroke: #000000; stroke-width: 0.6"/>
      </g>
     </g>
    </g>
    <g id="xtick_59">
     <g id="line2d_66">
      <g>
       <use xlink:href="#m75a09966bd" x="520.690284" y="347.3136" style="stroke: #000000; stroke-width: 0.6"/>
      </g>
     </g>
    </g>
    <g id="text_8">
     <!-- Πλήθος calls -->
     <g transform="translate(278.602437 375.990162)scale(0.1 -0.1)">
      <defs>
       <path id="DejaVuSans-3a0" d="M 4184 4666 
L 4184 0 
L 3553 0 
L 3553 4134 
L 1259 4134 
L 1259 0 
L 628 0 
L 628 4666 
L 4184 4666 
z
" transform="scale(0.015625)"/>
       <path id="DejaVuSans-3bb" d="M 1981 4316 
L 3597 0 
L 2988 0 
L 2006 2588 
L 800 0 
L 191 0 
L 1725 3356 
L 1494 3975 
Q 1347 4369 1013 4369 
L 713 4369 
L 713 4863 
L 1078 4856 
Q 1784 4847 1981 4316 
z
" transform="scale(0.015625)"/>
       <path id="DejaVuSans-3ae" d="M 2650 5119 
L 3272 5119 
L 2254 3944 
L 1775 3944 
L 2650 5119 
z
M 3513 2113 
L 3513 -1331 
L 2938 -1331 
L 2938 2094 
Q 2938 2591 2744 2837 
Q 2550 3084 2163 3084 
Q 1697 3084 1428 2787 
Q 1159 2491 1159 1978 
L 1159 0 
L 581 0 
L 581 3500 
L 1159 3500 
L 1159 2956 
Q 1366 3272 1644 3428 
Q 1925 3584 2291 3584 
Q 2894 3584 3203 3213 
Q 3513 2838 3513 2113 
z
" transform="scale(0.015625)"/>
       <path id="DejaVuSans-3b8" d="M 2953 2219 
L 963 2219 
Q 1009 1284 1225 888 
Q 1494 400 1959 400 
Q 2428 400 2688 891 
Q 2916 1322 2953 2219 
z
M 2944 2750 
Q 2856 3638 2688 3950 
Q 2419 4444 1959 4444 
Q 1481 4444 1228 3956 
Q 1028 3563 969 2750 
L 2944 2750 
z
M 1959 4913 
Q 2709 4913 3138 4250 
Q 3566 3591 3566 2422 
Q 3566 1256 3138 594 
Q 2709 -72 1959 -72 
Q 1206 -72 781 594 
Q 353 1256 353 2422 
Q 353 3591 781 4250 
Q 1206 4913 1959 4913 
z
" transform="scale(0.015625)"/>
       <path id="DejaVuSans-3bf" d="M 1959 3097 
Q 1497 3097 1228 2736 
Q 959 2375 959 1747 
Q 959 1119 1226 758 
Q 1494 397 1959 397 
Q 2419 397 2687 759 
Q 2956 1122 2956 1747 
Q 2956 2369 2687 2733 
Q 2419 3097 1959 3097 
z
M 1959 3584 
Q 2709 3584 3137 3096 
Q 3566 2609 3566 1747 
Q 3566 888 3137 398 
Q 2709 -91 1959 -91 
Q 1206 -91 779 398 
Q 353 888 353 1747 
Q 353 2609 779 3096 
Q 1206 3584 1959 3584 
z
" transform="scale(0.015625)"/>
       <path id="DejaVuSans-3c2" d="M 2125 -91 
Q 1284 -91 818 406 
Q 353 903 353 1747 
Q 353 2603 823 3093 
Q 1294 3584 2113 3584 
Q 2378 3584 2631 3529 
Q 2884 3475 3122 3366 
L 3122 2828 
Q 2878 2963 2633 3030 
Q 2388 3097 2138 3097 
Q 1578 3097 1268 2742 
Q 959 2388 959 1747 
Q 959 1106 1268 751 
Q 1578 397 2125 397 
Q 2534 397 2784 159 
Q 3047 -88 3047 -463 
Q 3047 -822 2816 -1072 
Q 2566 -1344 2056 -1344 
Q 2056 -1109 2056 -872 
Q 2272 -888 2403 -750 
Q 2503 -641 2503 -525 
Q 2503 -359 2403 -222 
Q 2306 -91 2125 -91 
z
" transform="scale(0.015625)"/>
       <path id="DejaVuSans-20" transform="scale(0.015625)"/>
       <path id="DejaVuSans-63" d="M 3122 3366 
L 3122 2828 
Q 2878 2963 2633 3030 
Q 2388 3097 2138 3097 
Q 1578 3097 1268 2742 
Q 959 2388 959 1747 
Q 959 1106 1268 751 
Q 1578 397 2138 397 
Q 2388 397 2633 464 
Q 2878 531 3122 666 
L 3122 134 
Q 2881 22 2623 -34 
Q 2366 -91 2075 -91 
Q 1284 -91 818 406 
Q 353 903 353 1747 
Q 353 2603 823 3093 
Q 1294 3584 2113 3584 
Q 2378 3584 2631 3529 
Q 2884 3475 3122 3366 
z
" transform="scale(0.015625)"/>
       <path id="DejaVuSans-61" d="M 2194 1759 
Q 1497 1759 1228 1600 
Q 959 1441 959 1056 
Q 959 750 1161 570 
Q 1363 391 1709 391 
Q 2188 391 2477 730 
Q 2766 1069 2766 1631 
L 2766 1759 
L 2194 1759 
z
M 3341 1997 
L 3341 0 
L 2766 0 
L 2766 531 
Q 2569 213 2275 61 
Q 1981 -91 1556 -91 
Q 1019 -91 701 211 
Q 384 513 384 1019 
Q 384 1609 779 1909 
Q 1175 2209 1959 2209 
L 2766 2209 
L 2766 2266 
Q 2766 2663 2505 2880 
Q 2244 3097 1772 3097 
Q 1472 3097 1187 3025 
Q 903 2953 641 2809 
L 641 3341 
Q 956 3463 1253 3523 
Q 1550 3584 1831 3584 
Q 2591 3584 2966 3190 
Q 3341 2797 3341 1997 
z
" transform="scale(0.015625)"/>
       <path id="DejaVuSans-6c" d="M 603 4863 
L 1178 4863 
L 1178 0 
L 603 0 
L 603 4863 
z
" transform="scale(0.015625)"/>
       <path id="DejaVuSans-73" d="M 2834 3397 
L 2834 2853 
Q 2591 2978 2328 3040 
Q 2066 3103 1784 3103 
Q 1356 3103 1142 2972 
Q 928 2841 928 2578 
Q 928 2378 1081 2264 
Q 1234 2150 1697 2047 
L 1894 2003 
Q 2506 1872 2764 1633 
Q 3022 1394 3022 966 
Q 3022 478 2636 193 
Q 2250 -91 1575 -91 
Q 1294 -91 989 -36 
Q 684 19 347 128 
L 347 722 
Q 666 556 975 473 
Q 1284 391 1588 391 
Q 1994 391 2212 530 
Q 2431 669 2431 922 
Q 2431 1156 2273 1281 
Q 2116 1406 1581 1522 
L 1381 1569 
Q 847 1681 609 1914 
Q 372 2147 372 2553 
Q 372 3047 722 3315 
Q 1072 3584 1716 3584 
Q 2034 3584 2315 3537 
Q 2597 3491 2834 3397 
z
" transform="scale(0.015625)"/>
      </defs>
      <use xlink:href="#DejaVuSans-3a0"/>
      <use xlink:href="#DejaVuSans-3bb" x="75.195312"/>
      <use xlink:href="#DejaVuSans-3ae" x="134.375"/>
      <use xlink:href="#DejaVuSans-3b8" x="197.753906"/>
      <use xlink:href="#DejaVuSans-3bf" x="258.935547"/>
      <use xlink:href="#DejaVuSans-3c2" x="320.117188"/>
      <use xlink:href="#DejaVuSans-20" x="378.808594"/>
      <use xlink:href="#DejaVuSans-63" x="410.595703"/>
      <use xlink:href="#DejaVuSans-61" x="465.576172"/>
      <use xlink:href="#DejaVuSans-6c" x="526.855469"/>
      <use xlink:href="#DejaVuSans-6c" x="554.638672"/>
      <use xlink:href="#DejaVuSans-73" x="582.421875"/>
     </g>
    </g>
   </g>
   <g id="matplotlib.axis_2">
    <g id="ytick_1">
     <g id="line2d_67">
      <path d="M 75.69 347.3136 
L 544.968 347.3136 
" clip-path="url(#pf8a154afe8)" style="fill: none; stroke: #b0b0b0; stroke-width: 0.8; stroke-linecap: square"/>
     </g>
     <g id="line2d_68">
      <defs>
       <path id="m03346d0e83" d="M 0 0 
L -3.5 0 
" style="stroke: #000000; stroke-width: 0.8"/>
      </defs>
      <g>
       <use xlink:href="#m03346d0e83" x="75.69" y="347.3136" style="stroke: #000000; stroke-width: 0.8"/>
      </g>
     </g>
     <g id="text_9">
      <!-- 0 -->
      <g transform="translate(62.3275 351.112819)scale(0.1 -0.1)">
       <use xlink:href="#DejaVuSans-30"/>
      </g>
     </g>
    </g>
    <g id="ytick_2">
     <g id="line2d_69">
      <path d="M 75.69 309.201518 
L 544.968 309.201518 
" clip-path="url(#pf8a154afe8)" style="fill: none; stroke: #b0b0b0; stroke-width: 0.8; stroke-linecap: square"/>
     </g>
     <g id="line2d_70">
      <g>
       <use xlink:href="#m03346d0e83" x="75.69" y="309.201518" style="stroke: #000000; stroke-width: 0.8"/>
      </g>
     </g>
     <g id="text_10">
      <!-- 2500 -->
      <g transform="translate(43.24 313.000737)scale(0.1 -0.1)">
       <use xlink:href="#DejaVuSans-32"/>
       <use xlink:href="#DejaVuSans-35" x="63.623047"/>
       <use xlink:href="#DejaVuSans-30" x="127.246094"/>
       <use xlink:href="#DejaVuSans-30" x="190.869141"/>
      </g>
     </g>
    </g>
    <g id="ytick_3">
     <g id="line2d_71">
      <path d="M 75.69 271.089436 
L 544.968 271.089436 
" clip-path="url(#pf8a154afe8)" style="fill: none; stroke: #b0b0b0; stroke-width: 0.8; stroke-linecap: square"/>
     </g>
     <g id="line2d_72">
      <g>
       <use xlink:href="#m03346d0e83" x="75.69" y="271.089436" style="stroke: #000000; stroke-width: 0.8"/>
      </g>
     </g>
     <g id="text_11">
      <!-- 5000 -->
      <g transform="translate(43.24 274.888655)scale(0.1 -0.1)">
       <use xlink:href="#DejaVuSans-35"/>
       <use xlink:href="#DejaVuSans-30" x="63.623047"/>
       <use xlink:href="#DejaVuSans-30" x="127.246094"/>
       <use xlink:href="#DejaVuSans-30" x="190.869141"/>
      </g>
     </g>
    </g>
    <g id="ytick_4">
     <g id="line2d_73">
      <path d="M 75.69 232.977355 
L 544.968 232.977355 
" clip-path="url(#pf8a154afe8)" style="fill: none; stroke: #b0b0b0; stroke-width: 0.8; stroke-linecap: square"/>
     </g>
     <g id="line2d_74">
      <g>
       <use xlink:href="#m03346d0e83" x="75.69" y="232.977355" style="stroke: #000000; stroke-width: 0.8"/>
      </g>
     </g>
     <g id="text_12">
      <!-- 7500 -->
      <g transform="translate(43.24 236.776573)scale(0.1 -0.1)">
       <defs>
        <path id="DejaVuSans-37" d="M 525 4666 
L 3525 4666 
L 3525 4397 
L 1831 0 
L 1172 0 
L 2766 4134 
L 525 4134 
L 525 4666 
z
" transform="scale(0.015625)"/>
       </defs>
       <use xlink:href="#DejaVuSans-37"/>
       <use xlink:href="#DejaVuSans-35" x="63.623047"/>
       <use xlink:href="#DejaVuSans-30" x="127.246094"/>
       <use xlink:href="#DejaVuSans-30" x="190.869141"/>
      </g>
     </g>
    </g>
    <g id="ytick_5">
     <g id="line2d_75">
      <path d="M 75.69 194.865273 
L 544.968 194.865273 
" clip-path="url(#pf8a154afe8)" style="fill: none; stroke: #b0b0b0; stroke-width: 0.8; stroke-linecap: square"/>
     </g>
     <g id="line2d_76">
      <g>
       <use xlink:href="#m03346d0e83" x="75.69" y="194.865273" style="stroke: #000000; stroke-width: 0.8"/>
      </g>
     </g>
     <g id="text_13">
      <!-- 10000 -->
      <g transform="translate(36.8775 198.664491)scale(0.1 -0.1)">
       <use xlink:href="#DejaVuSans-31"/>
       <use xlink:href="#DejaVuSans-30" x="63.623047"/>
       <use xlink:href="#DejaVuSans-30" x="127.246094"/>
       <use xlink:href="#DejaVuSans-30" x="190.869141"/>
       <use xlink:href="#DejaVuSans-30" x="254.492188"/>
      </g>
     </g>
    </g>
    <g id="ytick_6">
     <g id="line2d_77">
      <path d="M 75.69 156.753191 
L 544.968 156.753191 
" clip-path="url(#pf8a154afe8)" style="fill: none; stroke: #b0b0b0; stroke-width: 0.8; stroke-linecap: square"/>
     </g>
     <g id="line2d_78">
      <g>
       <use xlink:href="#m03346d0e83" x="75.69" y="156.753191" style="stroke: #000000; stroke-width: 0.8"/>
      </g>
     </g>
     <g id="text_14">
      <!-- 12500 -->
      <g transform="translate(36.8775 160.55241)scale(0.1 -0.1)">
       <use xlink:href="#DejaVuSans-31"/>
       <use xlink:href="#DejaVuSans-32" x="63.623047"/>
       <use xlink:href="#DejaVuSans-35" x="127.246094"/>
       <use xlink:href="#DejaVuSans-30" x="190.869141"/>
       <use xlink:href="#DejaVuSans-30" x="254.492188"/>
      </g>
     </g>
    </g>
    <g id="ytick_7">
     <g id="line2d_79">
      <path d="M 75.69 118.641109 
L 544.968 118.641109 
" clip-path="url(#pf8a154afe8)" style="fill: none; stroke: #b0b0b0; stroke-width: 0.8; stroke-linecap: square"/>
     </g>
     <g id="line2d_80">
      <g>
       <use xlink:href="#m03346d0e83" x="75.69" y="118.641109" style="stroke: #000000; stroke-width: 0.8"/>
      </g>
     </g>
     <g id="text_15">
      <!-- 15000 -->
      <g transform="translate(36.8775 122.440328)scale(0.1 -0.1)">
       <use xlink:href="#DejaVuSans-31"/>
       <use xlink:href="#DejaVuSans-35" x="63.623047"/>
       <use xlink:href="#DejaVuSans-30" x="127.246094"/>
       <use xlink:href="#DejaVuSans-30" x="190.869141"/>
       <use xlink:href="#DejaVuSans-30" x="254.492188"/>
      </g>
     </g>
    </g>
    <g id="ytick_8">
     <g id="line2d_81">
      <path d="M 75.69 80.529027 
L 544.968 80.529027 
" clip-path="url(#pf8a154afe8)" style="fill: none; stroke: #b0b0b0; stroke-width: 0.8; stroke-linecap: square"/>
     </g>
     <g id="line2d_82">
      <g>
       <use xlink:href="#m03346d0e83" x="75.69" y="80.529027" style="stroke: #000000; stroke-width: 0.8"/>
      </g>
     </g>
     <g id="text_16">
      <!-- 17500 -->
      <g transform="translate(36.8775 84.328246)scale(0.1 -0.1)">
       <use xlink:href="#DejaVuSans-31"/>
       <use xlink:href="#DejaVuSans-37" x="63.623047"/>
       <use xlink:href="#DejaVuSans-35" x="127.246094"/>
       <use xlink:href="#DejaVuSans-30" x="190.869141"/>
       <use xlink:href="#DejaVuSans-30" x="254.492188"/>
      </g>
     </g>
    </g>
    <g id="text_17">
     <!-- Πλήθος ακμών -->
     <g transform="translate(30.7775 234.005575)rotate(-90)scale(0.1 -0.1)">
      <defs>
       <path id="DejaVuSans-3b1" d="M 2644 1628 
L 2506 2350 
Q 2366 3091 1809 3091 
Q 1391 3091 1200 2747 
Q 959 2316 959 1747 
Q 959 1059 1194 731 
Q 1431 397 1809 397 
Q 2228 397 2453 1063 
L 2644 1628 
z
M 2966 2584 
L 3275 3500 
L 3788 3500 
L 3147 1603 
L 3272 919 
Q 3300 766 3409 638 
Q 3538 488 3638 488 
L 3913 488 
L 3913 0 
L 3569 0 
Q 3275 0 3013 263 
Q 2884 394 2831 669 
Q 2688 322 2394 50 
Q 2256 -78 1809 -78 
Q 1075 -78 719 397 
Q 353 888 353 1747 
Q 353 2666 750 3097 
Q 1191 3578 1809 3578 
Q 2781 3578 2966 2584 
z
" transform="scale(0.015625)"/>
       <path id="DejaVuSans-3ba" d="M 597 3500 
L 1191 3500 
L 1191 2047 
L 2700 3500 
L 3400 3500 
L 2022 2181 
L 3616 0 
L 2913 0 
L 1619 1806 
L 1191 1403 
L 1191 0 
L 597 0 
L 597 3500 
z
" transform="scale(0.015625)"/>
       <path id="DejaVuSans-3bc" d="M 544 -1331 
L 544 3500 
L 1119 3500 
L 1119 1325 
Q 1119 872 1334 640 
Q 1550 409 1972 409 
Q 2434 409 2667 671 
Q 2900 934 2900 1459 
L 2900 3500 
L 3475 3500 
L 3475 806 
Q 3475 619 3529 530 
Q 3584 441 3700 441 
Q 3728 441 3778 458 
Q 3828 475 3916 513 
L 3916 50 
Q 3788 -22 3673 -56 
Q 3559 -91 3450 -91 
Q 3234 -91 3106 31 
Q 2978 153 2931 403 
Q 2775 156 2548 32 
Q 2322 -91 2016 -91 
Q 1697 -91 1473 31 
Q 1250 153 1119 397 
L 1119 -1331 
L 544 -1331 
z
" transform="scale(0.015625)"/>
       <path id="DejaVuSans-3ce" d="M 1719 -91 
Q 422 -91 422 1766 
Q 422 2500 906 3500 
L 1525 3500 
Q 1078 2500 1078 1750 
Q 1078 397 1772 397 
Q 2406 397 2406 2078 
L 2938 2078 
Q 2938 397 3572 397 
Q 4266 397 4266 1750 
Q 4266 2500 3819 3500 
L 4438 3500 
Q 4922 2500 4922 1766 
Q 4922 -91 3625 -91 
Q 2775 -91 2672 844 
Q 2544 -91 1719 -91 
z
M 3114 5119 
L 3736 5119 
L 2718 3944 
L 2239 3944 
L 3114 5119 
z
" transform="scale(0.015625)"/>
       <path id="DejaVuSans-3bd" d="M 1300 0 
L 231 3500 
L 850 3500 
L 1753 563 
Q 2128 950 2441 1488 
Q 2678 1891 2691 2241 
Q 2697 2406 2622 2719 
Q 2534 3091 2203 3500 
L 2784 3500 
L 2784 3500 
Q 3000 3222 3144 2834 
Q 3275 2478 3275 2234 
Q 3275 1622 2850 1075 
Q 2297 363 1913 0 
L 1300 0 
z
" transform="scale(0.015625)"/>
      </defs>
      <use xlink:href="#DejaVuSans-3a0"/>
      <use xlink:href="#DejaVuSans-3bb" x="75.195312"/>
      <use xlink:href="#DejaVuSans-3ae" x="134.375"/>
      <use xlink:href="#DejaVuSans-3b8" x="197.753906"/>
      <use xlink:href="#DejaVuSans-3bf" x="258.935547"/>
      <use xlink:href="#DejaVuSans-3c2" x="320.117188"/>
      <use xlink:href="#DejaVuSans-20" x="378.808594"/>
      <use xlink:href="#DejaVuSans-3b1" x="410.595703"/>
      <use xlink:href="#DejaVuSans-3ba" x="476.513672"/>
      <use xlink:href="#DejaVuSans-3bc" x="535.449219"/>
      <use xlink:href="#DejaVuSans-3ce" x="599.072266"/>
      <use xlink:href="#DejaVuSans-3bd" x="682.8125"/>
     </g>
    </g>
   </g>
   <g id="line2d_83">
    <path d="M 216.828349 348.838083 
L 216.828349 -1 
" style="fill: none; stroke: #000000; stroke-width: 2; stroke-linecap: square"/>
   </g>
   <g id="patch_60">
    <path d="M 75.69 347.3136 
L 75.69 46.8288 
" style="fill: none; stroke: #000000; stroke-width: 0.8; stroke-linejoin: miter; stroke-linecap: square"/>
   </g>
   <g id="patch_61">
    <path d="M 544.968 347.3136 
L 544.968 46.8288 
" style="fill: none; stroke: #000000; stroke-width: 0.8; stroke-linejoin: miter; stroke-linecap: square"/>
   </g>
   <g id="patch_62">
    <path d="M 75.69 347.3136 
L 544.968 347.3136 
" style="fill: none; stroke: #000000; stroke-width: 0.8; stroke-linejoin: miter; stroke-linecap: square"/>
   </g>
   <g id="patch_63">
    <path d="M 75.69 46.8288 
L 544.968 46.8288 
" style="fill: none; stroke: #000000; stroke-width: 0.8; stroke-linejoin: miter; stroke-linecap: square"/>
   </g>
   <g id="text_18">
    <!-- 50 -->
    <g transform="translate(210.465849 362.534454)scale(0.1 -0.1)">
     <use xlink:href="#DejaVuSans-35"/>
     <use xlink:href="#DejaVuSans-30" x="63.623047"/>
    </g>
   </g>
  </g>
 </g>
 <defs>
  <clipPath id="pf8a154afe8">
   <rect x="75.69" y="46.8288" width="469.278" height="300.4848"/>
  </clipPath>
 </defs>
</svg>
