<svg xmlns="http://www.w3.org/2000/svg" xmlns:xlink="http://www.w3.org/1999/xlink" xmlns:lucid="lucid" width="1754" height="1300"><g transform="translate(-80 -20)" lucid:page-tab-id="0_0"><path d="M401.5 80.75c.4 0 .75.34.75.75v1197c0 .4-.34.75-.75.75-.4 0-.75-.34-.75-.75V81.5c0-.4.34-.75.75-.75z" stroke="#5e5e5e" stroke-width="1.5" fill="none"/><path d="M100 107.42c0-3.32 2.7-6 6-6h148c3.3 0 6 2.68 6 6V1294c0 3.3-2.7 6-6 6H106c-3.3 0-6-2.7-6-6z" stroke="#5e5e5e" stroke-width="3" fill="#fff"/><use xlink:href="#a" transform="matrix(1,0,0,1,100,101.41732283464557) translate(19.431234567901257 609.3878472222223)"/><path d="M380 126c0-3.3 2.7-6 6-6h28c3.3 0 6 2.7 6 6v968c0 3.3-2.7 6-6 6h-28c-3.3 0-6-2.7-6-6zM380 1146c0-3.3 2.7-6 6-6h28c3.3 0 6 2.7 6 6v108c0 3.3-2.7 6-6 6h-28c-3.3 0-6-2.7-6-6z" stroke="#5e5e5e" stroke-width="3" fill="#fff"/><path d="M260.75 81.5c0-.4.34-.75.75-.75h277c.4 0 .75.34.75.75 0 .4-.34.75-.75.75h-277c-.4 0-.75-.34-.75-.75z" stroke="#5e5e5e" stroke-width="1.5" fill="none"/><path d="M280 46c0-3.3 2.7-6 6-6h228c3.3 0 6 2.7 6 6v28c0 3.3-2.7 6-6 6H286c-3.3 0-6-2.7-6-6z" stroke="#000" stroke-opacity="0" stroke-width="3" fill="#fff" fill-opacity="0"/><use xlink:href="#b" transform="matrix(1,0,0,1,285,45) translate(-23.962962962962905 28.444444444444436)"/><path d="M720 80.75c.4 0 .75.34.75.75v1197c0 .4-.34.75-.75.75-.4 0-.75-.34-.75-.75V81.5c0-.4.34-.75.75-.75z" stroke="#5e5e5e" stroke-width="1.5" fill="none"/><path d="M698.5 946c0-3.3 2.7-6 6-6h28c3.3 0 6 2.7 6 6v108c0 3.3-2.7 6-6 6h-28c-3.3 0-6-2.7-6-6z" stroke="#5e5e5e" stroke-width="3" fill="#dfe3e8"/><path d="M589.25 81.5c0-.4.34-.75.75-.75h267c.4 0 .75.34.75.75 0 .4-.34.75-.75.75H590c-.4 0-.75-.34-.75-.75z" stroke="#5e5e5e" stroke-width="1.5" fill="none"/><path d="M598.5 46c0-3.3 2.7-6 6-6h228c3.3 0 6 2.7 6 6v28c0 3.3-2.7 6-6 6h-228c-3.3 0-6-2.7-6-6z" stroke="#000" stroke-opacity="0" stroke-width="3" fill="#fff" fill-opacity="0"/><use xlink:href="#c" transform="matrix(1,0,0,1,603.5,45) translate(2.0617283950617633 28.444444444444436)"/><use xlink:href="#d" transform="matrix(1,0,0,1,603.5,45) translate(208.18518518518516 28.444444444444436)"/><path d="M698.5 166c0-3.3 2.7-6 6-6h28c3.3 0 6 2.7 6 6v88c0 3.3-2.7 6-6 6h-28c-3.3 0-6-2.7-6-6z" stroke="#5e5e5e" stroke-width="3" fill="#dfe3e8"/><path d="M696 1048.55H440" stroke="#5e5e5e" stroke-width="2" fill="none"/><path d="M697 1049.55h-1.03v-2H697z" stroke="#5e5e5e" stroke-width=".05" fill="#5e5e5e"/><path d="M424.74 1048.55l14.26-4.64v9.28z" stroke="#5e5e5e" stroke-width="2" fill="#5e5e5e"/><path d="M700 346.55c0-3.32 2.7-6 6-6h28c3.3 0 6 2.68 6 6v88c0 3.3-2.7 6-6 6h-28c-3.3 0-6-2.7-6-6zM698.5 766c0-3.3 2.7-6 6-6h28c3.3 0 6 2.7 6 6v88c0 3.3-2.7 6-6 6h-28c-3.3 0-6-2.7-6-6z" stroke="#5e5e5e" stroke-width="3" fill="#dfe3e8"/><path d="M262.5 125.65h97.54" stroke="#5e5e5e" stroke-width="2" fill="none"/><path d="M262.53 126.65h-1.03v-2h1.03z" stroke="#5e5e5e" stroke-width=".05" fill="#5e5e5e"/><path d="M375.3 125.65l-14.26 4.63V121z" stroke="#5e5e5e" stroke-width="2" fill="#5e5e5e"/><use xlink:href="#e" transform="matrix(1,0,0,1,267.6443407611308,134.2815502402798) translate(0 17.77777777777778)"/><path d="M377.5 1085.63H280" stroke="#5e5e5e" stroke-width="2" fill="none"/><path d="M378.5 1086.63h-1.03v-2h1.03z" stroke="#5e5e5e" stroke-width=".05" fill="#5e5e5e"/><path d="M264.74 1085.63L279 1081v9.27z" stroke="#5e5e5e" stroke-width="2" fill="#5e5e5e"/><path d="M262.5 1156.96H360" stroke="#5e5e5e" stroke-width="2" fill="none"/><path d="M262.53 1157.96h-1.03v-2h1.03z" stroke="#5e5e5e" stroke-width=".05" fill="#5e5e5e"/><path d="M375.26 1156.96L361 1161.6v-9.28z" stroke="#5e5e5e" stroke-width="2" fill="#5e5e5e"/><path d="M377.5 1239.7H280" stroke="#5e5e5e" stroke-width="2" fill="none"/><path d="M378.5 1240.7h-1.03v-2h1.03z" stroke="#5e5e5e" stroke-width=".05" fill="#5e5e5e"/><path d="M264.74 1239.7l14.26-4.65v9.27z" stroke="#5e5e5e" stroke-width="2" fill="#5e5e5e"/><path d="M422.5 165.6h256.06" stroke="#5e5e5e" stroke-width="2" fill="none"/><path d="M422.53 166.6h-1.03v-2h1.03z" stroke="#5e5e5e" stroke-width=".05" fill="#5e5e5e"/><path d="M693.82 165.6l-14.26 4.62v-9.27z" stroke="#5e5e5e" stroke-width="2" fill="#5e5e5e"/><use xlink:href="#f" transform="matrix(1,0,0,1,435.9579994519177,119.61779602857717) translate(0 24.888888888888886)"/><use xlink:href="#g" transform="matrix(1,0,0,1,435.9579994519177,119.61779602857717) translate(164.02469135802465 24.888888888888886)"/><path d="M422.5 1162.46h575.4" stroke="#5e5e5e" stroke-width="2" fill="none"/><path d="M422.53 1163.46h-1.03v-2h1.03z" stroke="#5e5e5e" stroke-width=".05" fill="#5e5e5e"/><path d="M1013.17 1162.46l-14.27 4.63v-9.28z" stroke="#5e5e5e" stroke-width="2" fill="#5e5e5e"/><use xlink:href="#f" transform="matrix(1,0,0,1,448.5567377535148,1121.1252945043746) translate(0 24.888888888888886)"/><use xlink:href="#g" transform="matrix(1,0,0,1,448.5567377535148,1121.1252945043746) translate(164.02469135802465 24.888888888888886)"/><path d="M1038.5 80.75c.4 0 .75.34.75.75v1197c0 .4-.34.75-.75.75-.4 0-.75-.34-.75-.75V81.5c0-.4.34-.75.75-.75z" stroke="#5e5e5e" stroke-width="1.5" fill="none"/><path d="M1017 1166c0-3.3 2.7-6 6-6h28c3.3 0 6 2.7 6 6v68c0 3.3-2.7 6-6 6h-28c-3.3 0-6-2.7-6-6z" stroke="#5e5e5e" stroke-width="3" fill="#ffd6f5"/><path d="M907.75 81.5c0-.4.34-.75.75-.75h267c.4 0 .75.34.75.75 0 .4-.34.75-.75.75h-267c-.4 0-.75-.34-.75-.75z" stroke="#5e5e5e" stroke-width="1.5" fill="none"/><path d="M917 46c0-3.3 2.7-6 6-6h228c3.3 0 6 2.7 6 6v28c0 3.3-2.7 6-6 6H923c-3.3 0-6-2.7-6-6z" stroke="#000" stroke-opacity="0" stroke-width="3" fill="#fff" fill-opacity="0"/><use xlink:href="#c" transform="matrix(1,0,0,1,922,45) translate(2.0617283950617633 28.444444444444436)"/><use xlink:href="#h" transform="matrix(1,0,0,1,922,45) translate(208.18518518518516 28.444444444444436)"/><path d="M1017 258.22c0-3.3 2.7-6 6-6h28c3.3 0 6 2.7 6 6v88c0 3.3-2.7 6-6 6h-28c-3.3 0-6-2.7-6-6zM1017 686c0-3.3 2.7-6 6-6h28c3.3 0 6 2.7 6 6v88c0 3.3-2.7 6-6 6h-28c-3.3 0-6-2.7-6-6z" stroke="#5e5e5e" stroke-width="3" fill="#fcfcca"/><path d="M740.02 257.8H997.05" stroke="#5e5e5e" stroke-width="2" fill="none"/><path d="M740.05 258.8h-2.03l1-1 .27-1h.75z" stroke="#5e5e5e" stroke-width=".05" fill="#5e5e5e"/><path d="M1012.32 257.8l-14.26 4.64v-9.27z" stroke="#5e5e5e" stroke-width="2" fill="#5e5e5e"/><use xlink:href="#f" transform="matrix(1,0,0,1,753.970165850815,211.83753829680728) translate(0 24.888888888888886)"/><use xlink:href="#g" transform="matrix(1,0,0,1,753.970165850815,211.83753829680728) translate(164.02469135802465 24.888888888888886)"/><path d="M1357 82.17c.4 0 .75.33.75.75v1197c0 .4-.34.75-.75.75-.4 0-.75-.34-.75-.75v-1197c0-.42.34-.75.75-.75z" stroke="#5e5e5e" stroke-width="1.5" fill="none"/><path d="M1335.5 846c0-3.3 2.7-6 6-6h28c3.3 0 6 2.7 6 6v108c0 3.3-2.7 6-6 6h-28c-3.3 0-6-2.7-6-6z" stroke="#5e5e5e" stroke-width="3" fill="#cfe4ff"/><path d="M1226.25 82.92c0-.42.34-.75.75-.75h267c.4 0 .75.33.75.75 0 .4-.34.75-.75.75h-267c-.4 0-.75-.34-.75-.75z" stroke="#5e5e5e" stroke-width="1.5" fill="none"/><path d="M1235.5 47.42c0-3.32 2.7-6 6-6h228c3.3 0 6 2.68 6 6v28c0 3.3-2.7 6-6 6h-228c-3.3 0-6-2.7-6-6z" stroke="#000" stroke-opacity="0" stroke-width="3" fill="#fff" fill-opacity="0"/><use xlink:href="#c" transform="matrix(1,0,0,1,1240.4999999999995,46.417322834645574) translate(2.0617283950617633 28.444444444444436)"/><use xlink:href="#i" transform="matrix(1,0,0,1,1240.4999999999995,46.417322834645574) translate(208.18518518518516 28.444444444444436)"/><path d="M1335.5 426.5c0-3.3 2.7-6 6-6h28c3.3 0 6 2.7 6 6v88c0 3.32-2.7 6-6 6h-28c-3.3 0-6-2.68-6-6zM1335.5 606c0-3.3 2.7-6 6-6h28c3.3 0 6 2.7 6 6v88c0 3.3-2.7 6-6 6h-28c-3.3 0-6-2.7-6-6z" stroke="#5e5e5e" stroke-width="3" fill="#e3fae3"/><path d="M742.28 435.55h573.22" stroke="#5e5e5e" stroke-width="2" fill="none"/><path d="M742.3 436.55H741l.5-1.8v-.2h.8z" stroke="#5e5e5e" stroke-width=".05" fill="#5e5e5e"/><path d="M1330.76 435.55l-14.26 4.63v-9.27z" stroke="#5e5e5e" stroke-width="2" fill="#5e5e5e"/><use xlink:href="#f" transform="matrix(1,0,0,1,1049.233524088607,394.21578835565225) translate(0 24.888888888888886)"/><use xlink:href="#g" transform="matrix(1,0,0,1,1049.233524088607,394.21578835565225) translate(164.02469135802465 24.888888888888886)"/><path d="M1675.5 82.17c.4 0 .75.33.75.75v1197c0 .4-.34.75-.75.75-.4 0-.75-.34-.75-.75v-1197c0-.42.34-.75.75-.75z" stroke="#5e5e5e" stroke-width="1.5" fill="none"/><path d="M1544.75 82.92c0-.42.34-.75.75-.75h267c.4 0 .75.33.75.75 0 .4-.34.75-.75.75h-267c-.4 0-.75-.34-.75-.75z" stroke="#5e5e5e" stroke-width="1.5" fill="none"/><path d="M1554 47.42c0-3.32 2.7-6 6-6h228c3.3 0 6 2.68 6 6v28c0 3.3-2.7 6-6 6h-228c-3.3 0-6-2.7-6-6z" stroke="#000" stroke-opacity="0" stroke-width="3" fill="#fff" fill-opacity="0"/><use xlink:href="#c" transform="matrix(1,0,0,1,1558.9999999999993,46.417322834645574) translate(2.0617283950617633 28.444444444444436)"/><use xlink:href="#j" transform="matrix(1,0,0,1,1558.9999999999993,46.417322834645574) translate(208.18518518518516 28.444444444444436)"/><path d="M1654 518.57c0-3.3 2.7-6 6-6h28c3.3 0 6 2.7 6 6v88c0 3.32-2.7 6-6 6h-28c-3.3 0-6-2.68-6-6z" stroke="#5e5e5e" stroke-width="3" fill="#fc9432"/><path d="M1377.98 514.77h257" stroke="#5e5e5e" stroke-width="2" fill="none"/><path d="M1378 515.77h-1.3l.3-1.06v-.93h1z" stroke="#5e5e5e" stroke-width=".05" fill="#5e5e5e"/><path d="M1650.24 514.77l-14.27 4.63v-9.27z" stroke="#5e5e5e" stroke-width="2" fill="#5e5e5e"/><use xlink:href="#f" transform="matrix(1,0,0,1,1391.9091489570583,468.7966548843406) translate(0 24.888888888888886)"/><use xlink:href="#g" transform="matrix(1,0,0,1,1391.9091489570583,468.7966548843406) translate(164.02469135802465 24.888888888888886)"/><path d="M1015.18 348.93H760" stroke="#5e5e5e" stroke-width="2" fill="none"/><path d="M1016.45 349.93h-1.3v-2h.76z" stroke="#5e5e5e" stroke-width=".05" fill="#5e5e5e"/><path d="M744.74 348.93L759 344.3v9.27z" stroke="#5e5e5e" stroke-width="2" fill="#5e5e5e"/><path d="M1651.5 606.76h-256" stroke="#5e5e5e" stroke-width="2" fill="none"/><path d="M1652.5 606.77l.27 1h-1.3v-2h1.03z" stroke="#5e5e5e" stroke-width=".05" fill="#5e5e5e"/><path d="M1380.24 606.76l14.26-4.64v9.27z" stroke="#5e5e5e" stroke-width="2" fill="#5e5e5e"/><path d="M1333 694.2h-256" stroke="#5e5e5e" stroke-width="2" fill="none"/><path d="M1334 694.2l.27 1h-1.3v-2h1.03z" stroke="#5e5e5e" stroke-width=".05" fill="#5e5e5e"/><path d="M1061.74 694.2l14.26-4.64v9.27z" stroke="#5e5e5e" stroke-width="2" fill="#5e5e5e"/><path d="M1014.5 772.4h-256" stroke="#5e5e5e" stroke-width="2" fill="none"/><path d="M1015.5 773.4h-1.03v-2h1.03z" stroke="#5e5e5e" stroke-width=".05" fill="#5e5e5e"/><path d="M743.24 772.4l14.26-4.63v9.27z" stroke="#5e5e5e" stroke-width="2" fill="#5e5e5e"/><path d="M1015.18 1236.72H440" stroke="#5e5e5e" stroke-width="2" fill="none"/><path d="M1016.45 1237.72h-1.3v-2h.76z" stroke="#5e5e5e" stroke-width=".05" fill="#5e5e5e"/><path d="M424.74 1236.72l14.26-4.63v9.26z" stroke="#5e5e5e" stroke-width="2" fill="#5e5e5e"/><path d="M740.8 854.95h574.7" stroke="#5e5e5e" stroke-width="2" fill="none"/><path d="M740.82 855.95h-1.3l.48-1.75v-.25h.82z" stroke="#5e5e5e" stroke-width=".05" fill="#5e5e5e"/><path d="M1330.76 854.95l-14.26 4.63v-9.27z" stroke="#5e5e5e" stroke-width="2" fill="#5e5e5e"/><g><use xlink:href="#f" transform="matrix(1,0,0,1,1058.5223403721395,813.6128323500623) translate(0 24.888888888888886)"/><use xlink:href="#g" transform="matrix(1,0,0,1,1058.5223403721395,813.6128323500623) translate(164.02469135802465 24.888888888888886)"/></g><path d="M1333 950.44H758.5" stroke="#5e5e5e" stroke-width="2" fill="none"/><path d="M1334 951.44h-1.03v-2h1.03z" stroke="#5e5e5e" stroke-width=".05" fill="#5e5e5e"/><path d="M743.24 950.44l14.26-4.63v9.28z" stroke="#5e5e5e" stroke-width="2" fill="#5e5e5e"/><path d="M439.25 1166c0-3.3 2.7-6 6-6h228c3.3 0 6 2.7 6 6v48c0 3.3-2.7 6-6 6h-228c-3.3 0-6-2.7-6-6z" stroke="#000" stroke-opacity="0" stroke-width="3" fill="#fff" fill-opacity="0"/><g><use xlink:href="#k" transform="matrix(1,0,0,1,444.25,1165) translate(71.93827160493828 31.569444444444436)"/></g><path d="M439.25 166c0-3.3 2.7-6 6-6h228c3.3 0 6 2.7 6 6v48c0 3.3-2.7 6-6 6h-228c-3.3 0-6-2.7-6-6z" stroke="#000" stroke-opacity="0" stroke-width="3" fill="#fff" fill-opacity="0"/><g><use xlink:href="#k" transform="matrix(1,0,0,1,444.25,165) translate(71.93827160493828 31.569444444444436)"/></g><defs><path d="M160-131c35 5 61 23 61 61C221 17 115-2 30 0v-248c76 3 177-17 177 60 0 33-19 50-47 57zm-97-11c50-1 110 9 110-42 0-47-63-36-110-37v79zm0 115c55-2 124 14 124-45 0-56-70-42-124-44v89" id="l"/><path d="M30 0v-248h33v221h125V0H30" id="m"/><path d="M140-251c81 0 123 46 123 126C263-46 219 4 140 4 59 4 17-45 17-125s42-126 123-126zm0 227c63 0 89-41 89-101s-29-99-89-99c-61 0-89 39-89 99S79-25 140-24" id="n"/><path d="M212-179c-10-28-35-45-73-45-59 0-87 40-87 99 0 60 29 101 89 101 43 0 62-24 78-52l27 14C228-24 195 4 139 4 59 4 22-46 18-125c-6-104 99-153 187-111 19 9 31 26 39 46" id="o"/><path d="M194 0L95-120 63-95V0H30v-248h33v124l119-124h40L117-140 236 0h-42" id="p"/><g id="a"><use transform="matrix(0.09938271604938267,0,0,0.09938271604938267,0,0)" xlink:href="#l"/><use transform="matrix(0.09938271604938267,0,0,0.09938271604938267,23.85185185185184,0)" xlink:href="#m"/><use transform="matrix(0.09938271604938267,0,0,0.09938271604938267,43.72839506172838,0)" xlink:href="#n"/><use transform="matrix(0.09938271604938267,0,0,0.09938271604938267,71.55555555555553,0)" xlink:href="#o"/><use transform="matrix(0.09938271604938267,0,0,0.09938271604938267,97.29567901234564,0)" xlink:href="#p"/></g><path fill="#333" d="M127-220V0H93v-220H8v-28h204v28h-85" id="q"/><path fill="#333" d="M233-177c-1 41-23 64-60 70L243 0h-38l-65-103H63V0H30v-248c88 3 205-21 203 71zM63-129c60-2 137 13 137-47 0-61-80-42-137-45v92" id="r"/><path fill="#333" d="M205 0l-28-72H64L36 0H1l101-248h38L239 0h-34zm-38-99l-47-123c-12 45-31 82-46 123h93" id="s"/><path fill="#333" d="M190 0L58-211 59 0H30v-248h39L202-35l-2-213h31V0h-41" id="t"/><path fill="#333" d="M185-189c-5-48-123-54-124 2 14 75 158 14 163 119 3 78-121 87-175 55-17-10-28-26-33-46l33-7c5 56 141 63 141-1 0-78-155-14-162-118-5-82 145-84 179-34 5 7 8 16 11 25" id="u"/><path fill="#333" d="M212-179c-10-28-35-45-73-45-59 0-87 40-87 99 0 60 29 101 89 101 43 0 62-24 78-52l27 14C228-24 195 4 139 4 59 4 22-46 18-125c-6-104 99-153 187-111 19 9 31 26 39 46" id="v"/><path fill="#333" d="M33 0v-248h34V0H33" id="w"/><path fill="#333" d="M140-251c81 0 123 46 123 126C263-46 219 4 140 4 59 4 17-45 17-125s42-126 123-126zm0 227c63 0 89-41 89-101s-29-99-89-99c-61 0-89 39-89 99S79-25 140-24" id="x"/><g id="b"><use transform="matrix(0.0987654320987654,0,0,0.0987654320987654,0,0)" xlink:href="#q"/><use transform="matrix(0.0987654320987654,0,0,0.0987654320987654,21.629629629629623,0)" xlink:href="#r"/><use transform="matrix(0.0987654320987654,0,0,0.0987654320987654,47.20987654320986,0)" xlink:href="#s"/><use transform="matrix(0.0987654320987654,0,0,0.0987654320987654,70.91358024691355,0)" xlink:href="#t"/><use transform="matrix(0.0987654320987654,0,0,0.0987654320987654,96.4938271604938,0)" xlink:href="#u"/><use transform="matrix(0.0987654320987654,0,0,0.0987654320987654,120.19753086419749,0)" xlink:href="#s"/><use transform="matrix(0.0987654320987654,0,0,0.0987654320987654,143.90123456790118,0)" xlink:href="#v"/><use transform="matrix(0.0987654320987654,0,0,0.0987654320987654,169.4814814814814,0)" xlink:href="#q"/><use transform="matrix(0.0987654320987654,0,0,0.0987654320987654,191.11111111111103,0)" xlink:href="#w"/><use transform="matrix(0.0987654320987654,0,0,0.0987654320987654,200.98765432098756,0)" xlink:href="#x"/><use transform="matrix(0.0987654320987654,0,0,0.0987654320987654,228.64197530864186,0)" xlink:href="#t"/><use transform="matrix(0.0987654320987654,0,0,0.0987654320987654,254.22222222222214,0)" xlink:href="#u"/></g><g id="c"><use transform="matrix(0.0987654320987654,0,0,0.0987654320987654,0,0)" xlink:href="#v"/><use transform="matrix(0.0987654320987654,0,0,0.0987654320987654,25.58024691358024,0)" xlink:href="#x"/><use transform="matrix(0.0987654320987654,0,0,0.0987654320987654,53.23456790123456,0)" xlink:href="#t"/><use transform="matrix(0.0987654320987654,0,0,0.0987654320987654,78.8148148148148,0)" xlink:href="#q"/><use transform="matrix(0.0987654320987654,0,0,0.0987654320987654,100.44444444444441,0)" xlink:href="#r"/><use transform="matrix(0.0987654320987654,0,0,0.0987654320987654,126.02469135802465,0)" xlink:href="#s"/><use transform="matrix(0.0987654320987654,0,0,0.0987654320987654,149.72839506172835,0)" xlink:href="#v"/><use transform="matrix(0.0987654320987654,0,0,0.0987654320987654,175.3086419753086,0)" xlink:href="#q"/></g><path fill="#333" d="M27 0v-27h64v-190l-56 39v-29l58-41h29v221h61V0H27" id="y"/><use transform="matrix(0.0987654320987654,0,0,0.0987654320987654,0,0)" xlink:href="#y" id="d"/><path fill="#333" d="M24 0v-248h195v40H76v63h132v40H76v65h150V0H24" id="z"/><path fill="#333" d="M182 0l-62-99L58 0H3l86-130-79-118h55l55 88 55-88h55l-75 118L237 0h-55" id="A"/><path fill="#333" d="M67-125c0 53 21 87 73 88 37 1 54-22 65-47l45 17C233-25 199 4 140 4 58 4 20-42 15-125 8-235 124-281 211-232c18 10 29 29 36 50l-46 12c-8-25-30-41-62-41-52 0-71 34-72 86" id="B"/><path fill="#333" d="M238-95c0 69-44 99-111 99C63 4 22-25 22-93v-155h51v151c-1 38 19 59 55 60 90 1 49-130 58-211h52v153" id="C"/><path fill="#333" d="M136-208V0H84v-208H4v-40h212v40h-80" id="D"/><g id="e"><use transform="matrix(0.06172839506172839,0,0,0.06172839506172839,0,0)" xlink:href="#z"/><use transform="matrix(0.06172839506172839,0,0,0.06172839506172839,14.814814814814813,0)" xlink:href="#A"/><use transform="matrix(0.06172839506172839,0,0,0.06172839506172839,29.629629629629626,0)" xlink:href="#z"/><use transform="matrix(0.06172839506172839,0,0,0.06172839506172839,44.44444444444444,0)" xlink:href="#B"/><use transform="matrix(0.06172839506172839,0,0,0.06172839506172839,60.432098765432094,0)" xlink:href="#C"/><use transform="matrix(0.06172839506172839,0,0,0.06172839506172839,76.41975308641975,0)" xlink:href="#D"/><use transform="matrix(0.06172839506172839,0,0,0.06172839506172839,89.93827160493827,0)" xlink:href="#z"/></g><path fill="#333" d="M230 0l2-204L168 0h-37L68-204 70 0H24v-248h70l56 185 57-185h69V0h-46" id="E"/><path fill="#333" d="M169-182c-1-43-94-46-97-3 18 66 151 10 154 114 3 95-165 93-204 36-6-8-10-19-12-30l50-8c3 46 112 56 116 5-17-69-150-10-154-114-4-87 153-88 188-35 5 8 8 18 10 28" id="F"/><path fill="#333" d="M199 0l-22-63H83L61 0H9l90-248h61L250 0h-51zm-33-102l-36-108c-10 38-24 72-36 108h72" id="G"/><path fill="#333" d="M67-125c0 54 23 88 75 88 28 0 53-7 68-21v-34h-60v-39h108v91C232-14 192 4 140 4 58 4 20-42 15-125 8-236 126-280 215-234c19 10 29 26 37 47l-47 15c-11-23-29-39-63-39-53 1-75 33-75 86" id="H"/><g id="f"><use transform="matrix(0.08641975308641973,0,0,0.08641975308641973,0,0)" xlink:href="#E"/><use transform="matrix(0.08641975308641973,0,0,0.08641975308641973,25.8395061728395,0)" xlink:href="#z"/><use transform="matrix(0.08641975308641973,0,0,0.08641975308641973,46.58024691358024,0)" xlink:href="#F"/><use transform="matrix(0.08641975308641973,0,0,0.08641975308641973,67.32098765432097,0)" xlink:href="#F"/><use transform="matrix(0.08641975308641973,0,0,0.08641975308641973,88.0617283950617,0)" xlink:href="#G"/><use transform="matrix(0.08641975308641973,0,0,0.08641975308641973,110.44444444444441,0)" xlink:href="#H"/><use transform="matrix(0.08641975308641973,0,0,0.08641975308641973,134.64197530864195,0)" xlink:href="#z"/></g><path fill="#333" d="M24 0v-248h52v208h133V0H24" id="I"/><g id="g"><use transform="matrix(0.08641975308641973,0,0,0.08641975308641973,0,0)" xlink:href="#B"/><use transform="matrix(0.08641975308641973,0,0,0.08641975308641973,22.38271604938271,0)" xlink:href="#G"/><use transform="matrix(0.08641975308641973,0,0,0.08641975308641973,44.76543209876542,0)" xlink:href="#I"/><use transform="matrix(0.08641975308641973,0,0,0.08641975308641973,63.69135802469135,0)" xlink:href="#I"/></g><path fill="#333" d="M101-251c82-7 93 87 43 132L82-64C71-53 59-42 53-27h129V0H18c2-99 128-94 128-182 0-28-16-43-45-43s-46 15-49 41l-32-3c6-41 34-60 81-64" id="J"/><use transform="matrix(0.0987654320987654,0,0,0.0987654320987654,0,0)" xlink:href="#J" id="h"/><path fill="#333" d="M126-127c33 6 58 20 58 59 0 88-139 92-164 29-3-8-5-16-6-25l32-3c6 27 21 44 54 44 32 0 52-15 52-46 0-38-36-46-79-43v-28c39 1 72-4 72-42 0-27-17-43-46-43-28 0-47 15-49 41l-32-3c6-42 35-63 81-64 48-1 79 21 79 65 0 36-21 52-52 59" id="K"/><use transform="matrix(0.0987654320987654,0,0,0.0987654320987654,0,0)" xlink:href="#K" id="i"/><path fill="#333" d="M155-56V0h-30v-56H8v-25l114-167h33v167h35v25h-35zm-30-156c-27 46-58 90-88 131h88v-131" id="L"/><use transform="matrix(0.0987654320987654,0,0,0.0987654320987654,0,0)" xlink:href="#L" id="j"/><path fill="#333" d="M59-47c-2 24 18 29 38 22v24C64 9 27 4 27-40v-127H5v-23h24l9-43h21v43h35v23H59v120" id="M"/><path fill="#333" d="M141 0L90-78 38 0H4l68-98-65-92h35l48 74 47-74h35l-64 92 68 98h-35" id="N"/><path fill="#333" d="M33 0v-38h34V0H33" id="O"/><g id="k"><use transform="matrix(0.0987654320987654,0,0,0.0987654320987654,0,0)" xlink:href="#M"/><use transform="matrix(0.0987654320987654,0,0,0.0987654320987654,9.876543209876539,0)" xlink:href="#N"/><use transform="matrix(0.0987654320987654,0,0,0.0987654320987654,27.654320987654305,0)" xlink:href="#O"/><use transform="matrix(0.0987654320987654,0,0,0.0987654320987654,37.530864197530846,0)" xlink:href="#q"/><use transform="matrix(0.0987654320987654,0,0,0.0987654320987654,58.46913580246912,0)" xlink:href="#x"/></g></defs></g></svg>