<?xml version="1.0" encoding="UTF-8" standalone="no"?>
<svg
   xmlns:lucid="lucid"
   xmlns:dc="http://purl.org/dc/elements/1.1/"
   xmlns:cc="http://creativecommons.org/ns#"
   xmlns:rdf="http://www.w3.org/1999/02/22-rdf-syntax-ns#"
   xmlns:svg="http://www.w3.org/2000/svg"
   xmlns="http://www.w3.org/2000/svg"
   xmlns:xlink="http://www.w3.org/1999/xlink"
   xmlns:sodipodi="http://sodipodi.sourceforge.net/DTD/sodipodi-0.dtd"
   xmlns:inkscape="http://www.inkscape.org/namespaces/inkscape"
   width="1320"
   height="380"
   version="1.1"
   id="svg177"
   sodipodi:docname="NORA.svg"
   inkscape:version="0.92.5 (2060ec1f9f, 2020-04-08)">
  <metadata
     id="metadata183">
    <rdf:RDF>
      <cc:Work
         rdf:about="">
        <dc:format>image/svg+xml</dc:format>
        <dc:type
           rdf:resource="http://purl.org/dc/dcmitype/StillImage" />
      </cc:Work>
    </rdf:RDF>
  </metadata>
  <defs
     id="defs181" />
  <sodipodi:namedview
     pagecolor="#ffffff"
     bordercolor="#666666"
     borderopacity="1"
     objecttolerance="10"
     gridtolerance="10"
     guidetolerance="10"
     inkscape:pageopacity="0"
     inkscape:pageshadow="2"
     inkscape:window-width="3840"
     inkscape:window-height="2092"
     id="namedview179"
     showgrid="false"
     inkscape:zoom="1.1666667"
     inkscape:cx="695.66681"
     inkscape:cy="227.08615"
     inkscape:window-x="0"
     inkscape:window-y="0"
     inkscape:window-maximized="1"
     inkscape:current-layer="g175" />
  <g
     transform="translate(-80 -480)"
     lucid:page-tab-id="0_0"
     id="g175">
    <path
       d="M420.5 500.25c.14 0 .25.1.25.25v339c0 .14-.1.25-.25.25-.14 0-.25-.1-.25-.25v-339c0-.14.1-.25.25-.25zM740.5 500.25c.14 0 .25.1.25.25v339c0 .14-.1.25-.25.25-.14 0-.25-.1-.25-.25v-339c0-.14.1-.25.25-.25z"
       stroke="#3a414a"
       stroke-width=".5"
       fill="none"
       id="path4" />
    <path
       d="M219 520h180v260H219z"
       stroke="#3a414a"
       fill="#fff"
       id="path6" />
    <use
       xlink:href="#a"
       transform="matrix(1,0,0,1,230.99999999999955,532) translate(15.148148148148138 124.58333333333334)"
       id="use8" />
    <path
       d="M137.2 720.5h-17.7v-1h17.7zm64.92 0h-42.8v-1h42.8z"
       stroke="#3a414a"
       stroke-width=".05"
       fill="#3a414a"
       id="path10" />
    <path
       d="M119.5 720.5h-.5v-1h.5z"
       stroke="#3a414a"
       stroke-width=".05"
       fill="#3a414a"
       id="path12" />
    <path
       d="M216.88 720l-14.26 4.64v-9.28z"
       fill="#3a414a"
       id="path14" />
    <path
       d="M218.5 720l-16.38 5.32v-10.64zm-15.38 3.95l12.14-3.95-12.14-3.95z"
       stroke="#3a414a"
       stroke-width=".05"
       fill="#3a414a"
       id="path16" />
    <use
       xlink:href="#b"
       transform="matrix(1,0,0,1,137.18514606160744,704) translate(0 21.333333333333336)"
       id="use18" />
    <path
       d="M219 740h180v40H219z"
       stroke="#3a414a"
       fill="#fff"
       id="path20" />
    <use
       xlink:href="#c"
       transform="matrix(1,0,0,1,218.99999999999955,739.9999999999998) translate(53.03703703703704 29.238133333333337)"
       id="use22" />
    <path
       d="M219 784c0-3.3 2.7-6 6-6h168c3.3 0 6 2.7 6 6v30c0 3.3-2.7 6-6 6H225c-3.3 0-6-2.7-6-6z"
       stroke="#000"
       stroke-opacity="0"
       fill="#fff"
       fill-opacity="0"
       id="path24" />
    <use
       xlink:href="#d"
       transform="matrix(1,0,0,1,223.99999999999955,783) translate(62.77777777777777 30.037333333333336)"
       id="use26" />
    <path
       d="M540 520h180v260H540z"
       stroke="#3a414a"
       fill="#fff"
       id="path28" />
    <use
       xlink:href="#a"
       transform="matrix(1,0,0,1,551.9999999999994,532) translate(15.148148148148138 124.58333333333334)"
       id="use30" />
    <path
       d="M457.48 600.5H439.5v-1h17.98zm65.64 0h-43.5v-1h43.5zM439.5 600.5h-.5v-1h.5z"
       stroke="#3a414a"
       stroke-width=".05"
       fill="#3a414a"
       id="path32" />
    <path
       d="M537.88 600l-14.26 4.64v-9.28z"
       fill="#3a414a"
       id="path34" />
    <path
       d="M539.5 600l-16.38 5.32v-10.64zm-15.38 3.95l12.14-3.95-12.14-3.95z"
       stroke="#3a414a"
       stroke-width=".05"
       fill="#3a414a"
       id="path36" />
    <use
       xlink:href="#b"
       transform="matrix(1,0,0,1,457.47920857553447,584) translate(0 21.333333333333336)"
       id="use38" />
    <path
       d="M540 740h180v40H540z"
       stroke="#3a414a"
       fill="#fff"
       id="path40" />
    <use
       xlink:href="#c"
       transform="matrix(1,0,0,1,539.9999999999994,740.0000000000002) translate(53.03703703703704 29.333333333333336)"
       id="use42" />
    <path
       d="M540 784c0-3.3 2.7-6 6-6h168c3.3 0 6 2.7 6 6v30c0 3.3-2.7 6-6 6H546c-3.3 0-6-2.7-6-6z"
       stroke="#000"
       stroke-opacity="0"
       fill="#fff"
       fill-opacity="0"
       id="path44" />
    <use
       xlink:href="#d"
       transform="matrix(1,0,0,1,544.9999999999994,783) translate(62.77777777777777 30.037333333333336)"
       id="use46" />
    <path
       d="M861 520h180v260H861z"
       stroke="#3a414a"
       fill="#fff"
       id="path48" />
    <use
       xlink:href="#a"
       transform="matrix(1,0,0,1,872.9999999999977,532) translate(15.148148148148138 124.58333333333334)"
       id="use50" />
    <path
       d="M778.48 760.5H760.5v-1h17.98zm65.64 0h-43.5v-1h43.5zM760.5 760.5h-.5v-1h.5z"
       stroke="#3a414a"
       stroke-width=".05"
       fill="#3a414a"
       id="path52" />
    <path
       d="M858.88 760l-14.26 4.64v-9.28z"
       fill="#3a414a"
       id="path54" />
    <path
       d="M860.5 760l-16.38 5.32v-10.64zm-15.38 3.95l12.14-3.95-12.14-3.95z"
       stroke="#3a414a"
       stroke-width=".05"
       fill="#3a414a"
       id="path56" />
    <use
       xlink:href="#b"
       transform="matrix(1,0,0,1,778.4792085755337,744) translate(0 21.333333333333336)"
       id="use58" />
    <path
       d="M861 740h180v40H861z"
       stroke="#3a414a"
       fill="#fff"
       id="path60" />
    <use
       xlink:href="#c"
       transform="matrix(1,0,0,1,860.9999999999977,740.0000000000002) translate(53.03703703703704 29.333333333333336)"
       id="use62" />
    <path
       d="M861 784c0-3.3 2.7-6 6-6h168c3.3 0 6 2.7 6 6v30c0 3.3-2.7 6-6 6H867c-3.3 0-6-2.7-6-6z"
       stroke="#000"
       stroke-opacity="0"
       fill="#fff"
       fill-opacity="0"
       id="path64" />
    <use
       xlink:href="#e"
       transform="matrix(1,0,0,1,865.9999999999977,783) translate(63.77777777777777 30.037333333333336)"
       id="use66" />
    <path
       d="M1060.5 500.25c.14 0 .25.1.25.25v339c0 .14-.1.25-.25.25-.14 0-.25-.1-.25-.25v-339c0-.14.1-.25.25-.25z"
       stroke="#3a414a"
       stroke-width=".5"
       fill="none"
       id="path68" />
    <path
       d="M1181 520h180v260h-180z"
       stroke="#3a414a"
       fill="#fff"
       id="path70" />
    <use
       xlink:href="#f"
       transform="matrix(1,0,0,1,1192.9999999999977,532) translate(15.148148148148138 124.58333333333334)"
       id="use72" />
    <path
       d="M1098.48 720.5h-17.98v-1h17.98zm65.64 0h-43.5v-1h43.5zM1080.5 720.5h-.5v-1h.5z"
       stroke="#3a414a"
       stroke-width=".05"
       fill="#3a414a"
       id="path74" />
    <path
       d="M1178.88 720l-14.26 4.64v-9.28z"
       fill="#3a414a"
       id="path76" />
    <path
       d="M1180.5 720l-16.38 5.32v-10.64zm-15.38 3.95l12.14-3.95-12.14-3.95z"
       stroke="#3a414a"
       stroke-width=".05"
       fill="#3a414a"
       id="path78" />
    <use
       xlink:href="#g"
       transform="matrix(1,0,0,1,1098.4792085755337,704) translate(0 21.333333333333336)"
       id="use80" />
    <path
       d="M1181 740h180v40h-180z"
       stroke="#3a414a"
       fill="#fff"
       id="path82" />
    <use
       xlink:href="#h"
       transform="matrix(1,0,0,1,1180.9999999999977,740.0000000000002) translate(53.03703703703704 29.333333333333336)"
       id="use84" />
    <path
       d="M1181 784c0-3.3 2.7-6 6-6h168c3.3 0 6 2.7 6 6v30c0 3.3-2.7 6-6 6h-168c-3.3 0-6-2.7-6-6z"
       stroke="#000"
       stroke-opacity="0"
       fill="#fff"
       fill-opacity="0"
       id="path86" />
    <use
       xlink:href="#i"
       transform="matrix(1,0,0,1,1185.9999999999977,783) translate(63.77777777777777 30.037333333333336)"
       id="use88" />
    <defs
       id="defs173">
      <path
         fill="#3a414a"
         d="M30 0v-248h187v28H63v79h144v27H63v87h162V0H30"
         id="j" />
      <path
         fill="#3a414a"
         d="M195 0l-74-108L45 0H8l94-129-87-119h37l69 98 67-98h37l-84 118L233 0h-38"
         id="k" />
      <path
         fill="#3a414a"
         d="M212-179c-10-28-35-45-73-45-59 0-87 40-87 99 0 60 29 101 89 101 43 0 62-24 78-52l27 14C228-24 195 4 139 4 59 4 22-46 18-125c-6-104 99-153 187-111 19 9 31 26 39 46"
         id="l" />
      <path
         fill="#3a414a"
         d="M232-93c-1 65-40 97-104 97C67 4 28-28 28-90v-158h33c8 89-33 224 67 224 102 0 64-133 71-224h33v155"
         id="m" />
      <path
         fill="#3a414a"
         d="M127-220V0H93v-220H8v-28h204v28h-85"
         id="n" />
      <g
         id="a">
        <use
           transform="matrix(0.07407407407407408,0,0,0.07407407407407408,0,0)"
           xlink:href="#j"
           id="use95" />
        <use
           transform="matrix(0.07407407407407408,0,0,0.07407407407407408,17.77777777777778,0)"
           xlink:href="#k"
           id="use97" />
        <use
           transform="matrix(0.07407407407407408,0,0,0.07407407407407408,35.55555555555556,0)"
           xlink:href="#j"
           id="use99" />
        <use
           transform="matrix(0.07407407407407408,0,0,0.07407407407407408,53.33333333333333,0)"
           xlink:href="#l"
           id="use101" />
        <use
           transform="matrix(0.07407407407407408,0,0,0.07407407407407408,72.51851851851852,0)"
           xlink:href="#m"
           id="use103" />
        <use
           transform="matrix(0.07407407407407408,0,0,0.07407407407407408,91.70370370370371,0)"
           xlink:href="#n"
           id="use105" />
        <use
           transform="matrix(0.07407407407407408,0,0,0.07407407407407408,107.92592592592594,0)"
           xlink:href="#j"
           id="use107" />
      </g>
      <path
         fill="#333"
         d="M240 0l2-218c-23 76-54 145-80 218h-23L58-218 59 0H30v-248h44l77 211c21-75 51-140 76-211h43V0h-30"
         id="o" />
      <use
         transform="matrix(0.07407407407407408,0,0,0.07407407407407408,0,0)"
         xlink:href="#o"
         id="b" />
      <path
         fill="#3a414a"
         d="M233-177c-1 41-23 64-60 70L243 0h-38l-65-103H63V0H30v-248c88 3 205-21 203 71zM63-129c60-2 137 13 137-47 0-61-80-42-137-45v92"
         id="p" />
      <path
         fill="#3a414a"
         d="M205 0l-28-72H64L36 0H1l101-248h38L239 0h-34zm-38-99l-47-123c-12 45-31 82-46 123h93"
         id="q" />
      <path
         fill="#3a414a"
         d="M30-248c118-7 216 8 213 122C240-48 200 0 122 0H30v-248zM63-27c89 8 146-16 146-99s-60-101-146-95v194"
         id="r" />
      <g
         id="c">
        <use
           transform="matrix(0.07407407407407408,0,0,0.07407407407407408,0,0)"
           xlink:href="#p"
           id="use115" />
        <use
           transform="matrix(0.07407407407407408,0,0,0.07407407407407408,19.185185185185187,0)"
           xlink:href="#j"
           id="use117" />
        <use
           transform="matrix(0.07407407407407408,0,0,0.07407407407407408,36.96296296296296,0)"
           xlink:href="#q"
           id="use119" />
        <use
           transform="matrix(0.07407407407407408,0,0,0.07407407407407408,54.74074074074074,0)"
           xlink:href="#r"
           id="use121" />
      </g>
      <path
         fill="#3a414a"
         d="M158-156l-14 65h45v19h-49L124 0h-19l15-72H56L41 0H22l15-72H2v-19h39l14-65H11v-19h48l15-71h20l-16 71h64l16-71h19l-16 71h37v19h-40zm-83 0L61-91h63l14-65H75"
         id="s" />
      <path
         fill="#3a414a"
         d="M27 0v-27h64v-190l-56 39v-29l58-41h29v221h61V0H27"
         id="t" />
      <path
         fill="#3a414a"
         d="M101-251c68 0 85 55 85 127S166 4 100 4C33 4 14-52 14-124c0-73 17-127 87-127zm-1 229c47 0 54-49 54-102s-4-102-53-102c-51 0-55 48-55 102 0 53 5 102 54 102"
         id="u" />
      <g
         id="d">
        <use
           transform="matrix(0.07407407407407408,0,0,0.07407407407407408,0,0)"
           xlink:href="#s"
           id="use127" />
        <use
           transform="matrix(0.07407407407407408,0,0,0.07407407407407408,14.814814814814817,0)"
           xlink:href="#t"
           id="use129" />
        <use
           transform="matrix(0.07407407407407408,0,0,0.07407407407407408,29.629629629629633,0)"
           xlink:href="#u"
           id="use131" />
      </g>
      <g
         id="e">
        <use
           transform="matrix(0.07407407407407408,0,0,0.07407407407407408,0,0)"
           xlink:href="#s"
           id="use134" />
        <use
           transform="matrix(0.07407407407407408,0,0,0.07407407407407408,14.814814814814817,0)"
           xlink:href="#t"
           id="use136" />
        <use
           transform="matrix(0.07407407407407408,0,0,0.07407407407407408,27.629629629629633,0)"
           xlink:href="#t"
           id="use138" />
      </g>
      <g
         id="f">
        <use
           transform="matrix(0.07407407407407408,0,0,0.07407407407407408,0,0)"
           xlink:href="#j"
           id="use141" />
        <use
           transform="matrix(0.07407407407407408,0,0,0.07407407407407408,17.77777777777778,0)"
           xlink:href="#k"
           id="use143" />
        <use
           transform="matrix(0.07407407407407408,0,0,0.07407407407407408,35.55555555555556,0)"
           xlink:href="#j"
           id="use145" />
        <use
           transform="matrix(0.07407407407407408,0,0,0.07407407407407408,53.33333333333333,0)"
           xlink:href="#l"
           id="use147" />
        <use
           transform="matrix(0.07407407407407408,0,0,0.07407407407407408,72.51851851851852,0)"
           xlink:href="#m"
           id="use149" />
        <use
           transform="matrix(0.07407407407407408,0,0,0.07407407407407408,91.70370370370371,0)"
           xlink:href="#n"
           id="use151" />
        <use
           transform="matrix(0.07407407407407408,0,0,0.07407407407407408,107.92592592592594,0)"
           xlink:href="#j"
           id="use153" />
      </g>
      <use
         transform="matrix(0.07407407407407408,0,0,0.07407407407407408,0,0)"
         xlink:href="#o"
         id="g" />
      <g
         id="h">
        <use
           transform="matrix(0.07407407407407408,0,0,0.07407407407407408,0,0)"
           xlink:href="#p"
           id="use157" />
        <use
           transform="matrix(0.07407407407407408,0,0,0.07407407407407408,19.185185185185187,0)"
           xlink:href="#j"
           id="use159" />
        <use
           transform="matrix(0.07407407407407408,0,0,0.07407407407407408,36.96296296296296,0)"
           xlink:href="#q"
           id="use161" />
        <use
           transform="matrix(0.07407407407407408,0,0,0.07407407407407408,54.74074074074074,0)"
           xlink:href="#r"
           id="use163" />
      </g>
      <g
         id="i">
        <use
           transform="matrix(0.07407407407407408,0,0,0.07407407407407408,0,0)"
           xlink:href="#s"
           id="use166" />
        <use
           transform="matrix(0.07407407407407408,0,0,0.07407407407407408,14.814814814814817,0)"
           xlink:href="#t"
           id="use168" />
        <use
           transform="matrix(0.07407407407407408,0,0,0.07407407407407408,27.629629629629633,0)"
           xlink:href="#t"
           id="use170" />
      </g>
    </defs>
  </g>
</svg>
