<?xml version="1.0" encoding="UTF-8"?>
<!DOCTYPE svg PUBLIC "-//W3C//DTD SVG 1.1//EN" "http://www.w3.org/Graphics/SVG/1.1/DTD/svg11.dtd">
<svg width="393mm" height="221mm" viewBox="0 0 39300 22100" version="1.1" xmlns="http://www.w3.org/2000/svg" xmlns:xlink="http://www.w3.org/1999/xlink" stroke-width="28.222" stroke-linejoin="round" xml:space="preserve">
 <path fill="rgb(255,255,255)" stroke="none" d="M 19671,22129 L 0,22129 0,0 39342,0 39342,22129 19671,22129 Z"/>
 <path fill="none" stroke="rgb(179,179,179)" stroke-linejoin="round" d="M 20209,20030 L 2693,20030 2693,1825 37726,1825 37726,20030 20209,20030 Z"/>
 <path fill="none" stroke="rgb(179,179,179)" stroke-linejoin="round" d="M 2693,1824 L 2693,20029"/>
 <path fill="none" stroke="rgb(179,179,179)" stroke-linejoin="round" d="M 6585,1824 L 6585,20029"/>
 <path fill="none" stroke="rgb(179,179,179)" stroke-linejoin="round" d="M 10478,1824 L 10478,20029"/>
 <path fill="none" stroke="rgb(179,179,179)" stroke-linejoin="round" d="M 14370,1824 L 14370,20029"/>
 <path fill="none" stroke="rgb(179,179,179)" stroke-linejoin="round" d="M 18263,1824 L 18263,20029"/>
 <path fill="none" stroke="rgb(179,179,179)" stroke-linejoin="round" d="M 22155,1824 L 22155,20029"/>
 <path fill="none" stroke="rgb(179,179,179)" stroke-linejoin="round" d="M 26047,1824 L 26047,20029"/>
 <path fill="none" stroke="rgb(179,179,179)" stroke-linejoin="round" d="M 29940,1824 L 29940,20029"/>
 <path fill="none" stroke="rgb(179,179,179)" stroke-linejoin="round" d="M 33833,1824 L 33833,20029"/>
 <path fill="none" stroke="rgb(179,179,179)" stroke-linejoin="round" d="M 37725,1824 L 37725,20029"/>
 <path fill="none" stroke="rgb(179,179,179)" stroke-linejoin="round" d="M 37725,20029 L 2693,20029"/>
 <path fill="none" stroke="rgb(179,179,179)" stroke-linejoin="round" d="M 37725,16994 L 2693,16994"/>
 <path fill="none" stroke="rgb(179,179,179)" stroke-linejoin="round" d="M 37725,13960 L 2693,13960"/>
 <path fill="none" stroke="rgb(179,179,179)" stroke-linejoin="round" d="M 37725,10926 L 2693,10926"/>
 <path fill="none" stroke="rgb(179,179,179)" stroke-linejoin="round" d="M 37725,7892 L 2693,7892"/>
 <path fill="none" stroke="rgb(179,179,179)" stroke-linejoin="round" d="M 37725,4858 L 2693,4858"/>
 <path fill="none" stroke="rgb(179,179,179)" stroke-linejoin="round" d="M 37725,1823 L 2693,1823"/>
 <path fill="none" stroke="rgb(179,179,179)" stroke-linejoin="round" d="M 2693,20179 L 2693,20029"/>
 <path fill="none" stroke="rgb(179,179,179)" stroke-linejoin="round" d="M 2693,20179 L 2693,20029"/>
 <path fill="none" stroke="rgb(179,179,179)" stroke-linejoin="round" d="M 6585,20179 L 6585,20029"/>
 <path fill="none" stroke="rgb(179,179,179)" stroke-linejoin="round" d="M 6585,20179 L 6585,20029"/>
 <path fill="none" stroke="rgb(179,179,179)" stroke-linejoin="round" d="M 10478,20179 L 10478,20029"/>
 <path fill="none" stroke="rgb(179,179,179)" stroke-linejoin="round" d="M 10478,20179 L 10478,20029"/>
 <path fill="none" stroke="rgb(179,179,179)" stroke-linejoin="round" d="M 14370,20179 L 14370,20029"/>
 <path fill="none" stroke="rgb(179,179,179)" stroke-linejoin="round" d="M 14370,20179 L 14370,20029"/>
 <path fill="none" stroke="rgb(179,179,179)" stroke-linejoin="round" d="M 18263,20179 L 18263,20029"/>
 <path fill="none" stroke="rgb(179,179,179)" stroke-linejoin="round" d="M 18263,20179 L 18263,20029"/>
 <path fill="none" stroke="rgb(179,179,179)" stroke-linejoin="round" d="M 22155,20179 L 22155,20029"/>
 <path fill="none" stroke="rgb(179,179,179)" stroke-linejoin="round" d="M 22155,20179 L 22155,20029"/>
 <path fill="none" stroke="rgb(179,179,179)" stroke-linejoin="round" d="M 26047,20179 L 26047,20029"/>
 <path fill="none" stroke="rgb(179,179,179)" stroke-linejoin="round" d="M 26047,20179 L 26047,20029"/>
 <path fill="none" stroke="rgb(179,179,179)" stroke-linejoin="round" d="M 29940,20179 L 29940,20029"/>
 <path fill="none" stroke="rgb(179,179,179)" stroke-linejoin="round" d="M 29940,20179 L 29940,20029"/>
 <path fill="none" stroke="rgb(179,179,179)" stroke-linejoin="round" d="M 33833,20179 L 33833,20029"/>
 <path fill="none" stroke="rgb(179,179,179)" stroke-linejoin="round" d="M 33833,20179 L 33833,20029"/>
 <path fill="none" stroke="rgb(179,179,179)" stroke-linejoin="round" d="M 37725,20179 L 37725,20029"/>
 <path fill="none" stroke="rgb(179,179,179)" stroke-linejoin="round" d="M 37725,20179 L 37725,20029"/>
 <path fill="none" stroke="rgb(179,179,179)" stroke-linejoin="round" d="M 2693,20029 L 37725,20029"/>
 <path fill="none" stroke="rgb(179,179,179)" stroke-linejoin="round" d="M 2543,20029 L 2693,20029"/>
 <path fill="none" stroke="rgb(179,179,179)" stroke-linejoin="round" d="M 2543,20029 L 2693,20029"/>
 <path fill="none" stroke="rgb(179,179,179)" stroke-linejoin="round" d="M 2543,16994 L 2693,16994"/>
 <path fill="none" stroke="rgb(179,179,179)" stroke-linejoin="round" d="M 2543,16994 L 2693,16994"/>
 <path fill="none" stroke="rgb(179,179,179)" stroke-linejoin="round" d="M 2543,13960 L 2693,13960"/>
 <path fill="none" stroke="rgb(179,179,179)" stroke-linejoin="round" d="M 2543,13960 L 2693,13960"/>
 <path fill="none" stroke="rgb(179,179,179)" stroke-linejoin="round" d="M 2543,10926 L 2693,10926"/>
 <path fill="none" stroke="rgb(179,179,179)" stroke-linejoin="round" d="M 2543,10926 L 2693,10926"/>
 <path fill="none" stroke="rgb(179,179,179)" stroke-linejoin="round" d="M 2543,7892 L 2693,7892"/>
 <path fill="none" stroke="rgb(179,179,179)" stroke-linejoin="round" d="M 2543,7892 L 2693,7892"/>
 <path fill="none" stroke="rgb(179,179,179)" stroke-linejoin="round" d="M 2543,4858 L 2693,4858"/>
 <path fill="none" stroke="rgb(179,179,179)" stroke-linejoin="round" d="M 2543,4858 L 2693,4858"/>
 <path fill="none" stroke="rgb(179,179,179)" stroke-linejoin="round" d="M 2543,1823 L 2693,1823"/>
 <path fill="none" stroke="rgb(179,179,179)" stroke-linejoin="round" d="M 2543,1823 L 2693,1823"/>
 <path fill="none" stroke="rgb(179,179,179)" stroke-linejoin="round" d="M 2693,20029 L 2693,1824"/>
 <path fill="none" stroke="rgb(255,66,14)" stroke-width="80" stroke-linejoin="round" d="M 4639,5107 L 6585,4161 8532,5894 10478,6837 12424,5137 14370,9823 16317,7237 18263,7698 20208,8605 24101,4540 26047,7393 27994,10896 29940,10128 31886,9439 33833,9887 35779,7351"/>
 <path fill="rgb(255,66,14)" stroke="none" d="M 4514,5107 L 4639,5232 4764,5107 4639,4982 4514,5107 Z"/>
 <path fill="none" stroke="rgb(255,66,14)" stroke-linejoin="round" d="M 4514,5107 L 4639,5232 4764,5107 4639,4982 4514,5107 Z"/>
 <path fill="rgb(255,66,14)" stroke="none" d="M 6460,4161 L 6585,4286 6710,4161 6585,4036 6460,4161 Z"/>
 <path fill="none" stroke="rgb(255,66,14)" stroke-linejoin="round" d="M 6460,4161 L 6585,4286 6710,4161 6585,4036 6460,4161 Z"/>
 <path fill="rgb(255,66,14)" stroke="none" d="M 8407,5894 L 8532,6019 8657,5894 8532,5769 8407,5894 Z"/>
 <path fill="none" stroke="rgb(255,66,14)" stroke-linejoin="round" d="M 8407,5894 L 8532,6019 8657,5894 8532,5769 8407,5894 Z"/>
 <path fill="rgb(255,66,14)" stroke="none" d="M 10353,6837 L 10478,6962 10603,6837 10478,6712 10353,6837 Z"/>
 <path fill="none" stroke="rgb(255,66,14)" stroke-linejoin="round" d="M 10353,6837 L 10478,6962 10603,6837 10478,6712 10353,6837 Z"/>
 <path fill="rgb(255,66,14)" stroke="none" d="M 12299,5137 L 12424,5262 12549,5137 12424,5012 12299,5137 Z"/>
 <path fill="none" stroke="rgb(255,66,14)" stroke-linejoin="round" d="M 12299,5137 L 12424,5262 12549,5137 12424,5012 12299,5137 Z"/>
 <path fill="rgb(255,66,14)" stroke="none" d="M 14245,9823 L 14370,9948 14495,9823 14370,9698 14245,9823 Z"/>
 <path fill="none" stroke="rgb(255,66,14)" stroke-linejoin="round" d="M 14245,9823 L 14370,9948 14495,9823 14370,9698 14245,9823 Z"/>
 <path fill="rgb(255,66,14)" stroke="none" d="M 16192,7237 L 16317,7362 16442,7237 16317,7112 16192,7237 Z"/>
 <path fill="none" stroke="rgb(255,66,14)" stroke-linejoin="round" d="M 16192,7237 L 16317,7362 16442,7237 16317,7112 16192,7237 Z"/>
 <path fill="rgb(255,66,14)" stroke="none" d="M 18138,7698 L 18263,7823 18388,7698 18263,7573 18138,7698 Z"/>
 <path fill="none" stroke="rgb(255,66,14)" stroke-linejoin="round" d="M 18138,7698 L 18263,7823 18388,7698 18263,7573 18138,7698 Z"/>
 <path fill="rgb(255,66,14)" stroke="none" d="M 20083,8605 L 20208,8730 20333,8605 20208,8480 20083,8605 Z"/>
 <path fill="none" stroke="rgb(255,66,14)" stroke-linejoin="round" d="M 20083,8605 L 20208,8730 20333,8605 20208,8480 20083,8605 Z"/>
 <path fill="rgb(255,66,14)" stroke="none" d="M 23976,4540 L 24101,4665 24226,4540 24101,4415 23976,4540 Z"/>
 <path fill="none" stroke="rgb(255,66,14)" stroke-linejoin="round" d="M 23976,4540 L 24101,4665 24226,4540 24101,4415 23976,4540 Z"/>
 <path fill="rgb(255,66,14)" stroke="none" d="M 25922,7393 L 26047,7518 26172,7393 26047,7268 25922,7393 Z"/>
 <path fill="none" stroke="rgb(255,66,14)" stroke-linejoin="round" d="M 25922,7393 L 26047,7518 26172,7393 26047,7268 25922,7393 Z"/>
 <path fill="rgb(255,66,14)" stroke="none" d="M 27869,10896 L 27994,11021 28119,10896 27994,10771 27869,10896 Z"/>
 <path fill="none" stroke="rgb(255,66,14)" stroke-linejoin="round" d="M 27869,10896 L 27994,11021 28119,10896 27994,10771 27869,10896 Z"/>
 <path fill="rgb(255,66,14)" stroke="none" d="M 29815,10128 L 29940,10253 30065,10128 29940,10003 29815,10128 Z"/>
 <path fill="none" stroke="rgb(255,66,14)" stroke-linejoin="round" d="M 29815,10128 L 29940,10253 30065,10128 29940,10003 29815,10128 Z"/>
 <path fill="rgb(255,66,14)" stroke="none" d="M 31761,9439 L 31886,9564 32011,9439 31886,9314 31761,9439 Z"/>
 <path fill="none" stroke="rgb(255,66,14)" stroke-linejoin="round" d="M 31761,9439 L 31886,9564 32011,9439 31886,9314 31761,9439 Z"/>
 <path fill="rgb(255,66,14)" stroke="none" d="M 33708,9887 L 33833,10012 33958,9887 33833,9762 33708,9887 Z"/>
 <path fill="none" stroke="rgb(255,66,14)" stroke-linejoin="round" d="M 33708,9887 L 33833,10012 33958,9887 33833,9762 33708,9887 Z"/>
 <path fill="rgb(255,66,14)" stroke="none" d="M 35654,7351 L 35779,7476 35904,7351 35779,7226 35654,7351 Z"/>
 <path fill="none" stroke="rgb(255,66,14)" stroke-linejoin="round" d="M 35654,7351 L 35779,7476 35904,7351 35779,7226 35654,7351 Z"/>
 <path fill="none" stroke="rgb(0,69,134)" stroke-width="80" stroke-linejoin="round" d="M 4639,9719 L 6585,9141 8532,10199 10478,8962 12424,9358 14370,12305 16317,11448 18263,12066 20208,12260 24101,10782 26047,11760 27994,13217 29940,12523 31886,12800 33833,12380 35779,10732"/>
 <path fill="rgb(0,69,134)" stroke="none" d="M 4514,9594 L 4514,9844 4764,9844 4764,9594 4514,9594 Z"/>
 <path fill="none" stroke="rgb(0,69,134)" stroke-linejoin="round" d="M 4514,9594 L 4514,9844 4764,9844 4764,9594 4514,9594 Z"/>
 <path fill="rgb(0,69,134)" stroke="none" d="M 6460,9016 L 6460,9266 6710,9266 6710,9016 6460,9016 Z"/>
 <path fill="none" stroke="rgb(0,69,134)" stroke-linejoin="round" d="M 6460,9016 L 6460,9266 6710,9266 6710,9016 6460,9016 Z"/>
 <path fill="rgb(0,69,134)" stroke="none" d="M 8407,10074 L 8407,10324 8657,10324 8657,10074 8407,10074 Z"/>
 <path fill="none" stroke="rgb(0,69,134)" stroke-linejoin="round" d="M 8407,10074 L 8407,10324 8657,10324 8657,10074 8407,10074 Z"/>
 <path fill="rgb(0,69,134)" stroke="none" d="M 10353,8837 L 10353,9087 10603,9087 10603,8837 10353,8837 Z"/>
 <path fill="none" stroke="rgb(0,69,134)" stroke-linejoin="round" d="M 10353,8837 L 10353,9087 10603,9087 10603,8837 10353,8837 Z"/>
 <path fill="rgb(0,69,134)" stroke="none" d="M 12299,9233 L 12299,9483 12549,9483 12549,9233 12299,9233 Z"/>
 <path fill="none" stroke="rgb(0,69,134)" stroke-linejoin="round" d="M 12299,9233 L 12299,9483 12549,9483 12549,9233 12299,9233 Z"/>
 <path fill="rgb(0,69,134)" stroke="none" d="M 14245,12180 L 14245,12430 14495,12430 14495,12180 14245,12180 Z"/>
 <path fill="none" stroke="rgb(0,69,134)" stroke-linejoin="round" d="M 14245,12180 L 14245,12430 14495,12430 14495,12180 14245,12180 Z"/>
 <path fill="rgb(0,69,134)" stroke="none" d="M 16192,11323 L 16192,11573 16442,11573 16442,11323 16192,11323 Z"/>
 <path fill="none" stroke="rgb(0,69,134)" stroke-linejoin="round" d="M 16192,11323 L 16192,11573 16442,11573 16442,11323 16192,11323 Z"/>
 <path fill="rgb(0,69,134)" stroke="none" d="M 18138,11941 L 18138,12191 18388,12191 18388,11941 18138,11941 Z"/>
 <path fill="none" stroke="rgb(0,69,134)" stroke-linejoin="round" d="M 18138,11941 L 18138,12191 18388,12191 18388,11941 18138,11941 Z"/>
 <path fill="rgb(0,69,134)" stroke="none" d="M 20083,12135 L 20083,12385 20333,12385 20333,12135 20083,12135 Z"/>
 <path fill="none" stroke="rgb(0,69,134)" stroke-linejoin="round" d="M 20083,12135 L 20083,12385 20333,12385 20333,12135 20083,12135 Z"/>
 <path fill="rgb(0,69,134)" stroke="none" d="M 23976,10657 L 23976,10907 24226,10907 24226,10657 23976,10657 Z"/>
 <path fill="none" stroke="rgb(0,69,134)" stroke-linejoin="round" d="M 23976,10657 L 23976,10907 24226,10907 24226,10657 23976,10657 Z"/>
 <path fill="rgb(0,69,134)" stroke="none" d="M 25922,11635 L 25922,11885 26172,11885 26172,11635 25922,11635 Z"/>
 <path fill="none" stroke="rgb(0,69,134)" stroke-linejoin="round" d="M 25922,11635 L 25922,11885 26172,11885 26172,11635 25922,11635 Z"/>
 <path fill="rgb(0,69,134)" stroke="none" d="M 27869,13092 L 27869,13342 28119,13342 28119,13092 27869,13092 Z"/>
 <path fill="none" stroke="rgb(0,69,134)" stroke-linejoin="round" d="M 27869,13092 L 27869,13342 28119,13342 28119,13092 27869,13092 Z"/>
 <path fill="rgb(0,69,134)" stroke="none" d="M 29815,12398 L 29815,12648 30065,12648 30065,12398 29815,12398 Z"/>
 <path fill="none" stroke="rgb(0,69,134)" stroke-linejoin="round" d="M 29815,12398 L 29815,12648 30065,12648 30065,12398 29815,12398 Z"/>
 <path fill="rgb(0,69,134)" stroke="none" d="M 31761,12675 L 31761,12925 32011,12925 32011,12675 31761,12675 Z"/>
 <path fill="none" stroke="rgb(0,69,134)" stroke-linejoin="round" d="M 31761,12675 L 31761,12925 32011,12925 32011,12675 31761,12675 Z"/>
 <path fill="rgb(0,69,134)" stroke="none" d="M 33708,12255 L 33708,12505 33958,12505 33958,12255 33708,12255 Z"/>
 <path fill="none" stroke="rgb(0,69,134)" stroke-linejoin="round" d="M 33708,12255 L 33708,12505 33958,12505 33958,12255 33708,12255 Z"/>
 <path fill="rgb(0,69,134)" stroke="none" d="M 35654,10607 L 35654,10857 35904,10857 35904,10607 35654,10607 Z"/>
 <path fill="none" stroke="rgb(0,69,134)" stroke-linejoin="round" d="M 35654,10607 L 35654,10857 35904,10857 35904,10607 35654,10607 Z"/>
 <text class="TextShape"><tspan class="TextParagraph" font-family="Liberation Sans, sans-serif" font-size="564px" font-weight="400"><tspan class="TextPosition" x="2037" y="20791"><tspan fill="rgb(0,0,0)" stroke="none">7500</tspan></tspan></tspan></text>
 <text class="TextShape"><tspan class="TextParagraph" font-family="Liberation Sans, sans-serif" font-size="564px" font-weight="400"><tspan class="TextPosition" x="5929" y="20791"><tspan fill="rgb(0,0,0)" stroke="none">8000</tspan></tspan></tspan></text>
 <text class="TextShape"><tspan class="TextParagraph" font-family="Liberation Sans, sans-serif" font-size="564px" font-weight="400"><tspan class="TextPosition" x="9822" y="20791"><tspan fill="rgb(0,0,0)" stroke="none">8500</tspan></tspan></tspan></text>
 <text class="TextShape"><tspan class="TextParagraph" font-family="Liberation Sans, sans-serif" font-size="564px" font-weight="400"><tspan class="TextPosition" x="13714" y="20791"><tspan fill="rgb(0,0,0)" stroke="none">9000</tspan></tspan></tspan></text>
 <text class="TextShape"><tspan class="TextParagraph" font-family="Liberation Sans, sans-serif" font-size="564px" font-weight="400"><tspan class="TextPosition" x="17607" y="20791"><tspan fill="rgb(0,0,0)" stroke="none">9500</tspan></tspan></tspan></text>
 <text class="TextShape"><tspan class="TextParagraph" font-family="Liberation Sans, sans-serif" font-size="564px" font-weight="400"><tspan class="TextPosition" x="21336" y="20791"><tspan fill="rgb(0,0,0)" stroke="none">10000</tspan></tspan></tspan></text>
 <text class="TextShape"><tspan class="TextParagraph" font-family="Liberation Sans, sans-serif" font-size="564px" font-weight="400"><tspan class="TextPosition" x="25228" y="20791"><tspan fill="rgb(0,0,0)" stroke="none">10500</tspan></tspan></tspan></text>
 <text class="TextShape"><tspan class="TextParagraph" font-family="Liberation Sans, sans-serif" font-size="564px" font-weight="400"><tspan class="TextPosition" x="29121" y="20791"><tspan fill="rgb(0,0,0)" stroke="none">11000</tspan></tspan></tspan></text>
 <text class="TextShape"><tspan class="TextParagraph" font-family="Liberation Sans, sans-serif" font-size="564px" font-weight="400"><tspan class="TextPosition" x="33014" y="20791"><tspan fill="rgb(0,0,0)" stroke="none">11500</tspan></tspan></tspan></text>
 <text class="TextShape"><tspan class="TextParagraph" font-family="Liberation Sans, sans-serif" font-size="564px" font-weight="400"><tspan class="TextPosition" x="36906" y="20791"><tspan fill="rgb(0,0,0)" stroke="none">12000</tspan></tspan></tspan></text>
 <text class="TextShape"><tspan class="TextParagraph" font-family="Liberation Sans, sans-serif" font-size="564px" font-weight="400"><tspan class="TextPosition" x="1112" y="20225"><tspan fill="rgb(0,0,0)" stroke="none">0.0%</tspan></tspan></tspan></text>
 <text class="TextShape"><tspan class="TextParagraph" font-family="Liberation Sans, sans-serif" font-size="564px" font-weight="400"><tspan class="TextPosition" x="1112" y="17190"><tspan fill="rgb(0,0,0)" stroke="none">5.0%</tspan></tspan></tspan></text>
 <text class="TextShape"><tspan class="TextParagraph" font-family="Liberation Sans, sans-serif" font-size="564px" font-weight="400"><tspan class="TextPosition" x="784" y="14156"><tspan fill="rgb(0,0,0)" stroke="none">10.0%</tspan></tspan></tspan></text>
 <text class="TextShape"><tspan class="TextParagraph" font-family="Liberation Sans, sans-serif" font-size="564px" font-weight="400"><tspan class="TextPosition" x="784" y="11121"><tspan fill="rgb(0,0,0)" stroke="none">15.0%</tspan></tspan></tspan></text>
 <text class="TextShape"><tspan class="TextParagraph" font-family="Liberation Sans, sans-serif" font-size="564px" font-weight="400"><tspan class="TextPosition" x="784" y="8087"><tspan fill="rgb(0,0,0)" stroke="none">20.0%</tspan></tspan></tspan></text>
 <text class="TextShape"><tspan class="TextParagraph" font-family="Liberation Sans, sans-serif" font-size="564px" font-weight="400"><tspan class="TextPosition" x="784" y="5053"><tspan fill="rgb(0,0,0)" stroke="none">25.0%</tspan></tspan></tspan></text>
 <text class="TextShape"><tspan class="TextParagraph" font-family="Liberation Sans, sans-serif" font-size="564px" font-weight="400"><tspan class="TextPosition" x="784" y="2018"><tspan fill="rgb(0,0,0)" stroke="none">30.0%</tspan></tspan></tspan></text>
 <text class="TextShape"><tspan class="TextParagraph" font-family="Liberation Sans, sans-serif" font-size="564px" font-weight="400"><tspan class="TextPosition" x="3165" y="1174"><tspan fill="rgb(0,0,0)" stroke="none">Speedup σε διαφορετικές χρονικές περιόδους, nvme, 16GiB, 4T</tspan></tspan></tspan></text>
 <text class="TextShape"><tspan class="TextParagraph" font-family="Liberation Sans, sans-serif" font-size="564px" font-weight="400"><tspan class="TextPosition" x="23603" y="1214"><tspan fill="rgb(0,0,0)" stroke="none">Prefetch type:</tspan></tspan></tspan></text>
 <path fill="none" stroke="rgb(0,69,134)" stroke-width="80" stroke-linejoin="round" d="M 28144,998 L 28944,998"/>
 <path fill="rgb(0,69,134)" stroke="none" d="M 28375,829 L 28375,1167 28713,1167 28713,829 28375,829 Z"/>
 <path fill="none" stroke="rgb(0,69,134)" stroke-linejoin="round" d="M 28375,829 L 28375,1167 28713,1167 28713,829 28375,829 Z"/>
 <path fill="none" stroke="rgb(255,66,14)" stroke-width="80" stroke-linejoin="round" d="M 34773,998 L 35573,998"/>
 <path fill="rgb(255,66,14)" stroke="none" d="M 35004,998 L 35173,1167 35342,998 35173,829 35004,998 Z"/>
 <path fill="none" stroke="rgb(255,66,14)" stroke-linejoin="round" d="M 35004,998 L 35173,1167 35342,998 35173,829 35004,998 Z"/>
 <text class="TextShape"><tspan class="TextParagraph" font-family="Liberation Sans, sans-serif" font-size="564px" font-weight="400"><tspan class="TextPosition" x="29068" y="1192"><tspan fill="rgb(0,0,0)" stroke="none">Accounts &amp; Code</tspan></tspan></tspan></text>
 <text class="TextShape"><tspan class="TextParagraph" font-family="Liberation Sans, sans-serif" font-size="564px" font-weight="400"><tspan class="TextPosition" x="35697" y="1192"><tspan fill="rgb(0,0,0)" stroke="none">Full</tspan></tspan></tspan></text>
 <text class="TextShape"><tspan class="TextParagraph" font-family="Liberation Sans, sans-serif" font-size="564px" font-weight="400"><tspan class="TextPosition" x="15715" y="21697"><tspan fill="rgb(0,0,0)" stroke="none">Block έναρξης δοκιμής (x1000)</tspan></tspan></tspan></text>
</svg>