<?xml version="1.0" encoding="UTF-8" standalone="no"?>
<svg
   xmlns:lucid="lucid"
   xmlns:dc="http://purl.org/dc/elements/1.1/"
   xmlns:cc="http://creativecommons.org/ns#"
   xmlns:rdf="http://www.w3.org/1999/02/22-rdf-syntax-ns#"
   xmlns:svg="http://www.w3.org/2000/svg"
   xmlns="http://www.w3.org/2000/svg"
   xmlns:xlink="http://www.w3.org/1999/xlink"
   xmlns:sodipodi="http://sodipodi.sourceforge.net/DTD/sodipodi-0.dtd"
   xmlns:inkscape="http://www.inkscape.org/namespaces/inkscape"
   width="1920"
   height="380"
   version="1.1"
   id="svg226"
   sodipodi:docname="RA0.svg"
   inkscape:version="0.92.5 (2060ec1f9f, 2020-04-08)">
  <metadata
     id="metadata232">
    <rdf:RDF>
      <cc:Work
         rdf:about="">
        <dc:format>image/svg+xml</dc:format>
        <dc:type
           rdf:resource="http://purl.org/dc/dcmitype/StillImage" />
      </cc:Work>
    </rdf:RDF>
  </metadata>
  <defs
     id="defs230" />
  <sodipodi:namedview
     pagecolor="#ffffff"
     bordercolor="#666666"
     borderopacity="1"
     objecttolerance="10"
     gridtolerance="10"
     guidetolerance="10"
     inkscape:pageopacity="0"
     inkscape:pageshadow="2"
     inkscape:window-width="3840"
     inkscape:window-height="2092"
     id="namedview228"
     showgrid="false"
     inkscape:zoom="1.1343171"
     inkscape:cx="1118.2846"
     inkscape:cy="198.00024"
     inkscape:window-x="0"
     inkscape:window-y="0"
     inkscape:window-maximized="1"
     inkscape:current-layer="g224" />
  <g
     transform="translate(-80 -80)"
     lucid:page-tab-id="0_0"
     id="g224">
    <path
       d="M219 120h180v260H219z"
       stroke="#3a414a"
       fill="#fff"
       id="path4" />
    <use
       xlink:href="#a"
       transform="matrix(1,0,0,1,230.99999999999955,132.00000000000003) translate(15.148148148148138 124.58333333333334)"
       id="use6" />
    <path
       d="M137.2 320.5h-17.7v-1h17.7zm64.92 0h-42.8v-1h42.8z"
       stroke="#3a414a"
       stroke-width=".05"
       fill="#3a414a"
       id="path8" />
    <path
       d="M119.5 320.5h-.5v-1h.5z"
       stroke="#3a414a"
       stroke-width=".05"
       fill="#3a414a"
       id="path10" />
    <path
       d="M216.88 320l-14.26 4.64v-9.28z"
       fill="#3a414a"
       id="path12" />
    <path
       d="M218.5 320l-16.38 5.32v-10.64zm-15.38 3.95l12.14-3.95-12.14-3.95z"
       stroke="#3a414a"
       stroke-width=".05"
       fill="#3a414a"
       id="path14" />
    <use
       xlink:href="#b"
       transform="matrix(1,0,0,1,137.18514606160744,304) translate(0 21.333333333333336)"
       id="use16" />
    <path
       d="M128.12 240.5h-8.62v-1h8.62zm74 0h-35.48v-1h35.48zM119.5 240.5h-.5v-1h.5z"
       stroke="#3a414a"
       stroke-width=".05"
       fill="#3a414a"
       id="path18" />
    <path
       d="M216.88 240l-14.26 4.64v-9.28z"
       fill="#3a414a"
       id="path20" />
    <path
       d="M218.5 240l-16.38 5.32v-10.64zm-15.38 3.95l12.14-3.95-12.14-3.95z"
       stroke="#3a414a"
       stroke-width=".05"
       fill="#3a414a"
       id="path22" />
    <use
       xlink:href="#c"
       transform="matrix(1,0,0,1,128.12426125201625,224) translate(0 21.333333333333336)"
       id="use24" />
    <path
       d="M219 340h180v40H219z"
       stroke="#3a414a"
       fill="#fff"
       id="path26" />
    <use
       xlink:href="#d"
       transform="matrix(1,0,0,1,218.99999999999955,339.99999999999994) translate(53.03703703703704 29.238133333333337)"
       id="use28" />
    <path
       d="M219 384c0-3.3 2.7-6 6-6h168c3.3 0 6 2.7 6 6v30c0 3.3-2.7 6-6 6H225c-3.3 0-6-2.7-6-6z"
       stroke="#000"
       stroke-opacity="0"
       fill="#fff"
       fill-opacity="0"
       id="path30" />
    <use
       xlink:href="#e"
       transform="matrix(1,0,0,1,223.99999999999955,383) translate(62.77777777777777 30.037333333333336)"
       id="use32" />
    <path
       d="M540 120h180v260H540z"
       stroke="#3a414a"
       fill="#fff"
       id="path34" />
    <use
       xlink:href="#a"
       transform="matrix(1,0,0,1,551.9999999999994,132.00000000000003) translate(15.148148148148138 124.58333333333334)"
       id="use36" />
    <path
       d="M457.48 200.5H439.5v-1h17.98zm65.64 0h-43.5v-1h43.5zM439.5 200.5h-.5v-1h.5z"
       stroke="#3a414a"
       stroke-width=".05"
       fill="#3a414a"
       id="path38" />
    <path
       d="M537.88 200l-14.26 4.64v-9.28z"
       fill="#3a414a"
       id="path40" />
    <path
       d="M539.5 200l-16.38 5.32v-10.64zm-15.38 3.95l12.14-3.95-12.14-3.95z"
       stroke="#3a414a"
       stroke-width=".05"
       fill="#3a414a"
       id="path42" />
    <use
       xlink:href="#b"
       transform="matrix(1,0,0,1,457.47820857553444,184.00000000000003) translate(0 21.333333333333336)"
       id="use44" />
    <path
       d="M540 340h180v40H540z"
       stroke="#3a414a"
       fill="#fff"
       id="path46" />
    <use
       xlink:href="#d"
       transform="matrix(1,0,0,1,539.9999999999994,340.00000000000006) translate(53.03703703703704 29.333333333333336)"
       id="use48" />
    <path
       d="M540 384c0-3.3 2.7-6 6-6h168c3.3 0 6 2.7 6 6v30c0 3.3-2.7 6-6 6H546c-3.3 0-6-2.7-6-6z"
       stroke="#000"
       stroke-opacity="0"
       fill="#fff"
       fill-opacity="0"
       id="path50" />
    <use
       xlink:href="#e"
       transform="matrix(1,0,0,1,544.9999999999994,383) translate(62.77777777777777 30.037333333333336)"
       id="use52" />
    <path
       d="M419.5 100.25c.14 0 .25.1.25.25v339c0 .14-.1.25-.25.25-.14 0-.25-.1-.25-.25v-339c0-.14.1-.25.25-.25z"
       stroke="#3a414a"
       stroke-width=".5"
       fill="none"
       id="path54" />
    <path
       d="M839 120h180v260H839z"
       stroke="#3a414a"
       fill="#fff"
       id="path56" />
    <use
       xlink:href="#a"
       transform="matrix(1,0,0,1,851.0000000000003,132.00000000000003) translate(15.148148148148138 124.58333333333334)"
       id="use58" />
    <path
       d="M749.7 340.5h-10.2v-1h10.2zm72.42 0h-37.06v-1h37.06zM739.5 340.5h-.5v-1h.5z"
       stroke="#3a414a"
       stroke-width=".05"
       fill="#3a414a"
       id="path60" />
    <path
       d="M836.88 340l-14.26 4.64v-9.28z"
       fill="#3a414a"
       id="path62" />
    <path
       d="M838.5 340l-16.38 5.32v-10.64zm-15.38 3.95l12.14-3.95-12.14-3.95z"
       stroke="#3a414a"
       stroke-width=".05"
       fill="#3a414a"
       id="path64" />
    <use
       xlink:href="#f"
       transform="matrix(1,0,0,1,749.7057427334979,324) translate(0 21.333333333333336)"
       id="use66" />
    <path
       d="M839 340h180v40H839z"
       stroke="#3a414a"
       fill="#fff"
       id="path68" />
    <use
       xlink:href="#d"
       transform="matrix(1,0,0,1,839.0000000000003,340.00000000000006) translate(53.03703703703704 29.333333333333336)"
       id="use70" />
    <path
       d="M839 384c0-3.3 2.7-6 6-6h168c3.3 0 6 2.7 6 6v30c0 3.3-2.7 6-6 6H845c-3.3 0-6-2.7-6-6z"
       stroke="#000"
       stroke-opacity="0"
       fill="#fff"
       fill-opacity="0"
       id="path72" />
    <use
       xlink:href="#g"
       transform="matrix(1,0,0,1,844.0000000000003,383) translate(63.77777777777777 30.037333333333336)"
       id="use74" />
    <path
       d="M1040 100.25c.14 0 .25.1.25.25v339c0 .14-.1.25-.25.25-.14 0-.25-.1-.25-.25v-339c0-.14.1-.25.25-.25z"
       stroke="#3a414a"
       stroke-width=".5"
       fill="none"
       id="path76" />
    <path
       d="M1779 120h180v260h-180z"
       stroke="#3a414a"
       fill="#fff"
       id="path78" />
    <use
       xlink:href="#a"
       transform="matrix(1,0,0,1,1790.9999999999993,132.00000000000003) translate(15.148148148148138 124.58333333333334)"
       id="use80" />
    <path
       d="M1697.2 320.5h-17.7v-1h17.7zm64.92 0h-42.8v-1h42.8zM1679.5 320.5h-.5v-1h.5z"
       stroke="#3a414a"
       stroke-width=".05"
       fill="#3a414a"
       id="path82" />
    <path
       d="M1776.88 320l-14.26 4.64v-9.28z"
       fill="#3a414a"
       id="path84" />
    <path
       d="M1778.5 320l-16.38 5.32v-10.64zm-15.38 3.95l12.14-3.95-12.14-3.95z"
       stroke="#3a414a"
       stroke-width=".05"
       fill="#3a414a"
       id="path86" />
    <use
       xlink:href="#b"
       transform="matrix(1,0,0,1,1697.1851460616074,304) translate(0 21.333333333333336)"
       id="use88" />
    <path
       d="M1688.82 240.5h-9.32v-1h9.32zm73.3 0h-36.18v-1h36.18zM1679.5 240.5h-.5v-1h.5z"
       stroke="#3a414a"
       stroke-width=".05"
       fill="#3a414a"
       id="path90" />
    <path
       d="M1776.88 240l-14.26 4.64v-9.28z"
       fill="#3a414a"
       id="path92" />
    <path
       d="M1778.5 240l-16.38 5.32v-10.64zm-15.38 3.95l12.14-3.95-12.14-3.95z"
       stroke="#3a414a"
       stroke-width=".05"
       fill="#3a414a"
       id="path94" />
    <use
       xlink:href="#h"
       transform="matrix(1,0,0,1,1688.8242612520162,224) translate(0 21.333333333333336)"
       id="use96" />
    <path
       d="M1779 340h180v40h-180z"
       stroke="#3a414a"
       fill="#fff"
       id="path98" />
    <use
       xlink:href="#d"
       transform="matrix(1,0,0,1,1778.9999999999993,339.99999999999994) translate(53.03703703703704 29.238133333333337)"
       id="use100" />
    <path
       d="M1779 384c0-3.3 2.7-6 6-6h168c3.3 0 6 2.7 6 6v30c0 3.3-2.7 6-6 6h-168c-3.3 0-6-2.7-6-6z"
       stroke="#000"
       stroke-opacity="0"
       fill="#fff"
       fill-opacity="0"
       id="path102" />
    <use
       xlink:href="#g"
       transform="matrix(1,0,0,1,1783.9999999999993,383) translate(63.77777777777777 30.037333333333336)"
       id="use104" />
    <path
       d="M1160 120h180v260h-180z"
       stroke="#3a414a"
       fill="#fff"
       id="path106" />
    <use
       xlink:href="#a"
       transform="matrix(1,0,0,1,1171.9999999999986,132.00000000000003) translate(15.148148148148138 124.58333333333334)"
       id="use108" />
    <path
       d="M1077.33 140.5h-17.83v-1h17.83zm65.3 0h-43.15v-1h43.14zM1059.5 140.5h-.5v-1h.5z"
       stroke="#3a414a"
       stroke-width=".05"
       fill="#3a414a"
       id="path110" />
    <path
       d="M1157.38 140l-14.26 4.64v-9.28z"
       fill="#3a414a"
       id="path112" />
    <path
       d="M1159 140l-16.38 5.32v-10.64zm-15.38 3.95l12.14-3.95-12.14-3.95z"
       stroke="#3a414a"
       stroke-width=".05"
       fill="#3a414a"
       id="path114" />
    <use
       xlink:href="#b"
       transform="matrix(1,0,0,1,1077.3321773185705,124) translate(0 21.333333333333336)"
       id="use116" />
    <path
       d="M1160 340h180v40h-180z"
       stroke="#3a414a"
       fill="#fff"
       id="path118" />
    <use
       xlink:href="#d"
       transform="matrix(1,0,0,1,1159.9999999999986,340.00000000000006) translate(53.03703703703704 29.333333333333336)"
       id="use120" />
    <path
       d="M1160 384c0-3.3 2.7-6 6-6h168c3.3 0 6 2.7 6 6v30c0 3.3-2.7 6-6 6h-168c-3.3 0-6-2.7-6-6z"
       stroke="#000"
       stroke-opacity="0"
       fill="#fff"
       fill-opacity="0"
       id="path122" />
    <use
       xlink:href="#e"
       transform="matrix(1,0,0,1,1164.9999999999986,383) translate(62.77777777777777 30.037333333333336)"
       id="use124" />
    <path
       d="M1459 120h180v260h-180z"
       stroke="#3a414a"
       fill="#fff"
       id="path126" />
    <use
       xlink:href="#a"
       transform="matrix(1,0,0,1,1470.9999999999995,132.00000000000003) translate(15.148148148148138 124.58333333333334)"
       id="use128" />
    <path
       d="M1369.7 340.5h-10.2v-1h10.2zm72.42 0h-37.06v-1h37.06zM1359.5 340.5h-.5v-1h.5z"
       stroke="#3a414a"
       stroke-width=".05"
       fill="#3a414a"
       id="path130" />
    <path
       d="M1456.88 340l-14.26 4.64v-9.28z"
       fill="#3a414a"
       id="path132" />
    <path
       d="M1458.5 340l-16.38 5.32v-10.64zm-15.38 3.95l12.14-3.95-12.14-3.95z"
       stroke="#3a414a"
       stroke-width=".05"
       fill="#3a414a"
       id="path134" />
    <use
       xlink:href="#f"
       transform="matrix(1,0,0,1,1369.7057427334971,324) translate(0 21.333333333333336)"
       id="use136" />
    <path
       d="M1459 340h180v40h-180z"
       stroke="#3a414a"
       fill="#fff"
       id="path138" />
    <use
       xlink:href="#d"
       transform="matrix(1,0,0,1,1458.9999999999995,340.00000000000006) translate(53.03703703703704 29.333333333333336)"
       id="use140" />
    <path
       d="M1459 384c0-3.3 2.7-6 6-6h168c3.3 0 6 2.7 6 6v30c0 3.3-2.7 6-6 6h-168c-3.3 0-6-2.7-6-6z"
       stroke="#000"
       stroke-opacity="0"
       fill="#fff"
       fill-opacity="0"
       id="path142" />
    <use
       xlink:href="#g"
       transform="matrix(1,0,0,1,1463.9999999999995,383) translate(63.77777777777777 30.037333333333336)"
       id="use144" />
    <path
       d="M1659.5 100.25c.14 0 .25.1.25.25v339c0 .14-.1.25-.25.25-.14 0-.25-.1-.25-.25v-339c0-.14.1-.25.25-.25z"
       stroke="#3a414a"
       stroke-width=".5"
       fill="none"
       id="path146" />
    <defs
       id="defs222">
      <path
         fill="#3a414a"
         d="M30 0v-248h187v28H63v79h144v27H63v87h162V0H30"
         id="i" />
      <path
         fill="#3a414a"
         d="M195 0l-74-108L45 0H8l94-129-87-119h37l69 98 67-98h37l-84 118L233 0h-38"
         id="j" />
      <path
         fill="#3a414a"
         d="M212-179c-10-28-35-45-73-45-59 0-87 40-87 99 0 60 29 101 89 101 43 0 62-24 78-52l27 14C228-24 195 4 139 4 59 4 22-46 18-125c-6-104 99-153 187-111 19 9 31 26 39 46"
         id="k" />
      <path
         fill="#3a414a"
         d="M232-93c-1 65-40 97-104 97C67 4 28-28 28-90v-158h33c8 89-33 224 67 224 102 0 64-133 71-224h33v155"
         id="l" />
      <path
         fill="#3a414a"
         d="M127-220V0H93v-220H8v-28h204v28h-85"
         id="m" />
      <g
         id="a">
        <use
           transform="matrix(0.07407407407407408,0,0,0.07407407407407408,0,0)"
           xlink:href="#i"
           id="use153" />
        <use
           transform="matrix(0.07407407407407408,0,0,0.07407407407407408,17.77777777777778,0)"
           xlink:href="#j"
           id="use155" />
        <use
           transform="matrix(0.07407407407407408,0,0,0.07407407407407408,35.55555555555556,0)"
           xlink:href="#i"
           id="use157" />
        <use
           transform="matrix(0.07407407407407408,0,0,0.07407407407407408,53.33333333333333,0)"
           xlink:href="#k"
           id="use159" />
        <use
           transform="matrix(0.07407407407407408,0,0,0.07407407407407408,72.51851851851852,0)"
           xlink:href="#l"
           id="use161" />
        <use
           transform="matrix(0.07407407407407408,0,0,0.07407407407407408,91.70370370370371,0)"
           xlink:href="#m"
           id="use163" />
        <use
           transform="matrix(0.07407407407407408,0,0,0.07407407407407408,107.92592592592594,0)"
           xlink:href="#i"
           id="use165" />
      </g>
      <path
         fill="#333"
         d="M240 0l2-218c-23 76-54 145-80 218h-23L58-218 59 0H30v-248h44l77 211c21-75 51-140 76-211h43V0h-30"
         id="n" />
      <use
         transform="matrix(0.07407407407407408,0,0,0.07407407407407408,0,0)"
         xlink:href="#n"
         id="b" />
      <path
         fill="#333"
         d="M30-248c87 1 191-15 191 75 0 78-77 80-158 76V0H30v-248zm33 125c57 0 124 11 124-50 0-59-68-47-124-48v98"
         id="o" />
      <path
         fill="#333"
         d="M27 0v-27h64v-190l-56 39v-29l58-41h29v221h61V0H27"
         id="p" />
      <path
         fill="#333"
         d="M101-251c68 0 85 55 85 127S166 4 100 4C33 4 14-52 14-124c0-73 17-127 87-127zm-1 229c47 0 54-49 54-102s-4-102-53-102c-51 0-55 48-55 102 0 53 5 102 54 102"
         id="q" />
      <g
         id="c">
        <use
           transform="matrix(0.07407407407407408,0,0,0.07407407407407408,0,0)"
           xlink:href="#o"
           id="use173" />
        <use
           transform="matrix(0.05185185185185186,0,0,0.05185185185185186,17.77777777777778,3.733333333333334)"
           xlink:href="#p"
           id="use175" />
        <use
           transform="matrix(0.05185185185185186,0,0,0.05185185185185186,28.148148148148152,3.733333333333334)"
           xlink:href="#q"
           id="use177" />
      </g>
      <path
         fill="#3a414a"
         d="M233-177c-1 41-23 64-60 70L243 0h-38l-65-103H63V0H30v-248c88 3 205-21 203 71zM63-129c60-2 137 13 137-47 0-61-80-42-137-45v92"
         id="r" />
      <path
         fill="#3a414a"
         d="M205 0l-28-72H64L36 0H1l101-248h38L239 0h-34zm-38-99l-47-123c-12 45-31 82-46 123h93"
         id="s" />
      <path
         fill="#3a414a"
         d="M30-248c118-7 216 8 213 122C240-48 200 0 122 0H30v-248zM63-27c89 8 146-16 146-99s-60-101-146-95v194"
         id="t" />
      <g
         id="d">
        <use
           transform="matrix(0.07407407407407408,0,0,0.07407407407407408,0,0)"
           xlink:href="#r"
           id="use183" />
        <use
           transform="matrix(0.07407407407407408,0,0,0.07407407407407408,19.185185185185187,0)"
           xlink:href="#i"
           id="use185" />
        <use
           transform="matrix(0.07407407407407408,0,0,0.07407407407407408,36.96296296296296,0)"
           xlink:href="#s"
           id="use187" />
        <use
           transform="matrix(0.07407407407407408,0,0,0.07407407407407408,54.74074074074074,0)"
           xlink:href="#t"
           id="use189" />
      </g>
      <path
         fill="#3a414a"
         d="M158-156l-14 65h45v19h-49L124 0h-19l15-72H56L41 0H22l15-72H2v-19h39l14-65H11v-19h48l15-71h20l-16 71h64l16-71h19l-16 71h37v19h-40zm-83 0L61-91h63l14-65H75"
         id="u" />
      <path
         fill="#3a414a"
         d="M27 0v-27h64v-190l-56 39v-29l58-41h29v221h61V0H27"
         id="v" />
      <path
         fill="#3a414a"
         d="M101-251c68 0 85 55 85 127S166 4 100 4C33 4 14-52 14-124c0-73 17-127 87-127zm-1 229c47 0 54-49 54-102s-4-102-53-102c-51 0-55 48-55 102 0 53 5 102 54 102"
         id="w" />
      <g
         id="e">
        <use
           transform="matrix(0.07407407407407408,0,0,0.07407407407407408,0,0)"
           xlink:href="#u"
           id="use195" />
        <use
           transform="matrix(0.07407407407407408,0,0,0.07407407407407408,14.814814814814817,0)"
           xlink:href="#v"
           id="use197" />
        <use
           transform="matrix(0.07407407407407408,0,0,0.07407407407407408,29.629629629629633,0)"
           xlink:href="#w"
           id="use199" />
      </g>
      <path
         fill="#333"
         d="M266 0h-40l-56-210L115 0H75L2-248h35L96-30l15-64 43-154h32l59 218 59-218h35"
         id="x" />
      <g
         id="f">
        <use
           transform="matrix(0.07407407407407408,0,0,0.07407407407407408,0,0)"
           xlink:href="#o"
           id="use203" />
        <use
           transform="matrix(0.05185185185185186,0,0,0.05185185185185186,17.77777777777778,3.733333333333334)"
           xlink:href="#x"
           id="use205" />
      </g>
      <g
         id="g">
        <use
           transform="matrix(0.07407407407407408,0,0,0.07407407407407408,0,0)"
           xlink:href="#u"
           id="use208" />
        <use
           transform="matrix(0.07407407407407408,0,0,0.07407407407407408,14.814814814814817,0)"
           xlink:href="#v"
           id="use210" />
        <use
           transform="matrix(0.07407407407407408,0,0,0.07407407407407408,27.629629629629633,0)"
           xlink:href="#v"
           id="use212" />
      </g>
      <g
         id="h">
        <use
           transform="matrix(0.07407407407407408,0,0,0.07407407407407408,0,0)"
           xlink:href="#o"
           id="use215" />
        <use
           transform="matrix(0.05185185185185186,0,0,0.05185185185185186,17.77777777777778,3.733333333333334)"
           xlink:href="#p"
           id="use217" />
        <use
           transform="matrix(0.05185185185185186,0,0,0.05185185185185186,26.748148148148154,3.733333333333334)"
           xlink:href="#p"
           id="use219" />
      </g>
    </defs>
  </g>
</svg>
