<?xml version="1.0" encoding="UTF-8" standalone="no"?>
<svg
   xmlns:lucid="lucid"
   xmlns:dc="http://purl.org/dc/elements/1.1/"
   xmlns:cc="http://creativecommons.org/ns#"
   xmlns:rdf="http://www.w3.org/1999/02/22-rdf-syntax-ns#"
   xmlns:svg="http://www.w3.org/2000/svg"
   xmlns="http://www.w3.org/2000/svg"
   xmlns:xlink="http://www.w3.org/1999/xlink"
   xmlns:sodipodi="http://sodipodi.sourceforge.net/DTD/sodipodi-0.dtd"
   xmlns:inkscape="http://www.inkscape.org/namespaces/inkscape"
   width="2220"
   height="380"
   version="1.1"
   id="svg242"
   sodipodi:docname="RA1.svg"
   inkscape:version="0.92.5 (2060ec1f9f, 2020-04-08)">
  <metadata
     id="metadata248">
    <rdf:RDF>
      <cc:Work
         rdf:about="">
        <dc:format>image/svg+xml</dc:format>
        <dc:type
           rdf:resource="http://purl.org/dc/dcmitype/StillImage" />
        <dc:title></dc:title>
      </cc:Work>
    </rdf:RDF>
  </metadata>
  <defs
     id="defs246" />
  <sodipodi:namedview
     pagecolor="#ffffff"
     bordercolor="#666666"
     borderopacity="1"
     objecttolerance="10"
     gridtolerance="10"
     guidetolerance="10"
     inkscape:pageopacity="0"
     inkscape:pageshadow="2"
     inkscape:window-width="3840"
     inkscape:window-height="2092"
     id="namedview244"
     showgrid="false"
     units="px"
     inkscape:zoom="0.98103103"
     inkscape:cx="733.20086"
     inkscape:cy="342.75641"
     inkscape:window-x="0"
     inkscape:window-y="0"
     inkscape:window-maximized="1"
     inkscape:current-layer="g240" />
  <g
     transform="translate(-80,-480)"
     lucid:page-tab-id="0_0"
     id="g240">
    <path
       d="m 420.5,500.25 c 0.14,0 0.25,0.1 0.25,0.25 v 339 c 0,0.14 -0.1,0.25 -0.25,0.25 -0.14,0 -0.25,-0.1 -0.25,-0.25 v -339 c 0,-0.14 0.1,-0.25 0.25,-0.25 z m 620,0 c 0.14,0 0.25,0.1 0.25,0.25 v 339 c 0,0.14 -0.1,0.25 -0.25,0.25 -0.14,0 -0.25,-0.1 -0.25,-0.25 v -339 c 0,-0.14 0.1,-0.25 0.25,-0.25 z m 620,0 c 0.14,0 0.25,0.1 0.25,0.25 v 339 c 0,0.14 -0.1,0.25 -0.25,0.25 -0.14,0 -0.25,-0.1 -0.25,-0.25 v -339 c 0,-0.14 0.1,-0.25 0.25,-0.25 z"
       id="path4"
       inkscape:connector-curvature="0"
       style="fill:none;stroke:#3a414a;stroke-width:0.5" />
    <path
       d="M 219,520 H 399 V 780 H 219 Z"
       id="path6"
       inkscape:connector-curvature="0"
       style="fill:#ffffff;stroke:#3a414a" />
    <use
       xlink:href="#a"
       transform="translate(246.14815,656.58333)"
       id="use8"
       x="0"
       y="0"
       width="100%"
       height="100%" />
    <path
       d="m 137.2,720.5 h -17.7 v -1 h 17.7 z m 64.92,0 h -42.8 v -1 h 42.8 z"
       id="path10"
       inkscape:connector-curvature="0"
       style="fill:#3a414a;stroke:#3a414a;stroke-width:0.05" />
    <path
       d="M 119.5,720.5 H 119 v -1 h 0.5 z"
       id="path12"
       inkscape:connector-curvature="0"
       style="fill:#3a414a;stroke:#3a414a;stroke-width:0.05" />
    <path
       d="m 216.88,720 -14.26,4.64 v -9.28 z"
       id="path14"
       inkscape:connector-curvature="0"
       style="fill:#3a414a" />
    <path
       d="m 218.5,720 -16.38,5.32 v -10.64 z m -15.38,3.95 12.14,-3.95 -12.14,-3.95 z"
       id="path16"
       inkscape:connector-curvature="0"
       style="fill:#3a414a;stroke:#3a414a;stroke-width:0.05" />
    <use
       xlink:href="#b"
       transform="translate(137.18515,725.33333)"
       id="use18"
       x="0"
       y="0"
       width="100%"
       height="100%" />
    <path
       d="m 128.12,640.5 h -8.62 v -1 h 8.62 z m 74,0 h -35.48 v -1 h 35.48 z m -82.62,0 H 119 v -1 h 0.5 z"
       id="path20"
       inkscape:connector-curvature="0"
       style="fill:#3a414a;stroke:#3a414a;stroke-width:0.05" />
    <path
       d="m 216.88,640 -14.26,4.64 v -9.28 z"
       id="path22"
       inkscape:connector-curvature="0"
       style="fill:#3a414a" />
    <path
       d="m 218.5,640 -16.38,5.32 v -10.64 z m -15.38,3.95 12.14,-3.95 -12.14,-3.95 z"
       id="path24"
       inkscape:connector-curvature="0"
       style="fill:#3a414a;stroke:#3a414a;stroke-width:0.05" />
    <use
       xlink:href="#c"
       transform="translate(128.12426,645.33333)"
       id="use26"
       x="0"
       y="0"
       width="100%"
       height="100%" />
    <path
       d="m 219,740 h 180 v 40 H 219 Z"
       id="path28"
       inkscape:connector-curvature="0"
       style="fill:#ffffff;stroke:#3a414a" />
    <use
       xlink:href="#d"
       transform="translate(272.03704,769.23813)"
       id="use30"
       x="0"
       y="0"
       width="100%"
       height="100%" />
    <path
       d="m 219,784 c 0,-3.3 2.7,-6 6,-6 h 168 c 3.3,0 6,2.7 6,6 v 30 c 0,3.3 -2.7,6 -6,6 H 225 c -3.3,0 -6,-2.7 -6,-6 z"
       id="path32"
       inkscape:connector-curvature="0"
       style="fill:#ffffff;fill-opacity:0;stroke:#000000;stroke-opacity:0" />
    <use
       xlink:href="#e"
       transform="translate(286.77778,813.03733)"
       id="use34"
       x="0"
       y="0"
       width="100%"
       height="100%" />
    <path
       d="M 540,520 H 720 V 780 H 540 Z"
       id="path36"
       inkscape:connector-curvature="0"
       style="fill:#ffffff;stroke:#3a414a" />
    <use
       xlink:href="#a"
       transform="translate(567.14815,656.58333)"
       id="use38"
       x="0"
       y="0"
       width="100%"
       height="100%" />
    <path
       d="M 457.48,600.5 H 439.5 v -1 h 17.98 z m 65.64,0 h -43.5 v -1 h 43.5 z m -83.62,0 H 439 v -1 h 0.5 z"
       id="path40"
       inkscape:connector-curvature="0"
       style="fill:#3a414a;stroke:#3a414a;stroke-width:0.05" />
    <path
       d="m 537.88,600 -14.26,4.64 v -9.28 z"
       id="path42"
       inkscape:connector-curvature="0"
       style="fill:#3a414a" />
    <path
       d="m 539.5,600 -16.38,5.32 v -10.64 z m -15.38,3.95 12.14,-3.95 -12.14,-3.95 z"
       id="path44"
       inkscape:connector-curvature="0"
       style="fill:#3a414a;stroke:#3a414a;stroke-width:0.05" />
    <use
       xlink:href="#b"
       transform="translate(457.47921,605.33333)"
       id="use46"
       x="0"
       y="0"
       width="100%"
       height="100%" />
    <path
       d="m 540,740 h 180 v 40 H 540 Z"
       id="path48"
       inkscape:connector-curvature="0"
       style="fill:#ffffff;stroke:#3a414a" />
    <use
       xlink:href="#d"
       transform="translate(593.03704,769.33333)"
       id="use50"
       x="0"
       y="0"
       width="100%"
       height="100%" />
    <path
       d="m 540,784 c 0,-3.3 2.7,-6 6,-6 h 168 c 3.3,0 6,2.7 6,6 v 30 c 0,3.3 -2.7,6 -6,6 H 546 c -3.3,0 -6,-2.7 -6,-6 z"
       id="path52"
       inkscape:connector-curvature="0"
       style="fill:#ffffff;fill-opacity:0;stroke:#000000;stroke-opacity:0" />
    <use
       xlink:href="#e"
       transform="translate(607.77778,813.03733)"
       id="use54"
       x="0"
       y="0"
       width="100%"
       height="100%" />
    <path
       d="m 839,520 h 180 V 780 H 839 Z"
       id="path56"
       inkscape:connector-curvature="0"
       style="fill:#ffffff;stroke:#3a414a" />
    <use
       xlink:href="#a"
       transform="translate(866.14815,656.58333)"
       id="use58"
       x="0"
       y="0"
       width="100%"
       height="100%" />
    <path
       d="m 748.84,640.5 h -8.34 v -1 h 8.34 z m 73.28,0 h -34.76 v -1 h 34.76 z m -81.62,0 H 740 v -1 h 0.5 z"
       id="path60"
       inkscape:connector-curvature="0"
       style="fill:#3a414a;stroke:#3a414a;stroke-width:0.05" />
    <path
       d="m 836.88,640 -14.26,4.64 v -9.28 z"
       id="path62"
       inkscape:connector-curvature="0"
       style="fill:#3a414a" />
    <path
       d="m 838.5,640 -16.38,5.32 v -10.64 z m -15.38,3.95 12.14,-3.95 -12.14,-3.95 z"
       id="path64"
       inkscape:connector-curvature="0"
       style="fill:#3a414a;stroke:#3a414a;stroke-width:0.05" />
    <use
       xlink:href="#c"
       transform="translate(748.839,645.33333)"
       id="use66"
       x="0"
       y="0"
       width="100%"
       height="100%" />
    <path
       d="m 839,740 h 180 v 40 H 839 Z"
       id="path68"
       inkscape:connector-curvature="0"
       style="fill:#ffffff;stroke:#3a414a" />
    <use
       xlink:href="#d"
       transform="translate(892.03704,769.33333)"
       id="use70"
       x="0"
       y="0"
       width="100%"
       height="100%" />
    <path
       d="m 839,784 c 0,-3.3 2.7,-6 6,-6 h 168 c 3.3,0 6,2.7 6,6 v 30 c 0,3.3 -2.7,6 -6,6 H 845 c -3.3,0 -6,-2.7 -6,-6 z"
       id="path72"
       inkscape:connector-curvature="0"
       style="fill:#ffffff;fill-opacity:0;stroke:#000000;stroke-opacity:0" />
    <use
       xlink:href="#f"
       transform="translate(907.77778,813.03733)"
       id="use74"
       x="0"
       y="0"
       width="100%"
       height="100%" />
    <path
       d="m 1160,520 h 180 v 260 h -180 z"
       id="path76"
       inkscape:connector-curvature="0"
       style="fill:#ffffff;stroke:#3a414a" />
    <use
       xlink:href="#a"
       transform="translate(1187.1481,656.58333)"
       id="use78"
       x="0"
       y="0"
       width="100%"
       height="100%" />
    <path
       d="m 1077.33,540.5 h -17.83 v -1 h 17.83 z m 65.3,0 h -43.15 v -1 h 43.14 z m -83.13,0 h -0.5 v -1 h 0.5 z"
       id="path80"
       inkscape:connector-curvature="0"
       style="fill:#3a414a;stroke:#3a414a;stroke-width:0.05" />
    <path
       d="m 1157.38,540 -14.26,4.64 v -9.28 z"
       id="path82"
       inkscape:connector-curvature="0"
       style="fill:#3a414a" />
    <path
       d="m 1159,540 -16.38,5.32 v -10.64 z m -15.38,3.95 12.14,-3.95 -12.14,-3.95 z"
       id="path84"
       inkscape:connector-curvature="0"
       style="fill:#3a414a;stroke:#3a414a;stroke-width:0.05" />
    <use
       xlink:href="#b"
       transform="translate(1077.3322,545.33333)"
       id="use86"
       x="0"
       y="0"
       width="100%"
       height="100%" />
    <path
       d="m 1160,740 h 180 v 40 h -180 z"
       id="path88"
       inkscape:connector-curvature="0"
       style="fill:#ffffff;stroke:#3a414a" />
    <use
       xlink:href="#d"
       transform="translate(1213.037,769.33333)"
       id="use90"
       x="0"
       y="0"
       width="100%"
       height="100%" />
    <path
       d="m 1160,784 c 0,-3.3 2.7,-6 6,-6 h 168 c 3.3,0 6,2.7 6,6 v 30 c 0,3.3 -2.7,6 -6,6 h -168 c -3.3,0 -6,-2.7 -6,-6 z"
       id="path92"
       inkscape:connector-curvature="0"
       style="fill:#ffffff;fill-opacity:0;stroke:#000000;stroke-opacity:0" />
    <use
       xlink:href="#e"
       transform="translate(1227.7778,813.03733)"
       id="use94"
       x="0"
       y="0"
       width="100%"
       height="100%" />
    <path
       d="m 1459,520 h 180 v 260 h -180 z"
       id="path96"
       inkscape:connector-curvature="0"
       style="fill:#ffffff;stroke:#3a414a" />
    <use
       xlink:href="#a"
       transform="translate(1486.1481,656.58333)"
       id="use98"
       x="0"
       y="0"
       width="100%"
       height="100%" />
    <path
       d="m 1370.42,520.5 h -9.92 v -1 h 9.92 z m 71.7,0 h -36.34 v -1 h 36.34 z m -81.62,0 h -0.5 v -1 h 0.5 z"
       id="path100"
       inkscape:connector-curvature="0"
       style="fill:#3a414a;stroke:#3a414a;stroke-width:0.05" />
    <path
       d="m 1456.88,520 -14.26,4.64 v -9.28 z"
       id="path102"
       inkscape:connector-curvature="0"
       style="fill:#3a414a" />
    <path
       d="m 1458.5,520 -16.38,5.32 v -10.64 z m -15.38,3.95 12.14,-3.95 -12.14,-3.95 z"
       id="path104"
       inkscape:connector-curvature="0"
       style="fill:#3a414a;stroke:#3a414a;stroke-width:0.05" />
    <use
       xlink:href="#g"
       transform="translate(1370.4205,525.33333)"
       id="use106"
       x="0"
       y="0"
       width="100%"
       height="100%" />
    <path
       d="m 1459,740 h 180 v 40 h -180 z"
       id="path108"
       inkscape:connector-curvature="0"
       style="fill:#ffffff;stroke:#3a414a" />
    <use
       xlink:href="#d"
       transform="translate(1512.037,769.33333)"
       id="use110"
       x="0"
       y="0"
       width="100%"
       height="100%" />
    <path
       d="m 1459,784 c 0,-3.3 2.7,-6 6,-6 h 168 c 3.3,0 6,2.7 6,6 v 30 c 0,3.3 -2.7,6 -6,6 h -168 c -3.3,0 -6,-2.7 -6,-6 z"
       id="path112"
       inkscape:connector-curvature="0"
       style="fill:#ffffff;fill-opacity:0;stroke:#000000;stroke-opacity:0" />
    <use
       xlink:href="#f"
       transform="translate(1527.7778,813.03733)"
       id="use114"
       x="0"
       y="0"
       width="100%"
       height="100%" />
    <path
       d="m 1781,520 h 180 v 260 h -180 z"
       id="path116"
       inkscape:connector-curvature="0"
       style="fill:#ffffff;stroke:#3a414a" />
    <use
       xlink:href="#a"
       transform="translate(1808.1481,656.58333)"
       id="use118"
       x="0"
       y="0"
       width="100%"
       height="100%" />
    <path
       d="m 1698.48,720.5 h -17.98 v -1 h 17.98 z m 65.64,0 h -43.5 v -1 h 43.5 z m -83.62,0 h -0.5 v -1 h 0.5 z"
       id="path120"
       inkscape:connector-curvature="0"
       style="fill:#3a414a;stroke:#3a414a;stroke-width:0.05" />
    <path
       d="m 1778.88,720 -14.26,4.64 v -9.28 z"
       id="path122"
       inkscape:connector-curvature="0"
       style="fill:#3a414a" />
    <path
       d="m 1780.5,720 -16.38,5.32 v -10.64 z m -15.38,3.95 12.14,-3.95 -12.14,-3.95 z"
       id="path124"
       inkscape:connector-curvature="0"
       style="fill:#3a414a;stroke:#3a414a;stroke-width:0.05" />
    <use
       xlink:href="#b"
       transform="translate(1698.4792,725.33333)"
       id="use126"
       x="0"
       y="0"
       width="100%"
       height="100%" />
    <path
       d="m 1781,740 h 180 v 40 h -180 z"
       id="path128"
       inkscape:connector-curvature="0"
       style="fill:#ffffff;stroke:#3a414a" />
    <use
       xlink:href="#d"
       transform="translate(1834.037,769.33333)"
       id="use130"
       x="0"
       y="0"
       width="100%"
       height="100%" />
    <path
       d="m 1781,784 c 0,-3.3 2.7,-6 6,-6 h 168 c 3.3,0 6,2.7 6,6 v 30 c 0,3.3 -2.7,6 -6,6 h -168 c -3.3,0 -6,-2.7 -6,-6 z"
       id="path132"
       inkscape:connector-curvature="0"
       style="fill:#ffffff;fill-opacity:0;stroke:#000000;stroke-opacity:0" />
    <use
       xlink:href="#f"
       transform="translate(1849.7778,813.03733)"
       id="use134"
       x="0"
       y="0"
       width="100%"
       height="100%" />
    <path
       d="m 2080,520 h 180 v 260 h -180 z"
       id="path136"
       inkscape:connector-curvature="0"
       style="fill:#ffffff;stroke:#3a414a" />
    <use
       xlink:href="#a"
       transform="translate(2107.1481,656.58333)"
       id="use138"
       x="0"
       y="0"
       width="100%"
       height="100%" />
    <path
       d="m 1990.54,640.5 h -9.04 v -1 h 9.04 z m 72.58,0 h -35.46 v -1 h 35.46 z m -81.62,0 h -0.5 v -1 h 0.5 z"
       id="path140"
       inkscape:connector-curvature="0"
       style="fill:#3a414a;stroke:#3a414a;stroke-width:0.05" />
    <path
       d="m 2077.88,640 -14.26,4.64 v -9.28 z"
       id="path142"
       inkscape:connector-curvature="0"
       style="fill:#3a414a" />
    <path
       d="m 2079.5,640 -16.38,5.32 v -10.64 z m -15.38,3.95 12.14,-3.95 -12.14,-3.95 z"
       id="path144"
       inkscape:connector-curvature="0"
       style="fill:#3a414a;stroke:#3a414a;stroke-width:0.05" />
    <use
       xlink:href="#h"
       transform="translate(1990.539,645.33333)"
       id="use146"
       x="0"
       y="0"
       width="100%"
       height="100%" />
    <path
       d="m 2080,740 h 180 v 40 h -180 z"
       id="path148"
       inkscape:connector-curvature="0"
       style="fill:#ffffff;stroke:#3a414a" />
    <use
       xlink:href="#d"
       transform="translate(2133.037,769.33333)"
       id="use150"
       x="0"
       y="0"
       width="100%"
       height="100%" />
    <path
       d="m 2080,784 c 0,-3.3 2.7,-6 6,-6 h 168 c 3.3,0 6,2.7 6,6 v 30 c 0,3.3 -2.7,6 -6,6 h -168 c -3.3,0 -6,-2.7 -6,-6 z"
       id="path152"
       inkscape:connector-curvature="0"
       style="fill:#ffffff;fill-opacity:0;stroke:#000000;stroke-opacity:0" />
    <use
       xlink:href="#i"
       transform="translate(2147.7778,813.03733)"
       id="use154"
       x="0"
       y="0"
       width="100%"
       height="100%" />
    <defs
       id="defs238">
      <path
         d="m 30,0 v -248 h 187 v 28 H 63 v 79 h 144 v 27 H 63 v 87 H 225 V 0 H 30"
         id="j"
         inkscape:connector-curvature="0"
         style="fill:#3a414a" />
      <path
         d="M 195,0 121,-108 45,0 H 8 l 94,-129 -87,-119 h 37 l 69,98 67,-98 h 37 l -84,118 92,130 h -38"
         id="k"
         inkscape:connector-curvature="0"
         style="fill:#3a414a" />
      <path
         d="m 212,-179 c -10,-28 -35,-45 -73,-45 -59,0 -87,40 -87,99 0,60 29,101 89,101 43,0 62,-24 78,-52 l 27,14 C 228,-24 195,4 139,4 59,4 22,-46 18,-125 c -6,-104 99,-153 187,-111 19,9 31,26 39,46"
         id="l"
         inkscape:connector-curvature="0"
         style="fill:#3a414a" />
      <path
         d="M 232,-93 C 231,-28 192,4 128,4 67,4 28,-28 28,-90 v -158 h 33 c 8,89 -33,224 67,224 102,0 64,-133 71,-224 h 33 v 155"
         id="m"
         inkscape:connector-curvature="0"
         style="fill:#3a414a" />
      <path
         d="M 127,-220 V 0 H 93 V -220 H 8 v -28 h 204 v 28 h -85"
         id="n"
         inkscape:connector-curvature="0"
         style="fill:#3a414a" />
      <g
         id="a">
        <use
           transform="scale(0.07407407)"
           xlink:href="#j"
           id="use161"
           x="0"
           y="0"
           width="100%"
           height="100%" />
        <use
           transform="matrix(0.07407407,0,0,0.07407407,17.777778,0)"
           xlink:href="#k"
           id="use163"
           x="0"
           y="0"
           width="100%"
           height="100%" />
        <use
           transform="matrix(0.07407407,0,0,0.07407407,35.555556,0)"
           xlink:href="#j"
           id="use165"
           x="0"
           y="0"
           width="100%"
           height="100%" />
        <use
           transform="matrix(0.07407407,0,0,0.07407407,53.333333,0)"
           xlink:href="#l"
           id="use167"
           x="0"
           y="0"
           width="100%"
           height="100%" />
        <use
           transform="matrix(0.07407407,0,0,0.07407407,72.518519,0)"
           xlink:href="#m"
           id="use169"
           x="0"
           y="0"
           width="100%"
           height="100%" />
        <use
           transform="matrix(0.07407407,0,0,0.07407407,91.703704,0)"
           xlink:href="#n"
           id="use171"
           x="0"
           y="0"
           width="100%"
           height="100%" />
        <use
           transform="matrix(0.07407407,0,0,0.07407407,107.92593,0)"
           xlink:href="#j"
           id="use173"
           x="0"
           y="0"
           width="100%"
           height="100%" />
      </g>
      <path
         d="m 240,0 2,-218 C 219,-142 188,-73 162,0 H 139 L 58,-218 59,0 H 30 v -248 h 44 l 77,211 c 21,-75 51,-140 76,-211 h 43 V 0 h -30"
         id="o"
         inkscape:connector-curvature="0"
         style="fill:#333333" />
      <use
         transform="scale(0.07407407)"
         xlink:href="#o"
         id="b"
         x="0"
         y="0"
         width="100%"
         height="100%" />
      <path
         d="m 30,-248 c 87,1 191,-15 191,75 0,78 -77,80 -158,76 V 0 H 30 Z m 33,125 c 57,0 124,11 124,-50 0,-59 -68,-47 -124,-48 v 98"
         id="p"
         inkscape:connector-curvature="0"
         style="fill:#333333" />
      <path
         d="m 27,0 v -27 h 64 v -190 l -56,39 v -29 l 58,-41 h 29 v 221 h 61 V 0 H 27"
         id="q"
         inkscape:connector-curvature="0"
         style="fill:#333333" />
      <path
         d="m 101,-251 c 68,0 85,55 85,127 0,72 -20,128 -86,128 -67,0 -86,-56 -86,-128 0,-73 17,-127 87,-127 z m -1,229 c 47,0 54,-49 54,-102 0,-53 -4,-102 -53,-102 -51,0 -55,48 -55,102 0,53 5,102 54,102"
         id="r"
         inkscape:connector-curvature="0"
         style="fill:#333333" />
      <g
         id="c">
        <use
           transform="scale(0.07407407)"
           xlink:href="#p"
           id="use181"
           x="0"
           y="0"
           width="100%"
           height="100%" />
        <use
           transform="matrix(0.05185185,0,0,0.05185185,17.777778,3.7333333)"
           xlink:href="#q"
           id="use183"
           x="0"
           y="0"
           width="100%"
           height="100%" />
        <use
           transform="matrix(0.05185185,0,0,0.05185185,28.148148,3.7333333)"
           xlink:href="#r"
           id="use185"
           x="0"
           y="0"
           width="100%"
           height="100%" />
      </g>
      <path
         d="m 233,-177 c -1,41 -23,64 -60,70 L 243,0 H 205 L 140,-103 H 63 V 0 H 30 v -248 c 88,3 205,-21 203,71 z m -170,48 c 60,-2 137,13 137,-47 0,-61 -80,-42 -137,-45 v 92"
         id="s"
         inkscape:connector-curvature="0"
         style="fill:#3a414a" />
      <path
         d="M 205,0 177,-72 H 64 L 36,0 H 1 l 101,-248 h 38 L 239,0 Z m -38,-99 -47,-123 c -12,45 -31,82 -46,123 h 93"
         id="t"
         inkscape:connector-curvature="0"
         style="fill:#3a414a" />
      <path
         d="m 30,-248 c 118,-7 216,8 213,122 C 240,-48 200,0 122,0 H 30 Z m 33,221 c 89,8 146,-16 146,-99 0,-83 -60,-101 -146,-95 v 194"
         id="u"
         inkscape:connector-curvature="0"
         style="fill:#3a414a" />
      <g
         id="d">
        <use
           transform="scale(0.07407407)"
           xlink:href="#s"
           id="use191"
           x="0"
           y="0"
           width="100%"
           height="100%" />
        <use
           transform="matrix(0.07407407,0,0,0.07407407,19.185185,0)"
           xlink:href="#j"
           id="use193"
           x="0"
           y="0"
           width="100%"
           height="100%" />
        <use
           transform="matrix(0.07407407,0,0,0.07407407,36.962963,0)"
           xlink:href="#t"
           id="use195"
           x="0"
           y="0"
           width="100%"
           height="100%" />
        <use
           transform="matrix(0.07407407,0,0,0.07407407,54.740741,0)"
           xlink:href="#u"
           id="use197"
           x="0"
           y="0"
           width="100%"
           height="100%" />
      </g>
      <path
         d="m 158,-156 -14,65 h 45 v 19 H 140 L 124,0 h -19 l 15,-72 H 56 L 41,0 H 22 L 37,-72 H 2 v -19 h 39 l 14,-65 H 11 v -19 h 48 l 15,-71 h 20 l -16,71 h 64 l 16,-71 h 19 l -16,71 h 37 v 19 z m -83,0 -14,65 h 63 l 14,-65 H 75"
         id="v"
         inkscape:connector-curvature="0"
         style="fill:#3a414a" />
      <path
         d="m 27,0 v -27 h 64 v -190 l -56,39 v -29 l 58,-41 h 29 v 221 h 61 V 0 H 27"
         id="w"
         inkscape:connector-curvature="0"
         style="fill:#3a414a" />
      <path
         d="m 101,-251 c 68,0 85,55 85,127 0,72 -20,128 -86,128 -67,0 -86,-56 -86,-128 0,-73 17,-127 87,-127 z m -1,229 c 47,0 54,-49 54,-102 0,-53 -4,-102 -53,-102 -51,0 -55,48 -55,102 0,53 5,102 54,102"
         id="x"
         inkscape:connector-curvature="0"
         style="fill:#3a414a" />
      <g
         id="e">
        <use
           transform="scale(0.07407407)"
           xlink:href="#v"
           id="use203"
           x="0"
           y="0"
           width="100%"
           height="100%" />
        <use
           transform="matrix(0.07407407,0,0,0.07407407,14.814815,0)"
           xlink:href="#w"
           id="use205"
           x="0"
           y="0"
           width="100%"
           height="100%" />
        <use
           transform="matrix(0.07407407,0,0,0.07407407,29.62963,0)"
           xlink:href="#x"
           id="use207"
           x="0"
           y="0"
           width="100%"
           height="100%" />
      </g>
      <g
         id="f">
        <use
           transform="scale(0.07407407)"
           xlink:href="#v"
           id="use210"
           x="0"
           y="0"
           width="100%"
           height="100%" />
        <use
           transform="matrix(0.07407407,0,0,0.07407407,14.814815,0)"
           xlink:href="#w"
           id="use212"
           x="0"
           y="0"
           width="100%"
           height="100%" />
        <use
           transform="matrix(0.07407407,0,0,0.07407407,27.62963,0)"
           xlink:href="#w"
           id="use214"
           x="0"
           y="0"
           width="100%"
           height="100%" />
      </g>
      <path
         d="M 266,0 H 226 L 170,-210 115,0 H 75 L 2,-248 h 35 l 59,218 15,-64 43,-154 h 32 l 59,218 59,-218 h 35"
         id="y"
         inkscape:connector-curvature="0"
         style="fill:#333333" />
      <g
         id="g">
        <use
           transform="scale(0.07407407)"
           xlink:href="#p"
           id="use218"
           x="0"
           y="0"
           width="100%"
           height="100%" />
        <use
           transform="matrix(0.05185185,0,0,0.05185185,17.777778,3.7333333)"
           xlink:href="#y"
           id="use220"
           x="0"
           y="0"
           width="100%"
           height="100%" />
      </g>
      <g
         id="h">
        <use
           transform="scale(0.07407407)"
           xlink:href="#p"
           id="use223"
           x="0"
           y="0"
           width="100%"
           height="100%" />
        <use
           transform="matrix(0.05185185,0,0,0.05185185,17.777778,3.7333333)"
           xlink:href="#q"
           id="use225"
           x="0"
           y="0"
           width="100%"
           height="100%" />
        <use
           transform="matrix(0.05185185,0,0,0.05185185,26.748148,3.7333333)"
           xlink:href="#q"
           id="use227"
           x="0"
           y="0"
           width="100%"
           height="100%" />
      </g>
      <path
         d="m 101,-251 c 82,-7 93,87 43,132 L 82,-64 C 71,-53 59,-42 53,-27 H 182 V 0 H 18 c 2,-99 128,-94 128,-182 0,-28 -16,-43 -45,-43 -29,0 -46,15 -49,41 l -32,-3 c 6,-41 34,-60 81,-64"
         id="z"
         inkscape:connector-curvature="0"
         style="fill:#3a414a" />
      <g
         id="i">
        <use
           transform="scale(0.07407407)"
           xlink:href="#v"
           id="use231"
           x="0"
           y="0"
           width="100%"
           height="100%" />
        <use
           transform="matrix(0.07407407,0,0,0.07407407,14.814815,0)"
           xlink:href="#w"
           id="use233"
           x="0"
           y="0"
           width="100%"
           height="100%" />
        <use
           transform="matrix(0.07407407,0,0,0.07407407,29.62963,0)"
           xlink:href="#z"
           id="use235"
           x="0"
           y="0"
           width="100%"
           height="100%" />
      </g>
    </defs>
  </g>
</svg>
