<?xml version="1.0" encoding="UTF-8" standalone="no"?>
<svg
   xmlns:lucid="lucid"
   xmlns:dc="http://purl.org/dc/elements/1.1/"
   xmlns:cc="http://creativecommons.org/ns#"
   xmlns:rdf="http://www.w3.org/1999/02/22-rdf-syntax-ns#"
   xmlns:svg="http://www.w3.org/2000/svg"
   xmlns="http://www.w3.org/2000/svg"
   xmlns:xlink="http://www.w3.org/1999/xlink"
   xmlns:sodipodi="http://sodipodi.sourceforge.net/DTD/sodipodi-0.dtd"
   xmlns:inkscape="http://www.inkscape.org/namespaces/inkscape"
   width="2620"
   height="380"
   version="1.1"
   id="svg301"
   sodipodi:docname="RA2.svg"
   inkscape:version="0.92.5 (2060ec1f9f, 2020-04-08)">
  <metadata
     id="metadata307">
    <rdf:RDF>
      <cc:Work
         rdf:about="">
        <dc:format>image/svg+xml</dc:format>
        <dc:type
           rdf:resource="http://purl.org/dc/dcmitype/StillImage" />
      </cc:Work>
    </rdf:RDF>
  </metadata>
  <defs
     id="defs305" />
  <sodipodi:namedview
     pagecolor="#ffffff"
     bordercolor="#666666"
     borderopacity="1"
     objecttolerance="10"
     gridtolerance="10"
     guidetolerance="10"
     inkscape:pageopacity="0"
     inkscape:pageshadow="2"
     inkscape:window-width="3840"
     inkscape:window-height="2092"
     id="namedview303"
     showgrid="false"
     inkscape:zoom="0.8312553"
     inkscape:cx="1578.4793"
     inkscape:cy="33.587572"
     inkscape:window-x="0"
     inkscape:window-y="0"
     inkscape:window-maximized="1"
     inkscape:current-layer="g299" />
  <g
     transform="translate(-80 -480)"
     lucid:page-tab-id="0_0"
     id="g299">
    <path
       d="M420.5 500.25c.14 0 .25.1.25.25v339c0 .14-.1.25-.25.25-.14 0-.25-.1-.25-.25v-339c0-.14.1-.25.25-.25zM1040.5 500.25c.14 0 .25.1.25.25v339c0 .14-.1.25-.25.25-.14 0-.25-.1-.25-.25v-339c0-.14.1-.25.25-.25z"
       stroke="#3a414a"
       stroke-width=".5"
       fill="none"
       id="path4" />
    <path
       d="M219 520h180v260H219z"
       stroke="#3a414a"
       fill="#fff"
       id="path6" />
    <use
       xlink:href="#a"
       transform="matrix(1,0,0,1,230.99999999999955,532) translate(15.148148148148138 124.58333333333334)"
       id="use8" />
    <path
       d="M137.2 720.5h-17.7v-1h17.7zm64.92 0h-42.8v-1h42.8z"
       stroke="#3a414a"
       stroke-width=".05"
       fill="#3a414a"
       id="path10" />
    <path
       d="M119.5 720.5h-.5v-1h.5z"
       stroke="#3a414a"
       stroke-width=".05"
       fill="#3a414a"
       id="path12" />
    <path
       d="M216.88 720l-14.26 4.64v-9.28z"
       fill="#3a414a"
       id="path14" />
    <path
       d="M218.5 720l-16.38 5.32v-10.64zm-15.38 3.95l12.14-3.95-12.14-3.95z"
       stroke="#3a414a"
       stroke-width=".05"
       fill="#3a414a"
       id="path16" />
    <use
       xlink:href="#b"
       transform="matrix(1,0,0,1,137.18514606160744,704) translate(0 21.333333333333336)"
       id="use18" />
    <path
       d="M128.12 640.5h-8.62v-1h8.62zm74 0h-35.48v-1h35.48zM119.5 640.5h-.5v-1h.5z"
       stroke="#3a414a"
       stroke-width=".05"
       fill="#3a414a"
       id="path20" />
    <path
       d="M216.88 640l-14.26 4.64v-9.28z"
       fill="#3a414a"
       id="path22" />
    <path
       d="M218.5 640l-16.38 5.32v-10.64zm-15.38 3.95l12.14-3.95-12.14-3.95z"
       stroke="#3a414a"
       stroke-width=".05"
       fill="#3a414a"
       id="path24" />
    <use
       xlink:href="#c"
       transform="matrix(1,0,0,1,128.12426125201625,624) translate(0 21.333333333333336)"
       id="use26" />
    <path
       d="M219 740h180v40H219z"
       stroke="#3a414a"
       fill="#fff"
       id="path28" />
    <use
       xlink:href="#d"
       transform="matrix(1,0,0,1,218.99999999999955,739.9999999999998) translate(53.03703703703704 29.238133333333337)"
       id="use30" />
    <path
       d="M219 784c0-3.3 2.7-6 6-6h168c3.3 0 6 2.7 6 6v30c0 3.3-2.7 6-6 6H225c-3.3 0-6-2.7-6-6z"
       stroke="#000"
       stroke-opacity="0"
       fill="#fff"
       fill-opacity="0"
       id="path32" />
    <use
       xlink:href="#e"
       transform="matrix(1,0,0,1,223.99999999999955,783) translate(62.77777777777777 30.037333333333336)"
       id="use34" />
    <path
       d="M540 520h180v260H540z"
       stroke="#3a414a"
       fill="#fff"
       id="path36" />
    <use
       xlink:href="#a"
       transform="matrix(1,0,0,1,551.9999999999994,532) translate(15.148148148148138 124.58333333333334)"
       id="use38" />
    <path
       d="M457.48 600.5H439.5v-1h17.98zm65.64 0h-43.5v-1h43.5zM439.5 600.5h-.5v-1h.5z"
       stroke="#3a414a"
       stroke-width=".05"
       fill="#3a414a"
       id="path40" />
    <path
       d="M537.88 600l-14.26 4.64v-9.28z"
       fill="#3a414a"
       id="path42" />
    <path
       d="M539.5 600l-16.38 5.32v-10.64zm-15.38 3.95l12.14-3.95-12.14-3.95z"
       stroke="#3a414a"
       stroke-width=".05"
       fill="#3a414a"
       id="path44" />
    <use
       xlink:href="#b"
       transform="matrix(1,0,0,1,457.47920857553447,584) translate(0 21.333333333333336)"
       id="use46" />
    <path
       d="M540 740h180v40H540z"
       stroke="#3a414a"
       fill="#fff"
       id="path48" />
    <use
       xlink:href="#d"
       transform="matrix(1,0,0,1,539.9999999999994,740.0000000000002) translate(53.03703703703704 29.333333333333336)"
       id="use50" />
    <path
       d="M540 784c0-3.3 2.7-6 6-6h168c3.3 0 6 2.7 6 6v30c0 3.3-2.7 6-6 6H546c-3.3 0-6-2.7-6-6z"
       stroke="#000"
       stroke-opacity="0"
       fill="#fff"
       fill-opacity="0"
       id="path52" />
    <use
       xlink:href="#e"
       transform="matrix(1,0,0,1,544.9999999999994,783) translate(62.77777777777777 30.037333333333336)"
       id="use54" />
    <path
       d="M839 520h180v260H839z"
       stroke="#3a414a"
       fill="#fff"
       id="path56" />
    <use
       xlink:href="#a"
       transform="matrix(1,0,0,1,851.0000000000003,532) translate(15.148148148148138 124.58333333333334)"
       id="use58" />
    <path
       d="M748.84 640.5h-8.34v-1h8.34zm73.28 0h-34.76v-1h34.76zM740.5 640.5h-.5v-1h.5z"
       stroke="#3a414a"
       stroke-width=".05"
       fill="#3a414a"
       id="path60" />
    <path
       d="M836.88 640l-14.26 4.64v-9.28z"
       fill="#3a414a"
       id="path62" />
    <path
       d="M838.5 640l-16.38 5.32v-10.64zm-15.38 3.95l12.14-3.95-12.14-3.95z"
       stroke="#3a414a"
       stroke-width=".05"
       fill="#3a414a"
       id="path64" />
    <use
       xlink:href="#f"
       transform="matrix(1,0,0,1,748.8389997393407,624) translate(0 21.333333333333336)"
       id="use66" />
    <path
       d="M839 740h180v40H839z"
       stroke="#3a414a"
       fill="#fff"
       id="path68" />
    <use
       xlink:href="#d"
       transform="matrix(1,0,0,1,839.0000000000003,740.0000000000002) translate(53.03703703703704 29.333333333333336)"
       id="use70" />
    <path
       d="M839 784c0-3.3 2.7-6 6-6h168c3.3 0 6 2.7 6 6v30c0 3.3-2.7 6-6 6H845c-3.3 0-6-2.7-6-6z"
       stroke="#000"
       stroke-opacity="0"
       fill="#fff"
       fill-opacity="0"
       id="path72" />
    <use
       xlink:href="#g"
       transform="matrix(1,0,0,1,844.0000000000003,783) translate(63.77777777777777 30.037333333333336)"
       id="use74" />
    <path
       d="M1160 520h180v260h-180z"
       stroke="#3a414a"
       fill="#fff"
       id="path76" />
    <use
       xlink:href="#a"
       transform="matrix(1,0,0,1,1171.9999999999986,532) translate(15.148148148148138 124.58333333333334)"
       id="use78" />
    <path
       d="M1077.33 540.5h-17.83v-1h17.83zm65.3 0h-43.15v-1h43.14zM1059.5 540.5h-.5v-1h.5z"
       stroke="#3a414a"
       stroke-width=".05"
       fill="#3a414a"
       id="path80" />
    <path
       d="M1157.38 540l-14.26 4.64v-9.28z"
       fill="#3a414a"
       id="path82" />
    <path
       d="M1159 540l-16.38 5.32v-10.64zm-15.38 3.95l12.14-3.95-12.14-3.95z"
       stroke="#3a414a"
       stroke-width=".05"
       fill="#3a414a"
       id="path84" />
    <use
       xlink:href="#b"
       transform="matrix(1,0,0,1,1077.3321773185705,524) translate(0 21.333333333333336)"
       id="use86" />
    <path
       d="M1160 740h180v40h-180z"
       stroke="#3a414a"
       fill="#fff"
       id="path88" />
    <use
       xlink:href="#d"
       transform="matrix(1,0,0,1,1159.9999999999986,740.0000000000002) translate(53.03703703703704 29.333333333333336)"
       id="use90" />
    <path
       d="M1160 784c0-3.3 2.7-6 6-6h168c3.3 0 6 2.7 6 6v30c0 3.3-2.7 6-6 6h-168c-3.3 0-6-2.7-6-6z"
       stroke="#000"
       stroke-opacity="0"
       fill="#fff"
       fill-opacity="0"
       id="path92" />
    <use
       xlink:href="#e"
       transform="matrix(1,0,0,1,1164.9999999999986,783) translate(62.77777777777777 30.037333333333336)"
       id="use94" />
    <path
       d="M1360 520h180v260h-180z"
       stroke="#3a414a"
       fill="#fff"
       id="path96" />
    <use
       xlink:href="#a"
       transform="matrix(1,0,0,1,1372,532.0000000000002) translate(15.148148148148138 124.58333333333334)"
       id="use98" />
    <path
       d="M1360 740h180v40h-180z"
       stroke="#3a414a"
       fill="#fff"
       id="path100" />
    <use
       xlink:href="#d"
       transform="matrix(1,0,0,1,1360,740.0000000000005) translate(53.03703703703704 29.333333333333336)"
       id="use102" />
    <path
       d="M1360 784c0-3.3 2.7-6 6-6h168c3.3 0 6 2.7 6 6v30c0 3.3-2.7 6-6 6h-168c-3.3 0-6-2.7-6-6z"
       stroke="#000"
       stroke-opacity="0"
       fill="#fff"
       fill-opacity="0"
       id="path104" />
    <use
       xlink:href="#g"
       transform="matrix(1,0,0,1,1365,783.0000000000002) translate(63.77777777777777 30.037333333333336)"
       id="use106" />
    <path
       d="M1982 520h180v260h-180z"
       stroke="#3a414a"
       fill="#fff"
       id="path108" />
    <use
       xlink:href="#a"
       transform="matrix(1,0,0,1,1993.9999999999995,532.0000000000002) translate(15.148148148148138 124.58333333333334)"
       id="use110" />
    <path
       d="M1899.48 720.5h-17.98v-1h17.98zm65.64 0h-43.5v-1h43.5zM1881.5 720.5h-.5v-1h.5z"
       stroke="#3a414a"
       stroke-width=".05"
       fill="#3a414a"
       id="path112" />
    <path
       d="M1979.88 720l-14.26 4.64v-9.28z"
       fill="#3a414a"
       id="path114" />
    <path
       d="M1981.5 720l-16.38 5.32v-10.64zm-15.38 3.95l12.14-3.95-12.14-3.95z"
       stroke="#3a414a"
       stroke-width=".05"
       fill="#3a414a"
       id="path116" />
    <use
       xlink:href="#b"
       transform="matrix(1,0,0,1,1899.4792085755344,704) translate(0 21.333333333333336)"
       id="use118" />
    <path
       d="M1982 740h180v40h-180z"
       stroke="#3a414a"
       fill="#fff"
       id="path120" />
    <use
       xlink:href="#d"
       transform="matrix(1,0,0,1,1981.9999999999995,740.0000000000011) translate(53.03703703703704 29.333333333333336)"
       id="use122" />
    <path
       d="M1982 784c0-3.3 2.7-6 6-6h168c3.3 0 6 2.7 6 6v30c0 3.3-2.7 6-6 6h-168c-3.3 0-6-2.7-6-6z"
       stroke="#000"
       stroke-opacity="0"
       fill="#fff"
       fill-opacity="0"
       id="path124" />
    <use
       xlink:href="#g"
       transform="matrix(1,0,0,1,1986.9999999999995,783.0000000000002) translate(63.77777777777777 30.037333333333336)"
       id="use126" />
    <path
       d="M1660 520h180v260h-180z"
       stroke="#3a414a"
       fill="#fff"
       id="path128" />
    <use
       xlink:href="#h"
       transform="matrix(1,0,0,1,1672.0000000000007,532.0000000000002) translate(15.148148148148138 124.58333333333334)"
       id="use130" />
    <path
       d="M1569.84 640.5h-8.34v-1h8.34zm73.28 0h-34.76v-1h34.76zM1561.5 640.5h-.5v-1h.5z"
       stroke="#3a414a"
       stroke-width=".05"
       fill="#3a414a"
       id="path132" />
    <path
       d="M1657.88 640l-14.26 4.64v-9.28z"
       fill="#3a414a"
       id="path134" />
    <path
       d="M1659.5 640l-16.38 5.32v-10.64zm-15.38 3.95l12.14-3.95-12.14-3.95z"
       stroke="#3a414a"
       stroke-width=".05"
       fill="#3a414a"
       id="path136" />
    <use
       xlink:href="#c"
       transform="matrix(1,0,0,1,1569.838999739341,624) translate(0 21.333333333333336)"
       id="use138" />
    <path
       d="M1660 740h180v40h-180z"
       stroke="#3a414a"
       fill="#fff"
       id="path140" />
    <use
       xlink:href="#i"
       transform="matrix(1,0,0,1,1660.0000000000007,740.0000000000005) translate(53.03703703703704 29.333333333333336)"
       id="use142" />
    <path
       d="M1660 784c0-3.3 2.7-6 6-6h168c3.3 0 6 2.7 6 6v30c0 3.3-2.7 6-6 6h-168c-3.3 0-6-2.7-6-6z"
       stroke="#000"
       stroke-opacity="0"
       fill="#fff"
       fill-opacity="0"
       id="path144" />
    <use
       xlink:href="#j"
       transform="matrix(1,0,0,1,1665.0000000000007,783.0000000000002) translate(62.77777777777777 30.037333333333336)"
       id="use146" />
    <path
       d="M1861.5 500.25c.14 0 .25.1.25.25v339c0 .14-.1.25-.25.25-.14 0-.25-.1-.25-.25v-339c0-.14.1-.25.25-.25z"
       stroke="#3a414a"
       stroke-width=".5"
       fill="none"
       id="path148" />
    <path
       d="M2180 520h180v260h-180z"
       stroke="#3a414a"
       fill="#fff"
       id="path150" />
    <use
       xlink:href="#h"
       transform="matrix(1,0,0,1,2192,532) translate(15.148148148148138 124.58333333333334)"
       id="use152" />
    <path
       d="M2180 740h180v40h-180z"
       stroke="#3a414a"
       fill="#fff"
       id="path154" />
    <use
       xlink:href="#i"
       transform="matrix(1,0,0,1,2180,740.0000000000005) translate(53.03703703703704 29.333333333333336)"
       id="use156" />
    <path
       d="M2180 784c0-3.3 2.7-6 6-6h168c3.3 0 6 2.7 6 6v30c0 3.3-2.7 6-6 6h-168c-3.3 0-6-2.7-6-6z"
       stroke="#000"
       stroke-opacity="0"
       fill="#fff"
       fill-opacity="0"
       id="path158" />
    <use
       xlink:href="#j"
       transform="matrix(1,0,0,1,2185,783) translate(62.77777777777777 30.037333333333336)"
       id="use160" />
    <path
       d="M2480 520h180v260h-180z"
       stroke="#3a414a"
       fill="#fff"
       id="path162" />
    <use
       xlink:href="#h"
       transform="matrix(1,0,0,1,2492.000000000001,532) translate(15.148148148148138 124.58333333333334)"
       id="use164" />
    <path
       d="M2389.82 680.5h-9.32v-1h9.32zm73.3 0h-36.18v-1h36.18zM2380.5 680.5h-.5v-1h.5z"
       stroke="#3a414a"
       stroke-width=".05"
       fill="#3a414a"
       id="path166" />
    <path
       d="M2477.88 680l-14.26 4.64v-9.28z"
       fill="#3a414a"
       id="path168" />
    <path
       d="M2479.5 680l-16.38 5.32v-10.64zm-15.38 3.95l12.14-3.95-12.14-3.95z"
       stroke="#3a414a"
       stroke-width=".05"
       fill="#3a414a"
       id="path170" />
    <use
       xlink:href="#k"
       transform="matrix(1,0,0,1,2389.824261252017,664.0000000000001) translate(0 21.333333333333336)"
       id="use172" />
    <path
       d="M2480 740h180v40h-180z"
       stroke="#3a414a"
       fill="#fff"
       id="path174" />
    <use
       xlink:href="#i"
       transform="matrix(1,0,0,1,2480.000000000001,740.0000000000005) translate(53.03703703703704 29.333333333333336)"
       id="use176" />
    <path
       d="M2480 784c0-3.3 2.7-6 6-6h168c3.3 0 6 2.7 6 6v30c0 3.3-2.7 6-6 6h-168c-3.3 0-6-2.7-6-6z"
       stroke="#000"
       stroke-opacity="0"
       fill="#fff"
       fill-opacity="0"
       id="path178" />
    <use
       xlink:href="#l"
       transform="matrix(1,0,0,1,2485.000000000001,783) translate(62.77777777777777 30.037333333333336)"
       id="use180" />
    <defs
       id="defs297">
      <path
         fill="#3a414a"
         d="M30 0v-248h187v28H63v79h144v27H63v87h162V0H30"
         id="m" />
      <path
         fill="#3a414a"
         d="M195 0l-74-108L45 0H8l94-129-87-119h37l69 98 67-98h37l-84 118L233 0h-38"
         id="n" />
      <path
         fill="#3a414a"
         d="M212-179c-10-28-35-45-73-45-59 0-87 40-87 99 0 60 29 101 89 101 43 0 62-24 78-52l27 14C228-24 195 4 139 4 59 4 22-46 18-125c-6-104 99-153 187-111 19 9 31 26 39 46"
         id="o" />
      <path
         fill="#3a414a"
         d="M232-93c-1 65-40 97-104 97C67 4 28-28 28-90v-158h33c8 89-33 224 67 224 102 0 64-133 71-224h33v155"
         id="p" />
      <path
         fill="#3a414a"
         d="M127-220V0H93v-220H8v-28h204v28h-85"
         id="q" />
      <g
         id="a">
        <use
           transform="matrix(0.07407407407407408,0,0,0.07407407407407408,0,0)"
           xlink:href="#m"
           id="use187" />
        <use
           transform="matrix(0.07407407407407408,0,0,0.07407407407407408,17.77777777777778,0)"
           xlink:href="#n"
           id="use189" />
        <use
           transform="matrix(0.07407407407407408,0,0,0.07407407407407408,35.55555555555556,0)"
           xlink:href="#m"
           id="use191" />
        <use
           transform="matrix(0.07407407407407408,0,0,0.07407407407407408,53.33333333333333,0)"
           xlink:href="#o"
           id="use193" />
        <use
           transform="matrix(0.07407407407407408,0,0,0.07407407407407408,72.51851851851852,0)"
           xlink:href="#p"
           id="use195" />
        <use
           transform="matrix(0.07407407407407408,0,0,0.07407407407407408,91.70370370370371,0)"
           xlink:href="#q"
           id="use197" />
        <use
           transform="matrix(0.07407407407407408,0,0,0.07407407407407408,107.92592592592594,0)"
           xlink:href="#m"
           id="use199" />
      </g>
      <path
         fill="#333"
         d="M240 0l2-218c-23 76-54 145-80 218h-23L58-218 59 0H30v-248h44l77 211c21-75 51-140 76-211h43V0h-30"
         id="r" />
      <use
         transform="matrix(0.07407407407407408,0,0,0.07407407407407408,0,0)"
         xlink:href="#r"
         id="b" />
      <path
         fill="#333"
         d="M30-248c87 1 191-15 191 75 0 78-77 80-158 76V0H30v-248zm33 125c57 0 124 11 124-50 0-59-68-47-124-48v98"
         id="s" />
      <path
         fill="#333"
         d="M27 0v-27h64v-190l-56 39v-29l58-41h29v221h61V0H27"
         id="t" />
      <path
         fill="#333"
         d="M101-251c68 0 85 55 85 127S166 4 100 4C33 4 14-52 14-124c0-73 17-127 87-127zm-1 229c47 0 54-49 54-102s-4-102-53-102c-51 0-55 48-55 102 0 53 5 102 54 102"
         id="u" />
      <g
         id="c">
        <use
           transform="matrix(0.07407407407407408,0,0,0.07407407407407408,0,0)"
           xlink:href="#s"
           id="use207" />
        <use
           transform="matrix(0.05185185185185186,0,0,0.05185185185185186,17.77777777777778,3.733333333333334)"
           xlink:href="#t"
           id="use209" />
        <use
           transform="matrix(0.05185185185185186,0,0,0.05185185185185186,28.148148148148152,3.733333333333334)"
           xlink:href="#u"
           id="use211" />
      </g>
      <path
         fill="#3a414a"
         d="M233-177c-1 41-23 64-60 70L243 0h-38l-65-103H63V0H30v-248c88 3 205-21 203 71zM63-129c60-2 137 13 137-47 0-61-80-42-137-45v92"
         id="v" />
      <path
         fill="#3a414a"
         d="M205 0l-28-72H64L36 0H1l101-248h38L239 0h-34zm-38-99l-47-123c-12 45-31 82-46 123h93"
         id="w" />
      <path
         fill="#3a414a"
         d="M30-248c118-7 216 8 213 122C240-48 200 0 122 0H30v-248zM63-27c89 8 146-16 146-99s-60-101-146-95v194"
         id="x" />
      <g
         id="d">
        <use
           transform="matrix(0.07407407407407408,0,0,0.07407407407407408,0,0)"
           xlink:href="#v"
           id="use217" />
        <use
           transform="matrix(0.07407407407407408,0,0,0.07407407407407408,19.185185185185187,0)"
           xlink:href="#m"
           id="use219" />
        <use
           transform="matrix(0.07407407407407408,0,0,0.07407407407407408,36.96296296296296,0)"
           xlink:href="#w"
           id="use221" />
        <use
           transform="matrix(0.07407407407407408,0,0,0.07407407407407408,54.74074074074074,0)"
           xlink:href="#x"
           id="use223" />
      </g>
      <path
         fill="#3a414a"
         d="M158-156l-14 65h45v19h-49L124 0h-19l15-72H56L41 0H22l15-72H2v-19h39l14-65H11v-19h48l15-71h20l-16 71h64l16-71h19l-16 71h37v19h-40zm-83 0L61-91h63l14-65H75"
         id="y" />
      <path
         fill="#3a414a"
         d="M27 0v-27h64v-190l-56 39v-29l58-41h29v221h61V0H27"
         id="z" />
      <path
         fill="#3a414a"
         d="M101-251c68 0 85 55 85 127S166 4 100 4C33 4 14-52 14-124c0-73 17-127 87-127zm-1 229c47 0 54-49 54-102s-4-102-53-102c-51 0-55 48-55 102 0 53 5 102 54 102"
         id="A" />
      <g
         id="e">
        <use
           transform="matrix(0.07407407407407408,0,0,0.07407407407407408,0,0)"
           xlink:href="#y"
           id="use229" />
        <use
           transform="matrix(0.07407407407407408,0,0,0.07407407407407408,14.814814814814817,0)"
           xlink:href="#z"
           id="use231" />
        <use
           transform="matrix(0.07407407407407408,0,0,0.07407407407407408,29.629629629629633,0)"
           xlink:href="#A"
           id="use233" />
      </g>
      <g
         id="f">
        <use
           transform="matrix(0.07407407407407408,0,0,0.07407407407407408,0,0)"
           xlink:href="#s"
           id="use236" />
        <use
           transform="matrix(0.05185185185185186,0,0,0.05185185185185186,17.77777777777778,3.733333333333334)"
           xlink:href="#t"
           id="use238" />
        <use
           transform="matrix(0.05185185185185186,0,0,0.05185185185185186,28.148148148148152,3.733333333333334)"
           xlink:href="#u"
           id="use240" />
      </g>
      <g
         id="g">
        <use
           transform="matrix(0.07407407407407408,0,0,0.07407407407407408,0,0)"
           xlink:href="#y"
           id="use243" />
        <use
           transform="matrix(0.07407407407407408,0,0,0.07407407407407408,14.814814814814817,0)"
           xlink:href="#z"
           id="use245" />
        <use
           transform="matrix(0.07407407407407408,0,0,0.07407407407407408,27.629629629629633,0)"
           xlink:href="#z"
           id="use247" />
      </g>
      <g
         id="h">
        <use
           transform="matrix(0.07407407407407408,0,0,0.07407407407407408,0,0)"
           xlink:href="#m"
           id="use250" />
        <use
           transform="matrix(0.07407407407407408,0,0,0.07407407407407408,17.77777777777778,0)"
           xlink:href="#n"
           id="use252" />
        <use
           transform="matrix(0.07407407407407408,0,0,0.07407407407407408,35.55555555555556,0)"
           xlink:href="#m"
           id="use254" />
        <use
           transform="matrix(0.07407407407407408,0,0,0.07407407407407408,53.33333333333333,0)"
           xlink:href="#o"
           id="use256" />
        <use
           transform="matrix(0.07407407407407408,0,0,0.07407407407407408,72.51851851851852,0)"
           xlink:href="#p"
           id="use258" />
        <use
           transform="matrix(0.07407407407407408,0,0,0.07407407407407408,91.70370370370371,0)"
           xlink:href="#q"
           id="use260" />
        <use
           transform="matrix(0.07407407407407408,0,0,0.07407407407407408,107.92592592592594,0)"
           xlink:href="#m"
           id="use262" />
      </g>
      <g
         id="i">
        <use
           transform="matrix(0.07407407407407408,0,0,0.07407407407407408,0,0)"
           xlink:href="#v"
           id="use265" />
        <use
           transform="matrix(0.07407407407407408,0,0,0.07407407407407408,19.185185185185187,0)"
           xlink:href="#m"
           id="use267" />
        <use
           transform="matrix(0.07407407407407408,0,0,0.07407407407407408,36.96296296296296,0)"
           xlink:href="#w"
           id="use269" />
        <use
           transform="matrix(0.07407407407407408,0,0,0.07407407407407408,54.74074074074074,0)"
           xlink:href="#x"
           id="use271" />
      </g>
      <path
         fill="#3a414a"
         d="M101-251c82-7 93 87 43 132L82-64C71-53 59-42 53-27h129V0H18c2-99 128-94 128-182 0-28-16-43-45-43s-46 15-49 41l-32-3c6-41 34-60 81-64"
         id="B" />
      <g
         id="j">
        <use
           transform="matrix(0.07407407407407408,0,0,0.07407407407407408,0,0)"
           xlink:href="#y"
           id="use275" />
        <use
           transform="matrix(0.07407407407407408,0,0,0.07407407407407408,14.814814814814817,0)"
           xlink:href="#z"
           id="use277" />
        <use
           transform="matrix(0.07407407407407408,0,0,0.07407407407407408,29.629629629629633,0)"
           xlink:href="#B"
           id="use279" />
      </g>
      <g
         id="k">
        <use
           transform="matrix(0.07407407407407408,0,0,0.07407407407407408,0,0)"
           xlink:href="#s"
           id="use282" />
        <use
           transform="matrix(0.05185185185185186,0,0,0.05185185185185186,17.77777777777778,3.733333333333334)"
           xlink:href="#t"
           id="use284" />
        <use
           transform="matrix(0.05185185185185186,0,0,0.05185185185185186,26.748148148148154,3.733333333333334)"
           xlink:href="#t"
           id="use286" />
      </g>
      <path
         fill="#3a414a"
         d="M126-127c33 6 58 20 58 59 0 88-139 92-164 29-3-8-5-16-6-25l32-3c6 27 21 44 54 44 32 0 52-15 52-46 0-38-36-46-79-43v-28c39 1 72-4 72-42 0-27-17-43-46-43-28 0-47 15-49 41l-32-3c6-42 35-63 81-64 48-1 79 21 79 65 0 36-21 52-52 59"
         id="C" />
      <g
         id="l">
        <use
           transform="matrix(0.07407407407407408,0,0,0.07407407407407408,0,0)"
           xlink:href="#y"
           id="use290" />
        <use
           transform="matrix(0.07407407407407408,0,0,0.07407407407407408,14.814814814814817,0)"
           xlink:href="#z"
           id="use292" />
        <use
           transform="matrix(0.07407407407407408,0,0,0.07407407407407408,29.629629629629633,0)"
           xlink:href="#C"
           id="use294" />
      </g>
    </defs>
  </g>
</svg>
