<?xml version="1.0" encoding="UTF-8"?>
<!DOCTYPE svg PUBLIC "-//W3C//DTD SVG 1.1//EN" "http://www.w3.org/Graphics/SVG/1.1/DTD/svg11.dtd">
<svg width="280mm" height="172mm" viewBox="0 0 28000 17200" version="1.1" xmlns="http://www.w3.org/2000/svg" xmlns:xlink="http://www.w3.org/1999/xlink" stroke-width="28.222" stroke-linejoin="round" xml:space="preserve">
 <path fill="rgb(255,255,255)" stroke="none" d="M 13993,17241 L 0,17241 0,0 27985,0 27985,17241 13993,17241 Z"/>
 <path fill="none" stroke="rgb(179,179,179)" stroke-linejoin="round" d="M 13504,15767 L 1297,15767 1297,1963 25710,1963 25710,15767 13504,15767 Z"/>
 <path fill="none" stroke="rgb(179,179,179)" stroke-linejoin="round" d="M 25710,15766 L 1297,15766"/>
 <path fill="none" stroke="rgb(179,179,179)" stroke-linejoin="round" d="M 25710,14040 L 1297,14040"/>
 <path fill="none" stroke="rgb(179,179,179)" stroke-linejoin="round" d="M 25710,12314 L 1297,12314"/>
 <path fill="none" stroke="rgb(179,179,179)" stroke-linejoin="round" d="M 25710,10589 L 1297,10589"/>
 <path fill="none" stroke="rgb(179,179,179)" stroke-linejoin="round" d="M 25710,8863 L 1297,8863"/>
 <path fill="none" stroke="rgb(179,179,179)" stroke-linejoin="round" d="M 25710,7138 L 1297,7138"/>
 <path fill="none" stroke="rgb(179,179,179)" stroke-linejoin="round" d="M 25710,5413 L 1297,5413"/>
 <path fill="none" stroke="rgb(179,179,179)" stroke-linejoin="round" d="M 25710,3687 L 1297,3687"/>
 <path fill="none" stroke="rgb(179,179,179)" stroke-linejoin="round" d="M 25710,1962 L 1297,1962"/>
 <path fill="none" stroke="rgb(179,179,179)" stroke-linejoin="round" d="M 1297,15916 L 1297,15766"/>
 <path fill="none" stroke="rgb(179,179,179)" stroke-linejoin="round" d="M 1297,15916 L 1297,15766"/>
 <path fill="none" stroke="rgb(179,179,179)" stroke-linejoin="round" d="M 5366,15916 L 5366,15766"/>
 <path fill="none" stroke="rgb(179,179,179)" stroke-linejoin="round" d="M 5366,15916 L 5366,15766"/>
 <path fill="none" stroke="rgb(179,179,179)" stroke-linejoin="round" d="M 9435,15916 L 9435,15766"/>
 <path fill="none" stroke="rgb(179,179,179)" stroke-linejoin="round" d="M 9435,15916 L 9435,15766"/>
 <path fill="none" stroke="rgb(179,179,179)" stroke-linejoin="round" d="M 13504,15916 L 13504,15766"/>
 <path fill="none" stroke="rgb(179,179,179)" stroke-linejoin="round" d="M 13504,15916 L 13504,15766"/>
 <path fill="none" stroke="rgb(179,179,179)" stroke-linejoin="round" d="M 17572,15916 L 17572,15766"/>
 <path fill="none" stroke="rgb(179,179,179)" stroke-linejoin="round" d="M 17572,15916 L 17572,15766"/>
 <path fill="none" stroke="rgb(179,179,179)" stroke-linejoin="round" d="M 21641,15916 L 21641,15766"/>
 <path fill="none" stroke="rgb(179,179,179)" stroke-linejoin="round" d="M 21641,15916 L 21641,15766"/>
 <path fill="none" stroke="rgb(179,179,179)" stroke-linejoin="round" d="M 25710,15916 L 25710,15766"/>
 <path fill="none" stroke="rgb(179,179,179)" stroke-linejoin="round" d="M 25710,15916 L 25710,15766"/>
 <path fill="none" stroke="rgb(179,179,179)" stroke-linejoin="round" d="M 1297,15766 L 25710,15766"/>
 <path fill="none" stroke="rgb(179,179,179)" stroke-linejoin="round" d="M 1147,15766 L 1297,15766"/>
 <path fill="none" stroke="rgb(179,179,179)" stroke-linejoin="round" d="M 1147,15766 L 1297,15766"/>
 <path fill="none" stroke="rgb(179,179,179)" stroke-linejoin="round" d="M 1147,14040 L 1297,14040"/>
 <path fill="none" stroke="rgb(179,179,179)" stroke-linejoin="round" d="M 1147,14040 L 1297,14040"/>
 <path fill="none" stroke="rgb(179,179,179)" stroke-linejoin="round" d="M 1147,12314 L 1297,12314"/>
 <path fill="none" stroke="rgb(179,179,179)" stroke-linejoin="round" d="M 1147,12314 L 1297,12314"/>
 <path fill="none" stroke="rgb(179,179,179)" stroke-linejoin="round" d="M 1147,10589 L 1297,10589"/>
 <path fill="none" stroke="rgb(179,179,179)" stroke-linejoin="round" d="M 1147,10589 L 1297,10589"/>
 <path fill="none" stroke="rgb(179,179,179)" stroke-linejoin="round" d="M 1147,8863 L 1297,8863"/>
 <path fill="none" stroke="rgb(179,179,179)" stroke-linejoin="round" d="M 1147,8863 L 1297,8863"/>
 <path fill="none" stroke="rgb(179,179,179)" stroke-linejoin="round" d="M 1147,7138 L 1297,7138"/>
 <path fill="none" stroke="rgb(179,179,179)" stroke-linejoin="round" d="M 1147,7138 L 1297,7138"/>
 <path fill="none" stroke="rgb(179,179,179)" stroke-linejoin="round" d="M 1147,5413 L 1297,5413"/>
 <path fill="none" stroke="rgb(179,179,179)" stroke-linejoin="round" d="M 1147,5413 L 1297,5413"/>
 <path fill="none" stroke="rgb(179,179,179)" stroke-linejoin="round" d="M 1147,3687 L 1297,3687"/>
 <path fill="none" stroke="rgb(179,179,179)" stroke-linejoin="round" d="M 1147,3687 L 1297,3687"/>
 <path fill="none" stroke="rgb(179,179,179)" stroke-linejoin="round" d="M 1147,1962 L 1297,1962"/>
 <path fill="none" stroke="rgb(179,179,179)" stroke-linejoin="round" d="M 1147,1962 L 1297,1962"/>
 <path fill="none" stroke="rgb(179,179,179)" stroke-linejoin="round" d="M 1297,15766 L 1297,1962"/>
 <path fill="none" stroke="rgb(179,179,179)" stroke-linejoin="round" d="M 25860,15766 L 25710,15766"/>
 <path fill="none" stroke="rgb(179,179,179)" stroke-linejoin="round" d="M 25860,15766 L 25710,15766"/>
 <path fill="none" stroke="rgb(179,179,179)" stroke-linejoin="round" d="M 25860,14040 L 25710,14040"/>
 <path fill="none" stroke="rgb(179,179,179)" stroke-linejoin="round" d="M 25860,14040 L 25710,14040"/>
 <path fill="none" stroke="rgb(179,179,179)" stroke-linejoin="round" d="M 25860,12314 L 25710,12314"/>
 <path fill="none" stroke="rgb(179,179,179)" stroke-linejoin="round" d="M 25860,12314 L 25710,12314"/>
 <path fill="none" stroke="rgb(179,179,179)" stroke-linejoin="round" d="M 25860,10589 L 25710,10589"/>
 <path fill="none" stroke="rgb(179,179,179)" stroke-linejoin="round" d="M 25860,10589 L 25710,10589"/>
 <path fill="none" stroke="rgb(179,179,179)" stroke-linejoin="round" d="M 25860,8863 L 25710,8863"/>
 <path fill="none" stroke="rgb(179,179,179)" stroke-linejoin="round" d="M 25860,8863 L 25710,8863"/>
 <path fill="none" stroke="rgb(179,179,179)" stroke-linejoin="round" d="M 25860,7138 L 25710,7138"/>
 <path fill="none" stroke="rgb(179,179,179)" stroke-linejoin="round" d="M 25860,7138 L 25710,7138"/>
 <path fill="none" stroke="rgb(179,179,179)" stroke-linejoin="round" d="M 25860,5413 L 25710,5413"/>
 <path fill="none" stroke="rgb(179,179,179)" stroke-linejoin="round" d="M 25860,5413 L 25710,5413"/>
 <path fill="none" stroke="rgb(179,179,179)" stroke-linejoin="round" d="M 25860,3687 L 25710,3687"/>
 <path fill="none" stroke="rgb(179,179,179)" stroke-linejoin="round" d="M 25860,3687 L 25710,3687"/>
 <path fill="none" stroke="rgb(179,179,179)" stroke-linejoin="round" d="M 25860,1962 L 25710,1962"/>
 <path fill="none" stroke="rgb(179,179,179)" stroke-linejoin="round" d="M 25860,1962 L 25710,1962"/>
 <path fill="none" stroke="rgb(179,179,179)" stroke-linejoin="round" d="M 25710,15766 L 25710,1962"/>
 <path fill="rgb(115,197,18)" stroke="none" d="M 22319,15766 L 23675,15766 23675,6793 22319,6793 22319,15766 Z"/>
 <path fill="rgb(115,197,18)" stroke="none" d="M 18250,15766 L 19606,15766 19606,4895 18250,4895 18250,15766 Z"/>
 <path fill="rgb(115,197,18)" stroke="none" d="M 14181,15766 L 15537,15766 15537,4032 14181,4032 14181,15766 Z"/>
 <path fill="rgb(115,197,18)" stroke="none" d="M 10113,15766 L 11469,15766 11469,5585 10113,5585 10113,15766 Z"/>
 <path fill="rgb(115,197,18)" stroke="none" d="M 6044,15766 L 7400,15766 7400,5930 6044,5930 6044,15766 Z"/>
 <path fill="rgb(115,197,18)" stroke="none" d="M 1975,15766 L 3331,15766 3331,4291 1975,4291 1975,15766 Z"/>
 <path fill="rgb(255,66,14)" stroke="none" d="M 23675,15766 L 25031,15766 25031,15593 23675,15593 23675,15766 Z"/>
 <path fill="rgb(255,66,14)" stroke="none" d="M 19606,15766 L 20962,15766 20962,15593 19606,15593 19606,15766 Z"/>
 <path fill="rgb(255,66,14)" stroke="none" d="M 15537,15766 L 16893,15766 16893,15593 15537,15593 15537,15766 Z"/>
 <path fill="rgb(255,66,14)" stroke="none" d="M 11469,15766 L 12825,15766 12825,8519 11469,8519 11469,15766 Z"/>
 <path fill="rgb(255,66,14)" stroke="none" d="M 7400,15766 L 8756,15766 8756,3256 7400,3256 7400,15766 Z"/>
 <path fill="rgb(255,66,14)" stroke="none" d="M 3331,15766 L 4687,15766 4687,5240 3331,5240 3331,15766 Z"/>
 <path fill="none" stroke="rgb(0,0,0)" stroke-width="102" stroke-linejoin="round" d="M 2653,5113 L 2653,4291 2653,3469"/>
 <path fill="none" stroke="rgb(0,0,0)" stroke-width="102" stroke-linejoin="round" d="M 2753,5113 L 2553,5113"/>
 <path fill="none" stroke="rgb(0,0,0)" stroke-width="102" stroke-linejoin="round" d="M 2553,3469 L 2753,3469"/>
 <path fill="none" stroke="rgb(0,0,0)" stroke-width="102" stroke-linejoin="round" d="M 6722,6716 L 6722,5930 6722,5145"/>
 <path fill="none" stroke="rgb(0,0,0)" stroke-width="102" stroke-linejoin="round" d="M 6822,6716 L 6622,6716"/>
 <path fill="none" stroke="rgb(0,0,0)" stroke-width="102" stroke-linejoin="round" d="M 6622,5145 L 6822,5145"/>
 <path fill="none" stroke="rgb(0,0,0)" stroke-width="102" stroke-linejoin="round" d="M 10791,6379 L 10791,5585 10791,4792"/>
 <path fill="none" stroke="rgb(0,0,0)" stroke-width="102" stroke-linejoin="round" d="M 10891,6379 L 10691,6379"/>
 <path fill="none" stroke="rgb(0,0,0)" stroke-width="102" stroke-linejoin="round" d="M 10691,4792 L 10891,4792"/>
 <path fill="none" stroke="rgb(0,0,0)" stroke-width="102" stroke-linejoin="round" d="M 14859,4860 L 14859,4032 14859,3205"/>
 <path fill="none" stroke="rgb(0,0,0)" stroke-width="102" stroke-linejoin="round" d="M 14959,4860 L 14759,4860"/>
 <path fill="none" stroke="rgb(0,0,0)" stroke-width="102" stroke-linejoin="round" d="M 14759,3205 L 14959,3205"/>
 <path fill="none" stroke="rgb(0,0,0)" stroke-width="102" stroke-linejoin="round" d="M 18928,5704 L 18928,4895 18928,4086"/>
 <path fill="none" stroke="rgb(0,0,0)" stroke-width="102" stroke-linejoin="round" d="M 19028,5704 L 18828,5704"/>
 <path fill="none" stroke="rgb(0,0,0)" stroke-width="102" stroke-linejoin="round" d="M 18828,4086 L 19028,4086"/>
 <path fill="none" stroke="rgb(0,0,0)" stroke-width="102" stroke-linejoin="round" d="M 22997,7560 L 22997,6793 22997,6026"/>
 <path fill="none" stroke="rgb(0,0,0)" stroke-width="102" stroke-linejoin="round" d="M 23097,7560 L 22897,7560"/>
 <path fill="none" stroke="rgb(0,0,0)" stroke-width="102" stroke-linejoin="round" d="M 22897,6026 L 23097,6026"/>
 <text class="TextShape"><tspan class="TextParagraph" font-family="Liberation Sans, sans-serif" font-size="564px" font-weight="400"><tspan class="TextPosition" x="3167" y="16528"><tspan fill="rgb(0,0,0)" stroke="none">0</tspan></tspan></tspan></text>
 <text class="TextShape"><tspan class="TextParagraph" font-family="Liberation Sans, sans-serif" font-size="564px" font-weight="400"><tspan class="TextPosition" x="7236" y="16528"><tspan fill="rgb(0,0,0)" stroke="none">1</tspan></tspan></tspan></text>
 <text class="TextShape"><tspan class="TextParagraph" font-family="Liberation Sans, sans-serif" font-size="564px" font-weight="400"><tspan class="TextPosition" x="11305" y="16528"><tspan fill="rgb(0,0,0)" stroke="none">2</tspan></tspan></tspan></text>
 <text class="TextShape"><tspan class="TextParagraph" font-family="Liberation Sans, sans-serif" font-size="564px" font-weight="400"><tspan class="TextPosition" x="15374" y="16528"><tspan fill="rgb(0,0,0)" stroke="none">3</tspan></tspan></tspan></text>
 <text class="TextShape"><tspan class="TextParagraph" font-family="Liberation Sans, sans-serif" font-size="564px" font-weight="400"><tspan class="TextPosition" x="19443" y="16528"><tspan fill="rgb(0,0,0)" stroke="none">6</tspan></tspan></tspan></text>
 <text class="TextShape"><tspan class="TextParagraph" font-family="Liberation Sans, sans-serif" font-size="564px" font-weight="400"><tspan class="TextPosition" x="23348" y="16528"><tspan fill="rgb(0,0,0)" stroke="none">15</tspan></tspan></tspan></text>
 <text class="TextShape"><tspan class="TextParagraph" font-family="Liberation Sans, sans-serif" font-size="564px" font-weight="400"><tspan class="TextPosition" x="392" y="15962"><tspan fill="rgb(0,0,0)" stroke="none">30</tspan></tspan></tspan></text>
 <text class="TextShape"><tspan class="TextParagraph" font-family="Liberation Sans, sans-serif" font-size="564px" font-weight="400"><tspan class="TextPosition" x="392" y="14236"><tspan fill="rgb(0,0,0)" stroke="none">32</tspan></tspan></tspan></text>
 <text class="TextShape"><tspan class="TextParagraph" font-family="Liberation Sans, sans-serif" font-size="564px" font-weight="400"><tspan class="TextPosition" x="392" y="12510"><tspan fill="rgb(0,0,0)" stroke="none">34</tspan></tspan></tspan></text>
 <text class="TextShape"><tspan class="TextParagraph" font-family="Liberation Sans, sans-serif" font-size="564px" font-weight="400"><tspan class="TextPosition" x="392" y="10785"><tspan fill="rgb(0,0,0)" stroke="none">36</tspan></tspan></tspan></text>
 <text class="TextShape"><tspan class="TextParagraph" font-family="Liberation Sans, sans-serif" font-size="564px" font-weight="400"><tspan class="TextPosition" x="392" y="9059"><tspan fill="rgb(0,0,0)" stroke="none">38</tspan></tspan></tspan></text>
 <text class="TextShape"><tspan class="TextParagraph" font-family="Liberation Sans, sans-serif" font-size="564px" font-weight="400"><tspan class="TextPosition" x="392" y="7333"><tspan fill="rgb(0,0,0)" stroke="none">40</tspan></tspan></tspan></text>
 <text class="TextShape"><tspan class="TextParagraph" font-family="Liberation Sans, sans-serif" font-size="564px" font-weight="400"><tspan class="TextPosition" x="392" y="5608"><tspan fill="rgb(0,0,0)" stroke="none">42</tspan></tspan></tspan></text>
 <text class="TextShape"><tspan class="TextParagraph" font-family="Liberation Sans, sans-serif" font-size="564px" font-weight="400"><tspan class="TextPosition" x="392" y="3882"><tspan fill="rgb(0,0,0)" stroke="none">44</tspan></tspan></tspan></text>
 <text class="TextShape"><tspan class="TextParagraph" font-family="Liberation Sans, sans-serif" font-size="564px" font-weight="400"><tspan class="TextPosition" x="392" y="2157"><tspan fill="rgb(0,0,0)" stroke="none">46</tspan></tspan></tspan></text>
 <text class="TextShape"><tspan class="TextParagraph" font-family="Liberation Sans, sans-serif" font-size="564px" font-weight="400"><tspan class="TextPosition" x="25960" y="15962"><tspan fill="rgb(0,0,0)" stroke="none">0.00%</tspan></tspan></tspan></text>
 <text class="TextShape"><tspan class="TextParagraph" font-family="Liberation Sans, sans-serif" font-size="564px" font-weight="400"><tspan class="TextPosition" x="25960" y="14236"><tspan fill="rgb(0,0,0)" stroke="none">0.20%</tspan></tspan></tspan></text>
 <text class="TextShape"><tspan class="TextParagraph" font-family="Liberation Sans, sans-serif" font-size="564px" font-weight="400"><tspan class="TextPosition" x="25960" y="12510"><tspan fill="rgb(0,0,0)" stroke="none">0.40%</tspan></tspan></tspan></text>
 <text class="TextShape"><tspan class="TextParagraph" font-family="Liberation Sans, sans-serif" font-size="564px" font-weight="400"><tspan class="TextPosition" x="25960" y="10785"><tspan fill="rgb(0,0,0)" stroke="none">0.60%</tspan></tspan></tspan></text>
 <text class="TextShape"><tspan class="TextParagraph" font-family="Liberation Sans, sans-serif" font-size="564px" font-weight="400"><tspan class="TextPosition" x="25960" y="9059"><tspan fill="rgb(0,0,0)" stroke="none">0.80%</tspan></tspan></tspan></text>
 <text class="TextShape"><tspan class="TextParagraph" font-family="Liberation Sans, sans-serif" font-size="564px" font-weight="400"><tspan class="TextPosition" x="25960" y="7333"><tspan fill="rgb(0,0,0)" stroke="none">1.00%</tspan></tspan></tspan></text>
 <text class="TextShape"><tspan class="TextParagraph" font-family="Liberation Sans, sans-serif" font-size="564px" font-weight="400"><tspan class="TextPosition" x="25960" y="5608"><tspan fill="rgb(0,0,0)" stroke="none">1.20%</tspan></tspan></tspan></text>
 <text class="TextShape"><tspan class="TextParagraph" font-family="Liberation Sans, sans-serif" font-size="564px" font-weight="400"><tspan class="TextPosition" x="25960" y="3882"><tspan fill="rgb(0,0,0)" stroke="none">1.40%</tspan></tspan></tspan></text>
 <text class="TextShape"><tspan class="TextParagraph" font-family="Liberation Sans, sans-serif" font-size="564px" font-weight="400"><tspan class="TextPosition" x="25960" y="2157"><tspan fill="rgb(0,0,0)" stroke="none">1.60%</tspan></tspan></tspan></text>
 <text class="TextShape"><tspan class="TextParagraph" font-family="Liberation Sans, sans-serif" font-size="564px" font-weight="400"><tspan class="TextPosition" x="1838" y="1162"><tspan fill="rgb(0,0,0)" stroke="none">Block / second, Full prefetch, 4 threads, sata</tspan></tspan></tspan></text>
 <path fill="rgb(115,197,18)" stroke="none" d="M 17762,1104 L 17593,1104 17593,766 17931,766 17931,1104 17762,1104 Z"/>
 <path fill="rgb(255,66,14)" stroke="none" d="M 20297,1104 L 20128,1104 20128,766 20466,766 20466,1104 20297,1104 Z"/>
 <text class="TextShape"><tspan class="TextParagraph" font-family="Liberation Sans, sans-serif" font-size="564px" font-weight="400"><tspan class="TextPosition" x="18055" y="1129"><tspan fill="rgb(0,0,0)" stroke="none">B/sec</tspan></tspan></tspan></text>
 <text class="TextShape"><tspan class="TextParagraph" font-family="Liberation Sans, sans-serif" font-size="564px" font-weight="400"><tspan class="TextPosition" x="20590" y="1129"><tspan fill="rgb(0,0,0)" stroke="none">Main thread stall</tspan></tspan></tspan></text>
 <text class="TextShape"><tspan class="TextParagraph" font-family="Liberation Sans, sans-serif" font-size="564px" font-weight="400"><tspan class="TextPosition" x="12110" y="16600"><tspan fill="rgb(0,0,0)" stroke="none">Readahead</tspan></tspan></tspan></text>
</svg>