<?xml version="1.0" encoding="UTF-8"?>
<!DOCTYPE svg PUBLIC "-//W3C//DTD SVG 1.1//EN" "http://www.w3.org/Graphics/SVG/1.1/DTD/svg11.dtd">
<svg width="278mm" height="172mm" viewBox="0 0 27800 17200" version="1.1" xmlns="http://www.w3.org/2000/svg" xmlns:xlink="http://www.w3.org/1999/xlink" stroke-width="28.222" stroke-linejoin="round" xml:space="preserve">
 <path fill="rgb(255,255,255)" stroke="none" d="M 13921,17243 L 0,17243 0,0 27841,0 27841,17243 13921,17243 Z"/>
 <path fill="none" stroke="rgb(179,179,179)" stroke-linejoin="round" d="M 14285,15775 L 1291,15775 1291,1965 27280,1965 27280,15775 14285,15775 Z"/>
 <path fill="none" stroke="rgb(179,179,179)" stroke-linejoin="round" d="M 27280,15774 L 1291,15774"/>
 <path fill="none" stroke="rgb(179,179,179)" stroke-linejoin="round" d="M 27280,14047 L 1291,14047"/>
 <path fill="none" stroke="rgb(179,179,179)" stroke-linejoin="round" d="M 27280,12321 L 1291,12321"/>
 <path fill="none" stroke="rgb(179,179,179)" stroke-linejoin="round" d="M 27280,10594 L 1291,10594"/>
 <path fill="none" stroke="rgb(179,179,179)" stroke-linejoin="round" d="M 27280,8868 L 1291,8868"/>
 <path fill="none" stroke="rgb(179,179,179)" stroke-linejoin="round" d="M 27280,7143 L 1291,7143"/>
 <path fill="none" stroke="rgb(179,179,179)" stroke-linejoin="round" d="M 27280,5416 L 1291,5416"/>
 <path fill="none" stroke="rgb(179,179,179)" stroke-linejoin="round" d="M 27280,3690 L 1291,3690"/>
 <path fill="none" stroke="rgb(179,179,179)" stroke-linejoin="round" d="M 27280,1964 L 1291,1964"/>
 <path fill="none" stroke="rgb(179,179,179)" stroke-linejoin="round" d="M 1291,15924 L 1291,15774"/>
 <path fill="none" stroke="rgb(179,179,179)" stroke-linejoin="round" d="M 1291,15924 L 1291,15774"/>
 <path fill="none" stroke="rgb(179,179,179)" stroke-linejoin="round" d="M 5622,15924 L 5622,15774"/>
 <path fill="none" stroke="rgb(179,179,179)" stroke-linejoin="round" d="M 5622,15924 L 5622,15774"/>
 <path fill="none" stroke="rgb(179,179,179)" stroke-linejoin="round" d="M 9954,15924 L 9954,15774"/>
 <path fill="none" stroke="rgb(179,179,179)" stroke-linejoin="round" d="M 9954,15924 L 9954,15774"/>
 <path fill="none" stroke="rgb(179,179,179)" stroke-linejoin="round" d="M 14285,15924 L 14285,15774"/>
 <path fill="none" stroke="rgb(179,179,179)" stroke-linejoin="round" d="M 14285,15924 L 14285,15774"/>
 <path fill="none" stroke="rgb(179,179,179)" stroke-linejoin="round" d="M 18616,15924 L 18616,15774"/>
 <path fill="none" stroke="rgb(179,179,179)" stroke-linejoin="round" d="M 18616,15924 L 18616,15774"/>
 <path fill="none" stroke="rgb(179,179,179)" stroke-linejoin="round" d="M 22948,15924 L 22948,15774"/>
 <path fill="none" stroke="rgb(179,179,179)" stroke-linejoin="round" d="M 22948,15924 L 22948,15774"/>
 <path fill="none" stroke="rgb(179,179,179)" stroke-linejoin="round" d="M 27280,15924 L 27280,15774"/>
 <path fill="none" stroke="rgb(179,179,179)" stroke-linejoin="round" d="M 27280,15924 L 27280,15774"/>
 <path fill="none" stroke="rgb(179,179,179)" stroke-linejoin="round" d="M 1291,15774 L 27280,15774"/>
 <path fill="none" stroke="rgb(179,179,179)" stroke-linejoin="round" d="M 1141,15774 L 1291,15774"/>
 <path fill="none" stroke="rgb(179,179,179)" stroke-linejoin="round" d="M 1141,15774 L 1291,15774"/>
 <path fill="none" stroke="rgb(179,179,179)" stroke-linejoin="round" d="M 1141,14047 L 1291,14047"/>
 <path fill="none" stroke="rgb(179,179,179)" stroke-linejoin="round" d="M 1141,14047 L 1291,14047"/>
 <path fill="none" stroke="rgb(179,179,179)" stroke-linejoin="round" d="M 1141,12321 L 1291,12321"/>
 <path fill="none" stroke="rgb(179,179,179)" stroke-linejoin="round" d="M 1141,12321 L 1291,12321"/>
 <path fill="none" stroke="rgb(179,179,179)" stroke-linejoin="round" d="M 1141,10594 L 1291,10594"/>
 <path fill="none" stroke="rgb(179,179,179)" stroke-linejoin="round" d="M 1141,10594 L 1291,10594"/>
 <path fill="none" stroke="rgb(179,179,179)" stroke-linejoin="round" d="M 1141,8868 L 1291,8868"/>
 <path fill="none" stroke="rgb(179,179,179)" stroke-linejoin="round" d="M 1141,8868 L 1291,8868"/>
 <path fill="none" stroke="rgb(179,179,179)" stroke-linejoin="round" d="M 1141,7143 L 1291,7143"/>
 <path fill="none" stroke="rgb(179,179,179)" stroke-linejoin="round" d="M 1141,7143 L 1291,7143"/>
 <path fill="none" stroke="rgb(179,179,179)" stroke-linejoin="round" d="M 1141,5416 L 1291,5416"/>
 <path fill="none" stroke="rgb(179,179,179)" stroke-linejoin="round" d="M 1141,5416 L 1291,5416"/>
 <path fill="none" stroke="rgb(179,179,179)" stroke-linejoin="round" d="M 1141,3690 L 1291,3690"/>
 <path fill="none" stroke="rgb(179,179,179)" stroke-linejoin="round" d="M 1141,3690 L 1291,3690"/>
 <path fill="none" stroke="rgb(179,179,179)" stroke-linejoin="round" d="M 1141,1964 L 1291,1964"/>
 <path fill="none" stroke="rgb(179,179,179)" stroke-linejoin="round" d="M 1141,1964 L 1291,1964"/>
 <path fill="none" stroke="rgb(179,179,179)" stroke-linejoin="round" d="M 1291,15774 L 1291,1964"/>
 <path fill="rgb(115,197,18)" stroke="none" d="M 24031,15774 L 26197,15774 26197,6797 24031,6797 24031,15774 Z"/>
 <path fill="rgb(115,197,18)" stroke="none" d="M 19699,15774 L 21865,15774 21865,4898 19699,4898 19699,15774 Z"/>
 <path fill="rgb(115,197,18)" stroke="none" d="M 15367,15774 L 17533,15774 17533,4035 15367,4035 15367,15774 Z"/>
 <path fill="rgb(115,197,18)" stroke="none" d="M 11037,15774 L 13203,15774 13203,5589 11037,5589 11037,15774 Z"/>
 <path fill="rgb(115,197,18)" stroke="none" d="M 6705,15774 L 8871,15774 8871,5934 6705,5934 6705,15774 Z"/>
 <path fill="rgb(115,197,18)" stroke="none" d="M 2373,15774 L 4539,15774 4539,4294 2373,4294 2373,15774 Z"/>
 <path fill="none" stroke="rgb(0,0,0)" stroke-width="102" stroke-linejoin="round" d="M 3456,5116 L 3456,4294 3456,3472"/>
 <path fill="none" stroke="rgb(0,0,0)" stroke-width="102" stroke-linejoin="round" d="M 3556,5116 L 3356,5116"/>
 <path fill="none" stroke="rgb(0,0,0)" stroke-width="102" stroke-linejoin="round" d="M 3356,3472 L 3556,3472"/>
 <path fill="none" stroke="rgb(0,0,0)" stroke-width="102" stroke-linejoin="round" d="M 7788,6720 L 7788,5934 7788,5148"/>
 <path fill="none" stroke="rgb(0,0,0)" stroke-width="102" stroke-linejoin="round" d="M 7888,6720 L 7688,6720"/>
 <path fill="none" stroke="rgb(0,0,0)" stroke-width="102" stroke-linejoin="round" d="M 7688,5148 L 7888,5148"/>
 <path fill="none" stroke="rgb(0,0,0)" stroke-width="102" stroke-linejoin="round" d="M 12120,6383 L 12120,5589 12120,4795"/>
 <path fill="none" stroke="rgb(0,0,0)" stroke-width="102" stroke-linejoin="round" d="M 12220,6383 L 12020,6383"/>
 <path fill="none" stroke="rgb(0,0,0)" stroke-width="102" stroke-linejoin="round" d="M 12020,4795 L 12220,4795"/>
 <path fill="none" stroke="rgb(0,0,0)" stroke-width="102" stroke-linejoin="round" d="M 16450,4863 L 16450,4035 16450,3207"/>
 <path fill="none" stroke="rgb(0,0,0)" stroke-width="102" stroke-linejoin="round" d="M 16550,4863 L 16350,4863"/>
 <path fill="none" stroke="rgb(0,0,0)" stroke-width="102" stroke-linejoin="round" d="M 16350,3207 L 16550,3207"/>
 <path fill="none" stroke="rgb(0,0,0)" stroke-width="102" stroke-linejoin="round" d="M 20782,5707 L 20782,4898 20782,4089"/>
 <path fill="none" stroke="rgb(0,0,0)" stroke-width="102" stroke-linejoin="round" d="M 20882,5707 L 20682,5707"/>
 <path fill="none" stroke="rgb(0,0,0)" stroke-width="102" stroke-linejoin="round" d="M 20682,4089 L 20882,4089"/>
 <path fill="none" stroke="rgb(0,0,0)" stroke-width="102" stroke-linejoin="round" d="M 25114,7565 L 25114,6797 25114,6030"/>
 <path fill="none" stroke="rgb(0,0,0)" stroke-width="102" stroke-linejoin="round" d="M 25214,7565 L 25014,7565"/>
 <path fill="none" stroke="rgb(0,0,0)" stroke-width="102" stroke-linejoin="round" d="M 25014,6030 L 25214,6030"/>
 <text class="TextShape"><tspan class="TextParagraph" font-family="Liberation Sans, sans-serif" font-size="564px" font-weight="400"><tspan class="TextPosition" x="3292" y="16536"><tspan fill="rgb(0,0,0)" stroke="none">0</tspan></tspan></tspan></text>
 <text class="TextShape"><tspan class="TextParagraph" font-family="Liberation Sans, sans-serif" font-size="564px" font-weight="400"><tspan class="TextPosition" x="7624" y="16536"><tspan fill="rgb(0,0,0)" stroke="none">1</tspan></tspan></tspan></text>
 <text class="TextShape"><tspan class="TextParagraph" font-family="Liberation Sans, sans-serif" font-size="564px" font-weight="400"><tspan class="TextPosition" x="11956" y="16536"><tspan fill="rgb(0,0,0)" stroke="none">2</tspan></tspan></tspan></text>
 <text class="TextShape"><tspan class="TextParagraph" font-family="Liberation Sans, sans-serif" font-size="564px" font-weight="400"><tspan class="TextPosition" x="16287" y="16536"><tspan fill="rgb(0,0,0)" stroke="none">3</tspan></tspan></tspan></text>
 <text class="TextShape"><tspan class="TextParagraph" font-family="Liberation Sans, sans-serif" font-size="564px" font-weight="400"><tspan class="TextPosition" x="20619" y="16536"><tspan fill="rgb(0,0,0)" stroke="none">6</tspan></tspan></tspan></text>
 <text class="TextShape"><tspan class="TextParagraph" font-family="Liberation Sans, sans-serif" font-size="564px" font-weight="400"><tspan class="TextPosition" x="24787" y="16536"><tspan fill="rgb(0,0,0)" stroke="none">15</tspan></tspan></tspan></text>
 <text class="TextShape"><tspan class="TextParagraph" font-family="Liberation Sans, sans-serif" font-size="564px" font-weight="400"><tspan class="TextPosition" x="386" y="15970"><tspan fill="rgb(0,0,0)" stroke="none">30</tspan></tspan></tspan></text>
 <text class="TextShape"><tspan class="TextParagraph" font-family="Liberation Sans, sans-serif" font-size="564px" font-weight="400"><tspan class="TextPosition" x="386" y="14243"><tspan fill="rgb(0,0,0)" stroke="none">32</tspan></tspan></tspan></text>
 <text class="TextShape"><tspan class="TextParagraph" font-family="Liberation Sans, sans-serif" font-size="564px" font-weight="400"><tspan class="TextPosition" x="386" y="12517"><tspan fill="rgb(0,0,0)" stroke="none">34</tspan></tspan></tspan></text>
 <text class="TextShape"><tspan class="TextParagraph" font-family="Liberation Sans, sans-serif" font-size="564px" font-weight="400"><tspan class="TextPosition" x="386" y="10790"><tspan fill="rgb(0,0,0)" stroke="none">36</tspan></tspan></tspan></text>
 <text class="TextShape"><tspan class="TextParagraph" font-family="Liberation Sans, sans-serif" font-size="564px" font-weight="400"><tspan class="TextPosition" x="386" y="9064"><tspan fill="rgb(0,0,0)" stroke="none">38</tspan></tspan></tspan></text>
 <text class="TextShape"><tspan class="TextParagraph" font-family="Liberation Sans, sans-serif" font-size="564px" font-weight="400"><tspan class="TextPosition" x="386" y="7338"><tspan fill="rgb(0,0,0)" stroke="none">40</tspan></tspan></tspan></text>
 <text class="TextShape"><tspan class="TextParagraph" font-family="Liberation Sans, sans-serif" font-size="564px" font-weight="400"><tspan class="TextPosition" x="386" y="5611"><tspan fill="rgb(0,0,0)" stroke="none">42</tspan></tspan></tspan></text>
 <text class="TextShape"><tspan class="TextParagraph" font-family="Liberation Sans, sans-serif" font-size="564px" font-weight="400"><tspan class="TextPosition" x="386" y="3885"><tspan fill="rgb(0,0,0)" stroke="none">44</tspan></tspan></tspan></text>
 <text class="TextShape"><tspan class="TextParagraph" font-family="Liberation Sans, sans-serif" font-size="564px" font-weight="400"><tspan class="TextPosition" x="386" y="2159"><tspan fill="rgb(0,0,0)" stroke="none">46</tspan></tspan></tspan></text>
 <text class="TextShape"><tspan class="TextParagraph" font-family="Liberation Sans, sans-serif" font-size="564px" font-weight="400"><tspan class="TextPosition" x="8165" y="1161"><tspan fill="rgb(0,0,0)" stroke="none">Block / second, Full prefetch, 4 threads, sata</tspan></tspan></tspan></text>
 <text class="TextShape"><tspan class="TextParagraph" font-family="Liberation Sans, sans-serif" font-size="564px" font-weight="400"><tspan class="TextPosition" x="12733" y="16618"><tspan fill="rgb(0,0,0)" stroke="none">Readahead</tspan></tspan></tspan></text>
</svg>