<?xml version="1.0" encoding="UTF-8"?>
<!DOCTYPE svg PUBLIC "-//W3C//DTD SVG 1.1//EN" "http://www.w3.org/Graphics/SVG/1.1/DTD/svg11.dtd">
<svg width="202mm" height="137mm" viewBox="0 0 20200 13700" version="1.1" xmlns="http://www.w3.org/2000/svg" xmlns:xlink="http://www.w3.org/1999/xlink" stroke-width="28.222" stroke-linejoin="round" xml:space="preserve">
 <path fill="rgb(255,211,32)" stroke="none" d="M 8821,1598 C 8265,1598 7713,1685 7185,1857 6870,1959 6566,2090 6276,2249 L 8821,6891 8821,6891 8821,6891 8821,1598 Z"/>
 <path fill="rgb(87,157,28)" stroke="none" d="M 6276,2249 C 6079,2357 5890,2477 5709,2609 5259,2935 4864,3330 4538,3780 4211,4229 3957,4728 3786,5256 3614,5784 3527,6336 3527,6891 3527,7447 3614,7999 3786,8527 3957,9055 4211,9554 4538,10003 4864,10453 5259,10848 5709,11174 6158,11501 6657,11755 7185,11926 7713,12098 8265,12186 8821,12186 9377,12186 9929,12098 10456,11926 10984,11755 11483,11501 11932,11174 12382,10848 12777,10453 13103,10003 13430,9554 13684,9055 13855,8527 14027,7999 14115,7447 14115,6891 14115,6336 14027,5784 13855,5256 13772,4998 13668,4748 13546,4506 L 8821,6891 8821,6891 8821,6891 8821,6891 8821,6891 8821,6891 8821,6891 8821,6891 8821,6891 8821,6891 8821,6891 8821,6891 8821,6891 8821,6891 8821,6891 8821,6891 8821,6891 6276,2249 Z"/>
 <path fill="rgb(126,0,33)" stroke="none" d="M 13546,4506 C 13472,4359 13391,4216 13304,4077 L 8821,6891 8821,6891 13546,4506 Z"/>
 <path fill="rgb(131,202,255)" stroke="none" d="M 13304,4077 C 13149,3830 12975,3597 12782,3379 L 8821,6891 8821,6891 13304,4077 Z"/>
 <path fill="rgb(49,64,4)" stroke="none" d="M 12782,3379 C 12614,3190 12433,3013 12239,2850 L 8821,6891 8821,6891 12782,3379 Z"/>
 <path fill="rgb(174,207,0)" stroke="none" d="M 12239,2850 C 11853,2523 11421,2253 10957,2048 L 8821,6891 8821,6891 12239,2850 Z"/>
 <path fill="rgb(75,31,111)" stroke="none" d="M 10957,2048 C 10794,1976 10626,1912 10456,1857 9929,1685 9377,1598 8821,1598 L 8821,6891 8821,6891 8821,6891 10957,2048 Z"/>
 <text class="TextShape"><tspan class="TextParagraph" font-family="Liberation Sans, sans-serif" font-size="564px" font-weight="400"><tspan class="TextPosition" x="6804" y="1496"><tspan fill="rgb(0,0,0)" stroke="none">8.0%</tspan></tspan></tspan></text>
 <text class="TextShape"><tspan class="TextParagraph" font-family="Liberation Sans, sans-serif" font-size="564px" font-weight="400"><tspan class="TextPosition" x="6378" y="12603"><tspan fill="rgb(0,0,0)" stroke="none">74.5%</tspan></tspan></tspan></text>
 <text class="TextShape"><tspan class="TextParagraph" font-family="Liberation Sans, sans-serif" font-size="564px" font-weight="400"><tspan class="TextPosition" x="13561" y="4093"><tspan fill="rgb(0,0,0)" stroke="none">1.5%</tspan></tspan></tspan></text>
 <text class="TextShape"><tspan class="TextParagraph" font-family="Liberation Sans, sans-serif" font-size="564px" font-weight="400"><tspan class="TextPosition" x="13177" y="3505"><tspan fill="rgb(0,0,0)" stroke="none">2.6%</tspan></tspan></tspan></text>
 <text class="TextShape"><tspan class="TextParagraph" font-family="Liberation Sans, sans-serif" font-size="564px" font-weight="400"><tspan class="TextPosition" x="12625" y="2876"><tspan fill="rgb(0,0,0)" stroke="none">2.3%</tspan></tspan></tspan></text>
 <text class="TextShape"><tspan class="TextParagraph" font-family="Liberation Sans, sans-serif" font-size="564px" font-weight="400"><tspan class="TextPosition" x="11707" y="2154"><tspan fill="rgb(0,0,0)" stroke="none">4.6%</tspan></tspan></tspan></text>
 <text class="TextShape"><tspan class="TextParagraph" font-family="Liberation Sans, sans-serif" font-size="564px" font-weight="400"><tspan class="TextPosition" x="9278" y="1442"><tspan fill="rgb(0,0,0)" stroke="none">6.6%</tspan></tspan></tspan></text>
 <path fill="rgb(0,69,134)" stroke="none" d="M 15465,4022 L 15296,4022 15296,3684 15634,3684 15634,4022 15465,4022 Z"/>
 <path fill="rgb(255,66,14)" stroke="none" d="M 15465,4770 L 15296,4770 15296,4432 15634,4432 15634,4770 15465,4770 Z"/>
 <path fill="rgb(255,211,32)" stroke="none" d="M 15465,5518 L 15296,5518 15296,5180 15634,5180 15634,5518 15465,5518 Z"/>
 <path fill="rgb(87,157,28)" stroke="none" d="M 15465,6266 L 15296,6266 15296,5928 15634,5928 15634,6266 15465,6266 Z"/>
 <path fill="rgb(126,0,33)" stroke="none" d="M 15465,7013 L 15296,7013 15296,6676 15634,6676 15634,7013 15465,7013 Z"/>
 <path fill="rgb(131,202,255)" stroke="none" d="M 15465,7761 L 15296,7761 15296,7423 15634,7423 15634,7761 15465,7761 Z"/>
 <path fill="rgb(49,64,4)" stroke="none" d="M 15465,8509 L 15296,8509 15296,8171 15634,8171 15634,8509 15465,8509 Z"/>
 <path fill="rgb(174,207,0)" stroke="none" d="M 15465,9257 L 15296,9257 15296,8919 15634,8919 15634,9257 15465,9257 Z"/>
 <path fill="rgb(75,31,111)" stroke="none" d="M 15465,10005 L 15296,10005 15296,9667 15634,9667 15634,10005 15465,10005 Z"/>
 <text class="TextShape"><tspan class="TextParagraph" font-family="Liberation Sans, sans-serif" font-size="564px" font-weight="400"><tspan class="TextPosition" x="15758" y="4047"><tspan fill="rgb(0,0,0)" stroke="none">Headers</tspan></tspan></tspan></text>
 <text class="TextShape"><tspan class="TextParagraph" font-family="Liberation Sans, sans-serif" font-size="564px" font-weight="400"><tspan class="TextPosition" x="15758" y="4795"><tspan fill="rgb(0,0,0)" stroke="none">Bodies</tspan></tspan></tspan></text>
 <text class="TextShape"><tspan class="TextParagraph" font-family="Liberation Sans, sans-serif" font-size="564px" font-weight="400"><tspan class="TextPosition" x="15758" y="5543"><tspan fill="rgb(0,0,0)" stroke="none">Senders</tspan></tspan></tspan></text>
 <text class="TextShape"><tspan class="TextParagraph" font-family="Liberation Sans, sans-serif" font-size="564px" font-weight="400"><tspan class="TextPosition" x="15758" y="6291"><tspan fill="rgb(0,0,0)" stroke="none">Execution</tspan></tspan></tspan></text>
 <text class="TextShape"><tspan class="TextParagraph" font-family="Liberation Sans, sans-serif" font-size="564px" font-weight="400"><tspan class="TextPosition" x="15758" y="7038"><tspan fill="rgb(0,0,0)" stroke="none">RootHash</tspan></tspan></tspan></text>
 <text class="TextShape"><tspan class="TextParagraph" font-family="Liberation Sans, sans-serif" font-size="564px" font-weight="400"><tspan class="TextPosition" x="15758" y="7786"><tspan fill="rgb(0,0,0)" stroke="none">HashedState</tspan></tspan></tspan></text>
 <text class="TextShape"><tspan class="TextParagraph" font-family="Liberation Sans, sans-serif" font-size="564px" font-weight="400"><tspan class="TextPosition" x="15758" y="8534"><tspan fill="rgb(0,0,0)" stroke="none">AccountLookup</tspan></tspan></tspan></text>
 <text class="TextShape"><tspan class="TextParagraph" font-family="Liberation Sans, sans-serif" font-size="564px" font-weight="400"><tspan class="TextPosition" x="15758" y="9282"><tspan fill="rgb(0,0,0)" stroke="none">StorageLookup</tspan></tspan></tspan></text>
 <text class="TextShape"><tspan class="TextParagraph" font-family="Liberation Sans, sans-serif" font-size="564px" font-weight="400"><tspan class="TextPosition" x="15758" y="10030"><tspan fill="rgb(0,0,0)" stroke="none">TxLookup</tspan></tspan></tspan></text>
</svg>