<?xml version="1.0" encoding="utf-8" standalone="no"?>
<!DOCTYPE svg PUBLIC "-//W3C//DTD SVG 1.1//EN"
  "http://www.w3.org/Graphics/SVG/1.1/DTD/svg11.dtd">
<svg xmlns:xlink="http://www.w3.org/1999/xlink" width="616.34pt" height="309.406875pt" viewBox="0 0 616.34 309.406875" xmlns="http://www.w3.org/2000/svg" version="1.1">
 <metadata>
  <rdf:RDF xmlns:dc="http://purl.org/dc/elements/1.1/" xmlns:cc="http://creativecommons.org/ns#" xmlns:rdf="http://www.w3.org/1999/02/22-rdf-syntax-ns#">
   <cc:Work>
    <dc:type rdf:resource="http://purl.org/dc/dcmitype/StillImage"/>
    <dc:date>2022-02-23T14:54:10.655268</dc:date>
    <dc:format>image/svg+xml</dc:format>
    <dc:creator>
     <cc:Agent>
      <dc:title>Matplotlib v3.5.1, https://matplotlib.org/</dc:title>
     </cc:Agent>
    </dc:creator>
   </cc:Work>
  </rdf:RDF>
 </metadata>
 <defs>
  <style type="text/css">*{stroke-linejoin: round; stroke-linecap: butt}</style>
 </defs>
 <g id="figure_1">
  <g id="patch_1">
   <path d="M 0 309.406875 
L 616.34 309.406875 
L 616.34 0 
L 0 0 
z
" style="fill: #ffffff"/>
  </g>
  <g id="axes_1">
   <g id="patch_2">
    <path d="M 64.885312 271.850625 
L 399.685313 271.850625 
L 399.685313 22.370625 
L 64.885312 22.370625 
z
" style="fill: #ffffff"/>
   </g>
   <g id="matplotlib.axis_1">
    <g id="xtick_1">
     <g id="line2d_1">
      <path d="M 80.103494 271.850625 
L 80.103494 22.370625 
" clip-path="url(#p95f155b212)" style="fill: none; stroke: #b0b0b0; stroke-width: 0.8; stroke-linecap: square"/>
     </g>
     <g id="line2d_2">
      <defs>
       <path id="m553fe2bf24" d="M 0 0 
L 0 3.5 
" style="stroke: #000000; stroke-width: 0.8"/>
      </defs>
      <g>
       <use xlink:href="#m553fe2bf24" x="80.103494" y="271.850625" style="stroke: #000000; stroke-width: 0.8"/>
      </g>
     </g>
     <g id="text_1">
      <!-- 0 -->
      <g transform="translate(76.922244 286.449062)scale(0.1 -0.1)">
       <defs>
        <path id="DejaVuSans-30" d="M 2034 4250 
Q 1547 4250 1301 3770 
Q 1056 3291 1056 2328 
Q 1056 1369 1301 889 
Q 1547 409 2034 409 
Q 2525 409 2770 889 
Q 3016 1369 3016 2328 
Q 3016 3291 2770 3770 
Q 2525 4250 2034 4250 
z
M 2034 4750 
Q 2819 4750 3233 4129 
Q 3647 3509 3647 2328 
Q 3647 1150 3233 529 
Q 2819 -91 2034 -91 
Q 1250 -91 836 529 
Q 422 1150 422 2328 
Q 422 3509 836 4129 
Q 1250 4750 2034 4750 
z
" transform="scale(0.015625)"/>
       </defs>
       <use xlink:href="#DejaVuSans-30"/>
      </g>
     </g>
    </g>
    <g id="xtick_2">
     <g id="line2d_3">
      <path d="M 130.830767 271.850625 
L 130.830767 22.370625 
" clip-path="url(#p95f155b212)" style="fill: none; stroke: #b0b0b0; stroke-width: 0.8; stroke-linecap: square"/>
     </g>
     <g id="line2d_4">
      <g>
       <use xlink:href="#m553fe2bf24" x="130.830767" y="271.850625" style="stroke: #000000; stroke-width: 0.8"/>
      </g>
     </g>
     <g id="text_2">
      <!-- 5000 -->
      <g transform="translate(118.105767 286.449062)scale(0.1 -0.1)">
       <defs>
        <path id="DejaVuSans-35" d="M 691 4666 
L 3169 4666 
L 3169 4134 
L 1269 4134 
L 1269 2991 
Q 1406 3038 1543 3061 
Q 1681 3084 1819 3084 
Q 2600 3084 3056 2656 
Q 3513 2228 3513 1497 
Q 3513 744 3044 326 
Q 2575 -91 1722 -91 
Q 1428 -91 1123 -41 
Q 819 9 494 109 
L 494 744 
Q 775 591 1075 516 
Q 1375 441 1709 441 
Q 2250 441 2565 725 
Q 2881 1009 2881 1497 
Q 2881 1984 2565 2268 
Q 2250 2553 1709 2553 
Q 1456 2553 1204 2497 
Q 953 2441 691 2322 
L 691 4666 
z
" transform="scale(0.015625)"/>
       </defs>
       <use xlink:href="#DejaVuSans-35"/>
       <use xlink:href="#DejaVuSans-30" x="63.623047"/>
       <use xlink:href="#DejaVuSans-30" x="127.246094"/>
       <use xlink:href="#DejaVuSans-30" x="190.869141"/>
      </g>
     </g>
    </g>
    <g id="xtick_3">
     <g id="line2d_5">
      <path d="M 181.55804 271.850625 
L 181.55804 22.370625 
" clip-path="url(#p95f155b212)" style="fill: none; stroke: #b0b0b0; stroke-width: 0.8; stroke-linecap: square"/>
     </g>
     <g id="line2d_6">
      <g>
       <use xlink:href="#m553fe2bf24" x="181.55804" y="271.850625" style="stroke: #000000; stroke-width: 0.8"/>
      </g>
     </g>
     <g id="text_3">
      <!-- 10000 -->
      <g transform="translate(165.65179 286.449062)scale(0.1 -0.1)">
       <defs>
        <path id="DejaVuSans-31" d="M 794 531 
L 1825 531 
L 1825 4091 
L 703 3866 
L 703 4441 
L 1819 4666 
L 2450 4666 
L 2450 531 
L 3481 531 
L 3481 0 
L 794 0 
L 794 531 
z
" transform="scale(0.015625)"/>
       </defs>
       <use xlink:href="#DejaVuSans-31"/>
       <use xlink:href="#DejaVuSans-30" x="63.623047"/>
       <use xlink:href="#DejaVuSans-30" x="127.246094"/>
       <use xlink:href="#DejaVuSans-30" x="190.869141"/>
       <use xlink:href="#DejaVuSans-30" x="254.492188"/>
      </g>
     </g>
    </g>
    <g id="xtick_4">
     <g id="line2d_7">
      <path d="M 232.285312 271.850625 
L 232.285312 22.370625 
" clip-path="url(#p95f155b212)" style="fill: none; stroke: #b0b0b0; stroke-width: 0.8; stroke-linecap: square"/>
     </g>
     <g id="line2d_8">
      <g>
       <use xlink:href="#m553fe2bf24" x="232.285312" y="271.850625" style="stroke: #000000; stroke-width: 0.8"/>
      </g>
     </g>
     <g id="text_4">
      <!-- 15000 -->
      <g transform="translate(216.379062 286.449062)scale(0.1 -0.1)">
       <use xlink:href="#DejaVuSans-31"/>
       <use xlink:href="#DejaVuSans-35" x="63.623047"/>
       <use xlink:href="#DejaVuSans-30" x="127.246094"/>
       <use xlink:href="#DejaVuSans-30" x="190.869141"/>
       <use xlink:href="#DejaVuSans-30" x="254.492188"/>
      </g>
     </g>
    </g>
    <g id="xtick_5">
     <g id="line2d_9">
      <path d="M 283.012585 271.850625 
L 283.012585 22.370625 
" clip-path="url(#p95f155b212)" style="fill: none; stroke: #b0b0b0; stroke-width: 0.8; stroke-linecap: square"/>
     </g>
     <g id="line2d_10">
      <g>
       <use xlink:href="#m553fe2bf24" x="283.012585" y="271.850625" style="stroke: #000000; stroke-width: 0.8"/>
      </g>
     </g>
     <g id="text_5">
      <!-- 20000 -->
      <g transform="translate(267.106335 286.449062)scale(0.1 -0.1)">
       <defs>
        <path id="DejaVuSans-32" d="M 1228 531 
L 3431 531 
L 3431 0 
L 469 0 
L 469 531 
Q 828 903 1448 1529 
Q 2069 2156 2228 2338 
Q 2531 2678 2651 2914 
Q 2772 3150 2772 3378 
Q 2772 3750 2511 3984 
Q 2250 4219 1831 4219 
Q 1534 4219 1204 4116 
Q 875 4013 500 3803 
L 500 4441 
Q 881 4594 1212 4672 
Q 1544 4750 1819 4750 
Q 2544 4750 2975 4387 
Q 3406 4025 3406 3419 
Q 3406 3131 3298 2873 
Q 3191 2616 2906 2266 
Q 2828 2175 2409 1742 
Q 1991 1309 1228 531 
z
" transform="scale(0.015625)"/>
       </defs>
       <use xlink:href="#DejaVuSans-32"/>
       <use xlink:href="#DejaVuSans-30" x="63.623047"/>
       <use xlink:href="#DejaVuSans-30" x="127.246094"/>
       <use xlink:href="#DejaVuSans-30" x="190.869141"/>
       <use xlink:href="#DejaVuSans-30" x="254.492188"/>
      </g>
     </g>
    </g>
    <g id="xtick_6">
     <g id="line2d_11">
      <path d="M 333.739858 271.850625 
L 333.739858 22.370625 
" clip-path="url(#p95f155b212)" style="fill: none; stroke: #b0b0b0; stroke-width: 0.8; stroke-linecap: square"/>
     </g>
     <g id="line2d_12">
      <g>
       <use xlink:href="#m553fe2bf24" x="333.739858" y="271.850625" style="stroke: #000000; stroke-width: 0.8"/>
      </g>
     </g>
     <g id="text_6">
      <!-- 25000 -->
      <g transform="translate(317.833608 286.449062)scale(0.1 -0.1)">
       <use xlink:href="#DejaVuSans-32"/>
       <use xlink:href="#DejaVuSans-35" x="63.623047"/>
       <use xlink:href="#DejaVuSans-30" x="127.246094"/>
       <use xlink:href="#DejaVuSans-30" x="190.869141"/>
       <use xlink:href="#DejaVuSans-30" x="254.492188"/>
      </g>
     </g>
    </g>
    <g id="xtick_7">
     <g id="line2d_13">
      <path d="M 384.467131 271.850625 
L 384.467131 22.370625 
" clip-path="url(#p95f155b212)" style="fill: none; stroke: #b0b0b0; stroke-width: 0.8; stroke-linecap: square"/>
     </g>
     <g id="line2d_14">
      <g>
       <use xlink:href="#m553fe2bf24" x="384.467131" y="271.850625" style="stroke: #000000; stroke-width: 0.8"/>
      </g>
     </g>
     <g id="text_7">
      <!-- 30000 -->
      <g transform="translate(368.560881 286.449062)scale(0.1 -0.1)">
       <defs>
        <path id="DejaVuSans-33" d="M 2597 2516 
Q 3050 2419 3304 2112 
Q 3559 1806 3559 1356 
Q 3559 666 3084 287 
Q 2609 -91 1734 -91 
Q 1441 -91 1130 -33 
Q 819 25 488 141 
L 488 750 
Q 750 597 1062 519 
Q 1375 441 1716 441 
Q 2309 441 2620 675 
Q 2931 909 2931 1356 
Q 2931 1769 2642 2001 
Q 2353 2234 1838 2234 
L 1294 2234 
L 1294 2753 
L 1863 2753 
Q 2328 2753 2575 2939 
Q 2822 3125 2822 3475 
Q 2822 3834 2567 4026 
Q 2313 4219 1838 4219 
Q 1578 4219 1281 4162 
Q 984 4106 628 3988 
L 628 4550 
Q 988 4650 1302 4700 
Q 1616 4750 1894 4750 
Q 2613 4750 3031 4423 
Q 3450 4097 3450 3541 
Q 3450 3153 3228 2886 
Q 3006 2619 2597 2516 
z
" transform="scale(0.015625)"/>
       </defs>
       <use xlink:href="#DejaVuSans-33"/>
       <use xlink:href="#DejaVuSans-30" x="63.623047"/>
       <use xlink:href="#DejaVuSans-30" x="127.246094"/>
       <use xlink:href="#DejaVuSans-30" x="190.869141"/>
       <use xlink:href="#DejaVuSans-30" x="254.492188"/>
      </g>
     </g>
    </g>
    <g id="text_8">
     <!-- Blocks (+10.5M) -->
     <g transform="translate(191.029844 300.127187)scale(0.1 -0.1)">
      <defs>
       <path id="DejaVuSans-42" d="M 1259 2228 
L 1259 519 
L 2272 519 
Q 2781 519 3026 730 
Q 3272 941 3272 1375 
Q 3272 1813 3026 2020 
Q 2781 2228 2272 2228 
L 1259 2228 
z
M 1259 4147 
L 1259 2741 
L 2194 2741 
Q 2656 2741 2882 2914 
Q 3109 3088 3109 3444 
Q 3109 3797 2882 3972 
Q 2656 4147 2194 4147 
L 1259 4147 
z
M 628 4666 
L 2241 4666 
Q 2963 4666 3353 4366 
Q 3744 4066 3744 3513 
Q 3744 3084 3544 2831 
Q 3344 2578 2956 2516 
Q 3422 2416 3680 2098 
Q 3938 1781 3938 1306 
Q 3938 681 3513 340 
Q 3088 0 2303 0 
L 628 0 
L 628 4666 
z
" transform="scale(0.015625)"/>
       <path id="DejaVuSans-6c" d="M 603 4863 
L 1178 4863 
L 1178 0 
L 603 0 
L 603 4863 
z
" transform="scale(0.015625)"/>
       <path id="DejaVuSans-6f" d="M 1959 3097 
Q 1497 3097 1228 2736 
Q 959 2375 959 1747 
Q 959 1119 1226 758 
Q 1494 397 1959 397 
Q 2419 397 2687 759 
Q 2956 1122 2956 1747 
Q 2956 2369 2687 2733 
Q 2419 3097 1959 3097 
z
M 1959 3584 
Q 2709 3584 3137 3096 
Q 3566 2609 3566 1747 
Q 3566 888 3137 398 
Q 2709 -91 1959 -91 
Q 1206 -91 779 398 
Q 353 888 353 1747 
Q 353 2609 779 3096 
Q 1206 3584 1959 3584 
z
" transform="scale(0.015625)"/>
       <path id="DejaVuSans-63" d="M 3122 3366 
L 3122 2828 
Q 2878 2963 2633 3030 
Q 2388 3097 2138 3097 
Q 1578 3097 1268 2742 
Q 959 2388 959 1747 
Q 959 1106 1268 751 
Q 1578 397 2138 397 
Q 2388 397 2633 464 
Q 2878 531 3122 666 
L 3122 134 
Q 2881 22 2623 -34 
Q 2366 -91 2075 -91 
Q 1284 -91 818 406 
Q 353 903 353 1747 
Q 353 2603 823 3093 
Q 1294 3584 2113 3584 
Q 2378 3584 2631 3529 
Q 2884 3475 3122 3366 
z
" transform="scale(0.015625)"/>
       <path id="DejaVuSans-6b" d="M 581 4863 
L 1159 4863 
L 1159 1991 
L 2875 3500 
L 3609 3500 
L 1753 1863 
L 3688 0 
L 2938 0 
L 1159 1709 
L 1159 0 
L 581 0 
L 581 4863 
z
" transform="scale(0.015625)"/>
       <path id="DejaVuSans-73" d="M 2834 3397 
L 2834 2853 
Q 2591 2978 2328 3040 
Q 2066 3103 1784 3103 
Q 1356 3103 1142 2972 
Q 928 2841 928 2578 
Q 928 2378 1081 2264 
Q 1234 2150 1697 2047 
L 1894 2003 
Q 2506 1872 2764 1633 
Q 3022 1394 3022 966 
Q 3022 478 2636 193 
Q 2250 -91 1575 -91 
Q 1294 -91 989 -36 
Q 684 19 347 128 
L 347 722 
Q 666 556 975 473 
Q 1284 391 1588 391 
Q 1994 391 2212 530 
Q 2431 669 2431 922 
Q 2431 1156 2273 1281 
Q 2116 1406 1581 1522 
L 1381 1569 
Q 847 1681 609 1914 
Q 372 2147 372 2553 
Q 372 3047 722 3315 
Q 1072 3584 1716 3584 
Q 2034 3584 2315 3537 
Q 2597 3491 2834 3397 
z
" transform="scale(0.015625)"/>
       <path id="DejaVuSans-20" transform="scale(0.015625)"/>
       <path id="DejaVuSans-28" d="M 1984 4856 
Q 1566 4138 1362 3434 
Q 1159 2731 1159 2009 
Q 1159 1288 1364 580 
Q 1569 -128 1984 -844 
L 1484 -844 
Q 1016 -109 783 600 
Q 550 1309 550 2009 
Q 550 2706 781 3412 
Q 1013 4119 1484 4856 
L 1984 4856 
z
" transform="scale(0.015625)"/>
       <path id="DejaVuSans-2b" d="M 2944 4013 
L 2944 2272 
L 4684 2272 
L 4684 1741 
L 2944 1741 
L 2944 0 
L 2419 0 
L 2419 1741 
L 678 1741 
L 678 2272 
L 2419 2272 
L 2419 4013 
L 2944 4013 
z
" transform="scale(0.015625)"/>
       <path id="DejaVuSans-2e" d="M 684 794 
L 1344 794 
L 1344 0 
L 684 0 
L 684 794 
z
" transform="scale(0.015625)"/>
       <path id="DejaVuSans-4d" d="M 628 4666 
L 1569 4666 
L 2759 1491 
L 3956 4666 
L 4897 4666 
L 4897 0 
L 4281 0 
L 4281 4097 
L 3078 897 
L 2444 897 
L 1241 4097 
L 1241 0 
L 628 0 
L 628 4666 
z
" transform="scale(0.015625)"/>
       <path id="DejaVuSans-29" d="M 513 4856 
L 1013 4856 
Q 1481 4119 1714 3412 
Q 1947 2706 1947 2009 
Q 1947 1309 1714 600 
Q 1481 -109 1013 -844 
L 513 -844 
Q 928 -128 1133 580 
Q 1338 1288 1338 2009 
Q 1338 2731 1133 3434 
Q 928 4138 513 4856 
z
" transform="scale(0.015625)"/>
      </defs>
      <use xlink:href="#DejaVuSans-42"/>
      <use xlink:href="#DejaVuSans-6c" x="68.603516"/>
      <use xlink:href="#DejaVuSans-6f" x="96.386719"/>
      <use xlink:href="#DejaVuSans-63" x="157.568359"/>
      <use xlink:href="#DejaVuSans-6b" x="212.548828"/>
      <use xlink:href="#DejaVuSans-73" x="270.458984"/>
      <use xlink:href="#DejaVuSans-20" x="322.558594"/>
      <use xlink:href="#DejaVuSans-28" x="354.345703"/>
      <use xlink:href="#DejaVuSans-2b" x="393.359375"/>
      <use xlink:href="#DejaVuSans-31" x="477.148438"/>
      <use xlink:href="#DejaVuSans-30" x="540.771484"/>
      <use xlink:href="#DejaVuSans-2e" x="604.394531"/>
      <use xlink:href="#DejaVuSans-35" x="636.181641"/>
      <use xlink:href="#DejaVuSans-4d" x="699.804688"/>
      <use xlink:href="#DejaVuSans-29" x="786.083984"/>
     </g>
    </g>
   </g>
   <g id="matplotlib.axis_2">
    <g id="ytick_1">
     <g id="line2d_15">
      <path d="M 64.885312 260.510625 
L 399.685313 260.510625 
" clip-path="url(#p95f155b212)" style="fill: none; stroke: #b0b0b0; stroke-width: 0.8; stroke-linecap: square"/>
     </g>
     <g id="line2d_16">
      <defs>
       <path id="m8bbdff4813" d="M 0 0 
L -3.5 0 
" style="stroke: #000000; stroke-width: 0.8"/>
      </defs>
      <g>
       <use xlink:href="#m8bbdff4813" x="64.885312" y="260.510625" style="stroke: #000000; stroke-width: 0.8"/>
      </g>
     </g>
     <g id="text_9">
      <!-- 0 -->
      <g transform="translate(51.522812 264.309844)scale(0.1 -0.1)">
       <use xlink:href="#DejaVuSans-30"/>
      </g>
     </g>
    </g>
    <g id="ytick_2">
     <g id="line2d_17">
      <path d="M 64.885312 208.576802 
L 399.685313 208.576802 
" clip-path="url(#p95f155b212)" style="fill: none; stroke: #b0b0b0; stroke-width: 0.8; stroke-linecap: square"/>
     </g>
     <g id="line2d_18">
      <g>
       <use xlink:href="#m8bbdff4813" x="64.885312" y="208.576802" style="stroke: #000000; stroke-width: 0.8"/>
      </g>
     </g>
     <g id="text_10">
      <!-- 10 -->
      <g transform="translate(45.160312 212.37602)scale(0.1 -0.1)">
       <use xlink:href="#DejaVuSans-31"/>
       <use xlink:href="#DejaVuSans-30" x="63.623047"/>
      </g>
     </g>
    </g>
    <g id="ytick_3">
     <g id="line2d_19">
      <path d="M 64.885312 156.642978 
L 399.685313 156.642978 
" clip-path="url(#p95f155b212)" style="fill: none; stroke: #b0b0b0; stroke-width: 0.8; stroke-linecap: square"/>
     </g>
     <g id="line2d_20">
      <g>
       <use xlink:href="#m8bbdff4813" x="64.885312" y="156.642978" style="stroke: #000000; stroke-width: 0.8"/>
      </g>
     </g>
     <g id="text_11">
      <!-- 20 -->
      <g transform="translate(45.160312 160.442197)scale(0.1 -0.1)">
       <use xlink:href="#DejaVuSans-32"/>
       <use xlink:href="#DejaVuSans-30" x="63.623047"/>
      </g>
     </g>
    </g>
    <g id="ytick_4">
     <g id="line2d_21">
      <path d="M 64.885312 104.709155 
L 399.685313 104.709155 
" clip-path="url(#p95f155b212)" style="fill: none; stroke: #b0b0b0; stroke-width: 0.8; stroke-linecap: square"/>
     </g>
     <g id="line2d_22">
      <g>
       <use xlink:href="#m8bbdff4813" x="64.885312" y="104.709155" style="stroke: #000000; stroke-width: 0.8"/>
      </g>
     </g>
     <g id="text_12">
      <!-- 30 -->
      <g transform="translate(45.160312 108.508374)scale(0.1 -0.1)">
       <use xlink:href="#DejaVuSans-33"/>
       <use xlink:href="#DejaVuSans-30" x="63.623047"/>
      </g>
     </g>
    </g>
    <g id="ytick_5">
     <g id="line2d_23">
      <path d="M 64.885312 52.775332 
L 399.685313 52.775332 
" clip-path="url(#p95f155b212)" style="fill: none; stroke: #b0b0b0; stroke-width: 0.8; stroke-linecap: square"/>
     </g>
     <g id="line2d_24">
      <g>
       <use xlink:href="#m8bbdff4813" x="64.885312" y="52.775332" style="stroke: #000000; stroke-width: 0.8"/>
      </g>
     </g>
     <g id="text_13">
      <!-- 40 -->
      <g transform="translate(45.160312 56.57455)scale(0.1 -0.1)">
       <defs>
        <path id="DejaVuSans-34" d="M 2419 4116 
L 825 1625 
L 2419 1625 
L 2419 4116 
z
M 2253 4666 
L 3047 4666 
L 3047 1625 
L 3713 1625 
L 3713 1100 
L 3047 1100 
L 3047 0 
L 2419 0 
L 2419 1100 
L 313 1100 
L 313 1709 
L 2253 4666 
z
" transform="scale(0.015625)"/>
       </defs>
       <use xlink:href="#DejaVuSans-34"/>
       <use xlink:href="#DejaVuSans-30" x="63.623047"/>
      </g>
     </g>
    </g>
    <g id="text_14">
     <!-- blocks / second -->
     <g transform="translate(39.080625 185.677812)rotate(-90)scale(0.1 -0.1)">
      <defs>
       <path id="DejaVuSans-62" d="M 3116 1747 
Q 3116 2381 2855 2742 
Q 2594 3103 2138 3103 
Q 1681 3103 1420 2742 
Q 1159 2381 1159 1747 
Q 1159 1113 1420 752 
Q 1681 391 2138 391 
Q 2594 391 2855 752 
Q 3116 1113 3116 1747 
z
M 1159 2969 
Q 1341 3281 1617 3432 
Q 1894 3584 2278 3584 
Q 2916 3584 3314 3078 
Q 3713 2572 3713 1747 
Q 3713 922 3314 415 
Q 2916 -91 2278 -91 
Q 1894 -91 1617 61 
Q 1341 213 1159 525 
L 1159 0 
L 581 0 
L 581 4863 
L 1159 4863 
L 1159 2969 
z
" transform="scale(0.015625)"/>
       <path id="DejaVuSans-2f" d="M 1625 4666 
L 2156 4666 
L 531 -594 
L 0 -594 
L 1625 4666 
z
" transform="scale(0.015625)"/>
       <path id="DejaVuSans-65" d="M 3597 1894 
L 3597 1613 
L 953 1613 
Q 991 1019 1311 708 
Q 1631 397 2203 397 
Q 2534 397 2845 478 
Q 3156 559 3463 722 
L 3463 178 
Q 3153 47 2828 -22 
Q 2503 -91 2169 -91 
Q 1331 -91 842 396 
Q 353 884 353 1716 
Q 353 2575 817 3079 
Q 1281 3584 2069 3584 
Q 2775 3584 3186 3129 
Q 3597 2675 3597 1894 
z
M 3022 2063 
Q 3016 2534 2758 2815 
Q 2500 3097 2075 3097 
Q 1594 3097 1305 2825 
Q 1016 2553 972 2059 
L 3022 2063 
z
" transform="scale(0.015625)"/>
       <path id="DejaVuSans-6e" d="M 3513 2113 
L 3513 0 
L 2938 0 
L 2938 2094 
Q 2938 2591 2744 2837 
Q 2550 3084 2163 3084 
Q 1697 3084 1428 2787 
Q 1159 2491 1159 1978 
L 1159 0 
L 581 0 
L 581 3500 
L 1159 3500 
L 1159 2956 
Q 1366 3272 1645 3428 
Q 1925 3584 2291 3584 
Q 2894 3584 3203 3211 
Q 3513 2838 3513 2113 
z
" transform="scale(0.015625)"/>
       <path id="DejaVuSans-64" d="M 2906 2969 
L 2906 4863 
L 3481 4863 
L 3481 0 
L 2906 0 
L 2906 525 
Q 2725 213 2448 61 
Q 2172 -91 1784 -91 
Q 1150 -91 751 415 
Q 353 922 353 1747 
Q 353 2572 751 3078 
Q 1150 3584 1784 3584 
Q 2172 3584 2448 3432 
Q 2725 3281 2906 2969 
z
M 947 1747 
Q 947 1113 1208 752 
Q 1469 391 1925 391 
Q 2381 391 2643 752 
Q 2906 1113 2906 1747 
Q 2906 2381 2643 2742 
Q 2381 3103 1925 3103 
Q 1469 3103 1208 2742 
Q 947 2381 947 1747 
z
" transform="scale(0.015625)"/>
      </defs>
      <use xlink:href="#DejaVuSans-62"/>
      <use xlink:href="#DejaVuSans-6c" x="63.476562"/>
      <use xlink:href="#DejaVuSans-6f" x="91.259766"/>
      <use xlink:href="#DejaVuSans-63" x="152.441406"/>
      <use xlink:href="#DejaVuSans-6b" x="207.421875"/>
      <use xlink:href="#DejaVuSans-73" x="265.332031"/>
      <use xlink:href="#DejaVuSans-20" x="317.431641"/>
      <use xlink:href="#DejaVuSans-2f" x="349.21875"/>
      <use xlink:href="#DejaVuSans-20" x="382.910156"/>
      <use xlink:href="#DejaVuSans-73" x="414.697266"/>
      <use xlink:href="#DejaVuSans-65" x="466.796875"/>
      <use xlink:href="#DejaVuSans-63" x="528.320312"/>
      <use xlink:href="#DejaVuSans-6f" x="583.300781"/>
      <use xlink:href="#DejaVuSans-6e" x="644.482422"/>
      <use xlink:href="#DejaVuSans-64" x="707.861328"/>
     </g>
    </g>
   </g>
   <g id="line2d_25">
    <path d="M 80.103494 260.510625 
L 83.258731 206.766311 
L 88.240149 191.144867 
L 94.418731 179.109762 
L 101.20604 170.513296 
L 108.419458 163.896172 
L 116.140149 158.030506 
L 123.779676 154.056459 
L 130.019131 157.794649 
L 135.822331 154.88459 
L 143.431422 152.454211 
L 152.714512 147.880436 
L 162.413567 143.476106 
L 172.143058 139.705029 
L 181.913131 136.428625 
L 191.581749 133.704052 
L 200.915567 131.670008 
L 210.137785 129.99273 
L 220.455713 127.466148 
L 230.408403 125.524627 
L 241.335058 122.953159 
L 251.896476 120.922478 
L 262.437603 119.093563 
L 273.425131 117.089055 
L 284.879349 114.922161 
L 296.05964 113.1141 
L 307.77764 111.09393 
L 318.521676 109.834133 
L 323.330622 112.287642 
L 334.277567 110.95499 
L 345.924549 109.315432 
L 357.287458 107.939542 
L 367.777858 107.112895 
L 378.805967 106.060035 
L 384.467131 105.633446 
" clip-path="url(#p95f155b212)" style="fill: none; stroke: #1f77b4; stroke-width: 1.5; stroke-linecap: square"/>
   </g>
   <g id="line2d_26">
    <path d="M 80.103494 260.510625 
L 83.644258 200.134669 
L 88.81844 186.196198 
L 95.047749 175.528037 
L 101.885785 167.599922 
L 108.480331 163.687859 
L 115.612585 159.556873 
L 123.272403 155.286953 
L 130.536549 152.953144 
L 135.862912 156.474145 
L 142.863276 153.421858 
L 152.126076 148.792925 
L 158.45684 150.4673 
L 166.745676 146.788071 
L 176.53604 142.98413 
L 186.306112 139.700708 
L 195.863131 137.060755 
L 205.298403 134.854245 
L 214.764113 132.857398 
L 224.564622 130.775477 
L 234.67964 128.630386 
L 245.454113 126.15669 
L 255.163313 124.735921 
L 265.643567 122.865264 
L 276.925313 120.575186 
L 288.58244 118.217624 
L 300.74684 115.708737 
L 312.495276 113.643456 
L 323.17844 112.379089 
L 334.308003 110.937149 
L 345.16364 109.750229 
L 356.617858 108.308429 
L 367.93004 107.032762 
L 378.937858 105.9911 
L 384.467131 105.550785 
" clip-path="url(#p95f155b212)" style="fill: none; stroke: #ff7f0e; stroke-width: 1.5; stroke-linecap: square"/>
   </g>
   <g id="line2d_27">
    <path d="M 80.103494 260.510625 
L 81.554294 235.787395 
L 86.180622 208.706512 
L 91.973676 193.003693 
L 98.629094 181.507957 
L 103.864149 184.318091 
L 108.267276 180.433221 
L 116.150294 172.647669 
L 123.952149 166.98566 
L 132.129385 161.878451 
L 137.080367 164.083262 
L 144.95324 159.916616 
L 150.107131 161.236809 
L 159.79604 155.911581 
L 169.708149 151.303899 
L 179.731858 147.176551 
L 189.70484 143.62569 
L 199.434331 140.729728 
L 209.660949 137.6917 
L 220.364403 134.541599 
L 231.707022 131.164333 
L 242.166985 128.821837 
L 248.031058 130.337716 
L 258.775094 127.95133 
L 269.843785 125.60739 
L 281.693676 122.913336 
L 294.192876 120.003286 
L 306.387713 117.500162 
L 317.608585 115.77116 
L 328.991785 114.062412 
L 340.932985 112.151213 
L 352.813312 110.400975 
L 364.622622 108.794305 
L 375.468112 107.781895 
L 384.467131 107.002038 
" clip-path="url(#p95f155b212)" style="fill: none; stroke: #2ca02c; stroke-width: 1.5; stroke-linecap: square"/>
   </g>
   <g id="line2d_28">
    <path d="M 80.103494 260.510625 
L 85.064622 175.892693 
L 89.143094 187.922984 
L 96.224622 168.862534 
L 105.365676 152.758052 
L 114.324112 143.735837 
L 124.002876 135.678494 
L 131.267022 139.267325 
L 138.652912 135.631915 
L 149.833203 128.309528 
L 162.068622 120.653653 
L 172.447422 117.271505 
L 184.692985 111.7974 
L 195.031203 109.660187 
L 206.130331 106.90746 
L 217.817894 103.855939 
L 226.857494 105.670089 
L 238.25084 101.773747 
L 251.287749 98.233032 
L 262.711531 96.520148 
L 275.504949 93.803907 
L 288.420113 91.245425 
L 302.917967 87.694329 
L 316.360694 85.236288 
L 328.64684 83.804572 
L 340.679349 82.655923 
L 353.86844 80.844278 
L 367.118403 79.125254 
L 380.155312 77.657578 
L 384.467131 77.304874 
" clip-path="url(#p95f155b212)" style="fill: none; stroke: #d62728; stroke-width: 1.5; stroke-linecap: square"/>
   </g>
   <g id="line2d_29">
    <path d="M 80.103494 260.510625 
L 84.039931 193.419384 
L 91.009858 167.524813 
L 99.30884 151.277474 
L 107.861458 142.127638 
L 117.27644 133.662652 
L 126.742149 127.876082 
L 137.831131 119.807649 
L 143.50244 125.284435 
L 156.590076 115.497688 
L 169.961785 107.188381 
L 183.282767 100.461981 
L 195.690658 96.167238 
L 207.084003 93.839343 
L 220.699203 89.156979 
L 235.318803 83.944893 
L 249.29924 80.066949 
L 262.407167 77.524921 
L 276.184694 74.633788 
L 289.505676 72.450593 
L 304.368767 69.172823 
L 317.730331 67.426038 
L 330.970149 65.937571 
L 343.418622 65.159216 
L 356.851203 63.748351 
L 370.375094 62.386423 
L 382.427894 62.100118 
L 384.467131 61.993285 
" clip-path="url(#p95f155b212)" style="fill: none; stroke: #9467bd; stroke-width: 1.5; stroke-linecap: square"/>
   </g>
   <g id="line2d_30">
    <path d="M 80.103494 260.510625 
L 84.618222 183.536848 
L 91.669312 161.888133 
L 99.400149 150.775304 
L 108.723822 138.42094 
L 119.122912 127.364053 
L 129.66404 119.573143 
L 140.753022 112.676954 
L 146.921458 118.000985 
L 160.252585 108.555145 
L 173.654731 100.881885 
L 186.762658 95.058682 
L 197.922658 92.980844 
L 210.604476 89.219358 
L 224.564622 84.440777 
L 237.895749 81.014883 
L 251.592112 77.622901 
L 265.004403 74.925935 
L 278.792076 72.16242 
L 293.614585 68.762916 
L 308.325494 65.798385 
L 321.443567 64.407905 
L 334.612367 63.113752 
L 347.040549 62.473542 
L 359.387567 61.948191 
L 372.881022 60.675692 
L 384.467131 59.88827 
" clip-path="url(#p95f155b212)" style="fill: none; stroke: #8c564b; stroke-width: 1.5; stroke-linecap: square"/>
   </g>
   <g id="line2d_31">
    <path d="M 80.103494 260.510625 
L 88.006803 125.695594 
L 100.323385 88.090925 
L 113.70524 69.412558 
L 126.721858 61.651262 
L 139.464549 57.941534 
L 152.186949 55.513785 
L 164.422367 54.992605 
L 178.412949 50.840572 
L 192.089022 48.195822 
L 204.162112 48.826245 
L 217.838185 46.858318 
L 232.00124 45.117144 
L 246.144003 42.568195 
L 259.617167 41.720887 
L 273.729494 40.247555 
L 287.101203 39.755973 
L 302.430985 37.352104 
L 316.665058 36.259783 
L 330.09764 36.000905 
L 342.799749 36.382908 
L 356.32364 36.068831 
L 370.141749 35.55278 
L 383.503312 35.422007 
L 384.467131 35.448155 
" clip-path="url(#p95f155b212)" style="fill: none; stroke: #e377c2; stroke-width: 1.5; stroke-linecap: square"/>
   </g>
   <g id="line2d_32">
    <path d="M 80.103494 260.510625 
L 83.481931 202.879451 
L 94.154949 140.675307 
L 107.313603 105.769196 
L 120.431676 88.474935 
L 133.519312 78.218711 
L 145.409785 74.787575 
L 159.90764 65.987233 
L 173.167749 62.012516 
L 186.874258 58.089381 
L 200.459022 55.150328 
L 213.627822 53.381368 
L 227.121276 51.568216 
L 242.035094 47.96171 
L 255.701022 46.496379 
L 269.549567 45.005573 
L 283.996694 43.071724 
L 299.306185 40.485721 
L 313.895349 38.878352 
L 320.743531 44.398967 
L 334.023931 43.873989 
L 346.746331 43.852943 
L 360.300658 43.184887 
L 374.078185 42.41334 
L 384.467131 42.174373 
" clip-path="url(#p95f155b212)" style="fill: none; stroke: #7f7f7f; stroke-width: 1.5; stroke-linecap: square"/>
   </g>
   <g id="line2d_33">
    <path d="M 80.103494 260.510625 
L 84.790694 180.592204 
L 96.082585 126.964862 
L 101.246622 140.272422 
L 107.283167 144.579661 
L 120.522985 122.580755 
L 125.788476 139.243827 
L 133.285967 130.874726 
L 146.393894 119.137663 
L 159.856912 109.310105 
L 174.324331 99.737761 
L 188.081567 93.015862 
L 200.743094 88.965507 
L 214.013349 84.747777 
L 228.724258 79.375654 
L 243.678658 74.438103 
L 257.304003 71.531417 
L 270.28004 69.623354 
L 284.808331 66.453775 
L 300.290294 62.768827 
L 314.838876 60.238018 
L 328.484512 58.686173 
L 342.26204 57.174375 
L 354.791676 56.718701 
L 368.640222 55.401081 
L 382.204694 54.318873 
L 384.467131 54.270839 
" clip-path="url(#p95f155b212)" style="fill: none; stroke: #bcbd22; stroke-width: 1.5; stroke-linecap: square"/>
   </g>
   <g id="line2d_34">
    <path d="M 80.103494 260.510625 
L 90.198222 88.425875 
L 102.190149 72.21039 
L 115.856076 57.161275 
L 128.88284 52.4329 
L 140.671858 53.83228 
L 147.29684 69.430528 
L 159.522112 67.082205 
L 168.896512 71.119149 
L 182.856658 65.704284 
L 196.380549 62.106181 
L 209.529058 59.760038 
L 223.692113 56.332307 
L 237.550803 53.846762 
L 251.581967 51.513239 
L 264.152185 51.157467 
L 278.335531 49.106248 
L 293.49284 46.323239 
L 308.497967 44.001663 
L 322.468258 42.845067 
L 334.774694 43.230417 
L 348.40004 42.501963 
L 362.116694 41.777408 
L 375.782622 41.148783 
L 384.467131 41.015928 
" clip-path="url(#p95f155b212)" style="fill: none; stroke: #17becf; stroke-width: 1.5; stroke-linecap: square"/>
   </g>
   <g id="line2d_35">
    <path d="M 80.103494 260.510625 
L 90.198222 88.320594 
L 97.614549 132.873979 
L 106.583131 109.92769 
L 119.934549 90.620281 
L 133.001894 80.004696 
L 146.089531 72.869407 
L 160.648258 64.214416 
L 173.989531 60.256514 
L 187.675749 56.561515 
L 201.169203 53.946308 
L 213.506076 53.571201 
L 228.125676 50.033866 
L 243.140949 46.515092 
L 256.746003 45.216916 
L 270.848185 43.5244 
L 285.285167 41.689259 
L 299.671422 40.119578 
L 314.36204 38.437419 
L 328.027967 37.857087 
L 341.643167 37.376135 
L 354.071349 37.895009 
L 366.732876 38.1961 
L 380.459676 37.674778 
L 384.467131 37.71173 
" clip-path="url(#p95f155b212)" style="fill: none; stroke: #1f77b4; stroke-width: 1.5; stroke-linecap: square"/>
   </g>
   <g id="line2d_36">
    <path d="M 80.103494 260.510625 
L 90.096767 90.062955 
L 102.119131 72.714343 
L 115.795203 57.526582 
L 128.852403 52.576253 
L 141.574803 50.734984 
L 154.743603 48.247694 
L 168.561712 44.984071 
L 182.318949 42.49393 
L 195.95444 40.866558 
L 208.088403 42.12256 
L 222.221022 40.062527 
L 237.297167 36.989851 
L 250.435531 36.936033 
L 263.928985 36.468083 
L 278.102185 35.271712 
L 290.824585 35.786081 
L 306.063058 33.710625 
L 317.963676 39.105993 
L 327.054003 38.726027 
L 339.593785 39.123139 
L 353.168403 38.637397 
L 366.864767 38.093496 
L 380.591567 37.579323 
L 384.467131 37.668804 
" clip-path="url(#p95f155b212)" style="fill: none; stroke: #ff7f0e; stroke-width: 1.5; stroke-linecap: square"/>
   </g>
   <g id="patch_3">
    <path d="M 64.885312 271.850625 
L 64.885312 22.370625 
" style="fill: none; stroke: #000000; stroke-width: 0.8; stroke-linejoin: miter; stroke-linecap: square"/>
   </g>
   <g id="patch_4">
    <path d="M 399.685313 271.850625 
L 399.685313 22.370625 
" style="fill: none; stroke: #000000; stroke-width: 0.8; stroke-linejoin: miter; stroke-linecap: square"/>
   </g>
   <g id="patch_5">
    <path d="M 64.885312 271.850625 
L 399.685313 271.850625 
" style="fill: none; stroke: #000000; stroke-width: 0.8; stroke-linejoin: miter; stroke-linecap: square"/>
   </g>
   <g id="patch_6">
    <path d="M 64.885312 22.370625 
L 399.685313 22.370625 
" style="fill: none; stroke: #000000; stroke-width: 0.8; stroke-linejoin: miter; stroke-linecap: square"/>
   </g>
   <g id="text_15">
    <!-- readahead 2, 16 GiB, sata | vary prefetch type, thread count and CPU freq. -->
    <g transform="translate(7.2 16.370625)scale(0.12 -0.12)">
     <defs>
      <path id="DejaVuSans-72" d="M 2631 2963 
Q 2534 3019 2420 3045 
Q 2306 3072 2169 3072 
Q 1681 3072 1420 2755 
Q 1159 2438 1159 1844 
L 1159 0 
L 581 0 
L 581 3500 
L 1159 3500 
L 1159 2956 
Q 1341 3275 1631 3429 
Q 1922 3584 2338 3584 
Q 2397 3584 2469 3576 
Q 2541 3569 2628 3553 
L 2631 2963 
z
" transform="scale(0.015625)"/>
      <path id="DejaVuSans-61" d="M 2194 1759 
Q 1497 1759 1228 1600 
Q 959 1441 959 1056 
Q 959 750 1161 570 
Q 1363 391 1709 391 
Q 2188 391 2477 730 
Q 2766 1069 2766 1631 
L 2766 1759 
L 2194 1759 
z
M 3341 1997 
L 3341 0 
L 2766 0 
L 2766 531 
Q 2569 213 2275 61 
Q 1981 -91 1556 -91 
Q 1019 -91 701 211 
Q 384 513 384 1019 
Q 384 1609 779 1909 
Q 1175 2209 1959 2209 
L 2766 2209 
L 2766 2266 
Q 2766 2663 2505 2880 
Q 2244 3097 1772 3097 
Q 1472 3097 1187 3025 
Q 903 2953 641 2809 
L 641 3341 
Q 956 3463 1253 3523 
Q 1550 3584 1831 3584 
Q 2591 3584 2966 3190 
Q 3341 2797 3341 1997 
z
" transform="scale(0.015625)"/>
      <path id="DejaVuSans-68" d="M 3513 2113 
L 3513 0 
L 2938 0 
L 2938 2094 
Q 2938 2591 2744 2837 
Q 2550 3084 2163 3084 
Q 1697 3084 1428 2787 
Q 1159 2491 1159 1978 
L 1159 0 
L 581 0 
L 581 4863 
L 1159 4863 
L 1159 2956 
Q 1366 3272 1645 3428 
Q 1925 3584 2291 3584 
Q 2894 3584 3203 3211 
Q 3513 2838 3513 2113 
z
" transform="scale(0.015625)"/>
      <path id="DejaVuSans-2c" d="M 750 794 
L 1409 794 
L 1409 256 
L 897 -744 
L 494 -744 
L 750 256 
L 750 794 
z
" transform="scale(0.015625)"/>
      <path id="DejaVuSans-36" d="M 2113 2584 
Q 1688 2584 1439 2293 
Q 1191 2003 1191 1497 
Q 1191 994 1439 701 
Q 1688 409 2113 409 
Q 2538 409 2786 701 
Q 3034 994 3034 1497 
Q 3034 2003 2786 2293 
Q 2538 2584 2113 2584 
z
M 3366 4563 
L 3366 3988 
Q 3128 4100 2886 4159 
Q 2644 4219 2406 4219 
Q 1781 4219 1451 3797 
Q 1122 3375 1075 2522 
Q 1259 2794 1537 2939 
Q 1816 3084 2150 3084 
Q 2853 3084 3261 2657 
Q 3669 2231 3669 1497 
Q 3669 778 3244 343 
Q 2819 -91 2113 -91 
Q 1303 -91 875 529 
Q 447 1150 447 2328 
Q 447 3434 972 4092 
Q 1497 4750 2381 4750 
Q 2619 4750 2861 4703 
Q 3103 4656 3366 4563 
z
" transform="scale(0.015625)"/>
      <path id="DejaVuSans-47" d="M 3809 666 
L 3809 1919 
L 2778 1919 
L 2778 2438 
L 4434 2438 
L 4434 434 
Q 4069 175 3628 42 
Q 3188 -91 2688 -91 
Q 1594 -91 976 548 
Q 359 1188 359 2328 
Q 359 3472 976 4111 
Q 1594 4750 2688 4750 
Q 3144 4750 3555 4637 
Q 3966 4525 4313 4306 
L 4313 3634 
Q 3963 3931 3569 4081 
Q 3175 4231 2741 4231 
Q 1884 4231 1454 3753 
Q 1025 3275 1025 2328 
Q 1025 1384 1454 906 
Q 1884 428 2741 428 
Q 3075 428 3337 486 
Q 3600 544 3809 666 
z
" transform="scale(0.015625)"/>
      <path id="DejaVuSans-69" d="M 603 3500 
L 1178 3500 
L 1178 0 
L 603 0 
L 603 3500 
z
M 603 4863 
L 1178 4863 
L 1178 4134 
L 603 4134 
L 603 4863 
z
" transform="scale(0.015625)"/>
      <path id="DejaVuSans-74" d="M 1172 4494 
L 1172 3500 
L 2356 3500 
L 2356 3053 
L 1172 3053 
L 1172 1153 
Q 1172 725 1289 603 
Q 1406 481 1766 481 
L 2356 481 
L 2356 0 
L 1766 0 
Q 1100 0 847 248 
Q 594 497 594 1153 
L 594 3053 
L 172 3053 
L 172 3500 
L 594 3500 
L 594 4494 
L 1172 4494 
z
" transform="scale(0.015625)"/>
      <path id="DejaVuSans-7c" d="M 1344 4891 
L 1344 -1509 
L 813 -1509 
L 813 4891 
L 1344 4891 
z
" transform="scale(0.015625)"/>
      <path id="DejaVuSans-76" d="M 191 3500 
L 800 3500 
L 1894 563 
L 2988 3500 
L 3597 3500 
L 2284 0 
L 1503 0 
L 191 3500 
z
" transform="scale(0.015625)"/>
      <path id="DejaVuSans-79" d="M 2059 -325 
Q 1816 -950 1584 -1140 
Q 1353 -1331 966 -1331 
L 506 -1331 
L 506 -850 
L 844 -850 
Q 1081 -850 1212 -737 
Q 1344 -625 1503 -206 
L 1606 56 
L 191 3500 
L 800 3500 
L 1894 763 
L 2988 3500 
L 3597 3500 
L 2059 -325 
z
" transform="scale(0.015625)"/>
      <path id="DejaVuSans-70" d="M 1159 525 
L 1159 -1331 
L 581 -1331 
L 581 3500 
L 1159 3500 
L 1159 2969 
Q 1341 3281 1617 3432 
Q 1894 3584 2278 3584 
Q 2916 3584 3314 3078 
Q 3713 2572 3713 1747 
Q 3713 922 3314 415 
Q 2916 -91 2278 -91 
Q 1894 -91 1617 61 
Q 1341 213 1159 525 
z
M 3116 1747 
Q 3116 2381 2855 2742 
Q 2594 3103 2138 3103 
Q 1681 3103 1420 2742 
Q 1159 2381 1159 1747 
Q 1159 1113 1420 752 
Q 1681 391 2138 391 
Q 2594 391 2855 752 
Q 3116 1113 3116 1747 
z
" transform="scale(0.015625)"/>
      <path id="DejaVuSans-66" d="M 2375 4863 
L 2375 4384 
L 1825 4384 
Q 1516 4384 1395 4259 
Q 1275 4134 1275 3809 
L 1275 3500 
L 2222 3500 
L 2222 3053 
L 1275 3053 
L 1275 0 
L 697 0 
L 697 3053 
L 147 3053 
L 147 3500 
L 697 3500 
L 697 3744 
Q 697 4328 969 4595 
Q 1241 4863 1831 4863 
L 2375 4863 
z
" transform="scale(0.015625)"/>
      <path id="DejaVuSans-75" d="M 544 1381 
L 544 3500 
L 1119 3500 
L 1119 1403 
Q 1119 906 1312 657 
Q 1506 409 1894 409 
Q 2359 409 2629 706 
Q 2900 1003 2900 1516 
L 2900 3500 
L 3475 3500 
L 3475 0 
L 2900 0 
L 2900 538 
Q 2691 219 2414 64 
Q 2138 -91 1772 -91 
Q 1169 -91 856 284 
Q 544 659 544 1381 
z
M 1991 3584 
L 1991 3584 
z
" transform="scale(0.015625)"/>
      <path id="DejaVuSans-43" d="M 4122 4306 
L 4122 3641 
Q 3803 3938 3442 4084 
Q 3081 4231 2675 4231 
Q 1875 4231 1450 3742 
Q 1025 3253 1025 2328 
Q 1025 1406 1450 917 
Q 1875 428 2675 428 
Q 3081 428 3442 575 
Q 3803 722 4122 1019 
L 4122 359 
Q 3791 134 3420 21 
Q 3050 -91 2638 -91 
Q 1578 -91 968 557 
Q 359 1206 359 2328 
Q 359 3453 968 4101 
Q 1578 4750 2638 4750 
Q 3056 4750 3426 4639 
Q 3797 4528 4122 4306 
z
" transform="scale(0.015625)"/>
      <path id="DejaVuSans-50" d="M 1259 4147 
L 1259 2394 
L 2053 2394 
Q 2494 2394 2734 2622 
Q 2975 2850 2975 3272 
Q 2975 3691 2734 3919 
Q 2494 4147 2053 4147 
L 1259 4147 
z
M 628 4666 
L 2053 4666 
Q 2838 4666 3239 4311 
Q 3641 3956 3641 3272 
Q 3641 2581 3239 2228 
Q 2838 1875 2053 1875 
L 1259 1875 
L 1259 0 
L 628 0 
L 628 4666 
z
" transform="scale(0.015625)"/>
      <path id="DejaVuSans-55" d="M 556 4666 
L 1191 4666 
L 1191 1831 
Q 1191 1081 1462 751 
Q 1734 422 2344 422 
Q 2950 422 3222 751 
Q 3494 1081 3494 1831 
L 3494 4666 
L 4128 4666 
L 4128 1753 
Q 4128 841 3676 375 
Q 3225 -91 2344 -91 
Q 1459 -91 1007 375 
Q 556 841 556 1753 
L 556 4666 
z
" transform="scale(0.015625)"/>
      <path id="DejaVuSans-71" d="M 947 1747 
Q 947 1113 1208 752 
Q 1469 391 1925 391 
Q 2381 391 2643 752 
Q 2906 1113 2906 1747 
Q 2906 2381 2643 2742 
Q 2381 3103 1925 3103 
Q 1469 3103 1208 2742 
Q 947 2381 947 1747 
z
M 2906 525 
Q 2725 213 2448 61 
Q 2172 -91 1784 -91 
Q 1150 -91 751 415 
Q 353 922 353 1747 
Q 353 2572 751 3078 
Q 1150 3584 1784 3584 
Q 2172 3584 2448 3432 
Q 2725 3281 2906 2969 
L 2906 3500 
L 3481 3500 
L 3481 -1331 
L 2906 -1331 
L 2906 525 
z
" transform="scale(0.015625)"/>
     </defs>
     <use xlink:href="#DejaVuSans-72"/>
     <use xlink:href="#DejaVuSans-65" x="38.863281"/>
     <use xlink:href="#DejaVuSans-61" x="100.386719"/>
     <use xlink:href="#DejaVuSans-64" x="161.666016"/>
     <use xlink:href="#DejaVuSans-61" x="225.142578"/>
     <use xlink:href="#DejaVuSans-68" x="286.421875"/>
     <use xlink:href="#DejaVuSans-65" x="349.800781"/>
     <use xlink:href="#DejaVuSans-61" x="411.324219"/>
     <use xlink:href="#DejaVuSans-64" x="472.603516"/>
     <use xlink:href="#DejaVuSans-20" x="536.080078"/>
     <use xlink:href="#DejaVuSans-32" x="567.867188"/>
     <use xlink:href="#DejaVuSans-2c" x="631.490234"/>
     <use xlink:href="#DejaVuSans-20" x="663.277344"/>
     <use xlink:href="#DejaVuSans-31" x="695.064453"/>
     <use xlink:href="#DejaVuSans-36" x="758.6875"/>
     <use xlink:href="#DejaVuSans-20" x="822.310547"/>
     <use xlink:href="#DejaVuSans-47" x="854.097656"/>
     <use xlink:href="#DejaVuSans-69" x="931.587891"/>
     <use xlink:href="#DejaVuSans-42" x="959.371094"/>
     <use xlink:href="#DejaVuSans-2c" x="1027.974609"/>
     <use xlink:href="#DejaVuSans-20" x="1059.761719"/>
     <use xlink:href="#DejaVuSans-73" x="1091.548828"/>
     <use xlink:href="#DejaVuSans-61" x="1143.648438"/>
     <use xlink:href="#DejaVuSans-74" x="1204.927734"/>
     <use xlink:href="#DejaVuSans-61" x="1244.136719"/>
     <use xlink:href="#DejaVuSans-20" x="1305.416016"/>
     <use xlink:href="#DejaVuSans-7c" x="1337.203125"/>
     <use xlink:href="#DejaVuSans-20" x="1370.894531"/>
     <use xlink:href="#DejaVuSans-76" x="1402.681641"/>
     <use xlink:href="#DejaVuSans-61" x="1461.861328"/>
     <use xlink:href="#DejaVuSans-72" x="1523.140625"/>
     <use xlink:href="#DejaVuSans-79" x="1564.253906"/>
     <use xlink:href="#DejaVuSans-20" x="1623.433594"/>
     <use xlink:href="#DejaVuSans-70" x="1655.220703"/>
     <use xlink:href="#DejaVuSans-72" x="1718.697266"/>
     <use xlink:href="#DejaVuSans-65" x="1757.560547"/>
     <use xlink:href="#DejaVuSans-66" x="1819.083984"/>
     <use xlink:href="#DejaVuSans-65" x="1854.289062"/>
     <use xlink:href="#DejaVuSans-74" x="1915.8125"/>
     <use xlink:href="#DejaVuSans-63" x="1955.021484"/>
     <use xlink:href="#DejaVuSans-68" x="2010.001953"/>
     <use xlink:href="#DejaVuSans-20" x="2073.380859"/>
     <use xlink:href="#DejaVuSans-74" x="2105.167969"/>
     <use xlink:href="#DejaVuSans-79" x="2144.376953"/>
     <use xlink:href="#DejaVuSans-70" x="2203.556641"/>
     <use xlink:href="#DejaVuSans-65" x="2267.033203"/>
     <use xlink:href="#DejaVuSans-2c" x="2328.556641"/>
     <use xlink:href="#DejaVuSans-20" x="2360.34375"/>
     <use xlink:href="#DejaVuSans-74" x="2392.130859"/>
     <use xlink:href="#DejaVuSans-68" x="2431.339844"/>
     <use xlink:href="#DejaVuSans-72" x="2494.71875"/>
     <use xlink:href="#DejaVuSans-65" x="2533.582031"/>
     <use xlink:href="#DejaVuSans-61" x="2595.105469"/>
     <use xlink:href="#DejaVuSans-64" x="2656.384766"/>
     <use xlink:href="#DejaVuSans-20" x="2719.861328"/>
     <use xlink:href="#DejaVuSans-63" x="2751.648438"/>
     <use xlink:href="#DejaVuSans-6f" x="2806.628906"/>
     <use xlink:href="#DejaVuSans-75" x="2867.810547"/>
     <use xlink:href="#DejaVuSans-6e" x="2931.189453"/>
     <use xlink:href="#DejaVuSans-74" x="2994.568359"/>
     <use xlink:href="#DejaVuSans-20" x="3033.777344"/>
     <use xlink:href="#DejaVuSans-61" x="3065.564453"/>
     <use xlink:href="#DejaVuSans-6e" x="3126.84375"/>
     <use xlink:href="#DejaVuSans-64" x="3190.222656"/>
     <use xlink:href="#DejaVuSans-20" x="3253.699219"/>
     <use xlink:href="#DejaVuSans-43" x="3285.486328"/>
     <use xlink:href="#DejaVuSans-50" x="3355.310547"/>
     <use xlink:href="#DejaVuSans-55" x="3415.613281"/>
     <use xlink:href="#DejaVuSans-20" x="3488.806641"/>
     <use xlink:href="#DejaVuSans-66" x="3520.59375"/>
     <use xlink:href="#DejaVuSans-72" x="3555.798828"/>
     <use xlink:href="#DejaVuSans-65" x="3594.662109"/>
     <use xlink:href="#DejaVuSans-71" x="3656.185547"/>
     <use xlink:href="#DejaVuSans-2e" x="3719.662109"/>
    </g>
   </g>
   <g id="legend_1">
    <g id="line2d_37">
     <path d="M 408.685313 35.469062 
L 418.685313 35.469062 
L 428.685313 35.469062 
" style="fill: none; stroke: #1f77b4; stroke-width: 1.5; stroke-linecap: square"/>
    </g>
    <g id="text_16">
     <!-- No prefetch, 2.8 GHz -->
     <g transform="translate(436.685313 38.969062)scale(0.1 -0.1)">
      <defs>
       <path id="DejaVuSans-4e" d="M 628 4666 
L 1478 4666 
L 3547 763 
L 3547 4666 
L 4159 4666 
L 4159 0 
L 3309 0 
L 1241 3903 
L 1241 0 
L 628 0 
L 628 4666 
z
" transform="scale(0.015625)"/>
       <path id="DejaVuSans-38" d="M 2034 2216 
Q 1584 2216 1326 1975 
Q 1069 1734 1069 1313 
Q 1069 891 1326 650 
Q 1584 409 2034 409 
Q 2484 409 2743 651 
Q 3003 894 3003 1313 
Q 3003 1734 2745 1975 
Q 2488 2216 2034 2216 
z
M 1403 2484 
Q 997 2584 770 2862 
Q 544 3141 544 3541 
Q 544 4100 942 4425 
Q 1341 4750 2034 4750 
Q 2731 4750 3128 4425 
Q 3525 4100 3525 3541 
Q 3525 3141 3298 2862 
Q 3072 2584 2669 2484 
Q 3125 2378 3379 2068 
Q 3634 1759 3634 1313 
Q 3634 634 3220 271 
Q 2806 -91 2034 -91 
Q 1263 -91 848 271 
Q 434 634 434 1313 
Q 434 1759 690 2068 
Q 947 2378 1403 2484 
z
M 1172 3481 
Q 1172 3119 1398 2916 
Q 1625 2713 2034 2713 
Q 2441 2713 2670 2916 
Q 2900 3119 2900 3481 
Q 2900 3844 2670 4047 
Q 2441 4250 2034 4250 
Q 1625 4250 1398 4047 
Q 1172 3844 1172 3481 
z
" transform="scale(0.015625)"/>
       <path id="DejaVuSans-48" d="M 628 4666 
L 1259 4666 
L 1259 2753 
L 3553 2753 
L 3553 4666 
L 4184 4666 
L 4184 0 
L 3553 0 
L 3553 2222 
L 1259 2222 
L 1259 0 
L 628 0 
L 628 4666 
z
" transform="scale(0.015625)"/>
       <path id="DejaVuSans-7a" d="M 353 3500 
L 3084 3500 
L 3084 2975 
L 922 459 
L 3084 459 
L 3084 0 
L 275 0 
L 275 525 
L 2438 3041 
L 353 3041 
L 353 3500 
z
" transform="scale(0.015625)"/>
      </defs>
      <use xlink:href="#DejaVuSans-4e"/>
      <use xlink:href="#DejaVuSans-6f" x="74.804688"/>
      <use xlink:href="#DejaVuSans-20" x="135.986328"/>
      <use xlink:href="#DejaVuSans-70" x="167.773438"/>
      <use xlink:href="#DejaVuSans-72" x="231.25"/>
      <use xlink:href="#DejaVuSans-65" x="270.113281"/>
      <use xlink:href="#DejaVuSans-66" x="331.636719"/>
      <use xlink:href="#DejaVuSans-65" x="366.841797"/>
      <use xlink:href="#DejaVuSans-74" x="428.365234"/>
      <use xlink:href="#DejaVuSans-63" x="467.574219"/>
      <use xlink:href="#DejaVuSans-68" x="522.554688"/>
      <use xlink:href="#DejaVuSans-2c" x="585.933594"/>
      <use xlink:href="#DejaVuSans-20" x="617.720703"/>
      <use xlink:href="#DejaVuSans-32" x="649.507812"/>
      <use xlink:href="#DejaVuSans-2e" x="713.130859"/>
      <use xlink:href="#DejaVuSans-38" x="744.917969"/>
      <use xlink:href="#DejaVuSans-20" x="808.541016"/>
      <use xlink:href="#DejaVuSans-47" x="840.328125"/>
      <use xlink:href="#DejaVuSans-48" x="917.818359"/>
      <use xlink:href="#DejaVuSans-7a" x="993.013672"/>
     </g>
    </g>
    <g id="line2d_38">
     <path d="M 408.685313 50.147187 
L 418.685313 50.147187 
L 428.685313 50.147187 
" style="fill: none; stroke: #ff7f0e; stroke-width: 1.5; stroke-linecap: square"/>
    </g>
    <g id="text_17">
     <!-- No prefetch, 3.8 GHz -->
     <g transform="translate(436.685313 53.647187)scale(0.1 -0.1)">
      <use xlink:href="#DejaVuSans-4e"/>
      <use xlink:href="#DejaVuSans-6f" x="74.804688"/>
      <use xlink:href="#DejaVuSans-20" x="135.986328"/>
      <use xlink:href="#DejaVuSans-70" x="167.773438"/>
      <use xlink:href="#DejaVuSans-72" x="231.25"/>
      <use xlink:href="#DejaVuSans-65" x="270.113281"/>
      <use xlink:href="#DejaVuSans-66" x="331.636719"/>
      <use xlink:href="#DejaVuSans-65" x="366.841797"/>
      <use xlink:href="#DejaVuSans-74" x="428.365234"/>
      <use xlink:href="#DejaVuSans-63" x="467.574219"/>
      <use xlink:href="#DejaVuSans-68" x="522.554688"/>
      <use xlink:href="#DejaVuSans-2c" x="585.933594"/>
      <use xlink:href="#DejaVuSans-20" x="617.720703"/>
      <use xlink:href="#DejaVuSans-33" x="649.507812"/>
      <use xlink:href="#DejaVuSans-2e" x="713.130859"/>
      <use xlink:href="#DejaVuSans-38" x="744.917969"/>
      <use xlink:href="#DejaVuSans-20" x="808.541016"/>
      <use xlink:href="#DejaVuSans-47" x="840.328125"/>
      <use xlink:href="#DejaVuSans-48" x="917.818359"/>
      <use xlink:href="#DejaVuSans-7a" x="993.013672"/>
     </g>
    </g>
    <g id="line2d_39">
     <path d="M 408.685313 64.825312 
L 418.685313 64.825312 
L 428.685313 64.825312 
" style="fill: none; stroke: #2ca02c; stroke-width: 1.5; stroke-linecap: square"/>
    </g>
    <g id="text_18">
     <!-- Prefetch blocks, 3.8 GHz -->
     <g transform="translate(436.685313 68.325312)scale(0.1 -0.1)">
      <use xlink:href="#DejaVuSans-50"/>
      <use xlink:href="#DejaVuSans-72" x="58.552734"/>
      <use xlink:href="#DejaVuSans-65" x="97.416016"/>
      <use xlink:href="#DejaVuSans-66" x="158.939453"/>
      <use xlink:href="#DejaVuSans-65" x="194.144531"/>
      <use xlink:href="#DejaVuSans-74" x="255.667969"/>
      <use xlink:href="#DejaVuSans-63" x="294.876953"/>
      <use xlink:href="#DejaVuSans-68" x="349.857422"/>
      <use xlink:href="#DejaVuSans-20" x="413.236328"/>
      <use xlink:href="#DejaVuSans-62" x="445.023438"/>
      <use xlink:href="#DejaVuSans-6c" x="508.5"/>
      <use xlink:href="#DejaVuSans-6f" x="536.283203"/>
      <use xlink:href="#DejaVuSans-63" x="597.464844"/>
      <use xlink:href="#DejaVuSans-6b" x="652.445312"/>
      <use xlink:href="#DejaVuSans-73" x="710.355469"/>
      <use xlink:href="#DejaVuSans-2c" x="762.455078"/>
      <use xlink:href="#DejaVuSans-20" x="794.242188"/>
      <use xlink:href="#DejaVuSans-33" x="826.029297"/>
      <use xlink:href="#DejaVuSans-2e" x="889.652344"/>
      <use xlink:href="#DejaVuSans-38" x="921.439453"/>
      <use xlink:href="#DejaVuSans-20" x="985.0625"/>
      <use xlink:href="#DejaVuSans-47" x="1016.849609"/>
      <use xlink:href="#DejaVuSans-48" x="1094.339844"/>
      <use xlink:href="#DejaVuSans-7a" x="1169.535156"/>
     </g>
    </g>
    <g id="line2d_40">
     <path d="M 408.685313 79.503437 
L 418.685313 79.503437 
L 428.685313 79.503437 
" style="fill: none; stroke: #d62728; stroke-width: 1.5; stroke-linecap: square"/>
    </g>
    <g id="text_19">
     <!-- Prefetch code, 2 threads, 3.8 GHz -->
     <g transform="translate(436.685313 83.003437)scale(0.1 -0.1)">
      <use xlink:href="#DejaVuSans-50"/>
      <use xlink:href="#DejaVuSans-72" x="58.552734"/>
      <use xlink:href="#DejaVuSans-65" x="97.416016"/>
      <use xlink:href="#DejaVuSans-66" x="158.939453"/>
      <use xlink:href="#DejaVuSans-65" x="194.144531"/>
      <use xlink:href="#DejaVuSans-74" x="255.667969"/>
      <use xlink:href="#DejaVuSans-63" x="294.876953"/>
      <use xlink:href="#DejaVuSans-68" x="349.857422"/>
      <use xlink:href="#DejaVuSans-20" x="413.236328"/>
      <use xlink:href="#DejaVuSans-63" x="445.023438"/>
      <use xlink:href="#DejaVuSans-6f" x="500.003906"/>
      <use xlink:href="#DejaVuSans-64" x="561.185547"/>
      <use xlink:href="#DejaVuSans-65" x="624.662109"/>
      <use xlink:href="#DejaVuSans-2c" x="686.185547"/>
      <use xlink:href="#DejaVuSans-20" x="717.972656"/>
      <use xlink:href="#DejaVuSans-32" x="749.759766"/>
      <use xlink:href="#DejaVuSans-20" x="813.382812"/>
      <use xlink:href="#DejaVuSans-74" x="845.169922"/>
      <use xlink:href="#DejaVuSans-68" x="884.378906"/>
      <use xlink:href="#DejaVuSans-72" x="947.757812"/>
      <use xlink:href="#DejaVuSans-65" x="986.621094"/>
      <use xlink:href="#DejaVuSans-61" x="1048.144531"/>
      <use xlink:href="#DejaVuSans-64" x="1109.423828"/>
      <use xlink:href="#DejaVuSans-73" x="1172.900391"/>
      <use xlink:href="#DejaVuSans-2c" x="1225"/>
      <use xlink:href="#DejaVuSans-20" x="1256.787109"/>
      <use xlink:href="#DejaVuSans-33" x="1288.574219"/>
      <use xlink:href="#DejaVuSans-2e" x="1352.197266"/>
      <use xlink:href="#DejaVuSans-38" x="1383.984375"/>
      <use xlink:href="#DejaVuSans-20" x="1447.607422"/>
      <use xlink:href="#DejaVuSans-47" x="1479.394531"/>
      <use xlink:href="#DejaVuSans-48" x="1556.884766"/>
      <use xlink:href="#DejaVuSans-7a" x="1632.080078"/>
     </g>
    </g>
    <g id="line2d_41">
     <path d="M 408.685313 94.181562 
L 418.685313 94.181562 
L 428.685313 94.181562 
" style="fill: none; stroke: #9467bd; stroke-width: 1.5; stroke-linecap: square"/>
    </g>
    <g id="text_20">
     <!-- Full prefetch, 1 thread, 2.8 GHz -->
     <g transform="translate(436.685313 97.681562)scale(0.1 -0.1)">
      <defs>
       <path id="DejaVuSans-46" d="M 628 4666 
L 3309 4666 
L 3309 4134 
L 1259 4134 
L 1259 2759 
L 3109 2759 
L 3109 2228 
L 1259 2228 
L 1259 0 
L 628 0 
L 628 4666 
z
" transform="scale(0.015625)"/>
      </defs>
      <use xlink:href="#DejaVuSans-46"/>
      <use xlink:href="#DejaVuSans-75" x="52.019531"/>
      <use xlink:href="#DejaVuSans-6c" x="115.398438"/>
      <use xlink:href="#DejaVuSans-6c" x="143.181641"/>
      <use xlink:href="#DejaVuSans-20" x="170.964844"/>
      <use xlink:href="#DejaVuSans-70" x="202.751953"/>
      <use xlink:href="#DejaVuSans-72" x="266.228516"/>
      <use xlink:href="#DejaVuSans-65" x="305.091797"/>
      <use xlink:href="#DejaVuSans-66" x="366.615234"/>
      <use xlink:href="#DejaVuSans-65" x="401.820312"/>
      <use xlink:href="#DejaVuSans-74" x="463.34375"/>
      <use xlink:href="#DejaVuSans-63" x="502.552734"/>
      <use xlink:href="#DejaVuSans-68" x="557.533203"/>
      <use xlink:href="#DejaVuSans-2c" x="620.912109"/>
      <use xlink:href="#DejaVuSans-20" x="652.699219"/>
      <use xlink:href="#DejaVuSans-31" x="684.486328"/>
      <use xlink:href="#DejaVuSans-20" x="748.109375"/>
      <use xlink:href="#DejaVuSans-74" x="779.896484"/>
      <use xlink:href="#DejaVuSans-68" x="819.105469"/>
      <use xlink:href="#DejaVuSans-72" x="882.484375"/>
      <use xlink:href="#DejaVuSans-65" x="921.347656"/>
      <use xlink:href="#DejaVuSans-61" x="982.871094"/>
      <use xlink:href="#DejaVuSans-64" x="1044.150391"/>
      <use xlink:href="#DejaVuSans-2c" x="1107.626953"/>
      <use xlink:href="#DejaVuSans-20" x="1139.414062"/>
      <use xlink:href="#DejaVuSans-32" x="1171.201172"/>
      <use xlink:href="#DejaVuSans-2e" x="1234.824219"/>
      <use xlink:href="#DejaVuSans-38" x="1266.611328"/>
      <use xlink:href="#DejaVuSans-20" x="1330.234375"/>
      <use xlink:href="#DejaVuSans-47" x="1362.021484"/>
      <use xlink:href="#DejaVuSans-48" x="1439.511719"/>
      <use xlink:href="#DejaVuSans-7a" x="1514.707031"/>
     </g>
    </g>
    <g id="line2d_42">
     <path d="M 408.685313 108.859687 
L 418.685313 108.859687 
L 428.685313 108.859687 
" style="fill: none; stroke: #8c564b; stroke-width: 1.5; stroke-linecap: square"/>
    </g>
    <g id="text_21">
     <!-- Full prefetch, 1 thread, 3.8 GHz -->
     <g transform="translate(436.685313 112.359687)scale(0.1 -0.1)">
      <use xlink:href="#DejaVuSans-46"/>
      <use xlink:href="#DejaVuSans-75" x="52.019531"/>
      <use xlink:href="#DejaVuSans-6c" x="115.398438"/>
      <use xlink:href="#DejaVuSans-6c" x="143.181641"/>
      <use xlink:href="#DejaVuSans-20" x="170.964844"/>
      <use xlink:href="#DejaVuSans-70" x="202.751953"/>
      <use xlink:href="#DejaVuSans-72" x="266.228516"/>
      <use xlink:href="#DejaVuSans-65" x="305.091797"/>
      <use xlink:href="#DejaVuSans-66" x="366.615234"/>
      <use xlink:href="#DejaVuSans-65" x="401.820312"/>
      <use xlink:href="#DejaVuSans-74" x="463.34375"/>
      <use xlink:href="#DejaVuSans-63" x="502.552734"/>
      <use xlink:href="#DejaVuSans-68" x="557.533203"/>
      <use xlink:href="#DejaVuSans-2c" x="620.912109"/>
      <use xlink:href="#DejaVuSans-20" x="652.699219"/>
      <use xlink:href="#DejaVuSans-31" x="684.486328"/>
      <use xlink:href="#DejaVuSans-20" x="748.109375"/>
      <use xlink:href="#DejaVuSans-74" x="779.896484"/>
      <use xlink:href="#DejaVuSans-68" x="819.105469"/>
      <use xlink:href="#DejaVuSans-72" x="882.484375"/>
      <use xlink:href="#DejaVuSans-65" x="921.347656"/>
      <use xlink:href="#DejaVuSans-61" x="982.871094"/>
      <use xlink:href="#DejaVuSans-64" x="1044.150391"/>
      <use xlink:href="#DejaVuSans-2c" x="1107.626953"/>
      <use xlink:href="#DejaVuSans-20" x="1139.414062"/>
      <use xlink:href="#DejaVuSans-33" x="1171.201172"/>
      <use xlink:href="#DejaVuSans-2e" x="1234.824219"/>
      <use xlink:href="#DejaVuSans-38" x="1266.611328"/>
      <use xlink:href="#DejaVuSans-20" x="1330.234375"/>
      <use xlink:href="#DejaVuSans-47" x="1362.021484"/>
      <use xlink:href="#DejaVuSans-48" x="1439.511719"/>
      <use xlink:href="#DejaVuSans-7a" x="1514.707031"/>
     </g>
    </g>
    <g id="line2d_43">
     <path d="M 408.685313 123.537812 
L 418.685313 123.537812 
L 428.685313 123.537812 
" style="fill: none; stroke: #e377c2; stroke-width: 1.5; stroke-linecap: square"/>
    </g>
    <g id="text_22">
     <!-- Full prefetch, 2 threads, 2.8 GHz -->
     <g transform="translate(436.685313 127.037812)scale(0.1 -0.1)">
      <use xlink:href="#DejaVuSans-46"/>
      <use xlink:href="#DejaVuSans-75" x="52.019531"/>
      <use xlink:href="#DejaVuSans-6c" x="115.398438"/>
      <use xlink:href="#DejaVuSans-6c" x="143.181641"/>
      <use xlink:href="#DejaVuSans-20" x="170.964844"/>
      <use xlink:href="#DejaVuSans-70" x="202.751953"/>
      <use xlink:href="#DejaVuSans-72" x="266.228516"/>
      <use xlink:href="#DejaVuSans-65" x="305.091797"/>
      <use xlink:href="#DejaVuSans-66" x="366.615234"/>
      <use xlink:href="#DejaVuSans-65" x="401.820312"/>
      <use xlink:href="#DejaVuSans-74" x="463.34375"/>
      <use xlink:href="#DejaVuSans-63" x="502.552734"/>
      <use xlink:href="#DejaVuSans-68" x="557.533203"/>
      <use xlink:href="#DejaVuSans-2c" x="620.912109"/>
      <use xlink:href="#DejaVuSans-20" x="652.699219"/>
      <use xlink:href="#DejaVuSans-32" x="684.486328"/>
      <use xlink:href="#DejaVuSans-20" x="748.109375"/>
      <use xlink:href="#DejaVuSans-74" x="779.896484"/>
      <use xlink:href="#DejaVuSans-68" x="819.105469"/>
      <use xlink:href="#DejaVuSans-72" x="882.484375"/>
      <use xlink:href="#DejaVuSans-65" x="921.347656"/>
      <use xlink:href="#DejaVuSans-61" x="982.871094"/>
      <use xlink:href="#DejaVuSans-64" x="1044.150391"/>
      <use xlink:href="#DejaVuSans-73" x="1107.626953"/>
      <use xlink:href="#DejaVuSans-2c" x="1159.726562"/>
      <use xlink:href="#DejaVuSans-20" x="1191.513672"/>
      <use xlink:href="#DejaVuSans-32" x="1223.300781"/>
      <use xlink:href="#DejaVuSans-2e" x="1286.923828"/>
      <use xlink:href="#DejaVuSans-38" x="1318.710938"/>
      <use xlink:href="#DejaVuSans-20" x="1382.333984"/>
      <use xlink:href="#DejaVuSans-47" x="1414.121094"/>
      <use xlink:href="#DejaVuSans-48" x="1491.611328"/>
      <use xlink:href="#DejaVuSans-7a" x="1566.806641"/>
     </g>
    </g>
    <g id="line2d_44">
     <path d="M 408.685313 138.215937 
L 418.685313 138.215937 
L 428.685313 138.215937 
" style="fill: none; stroke: #7f7f7f; stroke-width: 1.5; stroke-linecap: square"/>
    </g>
    <g id="text_23">
     <!-- Full prefetch, 2 threads, 3.8 GHz -->
     <g transform="translate(436.685313 141.715937)scale(0.1 -0.1)">
      <use xlink:href="#DejaVuSans-46"/>
      <use xlink:href="#DejaVuSans-75" x="52.019531"/>
      <use xlink:href="#DejaVuSans-6c" x="115.398438"/>
      <use xlink:href="#DejaVuSans-6c" x="143.181641"/>
      <use xlink:href="#DejaVuSans-20" x="170.964844"/>
      <use xlink:href="#DejaVuSans-70" x="202.751953"/>
      <use xlink:href="#DejaVuSans-72" x="266.228516"/>
      <use xlink:href="#DejaVuSans-65" x="305.091797"/>
      <use xlink:href="#DejaVuSans-66" x="366.615234"/>
      <use xlink:href="#DejaVuSans-65" x="401.820312"/>
      <use xlink:href="#DejaVuSans-74" x="463.34375"/>
      <use xlink:href="#DejaVuSans-63" x="502.552734"/>
      <use xlink:href="#DejaVuSans-68" x="557.533203"/>
      <use xlink:href="#DejaVuSans-2c" x="620.912109"/>
      <use xlink:href="#DejaVuSans-20" x="652.699219"/>
      <use xlink:href="#DejaVuSans-32" x="684.486328"/>
      <use xlink:href="#DejaVuSans-20" x="748.109375"/>
      <use xlink:href="#DejaVuSans-74" x="779.896484"/>
      <use xlink:href="#DejaVuSans-68" x="819.105469"/>
      <use xlink:href="#DejaVuSans-72" x="882.484375"/>
      <use xlink:href="#DejaVuSans-65" x="921.347656"/>
      <use xlink:href="#DejaVuSans-61" x="982.871094"/>
      <use xlink:href="#DejaVuSans-64" x="1044.150391"/>
      <use xlink:href="#DejaVuSans-73" x="1107.626953"/>
      <use xlink:href="#DejaVuSans-2c" x="1159.726562"/>
      <use xlink:href="#DejaVuSans-20" x="1191.513672"/>
      <use xlink:href="#DejaVuSans-33" x="1223.300781"/>
      <use xlink:href="#DejaVuSans-2e" x="1286.923828"/>
      <use xlink:href="#DejaVuSans-38" x="1318.710938"/>
      <use xlink:href="#DejaVuSans-20" x="1382.333984"/>
      <use xlink:href="#DejaVuSans-47" x="1414.121094"/>
      <use xlink:href="#DejaVuSans-48" x="1491.611328"/>
      <use xlink:href="#DejaVuSans-7a" x="1566.806641"/>
     </g>
    </g>
    <g id="line2d_45">
     <path d="M 408.685313 152.894062 
L 418.685313 152.894062 
L 428.685313 152.894062 
" style="fill: none; stroke: #bcbd22; stroke-width: 1.5; stroke-linecap: square"/>
    </g>
    <g id="text_24">
     <!-- Full prefetch, 4 threads, 2.8 GHz -->
     <g transform="translate(436.685313 156.394062)scale(0.1 -0.1)">
      <use xlink:href="#DejaVuSans-46"/>
      <use xlink:href="#DejaVuSans-75" x="52.019531"/>
      <use xlink:href="#DejaVuSans-6c" x="115.398438"/>
      <use xlink:href="#DejaVuSans-6c" x="143.181641"/>
      <use xlink:href="#DejaVuSans-20" x="170.964844"/>
      <use xlink:href="#DejaVuSans-70" x="202.751953"/>
      <use xlink:href="#DejaVuSans-72" x="266.228516"/>
      <use xlink:href="#DejaVuSans-65" x="305.091797"/>
      <use xlink:href="#DejaVuSans-66" x="366.615234"/>
      <use xlink:href="#DejaVuSans-65" x="401.820312"/>
      <use xlink:href="#DejaVuSans-74" x="463.34375"/>
      <use xlink:href="#DejaVuSans-63" x="502.552734"/>
      <use xlink:href="#DejaVuSans-68" x="557.533203"/>
      <use xlink:href="#DejaVuSans-2c" x="620.912109"/>
      <use xlink:href="#DejaVuSans-20" x="652.699219"/>
      <use xlink:href="#DejaVuSans-34" x="684.486328"/>
      <use xlink:href="#DejaVuSans-20" x="748.109375"/>
      <use xlink:href="#DejaVuSans-74" x="779.896484"/>
      <use xlink:href="#DejaVuSans-68" x="819.105469"/>
      <use xlink:href="#DejaVuSans-72" x="882.484375"/>
      <use xlink:href="#DejaVuSans-65" x="921.347656"/>
      <use xlink:href="#DejaVuSans-61" x="982.871094"/>
      <use xlink:href="#DejaVuSans-64" x="1044.150391"/>
      <use xlink:href="#DejaVuSans-73" x="1107.626953"/>
      <use xlink:href="#DejaVuSans-2c" x="1159.726562"/>
      <use xlink:href="#DejaVuSans-20" x="1191.513672"/>
      <use xlink:href="#DejaVuSans-32" x="1223.300781"/>
      <use xlink:href="#DejaVuSans-2e" x="1286.923828"/>
      <use xlink:href="#DejaVuSans-38" x="1318.710938"/>
      <use xlink:href="#DejaVuSans-20" x="1382.333984"/>
      <use xlink:href="#DejaVuSans-47" x="1414.121094"/>
      <use xlink:href="#DejaVuSans-48" x="1491.611328"/>
      <use xlink:href="#DejaVuSans-7a" x="1566.806641"/>
     </g>
    </g>
    <g id="line2d_46">
     <path d="M 408.685313 167.572187 
L 418.685313 167.572187 
L 428.685313 167.572187 
" style="fill: none; stroke: #17becf; stroke-width: 1.5; stroke-linecap: square"/>
    </g>
    <g id="text_25">
     <!-- Full prefetch, 4 threads, 3.8 GHz -->
     <g transform="translate(436.685313 171.072187)scale(0.1 -0.1)">
      <use xlink:href="#DejaVuSans-46"/>
      <use xlink:href="#DejaVuSans-75" x="52.019531"/>
      <use xlink:href="#DejaVuSans-6c" x="115.398438"/>
      <use xlink:href="#DejaVuSans-6c" x="143.181641"/>
      <use xlink:href="#DejaVuSans-20" x="170.964844"/>
      <use xlink:href="#DejaVuSans-70" x="202.751953"/>
      <use xlink:href="#DejaVuSans-72" x="266.228516"/>
      <use xlink:href="#DejaVuSans-65" x="305.091797"/>
      <use xlink:href="#DejaVuSans-66" x="366.615234"/>
      <use xlink:href="#DejaVuSans-65" x="401.820312"/>
      <use xlink:href="#DejaVuSans-74" x="463.34375"/>
      <use xlink:href="#DejaVuSans-63" x="502.552734"/>
      <use xlink:href="#DejaVuSans-68" x="557.533203"/>
      <use xlink:href="#DejaVuSans-2c" x="620.912109"/>
      <use xlink:href="#DejaVuSans-20" x="652.699219"/>
      <use xlink:href="#DejaVuSans-34" x="684.486328"/>
      <use xlink:href="#DejaVuSans-20" x="748.109375"/>
      <use xlink:href="#DejaVuSans-74" x="779.896484"/>
      <use xlink:href="#DejaVuSans-68" x="819.105469"/>
      <use xlink:href="#DejaVuSans-72" x="882.484375"/>
      <use xlink:href="#DejaVuSans-65" x="921.347656"/>
      <use xlink:href="#DejaVuSans-61" x="982.871094"/>
      <use xlink:href="#DejaVuSans-64" x="1044.150391"/>
      <use xlink:href="#DejaVuSans-73" x="1107.626953"/>
      <use xlink:href="#DejaVuSans-2c" x="1159.726562"/>
      <use xlink:href="#DejaVuSans-20" x="1191.513672"/>
      <use xlink:href="#DejaVuSans-33" x="1223.300781"/>
      <use xlink:href="#DejaVuSans-2e" x="1286.923828"/>
      <use xlink:href="#DejaVuSans-38" x="1318.710938"/>
      <use xlink:href="#DejaVuSans-20" x="1382.333984"/>
      <use xlink:href="#DejaVuSans-47" x="1414.121094"/>
      <use xlink:href="#DejaVuSans-48" x="1491.611328"/>
      <use xlink:href="#DejaVuSans-7a" x="1566.806641"/>
     </g>
    </g>
    <g id="line2d_47">
     <path d="M 408.685313 182.250312 
L 418.685313 182.250312 
L 428.685313 182.250312 
" style="fill: none; stroke: #1f77b4; stroke-width: 1.5; stroke-linecap: square"/>
    </g>
    <g id="text_26">
     <!-- Full prefetch, 8 threads, 2.8 GHz -->
     <g transform="translate(436.685313 185.750312)scale(0.1 -0.1)">
      <use xlink:href="#DejaVuSans-46"/>
      <use xlink:href="#DejaVuSans-75" x="52.019531"/>
      <use xlink:href="#DejaVuSans-6c" x="115.398438"/>
      <use xlink:href="#DejaVuSans-6c" x="143.181641"/>
      <use xlink:href="#DejaVuSans-20" x="170.964844"/>
      <use xlink:href="#DejaVuSans-70" x="202.751953"/>
      <use xlink:href="#DejaVuSans-72" x="266.228516"/>
      <use xlink:href="#DejaVuSans-65" x="305.091797"/>
      <use xlink:href="#DejaVuSans-66" x="366.615234"/>
      <use xlink:href="#DejaVuSans-65" x="401.820312"/>
      <use xlink:href="#DejaVuSans-74" x="463.34375"/>
      <use xlink:href="#DejaVuSans-63" x="502.552734"/>
      <use xlink:href="#DejaVuSans-68" x="557.533203"/>
      <use xlink:href="#DejaVuSans-2c" x="620.912109"/>
      <use xlink:href="#DejaVuSans-20" x="652.699219"/>
      <use xlink:href="#DejaVuSans-38" x="684.486328"/>
      <use xlink:href="#DejaVuSans-20" x="748.109375"/>
      <use xlink:href="#DejaVuSans-74" x="779.896484"/>
      <use xlink:href="#DejaVuSans-68" x="819.105469"/>
      <use xlink:href="#DejaVuSans-72" x="882.484375"/>
      <use xlink:href="#DejaVuSans-65" x="921.347656"/>
      <use xlink:href="#DejaVuSans-61" x="982.871094"/>
      <use xlink:href="#DejaVuSans-64" x="1044.150391"/>
      <use xlink:href="#DejaVuSans-73" x="1107.626953"/>
      <use xlink:href="#DejaVuSans-2c" x="1159.726562"/>
      <use xlink:href="#DejaVuSans-20" x="1191.513672"/>
      <use xlink:href="#DejaVuSans-32" x="1223.300781"/>
      <use xlink:href="#DejaVuSans-2e" x="1286.923828"/>
      <use xlink:href="#DejaVuSans-38" x="1318.710938"/>
      <use xlink:href="#DejaVuSans-20" x="1382.333984"/>
      <use xlink:href="#DejaVuSans-47" x="1414.121094"/>
      <use xlink:href="#DejaVuSans-48" x="1491.611328"/>
      <use xlink:href="#DejaVuSans-7a" x="1566.806641"/>
     </g>
    </g>
    <g id="line2d_48">
     <path d="M 408.685313 196.928437 
L 418.685313 196.928437 
L 428.685313 196.928437 
" style="fill: none; stroke: #ff7f0e; stroke-width: 1.5; stroke-linecap: square"/>
    </g>
    <g id="text_27">
     <!-- Full prefetch, 8 threads, 3.8 GHz -->
     <g transform="translate(436.685313 200.428437)scale(0.1 -0.1)">
      <use xlink:href="#DejaVuSans-46"/>
      <use xlink:href="#DejaVuSans-75" x="52.019531"/>
      <use xlink:href="#DejaVuSans-6c" x="115.398438"/>
      <use xlink:href="#DejaVuSans-6c" x="143.181641"/>
      <use xlink:href="#DejaVuSans-20" x="170.964844"/>
      <use xlink:href="#DejaVuSans-70" x="202.751953"/>
      <use xlink:href="#DejaVuSans-72" x="266.228516"/>
      <use xlink:href="#DejaVuSans-65" x="305.091797"/>
      <use xlink:href="#DejaVuSans-66" x="366.615234"/>
      <use xlink:href="#DejaVuSans-65" x="401.820312"/>
      <use xlink:href="#DejaVuSans-74" x="463.34375"/>
      <use xlink:href="#DejaVuSans-63" x="502.552734"/>
      <use xlink:href="#DejaVuSans-68" x="557.533203"/>
      <use xlink:href="#DejaVuSans-2c" x="620.912109"/>
      <use xlink:href="#DejaVuSans-20" x="652.699219"/>
      <use xlink:href="#DejaVuSans-38" x="684.486328"/>
      <use xlink:href="#DejaVuSans-20" x="748.109375"/>
      <use xlink:href="#DejaVuSans-74" x="779.896484"/>
      <use xlink:href="#DejaVuSans-68" x="819.105469"/>
      <use xlink:href="#DejaVuSans-72" x="882.484375"/>
      <use xlink:href="#DejaVuSans-65" x="921.347656"/>
      <use xlink:href="#DejaVuSans-61" x="982.871094"/>
      <use xlink:href="#DejaVuSans-64" x="1044.150391"/>
      <use xlink:href="#DejaVuSans-73" x="1107.626953"/>
      <use xlink:href="#DejaVuSans-2c" x="1159.726562"/>
      <use xlink:href="#DejaVuSans-20" x="1191.513672"/>
      <use xlink:href="#DejaVuSans-33" x="1223.300781"/>
      <use xlink:href="#DejaVuSans-2e" x="1286.923828"/>
      <use xlink:href="#DejaVuSans-38" x="1318.710938"/>
      <use xlink:href="#DejaVuSans-20" x="1382.333984"/>
      <use xlink:href="#DejaVuSans-47" x="1414.121094"/>
      <use xlink:href="#DejaVuSans-48" x="1491.611328"/>
      <use xlink:href="#DejaVuSans-7a" x="1566.806641"/>
     </g>
    </g>
   </g>
  </g>
 </g>
 <defs>
  <clipPath id="p95f155b212">
   <rect x="64.885312" y="22.370625" width="334.8" height="249.48"/>
  </clipPath>
 </defs>
</svg>
