<?xml version="1.0" encoding="UTF-8"?>
<!DOCTYPE svg PUBLIC "-//W3C//DTD SVG 1.1//EN" "http://www.w3.org/Graphics/SVG/1.1/DTD/svg11.dtd">
<svg width="303mm" height="170mm" viewBox="0 0 30300 17000" version="1.1" xmlns="http://www.w3.org/2000/svg" xmlns:xlink="http://www.w3.org/1999/xlink" stroke-width="28.222" stroke-linejoin="round" xml:space="preserve">
 <path fill="rgb(255,255,255)" stroke="none" d="M 15125,17015 L 0,17015 0,0 30250,0 30250,17015 15125,17015 Z"/>
 <path fill="none" stroke="rgb(179,179,179)" stroke-linejoin="round" d="M 16017,14766 L 2811,14766 2811,535 29223,535 29223,14766 16017,14766 Z"/>
 <path fill="none" stroke="rgb(179,179,179)" stroke-linejoin="round" d="M 29223,14765 L 2811,14765"/>
 <path fill="none" stroke="rgb(179,179,179)" stroke-linejoin="round" d="M 29223,13341 L 2811,13341"/>
 <path fill="none" stroke="rgb(179,179,179)" stroke-linejoin="round" d="M 29223,11918 L 2811,11918"/>
 <path fill="none" stroke="rgb(179,179,179)" stroke-linejoin="round" d="M 29223,10495 L 2811,10495"/>
 <path fill="none" stroke="rgb(179,179,179)" stroke-linejoin="round" d="M 29223,9072 L 2811,9072"/>
 <path fill="none" stroke="rgb(179,179,179)" stroke-linejoin="round" d="M 29223,7650 L 2811,7650"/>
 <path fill="none" stroke="rgb(179,179,179)" stroke-linejoin="round" d="M 29223,6226 L 2811,6226"/>
 <path fill="none" stroke="rgb(179,179,179)" stroke-linejoin="round" d="M 29223,4803 L 2811,4803"/>
 <path fill="none" stroke="rgb(179,179,179)" stroke-linejoin="round" d="M 29223,3380 L 2811,3380"/>
 <path fill="none" stroke="rgb(179,179,179)" stroke-linejoin="round" d="M 29223,1957 L 2811,1957"/>
 <path fill="none" stroke="rgb(179,179,179)" stroke-linejoin="round" d="M 29223,534 L 2811,534"/>
 <path fill="none" stroke="rgb(179,179,179)" stroke-linejoin="round" d="M 2811,14915 L 2811,14765"/>
 <path fill="none" stroke="rgb(179,179,179)" stroke-linejoin="round" d="M 2811,14915 L 2811,14765"/>
 <path fill="none" stroke="rgb(179,179,179)" stroke-linejoin="round" d="M 5745,14915 L 5745,14765"/>
 <path fill="none" stroke="rgb(179,179,179)" stroke-linejoin="round" d="M 5745,14915 L 5745,14765"/>
 <path fill="none" stroke="rgb(179,179,179)" stroke-linejoin="round" d="M 8680,14915 L 8680,14765"/>
 <path fill="none" stroke="rgb(179,179,179)" stroke-linejoin="round" d="M 8680,14915 L 8680,14765"/>
 <path fill="none" stroke="rgb(179,179,179)" stroke-linejoin="round" d="M 11615,14915 L 11615,14765"/>
 <path fill="none" stroke="rgb(179,179,179)" stroke-linejoin="round" d="M 11615,14915 L 11615,14765"/>
 <path fill="none" stroke="rgb(179,179,179)" stroke-linejoin="round" d="M 14550,14915 L 14550,14765"/>
 <path fill="none" stroke="rgb(179,179,179)" stroke-linejoin="round" d="M 14550,14915 L 14550,14765"/>
 <path fill="none" stroke="rgb(179,179,179)" stroke-linejoin="round" d="M 17483,14915 L 17483,14765"/>
 <path fill="none" stroke="rgb(179,179,179)" stroke-linejoin="round" d="M 17483,14915 L 17483,14765"/>
 <path fill="none" stroke="rgb(179,179,179)" stroke-linejoin="round" d="M 20418,14915 L 20418,14765"/>
 <path fill="none" stroke="rgb(179,179,179)" stroke-linejoin="round" d="M 20418,14915 L 20418,14765"/>
 <path fill="none" stroke="rgb(179,179,179)" stroke-linejoin="round" d="M 23353,14915 L 23353,14765"/>
 <path fill="none" stroke="rgb(179,179,179)" stroke-linejoin="round" d="M 23353,14915 L 23353,14765"/>
 <path fill="none" stroke="rgb(179,179,179)" stroke-linejoin="round" d="M 26288,14915 L 26288,14765"/>
 <path fill="none" stroke="rgb(179,179,179)" stroke-linejoin="round" d="M 26288,14915 L 26288,14765"/>
 <path fill="none" stroke="rgb(179,179,179)" stroke-linejoin="round" d="M 29223,14915 L 29223,14765"/>
 <path fill="none" stroke="rgb(179,179,179)" stroke-linejoin="round" d="M 29223,14915 L 29223,14765"/>
 <path fill="none" stroke="rgb(179,179,179)" stroke-linejoin="round" d="M 2811,14765 L 29223,14765"/>
 <path fill="none" stroke="rgb(179,179,179)" stroke-linejoin="round" d="M 2661,14765 L 2811,14765"/>
 <path fill="none" stroke="rgb(179,179,179)" stroke-linejoin="round" d="M 2661,14765 L 2811,14765"/>
 <path fill="none" stroke="rgb(179,179,179)" stroke-linejoin="round" d="M 2661,13341 L 2811,13341"/>
 <path fill="none" stroke="rgb(179,179,179)" stroke-linejoin="round" d="M 2661,13341 L 2811,13341"/>
 <path fill="none" stroke="rgb(179,179,179)" stroke-linejoin="round" d="M 2661,11918 L 2811,11918"/>
 <path fill="none" stroke="rgb(179,179,179)" stroke-linejoin="round" d="M 2661,11918 L 2811,11918"/>
 <path fill="none" stroke="rgb(179,179,179)" stroke-linejoin="round" d="M 2661,10495 L 2811,10495"/>
 <path fill="none" stroke="rgb(179,179,179)" stroke-linejoin="round" d="M 2661,10495 L 2811,10495"/>
 <path fill="none" stroke="rgb(179,179,179)" stroke-linejoin="round" d="M 2661,9072 L 2811,9072"/>
 <path fill="none" stroke="rgb(179,179,179)" stroke-linejoin="round" d="M 2661,9072 L 2811,9072"/>
 <path fill="none" stroke="rgb(179,179,179)" stroke-linejoin="round" d="M 2661,7650 L 2811,7650"/>
 <path fill="none" stroke="rgb(179,179,179)" stroke-linejoin="round" d="M 2661,7650 L 2811,7650"/>
 <path fill="none" stroke="rgb(179,179,179)" stroke-linejoin="round" d="M 2661,6226 L 2811,6226"/>
 <path fill="none" stroke="rgb(179,179,179)" stroke-linejoin="round" d="M 2661,6226 L 2811,6226"/>
 <path fill="none" stroke="rgb(179,179,179)" stroke-linejoin="round" d="M 2661,4803 L 2811,4803"/>
 <path fill="none" stroke="rgb(179,179,179)" stroke-linejoin="round" d="M 2661,4803 L 2811,4803"/>
 <path fill="none" stroke="rgb(179,179,179)" stroke-linejoin="round" d="M 2661,3380 L 2811,3380"/>
 <path fill="none" stroke="rgb(179,179,179)" stroke-linejoin="round" d="M 2661,3380 L 2811,3380"/>
 <path fill="none" stroke="rgb(179,179,179)" stroke-linejoin="round" d="M 2661,1957 L 2811,1957"/>
 <path fill="none" stroke="rgb(179,179,179)" stroke-linejoin="round" d="M 2661,1957 L 2811,1957"/>
 <path fill="none" stroke="rgb(179,179,179)" stroke-linejoin="round" d="M 2661,534 L 2811,534"/>
 <path fill="none" stroke="rgb(179,179,179)" stroke-linejoin="round" d="M 2661,534 L 2811,534"/>
 <path fill="none" stroke="rgb(179,179,179)" stroke-linejoin="round" d="M 2811,14765 L 2811,534"/>
 <path fill="rgb(0,69,134)" stroke="none" d="M 20188,6272 L 20188,6522 20438,6522 20438,6272 20188,6272 Z"/>
 <path fill="none" stroke="rgb(0,69,134)" stroke-linejoin="round" d="M 20188,6272 L 20188,6522 20438,6522 20438,6272 20188,6272 Z"/>
 <path fill="rgb(0,69,134)" stroke="none" d="M 19413,6158 L 19413,6408 19663,6408 19663,6158 19413,6158 Z"/>
 <path fill="none" stroke="rgb(0,69,134)" stroke-linejoin="round" d="M 19413,6158 L 19413,6408 19663,6408 19663,6158 19413,6158 Z"/>
 <path fill="rgb(0,69,134)" stroke="none" d="M 20281,6272 L 20281,6522 20531,6522 20531,6272 20281,6272 Z"/>
 <path fill="none" stroke="rgb(0,69,134)" stroke-linejoin="round" d="M 20281,6272 L 20281,6522 20531,6522 20531,6272 20281,6272 Z"/>
 <path fill="rgb(0,69,134)" stroke="none" d="M 23580,7297 L 23580,7547 23830,7547 23830,7297 23580,7297 Z"/>
 <path fill="none" stroke="rgb(0,69,134)" stroke-linejoin="round" d="M 23580,7297 L 23580,7547 23830,7547 23830,7297 23580,7297 Z"/>
 <path fill="rgb(0,69,134)" stroke="none" d="M 20833,6386 L 20833,6636 21083,6636 21083,6386 20833,6386 Z"/>
 <path fill="none" stroke="rgb(0,69,134)" stroke-linejoin="round" d="M 20833,6386 L 20833,6636 21083,6636 21083,6386 20833,6386 Z"/>
 <path fill="rgb(0,69,134)" stroke="none" d="M 19894,6158 L 19894,6408 20144,6408 20144,6158 19894,6158 Z"/>
 <path fill="none" stroke="rgb(0,69,134)" stroke-linejoin="round" d="M 19894,6158 L 19894,6408 20144,6408 20144,6158 19894,6158 Z"/>
 <path fill="rgb(0,69,134)" stroke="none" d="M 18550,5931 L 18550,6181 18800,6181 18800,5931 18550,5931 Z"/>
 <path fill="none" stroke="rgb(0,69,134)" stroke-linejoin="round" d="M 18550,5931 L 18550,6181 18800,6181 18800,5931 18550,5931 Z"/>
 <path fill="rgb(0,69,134)" stroke="none" d="M 22993,7098 L 22993,7348 23243,7348 23243,7098 22993,7098 Z"/>
 <path fill="none" stroke="rgb(0,69,134)" stroke-linejoin="round" d="M 22993,7098 L 22993,7348 23243,7348 23243,7098 22993,7098 Z"/>
 <path fill="rgb(0,69,134)" stroke="none" d="M 22729,6301 L 22729,6551 22979,6551 22979,6301 22729,6301 Z"/>
 <path fill="none" stroke="rgb(0,69,134)" stroke-linejoin="round" d="M 22729,6301 L 22729,6551 22979,6551 22979,6301 22729,6301 Z"/>
 <path fill="rgb(0,69,134)" stroke="none" d="M 22758,6215 L 22758,6465 23008,6465 23008,6215 22758,6215 Z"/>
 <path fill="none" stroke="rgb(0,69,134)" stroke-linejoin="round" d="M 22758,6215 L 22758,6465 23008,6465 23008,6215 22758,6215 Z"/>
 <path fill="rgb(0,69,134)" stroke="none" d="M 20681,5617 L 20681,5867 20931,5867 20931,5617 20681,5617 Z"/>
 <path fill="none" stroke="rgb(0,69,134)" stroke-linejoin="round" d="M 20681,5617 L 20681,5867 20931,5867 20931,5617 20681,5617 Z"/>
 <path fill="rgb(0,69,134)" stroke="none" d="M 25998,7211 L 25998,7461 26248,7461 26248,7211 25998,7211 Z"/>
 <path fill="none" stroke="rgb(0,69,134)" stroke-linejoin="round" d="M 25998,7211 L 25998,7461 26248,7461 26248,7211 25998,7211 Z"/>
 <path fill="rgb(0,69,134)" stroke="none" d="M 18656,5162 L 18656,5412 18906,5412 18906,5162 18656,5162 Z"/>
 <path fill="none" stroke="rgb(0,69,134)" stroke-linejoin="round" d="M 18656,5162 L 18656,5412 18906,5412 18906,5162 18656,5162 Z"/>
 <path fill="rgb(0,69,134)" stroke="none" d="M 16425,4593 L 16425,4843 16675,4843 16675,4593 16425,4593 Z"/>
 <path fill="none" stroke="rgb(0,69,134)" stroke-linejoin="round" d="M 16425,4593 L 16425,4843 16675,4843 16675,4593 16425,4593 Z"/>
 <path fill="rgb(0,69,134)" stroke="none" d="M 14413,3995 L 14413,4245 14663,4245 14663,3995 14413,3995 Z"/>
 <path fill="none" stroke="rgb(0,69,134)" stroke-linejoin="round" d="M 14413,3995 L 14413,4245 14663,4245 14663,3995 14413,3995 Z"/>
 <path fill="rgb(0,69,134)" stroke="none" d="M 19583,5532 L 19583,5782 19833,5782 19833,5532 19583,5532 Z"/>
 <path fill="none" stroke="rgb(0,69,134)" stroke-linejoin="round" d="M 19583,5532 L 19583,5782 19833,5782 19833,5532 19583,5532 Z"/>
 <path fill="rgb(0,69,134)" stroke="none" d="M 9013,4223 L 9013,4473 9263,4473 9263,4223 9013,4223 Z"/>
 <path fill="none" stroke="rgb(0,69,134)" stroke-linejoin="round" d="M 9013,4223 L 9013,4473 9263,4473 9263,4223 9013,4223 Z"/>
 <path fill="rgb(0,69,134)" stroke="none" d="M 9964,3767 L 9964,4017 10214,4017 10214,3767 9964,3767 Z"/>
 <path fill="none" stroke="rgb(0,69,134)" stroke-linejoin="round" d="M 9964,3767 L 9964,4017 10214,4017 10214,3767 9964,3767 Z"/>
 <path fill="rgb(0,69,134)" stroke="none" d="M 8743,3397 L 8743,3647 8993,3647 8993,3397 8743,3397 Z"/>
 <path fill="none" stroke="rgb(0,69,134)" stroke-linejoin="round" d="M 8743,3397 L 8743,3647 8993,3647 8993,3397 8743,3397 Z"/>
 <path fill="rgb(0,69,134)" stroke="none" d="M 13826,5219 L 13826,5469 14076,5469 14076,5219 13826,5219 Z"/>
 <path fill="none" stroke="rgb(0,69,134)" stroke-linejoin="round" d="M 13826,5219 L 13826,5469 14076,5469 14076,5219 13826,5219 Z"/>
 <path fill="rgb(0,69,134)" stroke="none" d="M 10498,4166 L 10498,4416 10748,4416 10748,4166 10498,4166 Z"/>
 <path fill="none" stroke="rgb(0,69,134)" stroke-linejoin="round" d="M 10498,4166 L 10498,4416 10748,4416 10748,4166 10498,4166 Z"/>
 <path fill="rgb(0,69,134)" stroke="none" d="M 8338,3653 L 8338,3903 8588,3903 8588,3653 8338,3653 Z"/>
 <path fill="none" stroke="rgb(0,69,134)" stroke-linejoin="round" d="M 8338,3653 L 8338,3903 8588,3903 8588,3653 8338,3653 Z"/>
 <path fill="rgb(0,69,134)" stroke="none" d="M 10697,4023 L 10697,4273 10947,4273 10947,4023 10697,4023 Z"/>
 <path fill="none" stroke="rgb(0,69,134)" stroke-linejoin="round" d="M 10697,4023 L 10697,4273 10947,4273 10947,4023 10697,4023 Z"/>
 <path fill="rgb(0,69,134)" stroke="none" d="M 13973,5134 L 13973,5384 14223,5384 14223,5134 13973,5134 Z"/>
 <path fill="none" stroke="rgb(0,69,134)" stroke-linejoin="round" d="M 13973,5134 L 13973,5384 14223,5384 14223,5134 13973,5134 Z"/>
 <path fill="rgb(0,69,134)" stroke="none" d="M 7364,3369 L 7364,3619 7614,3619 7614,3369 7364,3369 Z"/>
 <path fill="none" stroke="rgb(0,69,134)" stroke-linejoin="round" d="M 7364,3369 L 7364,3619 7614,3619 7614,3369 7364,3369 Z"/>
 <path fill="rgb(0,69,134)" stroke="none" d="M 5421,2316 L 5421,2566 5671,2566 5671,2316 5421,2316 Z"/>
 <path fill="none" stroke="rgb(0,69,134)" stroke-linejoin="round" d="M 5421,2316 L 5421,2566 5671,2566 5671,2316 5421,2316 Z"/>
 <path fill="rgb(0,69,134)" stroke="none" d="M 8109,3255 L 8109,3505 8359,3505 8359,3255 8109,3255 Z"/>
 <path fill="none" stroke="rgb(0,69,134)" stroke-linejoin="round" d="M 8109,3255 L 8109,3505 8359,3505 8359,3255 8109,3255 Z"/>
 <path fill="rgb(0,69,134)" stroke="none" d="M 11120,4080 L 11120,4330 11370,4330 11370,4080 11120,4080 Z"/>
 <path fill="none" stroke="rgb(0,69,134)" stroke-linejoin="round" d="M 11120,4080 L 11120,4330 11370,4330 11370,4080 11120,4080 Z"/>
 <path fill="rgb(0,69,134)" stroke="none" d="M 7029,2885 L 7029,3135 7279,3135 7279,2885 7029,2885 Z"/>
 <path fill="none" stroke="rgb(0,69,134)" stroke-linejoin="round" d="M 7029,2885 L 7029,3135 7279,3135 7279,2885 7029,2885 Z"/>
 <path fill="rgb(0,69,134)" stroke="none" d="M 6565,2686 L 6565,2936 6815,2936 6815,2686 6565,2686 Z"/>
 <path fill="none" stroke="rgb(0,69,134)" stroke-linejoin="round" d="M 6565,2686 L 6565,2936 6815,2936 6815,2686 6565,2686 Z"/>
 <path fill="rgb(0,69,134)" stroke="none" d="M 7070,2942 L 7070,3192 7320,3192 7320,2942 7070,2942 Z"/>
 <path fill="none" stroke="rgb(0,69,134)" stroke-linejoin="round" d="M 7070,2942 L 7070,3192 7320,3192 7320,2942 7070,2942 Z"/>
 <path fill="rgb(0,69,134)" stroke="none" d="M 11719,4593 L 11719,4843 11969,4843 11969,4593 11719,4593 Z"/>
 <path fill="none" stroke="rgb(0,69,134)" stroke-linejoin="round" d="M 11719,4593 L 11719,4843 11969,4843 11969,4593 11719,4593 Z"/>
 <path fill="rgb(0,69,134)" stroke="none" d="M 8878,2999 L 8878,3249 9128,3249 9128,2999 8878,2999 Z"/>
 <path fill="none" stroke="rgb(0,69,134)" stroke-linejoin="round" d="M 8878,2999 L 8878,3249 9128,3249 9128,2999 8878,2999 Z"/>
 <path fill="rgb(0,69,134)" stroke="none" d="M 8860,3340 L 8860,3590 9110,3590 9110,3340 8860,3340 Z"/>
 <path fill="none" stroke="rgb(0,69,134)" stroke-linejoin="round" d="M 8860,3340 L 8860,3590 9110,3590 9110,3340 8860,3340 Z"/>
 <path fill="rgb(0,69,134)" stroke="none" d="M 6460,2316 L 6460,2566 6710,2566 6710,2316 6460,2316 Z"/>
 <path fill="none" stroke="rgb(0,69,134)" stroke-linejoin="round" d="M 6460,2316 L 6460,2566 6710,2566 6710,2316 6460,2316 Z"/>
 <path fill="rgb(0,69,134)" stroke="none" d="M 8244,3056 L 8244,3306 8494,3306 8494,3056 8244,3056 Z"/>
 <path fill="none" stroke="rgb(0,69,134)" stroke-linejoin="round" d="M 8244,3056 L 8244,3306 8494,3306 8494,3056 8244,3056 Z"/>
 <path fill="rgb(0,69,134)" stroke="none" d="M 7739,2771 L 7739,3021 7989,3021 7989,2771 7739,2771 Z"/>
 <path fill="none" stroke="rgb(0,69,134)" stroke-linejoin="round" d="M 7739,2771 L 7739,3021 7989,3021 7989,2771 7739,2771 Z"/>
 <path fill="rgb(0,69,134)" stroke="none" d="M 7088,2600 L 7088,2850 7338,2850 7338,2600 7088,2600 Z"/>
 <path fill="none" stroke="rgb(0,69,134)" stroke-linejoin="round" d="M 7088,2600 L 7088,2850 7338,2850 7338,2600 7088,2600 Z"/>
 <path fill="rgb(0,69,134)" stroke="none" d="M 7346,2629 L 7346,2879 7596,2879 7596,2629 7346,2629 Z"/>
 <path fill="none" stroke="rgb(0,69,134)" stroke-linejoin="round" d="M 7346,2629 L 7346,2879 7596,2879 7596,2629 7346,2629 Z"/>
 <path fill="rgb(0,69,134)" stroke="none" d="M 8807,3056 L 8807,3306 9057,3306 9057,3056 8807,3056 Z"/>
 <path fill="none" stroke="rgb(0,69,134)" stroke-linejoin="round" d="M 8807,3056 L 8807,3306 9057,3306 9057,3056 8807,3056 Z"/>
 <path fill="rgb(0,69,134)" stroke="none" d="M 7017,2572 L 7017,2822 7267,2822 7267,2572 7017,2572 Z"/>
 <path fill="none" stroke="rgb(0,69,134)" stroke-linejoin="round" d="M 7017,2572 L 7017,2822 7267,2822 7267,2572 7017,2572 Z"/>
 <path fill="rgb(0,69,134)" stroke="none" d="M 6366,2429 L 6366,2679 6616,2679 6616,2429 6366,2429 Z"/>
 <path fill="none" stroke="rgb(0,69,134)" stroke-linejoin="round" d="M 6366,2429 L 6366,2679 6616,2679 6616,2429 6366,2429 Z"/>
 <path fill="rgb(0,69,134)" stroke="none" d="M 6747,2885 L 6747,3135 6997,3135 6997,2885 6747,2885 Z"/>
 <path fill="none" stroke="rgb(0,69,134)" stroke-linejoin="round" d="M 6747,2885 L 6747,3135 6997,3135 6997,2885 6747,2885 Z"/>
 <path fill="rgb(0,69,134)" stroke="none" d="M 11883,3910 L 11883,4160 12133,4160 12133,3910 11883,3910 Z"/>
 <path fill="none" stroke="rgb(0,69,134)" stroke-linejoin="round" d="M 11883,3910 L 11883,4160 12133,4160 12133,3910 11883,3910 Z"/>
 <path fill="rgb(0,69,134)" stroke="none" d="M 9347,3625 L 9347,3875 9597,3875 9597,3625 9347,3625 Z"/>
 <path fill="none" stroke="rgb(0,69,134)" stroke-linejoin="round" d="M 9347,3625 L 9347,3875 9597,3875 9597,3625 9347,3625 Z"/>
 <path fill="rgb(0,69,134)" stroke="none" d="M 6284,2429 L 6284,2679 6534,2679 6534,2429 6284,2429 Z"/>
 <path fill="none" stroke="rgb(0,69,134)" stroke-linejoin="round" d="M 6284,2429 L 6284,2679 6534,2679 6534,2429 6284,2429 Z"/>
 <path fill="rgb(0,69,134)" stroke="none" d="M 5069,2002 L 5069,2252 5319,2252 5319,2002 5069,2002 Z"/>
 <path fill="none" stroke="rgb(0,69,134)" stroke-linejoin="round" d="M 5069,2002 L 5069,2252 5319,2252 5319,2002 5069,2002 Z"/>
 <path fill="rgb(0,69,134)" stroke="none" d="M 9899,3397 L 9899,3647 10149,3647 10149,3397 9899,3397 Z"/>
 <path fill="none" stroke="rgb(0,69,134)" stroke-linejoin="round" d="M 9899,3397 L 9899,3647 10149,3647 10149,3397 9899,3397 Z"/>
 <path fill="none" stroke="rgb(0,69,134)" stroke-linejoin="round" stroke-dasharray="162,81" d="M 5194,2515 L 26123,7596"/>
 <text class="TextShape"><tspan class="TextParagraph" font-family="Liberation Sans, sans-serif" font-size="353px" font-weight="400"><tspan class="TextPosition" x="2391" y="15322"><tspan fill="rgb(0,0,0)" stroke="none">15.00</tspan></tspan></tspan></text>
 <text class="TextShape"><tspan class="TextParagraph" font-family="Liberation Sans, sans-serif" font-size="353px" font-weight="400"><tspan class="TextPosition" x="5325" y="15322"><tspan fill="rgb(0,0,0)" stroke="none">20.00</tspan></tspan></tspan></text>
 <text class="TextShape"><tspan class="TextParagraph" font-family="Liberation Sans, sans-serif" font-size="353px" font-weight="400"><tspan class="TextPosition" x="8260" y="15322"><tspan fill="rgb(0,0,0)" stroke="none">25.00</tspan></tspan></tspan></text>
 <text class="TextShape"><tspan class="TextParagraph" font-family="Liberation Sans, sans-serif" font-size="353px" font-weight="400"><tspan class="TextPosition" x="11195" y="15322"><tspan fill="rgb(0,0,0)" stroke="none">30.00</tspan></tspan></tspan></text>
 <text class="TextShape"><tspan class="TextParagraph" font-family="Liberation Sans, sans-serif" font-size="353px" font-weight="400"><tspan class="TextPosition" x="14130" y="15322"><tspan fill="rgb(0,0,0)" stroke="none">35.00</tspan></tspan></tspan></text>
 <text class="TextShape"><tspan class="TextParagraph" font-family="Liberation Sans, sans-serif" font-size="353px" font-weight="400"><tspan class="TextPosition" x="17064" y="15322"><tspan fill="rgb(0,0,0)" stroke="none">40.00</tspan></tspan></tspan></text>
 <text class="TextShape"><tspan class="TextParagraph" font-family="Liberation Sans, sans-serif" font-size="353px" font-weight="400"><tspan class="TextPosition" x="19999" y="15322"><tspan fill="rgb(0,0,0)" stroke="none">45.00</tspan></tspan></tspan></text>
 <text class="TextShape"><tspan class="TextParagraph" font-family="Liberation Sans, sans-serif" font-size="353px" font-weight="400"><tspan class="TextPosition" x="22934" y="15322"><tspan fill="rgb(0,0,0)" stroke="none">50.00</tspan></tspan></tspan></text>
 <text class="TextShape"><tspan class="TextParagraph" font-family="Liberation Sans, sans-serif" font-size="353px" font-weight="400"><tspan class="TextPosition" x="25869" y="15322"><tspan fill="rgb(0,0,0)" stroke="none">55.00</tspan></tspan></tspan></text>
 <text class="TextShape"><tspan class="TextParagraph" font-family="Liberation Sans, sans-serif" font-size="353px" font-weight="400"><tspan class="TextPosition" x="28804" y="15322"><tspan fill="rgb(0,0,0)" stroke="none">60.00</tspan></tspan></tspan></text>
 <text class="TextShape"><tspan class="TextParagraph" font-family="Liberation Sans, sans-serif" font-size="353px" font-weight="400"><tspan class="TextPosition" x="2090" y="14879"><tspan fill="rgb(0,0,0)" stroke="none">0.0</tspan></tspan></tspan></text>
 <text class="TextShape"><tspan class="TextParagraph" font-family="Liberation Sans, sans-serif" font-size="353px" font-weight="400"><tspan class="TextPosition" x="2090" y="13455"><tspan fill="rgb(0,0,0)" stroke="none">5.0</tspan></tspan></tspan></text>
 <text class="TextShape"><tspan class="TextParagraph" font-family="Liberation Sans, sans-serif" font-size="353px" font-weight="400"><tspan class="TextPosition" x="1906" y="12032"><tspan fill="rgb(0,0,0)" stroke="none">10.0</tspan></tspan></tspan></text>
 <text class="TextShape"><tspan class="TextParagraph" font-family="Liberation Sans, sans-serif" font-size="353px" font-weight="400"><tspan class="TextPosition" x="1906" y="10609"><tspan fill="rgb(0,0,0)" stroke="none">15.0</tspan></tspan></tspan></text>
 <text class="TextShape"><tspan class="TextParagraph" font-family="Liberation Sans, sans-serif" font-size="353px" font-weight="400"><tspan class="TextPosition" x="1906" y="9186"><tspan fill="rgb(0,0,0)" stroke="none">20.0</tspan></tspan></tspan></text>
 <text class="TextShape"><tspan class="TextParagraph" font-family="Liberation Sans, sans-serif" font-size="353px" font-weight="400"><tspan class="TextPosition" x="1906" y="7763"><tspan fill="rgb(0,0,0)" stroke="none">25.0</tspan></tspan></tspan></text>
 <text class="TextShape"><tspan class="TextParagraph" font-family="Liberation Sans, sans-serif" font-size="353px" font-weight="400"><tspan class="TextPosition" x="1906" y="6339"><tspan fill="rgb(0,0,0)" stroke="none">30.0</tspan></tspan></tspan></text>
 <text class="TextShape"><tspan class="TextParagraph" font-family="Liberation Sans, sans-serif" font-size="353px" font-weight="400"><tspan class="TextPosition" x="1906" y="4916"><tspan fill="rgb(0,0,0)" stroke="none">35.0</tspan></tspan></tspan></text>
 <text class="TextShape"><tspan class="TextParagraph" font-family="Liberation Sans, sans-serif" font-size="353px" font-weight="400"><tspan class="TextPosition" x="1906" y="3493"><tspan fill="rgb(0,0,0)" stroke="none">40.0</tspan></tspan></tspan></text>
 <text class="TextShape"><tspan class="TextParagraph" font-family="Liberation Sans, sans-serif" font-size="353px" font-weight="400"><tspan class="TextPosition" x="1906" y="2070"><tspan fill="rgb(0,0,0)" stroke="none">45.0</tspan></tspan></tspan></text>
 <text class="TextShape"><tspan class="TextParagraph" font-family="Liberation Sans, sans-serif" font-size="353px" font-weight="400"><tspan class="TextPosition" x="1906" y="647"><tspan fill="rgb(0,0,0)" stroke="none">50.0</tspan></tspan></tspan></text>
 <text class="TextShape"><tspan class="TextParagraph" font-family="Liberation Sans, sans-serif" font-size="494px" font-weight="400"><tspan class="TextPosition" x="14087" y="6915"><tspan fill="rgb(0,0,0)" stroke="none">y = − 0.50 x + 52.58</tspan></tspan></tspan><tspan class="TextParagraph" font-family="Liberation Sans, sans-serif" font-size="494px" font-weight="400"><tspan class="TextPosition" x="14087" y="7468"><tspan fill="rgb(0,0,0)" stroke="none">R² = 0.94</tspan></tspan></tspan></text>
 <text class="TextShape"><tspan class="TextParagraph" font-family="Liberation Sans, sans-serif" font-size="494px" font-weight="400"><tspan class="TextPosition" x="11555" y="16346"><tspan fill="rgb(0,0,0)" stroke="none">% of main thread time reading from DB</tspan></tspan></tspan></text>
 <text class="TextShape" transform="rotate(-90 1050 9583)"><tspan class="TextParagraph" font-family="Liberation Sans, sans-serif" font-size="494px" font-weight="400"><tspan class="TextPosition" x="1050" y="9583"><tspan fill="rgb(0,0,0)" stroke="none">Blocks / second</tspan></tspan></tspan></text>
</svg>