<?xml version="1.0" encoding="utf-8" standalone="no"?>
<!DOCTYPE svg PUBLIC "-//W3C//DTD SVG 1.1//EN"
  "http://www.w3.org/Graphics/SVG/1.1/DTD/svg11.dtd">
<svg xmlns:xlink="http://www.w3.org/1999/xlink" width="538.99875pt" height="309.406875pt" viewBox="0 0 538.99875 309.406875" xmlns="http://www.w3.org/2000/svg" version="1.1">
 <metadata>
  <rdf:RDF xmlns:dc="http://purl.org/dc/elements/1.1/" xmlns:cc="http://creativecommons.org/ns#" xmlns:rdf="http://www.w3.org/1999/02/22-rdf-syntax-ns#">
   <cc:Work>
    <dc:type rdf:resource="http://purl.org/dc/dcmitype/StillImage"/>
    <dc:date>2022-02-23T14:52:55.404919</dc:date>
    <dc:format>image/svg+xml</dc:format>
    <dc:creator>
     <cc:Agent>
      <dc:title>Matplotlib v3.5.1, https://matplotlib.org/</dc:title>
     </cc:Agent>
    </dc:creator>
   </cc:Work>
  </rdf:RDF>
 </metadata>
 <defs>
  <style type="text/css">*{stroke-linejoin: round; stroke-linecap: butt}</style>
 </defs>
 <g id="figure_1">
  <g id="patch_1">
   <path d="M -0 309.406875 
L 538.99875 309.406875 
L 538.99875 0 
L -0 0 
z
" style="fill: #ffffff"/>
  </g>
  <g id="axes_1">
   <g id="patch_2">
    <path d="M 68.828437 271.850625 
L 403.628438 271.850625 
L 403.628438 22.370625 
L 68.828437 22.370625 
z
" style="fill: #ffffff"/>
   </g>
   <g id="matplotlib.axis_1">
    <g id="xtick_1">
     <g id="line2d_1">
      <path d="M 84.046619 271.850625 
L 84.046619 22.370625 
" clip-path="url(#p8bf3b439e2)" style="fill: none; stroke: #b0b0b0; stroke-width: 0.8; stroke-linecap: square"/>
     </g>
     <g id="line2d_2">
      <defs>
       <path id="meec01b09f5" d="M 0 0 
L 0 3.5 
" style="stroke: #000000; stroke-width: 0.8"/>
      </defs>
      <g>
       <use xlink:href="#meec01b09f5" x="84.046619" y="271.850625" style="stroke: #000000; stroke-width: 0.8"/>
      </g>
     </g>
     <g id="text_1">
      <!-- 0 -->
      <g transform="translate(80.865369 286.449062)scale(0.1 -0.1)">
       <defs>
        <path id="DejaVuSans-30" d="M 2034 4250 
Q 1547 4250 1301 3770 
Q 1056 3291 1056 2328 
Q 1056 1369 1301 889 
Q 1547 409 2034 409 
Q 2525 409 2770 889 
Q 3016 1369 3016 2328 
Q 3016 3291 2770 3770 
Q 2525 4250 2034 4250 
z
M 2034 4750 
Q 2819 4750 3233 4129 
Q 3647 3509 3647 2328 
Q 3647 1150 3233 529 
Q 2819 -91 2034 -91 
Q 1250 -91 836 529 
Q 422 1150 422 2328 
Q 422 3509 836 4129 
Q 1250 4750 2034 4750 
z
" transform="scale(0.015625)"/>
       </defs>
       <use xlink:href="#DejaVuSans-30"/>
      </g>
     </g>
    </g>
    <g id="xtick_2">
     <g id="line2d_3">
      <path d="M 134.773892 271.850625 
L 134.773892 22.370625 
" clip-path="url(#p8bf3b439e2)" style="fill: none; stroke: #b0b0b0; stroke-width: 0.8; stroke-linecap: square"/>
     </g>
     <g id="line2d_4">
      <g>
       <use xlink:href="#meec01b09f5" x="134.773892" y="271.850625" style="stroke: #000000; stroke-width: 0.8"/>
      </g>
     </g>
     <g id="text_2">
      <!-- 5000 -->
      <g transform="translate(122.048892 286.449062)scale(0.1 -0.1)">
       <defs>
        <path id="DejaVuSans-35" d="M 691 4666 
L 3169 4666 
L 3169 4134 
L 1269 4134 
L 1269 2991 
Q 1406 3038 1543 3061 
Q 1681 3084 1819 3084 
Q 2600 3084 3056 2656 
Q 3513 2228 3513 1497 
Q 3513 744 3044 326 
Q 2575 -91 1722 -91 
Q 1428 -91 1123 -41 
Q 819 9 494 109 
L 494 744 
Q 775 591 1075 516 
Q 1375 441 1709 441 
Q 2250 441 2565 725 
Q 2881 1009 2881 1497 
Q 2881 1984 2565 2268 
Q 2250 2553 1709 2553 
Q 1456 2553 1204 2497 
Q 953 2441 691 2322 
L 691 4666 
z
" transform="scale(0.015625)"/>
       </defs>
       <use xlink:href="#DejaVuSans-35"/>
       <use xlink:href="#DejaVuSans-30" x="63.623047"/>
       <use xlink:href="#DejaVuSans-30" x="127.246094"/>
       <use xlink:href="#DejaVuSans-30" x="190.869141"/>
      </g>
     </g>
    </g>
    <g id="xtick_3">
     <g id="line2d_5">
      <path d="M 185.501165 271.850625 
L 185.501165 22.370625 
" clip-path="url(#p8bf3b439e2)" style="fill: none; stroke: #b0b0b0; stroke-width: 0.8; stroke-linecap: square"/>
     </g>
     <g id="line2d_6">
      <g>
       <use xlink:href="#meec01b09f5" x="185.501165" y="271.850625" style="stroke: #000000; stroke-width: 0.8"/>
      </g>
     </g>
     <g id="text_3">
      <!-- 10000 -->
      <g transform="translate(169.594915 286.449062)scale(0.1 -0.1)">
       <defs>
        <path id="DejaVuSans-31" d="M 794 531 
L 1825 531 
L 1825 4091 
L 703 3866 
L 703 4441 
L 1819 4666 
L 2450 4666 
L 2450 531 
L 3481 531 
L 3481 0 
L 794 0 
L 794 531 
z
" transform="scale(0.015625)"/>
       </defs>
       <use xlink:href="#DejaVuSans-31"/>
       <use xlink:href="#DejaVuSans-30" x="63.623047"/>
       <use xlink:href="#DejaVuSans-30" x="127.246094"/>
       <use xlink:href="#DejaVuSans-30" x="190.869141"/>
       <use xlink:href="#DejaVuSans-30" x="254.492188"/>
      </g>
     </g>
    </g>
    <g id="xtick_4">
     <g id="line2d_7">
      <path d="M 236.228437 271.850625 
L 236.228437 22.370625 
" clip-path="url(#p8bf3b439e2)" style="fill: none; stroke: #b0b0b0; stroke-width: 0.8; stroke-linecap: square"/>
     </g>
     <g id="line2d_8">
      <g>
       <use xlink:href="#meec01b09f5" x="236.228437" y="271.850625" style="stroke: #000000; stroke-width: 0.8"/>
      </g>
     </g>
     <g id="text_4">
      <!-- 15000 -->
      <g transform="translate(220.322187 286.449062)scale(0.1 -0.1)">
       <use xlink:href="#DejaVuSans-31"/>
       <use xlink:href="#DejaVuSans-35" x="63.623047"/>
       <use xlink:href="#DejaVuSans-30" x="127.246094"/>
       <use xlink:href="#DejaVuSans-30" x="190.869141"/>
       <use xlink:href="#DejaVuSans-30" x="254.492188"/>
      </g>
     </g>
    </g>
    <g id="xtick_5">
     <g id="line2d_9">
      <path d="M 286.95571 271.850625 
L 286.95571 22.370625 
" clip-path="url(#p8bf3b439e2)" style="fill: none; stroke: #b0b0b0; stroke-width: 0.8; stroke-linecap: square"/>
     </g>
     <g id="line2d_10">
      <g>
       <use xlink:href="#meec01b09f5" x="286.95571" y="271.850625" style="stroke: #000000; stroke-width: 0.8"/>
      </g>
     </g>
     <g id="text_5">
      <!-- 20000 -->
      <g transform="translate(271.04946 286.449062)scale(0.1 -0.1)">
       <defs>
        <path id="DejaVuSans-32" d="M 1228 531 
L 3431 531 
L 3431 0 
L 469 0 
L 469 531 
Q 828 903 1448 1529 
Q 2069 2156 2228 2338 
Q 2531 2678 2651 2914 
Q 2772 3150 2772 3378 
Q 2772 3750 2511 3984 
Q 2250 4219 1831 4219 
Q 1534 4219 1204 4116 
Q 875 4013 500 3803 
L 500 4441 
Q 881 4594 1212 4672 
Q 1544 4750 1819 4750 
Q 2544 4750 2975 4387 
Q 3406 4025 3406 3419 
Q 3406 3131 3298 2873 
Q 3191 2616 2906 2266 
Q 2828 2175 2409 1742 
Q 1991 1309 1228 531 
z
" transform="scale(0.015625)"/>
       </defs>
       <use xlink:href="#DejaVuSans-32"/>
       <use xlink:href="#DejaVuSans-30" x="63.623047"/>
       <use xlink:href="#DejaVuSans-30" x="127.246094"/>
       <use xlink:href="#DejaVuSans-30" x="190.869141"/>
       <use xlink:href="#DejaVuSans-30" x="254.492188"/>
      </g>
     </g>
    </g>
    <g id="xtick_6">
     <g id="line2d_11">
      <path d="M 337.682983 271.850625 
L 337.682983 22.370625 
" clip-path="url(#p8bf3b439e2)" style="fill: none; stroke: #b0b0b0; stroke-width: 0.8; stroke-linecap: square"/>
     </g>
     <g id="line2d_12">
      <g>
       <use xlink:href="#meec01b09f5" x="337.682983" y="271.850625" style="stroke: #000000; stroke-width: 0.8"/>
      </g>
     </g>
     <g id="text_6">
      <!-- 25000 -->
      <g transform="translate(321.776733 286.449062)scale(0.1 -0.1)">
       <use xlink:href="#DejaVuSans-32"/>
       <use xlink:href="#DejaVuSans-35" x="63.623047"/>
       <use xlink:href="#DejaVuSans-30" x="127.246094"/>
       <use xlink:href="#DejaVuSans-30" x="190.869141"/>
       <use xlink:href="#DejaVuSans-30" x="254.492188"/>
      </g>
     </g>
    </g>
    <g id="xtick_7">
     <g id="line2d_13">
      <path d="M 388.410256 271.850625 
L 388.410256 22.370625 
" clip-path="url(#p8bf3b439e2)" style="fill: none; stroke: #b0b0b0; stroke-width: 0.8; stroke-linecap: square"/>
     </g>
     <g id="line2d_14">
      <g>
       <use xlink:href="#meec01b09f5" x="388.410256" y="271.850625" style="stroke: #000000; stroke-width: 0.8"/>
      </g>
     </g>
     <g id="text_7">
      <!-- 30000 -->
      <g transform="translate(372.504006 286.449062)scale(0.1 -0.1)">
       <defs>
        <path id="DejaVuSans-33" d="M 2597 2516 
Q 3050 2419 3304 2112 
Q 3559 1806 3559 1356 
Q 3559 666 3084 287 
Q 2609 -91 1734 -91 
Q 1441 -91 1130 -33 
Q 819 25 488 141 
L 488 750 
Q 750 597 1062 519 
Q 1375 441 1716 441 
Q 2309 441 2620 675 
Q 2931 909 2931 1356 
Q 2931 1769 2642 2001 
Q 2353 2234 1838 2234 
L 1294 2234 
L 1294 2753 
L 1863 2753 
Q 2328 2753 2575 2939 
Q 2822 3125 2822 3475 
Q 2822 3834 2567 4026 
Q 2313 4219 1838 4219 
Q 1578 4219 1281 4162 
Q 984 4106 628 3988 
L 628 4550 
Q 988 4650 1302 4700 
Q 1616 4750 1894 4750 
Q 2613 4750 3031 4423 
Q 3450 4097 3450 3541 
Q 3450 3153 3228 2886 
Q 3006 2619 2597 2516 
z
" transform="scale(0.015625)"/>
       </defs>
       <use xlink:href="#DejaVuSans-33"/>
       <use xlink:href="#DejaVuSans-30" x="63.623047"/>
       <use xlink:href="#DejaVuSans-30" x="127.246094"/>
       <use xlink:href="#DejaVuSans-30" x="190.869141"/>
       <use xlink:href="#DejaVuSans-30" x="254.492188"/>
      </g>
     </g>
    </g>
    <g id="text_8">
     <!-- Blocks (+10.5M) -->
     <g transform="translate(194.972969 300.127187)scale(0.1 -0.1)">
      <defs>
       <path id="DejaVuSans-42" d="M 1259 2228 
L 1259 519 
L 2272 519 
Q 2781 519 3026 730 
Q 3272 941 3272 1375 
Q 3272 1813 3026 2020 
Q 2781 2228 2272 2228 
L 1259 2228 
z
M 1259 4147 
L 1259 2741 
L 2194 2741 
Q 2656 2741 2882 2914 
Q 3109 3088 3109 3444 
Q 3109 3797 2882 3972 
Q 2656 4147 2194 4147 
L 1259 4147 
z
M 628 4666 
L 2241 4666 
Q 2963 4666 3353 4366 
Q 3744 4066 3744 3513 
Q 3744 3084 3544 2831 
Q 3344 2578 2956 2516 
Q 3422 2416 3680 2098 
Q 3938 1781 3938 1306 
Q 3938 681 3513 340 
Q 3088 0 2303 0 
L 628 0 
L 628 4666 
z
" transform="scale(0.015625)"/>
       <path id="DejaVuSans-6c" d="M 603 4863 
L 1178 4863 
L 1178 0 
L 603 0 
L 603 4863 
z
" transform="scale(0.015625)"/>
       <path id="DejaVuSans-6f" d="M 1959 3097 
Q 1497 3097 1228 2736 
Q 959 2375 959 1747 
Q 959 1119 1226 758 
Q 1494 397 1959 397 
Q 2419 397 2687 759 
Q 2956 1122 2956 1747 
Q 2956 2369 2687 2733 
Q 2419 3097 1959 3097 
z
M 1959 3584 
Q 2709 3584 3137 3096 
Q 3566 2609 3566 1747 
Q 3566 888 3137 398 
Q 2709 -91 1959 -91 
Q 1206 -91 779 398 
Q 353 888 353 1747 
Q 353 2609 779 3096 
Q 1206 3584 1959 3584 
z
" transform="scale(0.015625)"/>
       <path id="DejaVuSans-63" d="M 3122 3366 
L 3122 2828 
Q 2878 2963 2633 3030 
Q 2388 3097 2138 3097 
Q 1578 3097 1268 2742 
Q 959 2388 959 1747 
Q 959 1106 1268 751 
Q 1578 397 2138 397 
Q 2388 397 2633 464 
Q 2878 531 3122 666 
L 3122 134 
Q 2881 22 2623 -34 
Q 2366 -91 2075 -91 
Q 1284 -91 818 406 
Q 353 903 353 1747 
Q 353 2603 823 3093 
Q 1294 3584 2113 3584 
Q 2378 3584 2631 3529 
Q 2884 3475 3122 3366 
z
" transform="scale(0.015625)"/>
       <path id="DejaVuSans-6b" d="M 581 4863 
L 1159 4863 
L 1159 1991 
L 2875 3500 
L 3609 3500 
L 1753 1863 
L 3688 0 
L 2938 0 
L 1159 1709 
L 1159 0 
L 581 0 
L 581 4863 
z
" transform="scale(0.015625)"/>
       <path id="DejaVuSans-73" d="M 2834 3397 
L 2834 2853 
Q 2591 2978 2328 3040 
Q 2066 3103 1784 3103 
Q 1356 3103 1142 2972 
Q 928 2841 928 2578 
Q 928 2378 1081 2264 
Q 1234 2150 1697 2047 
L 1894 2003 
Q 2506 1872 2764 1633 
Q 3022 1394 3022 966 
Q 3022 478 2636 193 
Q 2250 -91 1575 -91 
Q 1294 -91 989 -36 
Q 684 19 347 128 
L 347 722 
Q 666 556 975 473 
Q 1284 391 1588 391 
Q 1994 391 2212 530 
Q 2431 669 2431 922 
Q 2431 1156 2273 1281 
Q 2116 1406 1581 1522 
L 1381 1569 
Q 847 1681 609 1914 
Q 372 2147 372 2553 
Q 372 3047 722 3315 
Q 1072 3584 1716 3584 
Q 2034 3584 2315 3537 
Q 2597 3491 2834 3397 
z
" transform="scale(0.015625)"/>
       <path id="DejaVuSans-20" transform="scale(0.015625)"/>
       <path id="DejaVuSans-28" d="M 1984 4856 
Q 1566 4138 1362 3434 
Q 1159 2731 1159 2009 
Q 1159 1288 1364 580 
Q 1569 -128 1984 -844 
L 1484 -844 
Q 1016 -109 783 600 
Q 550 1309 550 2009 
Q 550 2706 781 3412 
Q 1013 4119 1484 4856 
L 1984 4856 
z
" transform="scale(0.015625)"/>
       <path id="DejaVuSans-2b" d="M 2944 4013 
L 2944 2272 
L 4684 2272 
L 4684 1741 
L 2944 1741 
L 2944 0 
L 2419 0 
L 2419 1741 
L 678 1741 
L 678 2272 
L 2419 2272 
L 2419 4013 
L 2944 4013 
z
" transform="scale(0.015625)"/>
       <path id="DejaVuSans-2e" d="M 684 794 
L 1344 794 
L 1344 0 
L 684 0 
L 684 794 
z
" transform="scale(0.015625)"/>
       <path id="DejaVuSans-4d" d="M 628 4666 
L 1569 4666 
L 2759 1491 
L 3956 4666 
L 4897 4666 
L 4897 0 
L 4281 0 
L 4281 4097 
L 3078 897 
L 2444 897 
L 1241 4097 
L 1241 0 
L 628 0 
L 628 4666 
z
" transform="scale(0.015625)"/>
       <path id="DejaVuSans-29" d="M 513 4856 
L 1013 4856 
Q 1481 4119 1714 3412 
Q 1947 2706 1947 2009 
Q 1947 1309 1714 600 
Q 1481 -109 1013 -844 
L 513 -844 
Q 928 -128 1133 580 
Q 1338 1288 1338 2009 
Q 1338 2731 1133 3434 
Q 928 4138 513 4856 
z
" transform="scale(0.015625)"/>
      </defs>
      <use xlink:href="#DejaVuSans-42"/>
      <use xlink:href="#DejaVuSans-6c" x="68.603516"/>
      <use xlink:href="#DejaVuSans-6f" x="96.386719"/>
      <use xlink:href="#DejaVuSans-63" x="157.568359"/>
      <use xlink:href="#DejaVuSans-6b" x="212.548828"/>
      <use xlink:href="#DejaVuSans-73" x="270.458984"/>
      <use xlink:href="#DejaVuSans-20" x="322.558594"/>
      <use xlink:href="#DejaVuSans-28" x="354.345703"/>
      <use xlink:href="#DejaVuSans-2b" x="393.359375"/>
      <use xlink:href="#DejaVuSans-31" x="477.148438"/>
      <use xlink:href="#DejaVuSans-30" x="540.771484"/>
      <use xlink:href="#DejaVuSans-2e" x="604.394531"/>
      <use xlink:href="#DejaVuSans-35" x="636.181641"/>
      <use xlink:href="#DejaVuSans-4d" x="699.804688"/>
      <use xlink:href="#DejaVuSans-29" x="786.083984"/>
     </g>
    </g>
   </g>
   <g id="matplotlib.axis_2">
    <g id="ytick_1">
     <g id="line2d_15">
      <path d="M 68.828437 260.510625 
L 403.628438 260.510625 
" clip-path="url(#p8bf3b439e2)" style="fill: none; stroke: #b0b0b0; stroke-width: 0.8; stroke-linecap: square"/>
     </g>
     <g id="line2d_16">
      <defs>
       <path id="m83196463db" d="M 0 0 
L -3.5 0 
" style="stroke: #000000; stroke-width: 0.8"/>
      </defs>
      <g>
       <use xlink:href="#m83196463db" x="68.828437" y="260.510625" style="stroke: #000000; stroke-width: 0.8"/>
      </g>
     </g>
     <g id="text_9">
      <!-- 0 -->
      <g transform="translate(55.465937 264.309844)scale(0.1 -0.1)">
       <use xlink:href="#DejaVuSans-30"/>
      </g>
     </g>
    </g>
    <g id="ytick_2">
     <g id="line2d_17">
      <path d="M 68.828437 208.576802 
L 403.628438 208.576802 
" clip-path="url(#p8bf3b439e2)" style="fill: none; stroke: #b0b0b0; stroke-width: 0.8; stroke-linecap: square"/>
     </g>
     <g id="line2d_18">
      <g>
       <use xlink:href="#m83196463db" x="68.828437" y="208.576802" style="stroke: #000000; stroke-width: 0.8"/>
      </g>
     </g>
     <g id="text_10">
      <!-- 10 -->
      <g transform="translate(49.103437 212.37602)scale(0.1 -0.1)">
       <use xlink:href="#DejaVuSans-31"/>
       <use xlink:href="#DejaVuSans-30" x="63.623047"/>
      </g>
     </g>
    </g>
    <g id="ytick_3">
     <g id="line2d_19">
      <path d="M 68.828437 156.642978 
L 403.628438 156.642978 
" clip-path="url(#p8bf3b439e2)" style="fill: none; stroke: #b0b0b0; stroke-width: 0.8; stroke-linecap: square"/>
     </g>
     <g id="line2d_20">
      <g>
       <use xlink:href="#m83196463db" x="68.828437" y="156.642978" style="stroke: #000000; stroke-width: 0.8"/>
      </g>
     </g>
     <g id="text_11">
      <!-- 20 -->
      <g transform="translate(49.103437 160.442197)scale(0.1 -0.1)">
       <use xlink:href="#DejaVuSans-32"/>
       <use xlink:href="#DejaVuSans-30" x="63.623047"/>
      </g>
     </g>
    </g>
    <g id="ytick_4">
     <g id="line2d_21">
      <path d="M 68.828437 104.709155 
L 403.628438 104.709155 
" clip-path="url(#p8bf3b439e2)" style="fill: none; stroke: #b0b0b0; stroke-width: 0.8; stroke-linecap: square"/>
     </g>
     <g id="line2d_22">
      <g>
       <use xlink:href="#m83196463db" x="68.828437" y="104.709155" style="stroke: #000000; stroke-width: 0.8"/>
      </g>
     </g>
     <g id="text_12">
      <!-- 30 -->
      <g transform="translate(49.103437 108.508374)scale(0.1 -0.1)">
       <use xlink:href="#DejaVuSans-33"/>
       <use xlink:href="#DejaVuSans-30" x="63.623047"/>
      </g>
     </g>
    </g>
    <g id="ytick_5">
     <g id="line2d_23">
      <path d="M 68.828437 52.775332 
L 403.628438 52.775332 
" clip-path="url(#p8bf3b439e2)" style="fill: none; stroke: #b0b0b0; stroke-width: 0.8; stroke-linecap: square"/>
     </g>
     <g id="line2d_24">
      <g>
       <use xlink:href="#m83196463db" x="68.828437" y="52.775332" style="stroke: #000000; stroke-width: 0.8"/>
      </g>
     </g>
     <g id="text_13">
      <!-- 40 -->
      <g transform="translate(49.103437 56.57455)scale(0.1 -0.1)">
       <defs>
        <path id="DejaVuSans-34" d="M 2419 4116 
L 825 1625 
L 2419 1625 
L 2419 4116 
z
M 2253 4666 
L 3047 4666 
L 3047 1625 
L 3713 1625 
L 3713 1100 
L 3047 1100 
L 3047 0 
L 2419 0 
L 2419 1100 
L 313 1100 
L 313 1709 
L 2253 4666 
z
" transform="scale(0.015625)"/>
       </defs>
       <use xlink:href="#DejaVuSans-34"/>
       <use xlink:href="#DejaVuSans-30" x="63.623047"/>
      </g>
     </g>
    </g>
    <g id="text_14">
     <!-- blocks / second -->
     <g transform="translate(43.02375 185.677812)rotate(-90)scale(0.1 -0.1)">
      <defs>
       <path id="DejaVuSans-62" d="M 3116 1747 
Q 3116 2381 2855 2742 
Q 2594 3103 2138 3103 
Q 1681 3103 1420 2742 
Q 1159 2381 1159 1747 
Q 1159 1113 1420 752 
Q 1681 391 2138 391 
Q 2594 391 2855 752 
Q 3116 1113 3116 1747 
z
M 1159 2969 
Q 1341 3281 1617 3432 
Q 1894 3584 2278 3584 
Q 2916 3584 3314 3078 
Q 3713 2572 3713 1747 
Q 3713 922 3314 415 
Q 2916 -91 2278 -91 
Q 1894 -91 1617 61 
Q 1341 213 1159 525 
L 1159 0 
L 581 0 
L 581 4863 
L 1159 4863 
L 1159 2969 
z
" transform="scale(0.015625)"/>
       <path id="DejaVuSans-2f" d="M 1625 4666 
L 2156 4666 
L 531 -594 
L 0 -594 
L 1625 4666 
z
" transform="scale(0.015625)"/>
       <path id="DejaVuSans-65" d="M 3597 1894 
L 3597 1613 
L 953 1613 
Q 991 1019 1311 708 
Q 1631 397 2203 397 
Q 2534 397 2845 478 
Q 3156 559 3463 722 
L 3463 178 
Q 3153 47 2828 -22 
Q 2503 -91 2169 -91 
Q 1331 -91 842 396 
Q 353 884 353 1716 
Q 353 2575 817 3079 
Q 1281 3584 2069 3584 
Q 2775 3584 3186 3129 
Q 3597 2675 3597 1894 
z
M 3022 2063 
Q 3016 2534 2758 2815 
Q 2500 3097 2075 3097 
Q 1594 3097 1305 2825 
Q 1016 2553 972 2059 
L 3022 2063 
z
" transform="scale(0.015625)"/>
       <path id="DejaVuSans-6e" d="M 3513 2113 
L 3513 0 
L 2938 0 
L 2938 2094 
Q 2938 2591 2744 2837 
Q 2550 3084 2163 3084 
Q 1697 3084 1428 2787 
Q 1159 2491 1159 1978 
L 1159 0 
L 581 0 
L 581 3500 
L 1159 3500 
L 1159 2956 
Q 1366 3272 1645 3428 
Q 1925 3584 2291 3584 
Q 2894 3584 3203 3211 
Q 3513 2838 3513 2113 
z
" transform="scale(0.015625)"/>
       <path id="DejaVuSans-64" d="M 2906 2969 
L 2906 4863 
L 3481 4863 
L 3481 0 
L 2906 0 
L 2906 525 
Q 2725 213 2448 61 
Q 2172 -91 1784 -91 
Q 1150 -91 751 415 
Q 353 922 353 1747 
Q 353 2572 751 3078 
Q 1150 3584 1784 3584 
Q 2172 3584 2448 3432 
Q 2725 3281 2906 2969 
z
M 947 1747 
Q 947 1113 1208 752 
Q 1469 391 1925 391 
Q 2381 391 2643 752 
Q 2906 1113 2906 1747 
Q 2906 2381 2643 2742 
Q 2381 3103 1925 3103 
Q 1469 3103 1208 2742 
Q 947 2381 947 1747 
z
" transform="scale(0.015625)"/>
      </defs>
      <use xlink:href="#DejaVuSans-62"/>
      <use xlink:href="#DejaVuSans-6c" x="63.476562"/>
      <use xlink:href="#DejaVuSans-6f" x="91.259766"/>
      <use xlink:href="#DejaVuSans-63" x="152.441406"/>
      <use xlink:href="#DejaVuSans-6b" x="207.421875"/>
      <use xlink:href="#DejaVuSans-73" x="265.332031"/>
      <use xlink:href="#DejaVuSans-20" x="317.431641"/>
      <use xlink:href="#DejaVuSans-2f" x="349.21875"/>
      <use xlink:href="#DejaVuSans-20" x="382.910156"/>
      <use xlink:href="#DejaVuSans-73" x="414.697266"/>
      <use xlink:href="#DejaVuSans-65" x="466.796875"/>
      <use xlink:href="#DejaVuSans-63" x="528.320312"/>
      <use xlink:href="#DejaVuSans-6f" x="583.300781"/>
      <use xlink:href="#DejaVuSans-6e" x="644.482422"/>
      <use xlink:href="#DejaVuSans-64" x="707.861328"/>
     </g>
    </g>
   </g>
   <g id="line2d_25">
    <path d="M 84.046619 260.510625 
L 88.53091 183.998941 
L 94.973274 167.327449 
L 103.251965 151.317622 
L 112.535056 139.001947 
L 122.690656 130.132536 
L 132.491165 122.749746 
L 143.417819 115.795429 
L 149.292037 121.357786 
L 162.369528 112.01774 
L 174.564365 106.05953 
L 186.62731 101.390185 
L 198.203274 98.19119 
L 209.292256 96.118082 
L 221.121856 93.446193 
L 232.210838 91.966137 
L 244.710037 89.176189 
L 256.844001 87.072922 
L 269.059128 85.12661 
L 279.945201 84.582442 
L 286.50931 87.924844 
L 297.730183 86.886479 
L 309.955456 85.292859 
L 320.54731 85.052052 
L 331.220328 84.783259 
L 342.400619 84.176704 
L 353.702656 83.539037 
L 363.837965 83.690858 
L 374.754474 83.351136 
L 379.705456 86.546608 
L 388.410256 86.942648 
" clip-path="url(#p8bf3b439e2)" style="fill: none; stroke: #1f77b4; stroke-width: 1.5; stroke-linecap: square"/>
   </g>
   <g id="line2d_26">
    <path d="M 84.046619 260.510625 
L 89.717928 183.374847 
L 94.648619 178.827296 
L 102.744692 154.180065 
L 115.720728 125.399775 
L 121.087674 134.116125 
L 133.586874 119.634246 
L 145.913601 109.706884 
L 159.599819 99.369863 
L 173.651274 90.635352 
L 180.428438 96.062141 
L 192.187019 92.769252 
L 204.726801 88.912198 
L 215.75491 87.636191 
L 228.913565 83.945769 
L 234.544292 89.318116 
L 248.047892 85.606969 
L 260.445637 83.456333 
L 272.995565 81.393386 
L 284.662838 80.344281 
L 298.146147 77.847632 
L 311.497565 75.696006 
L 322.545965 75.526572 
L 334.263965 74.874549 
L 346.164583 74.152411 
L 357.081092 74.154874 
L 362.864001 77.525097 
L 374.724038 76.810436 
L 385.72171 76.821678 
L 388.410256 77.05885 
" clip-path="url(#p8bf3b439e2)" style="fill: none; stroke: #ff7f0e; stroke-width: 1.5; stroke-linecap: square"/>
   </g>
   <g id="line2d_27">
    <path d="M 84.046619 260.510625 
L 93.238401 103.80178 
L 106.27531 70.884522 
L 117.628074 69.510145 
L 130.807019 61.034628 
L 142.697492 60.36913 
L 156.627201 54.10513 
L 170.262692 50.356689 
L 184.182256 46.925871 
L 197.56411 45.288886 
L 210.073456 45.472329 
L 223.262547 44.559784 
L 237.435747 42.402468 
L 250.208874 42.415601 
L 263.022583 42.376146 
L 274.892765 43.41297 
L 285.910728 45.48967 
L 293.905347 49.865695 
L 307.916219 48.286185 
L 320.811092 47.873939 
L 333.016074 48.094238 
L 345.261638 48.259374 
L 357.48691 48.428546 
L 369.752765 48.54587 
L 381.582365 48.967395 
L 388.410256 49.379463 
" clip-path="url(#p8bf3b439e2)" style="fill: none; stroke: #2ca02c; stroke-width: 1.5; stroke-linecap: square"/>
   </g>
   <g id="line2d_28">
    <path d="M 84.046619 260.510625 
L 93.228256 105.941227 
L 106.021674 73.092501 
L 119.647019 58.06341 
L 132.683928 53.05161 
L 139.30891 71.934571 
L 151.412438 68.940465 
L 166.011747 60.713886 
L 179.26171 57.427252 
L 192.714583 54.487712 
L 205.508001 53.282261 
L 217.226001 53.917165 
L 230.770183 51.870644 
L 243.76651 50.862724 
L 256.894728 49.847096 
L 269.738874 49.298225 
L 279.072692 55.197221 
L 288.710874 55.083899 
L 302.772474 53.163837 
L 315.07891 53.021055 
L 327.476656 52.822553 
L 338.423601 53.817169 
L 350.770619 53.633093 
L 361.849456 54.405504 
L 374.013856 54.349954 
L 384.788328 55.240788 
L 388.410256 55.47811 
" clip-path="url(#p8bf3b439e2)" style="fill: none; stroke: #d62728; stroke-width: 1.5; stroke-linecap: square"/>
   </g>
   <g id="line2d_29">
    <path d="M 84.046619 260.510625 
L 88.561347 183.536848 
L 95.612437 161.888133 
L 103.343274 150.775304 
L 112.666947 138.42094 
L 123.066037 127.364053 
L 133.607165 119.573143 
L 144.696147 112.676954 
L 150.864583 118.000985 
L 164.19571 108.555145 
L 177.597856 100.881885 
L 190.705783 95.058682 
L 201.865783 92.980844 
L 214.547601 89.219358 
L 228.507747 84.440777 
L 241.838874 81.014883 
L 255.535237 77.622901 
L 268.947528 74.925935 
L 282.735201 72.16242 
L 297.55771 68.762916 
L 312.268619 65.798385 
L 325.386692 64.407905 
L 338.555492 63.113752 
L 350.983674 62.473542 
L 363.330692 61.948191 
L 376.824147 60.675692 
L 388.410256 59.88827 
" clip-path="url(#p8bf3b439e2)" style="fill: none; stroke: #9467bd; stroke-width: 1.5; stroke-linecap: square"/>
   </g>
   <g id="line2d_30">
    <path d="M 84.046619 260.510625 
L 87.425056 202.879451 
L 98.098074 140.675307 
L 111.256728 105.769196 
L 124.374801 88.474935 
L 137.462437 78.218711 
L 149.35291 74.787575 
L 163.850765 65.987233 
L 177.110874 62.012516 
L 190.817383 58.089381 
L 204.402147 55.150328 
L 217.570947 53.381368 
L 231.064401 51.568216 
L 245.978219 47.96171 
L 259.644147 46.496379 
L 273.492692 45.005573 
L 287.939819 43.071724 
L 303.24931 40.485721 
L 317.838474 38.878352 
L 324.686656 44.398967 
L 337.967056 43.873989 
L 350.689456 43.852943 
L 364.243783 43.184887 
L 378.02131 42.41334 
L 388.410256 42.174373 
" clip-path="url(#p8bf3b439e2)" style="fill: none; stroke: #8c564b; stroke-width: 1.5; stroke-linecap: square"/>
   </g>
   <g id="line2d_31">
    <path d="M 84.046619 260.510625 
L 94.141347 88.425875 
L 106.133274 72.21039 
L 119.799201 57.161275 
L 132.825965 52.4329 
L 144.614983 53.83228 
L 151.239965 69.430528 
L 163.465238 67.082205 
L 172.839637 71.119149 
L 186.799783 65.704284 
L 200.323674 62.106181 
L 213.472183 59.760038 
L 227.635238 56.332307 
L 241.493928 53.846762 
L 255.525092 51.513239 
L 268.09531 51.157467 
L 282.278656 49.106248 
L 297.435965 46.323239 
L 312.441092 44.001663 
L 326.411383 42.845067 
L 338.717819 43.230417 
L 352.343165 42.501963 
L 366.059819 41.777408 
L 379.725747 41.148783 
L 388.410256 41.015928 
" clip-path="url(#p8bf3b439e2)" style="fill: none; stroke: #e377c2; stroke-width: 1.5; stroke-linecap: square"/>
   </g>
   <g id="line2d_32">
    <path d="M 84.046619 260.510625 
L 94.039892 90.062955 
L 106.062256 72.714343 
L 119.738328 57.526582 
L 132.795528 52.576253 
L 145.517928 50.734984 
L 158.686728 48.247694 
L 172.504838 44.984071 
L 186.262074 42.49393 
L 199.897565 40.866558 
L 212.031528 42.12256 
L 226.164147 40.062527 
L 241.240292 36.989851 
L 254.378656 36.936033 
L 267.87211 36.468083 
L 282.04531 35.271712 
L 294.76771 35.786081 
L 310.006183 33.710625 
L 321.906801 39.105993 
L 330.997128 38.726027 
L 343.53691 39.123139 
L 357.111528 38.637397 
L 370.807892 38.093496 
L 384.534692 37.579323 
L 388.410256 37.668804 
" clip-path="url(#p8bf3b439e2)" style="fill: none; stroke: #7f7f7f; stroke-width: 1.5; stroke-linecap: square"/>
   </g>
   <g id="patch_3">
    <path d="M 68.828437 271.850625 
L 68.828437 22.370625 
" style="fill: none; stroke: #000000; stroke-width: 0.8; stroke-linejoin: miter; stroke-linecap: square"/>
   </g>
   <g id="patch_4">
    <path d="M 403.628438 271.850625 
L 403.628438 22.370625 
" style="fill: none; stroke: #000000; stroke-width: 0.8; stroke-linejoin: miter; stroke-linecap: square"/>
   </g>
   <g id="patch_5">
    <path d="M 68.828437 271.850625 
L 403.628438 271.850625 
" style="fill: none; stroke: #000000; stroke-width: 0.8; stroke-linejoin: miter; stroke-linecap: square"/>
   </g>
   <g id="patch_6">
    <path d="M 68.828437 22.370625 
L 403.628438 22.370625 
" style="fill: none; stroke: #000000; stroke-width: 0.8; stroke-linejoin: miter; stroke-linecap: square"/>
   </g>
   <g id="text_15">
    <!-- Full prefetch, readahead 2, 3.8 GHz, sata | vary thread count and avail. RAM -->
    <g transform="translate(7.2 16.370625)scale(0.12 -0.12)">
     <defs>
      <path id="DejaVuSans-46" d="M 628 4666 
L 3309 4666 
L 3309 4134 
L 1259 4134 
L 1259 2759 
L 3109 2759 
L 3109 2228 
L 1259 2228 
L 1259 0 
L 628 0 
L 628 4666 
z
" transform="scale(0.015625)"/>
      <path id="DejaVuSans-75" d="M 544 1381 
L 544 3500 
L 1119 3500 
L 1119 1403 
Q 1119 906 1312 657 
Q 1506 409 1894 409 
Q 2359 409 2629 706 
Q 2900 1003 2900 1516 
L 2900 3500 
L 3475 3500 
L 3475 0 
L 2900 0 
L 2900 538 
Q 2691 219 2414 64 
Q 2138 -91 1772 -91 
Q 1169 -91 856 284 
Q 544 659 544 1381 
z
M 1991 3584 
L 1991 3584 
z
" transform="scale(0.015625)"/>
      <path id="DejaVuSans-70" d="M 1159 525 
L 1159 -1331 
L 581 -1331 
L 581 3500 
L 1159 3500 
L 1159 2969 
Q 1341 3281 1617 3432 
Q 1894 3584 2278 3584 
Q 2916 3584 3314 3078 
Q 3713 2572 3713 1747 
Q 3713 922 3314 415 
Q 2916 -91 2278 -91 
Q 1894 -91 1617 61 
Q 1341 213 1159 525 
z
M 3116 1747 
Q 3116 2381 2855 2742 
Q 2594 3103 2138 3103 
Q 1681 3103 1420 2742 
Q 1159 2381 1159 1747 
Q 1159 1113 1420 752 
Q 1681 391 2138 391 
Q 2594 391 2855 752 
Q 3116 1113 3116 1747 
z
" transform="scale(0.015625)"/>
      <path id="DejaVuSans-72" d="M 2631 2963 
Q 2534 3019 2420 3045 
Q 2306 3072 2169 3072 
Q 1681 3072 1420 2755 
Q 1159 2438 1159 1844 
L 1159 0 
L 581 0 
L 581 3500 
L 1159 3500 
L 1159 2956 
Q 1341 3275 1631 3429 
Q 1922 3584 2338 3584 
Q 2397 3584 2469 3576 
Q 2541 3569 2628 3553 
L 2631 2963 
z
" transform="scale(0.015625)"/>
      <path id="DejaVuSans-66" d="M 2375 4863 
L 2375 4384 
L 1825 4384 
Q 1516 4384 1395 4259 
Q 1275 4134 1275 3809 
L 1275 3500 
L 2222 3500 
L 2222 3053 
L 1275 3053 
L 1275 0 
L 697 0 
L 697 3053 
L 147 3053 
L 147 3500 
L 697 3500 
L 697 3744 
Q 697 4328 969 4595 
Q 1241 4863 1831 4863 
L 2375 4863 
z
" transform="scale(0.015625)"/>
      <path id="DejaVuSans-74" d="M 1172 4494 
L 1172 3500 
L 2356 3500 
L 2356 3053 
L 1172 3053 
L 1172 1153 
Q 1172 725 1289 603 
Q 1406 481 1766 481 
L 2356 481 
L 2356 0 
L 1766 0 
Q 1100 0 847 248 
Q 594 497 594 1153 
L 594 3053 
L 172 3053 
L 172 3500 
L 594 3500 
L 594 4494 
L 1172 4494 
z
" transform="scale(0.015625)"/>
      <path id="DejaVuSans-68" d="M 3513 2113 
L 3513 0 
L 2938 0 
L 2938 2094 
Q 2938 2591 2744 2837 
Q 2550 3084 2163 3084 
Q 1697 3084 1428 2787 
Q 1159 2491 1159 1978 
L 1159 0 
L 581 0 
L 581 4863 
L 1159 4863 
L 1159 2956 
Q 1366 3272 1645 3428 
Q 1925 3584 2291 3584 
Q 2894 3584 3203 3211 
Q 3513 2838 3513 2113 
z
" transform="scale(0.015625)"/>
      <path id="DejaVuSans-2c" d="M 750 794 
L 1409 794 
L 1409 256 
L 897 -744 
L 494 -744 
L 750 256 
L 750 794 
z
" transform="scale(0.015625)"/>
      <path id="DejaVuSans-61" d="M 2194 1759 
Q 1497 1759 1228 1600 
Q 959 1441 959 1056 
Q 959 750 1161 570 
Q 1363 391 1709 391 
Q 2188 391 2477 730 
Q 2766 1069 2766 1631 
L 2766 1759 
L 2194 1759 
z
M 3341 1997 
L 3341 0 
L 2766 0 
L 2766 531 
Q 2569 213 2275 61 
Q 1981 -91 1556 -91 
Q 1019 -91 701 211 
Q 384 513 384 1019 
Q 384 1609 779 1909 
Q 1175 2209 1959 2209 
L 2766 2209 
L 2766 2266 
Q 2766 2663 2505 2880 
Q 2244 3097 1772 3097 
Q 1472 3097 1187 3025 
Q 903 2953 641 2809 
L 641 3341 
Q 956 3463 1253 3523 
Q 1550 3584 1831 3584 
Q 2591 3584 2966 3190 
Q 3341 2797 3341 1997 
z
" transform="scale(0.015625)"/>
      <path id="DejaVuSans-38" d="M 2034 2216 
Q 1584 2216 1326 1975 
Q 1069 1734 1069 1313 
Q 1069 891 1326 650 
Q 1584 409 2034 409 
Q 2484 409 2743 651 
Q 3003 894 3003 1313 
Q 3003 1734 2745 1975 
Q 2488 2216 2034 2216 
z
M 1403 2484 
Q 997 2584 770 2862 
Q 544 3141 544 3541 
Q 544 4100 942 4425 
Q 1341 4750 2034 4750 
Q 2731 4750 3128 4425 
Q 3525 4100 3525 3541 
Q 3525 3141 3298 2862 
Q 3072 2584 2669 2484 
Q 3125 2378 3379 2068 
Q 3634 1759 3634 1313 
Q 3634 634 3220 271 
Q 2806 -91 2034 -91 
Q 1263 -91 848 271 
Q 434 634 434 1313 
Q 434 1759 690 2068 
Q 947 2378 1403 2484 
z
M 1172 3481 
Q 1172 3119 1398 2916 
Q 1625 2713 2034 2713 
Q 2441 2713 2670 2916 
Q 2900 3119 2900 3481 
Q 2900 3844 2670 4047 
Q 2441 4250 2034 4250 
Q 1625 4250 1398 4047 
Q 1172 3844 1172 3481 
z
" transform="scale(0.015625)"/>
      <path id="DejaVuSans-47" d="M 3809 666 
L 3809 1919 
L 2778 1919 
L 2778 2438 
L 4434 2438 
L 4434 434 
Q 4069 175 3628 42 
Q 3188 -91 2688 -91 
Q 1594 -91 976 548 
Q 359 1188 359 2328 
Q 359 3472 976 4111 
Q 1594 4750 2688 4750 
Q 3144 4750 3555 4637 
Q 3966 4525 4313 4306 
L 4313 3634 
Q 3963 3931 3569 4081 
Q 3175 4231 2741 4231 
Q 1884 4231 1454 3753 
Q 1025 3275 1025 2328 
Q 1025 1384 1454 906 
Q 1884 428 2741 428 
Q 3075 428 3337 486 
Q 3600 544 3809 666 
z
" transform="scale(0.015625)"/>
      <path id="DejaVuSans-48" d="M 628 4666 
L 1259 4666 
L 1259 2753 
L 3553 2753 
L 3553 4666 
L 4184 4666 
L 4184 0 
L 3553 0 
L 3553 2222 
L 1259 2222 
L 1259 0 
L 628 0 
L 628 4666 
z
" transform="scale(0.015625)"/>
      <path id="DejaVuSans-7a" d="M 353 3500 
L 3084 3500 
L 3084 2975 
L 922 459 
L 3084 459 
L 3084 0 
L 275 0 
L 275 525 
L 2438 3041 
L 353 3041 
L 353 3500 
z
" transform="scale(0.015625)"/>
      <path id="DejaVuSans-7c" d="M 1344 4891 
L 1344 -1509 
L 813 -1509 
L 813 4891 
L 1344 4891 
z
" transform="scale(0.015625)"/>
      <path id="DejaVuSans-76" d="M 191 3500 
L 800 3500 
L 1894 563 
L 2988 3500 
L 3597 3500 
L 2284 0 
L 1503 0 
L 191 3500 
z
" transform="scale(0.015625)"/>
      <path id="DejaVuSans-79" d="M 2059 -325 
Q 1816 -950 1584 -1140 
Q 1353 -1331 966 -1331 
L 506 -1331 
L 506 -850 
L 844 -850 
Q 1081 -850 1212 -737 
Q 1344 -625 1503 -206 
L 1606 56 
L 191 3500 
L 800 3500 
L 1894 763 
L 2988 3500 
L 3597 3500 
L 2059 -325 
z
" transform="scale(0.015625)"/>
      <path id="DejaVuSans-69" d="M 603 3500 
L 1178 3500 
L 1178 0 
L 603 0 
L 603 3500 
z
M 603 4863 
L 1178 4863 
L 1178 4134 
L 603 4134 
L 603 4863 
z
" transform="scale(0.015625)"/>
      <path id="DejaVuSans-52" d="M 2841 2188 
Q 3044 2119 3236 1894 
Q 3428 1669 3622 1275 
L 4263 0 
L 3584 0 
L 2988 1197 
Q 2756 1666 2539 1819 
Q 2322 1972 1947 1972 
L 1259 1972 
L 1259 0 
L 628 0 
L 628 4666 
L 2053 4666 
Q 2853 4666 3247 4331 
Q 3641 3997 3641 3322 
Q 3641 2881 3436 2590 
Q 3231 2300 2841 2188 
z
M 1259 4147 
L 1259 2491 
L 2053 2491 
Q 2509 2491 2742 2702 
Q 2975 2913 2975 3322 
Q 2975 3731 2742 3939 
Q 2509 4147 2053 4147 
L 1259 4147 
z
" transform="scale(0.015625)"/>
      <path id="DejaVuSans-41" d="M 2188 4044 
L 1331 1722 
L 3047 1722 
L 2188 4044 
z
M 1831 4666 
L 2547 4666 
L 4325 0 
L 3669 0 
L 3244 1197 
L 1141 1197 
L 716 0 
L 50 0 
L 1831 4666 
z
" transform="scale(0.015625)"/>
     </defs>
     <use xlink:href="#DejaVuSans-46"/>
     <use xlink:href="#DejaVuSans-75" x="52.019531"/>
     <use xlink:href="#DejaVuSans-6c" x="115.398438"/>
     <use xlink:href="#DejaVuSans-6c" x="143.181641"/>
     <use xlink:href="#DejaVuSans-20" x="170.964844"/>
     <use xlink:href="#DejaVuSans-70" x="202.751953"/>
     <use xlink:href="#DejaVuSans-72" x="266.228516"/>
     <use xlink:href="#DejaVuSans-65" x="305.091797"/>
     <use xlink:href="#DejaVuSans-66" x="366.615234"/>
     <use xlink:href="#DejaVuSans-65" x="401.820312"/>
     <use xlink:href="#DejaVuSans-74" x="463.34375"/>
     <use xlink:href="#DejaVuSans-63" x="502.552734"/>
     <use xlink:href="#DejaVuSans-68" x="557.533203"/>
     <use xlink:href="#DejaVuSans-2c" x="620.912109"/>
     <use xlink:href="#DejaVuSans-20" x="652.699219"/>
     <use xlink:href="#DejaVuSans-72" x="684.486328"/>
     <use xlink:href="#DejaVuSans-65" x="723.349609"/>
     <use xlink:href="#DejaVuSans-61" x="784.873047"/>
     <use xlink:href="#DejaVuSans-64" x="846.152344"/>
     <use xlink:href="#DejaVuSans-61" x="909.628906"/>
     <use xlink:href="#DejaVuSans-68" x="970.908203"/>
     <use xlink:href="#DejaVuSans-65" x="1034.287109"/>
     <use xlink:href="#DejaVuSans-61" x="1095.810547"/>
     <use xlink:href="#DejaVuSans-64" x="1157.089844"/>
     <use xlink:href="#DejaVuSans-20" x="1220.566406"/>
     <use xlink:href="#DejaVuSans-32" x="1252.353516"/>
     <use xlink:href="#DejaVuSans-2c" x="1315.976562"/>
     <use xlink:href="#DejaVuSans-20" x="1347.763672"/>
     <use xlink:href="#DejaVuSans-33" x="1379.550781"/>
     <use xlink:href="#DejaVuSans-2e" x="1443.173828"/>
     <use xlink:href="#DejaVuSans-38" x="1474.960938"/>
     <use xlink:href="#DejaVuSans-20" x="1538.583984"/>
     <use xlink:href="#DejaVuSans-47" x="1570.371094"/>
     <use xlink:href="#DejaVuSans-48" x="1647.861328"/>
     <use xlink:href="#DejaVuSans-7a" x="1723.056641"/>
     <use xlink:href="#DejaVuSans-2c" x="1775.546875"/>
     <use xlink:href="#DejaVuSans-20" x="1807.333984"/>
     <use xlink:href="#DejaVuSans-73" x="1839.121094"/>
     <use xlink:href="#DejaVuSans-61" x="1891.220703"/>
     <use xlink:href="#DejaVuSans-74" x="1952.5"/>
     <use xlink:href="#DejaVuSans-61" x="1991.708984"/>
     <use xlink:href="#DejaVuSans-20" x="2052.988281"/>
     <use xlink:href="#DejaVuSans-7c" x="2084.775391"/>
     <use xlink:href="#DejaVuSans-20" x="2118.466797"/>
     <use xlink:href="#DejaVuSans-76" x="2150.253906"/>
     <use xlink:href="#DejaVuSans-61" x="2209.433594"/>
     <use xlink:href="#DejaVuSans-72" x="2270.712891"/>
     <use xlink:href="#DejaVuSans-79" x="2311.826172"/>
     <use xlink:href="#DejaVuSans-20" x="2371.005859"/>
     <use xlink:href="#DejaVuSans-74" x="2402.792969"/>
     <use xlink:href="#DejaVuSans-68" x="2442.001953"/>
     <use xlink:href="#DejaVuSans-72" x="2505.380859"/>
     <use xlink:href="#DejaVuSans-65" x="2544.244141"/>
     <use xlink:href="#DejaVuSans-61" x="2605.767578"/>
     <use xlink:href="#DejaVuSans-64" x="2667.046875"/>
     <use xlink:href="#DejaVuSans-20" x="2730.523438"/>
     <use xlink:href="#DejaVuSans-63" x="2762.310547"/>
     <use xlink:href="#DejaVuSans-6f" x="2817.291016"/>
     <use xlink:href="#DejaVuSans-75" x="2878.472656"/>
     <use xlink:href="#DejaVuSans-6e" x="2941.851562"/>
     <use xlink:href="#DejaVuSans-74" x="3005.230469"/>
     <use xlink:href="#DejaVuSans-20" x="3044.439453"/>
     <use xlink:href="#DejaVuSans-61" x="3076.226562"/>
     <use xlink:href="#DejaVuSans-6e" x="3137.505859"/>
     <use xlink:href="#DejaVuSans-64" x="3200.884766"/>
     <use xlink:href="#DejaVuSans-20" x="3264.361328"/>
     <use xlink:href="#DejaVuSans-61" x="3296.148438"/>
     <use xlink:href="#DejaVuSans-76" x="3357.427734"/>
     <use xlink:href="#DejaVuSans-61" x="3416.607422"/>
     <use xlink:href="#DejaVuSans-69" x="3477.886719"/>
     <use xlink:href="#DejaVuSans-6c" x="3505.669922"/>
     <use xlink:href="#DejaVuSans-2e" x="3533.453125"/>
     <use xlink:href="#DejaVuSans-20" x="3565.240234"/>
     <use xlink:href="#DejaVuSans-52" x="3597.027344"/>
     <use xlink:href="#DejaVuSans-41" x="3662.509766"/>
     <use xlink:href="#DejaVuSans-4d" x="3730.917969"/>
    </g>
   </g>
   <g id="legend_1">
    <g id="line2d_33">
     <path d="M 412.628438 35.469062 
L 422.628438 35.469062 
L 432.628438 35.469062 
" style="fill: none; stroke: #1f77b4; stroke-width: 1.5; stroke-linecap: square"/>
    </g>
    <g id="text_16">
     <!-- 1 thread, 8 GiB -->
     <g transform="translate(440.628438 38.969062)scale(0.1 -0.1)">
      <use xlink:href="#DejaVuSans-31"/>
      <use xlink:href="#DejaVuSans-20" x="63.623047"/>
      <use xlink:href="#DejaVuSans-74" x="95.410156"/>
      <use xlink:href="#DejaVuSans-68" x="134.619141"/>
      <use xlink:href="#DejaVuSans-72" x="197.998047"/>
      <use xlink:href="#DejaVuSans-65" x="236.861328"/>
      <use xlink:href="#DejaVuSans-61" x="298.384766"/>
      <use xlink:href="#DejaVuSans-64" x="359.664062"/>
      <use xlink:href="#DejaVuSans-2c" x="423.140625"/>
      <use xlink:href="#DejaVuSans-20" x="454.927734"/>
      <use xlink:href="#DejaVuSans-38" x="486.714844"/>
      <use xlink:href="#DejaVuSans-20" x="550.337891"/>
      <use xlink:href="#DejaVuSans-47" x="582.125"/>
      <use xlink:href="#DejaVuSans-69" x="659.615234"/>
      <use xlink:href="#DejaVuSans-42" x="687.398438"/>
     </g>
    </g>
    <g id="line2d_34">
     <path d="M 412.628438 50.147187 
L 422.628438 50.147187 
L 432.628438 50.147187 
" style="fill: none; stroke: #ff7f0e; stroke-width: 1.5; stroke-linecap: square"/>
    </g>
    <g id="text_17">
     <!-- 2 threads, 8 GiB -->
     <g transform="translate(440.628438 53.647187)scale(0.1 -0.1)">
      <use xlink:href="#DejaVuSans-32"/>
      <use xlink:href="#DejaVuSans-20" x="63.623047"/>
      <use xlink:href="#DejaVuSans-74" x="95.410156"/>
      <use xlink:href="#DejaVuSans-68" x="134.619141"/>
      <use xlink:href="#DejaVuSans-72" x="197.998047"/>
      <use xlink:href="#DejaVuSans-65" x="236.861328"/>
      <use xlink:href="#DejaVuSans-61" x="298.384766"/>
      <use xlink:href="#DejaVuSans-64" x="359.664062"/>
      <use xlink:href="#DejaVuSans-73" x="423.140625"/>
      <use xlink:href="#DejaVuSans-2c" x="475.240234"/>
      <use xlink:href="#DejaVuSans-20" x="507.027344"/>
      <use xlink:href="#DejaVuSans-38" x="538.814453"/>
      <use xlink:href="#DejaVuSans-20" x="602.4375"/>
      <use xlink:href="#DejaVuSans-47" x="634.224609"/>
      <use xlink:href="#DejaVuSans-69" x="711.714844"/>
      <use xlink:href="#DejaVuSans-42" x="739.498047"/>
     </g>
    </g>
    <g id="line2d_35">
     <path d="M 412.628438 64.825312 
L 422.628438 64.825312 
L 432.628438 64.825312 
" style="fill: none; stroke: #2ca02c; stroke-width: 1.5; stroke-linecap: square"/>
    </g>
    <g id="text_18">
     <!-- 4 threads, 8 GiB -->
     <g transform="translate(440.628438 68.325312)scale(0.1 -0.1)">
      <use xlink:href="#DejaVuSans-34"/>
      <use xlink:href="#DejaVuSans-20" x="63.623047"/>
      <use xlink:href="#DejaVuSans-74" x="95.410156"/>
      <use xlink:href="#DejaVuSans-68" x="134.619141"/>
      <use xlink:href="#DejaVuSans-72" x="197.998047"/>
      <use xlink:href="#DejaVuSans-65" x="236.861328"/>
      <use xlink:href="#DejaVuSans-61" x="298.384766"/>
      <use xlink:href="#DejaVuSans-64" x="359.664062"/>
      <use xlink:href="#DejaVuSans-73" x="423.140625"/>
      <use xlink:href="#DejaVuSans-2c" x="475.240234"/>
      <use xlink:href="#DejaVuSans-20" x="507.027344"/>
      <use xlink:href="#DejaVuSans-38" x="538.814453"/>
      <use xlink:href="#DejaVuSans-20" x="602.4375"/>
      <use xlink:href="#DejaVuSans-47" x="634.224609"/>
      <use xlink:href="#DejaVuSans-69" x="711.714844"/>
      <use xlink:href="#DejaVuSans-42" x="739.498047"/>
     </g>
    </g>
    <g id="line2d_36">
     <path d="M 412.628438 79.503437 
L 422.628438 79.503437 
L 432.628438 79.503437 
" style="fill: none; stroke: #d62728; stroke-width: 1.5; stroke-linecap: square"/>
    </g>
    <g id="text_19">
     <!-- 8 threads, 8 GiB -->
     <g transform="translate(440.628438 83.003437)scale(0.1 -0.1)">
      <use xlink:href="#DejaVuSans-38"/>
      <use xlink:href="#DejaVuSans-20" x="63.623047"/>
      <use xlink:href="#DejaVuSans-74" x="95.410156"/>
      <use xlink:href="#DejaVuSans-68" x="134.619141"/>
      <use xlink:href="#DejaVuSans-72" x="197.998047"/>
      <use xlink:href="#DejaVuSans-65" x="236.861328"/>
      <use xlink:href="#DejaVuSans-61" x="298.384766"/>
      <use xlink:href="#DejaVuSans-64" x="359.664062"/>
      <use xlink:href="#DejaVuSans-73" x="423.140625"/>
      <use xlink:href="#DejaVuSans-2c" x="475.240234"/>
      <use xlink:href="#DejaVuSans-20" x="507.027344"/>
      <use xlink:href="#DejaVuSans-38" x="538.814453"/>
      <use xlink:href="#DejaVuSans-20" x="602.4375"/>
      <use xlink:href="#DejaVuSans-47" x="634.224609"/>
      <use xlink:href="#DejaVuSans-69" x="711.714844"/>
      <use xlink:href="#DejaVuSans-42" x="739.498047"/>
     </g>
    </g>
    <g id="line2d_37">
     <path d="M 412.628438 94.181562 
L 422.628438 94.181562 
L 432.628438 94.181562 
" style="fill: none; stroke: #9467bd; stroke-width: 1.5; stroke-linecap: square"/>
    </g>
    <g id="text_20">
     <!-- 1 thread, 16 GiB -->
     <g transform="translate(440.628438 97.681562)scale(0.1 -0.1)">
      <defs>
       <path id="DejaVuSans-36" d="M 2113 2584 
Q 1688 2584 1439 2293 
Q 1191 2003 1191 1497 
Q 1191 994 1439 701 
Q 1688 409 2113 409 
Q 2538 409 2786 701 
Q 3034 994 3034 1497 
Q 3034 2003 2786 2293 
Q 2538 2584 2113 2584 
z
M 3366 4563 
L 3366 3988 
Q 3128 4100 2886 4159 
Q 2644 4219 2406 4219 
Q 1781 4219 1451 3797 
Q 1122 3375 1075 2522 
Q 1259 2794 1537 2939 
Q 1816 3084 2150 3084 
Q 2853 3084 3261 2657 
Q 3669 2231 3669 1497 
Q 3669 778 3244 343 
Q 2819 -91 2113 -91 
Q 1303 -91 875 529 
Q 447 1150 447 2328 
Q 447 3434 972 4092 
Q 1497 4750 2381 4750 
Q 2619 4750 2861 4703 
Q 3103 4656 3366 4563 
z
" transform="scale(0.015625)"/>
      </defs>
      <use xlink:href="#DejaVuSans-31"/>
      <use xlink:href="#DejaVuSans-20" x="63.623047"/>
      <use xlink:href="#DejaVuSans-74" x="95.410156"/>
      <use xlink:href="#DejaVuSans-68" x="134.619141"/>
      <use xlink:href="#DejaVuSans-72" x="197.998047"/>
      <use xlink:href="#DejaVuSans-65" x="236.861328"/>
      <use xlink:href="#DejaVuSans-61" x="298.384766"/>
      <use xlink:href="#DejaVuSans-64" x="359.664062"/>
      <use xlink:href="#DejaVuSans-2c" x="423.140625"/>
      <use xlink:href="#DejaVuSans-20" x="454.927734"/>
      <use xlink:href="#DejaVuSans-31" x="486.714844"/>
      <use xlink:href="#DejaVuSans-36" x="550.337891"/>
      <use xlink:href="#DejaVuSans-20" x="613.960938"/>
      <use xlink:href="#DejaVuSans-47" x="645.748047"/>
      <use xlink:href="#DejaVuSans-69" x="723.238281"/>
      <use xlink:href="#DejaVuSans-42" x="751.021484"/>
     </g>
    </g>
    <g id="line2d_38">
     <path d="M 412.628438 108.859687 
L 422.628438 108.859687 
L 432.628438 108.859687 
" style="fill: none; stroke: #8c564b; stroke-width: 1.5; stroke-linecap: square"/>
    </g>
    <g id="text_21">
     <!-- 2 threads, 16 GiB -->
     <g transform="translate(440.628438 112.359687)scale(0.1 -0.1)">
      <use xlink:href="#DejaVuSans-32"/>
      <use xlink:href="#DejaVuSans-20" x="63.623047"/>
      <use xlink:href="#DejaVuSans-74" x="95.410156"/>
      <use xlink:href="#DejaVuSans-68" x="134.619141"/>
      <use xlink:href="#DejaVuSans-72" x="197.998047"/>
      <use xlink:href="#DejaVuSans-65" x="236.861328"/>
      <use xlink:href="#DejaVuSans-61" x="298.384766"/>
      <use xlink:href="#DejaVuSans-64" x="359.664062"/>
      <use xlink:href="#DejaVuSans-73" x="423.140625"/>
      <use xlink:href="#DejaVuSans-2c" x="475.240234"/>
      <use xlink:href="#DejaVuSans-20" x="507.027344"/>
      <use xlink:href="#DejaVuSans-31" x="538.814453"/>
      <use xlink:href="#DejaVuSans-36" x="602.4375"/>
      <use xlink:href="#DejaVuSans-20" x="666.060547"/>
      <use xlink:href="#DejaVuSans-47" x="697.847656"/>
      <use xlink:href="#DejaVuSans-69" x="775.337891"/>
      <use xlink:href="#DejaVuSans-42" x="803.121094"/>
     </g>
    </g>
    <g id="line2d_39">
     <path d="M 412.628438 123.537812 
L 422.628438 123.537812 
L 432.628438 123.537812 
" style="fill: none; stroke: #e377c2; stroke-width: 1.5; stroke-linecap: square"/>
    </g>
    <g id="text_22">
     <!-- 4 threads, 16 GiB -->
     <g transform="translate(440.628438 127.037812)scale(0.1 -0.1)">
      <use xlink:href="#DejaVuSans-34"/>
      <use xlink:href="#DejaVuSans-20" x="63.623047"/>
      <use xlink:href="#DejaVuSans-74" x="95.410156"/>
      <use xlink:href="#DejaVuSans-68" x="134.619141"/>
      <use xlink:href="#DejaVuSans-72" x="197.998047"/>
      <use xlink:href="#DejaVuSans-65" x="236.861328"/>
      <use xlink:href="#DejaVuSans-61" x="298.384766"/>
      <use xlink:href="#DejaVuSans-64" x="359.664062"/>
      <use xlink:href="#DejaVuSans-73" x="423.140625"/>
      <use xlink:href="#DejaVuSans-2c" x="475.240234"/>
      <use xlink:href="#DejaVuSans-20" x="507.027344"/>
      <use xlink:href="#DejaVuSans-31" x="538.814453"/>
      <use xlink:href="#DejaVuSans-36" x="602.4375"/>
      <use xlink:href="#DejaVuSans-20" x="666.060547"/>
      <use xlink:href="#DejaVuSans-47" x="697.847656"/>
      <use xlink:href="#DejaVuSans-69" x="775.337891"/>
      <use xlink:href="#DejaVuSans-42" x="803.121094"/>
     </g>
    </g>
    <g id="line2d_40">
     <path d="M 412.628438 138.215937 
L 422.628438 138.215937 
L 432.628438 138.215937 
" style="fill: none; stroke: #7f7f7f; stroke-width: 1.5; stroke-linecap: square"/>
    </g>
    <g id="text_23">
     <!-- 8 threads, 16 GiB -->
     <g transform="translate(440.628438 141.715937)scale(0.1 -0.1)">
      <use xlink:href="#DejaVuSans-38"/>
      <use xlink:href="#DejaVuSans-20" x="63.623047"/>
      <use xlink:href="#DejaVuSans-74" x="95.410156"/>
      <use xlink:href="#DejaVuSans-68" x="134.619141"/>
      <use xlink:href="#DejaVuSans-72" x="197.998047"/>
      <use xlink:href="#DejaVuSans-65" x="236.861328"/>
      <use xlink:href="#DejaVuSans-61" x="298.384766"/>
      <use xlink:href="#DejaVuSans-64" x="359.664062"/>
      <use xlink:href="#DejaVuSans-73" x="423.140625"/>
      <use xlink:href="#DejaVuSans-2c" x="475.240234"/>
      <use xlink:href="#DejaVuSans-20" x="507.027344"/>
      <use xlink:href="#DejaVuSans-31" x="538.814453"/>
      <use xlink:href="#DejaVuSans-36" x="602.4375"/>
      <use xlink:href="#DejaVuSans-20" x="666.060547"/>
      <use xlink:href="#DejaVuSans-47" x="697.847656"/>
      <use xlink:href="#DejaVuSans-69" x="775.337891"/>
      <use xlink:href="#DejaVuSans-42" x="803.121094"/>
     </g>
    </g>
   </g>
  </g>
 </g>
 <defs>
  <clipPath id="p8bf3b439e2">
   <rect x="68.828437" y="22.370625" width="334.8" height="249.48"/>
  </clipPath>
 </defs>
</svg>
