<?xml version="1.0" encoding="utf-8" standalone="no"?>
<!DOCTYPE svg PUBLIC "-//W3C//DTD SVG 1.1//EN"
  "http://www.w3.org/Graphics/SVG/1.1/DTD/svg11.dtd">
<svg xmlns:xlink="http://www.w3.org/1999/xlink" width="558.209375pt" height="316.455pt" viewBox="0 0 558.209375 316.455" xmlns="http://www.w3.org/2000/svg" version="1.1">
 <metadata>
  <rdf:RDF xmlns:dc="http://purl.org/dc/elements/1.1/" xmlns:cc="http://creativecommons.org/ns#" xmlns:rdf="http://www.w3.org/1999/02/22-rdf-syntax-ns#">
   <cc:Work>
    <dc:type rdf:resource="http://purl.org/dc/dcmitype/StillImage"/>
    <dc:date>2022-02-23T21:43:32.162124</dc:date>
    <dc:format>image/svg+xml</dc:format>
    <dc:creator>
     <cc:Agent>
      <dc:title>Matplotlib v3.5.1, https://matplotlib.org/</dc:title>
     </cc:Agent>
    </dc:creator>
   </cc:Work>
  </rdf:RDF>
 </metadata>
 <defs>
  <style type="text/css">*{stroke-linejoin: round; stroke-linecap: butt}</style>
 </defs>
 <g id="figure_1">
  <g id="patch_1">
   <path d="M 0 316.455 
L 558.209375 316.455 
L 558.209375 0 
L 0 0 
z
" style="fill: #ffffff"/>
  </g>
  <g id="axes_1">
   <g id="patch_2">
    <path d="M 51.815625 271.850625 
L 386.615625 271.850625 
L 386.615625 22.370625 
L 51.815625 22.370625 
z
" style="fill: #ffffff"/>
   </g>
   <g id="matplotlib.axis_1">
    <g id="xtick_1">
     <g id="line2d_1">
      <path d="M 67.033807 271.850625 
L 67.033807 22.370625 
" clip-path="url(#pfa62e48d25)" style="fill: none; stroke: #b0b0b0; stroke-width: 0.8; stroke-linecap: square"/>
     </g>
     <g id="line2d_2">
      <defs>
       <path id="mab3d98094d" d="M 0 0 
L 0 3.5 
" style="stroke: #000000; stroke-width: 0.8"/>
      </defs>
      <g>
       <use xlink:href="#mab3d98094d" x="67.033807" y="271.850625" style="stroke: #000000; stroke-width: 0.8"/>
      </g>
     </g>
     <g id="text_1">
      <!-- 0 -->
      <g transform="translate(63.852557 286.449062)scale(0.1 -0.1)">
       <defs>
        <path id="DejaVuSans-30" d="M 2034 4250 
Q 1547 4250 1301 3770 
Q 1056 3291 1056 2328 
Q 1056 1369 1301 889 
Q 1547 409 2034 409 
Q 2525 409 2770 889 
Q 3016 1369 3016 2328 
Q 3016 3291 2770 3770 
Q 2525 4250 2034 4250 
z
M 2034 4750 
Q 2819 4750 3233 4129 
Q 3647 3509 3647 2328 
Q 3647 1150 3233 529 
Q 2819 -91 2034 -91 
Q 1250 -91 836 529 
Q 422 1150 422 2328 
Q 422 3509 836 4129 
Q 1250 4750 2034 4750 
z
" transform="scale(0.015625)"/>
       </defs>
       <use xlink:href="#DejaVuSans-30"/>
      </g>
     </g>
    </g>
    <g id="xtick_2">
     <g id="line2d_3">
      <path d="M 117.76108 271.850625 
L 117.76108 22.370625 
" clip-path="url(#pfa62e48d25)" style="fill: none; stroke: #b0b0b0; stroke-width: 0.8; stroke-linecap: square"/>
     </g>
     <g id="line2d_4">
      <g>
       <use xlink:href="#mab3d98094d" x="117.76108" y="271.850625" style="stroke: #000000; stroke-width: 0.8"/>
      </g>
     </g>
     <g id="text_2">
      <!-- 5000 -->
      <g transform="translate(105.03608 286.449062)scale(0.1 -0.1)">
       <defs>
        <path id="DejaVuSans-35" d="M 691 4666 
L 3169 4666 
L 3169 4134 
L 1269 4134 
L 1269 2991 
Q 1406 3038 1543 3061 
Q 1681 3084 1819 3084 
Q 2600 3084 3056 2656 
Q 3513 2228 3513 1497 
Q 3513 744 3044 326 
Q 2575 -91 1722 -91 
Q 1428 -91 1123 -41 
Q 819 9 494 109 
L 494 744 
Q 775 591 1075 516 
Q 1375 441 1709 441 
Q 2250 441 2565 725 
Q 2881 1009 2881 1497 
Q 2881 1984 2565 2268 
Q 2250 2553 1709 2553 
Q 1456 2553 1204 2497 
Q 953 2441 691 2322 
L 691 4666 
z
" transform="scale(0.015625)"/>
       </defs>
       <use xlink:href="#DejaVuSans-35"/>
       <use xlink:href="#DejaVuSans-30" x="63.623047"/>
       <use xlink:href="#DejaVuSans-30" x="127.246094"/>
       <use xlink:href="#DejaVuSans-30" x="190.869141"/>
      </g>
     </g>
    </g>
    <g id="xtick_3">
     <g id="line2d_5">
      <path d="M 168.488352 271.850625 
L 168.488352 22.370625 
" clip-path="url(#pfa62e48d25)" style="fill: none; stroke: #b0b0b0; stroke-width: 0.8; stroke-linecap: square"/>
     </g>
     <g id="line2d_6">
      <g>
       <use xlink:href="#mab3d98094d" x="168.488352" y="271.850625" style="stroke: #000000; stroke-width: 0.8"/>
      </g>
     </g>
     <g id="text_3">
      <!-- 10000 -->
      <g transform="translate(152.582102 286.449062)scale(0.1 -0.1)">
       <defs>
        <path id="DejaVuSans-31" d="M 794 531 
L 1825 531 
L 1825 4091 
L 703 3866 
L 703 4441 
L 1819 4666 
L 2450 4666 
L 2450 531 
L 3481 531 
L 3481 0 
L 794 0 
L 794 531 
z
" transform="scale(0.015625)"/>
       </defs>
       <use xlink:href="#DejaVuSans-31"/>
       <use xlink:href="#DejaVuSans-30" x="63.623047"/>
       <use xlink:href="#DejaVuSans-30" x="127.246094"/>
       <use xlink:href="#DejaVuSans-30" x="190.869141"/>
       <use xlink:href="#DejaVuSans-30" x="254.492188"/>
      </g>
     </g>
    </g>
    <g id="xtick_4">
     <g id="line2d_7">
      <path d="M 219.215625 271.850625 
L 219.215625 22.370625 
" clip-path="url(#pfa62e48d25)" style="fill: none; stroke: #b0b0b0; stroke-width: 0.8; stroke-linecap: square"/>
     </g>
     <g id="line2d_8">
      <g>
       <use xlink:href="#mab3d98094d" x="219.215625" y="271.850625" style="stroke: #000000; stroke-width: 0.8"/>
      </g>
     </g>
     <g id="text_4">
      <!-- 15000 -->
      <g transform="translate(203.309375 286.449062)scale(0.1 -0.1)">
       <use xlink:href="#DejaVuSans-31"/>
       <use xlink:href="#DejaVuSans-35" x="63.623047"/>
       <use xlink:href="#DejaVuSans-30" x="127.246094"/>
       <use xlink:href="#DejaVuSans-30" x="190.869141"/>
       <use xlink:href="#DejaVuSans-30" x="254.492188"/>
      </g>
     </g>
    </g>
    <g id="xtick_5">
     <g id="line2d_9">
      <path d="M 269.942898 271.850625 
L 269.942898 22.370625 
" clip-path="url(#pfa62e48d25)" style="fill: none; stroke: #b0b0b0; stroke-width: 0.8; stroke-linecap: square"/>
     </g>
     <g id="line2d_10">
      <g>
       <use xlink:href="#mab3d98094d" x="269.942898" y="271.850625" style="stroke: #000000; stroke-width: 0.8"/>
      </g>
     </g>
     <g id="text_5">
      <!-- 20000 -->
      <g transform="translate(254.036648 286.449062)scale(0.1 -0.1)">
       <defs>
        <path id="DejaVuSans-32" d="M 1228 531 
L 3431 531 
L 3431 0 
L 469 0 
L 469 531 
Q 828 903 1448 1529 
Q 2069 2156 2228 2338 
Q 2531 2678 2651 2914 
Q 2772 3150 2772 3378 
Q 2772 3750 2511 3984 
Q 2250 4219 1831 4219 
Q 1534 4219 1204 4116 
Q 875 4013 500 3803 
L 500 4441 
Q 881 4594 1212 4672 
Q 1544 4750 1819 4750 
Q 2544 4750 2975 4387 
Q 3406 4025 3406 3419 
Q 3406 3131 3298 2873 
Q 3191 2616 2906 2266 
Q 2828 2175 2409 1742 
Q 1991 1309 1228 531 
z
" transform="scale(0.015625)"/>
       </defs>
       <use xlink:href="#DejaVuSans-32"/>
       <use xlink:href="#DejaVuSans-30" x="63.623047"/>
       <use xlink:href="#DejaVuSans-30" x="127.246094"/>
       <use xlink:href="#DejaVuSans-30" x="190.869141"/>
       <use xlink:href="#DejaVuSans-30" x="254.492188"/>
      </g>
     </g>
    </g>
    <g id="xtick_6">
     <g id="line2d_11">
      <path d="M 320.67017 271.850625 
L 320.67017 22.370625 
" clip-path="url(#pfa62e48d25)" style="fill: none; stroke: #b0b0b0; stroke-width: 0.8; stroke-linecap: square"/>
     </g>
     <g id="line2d_12">
      <g>
       <use xlink:href="#mab3d98094d" x="320.67017" y="271.850625" style="stroke: #000000; stroke-width: 0.8"/>
      </g>
     </g>
     <g id="text_6">
      <!-- 25000 -->
      <g transform="translate(304.76392 286.449062)scale(0.1 -0.1)">
       <use xlink:href="#DejaVuSans-32"/>
       <use xlink:href="#DejaVuSans-35" x="63.623047"/>
       <use xlink:href="#DejaVuSans-30" x="127.246094"/>
       <use xlink:href="#DejaVuSans-30" x="190.869141"/>
       <use xlink:href="#DejaVuSans-30" x="254.492188"/>
      </g>
     </g>
    </g>
    <g id="xtick_7">
     <g id="line2d_13">
      <path d="M 371.397443 271.850625 
L 371.397443 22.370625 
" clip-path="url(#pfa62e48d25)" style="fill: none; stroke: #b0b0b0; stroke-width: 0.8; stroke-linecap: square"/>
     </g>
     <g id="line2d_14">
      <g>
       <use xlink:href="#mab3d98094d" x="371.397443" y="271.850625" style="stroke: #000000; stroke-width: 0.8"/>
      </g>
     </g>
     <g id="text_7">
      <!-- 30000 -->
      <g transform="translate(355.491193 286.449062)scale(0.1 -0.1)">
       <defs>
        <path id="DejaVuSans-33" d="M 2597 2516 
Q 3050 2419 3304 2112 
Q 3559 1806 3559 1356 
Q 3559 666 3084 287 
Q 2609 -91 1734 -91 
Q 1441 -91 1130 -33 
Q 819 25 488 141 
L 488 750 
Q 750 597 1062 519 
Q 1375 441 1716 441 
Q 2309 441 2620 675 
Q 2931 909 2931 1356 
Q 2931 1769 2642 2001 
Q 2353 2234 1838 2234 
L 1294 2234 
L 1294 2753 
L 1863 2753 
Q 2328 2753 2575 2939 
Q 2822 3125 2822 3475 
Q 2822 3834 2567 4026 
Q 2313 4219 1838 4219 
Q 1578 4219 1281 4162 
Q 984 4106 628 3988 
L 628 4550 
Q 988 4650 1302 4700 
Q 1616 4750 1894 4750 
Q 2613 4750 3031 4423 
Q 3450 4097 3450 3541 
Q 3450 3153 3228 2886 
Q 3006 2619 2597 2516 
z
" transform="scale(0.015625)"/>
       </defs>
       <use xlink:href="#DejaVuSans-33"/>
       <use xlink:href="#DejaVuSans-30" x="63.623047"/>
       <use xlink:href="#DejaVuSans-30" x="127.246094"/>
       <use xlink:href="#DejaVuSans-30" x="190.869141"/>
       <use xlink:href="#DejaVuSans-30" x="254.492188"/>
      </g>
     </g>
    </g>
    <g id="text_8">
     <!-- Blocks (+10.5M) -->
     <g transform="translate(177.960156 300.127187)scale(0.1 -0.1)">
      <defs>
       <path id="DejaVuSans-42" d="M 1259 2228 
L 1259 519 
L 2272 519 
Q 2781 519 3026 730 
Q 3272 941 3272 1375 
Q 3272 1813 3026 2020 
Q 2781 2228 2272 2228 
L 1259 2228 
z
M 1259 4147 
L 1259 2741 
L 2194 2741 
Q 2656 2741 2882 2914 
Q 3109 3088 3109 3444 
Q 3109 3797 2882 3972 
Q 2656 4147 2194 4147 
L 1259 4147 
z
M 628 4666 
L 2241 4666 
Q 2963 4666 3353 4366 
Q 3744 4066 3744 3513 
Q 3744 3084 3544 2831 
Q 3344 2578 2956 2516 
Q 3422 2416 3680 2098 
Q 3938 1781 3938 1306 
Q 3938 681 3513 340 
Q 3088 0 2303 0 
L 628 0 
L 628 4666 
z
" transform="scale(0.015625)"/>
       <path id="DejaVuSans-6c" d="M 603 4863 
L 1178 4863 
L 1178 0 
L 603 0 
L 603 4863 
z
" transform="scale(0.015625)"/>
       <path id="DejaVuSans-6f" d="M 1959 3097 
Q 1497 3097 1228 2736 
Q 959 2375 959 1747 
Q 959 1119 1226 758 
Q 1494 397 1959 397 
Q 2419 397 2687 759 
Q 2956 1122 2956 1747 
Q 2956 2369 2687 2733 
Q 2419 3097 1959 3097 
z
M 1959 3584 
Q 2709 3584 3137 3096 
Q 3566 2609 3566 1747 
Q 3566 888 3137 398 
Q 2709 -91 1959 -91 
Q 1206 -91 779 398 
Q 353 888 353 1747 
Q 353 2609 779 3096 
Q 1206 3584 1959 3584 
z
" transform="scale(0.015625)"/>
       <path id="DejaVuSans-63" d="M 3122 3366 
L 3122 2828 
Q 2878 2963 2633 3030 
Q 2388 3097 2138 3097 
Q 1578 3097 1268 2742 
Q 959 2388 959 1747 
Q 959 1106 1268 751 
Q 1578 397 2138 397 
Q 2388 397 2633 464 
Q 2878 531 3122 666 
L 3122 134 
Q 2881 22 2623 -34 
Q 2366 -91 2075 -91 
Q 1284 -91 818 406 
Q 353 903 353 1747 
Q 353 2603 823 3093 
Q 1294 3584 2113 3584 
Q 2378 3584 2631 3529 
Q 2884 3475 3122 3366 
z
" transform="scale(0.015625)"/>
       <path id="DejaVuSans-6b" d="M 581 4863 
L 1159 4863 
L 1159 1991 
L 2875 3500 
L 3609 3500 
L 1753 1863 
L 3688 0 
L 2938 0 
L 1159 1709 
L 1159 0 
L 581 0 
L 581 4863 
z
" transform="scale(0.015625)"/>
       <path id="DejaVuSans-73" d="M 2834 3397 
L 2834 2853 
Q 2591 2978 2328 3040 
Q 2066 3103 1784 3103 
Q 1356 3103 1142 2972 
Q 928 2841 928 2578 
Q 928 2378 1081 2264 
Q 1234 2150 1697 2047 
L 1894 2003 
Q 2506 1872 2764 1633 
Q 3022 1394 3022 966 
Q 3022 478 2636 193 
Q 2250 -91 1575 -91 
Q 1294 -91 989 -36 
Q 684 19 347 128 
L 347 722 
Q 666 556 975 473 
Q 1284 391 1588 391 
Q 1994 391 2212 530 
Q 2431 669 2431 922 
Q 2431 1156 2273 1281 
Q 2116 1406 1581 1522 
L 1381 1569 
Q 847 1681 609 1914 
Q 372 2147 372 2553 
Q 372 3047 722 3315 
Q 1072 3584 1716 3584 
Q 2034 3584 2315 3537 
Q 2597 3491 2834 3397 
z
" transform="scale(0.015625)"/>
       <path id="DejaVuSans-20" transform="scale(0.015625)"/>
       <path id="DejaVuSans-28" d="M 1984 4856 
Q 1566 4138 1362 3434 
Q 1159 2731 1159 2009 
Q 1159 1288 1364 580 
Q 1569 -128 1984 -844 
L 1484 -844 
Q 1016 -109 783 600 
Q 550 1309 550 2009 
Q 550 2706 781 3412 
Q 1013 4119 1484 4856 
L 1984 4856 
z
" transform="scale(0.015625)"/>
       <path id="DejaVuSans-2b" d="M 2944 4013 
L 2944 2272 
L 4684 2272 
L 4684 1741 
L 2944 1741 
L 2944 0 
L 2419 0 
L 2419 1741 
L 678 1741 
L 678 2272 
L 2419 2272 
L 2419 4013 
L 2944 4013 
z
" transform="scale(0.015625)"/>
       <path id="DejaVuSans-2e" d="M 684 794 
L 1344 794 
L 1344 0 
L 684 0 
L 684 794 
z
" transform="scale(0.015625)"/>
       <path id="DejaVuSans-4d" d="M 628 4666 
L 1569 4666 
L 2759 1491 
L 3956 4666 
L 4897 4666 
L 4897 0 
L 4281 0 
L 4281 4097 
L 3078 897 
L 2444 897 
L 1241 4097 
L 1241 0 
L 628 0 
L 628 4666 
z
" transform="scale(0.015625)"/>
       <path id="DejaVuSans-29" d="M 513 4856 
L 1013 4856 
Q 1481 4119 1714 3412 
Q 1947 2706 1947 2009 
Q 1947 1309 1714 600 
Q 1481 -109 1013 -844 
L 513 -844 
Q 928 -128 1133 580 
Q 1338 1288 1338 2009 
Q 1338 2731 1133 3434 
Q 928 4138 513 4856 
z
" transform="scale(0.015625)"/>
      </defs>
      <use xlink:href="#DejaVuSans-42"/>
      <use xlink:href="#DejaVuSans-6c" x="68.603516"/>
      <use xlink:href="#DejaVuSans-6f" x="96.386719"/>
      <use xlink:href="#DejaVuSans-63" x="157.568359"/>
      <use xlink:href="#DejaVuSans-6b" x="212.548828"/>
      <use xlink:href="#DejaVuSans-73" x="270.458984"/>
      <use xlink:href="#DejaVuSans-20" x="322.558594"/>
      <use xlink:href="#DejaVuSans-28" x="354.345703"/>
      <use xlink:href="#DejaVuSans-2b" x="393.359375"/>
      <use xlink:href="#DejaVuSans-31" x="477.148438"/>
      <use xlink:href="#DejaVuSans-30" x="540.771484"/>
      <use xlink:href="#DejaVuSans-2e" x="604.394531"/>
      <use xlink:href="#DejaVuSans-35" x="636.181641"/>
      <use xlink:href="#DejaVuSans-4d" x="699.804688"/>
      <use xlink:href="#DejaVuSans-29" x="786.083984"/>
     </g>
    </g>
   </g>
   <g id="matplotlib.axis_2">
    <g id="ytick_1">
     <g id="line2d_15">
      <path d="M 51.815625 260.510625 
L 386.615625 260.510625 
" clip-path="url(#pfa62e48d25)" style="fill: none; stroke: #b0b0b0; stroke-width: 0.8; stroke-linecap: square"/>
     </g>
     <g id="line2d_16">
      <defs>
       <path id="ma5a62bfd1b" d="M 0 0 
L -3.5 0 
" style="stroke: #000000; stroke-width: 0.8"/>
      </defs>
      <g>
       <use xlink:href="#ma5a62bfd1b" x="51.815625" y="260.510625" style="stroke: #000000; stroke-width: 0.8"/>
      </g>
     </g>
     <g id="text_9">
      <!-- 0 -->
      <g transform="translate(38.453125 264.309844)scale(0.1 -0.1)">
       <use xlink:href="#DejaVuSans-30"/>
      </g>
     </g>
    </g>
    <g id="ytick_2">
     <g id="line2d_17">
      <path d="M 51.815625 208.486706 
L 386.615625 208.486706 
" clip-path="url(#pfa62e48d25)" style="fill: none; stroke: #b0b0b0; stroke-width: 0.8; stroke-linecap: square"/>
     </g>
     <g id="line2d_18">
      <g>
       <use xlink:href="#ma5a62bfd1b" x="51.815625" y="208.486706" style="stroke: #000000; stroke-width: 0.8"/>
      </g>
     </g>
     <g id="text_10">
      <!-- 10 -->
      <g transform="translate(32.090625 212.285925)scale(0.1 -0.1)">
       <use xlink:href="#DejaVuSans-31"/>
       <use xlink:href="#DejaVuSans-30" x="63.623047"/>
      </g>
     </g>
    </g>
    <g id="ytick_3">
     <g id="line2d_19">
      <path d="M 51.815625 156.462787 
L 386.615625 156.462787 
" clip-path="url(#pfa62e48d25)" style="fill: none; stroke: #b0b0b0; stroke-width: 0.8; stroke-linecap: square"/>
     </g>
     <g id="line2d_20">
      <g>
       <use xlink:href="#ma5a62bfd1b" x="51.815625" y="156.462787" style="stroke: #000000; stroke-width: 0.8"/>
      </g>
     </g>
     <g id="text_11">
      <!-- 20 -->
      <g transform="translate(32.090625 160.262006)scale(0.1 -0.1)">
       <use xlink:href="#DejaVuSans-32"/>
       <use xlink:href="#DejaVuSans-30" x="63.623047"/>
      </g>
     </g>
    </g>
    <g id="ytick_4">
     <g id="line2d_21">
      <path d="M 51.815625 104.438868 
L 386.615625 104.438868 
" clip-path="url(#pfa62e48d25)" style="fill: none; stroke: #b0b0b0; stroke-width: 0.8; stroke-linecap: square"/>
     </g>
     <g id="line2d_22">
      <g>
       <use xlink:href="#ma5a62bfd1b" x="51.815625" y="104.438868" style="stroke: #000000; stroke-width: 0.8"/>
      </g>
     </g>
     <g id="text_12">
      <!-- 30 -->
      <g transform="translate(32.090625 108.238087)scale(0.1 -0.1)">
       <use xlink:href="#DejaVuSans-33"/>
       <use xlink:href="#DejaVuSans-30" x="63.623047"/>
      </g>
     </g>
    </g>
    <g id="ytick_5">
     <g id="line2d_23">
      <path d="M 51.815625 52.414949 
L 386.615625 52.414949 
" clip-path="url(#pfa62e48d25)" style="fill: none; stroke: #b0b0b0; stroke-width: 0.8; stroke-linecap: square"/>
     </g>
     <g id="line2d_24">
      <g>
       <use xlink:href="#ma5a62bfd1b" x="51.815625" y="52.414949" style="stroke: #000000; stroke-width: 0.8"/>
      </g>
     </g>
     <g id="text_13">
      <!-- 40 -->
      <g transform="translate(32.090625 56.214167)scale(0.1 -0.1)">
       <defs>
        <path id="DejaVuSans-34" d="M 2419 4116 
L 825 1625 
L 2419 1625 
L 2419 4116 
z
M 2253 4666 
L 3047 4666 
L 3047 1625 
L 3713 1625 
L 3713 1100 
L 3047 1100 
L 3047 0 
L 2419 0 
L 2419 1100 
L 313 1100 
L 313 1709 
L 2253 4666 
z
" transform="scale(0.015625)"/>
       </defs>
       <use xlink:href="#DejaVuSans-34"/>
       <use xlink:href="#DejaVuSans-30" x="63.623047"/>
      </g>
     </g>
    </g>
    <g id="text_14">
     <!-- blocks / second -->
     <g transform="translate(26.010937 185.677812)rotate(-90)scale(0.1 -0.1)">
      <defs>
       <path id="DejaVuSans-62" d="M 3116 1747 
Q 3116 2381 2855 2742 
Q 2594 3103 2138 3103 
Q 1681 3103 1420 2742 
Q 1159 2381 1159 1747 
Q 1159 1113 1420 752 
Q 1681 391 2138 391 
Q 2594 391 2855 752 
Q 3116 1113 3116 1747 
z
M 1159 2969 
Q 1341 3281 1617 3432 
Q 1894 3584 2278 3584 
Q 2916 3584 3314 3078 
Q 3713 2572 3713 1747 
Q 3713 922 3314 415 
Q 2916 -91 2278 -91 
Q 1894 -91 1617 61 
Q 1341 213 1159 525 
L 1159 0 
L 581 0 
L 581 4863 
L 1159 4863 
L 1159 2969 
z
" transform="scale(0.015625)"/>
       <path id="DejaVuSans-2f" d="M 1625 4666 
L 2156 4666 
L 531 -594 
L 0 -594 
L 1625 4666 
z
" transform="scale(0.015625)"/>
       <path id="DejaVuSans-65" d="M 3597 1894 
L 3597 1613 
L 953 1613 
Q 991 1019 1311 708 
Q 1631 397 2203 397 
Q 2534 397 2845 478 
Q 3156 559 3463 722 
L 3463 178 
Q 3153 47 2828 -22 
Q 2503 -91 2169 -91 
Q 1331 -91 842 396 
Q 353 884 353 1716 
Q 353 2575 817 3079 
Q 1281 3584 2069 3584 
Q 2775 3584 3186 3129 
Q 3597 2675 3597 1894 
z
M 3022 2063 
Q 3016 2534 2758 2815 
Q 2500 3097 2075 3097 
Q 1594 3097 1305 2825 
Q 1016 2553 972 2059 
L 3022 2063 
z
" transform="scale(0.015625)"/>
       <path id="DejaVuSans-6e" d="M 3513 2113 
L 3513 0 
L 2938 0 
L 2938 2094 
Q 2938 2591 2744 2837 
Q 2550 3084 2163 3084 
Q 1697 3084 1428 2787 
Q 1159 2491 1159 1978 
L 1159 0 
L 581 0 
L 581 3500 
L 1159 3500 
L 1159 2956 
Q 1366 3272 1645 3428 
Q 1925 3584 2291 3584 
Q 2894 3584 3203 3211 
Q 3513 2838 3513 2113 
z
" transform="scale(0.015625)"/>
       <path id="DejaVuSans-64" d="M 2906 2969 
L 2906 4863 
L 3481 4863 
L 3481 0 
L 2906 0 
L 2906 525 
Q 2725 213 2448 61 
Q 2172 -91 1784 -91 
Q 1150 -91 751 415 
Q 353 922 353 1747 
Q 353 2572 751 3078 
Q 1150 3584 1784 3584 
Q 2172 3584 2448 3432 
Q 2725 3281 2906 2969 
z
M 947 1747 
Q 947 1113 1208 752 
Q 1469 391 1925 391 
Q 2381 391 2643 752 
Q 2906 1113 2906 1747 
Q 2906 2381 2643 2742 
Q 2381 3103 1925 3103 
Q 1469 3103 1208 2742 
Q 947 2381 947 1747 
z
" transform="scale(0.015625)"/>
      </defs>
      <use xlink:href="#DejaVuSans-62"/>
      <use xlink:href="#DejaVuSans-6c" x="63.476562"/>
      <use xlink:href="#DejaVuSans-6f" x="91.259766"/>
      <use xlink:href="#DejaVuSans-63" x="152.441406"/>
      <use xlink:href="#DejaVuSans-6b" x="207.421875"/>
      <use xlink:href="#DejaVuSans-73" x="265.332031"/>
      <use xlink:href="#DejaVuSans-20" x="317.431641"/>
      <use xlink:href="#DejaVuSans-2f" x="349.21875"/>
      <use xlink:href="#DejaVuSans-20" x="382.910156"/>
      <use xlink:href="#DejaVuSans-73" x="414.697266"/>
      <use xlink:href="#DejaVuSans-65" x="466.796875"/>
      <use xlink:href="#DejaVuSans-63" x="528.320312"/>
      <use xlink:href="#DejaVuSans-6f" x="583.300781"/>
      <use xlink:href="#DejaVuSans-6e" x="644.482422"/>
      <use xlink:href="#DejaVuSans-64" x="707.861328"/>
     </g>
    </g>
   </g>
   <g id="line2d_25">
    <path d="M 67.033807 260.510625 
L 71.203589 189.245652 
L 77.58508 170.377586 
L 85.19417 157.084623 
L 93.87868 145.830815 
L 98.200643 153.987152 
L 107.656207 144.791259 
L 115.30588 147.250005 
L 122.488861 142.06049 
L 131.721225 137.744456 
L 143.246461 130.244442 
L 155.126789 123.632382 
L 166.986825 118.164973 
L 178.26857 114.838262 
L 182.95577 118.989462 
L 194.298389 115.493269 
L 206.868607 111.123071 
L 220.220025 106.490052 
L 233.297516 102.623295 
L 245.76628 99.716308 
L 258.661152 96.737 
L 270.937152 94.540756 
L 285.394425 90.853722 
L 298.289298 88.649423 
L 303.940316 91.789062 
L 315.769916 90.443142 
L 329.111189 88.214844 
L 342.249552 86.27907 
L 355.590825 84.35658 
L 367.349407 83.506261 
L 371.397443 83.183667 
" clip-path="url(#pfa62e48d25)" style="fill: none; stroke: #1f77b4; stroke-width: 1.5; stroke-linecap: square"/>
   </g>
   <g id="line2d_26">
    <path d="M 67.033807 260.510625 
L 69.813661 213.050387 
L 78.619916 161.559274 
L 89.952389 129.937482 
L 102.279116 109.908832 
L 114.626134 97.826827 
L 126.973152 89.777942 
L 140.689807 80.66221 
L 155.218098 72.100753 
L 167.98108 68.79347 
L 181.342643 65.131356 
L 193.588207 63.861996 
L 207.832425 59.98908 
L 223.253516 55.104359 
L 237.73108 52.104985 
L 244.619843 58.15498 
L 257.332098 57.261048 
L 272.063298 54.361271 
L 287.961225 50.711934 
L 302.783734 48.421719 
L 316.033698 47.698895 
L 330.13588 46.354229 
L 344.08588 45.254047 
L 357.244534 44.841595 
L 370.788716 44.181854 
L 371.397443 44.16757 
" clip-path="url(#pfa62e48d25)" style="fill: none; stroke: #ff7f0e; stroke-width: 1.5; stroke-linecap: square"/>
   </g>
   <g id="line2d_27">
    <path d="M 67.033807 260.510625 
L 75.961807 108.064494 
L 87.213116 88.129514 
L 100.665989 68.89572 
L 113.733334 60.963876 
L 120.01337 79.398035 
L 131.883552 75.769856 
L 146.564025 66.323 
L 161.19377 59.333338 
L 174.737952 55.961159 
L 185.360243 58.254438 
L 198.437734 56.320104 
L 213.260243 52.229472 
L 228.681334 47.97145 
L 242.590752 46.166357 
L 256.358134 44.769318 
L 271.129916 42.469056 
L 286.956825 39.388003 
L 301.819916 37.554356 
L 315.09017 37.354143 
L 329.111189 36.524986 
L 341.894461 36.784756 
L 356.077807 35.937741 
L 369.916207 35.418054 
L 371.397443 35.45726 
" clip-path="url(#pfa62e48d25)" style="fill: none; stroke: #2ca02c; stroke-width: 1.5; stroke-linecap: square"/>
   </g>
   <g id="line2d_28">
    <path d="M 67.033807 260.510625 
L 71.173152 189.825917 
L 77.118389 174.342479 
L 84.920243 158.632759 
L 93.67577 146.685877 
L 103.212498 136.842972 
L 112.099916 132.140103 
L 122.387407 125.369486 
L 133.05028 119.467221 
L 145.255261 111.958885 
L 157.521116 105.846935 
L 169.837698 100.769952 
L 180.36868 99.073188 
L 191.477952 96.885366 
L 204.088752 93.176133 
L 217.64308 88.896361 
L 229.837916 86.582916 
L 241.271843 85.322502 
L 253.618861 83.331705 
L 266.85868 80.745501 
L 280.849261 77.771934 
L 294.880425 75.051845 
L 307.440498 73.725275 
L 318.99617 73.261611 
L 331.911334 71.860928 
L 344.907661 70.519572 
L 358.005443 69.219525 
L 370.393043 68.461449 
L 371.397443 68.465472 
" clip-path="url(#pfa62e48d25)" style="fill: none; stroke: #d62728; stroke-width: 1.5; stroke-linecap: square"/>
   </g>
   <g id="line2d_29">
    <path d="M 67.033807 260.510625 
L 74.36897 135.208988 
L 85.39708 103.619343 
L 98.00788 84.07062 
L 104.440098 100.671536 
L 116.959589 89.835947 
L 129.468934 82.651247 
L 143.56097 73.639772 
L 157.896498 66.377558 
L 171.603007 61.918176 
L 179.546898 70.446184 
L 190.52428 68.619607 
L 204.098898 65.276848 
L 218.850389 60.8927 
L 233.348243 57.453648 
L 246.760534 55.709256 
L 260.710534 53.598894 
L 275.127225 51.27611 
L 286.348098 54.845016 
L 297.609552 53.074449 
L 307.470934 58.254245 
L 316.42937 57.514574 
L 330.125734 56.100071 
L 343.629334 54.952046 
L 357.285116 53.790807 
L 370.524934 53.009681 
L 371.397443 53.588185 
" clip-path="url(#pfa62e48d25)" style="fill: none; stroke: #9467bd; stroke-width: 1.5; stroke-linecap: square"/>
   </g>
   <g id="line2d_30">
    <path d="M 67.033807 260.510625 
L 71.487661 184.437273 
L 82.94188 124.586141 
L 96.33388 93.590096 
L 109.543261 78.887663 
L 116.066789 92.903108 
L 128.677589 84.909087 
L 142.87108 75.331822 
L 157.39937 67.476899 
L 171.247916 62.586528 
L 184.29497 60.08361 
L 197.372461 57.972967 
L 210.419516 56.269011 
L 224.298498 53.734434 
L 238.360098 51.336452 
L 248.089589 54.889084 
L 258.894498 55.544041 
L 273.189443 53.227455 
L 288.50908 50.197605 
L 302.895334 48.3267 
L 316.064134 47.673445 
L 329.730061 46.685288 
L 343.253952 45.897402 
L 355.864752 45.854201 
L 369.21617 45.288542 
L 371.397443 45.269643 
" clip-path="url(#pfa62e48d25)" style="fill: none; stroke: #8c564b; stroke-width: 1.5; stroke-linecap: square"/>
   </g>
   <g id="line2d_31">
    <path d="M 67.033807 260.510625 
L 71.406498 185.819692 
L 78.508316 162.45072 
L 86.888461 147.416174 
L 96.201989 135.868747 
L 106.235843 138.091207 
L 111.612934 133.531834 
L 122.641043 124.736861 
L 134.52137 116.315165 
L 147.933661 106.871824 
L 161.386534 99.232886 
L 174.595916 93.371778 
L 186.242898 90.713682 
L 199.11748 86.844151 
L 213.118207 82.151861 
L 226.388461 78.922768 
L 233.196061 83.117752 
L 245.390898 81.177683 
L 259.097407 78.125197 
L 273.169152 75.062166 
L 288.143843 71.539344 
L 302.185152 69.110488 
L 314.06548 68.586646 
L 327.376316 67.02922 
L 340.697298 65.601851 
L 354.089298 64.245982 
L 367.329116 63.087066 
L 371.397443 62.86869 
" clip-path="url(#pfa62e48d25)" style="fill: none; stroke: #e377c2; stroke-width: 1.5; stroke-linecap: square"/>
   </g>
   <g id="line2d_32">
    <path d="M 67.033807 260.510625 
L 74.81537 127.574369 
L 87.29428 87.416331 
L 99.976098 76.673708 
L 107.037334 89.579258 
L 119.952498 79.612871 
L 131.700934 76.287616 
L 146.077043 67.509981 
L 160.473443 60.873342 
L 174.108934 57.157995 
L 187.75457 54.163857 
L 200.984243 52.369968 
L 215.502389 49.028634 
L 230.395916 45.719744 
L 243.86908 44.60663 
L 257.83937 43.081423 
L 272.245916 41.274483 
L 287.626425 38.713047 
L 301.02857 38.30536 
L 308.566643 43.843651 
L 321.075989 43.396368 
L 334.863661 42.511651 
L 348.529589 41.796284 
L 361.191116 41.895217 
L 371.397443 42.401807 
" clip-path="url(#pfa62e48d25)" style="fill: none; stroke: #7f7f7f; stroke-width: 1.5; stroke-linecap: square"/>
   </g>
   <g id="line2d_33">
    <path d="M 67.033807 260.510625 
L 75.099443 124.085735 
L 81.84617 133.930884 
L 92.935152 128.047036 
L 101.741407 112.221033 
L 114.727589 97.472573 
L 127.409407 88.530509 
L 141.389843 78.950477 
L 154.223843 83.687662 
L 162.228607 79.721904 
L 175.853952 74.50306 
L 189.144498 70.762628 
L 202.495916 67.553122 
L 217.166243 63.110067 
L 231.775698 59.379259 
L 245.218425 57.460992 
L 251.965152 62.943469 
L 266.006461 60.449042 
L 281.062316 57.264536 
L 295.98628 54.534785 
L 309.905843 52.941669 
L 323.206534 51.999146 
L 336.537661 51.116177 
L 348.336825 51.451668 
L 361.972316 50.448671 
L 371.397443 50.089168 
" clip-path="url(#pfa62e48d25)" style="fill: none; stroke: #bcbd22; stroke-width: 1.5; stroke-linecap: square"/>
   </g>
   <g id="line2d_34">
    <path d="M 67.033807 260.510625 
L 71.436934 185.360735 
L 78.396716 163.40009 
L 86.046389 152.202251 
L 95.319334 139.648938 
L 105.667698 128.437515 
L 115.153698 123.456336 
L 126.060061 116.382315 
L 137.260643 110.472182 
L 150.561334 101.88524 
L 163.943189 94.864573 
L 176.777189 89.978516 
L 187.166134 94.276985 
L 195.292643 91.879788 
L 208.95857 87.23199 
L 216.009661 90.752268 
L 230.38577 85.997211 
L 242.671916 83.909946 
L 256.094352 80.980648 
L 269.98348 77.93029 
L 285.079916 74.155459 
L 299.44588 71.365003 
L 312.30017 70.28467 
L 324.46457 69.196905 
L 337.673952 67.761573 
L 350.22388 66.888651 
L 363.666607 65.494736 
L 371.397443 64.994267 
" clip-path="url(#pfa62e48d25)" style="fill: none; stroke: #17becf; stroke-width: 1.5; stroke-linecap: square"/>
   </g>
   <g id="line2d_35">
    <path d="M 67.033807 260.510625 
L 74.784934 128.077263 
L 86.989916 89.990548 
L 100.361625 70.642999 
L 113.307225 62.772344 
L 119.922061 79.713518 
L 132.82708 73.088364 
L 146.158207 67.314211 
L 160.534316 60.738521 
L 174.129225 57.113835 
L 186.50668 56.302837 
L 192.837443 65.024007 
L 206.736716 61.5336 
L 221.650534 57.216076 
L 234.96137 55.487478 
L 248.363516 53.876533 
L 262.425116 51.772165 
L 277.136025 49.262642 
L 292.293334 46.601535 
L 306.25348 45.303208 
L 319.53388 44.709266 
L 333.362134 43.733264 
L 345.830898 43.893332 
L 358.48228 43.914539 
L 371.397443 43.516431 
" clip-path="url(#pfa62e48d25)" style="fill: none; stroke: #1f77b4; stroke-width: 1.5; stroke-linecap: square"/>
   </g>
   <g id="line2d_36">
    <path d="M 67.033807 260.510625 
L 76.02268 106.923176 
L 86.929043 92.369169 
L 100.290607 71.065053 
L 112.363698 66.804199 
L 125.299152 61.328275 
L 139.117261 55.172208 
L 153.848461 48.51777 
L 167.768025 45.275116 
L 181.48468 43.143216 
L 194.623043 42.431629 
L 208.725225 40.337203 
L 221.538934 40.623263 
L 235.986061 38.372826 
L 244.974934 47.136963 
L 255.323298 45.943506 
L 266.757225 50.928323 
L 277.562134 48.829671 
L 292.77017 46.147137 
L 307.004243 44.6255 
L 320.274498 44.080428 
L 334.123043 43.110677 
L 345.516389 44.139953 
L 359.344643 43.270314 
L 371.397443 42.92195 
" clip-path="url(#pfa62e48d25)" style="fill: none; stroke: #ff7f0e; stroke-width: 1.5; stroke-linecap: square"/>
   </g>
   <g id="line2d_37">
    <path d="M 67.033807 260.510625 
L 75.069007 123.289925 
L 87.811698 82.984119 
L 99.103589 77.788224 
L 105.830025 94.729154 
L 112.110061 106.439847 
L 124.974498 95.44581 
L 138.74188 85.418147 
L 152.24548 78.44602 
L 166.266498 72.056953 
L 179.932425 67.530562 
L 192.949043 64.882004 
L 206.899043 61.285469 
L 221.954898 56.812819 
L 236.473043 53.652804 
L 249.824461 52.212945 
L 263.967225 50.122163 
L 278.881043 47.504063 
L 294.119516 44.866009 
L 308.099952 43.64143 
L 321.43108 43.088416 
L 335.056425 42.351172 
L 347.728098 42.420235 
L 361.546207 41.633469 
L 371.397443 41.46612 
" clip-path="url(#pfa62e48d25)" style="fill: none; stroke: #2ca02c; stroke-width: 1.5; stroke-linecap: square"/>
   </g>
   <g id="line2d_38">
    <path d="M 67.033807 260.510625 
L 71.426789 185.506416 
L 78.437298 163.11663 
L 86.827589 147.743045 
L 96.151261 136.093638 
L 106.519916 125.534642 
L 117.030607 118.107829 
L 122.772934 124.40871 
L 134.338752 116.706547 
L 147.730752 107.2516 
L 161.122752 99.689085 
L 174.220534 93.952633 
L 186.709589 90.046443 
L 199.553734 86.272523 
L 213.716789 81.427322 
L 220.950498 85.117553 
L 235.154134 80.915424 
L 248.343225 78.210533 
L 262.151189 75.227014 
L 276.608461 71.969881 
L 291.54257 68.631808 
L 305.02588 66.797477 
L 318.30628 65.28442 
L 331.69828 63.822624 
L 344.187334 63.116728 
L 357.802534 61.704771 
L 370.77857 60.819807 
L 371.397443 60.776846 
" clip-path="url(#pfa62e48d25)" style="fill: none; stroke: #d62728; stroke-width: 1.5; stroke-linecap: square"/>
   </g>
   <g id="line2d_39">
    <path d="M 67.033807 260.510625 
L 74.064607 140.349715 
L 82.667952 141.889292 
L 91.433625 121.495289 
L 97.987589 128.244837 
L 111.115807 109.834677 
L 124.14257 97.823928 
L 137.493989 88.469166 
L 152.13388 78.689489 
L 166.043298 72.481098 
L 179.739661 67.86283 
L 192.847589 65.0074 
L 206.736716 61.524628 
L 221.650534 57.215851 
L 236.07737 54.11988 
L 249.46937 52.623891 
L 263.561407 50.559786 
L 278.454934 47.934114 
L 293.55137 45.406946 
L 306.121589 45.448081 
L 318.833843 45.306479 
L 329.730061 46.718282 
L 337.05508 50.717518 
L 350.994934 49.475715 
L 358.106898 53.202057 
L 371.275698 52.491585 
L 371.397443 52.482136 
" clip-path="url(#pfa62e48d25)" style="fill: none; stroke: #9467bd; stroke-width: 1.5; stroke-linecap: square"/>
   </g>
   <g id="line2d_40">
    <path d="M 67.033807 260.510625 
L 71.731152 180.268562 
L 81.907043 136.798961 
L 94.639589 103.22456 
L 107.919989 85.80522 
L 120.946752 76.217098 
L 134.135843 69.362062 
L 148.725007 61.039662 
L 163.080825 55.306907 
L 176.838061 51.972654 
L 190.159043 50.067419 
L 203.764098 48.049182 
L 218.698207 44.475756 
L 233.37868 41.794389 
L 246.922861 40.885134 
L 261.004752 39.471328 
L 275.664934 37.626507 
L 291.025152 35.298584 
L 304.214243 35.279697 
L 317.738134 34.969263 
L 331.464934 34.557562 
L 345.151152 34.13396 
L 358.938825 33.710625 
L 371.397443 33.723408 
" clip-path="url(#pfa62e48d25)" style="fill: none; stroke: #8c564b; stroke-width: 1.5; stroke-linecap: square"/>
   </g>
   <g id="line2d_41">
    <path d="M 67.033807 260.510625 
L 71.416643 185.704157 
L 78.447443 162.972655 
L 86.046389 152.191563 
L 95.339625 139.56899 
L 105.748861 128.178394 
L 116.168243 120.540394 
L 127.257225 113.464057 
L 139.837589 104.961907 
L 153.402061 96.478726 
L 165.627334 91.983349 
L 178.71497 86.976494 
L 190.97068 83.979854 
L 197.362316 89.157394 
L 211.139843 84.564837 
L 225.597116 79.825329 
L 239.171734 76.612523 
L 252.533298 73.995595 
L 266.371698 71.219698 
L 281.072461 67.954191 
L 294.565916 66.047858 
L 306.567989 65.539509 
L 319.66577 64.224145 
L 333.118643 62.760034 
L 346.459916 61.502778 
L 359.831625 60.315379 
L 371.397443 60.160731 
" clip-path="url(#pfa62e48d25)" style="fill: none; stroke: #e377c2; stroke-width: 1.5; stroke-linecap: square"/>
   </g>
   <g id="line2d_42">
    <path d="M 67.033807 260.510625 
L 74.835661 127.217396 
L 87.223261 88.001966 
L 100.676134 68.855755 
L 113.601443 61.534416 
L 125.37017 61.08308 
L 139.005661 55.488585 
L 153.503516 49.373037 
L 167.22017 46.455942 
L 181.05857 43.95833 
L 192.938898 45.306658 
L 206.746861 43.404934 
L 221.650534 40.271856 
L 228.742207 47.889813 
L 242.408134 46.385888 
L 256.114643 45.094338 
L 270.358861 43.291981 
L 285.668352 40.679943 
L 300.196643 39.094782 
L 313.821989 38.492305 
L 327.36617 38.043796 
L 340.890061 37.60112 
L 353.46028 37.965004 
L 365.97977 41.007165 
L 371.397443 42.328087 
" clip-path="url(#pfa62e48d25)" style="fill: none; stroke: #7f7f7f; stroke-width: 1.5; stroke-linecap: square"/>
   </g>
   <g id="line2d_43">
    <path d="M 67.033807 260.510625 
L 76.864752 92.638553 
L 83.205661 122.308722 
L 96.739698 91.270712 
L 110.070825 76.626441 
L 123.188898 68.554855 
L 136.591043 62.359514 
L 151.281661 54.794667 
L 165.41428 50.308591 
L 179.333843 47.278306 
L 185.979116 57.203395 
L 199.076898 55.330199 
L 212.296425 53.596343 
L 227.423298 49.630444 
L 238.989116 50.569816 
L 252.665189 48.978937 
L 266.980425 46.909079 
L 282.39137 43.975845 
L 297.376207 41.769507 
L 311.29577 40.765408 
L 324.79937 40.210405 
L 337.136243 40.654107 
L 351.177552 39.786995 
L 364.813043 39.205778 
L 371.397443 39.093293 
" clip-path="url(#pfa62e48d25)" style="fill: none; stroke: #bcbd22; stroke-width: 1.5; stroke-linecap: square"/>
   </g>
   <g id="patch_3">
    <path d="M 51.815625 271.850625 
L 51.815625 22.370625 
" style="fill: none; stroke: #000000; stroke-width: 0.8; stroke-linejoin: miter; stroke-linecap: square"/>
   </g>
   <g id="patch_4">
    <path d="M 386.615625 271.850625 
L 386.615625 22.370625 
" style="fill: none; stroke: #000000; stroke-width: 0.8; stroke-linejoin: miter; stroke-linecap: square"/>
   </g>
   <g id="patch_5">
    <path d="M 51.815625 271.850625 
L 386.615625 271.850625 
" style="fill: none; stroke: #000000; stroke-width: 0.8; stroke-linejoin: miter; stroke-linecap: square"/>
   </g>
   <g id="patch_6">
    <path d="M 51.815625 22.370625 
L 386.615625 22.370625 
" style="fill: none; stroke: #000000; stroke-width: 0.8; stroke-linejoin: miter; stroke-linecap: square"/>
   </g>
   <g id="text_15">
    <!-- Full prefetch, 3.8 GHz, 16 GiB, sata | vary readahead and thread count -->
    <g transform="translate(7.2 16.370625)scale(0.12 -0.12)">
     <defs>
      <path id="DejaVuSans-46" d="M 628 4666 
L 3309 4666 
L 3309 4134 
L 1259 4134 
L 1259 2759 
L 3109 2759 
L 3109 2228 
L 1259 2228 
L 1259 0 
L 628 0 
L 628 4666 
z
" transform="scale(0.015625)"/>
      <path id="DejaVuSans-75" d="M 544 1381 
L 544 3500 
L 1119 3500 
L 1119 1403 
Q 1119 906 1312 657 
Q 1506 409 1894 409 
Q 2359 409 2629 706 
Q 2900 1003 2900 1516 
L 2900 3500 
L 3475 3500 
L 3475 0 
L 2900 0 
L 2900 538 
Q 2691 219 2414 64 
Q 2138 -91 1772 -91 
Q 1169 -91 856 284 
Q 544 659 544 1381 
z
M 1991 3584 
L 1991 3584 
z
" transform="scale(0.015625)"/>
      <path id="DejaVuSans-70" d="M 1159 525 
L 1159 -1331 
L 581 -1331 
L 581 3500 
L 1159 3500 
L 1159 2969 
Q 1341 3281 1617 3432 
Q 1894 3584 2278 3584 
Q 2916 3584 3314 3078 
Q 3713 2572 3713 1747 
Q 3713 922 3314 415 
Q 2916 -91 2278 -91 
Q 1894 -91 1617 61 
Q 1341 213 1159 525 
z
M 3116 1747 
Q 3116 2381 2855 2742 
Q 2594 3103 2138 3103 
Q 1681 3103 1420 2742 
Q 1159 2381 1159 1747 
Q 1159 1113 1420 752 
Q 1681 391 2138 391 
Q 2594 391 2855 752 
Q 3116 1113 3116 1747 
z
" transform="scale(0.015625)"/>
      <path id="DejaVuSans-72" d="M 2631 2963 
Q 2534 3019 2420 3045 
Q 2306 3072 2169 3072 
Q 1681 3072 1420 2755 
Q 1159 2438 1159 1844 
L 1159 0 
L 581 0 
L 581 3500 
L 1159 3500 
L 1159 2956 
Q 1341 3275 1631 3429 
Q 1922 3584 2338 3584 
Q 2397 3584 2469 3576 
Q 2541 3569 2628 3553 
L 2631 2963 
z
" transform="scale(0.015625)"/>
      <path id="DejaVuSans-66" d="M 2375 4863 
L 2375 4384 
L 1825 4384 
Q 1516 4384 1395 4259 
Q 1275 4134 1275 3809 
L 1275 3500 
L 2222 3500 
L 2222 3053 
L 1275 3053 
L 1275 0 
L 697 0 
L 697 3053 
L 147 3053 
L 147 3500 
L 697 3500 
L 697 3744 
Q 697 4328 969 4595 
Q 1241 4863 1831 4863 
L 2375 4863 
z
" transform="scale(0.015625)"/>
      <path id="DejaVuSans-74" d="M 1172 4494 
L 1172 3500 
L 2356 3500 
L 2356 3053 
L 1172 3053 
L 1172 1153 
Q 1172 725 1289 603 
Q 1406 481 1766 481 
L 2356 481 
L 2356 0 
L 1766 0 
Q 1100 0 847 248 
Q 594 497 594 1153 
L 594 3053 
L 172 3053 
L 172 3500 
L 594 3500 
L 594 4494 
L 1172 4494 
z
" transform="scale(0.015625)"/>
      <path id="DejaVuSans-68" d="M 3513 2113 
L 3513 0 
L 2938 0 
L 2938 2094 
Q 2938 2591 2744 2837 
Q 2550 3084 2163 3084 
Q 1697 3084 1428 2787 
Q 1159 2491 1159 1978 
L 1159 0 
L 581 0 
L 581 4863 
L 1159 4863 
L 1159 2956 
Q 1366 3272 1645 3428 
Q 1925 3584 2291 3584 
Q 2894 3584 3203 3211 
Q 3513 2838 3513 2113 
z
" transform="scale(0.015625)"/>
      <path id="DejaVuSans-2c" d="M 750 794 
L 1409 794 
L 1409 256 
L 897 -744 
L 494 -744 
L 750 256 
L 750 794 
z
" transform="scale(0.015625)"/>
      <path id="DejaVuSans-38" d="M 2034 2216 
Q 1584 2216 1326 1975 
Q 1069 1734 1069 1313 
Q 1069 891 1326 650 
Q 1584 409 2034 409 
Q 2484 409 2743 651 
Q 3003 894 3003 1313 
Q 3003 1734 2745 1975 
Q 2488 2216 2034 2216 
z
M 1403 2484 
Q 997 2584 770 2862 
Q 544 3141 544 3541 
Q 544 4100 942 4425 
Q 1341 4750 2034 4750 
Q 2731 4750 3128 4425 
Q 3525 4100 3525 3541 
Q 3525 3141 3298 2862 
Q 3072 2584 2669 2484 
Q 3125 2378 3379 2068 
Q 3634 1759 3634 1313 
Q 3634 634 3220 271 
Q 2806 -91 2034 -91 
Q 1263 -91 848 271 
Q 434 634 434 1313 
Q 434 1759 690 2068 
Q 947 2378 1403 2484 
z
M 1172 3481 
Q 1172 3119 1398 2916 
Q 1625 2713 2034 2713 
Q 2441 2713 2670 2916 
Q 2900 3119 2900 3481 
Q 2900 3844 2670 4047 
Q 2441 4250 2034 4250 
Q 1625 4250 1398 4047 
Q 1172 3844 1172 3481 
z
" transform="scale(0.015625)"/>
      <path id="DejaVuSans-47" d="M 3809 666 
L 3809 1919 
L 2778 1919 
L 2778 2438 
L 4434 2438 
L 4434 434 
Q 4069 175 3628 42 
Q 3188 -91 2688 -91 
Q 1594 -91 976 548 
Q 359 1188 359 2328 
Q 359 3472 976 4111 
Q 1594 4750 2688 4750 
Q 3144 4750 3555 4637 
Q 3966 4525 4313 4306 
L 4313 3634 
Q 3963 3931 3569 4081 
Q 3175 4231 2741 4231 
Q 1884 4231 1454 3753 
Q 1025 3275 1025 2328 
Q 1025 1384 1454 906 
Q 1884 428 2741 428 
Q 3075 428 3337 486 
Q 3600 544 3809 666 
z
" transform="scale(0.015625)"/>
      <path id="DejaVuSans-48" d="M 628 4666 
L 1259 4666 
L 1259 2753 
L 3553 2753 
L 3553 4666 
L 4184 4666 
L 4184 0 
L 3553 0 
L 3553 2222 
L 1259 2222 
L 1259 0 
L 628 0 
L 628 4666 
z
" transform="scale(0.015625)"/>
      <path id="DejaVuSans-7a" d="M 353 3500 
L 3084 3500 
L 3084 2975 
L 922 459 
L 3084 459 
L 3084 0 
L 275 0 
L 275 525 
L 2438 3041 
L 353 3041 
L 353 3500 
z
" transform="scale(0.015625)"/>
      <path id="DejaVuSans-36" d="M 2113 2584 
Q 1688 2584 1439 2293 
Q 1191 2003 1191 1497 
Q 1191 994 1439 701 
Q 1688 409 2113 409 
Q 2538 409 2786 701 
Q 3034 994 3034 1497 
Q 3034 2003 2786 2293 
Q 2538 2584 2113 2584 
z
M 3366 4563 
L 3366 3988 
Q 3128 4100 2886 4159 
Q 2644 4219 2406 4219 
Q 1781 4219 1451 3797 
Q 1122 3375 1075 2522 
Q 1259 2794 1537 2939 
Q 1816 3084 2150 3084 
Q 2853 3084 3261 2657 
Q 3669 2231 3669 1497 
Q 3669 778 3244 343 
Q 2819 -91 2113 -91 
Q 1303 -91 875 529 
Q 447 1150 447 2328 
Q 447 3434 972 4092 
Q 1497 4750 2381 4750 
Q 2619 4750 2861 4703 
Q 3103 4656 3366 4563 
z
" transform="scale(0.015625)"/>
      <path id="DejaVuSans-69" d="M 603 3500 
L 1178 3500 
L 1178 0 
L 603 0 
L 603 3500 
z
M 603 4863 
L 1178 4863 
L 1178 4134 
L 603 4134 
L 603 4863 
z
" transform="scale(0.015625)"/>
      <path id="DejaVuSans-61" d="M 2194 1759 
Q 1497 1759 1228 1600 
Q 959 1441 959 1056 
Q 959 750 1161 570 
Q 1363 391 1709 391 
Q 2188 391 2477 730 
Q 2766 1069 2766 1631 
L 2766 1759 
L 2194 1759 
z
M 3341 1997 
L 3341 0 
L 2766 0 
L 2766 531 
Q 2569 213 2275 61 
Q 1981 -91 1556 -91 
Q 1019 -91 701 211 
Q 384 513 384 1019 
Q 384 1609 779 1909 
Q 1175 2209 1959 2209 
L 2766 2209 
L 2766 2266 
Q 2766 2663 2505 2880 
Q 2244 3097 1772 3097 
Q 1472 3097 1187 3025 
Q 903 2953 641 2809 
L 641 3341 
Q 956 3463 1253 3523 
Q 1550 3584 1831 3584 
Q 2591 3584 2966 3190 
Q 3341 2797 3341 1997 
z
" transform="scale(0.015625)"/>
      <path id="DejaVuSans-7c" d="M 1344 4891 
L 1344 -1509 
L 813 -1509 
L 813 4891 
L 1344 4891 
z
" transform="scale(0.015625)"/>
      <path id="DejaVuSans-76" d="M 191 3500 
L 800 3500 
L 1894 563 
L 2988 3500 
L 3597 3500 
L 2284 0 
L 1503 0 
L 191 3500 
z
" transform="scale(0.015625)"/>
      <path id="DejaVuSans-79" d="M 2059 -325 
Q 1816 -950 1584 -1140 
Q 1353 -1331 966 -1331 
L 506 -1331 
L 506 -850 
L 844 -850 
Q 1081 -850 1212 -737 
Q 1344 -625 1503 -206 
L 1606 56 
L 191 3500 
L 800 3500 
L 1894 763 
L 2988 3500 
L 3597 3500 
L 2059 -325 
z
" transform="scale(0.015625)"/>
     </defs>
     <use xlink:href="#DejaVuSans-46"/>
     <use xlink:href="#DejaVuSans-75" x="52.019531"/>
     <use xlink:href="#DejaVuSans-6c" x="115.398438"/>
     <use xlink:href="#DejaVuSans-6c" x="143.181641"/>
     <use xlink:href="#DejaVuSans-20" x="170.964844"/>
     <use xlink:href="#DejaVuSans-70" x="202.751953"/>
     <use xlink:href="#DejaVuSans-72" x="266.228516"/>
     <use xlink:href="#DejaVuSans-65" x="305.091797"/>
     <use xlink:href="#DejaVuSans-66" x="366.615234"/>
     <use xlink:href="#DejaVuSans-65" x="401.820312"/>
     <use xlink:href="#DejaVuSans-74" x="463.34375"/>
     <use xlink:href="#DejaVuSans-63" x="502.552734"/>
     <use xlink:href="#DejaVuSans-68" x="557.533203"/>
     <use xlink:href="#DejaVuSans-2c" x="620.912109"/>
     <use xlink:href="#DejaVuSans-20" x="652.699219"/>
     <use xlink:href="#DejaVuSans-33" x="684.486328"/>
     <use xlink:href="#DejaVuSans-2e" x="748.109375"/>
     <use xlink:href="#DejaVuSans-38" x="779.896484"/>
     <use xlink:href="#DejaVuSans-20" x="843.519531"/>
     <use xlink:href="#DejaVuSans-47" x="875.306641"/>
     <use xlink:href="#DejaVuSans-48" x="952.796875"/>
     <use xlink:href="#DejaVuSans-7a" x="1027.992188"/>
     <use xlink:href="#DejaVuSans-2c" x="1080.482422"/>
     <use xlink:href="#DejaVuSans-20" x="1112.269531"/>
     <use xlink:href="#DejaVuSans-31" x="1144.056641"/>
     <use xlink:href="#DejaVuSans-36" x="1207.679688"/>
     <use xlink:href="#DejaVuSans-20" x="1271.302734"/>
     <use xlink:href="#DejaVuSans-47" x="1303.089844"/>
     <use xlink:href="#DejaVuSans-69" x="1380.580078"/>
     <use xlink:href="#DejaVuSans-42" x="1408.363281"/>
     <use xlink:href="#DejaVuSans-2c" x="1476.966797"/>
     <use xlink:href="#DejaVuSans-20" x="1508.753906"/>
     <use xlink:href="#DejaVuSans-73" x="1540.541016"/>
     <use xlink:href="#DejaVuSans-61" x="1592.640625"/>
     <use xlink:href="#DejaVuSans-74" x="1653.919922"/>
     <use xlink:href="#DejaVuSans-61" x="1693.128906"/>
     <use xlink:href="#DejaVuSans-20" x="1754.408203"/>
     <use xlink:href="#DejaVuSans-7c" x="1786.195312"/>
     <use xlink:href="#DejaVuSans-20" x="1819.886719"/>
     <use xlink:href="#DejaVuSans-76" x="1851.673828"/>
     <use xlink:href="#DejaVuSans-61" x="1910.853516"/>
     <use xlink:href="#DejaVuSans-72" x="1972.132812"/>
     <use xlink:href="#DejaVuSans-79" x="2013.246094"/>
     <use xlink:href="#DejaVuSans-20" x="2072.425781"/>
     <use xlink:href="#DejaVuSans-72" x="2104.212891"/>
     <use xlink:href="#DejaVuSans-65" x="2143.076172"/>
     <use xlink:href="#DejaVuSans-61" x="2204.599609"/>
     <use xlink:href="#DejaVuSans-64" x="2265.878906"/>
     <use xlink:href="#DejaVuSans-61" x="2329.355469"/>
     <use xlink:href="#DejaVuSans-68" x="2390.634766"/>
     <use xlink:href="#DejaVuSans-65" x="2454.013672"/>
     <use xlink:href="#DejaVuSans-61" x="2515.537109"/>
     <use xlink:href="#DejaVuSans-64" x="2576.816406"/>
     <use xlink:href="#DejaVuSans-20" x="2640.292969"/>
     <use xlink:href="#DejaVuSans-61" x="2672.080078"/>
     <use xlink:href="#DejaVuSans-6e" x="2733.359375"/>
     <use xlink:href="#DejaVuSans-64" x="2796.738281"/>
     <use xlink:href="#DejaVuSans-20" x="2860.214844"/>
     <use xlink:href="#DejaVuSans-74" x="2892.001953"/>
     <use xlink:href="#DejaVuSans-68" x="2931.210938"/>
     <use xlink:href="#DejaVuSans-72" x="2994.589844"/>
     <use xlink:href="#DejaVuSans-65" x="3033.453125"/>
     <use xlink:href="#DejaVuSans-61" x="3094.976562"/>
     <use xlink:href="#DejaVuSans-64" x="3156.255859"/>
     <use xlink:href="#DejaVuSans-20" x="3219.732422"/>
     <use xlink:href="#DejaVuSans-63" x="3251.519531"/>
     <use xlink:href="#DejaVuSans-6f" x="3306.5"/>
     <use xlink:href="#DejaVuSans-75" x="3367.681641"/>
     <use xlink:href="#DejaVuSans-6e" x="3431.060547"/>
     <use xlink:href="#DejaVuSans-74" x="3494.439453"/>
    </g>
   </g>
   <g id="legend_1">
    <g id="line2d_44">
     <path d="M 395.615625 35.469062 
L 405.615625 35.469062 
L 415.615625 35.469062 
" style="fill: none; stroke: #1f77b4; stroke-width: 1.5; stroke-linecap: square"/>
    </g>
    <g id="text_16">
     <!-- readahead 0, 1 thread -->
     <g transform="translate(423.615625 38.969062)scale(0.1 -0.1)">
      <use xlink:href="#DejaVuSans-72"/>
      <use xlink:href="#DejaVuSans-65" x="38.863281"/>
      <use xlink:href="#DejaVuSans-61" x="100.386719"/>
      <use xlink:href="#DejaVuSans-64" x="161.666016"/>
      <use xlink:href="#DejaVuSans-61" x="225.142578"/>
      <use xlink:href="#DejaVuSans-68" x="286.421875"/>
      <use xlink:href="#DejaVuSans-65" x="349.800781"/>
      <use xlink:href="#DejaVuSans-61" x="411.324219"/>
      <use xlink:href="#DejaVuSans-64" x="472.603516"/>
      <use xlink:href="#DejaVuSans-20" x="536.080078"/>
      <use xlink:href="#DejaVuSans-30" x="567.867188"/>
      <use xlink:href="#DejaVuSans-2c" x="631.490234"/>
      <use xlink:href="#DejaVuSans-20" x="663.277344"/>
      <use xlink:href="#DejaVuSans-31" x="695.064453"/>
      <use xlink:href="#DejaVuSans-20" x="758.6875"/>
      <use xlink:href="#DejaVuSans-74" x="790.474609"/>
      <use xlink:href="#DejaVuSans-68" x="829.683594"/>
      <use xlink:href="#DejaVuSans-72" x="893.0625"/>
      <use xlink:href="#DejaVuSans-65" x="931.925781"/>
      <use xlink:href="#DejaVuSans-61" x="993.449219"/>
      <use xlink:href="#DejaVuSans-64" x="1054.728516"/>
     </g>
    </g>
    <g id="line2d_45">
     <path d="M 395.615625 50.147187 
L 405.615625 50.147187 
L 415.615625 50.147187 
" style="fill: none; stroke: #ff7f0e; stroke-width: 1.5; stroke-linecap: square"/>
    </g>
    <g id="text_17">
     <!-- readahead 0, 2 threads -->
     <g transform="translate(423.615625 53.647187)scale(0.1 -0.1)">
      <use xlink:href="#DejaVuSans-72"/>
      <use xlink:href="#DejaVuSans-65" x="38.863281"/>
      <use xlink:href="#DejaVuSans-61" x="100.386719"/>
      <use xlink:href="#DejaVuSans-64" x="161.666016"/>
      <use xlink:href="#DejaVuSans-61" x="225.142578"/>
      <use xlink:href="#DejaVuSans-68" x="286.421875"/>
      <use xlink:href="#DejaVuSans-65" x="349.800781"/>
      <use xlink:href="#DejaVuSans-61" x="411.324219"/>
      <use xlink:href="#DejaVuSans-64" x="472.603516"/>
      <use xlink:href="#DejaVuSans-20" x="536.080078"/>
      <use xlink:href="#DejaVuSans-30" x="567.867188"/>
      <use xlink:href="#DejaVuSans-2c" x="631.490234"/>
      <use xlink:href="#DejaVuSans-20" x="663.277344"/>
      <use xlink:href="#DejaVuSans-32" x="695.064453"/>
      <use xlink:href="#DejaVuSans-20" x="758.6875"/>
      <use xlink:href="#DejaVuSans-74" x="790.474609"/>
      <use xlink:href="#DejaVuSans-68" x="829.683594"/>
      <use xlink:href="#DejaVuSans-72" x="893.0625"/>
      <use xlink:href="#DejaVuSans-65" x="931.925781"/>
      <use xlink:href="#DejaVuSans-61" x="993.449219"/>
      <use xlink:href="#DejaVuSans-64" x="1054.728516"/>
      <use xlink:href="#DejaVuSans-73" x="1118.205078"/>
     </g>
    </g>
    <g id="line2d_46">
     <path d="M 395.615625 64.825312 
L 405.615625 64.825312 
L 415.615625 64.825312 
" style="fill: none; stroke: #2ca02c; stroke-width: 1.5; stroke-linecap: square"/>
    </g>
    <g id="text_18">
     <!-- readahead 0, 4 threads -->
     <g transform="translate(423.615625 68.325312)scale(0.1 -0.1)">
      <use xlink:href="#DejaVuSans-72"/>
      <use xlink:href="#DejaVuSans-65" x="38.863281"/>
      <use xlink:href="#DejaVuSans-61" x="100.386719"/>
      <use xlink:href="#DejaVuSans-64" x="161.666016"/>
      <use xlink:href="#DejaVuSans-61" x="225.142578"/>
      <use xlink:href="#DejaVuSans-68" x="286.421875"/>
      <use xlink:href="#DejaVuSans-65" x="349.800781"/>
      <use xlink:href="#DejaVuSans-61" x="411.324219"/>
      <use xlink:href="#DejaVuSans-64" x="472.603516"/>
      <use xlink:href="#DejaVuSans-20" x="536.080078"/>
      <use xlink:href="#DejaVuSans-30" x="567.867188"/>
      <use xlink:href="#DejaVuSans-2c" x="631.490234"/>
      <use xlink:href="#DejaVuSans-20" x="663.277344"/>
      <use xlink:href="#DejaVuSans-34" x="695.064453"/>
      <use xlink:href="#DejaVuSans-20" x="758.6875"/>
      <use xlink:href="#DejaVuSans-74" x="790.474609"/>
      <use xlink:href="#DejaVuSans-68" x="829.683594"/>
      <use xlink:href="#DejaVuSans-72" x="893.0625"/>
      <use xlink:href="#DejaVuSans-65" x="931.925781"/>
      <use xlink:href="#DejaVuSans-61" x="993.449219"/>
      <use xlink:href="#DejaVuSans-64" x="1054.728516"/>
      <use xlink:href="#DejaVuSans-73" x="1118.205078"/>
     </g>
    </g>
    <g id="line2d_47">
     <path d="M 395.615625 79.503437 
L 405.615625 79.503437 
L 415.615625 79.503437 
" style="fill: none; stroke: #d62728; stroke-width: 1.5; stroke-linecap: square"/>
    </g>
    <g id="text_19">
     <!-- readahead 1, 1 thread -->
     <g transform="translate(423.615625 83.003437)scale(0.1 -0.1)">
      <use xlink:href="#DejaVuSans-72"/>
      <use xlink:href="#DejaVuSans-65" x="38.863281"/>
      <use xlink:href="#DejaVuSans-61" x="100.386719"/>
      <use xlink:href="#DejaVuSans-64" x="161.666016"/>
      <use xlink:href="#DejaVuSans-61" x="225.142578"/>
      <use xlink:href="#DejaVuSans-68" x="286.421875"/>
      <use xlink:href="#DejaVuSans-65" x="349.800781"/>
      <use xlink:href="#DejaVuSans-61" x="411.324219"/>
      <use xlink:href="#DejaVuSans-64" x="472.603516"/>
      <use xlink:href="#DejaVuSans-20" x="536.080078"/>
      <use xlink:href="#DejaVuSans-31" x="567.867188"/>
      <use xlink:href="#DejaVuSans-2c" x="631.490234"/>
      <use xlink:href="#DejaVuSans-20" x="663.277344"/>
      <use xlink:href="#DejaVuSans-31" x="695.064453"/>
      <use xlink:href="#DejaVuSans-20" x="758.6875"/>
      <use xlink:href="#DejaVuSans-74" x="790.474609"/>
      <use xlink:href="#DejaVuSans-68" x="829.683594"/>
      <use xlink:href="#DejaVuSans-72" x="893.0625"/>
      <use xlink:href="#DejaVuSans-65" x="931.925781"/>
      <use xlink:href="#DejaVuSans-61" x="993.449219"/>
      <use xlink:href="#DejaVuSans-64" x="1054.728516"/>
     </g>
    </g>
    <g id="line2d_48">
     <path d="M 395.615625 94.181562 
L 405.615625 94.181562 
L 415.615625 94.181562 
" style="fill: none; stroke: #9467bd; stroke-width: 1.5; stroke-linecap: square"/>
    </g>
    <g id="text_20">
     <!-- readahead 1, 2 threads -->
     <g transform="translate(423.615625 97.681562)scale(0.1 -0.1)">
      <use xlink:href="#DejaVuSans-72"/>
      <use xlink:href="#DejaVuSans-65" x="38.863281"/>
      <use xlink:href="#DejaVuSans-61" x="100.386719"/>
      <use xlink:href="#DejaVuSans-64" x="161.666016"/>
      <use xlink:href="#DejaVuSans-61" x="225.142578"/>
      <use xlink:href="#DejaVuSans-68" x="286.421875"/>
      <use xlink:href="#DejaVuSans-65" x="349.800781"/>
      <use xlink:href="#DejaVuSans-61" x="411.324219"/>
      <use xlink:href="#DejaVuSans-64" x="472.603516"/>
      <use xlink:href="#DejaVuSans-20" x="536.080078"/>
      <use xlink:href="#DejaVuSans-31" x="567.867188"/>
      <use xlink:href="#DejaVuSans-2c" x="631.490234"/>
      <use xlink:href="#DejaVuSans-20" x="663.277344"/>
      <use xlink:href="#DejaVuSans-32" x="695.064453"/>
      <use xlink:href="#DejaVuSans-20" x="758.6875"/>
      <use xlink:href="#DejaVuSans-74" x="790.474609"/>
      <use xlink:href="#DejaVuSans-68" x="829.683594"/>
      <use xlink:href="#DejaVuSans-72" x="893.0625"/>
      <use xlink:href="#DejaVuSans-65" x="931.925781"/>
      <use xlink:href="#DejaVuSans-61" x="993.449219"/>
      <use xlink:href="#DejaVuSans-64" x="1054.728516"/>
      <use xlink:href="#DejaVuSans-73" x="1118.205078"/>
     </g>
    </g>
    <g id="line2d_49">
     <path d="M 395.615625 108.859687 
L 405.615625 108.859687 
L 415.615625 108.859687 
" style="fill: none; stroke: #8c564b; stroke-width: 1.5; stroke-linecap: square"/>
    </g>
    <g id="text_21">
     <!-- readahead 1, 4 threads -->
     <g transform="translate(423.615625 112.359687)scale(0.1 -0.1)">
      <use xlink:href="#DejaVuSans-72"/>
      <use xlink:href="#DejaVuSans-65" x="38.863281"/>
      <use xlink:href="#DejaVuSans-61" x="100.386719"/>
      <use xlink:href="#DejaVuSans-64" x="161.666016"/>
      <use xlink:href="#DejaVuSans-61" x="225.142578"/>
      <use xlink:href="#DejaVuSans-68" x="286.421875"/>
      <use xlink:href="#DejaVuSans-65" x="349.800781"/>
      <use xlink:href="#DejaVuSans-61" x="411.324219"/>
      <use xlink:href="#DejaVuSans-64" x="472.603516"/>
      <use xlink:href="#DejaVuSans-20" x="536.080078"/>
      <use xlink:href="#DejaVuSans-31" x="567.867188"/>
      <use xlink:href="#DejaVuSans-2c" x="631.490234"/>
      <use xlink:href="#DejaVuSans-20" x="663.277344"/>
      <use xlink:href="#DejaVuSans-34" x="695.064453"/>
      <use xlink:href="#DejaVuSans-20" x="758.6875"/>
      <use xlink:href="#DejaVuSans-74" x="790.474609"/>
      <use xlink:href="#DejaVuSans-68" x="829.683594"/>
      <use xlink:href="#DejaVuSans-72" x="893.0625"/>
      <use xlink:href="#DejaVuSans-65" x="931.925781"/>
      <use xlink:href="#DejaVuSans-61" x="993.449219"/>
      <use xlink:href="#DejaVuSans-64" x="1054.728516"/>
      <use xlink:href="#DejaVuSans-73" x="1118.205078"/>
     </g>
    </g>
    <g id="line2d_50">
     <path d="M 395.615625 123.537812 
L 405.615625 123.537812 
L 415.615625 123.537812 
" style="fill: none; stroke: #e377c2; stroke-width: 1.5; stroke-linecap: square"/>
    </g>
    <g id="text_22">
     <!-- readahead 15, 1 thread -->
     <g transform="translate(423.615625 127.037812)scale(0.1 -0.1)">
      <use xlink:href="#DejaVuSans-72"/>
      <use xlink:href="#DejaVuSans-65" x="38.863281"/>
      <use xlink:href="#DejaVuSans-61" x="100.386719"/>
      <use xlink:href="#DejaVuSans-64" x="161.666016"/>
      <use xlink:href="#DejaVuSans-61" x="225.142578"/>
      <use xlink:href="#DejaVuSans-68" x="286.421875"/>
      <use xlink:href="#DejaVuSans-65" x="349.800781"/>
      <use xlink:href="#DejaVuSans-61" x="411.324219"/>
      <use xlink:href="#DejaVuSans-64" x="472.603516"/>
      <use xlink:href="#DejaVuSans-20" x="536.080078"/>
      <use xlink:href="#DejaVuSans-31" x="567.867188"/>
      <use xlink:href="#DejaVuSans-35" x="631.490234"/>
      <use xlink:href="#DejaVuSans-2c" x="695.113281"/>
      <use xlink:href="#DejaVuSans-20" x="726.900391"/>
      <use xlink:href="#DejaVuSans-31" x="758.6875"/>
      <use xlink:href="#DejaVuSans-20" x="822.310547"/>
      <use xlink:href="#DejaVuSans-74" x="854.097656"/>
      <use xlink:href="#DejaVuSans-68" x="893.306641"/>
      <use xlink:href="#DejaVuSans-72" x="956.685547"/>
      <use xlink:href="#DejaVuSans-65" x="995.548828"/>
      <use xlink:href="#DejaVuSans-61" x="1057.072266"/>
      <use xlink:href="#DejaVuSans-64" x="1118.351562"/>
     </g>
    </g>
    <g id="line2d_51">
     <path d="M 395.615625 138.215937 
L 405.615625 138.215937 
L 415.615625 138.215937 
" style="fill: none; stroke: #7f7f7f; stroke-width: 1.5; stroke-linecap: square"/>
    </g>
    <g id="text_23">
     <!-- readahead 15, 2 threads -->
     <g transform="translate(423.615625 141.715937)scale(0.1 -0.1)">
      <use xlink:href="#DejaVuSans-72"/>
      <use xlink:href="#DejaVuSans-65" x="38.863281"/>
      <use xlink:href="#DejaVuSans-61" x="100.386719"/>
      <use xlink:href="#DejaVuSans-64" x="161.666016"/>
      <use xlink:href="#DejaVuSans-61" x="225.142578"/>
      <use xlink:href="#DejaVuSans-68" x="286.421875"/>
      <use xlink:href="#DejaVuSans-65" x="349.800781"/>
      <use xlink:href="#DejaVuSans-61" x="411.324219"/>
      <use xlink:href="#DejaVuSans-64" x="472.603516"/>
      <use xlink:href="#DejaVuSans-20" x="536.080078"/>
      <use xlink:href="#DejaVuSans-31" x="567.867188"/>
      <use xlink:href="#DejaVuSans-35" x="631.490234"/>
      <use xlink:href="#DejaVuSans-2c" x="695.113281"/>
      <use xlink:href="#DejaVuSans-20" x="726.900391"/>
      <use xlink:href="#DejaVuSans-32" x="758.6875"/>
      <use xlink:href="#DejaVuSans-20" x="822.310547"/>
      <use xlink:href="#DejaVuSans-74" x="854.097656"/>
      <use xlink:href="#DejaVuSans-68" x="893.306641"/>
      <use xlink:href="#DejaVuSans-72" x="956.685547"/>
      <use xlink:href="#DejaVuSans-65" x="995.548828"/>
      <use xlink:href="#DejaVuSans-61" x="1057.072266"/>
      <use xlink:href="#DejaVuSans-64" x="1118.351562"/>
      <use xlink:href="#DejaVuSans-73" x="1181.828125"/>
     </g>
    </g>
    <g id="line2d_52">
     <path d="M 395.615625 152.894062 
L 405.615625 152.894062 
L 415.615625 152.894062 
" style="fill: none; stroke: #bcbd22; stroke-width: 1.5; stroke-linecap: square"/>
    </g>
    <g id="text_24">
     <!-- readahead 15, 4 threads -->
     <g transform="translate(423.615625 156.394062)scale(0.1 -0.1)">
      <use xlink:href="#DejaVuSans-72"/>
      <use xlink:href="#DejaVuSans-65" x="38.863281"/>
      <use xlink:href="#DejaVuSans-61" x="100.386719"/>
      <use xlink:href="#DejaVuSans-64" x="161.666016"/>
      <use xlink:href="#DejaVuSans-61" x="225.142578"/>
      <use xlink:href="#DejaVuSans-68" x="286.421875"/>
      <use xlink:href="#DejaVuSans-65" x="349.800781"/>
      <use xlink:href="#DejaVuSans-61" x="411.324219"/>
      <use xlink:href="#DejaVuSans-64" x="472.603516"/>
      <use xlink:href="#DejaVuSans-20" x="536.080078"/>
      <use xlink:href="#DejaVuSans-31" x="567.867188"/>
      <use xlink:href="#DejaVuSans-35" x="631.490234"/>
      <use xlink:href="#DejaVuSans-2c" x="695.113281"/>
      <use xlink:href="#DejaVuSans-20" x="726.900391"/>
      <use xlink:href="#DejaVuSans-34" x="758.6875"/>
      <use xlink:href="#DejaVuSans-20" x="822.310547"/>
      <use xlink:href="#DejaVuSans-74" x="854.097656"/>
      <use xlink:href="#DejaVuSans-68" x="893.306641"/>
      <use xlink:href="#DejaVuSans-72" x="956.685547"/>
      <use xlink:href="#DejaVuSans-65" x="995.548828"/>
      <use xlink:href="#DejaVuSans-61" x="1057.072266"/>
      <use xlink:href="#DejaVuSans-64" x="1118.351562"/>
      <use xlink:href="#DejaVuSans-73" x="1181.828125"/>
     </g>
    </g>
    <g id="line2d_53">
     <path d="M 395.615625 167.572187 
L 405.615625 167.572187 
L 415.615625 167.572187 
" style="fill: none; stroke: #17becf; stroke-width: 1.5; stroke-linecap: square"/>
    </g>
    <g id="text_25">
     <!-- readahead 2, 1 thread -->
     <g transform="translate(423.615625 171.072187)scale(0.1 -0.1)">
      <use xlink:href="#DejaVuSans-72"/>
      <use xlink:href="#DejaVuSans-65" x="38.863281"/>
      <use xlink:href="#DejaVuSans-61" x="100.386719"/>
      <use xlink:href="#DejaVuSans-64" x="161.666016"/>
      <use xlink:href="#DejaVuSans-61" x="225.142578"/>
      <use xlink:href="#DejaVuSans-68" x="286.421875"/>
      <use xlink:href="#DejaVuSans-65" x="349.800781"/>
      <use xlink:href="#DejaVuSans-61" x="411.324219"/>
      <use xlink:href="#DejaVuSans-64" x="472.603516"/>
      <use xlink:href="#DejaVuSans-20" x="536.080078"/>
      <use xlink:href="#DejaVuSans-32" x="567.867188"/>
      <use xlink:href="#DejaVuSans-2c" x="631.490234"/>
      <use xlink:href="#DejaVuSans-20" x="663.277344"/>
      <use xlink:href="#DejaVuSans-31" x="695.064453"/>
      <use xlink:href="#DejaVuSans-20" x="758.6875"/>
      <use xlink:href="#DejaVuSans-74" x="790.474609"/>
      <use xlink:href="#DejaVuSans-68" x="829.683594"/>
      <use xlink:href="#DejaVuSans-72" x="893.0625"/>
      <use xlink:href="#DejaVuSans-65" x="931.925781"/>
      <use xlink:href="#DejaVuSans-61" x="993.449219"/>
      <use xlink:href="#DejaVuSans-64" x="1054.728516"/>
     </g>
    </g>
    <g id="line2d_54">
     <path d="M 395.615625 182.250312 
L 405.615625 182.250312 
L 415.615625 182.250312 
" style="fill: none; stroke: #1f77b4; stroke-width: 1.5; stroke-linecap: square"/>
    </g>
    <g id="text_26">
     <!-- readahead 2, 2 threads -->
     <g transform="translate(423.615625 185.750312)scale(0.1 -0.1)">
      <use xlink:href="#DejaVuSans-72"/>
      <use xlink:href="#DejaVuSans-65" x="38.863281"/>
      <use xlink:href="#DejaVuSans-61" x="100.386719"/>
      <use xlink:href="#DejaVuSans-64" x="161.666016"/>
      <use xlink:href="#DejaVuSans-61" x="225.142578"/>
      <use xlink:href="#DejaVuSans-68" x="286.421875"/>
      <use xlink:href="#DejaVuSans-65" x="349.800781"/>
      <use xlink:href="#DejaVuSans-61" x="411.324219"/>
      <use xlink:href="#DejaVuSans-64" x="472.603516"/>
      <use xlink:href="#DejaVuSans-20" x="536.080078"/>
      <use xlink:href="#DejaVuSans-32" x="567.867188"/>
      <use xlink:href="#DejaVuSans-2c" x="631.490234"/>
      <use xlink:href="#DejaVuSans-20" x="663.277344"/>
      <use xlink:href="#DejaVuSans-32" x="695.064453"/>
      <use xlink:href="#DejaVuSans-20" x="758.6875"/>
      <use xlink:href="#DejaVuSans-74" x="790.474609"/>
      <use xlink:href="#DejaVuSans-68" x="829.683594"/>
      <use xlink:href="#DejaVuSans-72" x="893.0625"/>
      <use xlink:href="#DejaVuSans-65" x="931.925781"/>
      <use xlink:href="#DejaVuSans-61" x="993.449219"/>
      <use xlink:href="#DejaVuSans-64" x="1054.728516"/>
      <use xlink:href="#DejaVuSans-73" x="1118.205078"/>
     </g>
    </g>
    <g id="line2d_55">
     <path d="M 395.615625 196.928437 
L 405.615625 196.928437 
L 415.615625 196.928437 
" style="fill: none; stroke: #ff7f0e; stroke-width: 1.5; stroke-linecap: square"/>
    </g>
    <g id="text_27">
     <!-- readahead 2, 4 threads -->
     <g transform="translate(423.615625 200.428437)scale(0.1 -0.1)">
      <use xlink:href="#DejaVuSans-72"/>
      <use xlink:href="#DejaVuSans-65" x="38.863281"/>
      <use xlink:href="#DejaVuSans-61" x="100.386719"/>
      <use xlink:href="#DejaVuSans-64" x="161.666016"/>
      <use xlink:href="#DejaVuSans-61" x="225.142578"/>
      <use xlink:href="#DejaVuSans-68" x="286.421875"/>
      <use xlink:href="#DejaVuSans-65" x="349.800781"/>
      <use xlink:href="#DejaVuSans-61" x="411.324219"/>
      <use xlink:href="#DejaVuSans-64" x="472.603516"/>
      <use xlink:href="#DejaVuSans-20" x="536.080078"/>
      <use xlink:href="#DejaVuSans-32" x="567.867188"/>
      <use xlink:href="#DejaVuSans-2c" x="631.490234"/>
      <use xlink:href="#DejaVuSans-20" x="663.277344"/>
      <use xlink:href="#DejaVuSans-34" x="695.064453"/>
      <use xlink:href="#DejaVuSans-20" x="758.6875"/>
      <use xlink:href="#DejaVuSans-74" x="790.474609"/>
      <use xlink:href="#DejaVuSans-68" x="829.683594"/>
      <use xlink:href="#DejaVuSans-72" x="893.0625"/>
      <use xlink:href="#DejaVuSans-65" x="931.925781"/>
      <use xlink:href="#DejaVuSans-61" x="993.449219"/>
      <use xlink:href="#DejaVuSans-64" x="1054.728516"/>
      <use xlink:href="#DejaVuSans-73" x="1118.205078"/>
     </g>
    </g>
    <g id="line2d_56">
     <path d="M 395.615625 211.606562 
L 405.615625 211.606562 
L 415.615625 211.606562 
" style="fill: none; stroke: #2ca02c; stroke-width: 1.5; stroke-linecap: square"/>
    </g>
    <g id="text_28">
     <!-- readahead 2, 8 threads -->
     <g transform="translate(423.615625 215.106562)scale(0.1 -0.1)">
      <use xlink:href="#DejaVuSans-72"/>
      <use xlink:href="#DejaVuSans-65" x="38.863281"/>
      <use xlink:href="#DejaVuSans-61" x="100.386719"/>
      <use xlink:href="#DejaVuSans-64" x="161.666016"/>
      <use xlink:href="#DejaVuSans-61" x="225.142578"/>
      <use xlink:href="#DejaVuSans-68" x="286.421875"/>
      <use xlink:href="#DejaVuSans-65" x="349.800781"/>
      <use xlink:href="#DejaVuSans-61" x="411.324219"/>
      <use xlink:href="#DejaVuSans-64" x="472.603516"/>
      <use xlink:href="#DejaVuSans-20" x="536.080078"/>
      <use xlink:href="#DejaVuSans-32" x="567.867188"/>
      <use xlink:href="#DejaVuSans-2c" x="631.490234"/>
      <use xlink:href="#DejaVuSans-20" x="663.277344"/>
      <use xlink:href="#DejaVuSans-38" x="695.064453"/>
      <use xlink:href="#DejaVuSans-20" x="758.6875"/>
      <use xlink:href="#DejaVuSans-74" x="790.474609"/>
      <use xlink:href="#DejaVuSans-68" x="829.683594"/>
      <use xlink:href="#DejaVuSans-72" x="893.0625"/>
      <use xlink:href="#DejaVuSans-65" x="931.925781"/>
      <use xlink:href="#DejaVuSans-61" x="993.449219"/>
      <use xlink:href="#DejaVuSans-64" x="1054.728516"/>
      <use xlink:href="#DejaVuSans-73" x="1118.205078"/>
     </g>
    </g>
    <g id="line2d_57">
     <path d="M 395.615625 226.284687 
L 405.615625 226.284687 
L 415.615625 226.284687 
" style="fill: none; stroke: #d62728; stroke-width: 1.5; stroke-linecap: square"/>
    </g>
    <g id="text_29">
     <!-- readahead 3, 1 thread -->
     <g transform="translate(423.615625 229.784687)scale(0.1 -0.1)">
      <use xlink:href="#DejaVuSans-72"/>
      <use xlink:href="#DejaVuSans-65" x="38.863281"/>
      <use xlink:href="#DejaVuSans-61" x="100.386719"/>
      <use xlink:href="#DejaVuSans-64" x="161.666016"/>
      <use xlink:href="#DejaVuSans-61" x="225.142578"/>
      <use xlink:href="#DejaVuSans-68" x="286.421875"/>
      <use xlink:href="#DejaVuSans-65" x="349.800781"/>
      <use xlink:href="#DejaVuSans-61" x="411.324219"/>
      <use xlink:href="#DejaVuSans-64" x="472.603516"/>
      <use xlink:href="#DejaVuSans-20" x="536.080078"/>
      <use xlink:href="#DejaVuSans-33" x="567.867188"/>
      <use xlink:href="#DejaVuSans-2c" x="631.490234"/>
      <use xlink:href="#DejaVuSans-20" x="663.277344"/>
      <use xlink:href="#DejaVuSans-31" x="695.064453"/>
      <use xlink:href="#DejaVuSans-20" x="758.6875"/>
      <use xlink:href="#DejaVuSans-74" x="790.474609"/>
      <use xlink:href="#DejaVuSans-68" x="829.683594"/>
      <use xlink:href="#DejaVuSans-72" x="893.0625"/>
      <use xlink:href="#DejaVuSans-65" x="931.925781"/>
      <use xlink:href="#DejaVuSans-61" x="993.449219"/>
      <use xlink:href="#DejaVuSans-64" x="1054.728516"/>
     </g>
    </g>
    <g id="line2d_58">
     <path d="M 395.615625 240.962812 
L 405.615625 240.962812 
L 415.615625 240.962812 
" style="fill: none; stroke: #9467bd; stroke-width: 1.5; stroke-linecap: square"/>
    </g>
    <g id="text_30">
     <!-- readahead 3, 2 threads -->
     <g transform="translate(423.615625 244.462812)scale(0.1 -0.1)">
      <use xlink:href="#DejaVuSans-72"/>
      <use xlink:href="#DejaVuSans-65" x="38.863281"/>
      <use xlink:href="#DejaVuSans-61" x="100.386719"/>
      <use xlink:href="#DejaVuSans-64" x="161.666016"/>
      <use xlink:href="#DejaVuSans-61" x="225.142578"/>
      <use xlink:href="#DejaVuSans-68" x="286.421875"/>
      <use xlink:href="#DejaVuSans-65" x="349.800781"/>
      <use xlink:href="#DejaVuSans-61" x="411.324219"/>
      <use xlink:href="#DejaVuSans-64" x="472.603516"/>
      <use xlink:href="#DejaVuSans-20" x="536.080078"/>
      <use xlink:href="#DejaVuSans-33" x="567.867188"/>
      <use xlink:href="#DejaVuSans-2c" x="631.490234"/>
      <use xlink:href="#DejaVuSans-20" x="663.277344"/>
      <use xlink:href="#DejaVuSans-32" x="695.064453"/>
      <use xlink:href="#DejaVuSans-20" x="758.6875"/>
      <use xlink:href="#DejaVuSans-74" x="790.474609"/>
      <use xlink:href="#DejaVuSans-68" x="829.683594"/>
      <use xlink:href="#DejaVuSans-72" x="893.0625"/>
      <use xlink:href="#DejaVuSans-65" x="931.925781"/>
      <use xlink:href="#DejaVuSans-61" x="993.449219"/>
      <use xlink:href="#DejaVuSans-64" x="1054.728516"/>
      <use xlink:href="#DejaVuSans-73" x="1118.205078"/>
     </g>
    </g>
    <g id="line2d_59">
     <path d="M 395.615625 255.640937 
L 405.615625 255.640937 
L 415.615625 255.640937 
" style="fill: none; stroke: #8c564b; stroke-width: 1.5; stroke-linecap: square"/>
    </g>
    <g id="text_31">
     <!-- readahead 3, 4 threads -->
     <g transform="translate(423.615625 259.140937)scale(0.1 -0.1)">
      <use xlink:href="#DejaVuSans-72"/>
      <use xlink:href="#DejaVuSans-65" x="38.863281"/>
      <use xlink:href="#DejaVuSans-61" x="100.386719"/>
      <use xlink:href="#DejaVuSans-64" x="161.666016"/>
      <use xlink:href="#DejaVuSans-61" x="225.142578"/>
      <use xlink:href="#DejaVuSans-68" x="286.421875"/>
      <use xlink:href="#DejaVuSans-65" x="349.800781"/>
      <use xlink:href="#DejaVuSans-61" x="411.324219"/>
      <use xlink:href="#DejaVuSans-64" x="472.603516"/>
      <use xlink:href="#DejaVuSans-20" x="536.080078"/>
      <use xlink:href="#DejaVuSans-33" x="567.867188"/>
      <use xlink:href="#DejaVuSans-2c" x="631.490234"/>
      <use xlink:href="#DejaVuSans-20" x="663.277344"/>
      <use xlink:href="#DejaVuSans-34" x="695.064453"/>
      <use xlink:href="#DejaVuSans-20" x="758.6875"/>
      <use xlink:href="#DejaVuSans-74" x="790.474609"/>
      <use xlink:href="#DejaVuSans-68" x="829.683594"/>
      <use xlink:href="#DejaVuSans-72" x="893.0625"/>
      <use xlink:href="#DejaVuSans-65" x="931.925781"/>
      <use xlink:href="#DejaVuSans-61" x="993.449219"/>
      <use xlink:href="#DejaVuSans-64" x="1054.728516"/>
      <use xlink:href="#DejaVuSans-73" x="1118.205078"/>
     </g>
    </g>
    <g id="line2d_60">
     <path d="M 395.615625 270.319062 
L 405.615625 270.319062 
L 415.615625 270.319062 
" style="fill: none; stroke: #e377c2; stroke-width: 1.5; stroke-linecap: square"/>
    </g>
    <g id="text_32">
     <!-- readahead 6, 1 thread -->
     <g transform="translate(423.615625 273.819062)scale(0.1 -0.1)">
      <use xlink:href="#DejaVuSans-72"/>
      <use xlink:href="#DejaVuSans-65" x="38.863281"/>
      <use xlink:href="#DejaVuSans-61" x="100.386719"/>
      <use xlink:href="#DejaVuSans-64" x="161.666016"/>
      <use xlink:href="#DejaVuSans-61" x="225.142578"/>
      <use xlink:href="#DejaVuSans-68" x="286.421875"/>
      <use xlink:href="#DejaVuSans-65" x="349.800781"/>
      <use xlink:href="#DejaVuSans-61" x="411.324219"/>
      <use xlink:href="#DejaVuSans-64" x="472.603516"/>
      <use xlink:href="#DejaVuSans-20" x="536.080078"/>
      <use xlink:href="#DejaVuSans-36" x="567.867188"/>
      <use xlink:href="#DejaVuSans-2c" x="631.490234"/>
      <use xlink:href="#DejaVuSans-20" x="663.277344"/>
      <use xlink:href="#DejaVuSans-31" x="695.064453"/>
      <use xlink:href="#DejaVuSans-20" x="758.6875"/>
      <use xlink:href="#DejaVuSans-74" x="790.474609"/>
      <use xlink:href="#DejaVuSans-68" x="829.683594"/>
      <use xlink:href="#DejaVuSans-72" x="893.0625"/>
      <use xlink:href="#DejaVuSans-65" x="931.925781"/>
      <use xlink:href="#DejaVuSans-61" x="993.449219"/>
      <use xlink:href="#DejaVuSans-64" x="1054.728516"/>
     </g>
    </g>
    <g id="line2d_61">
     <path d="M 395.615625 284.997187 
L 405.615625 284.997187 
L 415.615625 284.997187 
" style="fill: none; stroke: #7f7f7f; stroke-width: 1.5; stroke-linecap: square"/>
    </g>
    <g id="text_33">
     <!-- readahead 6, 2 threads -->
     <g transform="translate(423.615625 288.497187)scale(0.1 -0.1)">
      <use xlink:href="#DejaVuSans-72"/>
      <use xlink:href="#DejaVuSans-65" x="38.863281"/>
      <use xlink:href="#DejaVuSans-61" x="100.386719"/>
      <use xlink:href="#DejaVuSans-64" x="161.666016"/>
      <use xlink:href="#DejaVuSans-61" x="225.142578"/>
      <use xlink:href="#DejaVuSans-68" x="286.421875"/>
      <use xlink:href="#DejaVuSans-65" x="349.800781"/>
      <use xlink:href="#DejaVuSans-61" x="411.324219"/>
      <use xlink:href="#DejaVuSans-64" x="472.603516"/>
      <use xlink:href="#DejaVuSans-20" x="536.080078"/>
      <use xlink:href="#DejaVuSans-36" x="567.867188"/>
      <use xlink:href="#DejaVuSans-2c" x="631.490234"/>
      <use xlink:href="#DejaVuSans-20" x="663.277344"/>
      <use xlink:href="#DejaVuSans-32" x="695.064453"/>
      <use xlink:href="#DejaVuSans-20" x="758.6875"/>
      <use xlink:href="#DejaVuSans-74" x="790.474609"/>
      <use xlink:href="#DejaVuSans-68" x="829.683594"/>
      <use xlink:href="#DejaVuSans-72" x="893.0625"/>
      <use xlink:href="#DejaVuSans-65" x="931.925781"/>
      <use xlink:href="#DejaVuSans-61" x="993.449219"/>
      <use xlink:href="#DejaVuSans-64" x="1054.728516"/>
      <use xlink:href="#DejaVuSans-73" x="1118.205078"/>
     </g>
    </g>
    <g id="line2d_62">
     <path d="M 395.615625 299.675312 
L 405.615625 299.675312 
L 415.615625 299.675312 
" style="fill: none; stroke: #bcbd22; stroke-width: 1.5; stroke-linecap: square"/>
    </g>
    <g id="text_34">
     <!-- readahead 6, 4 threads -->
     <g transform="translate(423.615625 303.175312)scale(0.1 -0.1)">
      <use xlink:href="#DejaVuSans-72"/>
      <use xlink:href="#DejaVuSans-65" x="38.863281"/>
      <use xlink:href="#DejaVuSans-61" x="100.386719"/>
      <use xlink:href="#DejaVuSans-64" x="161.666016"/>
      <use xlink:href="#DejaVuSans-61" x="225.142578"/>
      <use xlink:href="#DejaVuSans-68" x="286.421875"/>
      <use xlink:href="#DejaVuSans-65" x="349.800781"/>
      <use xlink:href="#DejaVuSans-61" x="411.324219"/>
      <use xlink:href="#DejaVuSans-64" x="472.603516"/>
      <use xlink:href="#DejaVuSans-20" x="536.080078"/>
      <use xlink:href="#DejaVuSans-36" x="567.867188"/>
      <use xlink:href="#DejaVuSans-2c" x="631.490234"/>
      <use xlink:href="#DejaVuSans-20" x="663.277344"/>
      <use xlink:href="#DejaVuSans-34" x="695.064453"/>
      <use xlink:href="#DejaVuSans-20" x="758.6875"/>
      <use xlink:href="#DejaVuSans-74" x="790.474609"/>
      <use xlink:href="#DejaVuSans-68" x="829.683594"/>
      <use xlink:href="#DejaVuSans-72" x="893.0625"/>
      <use xlink:href="#DejaVuSans-65" x="931.925781"/>
      <use xlink:href="#DejaVuSans-61" x="993.449219"/>
      <use xlink:href="#DejaVuSans-64" x="1054.728516"/>
      <use xlink:href="#DejaVuSans-73" x="1118.205078"/>
     </g>
    </g>
   </g>
  </g>
 </g>
 <defs>
  <clipPath id="pfa62e48d25">
   <rect x="51.815625" y="22.370625" width="334.8" height="249.48"/>
  </clipPath>
 </defs>
</svg>
