<?xml version="1.0" encoding="utf-8" standalone="no"?>
<!DOCTYPE svg PUBLIC "-//W3C//DTD SVG 1.1//EN"
  "http://www.w3.org/Graphics/SVG/1.1/DTD/svg11.dtd">
<svg xmlns:xlink="http://www.w3.org/1999/xlink" width="558.209375pt" height="309.406875pt" viewBox="0 0 558.209375 309.406875" xmlns="http://www.w3.org/2000/svg" version="1.1">
 <metadata>
  <rdf:RDF xmlns:dc="http://purl.org/dc/elements/1.1/" xmlns:cc="http://creativecommons.org/ns#" xmlns:rdf="http://www.w3.org/1999/02/22-rdf-syntax-ns#">
   <cc:Work>
    <dc:type rdf:resource="http://purl.org/dc/dcmitype/StillImage"/>
    <dc:date>2022-02-23T21:59:22.547209</dc:date>
    <dc:format>image/svg+xml</dc:format>
    <dc:creator>
     <cc:Agent>
      <dc:title>Matplotlib v3.5.1, https://matplotlib.org/</dc:title>
     </cc:Agent>
    </dc:creator>
   </cc:Work>
  </rdf:RDF>
 </metadata>
 <defs>
  <style type="text/css">*{stroke-linejoin: round; stroke-linecap: butt}</style>
 </defs>
 <g id="figure_1">
  <g id="patch_1">
   <path d="M 0 309.406875 
L 558.209375 309.406875 
L 558.209375 0 
L 0 0 
z
" style="fill: #ffffff"/>
  </g>
  <g id="axes_1">
   <g id="patch_2">
    <path d="M 51.815625 271.850625 
L 386.615625 271.850625 
L 386.615625 22.370625 
L 51.815625 22.370625 
z
" style="fill: #ffffff"/>
   </g>
   <g id="matplotlib.axis_1">
    <g id="xtick_1">
     <g id="line2d_1">
      <path d="M 67.033807 271.850625 
L 67.033807 22.370625 
" clip-path="url(#pf3bd8f0d66)" style="fill: none; stroke: #b0b0b0; stroke-width: 0.8; stroke-linecap: square"/>
     </g>
     <g id="line2d_2">
      <defs>
       <path id="m8bf164b83b" d="M 0 0 
L 0 3.5 
" style="stroke: #000000; stroke-width: 0.8"/>
      </defs>
      <g>
       <use xlink:href="#m8bf164b83b" x="67.033807" y="271.850625" style="stroke: #000000; stroke-width: 0.8"/>
      </g>
     </g>
     <g id="text_1">
      <!-- 0 -->
      <g transform="translate(63.852557 286.449062)scale(0.1 -0.1)">
       <defs>
        <path id="DejaVuSans-30" d="M 2034 4250 
Q 1547 4250 1301 3770 
Q 1056 3291 1056 2328 
Q 1056 1369 1301 889 
Q 1547 409 2034 409 
Q 2525 409 2770 889 
Q 3016 1369 3016 2328 
Q 3016 3291 2770 3770 
Q 2525 4250 2034 4250 
z
M 2034 4750 
Q 2819 4750 3233 4129 
Q 3647 3509 3647 2328 
Q 3647 1150 3233 529 
Q 2819 -91 2034 -91 
Q 1250 -91 836 529 
Q 422 1150 422 2328 
Q 422 3509 836 4129 
Q 1250 4750 2034 4750 
z
" transform="scale(0.015625)"/>
       </defs>
       <use xlink:href="#DejaVuSans-30"/>
      </g>
     </g>
    </g>
    <g id="xtick_2">
     <g id="line2d_3">
      <path d="M 117.76108 271.850625 
L 117.76108 22.370625 
" clip-path="url(#pf3bd8f0d66)" style="fill: none; stroke: #b0b0b0; stroke-width: 0.8; stroke-linecap: square"/>
     </g>
     <g id="line2d_4">
      <g>
       <use xlink:href="#m8bf164b83b" x="117.76108" y="271.850625" style="stroke: #000000; stroke-width: 0.8"/>
      </g>
     </g>
     <g id="text_2">
      <!-- 5000 -->
      <g transform="translate(105.03608 286.449062)scale(0.1 -0.1)">
       <defs>
        <path id="DejaVuSans-35" d="M 691 4666 
L 3169 4666 
L 3169 4134 
L 1269 4134 
L 1269 2991 
Q 1406 3038 1543 3061 
Q 1681 3084 1819 3084 
Q 2600 3084 3056 2656 
Q 3513 2228 3513 1497 
Q 3513 744 3044 326 
Q 2575 -91 1722 -91 
Q 1428 -91 1123 -41 
Q 819 9 494 109 
L 494 744 
Q 775 591 1075 516 
Q 1375 441 1709 441 
Q 2250 441 2565 725 
Q 2881 1009 2881 1497 
Q 2881 1984 2565 2268 
Q 2250 2553 1709 2553 
Q 1456 2553 1204 2497 
Q 953 2441 691 2322 
L 691 4666 
z
" transform="scale(0.015625)"/>
       </defs>
       <use xlink:href="#DejaVuSans-35"/>
       <use xlink:href="#DejaVuSans-30" x="63.623047"/>
       <use xlink:href="#DejaVuSans-30" x="127.246094"/>
       <use xlink:href="#DejaVuSans-30" x="190.869141"/>
      </g>
     </g>
    </g>
    <g id="xtick_3">
     <g id="line2d_5">
      <path d="M 168.488352 271.850625 
L 168.488352 22.370625 
" clip-path="url(#pf3bd8f0d66)" style="fill: none; stroke: #b0b0b0; stroke-width: 0.8; stroke-linecap: square"/>
     </g>
     <g id="line2d_6">
      <g>
       <use xlink:href="#m8bf164b83b" x="168.488352" y="271.850625" style="stroke: #000000; stroke-width: 0.8"/>
      </g>
     </g>
     <g id="text_3">
      <!-- 10000 -->
      <g transform="translate(152.582102 286.449062)scale(0.1 -0.1)">
       <defs>
        <path id="DejaVuSans-31" d="M 794 531 
L 1825 531 
L 1825 4091 
L 703 3866 
L 703 4441 
L 1819 4666 
L 2450 4666 
L 2450 531 
L 3481 531 
L 3481 0 
L 794 0 
L 794 531 
z
" transform="scale(0.015625)"/>
       </defs>
       <use xlink:href="#DejaVuSans-31"/>
       <use xlink:href="#DejaVuSans-30" x="63.623047"/>
       <use xlink:href="#DejaVuSans-30" x="127.246094"/>
       <use xlink:href="#DejaVuSans-30" x="190.869141"/>
       <use xlink:href="#DejaVuSans-30" x="254.492188"/>
      </g>
     </g>
    </g>
    <g id="xtick_4">
     <g id="line2d_7">
      <path d="M 219.215625 271.850625 
L 219.215625 22.370625 
" clip-path="url(#pf3bd8f0d66)" style="fill: none; stroke: #b0b0b0; stroke-width: 0.8; stroke-linecap: square"/>
     </g>
     <g id="line2d_8">
      <g>
       <use xlink:href="#m8bf164b83b" x="219.215625" y="271.850625" style="stroke: #000000; stroke-width: 0.8"/>
      </g>
     </g>
     <g id="text_4">
      <!-- 15000 -->
      <g transform="translate(203.309375 286.449062)scale(0.1 -0.1)">
       <use xlink:href="#DejaVuSans-31"/>
       <use xlink:href="#DejaVuSans-35" x="63.623047"/>
       <use xlink:href="#DejaVuSans-30" x="127.246094"/>
       <use xlink:href="#DejaVuSans-30" x="190.869141"/>
       <use xlink:href="#DejaVuSans-30" x="254.492188"/>
      </g>
     </g>
    </g>
    <g id="xtick_5">
     <g id="line2d_9">
      <path d="M 269.942898 271.850625 
L 269.942898 22.370625 
" clip-path="url(#pf3bd8f0d66)" style="fill: none; stroke: #b0b0b0; stroke-width: 0.8; stroke-linecap: square"/>
     </g>
     <g id="line2d_10">
      <g>
       <use xlink:href="#m8bf164b83b" x="269.942898" y="271.850625" style="stroke: #000000; stroke-width: 0.8"/>
      </g>
     </g>
     <g id="text_5">
      <!-- 20000 -->
      <g transform="translate(254.036648 286.449062)scale(0.1 -0.1)">
       <defs>
        <path id="DejaVuSans-32" d="M 1228 531 
L 3431 531 
L 3431 0 
L 469 0 
L 469 531 
Q 828 903 1448 1529 
Q 2069 2156 2228 2338 
Q 2531 2678 2651 2914 
Q 2772 3150 2772 3378 
Q 2772 3750 2511 3984 
Q 2250 4219 1831 4219 
Q 1534 4219 1204 4116 
Q 875 4013 500 3803 
L 500 4441 
Q 881 4594 1212 4672 
Q 1544 4750 1819 4750 
Q 2544 4750 2975 4387 
Q 3406 4025 3406 3419 
Q 3406 3131 3298 2873 
Q 3191 2616 2906 2266 
Q 2828 2175 2409 1742 
Q 1991 1309 1228 531 
z
" transform="scale(0.015625)"/>
       </defs>
       <use xlink:href="#DejaVuSans-32"/>
       <use xlink:href="#DejaVuSans-30" x="63.623047"/>
       <use xlink:href="#DejaVuSans-30" x="127.246094"/>
       <use xlink:href="#DejaVuSans-30" x="190.869141"/>
       <use xlink:href="#DejaVuSans-30" x="254.492188"/>
      </g>
     </g>
    </g>
    <g id="xtick_6">
     <g id="line2d_11">
      <path d="M 320.67017 271.850625 
L 320.67017 22.370625 
" clip-path="url(#pf3bd8f0d66)" style="fill: none; stroke: #b0b0b0; stroke-width: 0.8; stroke-linecap: square"/>
     </g>
     <g id="line2d_12">
      <g>
       <use xlink:href="#m8bf164b83b" x="320.67017" y="271.850625" style="stroke: #000000; stroke-width: 0.8"/>
      </g>
     </g>
     <g id="text_6">
      <!-- 25000 -->
      <g transform="translate(304.76392 286.449062)scale(0.1 -0.1)">
       <use xlink:href="#DejaVuSans-32"/>
       <use xlink:href="#DejaVuSans-35" x="63.623047"/>
       <use xlink:href="#DejaVuSans-30" x="127.246094"/>
       <use xlink:href="#DejaVuSans-30" x="190.869141"/>
       <use xlink:href="#DejaVuSans-30" x="254.492188"/>
      </g>
     </g>
    </g>
    <g id="xtick_7">
     <g id="line2d_13">
      <path d="M 371.397443 271.850625 
L 371.397443 22.370625 
" clip-path="url(#pf3bd8f0d66)" style="fill: none; stroke: #b0b0b0; stroke-width: 0.8; stroke-linecap: square"/>
     </g>
     <g id="line2d_14">
      <g>
       <use xlink:href="#m8bf164b83b" x="371.397443" y="271.850625" style="stroke: #000000; stroke-width: 0.8"/>
      </g>
     </g>
     <g id="text_7">
      <!-- 30000 -->
      <g transform="translate(355.491193 286.449062)scale(0.1 -0.1)">
       <defs>
        <path id="DejaVuSans-33" d="M 2597 2516 
Q 3050 2419 3304 2112 
Q 3559 1806 3559 1356 
Q 3559 666 3084 287 
Q 2609 -91 1734 -91 
Q 1441 -91 1130 -33 
Q 819 25 488 141 
L 488 750 
Q 750 597 1062 519 
Q 1375 441 1716 441 
Q 2309 441 2620 675 
Q 2931 909 2931 1356 
Q 2931 1769 2642 2001 
Q 2353 2234 1838 2234 
L 1294 2234 
L 1294 2753 
L 1863 2753 
Q 2328 2753 2575 2939 
Q 2822 3125 2822 3475 
Q 2822 3834 2567 4026 
Q 2313 4219 1838 4219 
Q 1578 4219 1281 4162 
Q 984 4106 628 3988 
L 628 4550 
Q 988 4650 1302 4700 
Q 1616 4750 1894 4750 
Q 2613 4750 3031 4423 
Q 3450 4097 3450 3541 
Q 3450 3153 3228 2886 
Q 3006 2619 2597 2516 
z
" transform="scale(0.015625)"/>
       </defs>
       <use xlink:href="#DejaVuSans-33"/>
       <use xlink:href="#DejaVuSans-30" x="63.623047"/>
       <use xlink:href="#DejaVuSans-30" x="127.246094"/>
       <use xlink:href="#DejaVuSans-30" x="190.869141"/>
       <use xlink:href="#DejaVuSans-30" x="254.492188"/>
      </g>
     </g>
    </g>
    <g id="text_8">
     <!-- Blocks (+10.5M) -->
     <g transform="translate(177.960156 300.127187)scale(0.1 -0.1)">
      <defs>
       <path id="DejaVuSans-42" d="M 1259 2228 
L 1259 519 
L 2272 519 
Q 2781 519 3026 730 
Q 3272 941 3272 1375 
Q 3272 1813 3026 2020 
Q 2781 2228 2272 2228 
L 1259 2228 
z
M 1259 4147 
L 1259 2741 
L 2194 2741 
Q 2656 2741 2882 2914 
Q 3109 3088 3109 3444 
Q 3109 3797 2882 3972 
Q 2656 4147 2194 4147 
L 1259 4147 
z
M 628 4666 
L 2241 4666 
Q 2963 4666 3353 4366 
Q 3744 4066 3744 3513 
Q 3744 3084 3544 2831 
Q 3344 2578 2956 2516 
Q 3422 2416 3680 2098 
Q 3938 1781 3938 1306 
Q 3938 681 3513 340 
Q 3088 0 2303 0 
L 628 0 
L 628 4666 
z
" transform="scale(0.015625)"/>
       <path id="DejaVuSans-6c" d="M 603 4863 
L 1178 4863 
L 1178 0 
L 603 0 
L 603 4863 
z
" transform="scale(0.015625)"/>
       <path id="DejaVuSans-6f" d="M 1959 3097 
Q 1497 3097 1228 2736 
Q 959 2375 959 1747 
Q 959 1119 1226 758 
Q 1494 397 1959 397 
Q 2419 397 2687 759 
Q 2956 1122 2956 1747 
Q 2956 2369 2687 2733 
Q 2419 3097 1959 3097 
z
M 1959 3584 
Q 2709 3584 3137 3096 
Q 3566 2609 3566 1747 
Q 3566 888 3137 398 
Q 2709 -91 1959 -91 
Q 1206 -91 779 398 
Q 353 888 353 1747 
Q 353 2609 779 3096 
Q 1206 3584 1959 3584 
z
" transform="scale(0.015625)"/>
       <path id="DejaVuSans-63" d="M 3122 3366 
L 3122 2828 
Q 2878 2963 2633 3030 
Q 2388 3097 2138 3097 
Q 1578 3097 1268 2742 
Q 959 2388 959 1747 
Q 959 1106 1268 751 
Q 1578 397 2138 397 
Q 2388 397 2633 464 
Q 2878 531 3122 666 
L 3122 134 
Q 2881 22 2623 -34 
Q 2366 -91 2075 -91 
Q 1284 -91 818 406 
Q 353 903 353 1747 
Q 353 2603 823 3093 
Q 1294 3584 2113 3584 
Q 2378 3584 2631 3529 
Q 2884 3475 3122 3366 
z
" transform="scale(0.015625)"/>
       <path id="DejaVuSans-6b" d="M 581 4863 
L 1159 4863 
L 1159 1991 
L 2875 3500 
L 3609 3500 
L 1753 1863 
L 3688 0 
L 2938 0 
L 1159 1709 
L 1159 0 
L 581 0 
L 581 4863 
z
" transform="scale(0.015625)"/>
       <path id="DejaVuSans-73" d="M 2834 3397 
L 2834 2853 
Q 2591 2978 2328 3040 
Q 2066 3103 1784 3103 
Q 1356 3103 1142 2972 
Q 928 2841 928 2578 
Q 928 2378 1081 2264 
Q 1234 2150 1697 2047 
L 1894 2003 
Q 2506 1872 2764 1633 
Q 3022 1394 3022 966 
Q 3022 478 2636 193 
Q 2250 -91 1575 -91 
Q 1294 -91 989 -36 
Q 684 19 347 128 
L 347 722 
Q 666 556 975 473 
Q 1284 391 1588 391 
Q 1994 391 2212 530 
Q 2431 669 2431 922 
Q 2431 1156 2273 1281 
Q 2116 1406 1581 1522 
L 1381 1569 
Q 847 1681 609 1914 
Q 372 2147 372 2553 
Q 372 3047 722 3315 
Q 1072 3584 1716 3584 
Q 2034 3584 2315 3537 
Q 2597 3491 2834 3397 
z
" transform="scale(0.015625)"/>
       <path id="DejaVuSans-20" transform="scale(0.015625)"/>
       <path id="DejaVuSans-28" d="M 1984 4856 
Q 1566 4138 1362 3434 
Q 1159 2731 1159 2009 
Q 1159 1288 1364 580 
Q 1569 -128 1984 -844 
L 1484 -844 
Q 1016 -109 783 600 
Q 550 1309 550 2009 
Q 550 2706 781 3412 
Q 1013 4119 1484 4856 
L 1984 4856 
z
" transform="scale(0.015625)"/>
       <path id="DejaVuSans-2b" d="M 2944 4013 
L 2944 2272 
L 4684 2272 
L 4684 1741 
L 2944 1741 
L 2944 0 
L 2419 0 
L 2419 1741 
L 678 1741 
L 678 2272 
L 2419 2272 
L 2419 4013 
L 2944 4013 
z
" transform="scale(0.015625)"/>
       <path id="DejaVuSans-2e" d="M 684 794 
L 1344 794 
L 1344 0 
L 684 0 
L 684 794 
z
" transform="scale(0.015625)"/>
       <path id="DejaVuSans-4d" d="M 628 4666 
L 1569 4666 
L 2759 1491 
L 3956 4666 
L 4897 4666 
L 4897 0 
L 4281 0 
L 4281 4097 
L 3078 897 
L 2444 897 
L 1241 4097 
L 1241 0 
L 628 0 
L 628 4666 
z
" transform="scale(0.015625)"/>
       <path id="DejaVuSans-29" d="M 513 4856 
L 1013 4856 
Q 1481 4119 1714 3412 
Q 1947 2706 1947 2009 
Q 1947 1309 1714 600 
Q 1481 -109 1013 -844 
L 513 -844 
Q 928 -128 1133 580 
Q 1338 1288 1338 2009 
Q 1338 2731 1133 3434 
Q 928 4138 513 4856 
z
" transform="scale(0.015625)"/>
      </defs>
      <use xlink:href="#DejaVuSans-42"/>
      <use xlink:href="#DejaVuSans-6c" x="68.603516"/>
      <use xlink:href="#DejaVuSans-6f" x="96.386719"/>
      <use xlink:href="#DejaVuSans-63" x="157.568359"/>
      <use xlink:href="#DejaVuSans-6b" x="212.548828"/>
      <use xlink:href="#DejaVuSans-73" x="270.458984"/>
      <use xlink:href="#DejaVuSans-20" x="322.558594"/>
      <use xlink:href="#DejaVuSans-28" x="354.345703"/>
      <use xlink:href="#DejaVuSans-2b" x="393.359375"/>
      <use xlink:href="#DejaVuSans-31" x="477.148438"/>
      <use xlink:href="#DejaVuSans-30" x="540.771484"/>
      <use xlink:href="#DejaVuSans-2e" x="604.394531"/>
      <use xlink:href="#DejaVuSans-35" x="636.181641"/>
      <use xlink:href="#DejaVuSans-4d" x="699.804688"/>
      <use xlink:href="#DejaVuSans-29" x="786.083984"/>
     </g>
    </g>
   </g>
   <g id="matplotlib.axis_2">
    <g id="ytick_1">
     <g id="line2d_15">
      <path d="M 51.815625 260.510625 
L 386.615625 260.510625 
" clip-path="url(#pf3bd8f0d66)" style="fill: none; stroke: #b0b0b0; stroke-width: 0.8; stroke-linecap: square"/>
     </g>
     <g id="line2d_16">
      <defs>
       <path id="mdc1f0161d7" d="M 0 0 
L -3.5 0 
" style="stroke: #000000; stroke-width: 0.8"/>
      </defs>
      <g>
       <use xlink:href="#mdc1f0161d7" x="51.815625" y="260.510625" style="stroke: #000000; stroke-width: 0.8"/>
      </g>
     </g>
     <g id="text_9">
      <!-- 0 -->
      <g transform="translate(38.453125 264.309844)scale(0.1 -0.1)">
       <use xlink:href="#DejaVuSans-30"/>
      </g>
     </g>
    </g>
    <g id="ytick_2">
     <g id="line2d_17">
      <path d="M 51.815625 208.065799 
L 386.615625 208.065799 
" clip-path="url(#pf3bd8f0d66)" style="fill: none; stroke: #b0b0b0; stroke-width: 0.8; stroke-linecap: square"/>
     </g>
     <g id="line2d_18">
      <g>
       <use xlink:href="#mdc1f0161d7" x="51.815625" y="208.065799" style="stroke: #000000; stroke-width: 0.8"/>
      </g>
     </g>
     <g id="text_10">
      <!-- 10 -->
      <g transform="translate(32.090625 211.865017)scale(0.1 -0.1)">
       <use xlink:href="#DejaVuSans-31"/>
       <use xlink:href="#DejaVuSans-30" x="63.623047"/>
      </g>
     </g>
    </g>
    <g id="ytick_3">
     <g id="line2d_19">
      <path d="M 51.815625 155.620972 
L 386.615625 155.620972 
" clip-path="url(#pf3bd8f0d66)" style="fill: none; stroke: #b0b0b0; stroke-width: 0.8; stroke-linecap: square"/>
     </g>
     <g id="line2d_20">
      <g>
       <use xlink:href="#mdc1f0161d7" x="51.815625" y="155.620972" style="stroke: #000000; stroke-width: 0.8"/>
      </g>
     </g>
     <g id="text_11">
      <!-- 20 -->
      <g transform="translate(32.090625 159.420191)scale(0.1 -0.1)">
       <use xlink:href="#DejaVuSans-32"/>
       <use xlink:href="#DejaVuSans-30" x="63.623047"/>
      </g>
     </g>
    </g>
    <g id="ytick_4">
     <g id="line2d_21">
      <path d="M 51.815625 103.176146 
L 386.615625 103.176146 
" clip-path="url(#pf3bd8f0d66)" style="fill: none; stroke: #b0b0b0; stroke-width: 0.8; stroke-linecap: square"/>
     </g>
     <g id="line2d_22">
      <g>
       <use xlink:href="#mdc1f0161d7" x="51.815625" y="103.176146" style="stroke: #000000; stroke-width: 0.8"/>
      </g>
     </g>
     <g id="text_12">
      <!-- 30 -->
      <g transform="translate(32.090625 106.975365)scale(0.1 -0.1)">
       <use xlink:href="#DejaVuSans-33"/>
       <use xlink:href="#DejaVuSans-30" x="63.623047"/>
      </g>
     </g>
    </g>
    <g id="ytick_5">
     <g id="line2d_23">
      <path d="M 51.815625 50.73132 
L 386.615625 50.73132 
" clip-path="url(#pf3bd8f0d66)" style="fill: none; stroke: #b0b0b0; stroke-width: 0.8; stroke-linecap: square"/>
     </g>
     <g id="line2d_24">
      <g>
       <use xlink:href="#mdc1f0161d7" x="51.815625" y="50.73132" style="stroke: #000000; stroke-width: 0.8"/>
      </g>
     </g>
     <g id="text_13">
      <!-- 40 -->
      <g transform="translate(32.090625 54.530539)scale(0.1 -0.1)">
       <defs>
        <path id="DejaVuSans-34" d="M 2419 4116 
L 825 1625 
L 2419 1625 
L 2419 4116 
z
M 2253 4666 
L 3047 4666 
L 3047 1625 
L 3713 1625 
L 3713 1100 
L 3047 1100 
L 3047 0 
L 2419 0 
L 2419 1100 
L 313 1100 
L 313 1709 
L 2253 4666 
z
" transform="scale(0.015625)"/>
       </defs>
       <use xlink:href="#DejaVuSans-34"/>
       <use xlink:href="#DejaVuSans-30" x="63.623047"/>
      </g>
     </g>
    </g>
    <g id="text_14">
     <!-- blocks / second -->
     <g transform="translate(26.010937 185.677812)rotate(-90)scale(0.1 -0.1)">
      <defs>
       <path id="DejaVuSans-62" d="M 3116 1747 
Q 3116 2381 2855 2742 
Q 2594 3103 2138 3103 
Q 1681 3103 1420 2742 
Q 1159 2381 1159 1747 
Q 1159 1113 1420 752 
Q 1681 391 2138 391 
Q 2594 391 2855 752 
Q 3116 1113 3116 1747 
z
M 1159 2969 
Q 1341 3281 1617 3432 
Q 1894 3584 2278 3584 
Q 2916 3584 3314 3078 
Q 3713 2572 3713 1747 
Q 3713 922 3314 415 
Q 2916 -91 2278 -91 
Q 1894 -91 1617 61 
Q 1341 213 1159 525 
L 1159 0 
L 581 0 
L 581 4863 
L 1159 4863 
L 1159 2969 
z
" transform="scale(0.015625)"/>
       <path id="DejaVuSans-2f" d="M 1625 4666 
L 2156 4666 
L 531 -594 
L 0 -594 
L 1625 4666 
z
" transform="scale(0.015625)"/>
       <path id="DejaVuSans-65" d="M 3597 1894 
L 3597 1613 
L 953 1613 
Q 991 1019 1311 708 
Q 1631 397 2203 397 
Q 2534 397 2845 478 
Q 3156 559 3463 722 
L 3463 178 
Q 3153 47 2828 -22 
Q 2503 -91 2169 -91 
Q 1331 -91 842 396 
Q 353 884 353 1716 
Q 353 2575 817 3079 
Q 1281 3584 2069 3584 
Q 2775 3584 3186 3129 
Q 3597 2675 3597 1894 
z
M 3022 2063 
Q 3016 2534 2758 2815 
Q 2500 3097 2075 3097 
Q 1594 3097 1305 2825 
Q 1016 2553 972 2059 
L 3022 2063 
z
" transform="scale(0.015625)"/>
       <path id="DejaVuSans-6e" d="M 3513 2113 
L 3513 0 
L 2938 0 
L 2938 2094 
Q 2938 2591 2744 2837 
Q 2550 3084 2163 3084 
Q 1697 3084 1428 2787 
Q 1159 2491 1159 1978 
L 1159 0 
L 581 0 
L 581 3500 
L 1159 3500 
L 1159 2956 
Q 1366 3272 1645 3428 
Q 1925 3584 2291 3584 
Q 2894 3584 3203 3211 
Q 3513 2838 3513 2113 
z
" transform="scale(0.015625)"/>
       <path id="DejaVuSans-64" d="M 2906 2969 
L 2906 4863 
L 3481 4863 
L 3481 0 
L 2906 0 
L 2906 525 
Q 2725 213 2448 61 
Q 2172 -91 1784 -91 
Q 1150 -91 751 415 
Q 353 922 353 1747 
Q 353 2572 751 3078 
Q 1150 3584 1784 3584 
Q 2172 3584 2448 3432 
Q 2725 3281 2906 2969 
z
M 947 1747 
Q 947 1113 1208 752 
Q 1469 391 1925 391 
Q 2381 391 2643 752 
Q 2906 1113 2906 1747 
Q 2906 2381 2643 2742 
Q 2381 3103 1925 3103 
Q 1469 3103 1208 2742 
Q 947 2381 947 1747 
z
" transform="scale(0.015625)"/>
      </defs>
      <use xlink:href="#DejaVuSans-62"/>
      <use xlink:href="#DejaVuSans-6c" x="63.476562"/>
      <use xlink:href="#DejaVuSans-6f" x="91.259766"/>
      <use xlink:href="#DejaVuSans-63" x="152.441406"/>
      <use xlink:href="#DejaVuSans-6b" x="207.421875"/>
      <use xlink:href="#DejaVuSans-73" x="265.332031"/>
      <use xlink:href="#DejaVuSans-20" x="317.431641"/>
      <use xlink:href="#DejaVuSans-2f" x="349.21875"/>
      <use xlink:href="#DejaVuSans-20" x="382.910156"/>
      <use xlink:href="#DejaVuSans-73" x="414.697266"/>
      <use xlink:href="#DejaVuSans-65" x="466.796875"/>
      <use xlink:href="#DejaVuSans-63" x="528.320312"/>
      <use xlink:href="#DejaVuSans-6f" x="583.300781"/>
      <use xlink:href="#DejaVuSans-6e" x="644.482422"/>
      <use xlink:href="#DejaVuSans-64" x="707.861328"/>
     </g>
    </g>
   </g>
   <g id="line2d_25">
    <path d="M 67.033807 260.510625 
L 71.284752 187.356648 
L 77.676389 168.824715 
L 85.366643 155.242909 
L 93.65548 146.68645 
L 100.534098 151.039433 
L 107.392425 144.61798 
L 117.142207 137.178832 
L 127.084752 131.170337 
L 138.062134 124.526191 
L 149.952607 117.640268 
L 161.95468 111.821902 
L 173.00308 108.348282 
L 184.000752 105.475718 
L 195.597007 102.274259 
L 208.248389 98.288675 
L 221.691116 93.953131 
L 234.778752 90.483857 
L 247.257661 87.9874 
L 259.15828 86.275925 
L 272.712607 83.305747 
L 286.571298 80.569062 
L 300.014025 78.031946 
L 312.482789 76.625811 
L 325.529843 74.921808 
L 338.718934 73.250986 
L 352.171807 71.539876 
L 364.30577 70.793235 
L 371.397443 70.934357 
" clip-path="url(#pf3bd8f0d66)" style="fill: none; stroke: #1f77b4; stroke-width: 1.5; stroke-linecap: square"/>
   </g>
   <g id="line2d_26">
    <path d="M 67.033807 260.510625 
L 70.33108 210.816422 
L 77.930025 166.669767 
L 88.156643 139.196702 
L 100.432643 116.633803 
L 112.769516 102.899085 
L 124.284607 96.099995 
L 137.362098 87.388531 
L 151.91068 77.691556 
L 165.97228 71.093628 
L 178.26857 68.84506 
L 190.422825 67.225346 
L 204.311952 63.398434 
L 215.512534 69.164884 
L 225.191298 65.848023 
L 238.258643 63.818604 
L 252.046316 61.258904 
L 265.042643 59.809789 
L 280.565189 56.098859 
L 295.996425 52.862015 
L 309.62177 51.504904 
L 323.368861 50.178046 
L 337.156534 48.941084 
L 350.416643 48.205469 
L 363.717334 47.700259 
L 371.397443 47.302857 
" clip-path="url(#pf3bd8f0d66)" style="fill: none; stroke: #ff7f0e; stroke-width: 1.5; stroke-linecap: square"/>
   </g>
   <g id="line2d_27">
    <path d="M 67.033807 260.510625 
L 71.031116 191.673281 
L 81.998352 131.615376 
L 95.187443 98.826176 
L 107.361989 86.802556 
L 120.469916 76.370997 
L 133.587989 69.382211 
L 147.101734 63.418163 
L 161.73148 56.548219 
L 175.194498 53.436976 
L 187.034243 53.732031 
L 200.304498 51.745675 
L 215.18788 47.76823 
L 230.487225 43.853885 
L 244.295189 42.337709 
L 258.133589 40.98556 
L 271.738643 40.050798 
L 287.626425 36.916102 
L 302.438789 35.157426 
L 314.572752 36.01572 
L 327.34588 36.270104 
L 334.417261 41.116636 
L 347.281698 41.006798 
L 361.434607 39.946043 
L 371.397443 39.568267 
" clip-path="url(#pf3bd8f0d66)" style="fill: none; stroke: #2ca02c; stroke-width: 1.5; stroke-linecap: square"/>
   </g>
   <g id="line2d_28">
    <path d="M 67.033807 260.510625 
L 70.757189 196.395456 
L 76.590825 178.197268 
L 83.124498 177.743403 
L 88.623334 167.540742 
L 97.612207 155.143291 
L 107.311261 144.841181 
L 117.274098 136.851959 
L 126.678934 132.047501 
L 137.220061 126.142176 
L 148.58297 119.996433 
L 160.919843 113.447221 
L 172.982789 108.850535 
L 183.392025 106.279208 
L 194.967989 103.047311 
L 207.741116 98.871197 
L 221.386752 94.280683 
L 234.616425 90.648385 
L 246.892425 88.331479 
L 258.853916 86.545532 
L 272.21548 83.740657 
L 279.388316 86.267441 
L 293.43977 83.178009 
L 306.121589 81.392711 
L 318.712098 79.810757 
L 330.663443 78.803662 
L 343.63948 77.189679 
L 355.306752 79.620686 
L 362.317261 78.78926 
L 371.397443 78.119352 
" clip-path="url(#pf3bd8f0d66)" style="fill: none; stroke: #d62728; stroke-width: 1.5; stroke-linecap: square"/>
   </g>
   <g id="line2d_29">
    <path d="M 67.033807 260.510625 
L 73.69937 145.938875 
L 84.585443 109.295657 
L 97.145516 87.557154 
L 109.928789 75.74985 
L 122.67148 68.78051 
L 134.551807 66.607082 
L 147.588716 62.221682 
L 155.360134 71.515632 
L 168.346316 66.546761 
L 180.733916 64.913312 
L 193.040352 63.130373 
L 206.959916 59.586126 
L 220.727298 56.796144 
L 235.225152 53.501548 
L 248.617152 51.921515 
L 262.72948 49.754055 
L 277.450534 47.228854 
L 292.587552 44.585813 
L 306.354934 43.465385 
L 318.75268 43.636145 
L 332.357734 42.800962 
L 345.972934 42.03609 
L 359.608425 41.314953 
L 371.397443 41.025204 
" clip-path="url(#pf3bd8f0d66)" style="fill: none; stroke: #9467bd; stroke-width: 1.5; stroke-linecap: square"/>
   </g>
   <g id="line2d_30">
    <path d="M 67.033807 260.510625 
L 76.682134 94.312357 
L 84.514425 124.571947 
L 93.78737 106.846716 
L 107.06777 88.05807 
L 118.978534 81.507452 
L 125.806425 92.157709 
L 139.401334 82.374728 
L 154.091952 72.996614 
L 167.950643 67.298918 
L 181.494825 63.285532 
L 187.774861 71.370368 
L 201.045116 68.078485 
L 208.370134 73.169033 
L 222.269407 69.450937 
L 236.63537 65.683443 
L 250.067952 63.388739 
L 264.29188 60.569612 
L 279.165116 57.439728 
L 294.291989 54.404243 
L 307.115843 53.670694 
L 320.44697 52.578655 
L 334.26508 51.205602 
L 347.890425 50.094653 
L 361.657807 48.981278 
L 371.397443 48.555768 
" clip-path="url(#pf3bd8f0d66)" style="fill: none; stroke: #8c564b; stroke-width: 1.5; stroke-linecap: square"/>
   </g>
   <g id="line2d_31">
    <path d="M 67.033807 260.510625 
L 71.487661 183.786132 
L 74.92697 192.54658 
L 82.891152 169.453 
L 91.839443 153.678058 
L 98.839807 155.669492 
L 106.885152 146.067497 
L 117.42628 136.47634 
L 128.789189 127.507192 
L 133.882207 132.532608 
L 147.213334 122.35549 
L 160.716934 113.762934 
L 173.256716 108.048427 
L 181.03828 110.920545 
L 191.721443 107.043614 
L 205.204752 101.785065 
L 219.692461 96.105816 
L 233.926534 91.361761 
L 247.186643 88.053856 
L 259.868461 85.624559 
L 274.072098 82.132817 
L 289.056934 78.336372 
L 303.159116 75.564725 
L 315.901807 74.058973 
L 329.395261 72.141269 
L 341.579952 71.288955 
L 348.245516 74.150116 
L 361.73897 72.429014 
L 371.397443 71.559698 
" clip-path="url(#pf3bd8f0d66)" style="fill: none; stroke: #e377c2; stroke-width: 1.5; stroke-linecap: square"/>
   </g>
   <g id="line2d_32">
    <path d="M 67.033807 260.510625 
L 74.937116 124.422467 
L 86.239152 95.116779 
L 99.377516 74.772932 
L 112.252098 65.749206 
L 124.091843 63.89111 
L 137.138898 59.201326 
L 150.277261 55.614451 
L 164.156243 51.332359 
L 177.629407 48.764384 
L 189.621334 49.288204 
L 202.861152 47.748559 
L 216.171989 46.359128 
L 230.72057 43.551808 
L 243.98068 42.726946 
L 257.626316 41.563181 
L 264.707843 47.621075 
L 279.388316 45.264594 
L 294.241261 43.006611 
L 308.049225 41.934461 
L 321.11657 41.596503 
L 333.656352 41.736523 
L 347.058498 41.186063 
L 360.531661 40.627076 
L 371.397443 41.236834 
" clip-path="url(#pf3bd8f0d66)" style="fill: none; stroke: #7f7f7f; stroke-width: 1.5; stroke-linecap: square"/>
   </g>
   <g id="line2d_33">
    <path d="M 67.033807 260.510625 
L 76.945916 89.791061 
L 89.99297 62.770231 
L 102.421152 57.308387 
L 114.484098 56.108829 
L 127.24708 53.009295 
L 141.430425 46.871542 
L 156.019589 41.45982 
L 169.87828 38.99152 
L 177.771443 50.169511 
L 190.006861 48.61517 
L 203.540898 46.671907 
L 217.247407 44.815135 
L 231.998898 41.850208 
L 245.512643 40.83306 
L 258.549552 40.506933 
L 272.966243 38.727232 
L 288.407625 36.124198 
L 302.92577 34.689713 
L 315.485843 35.18917 
L 329.212643 34.627152 
L 342.726389 34.297171 
L 356.595225 33.710625 
L 368.921952 34.342185 
L 371.397443 34.371322 
" clip-path="url(#pf3bd8f0d66)" style="fill: none; stroke: #bcbd22; stroke-width: 1.5; stroke-linecap: square"/>
   </g>
   <g id="line2d_34">
    <path d="M 67.033807 260.510625 
L 69.864389 221.137253 
L 74.622607 195.160661 
L 82.465043 171.918262 
L 91.372752 155.664635 
L 101.213843 142.729231 
L 111.51148 132.790401 
L 122.519298 123.935567 
L 132.989407 118.457569 
L 146.198789 108.943641 
L 159.489334 101.209899 
L 171.623298 96.68089 
L 182.793443 94.292711 
L 195.23177 90.59048 
L 208.796243 86.037848 
L 223.212934 81.09756 
L 237.051334 77.411363 
L 250.149116 74.909502 
L 262.790352 73.113882 
L 277.136025 69.967064 
L 291.85708 66.809339 
L 304.051916 66.031354 
L 317.200425 64.572677 
L 330.551843 63.085391 
L 343.903261 61.730418 
L 357.315552 60.43441 
L 369.388643 60.191736 
L 371.397443 60.094728 
" clip-path="url(#pf3bd8f0d66)" style="fill: none; stroke: #17becf; stroke-width: 1.5; stroke-linecap: square"/>
   </g>
   <g id="line2d_35">
    <path d="M 67.033807 260.510625 
L 72.045661 188.80503 
L 79.59388 152.332551 
L 92.53948 114.023469 
L 105.860461 93.269111 
L 117.78137 85.629564 
L 130.473334 78.332208 
L 137.53457 86.976728 
L 152.103443 77.278231 
L 166.043298 70.953108 
L 179.688934 66.394595 
L 191.619989 65.350349 
L 198.194243 72.178086 
L 212.570352 67.601696 
L 226.297152 64.490493 
L 240.155843 61.637824 
L 253.852207 59.314337 
L 268.08628 56.719394 
L 283.385625 53.398255 
L 298.167552 50.890698 
L 305.391116 55.614047 
L 318.204825 54.350083 
L 331.749007 53.112417 
L 345.435225 51.878352 
L 358.188061 51.416944 
L 371.377152 50.688321 
L 371.397443 50.684783 
" clip-path="url(#pf3bd8f0d66)" style="fill: none; stroke: #1f77b4; stroke-width: 1.5; stroke-linecap: square"/>
   </g>
   <g id="line2d_36">
    <path d="M 67.033807 260.510625 
L 76.103843 104.343553 
L 88.958134 71.649073 
L 95.897625 94.722812 
L 102.837116 106.283837 
L 115.823298 92.392422 
L 128.49497 84.012167 
L 142.729043 74.177747 
L 156.161625 68.549501 
L 170.050752 63.271958 
L 182.560098 61.443741 
L 195.728898 58.908156 
L 209.820934 55.472572 
L 224.765189 51.439526 
L 237.761516 50.381433 
L 244.33577 56.833784 
L 257.14948 55.765548 
L 271.505298 53.256691 
L 285.668352 51.211696 
L 300.206789 49.042114 
L 313.893007 47.823618 
L 327.427043 46.844157 
L 341.032098 45.902682 
L 354.657443 45.021146 
L 367.258098 44.957048 
L 371.397443 44.876306 
" clip-path="url(#pf3bd8f0d66)" style="fill: none; stroke: #ff7f0e; stroke-width: 1.5; stroke-linecap: square"/>
   </g>
   <g id="line2d_37">
    <path d="M 67.033807 260.510625 
L 71.436934 184.703633 
L 78.36628 162.907077 
L 86.634825 147.956793 
L 95.786025 136.65575 
L 105.241589 128.840264 
L 115.407334 121.598894 
L 126.090498 115.178395 
L 138.102716 107.448644 
L 151.028025 99.70191 
L 163.841734 93.70052 
L 174.169807 92.686557 
L 185.07617 91.020158 
L 197.149261 88.043678 
L 210.115152 84.404189 
L 223.720207 80.519228 
L 236.797698 77.689496 
L 249.13457 75.936736 
L 261.16708 74.667151 
L 274.305443 72.531721 
L 287.28148 70.75078 
L 300.56188 68.894115 
L 312.695843 68.09533 
L 325.063152 67.195293 
L 336.344898 67.152982 
L 342.675661 70.524352 
L 352.181952 71.817697 
L 361.698389 72.458829 
L 371.397443 71.893251 
" clip-path="url(#pf3bd8f0d66)" style="fill: none; stroke: #2ca02c; stroke-width: 1.5; stroke-linecap: square"/>
   </g>
   <g id="line2d_38">
    <path d="M 67.033807 260.510625 
L 74.176207 137.529421 
L 85.19417 104.361744 
L 91.961189 117.341373 
L 105.322752 95.580566 
L 111.805698 106.234797 
L 124.578825 95.289787 
L 138.062134 85.668723 
L 151.332389 78.938852 
L 165.272243 72.423879 
L 178.907734 67.735961 
L 192.015661 64.738423 
L 205.641007 61.482049 
L 219.256207 58.743317 
L 233.835225 55.214849 
L 247.267807 53.461945 
L 261.339552 51.249081 
L 275.91857 48.786629 
L 291.086025 46.024074 
L 305.086752 44.617171 
L 318.499043 43.855002 
L 331.038825 43.884897 
L 344.633734 43.083794 
L 358.299661 42.29497 
L 371.397443 41.972823 
" clip-path="url(#pf3bd8f0d66)" style="fill: none; stroke: #d62728; stroke-width: 1.5; stroke-linecap: square"/>
   </g>
   <g id="line2d_39">
    <path d="M 67.033807 260.510625 
L 75.93137 157.933622 
L 82.27228 129.235893 
L 95.816461 95.196355 
L 108.001152 84.060899 
L 121.098934 74.201046 
L 133.456098 69.791249 
L 146.645189 64.542112 
L 161.112607 57.871996 
L 174.90028 53.993162 
L 188.383589 51.414026 
L 201.917625 49.218577 
L 215.340061 47.5483 
L 229.26977 45.470201 
L 242.55017 44.632167 
L 251.559334 51.659679 
L 262.628025 49.866389 
L 277.420098 47.259215 
L 285.201661 51.6571 
L 299.851698 49.366307 
L 313.649516 48.033363 
L 327.244425 46.995137 
L 339.774061 46.885635 
L 353.439989 45.935731 
L 367.166789 45.024435 
L 371.397443 44.928726 
" clip-path="url(#pf3bd8f0d66)" style="fill: none; stroke: #9467bd; stroke-width: 1.5; stroke-linecap: square"/>
   </g>
   <g id="line2d_40">
    <path d="M 67.033807 260.510625 
L 71.507952 183.533794 
L 77.392316 171.303905 
L 85.62028 153.763435 
L 91.261152 158.696618 
L 100.01668 146.84373 
L 110.436061 135.865023 
L 121.494607 126.456174 
L 133.080716 118.261321 
L 146.503152 108.363284 
L 158.992207 102.057808 
L 172.394352 95.467061 
L 183.970316 92.596835 
L 196.834752 88.459347 
L 210.673152 83.723993 
L 225.282607 78.72132 
L 239.060134 75.248234 
L 252.553589 72.482881 
L 265.468752 70.549556 
L 280.311552 67.08539 
L 295.144207 63.977954 
L 307.410061 63.27464 
L 320.528134 61.960622 
L 334.143334 60.395215 
L 347.606352 59.063836 
L 361.221552 57.742374 
L 371.397443 57.118477 
" clip-path="url(#pf3bd8f0d66)" style="fill: none; stroke: #8c564b; stroke-width: 1.5; stroke-linecap: square"/>
   </g>
   <g id="line2d_41">
    <path d="M 67.033807 260.510625 
L 74.23708 136.492369 
L 80.050425 152.800405 
L 90.926352 123.305157 
L 104.308207 99.972982 
L 117.142207 87.826651 
L 129.884898 80.027435 
L 143.013116 73.480163 
L 157.450098 65.769154 
L 171.258061 60.963512 
L 184.873261 57.468368 
L 198.011625 55.338615 
L 212.377589 51.810832 
L 226.104389 49.671783 
L 239.952934 47.677155 
L 253.659443 46.124046 
L 267.923952 44.162871 
L 283.223298 41.374586 
L 296.909516 40.44748 
L 310.808789 39.424148 
L 324.271807 38.878778 
L 337.673952 38.441157 
L 351.542789 37.672462 
L 364.153589 37.949523 
L 370.66697 42.506964 
L 371.397443 42.539225 
" clip-path="url(#pf3bd8f0d66)" style="fill: none; stroke: #e377c2; stroke-width: 1.5; stroke-linecap: square"/>
   </g>
   <g id="line2d_42">
    <path d="M 67.033807 260.510625 
L 71.761589 179.067284 
L 83.40857 119.438237 
L 96.881734 89.110995 
L 110.08097 75.095024 
L 120.90617 74.859411 
L 133.993807 68.230253 
L 148.430789 60.159518 
L 162.725734 54.398338 
L 175.306098 53.227517 
L 188.687952 50.895502 
L 200.943661 50.748416 
L 215.502389 47.319537 
L 230.355334 44.031516 
L 243.351661 43.870126 
L 250.352025 49.921951 
L 262.19177 50.335517 
L 276.90268 47.788916 
L 291.98897 45.163474 
L 306.212898 43.640298 
L 319.42228 43.065041 
L 332.083807 43.025648 
L 345.64828 42.28985 
L 359.364934 41.496478 
L 371.397443 41.218351 
" clip-path="url(#pf3bd8f0d66)" style="fill: none; stroke: #7f7f7f; stroke-width: 1.5; stroke-linecap: square"/>
   </g>
   <g id="patch_3">
    <path d="M 51.815625 271.850625 
L 51.815625 22.370625 
" style="fill: none; stroke: #000000; stroke-width: 0.8; stroke-linejoin: miter; stroke-linecap: square"/>
   </g>
   <g id="patch_4">
    <path d="M 386.615625 271.850625 
L 386.615625 22.370625 
" style="fill: none; stroke: #000000; stroke-width: 0.8; stroke-linejoin: miter; stroke-linecap: square"/>
   </g>
   <g id="patch_5">
    <path d="M 51.815625 271.850625 
L 386.615625 271.850625 
" style="fill: none; stroke: #000000; stroke-width: 0.8; stroke-linejoin: miter; stroke-linecap: square"/>
   </g>
   <g id="patch_6">
    <path d="M 51.815625 22.370625 
L 386.615625 22.370625 
" style="fill: none; stroke: #000000; stroke-width: 0.8; stroke-linejoin: miter; stroke-linecap: square"/>
   </g>
   <g id="text_15">
    <!-- Full prefetch, 3.8 GHz, 16 GiB, sata | vary readahead and thread count -->
    <g transform="translate(7.2 16.370625)scale(0.12 -0.12)">
     <defs>
      <path id="DejaVuSans-46" d="M 628 4666 
L 3309 4666 
L 3309 4134 
L 1259 4134 
L 1259 2759 
L 3109 2759 
L 3109 2228 
L 1259 2228 
L 1259 0 
L 628 0 
L 628 4666 
z
" transform="scale(0.015625)"/>
      <path id="DejaVuSans-75" d="M 544 1381 
L 544 3500 
L 1119 3500 
L 1119 1403 
Q 1119 906 1312 657 
Q 1506 409 1894 409 
Q 2359 409 2629 706 
Q 2900 1003 2900 1516 
L 2900 3500 
L 3475 3500 
L 3475 0 
L 2900 0 
L 2900 538 
Q 2691 219 2414 64 
Q 2138 -91 1772 -91 
Q 1169 -91 856 284 
Q 544 659 544 1381 
z
M 1991 3584 
L 1991 3584 
z
" transform="scale(0.015625)"/>
      <path id="DejaVuSans-70" d="M 1159 525 
L 1159 -1331 
L 581 -1331 
L 581 3500 
L 1159 3500 
L 1159 2969 
Q 1341 3281 1617 3432 
Q 1894 3584 2278 3584 
Q 2916 3584 3314 3078 
Q 3713 2572 3713 1747 
Q 3713 922 3314 415 
Q 2916 -91 2278 -91 
Q 1894 -91 1617 61 
Q 1341 213 1159 525 
z
M 3116 1747 
Q 3116 2381 2855 2742 
Q 2594 3103 2138 3103 
Q 1681 3103 1420 2742 
Q 1159 2381 1159 1747 
Q 1159 1113 1420 752 
Q 1681 391 2138 391 
Q 2594 391 2855 752 
Q 3116 1113 3116 1747 
z
" transform="scale(0.015625)"/>
      <path id="DejaVuSans-72" d="M 2631 2963 
Q 2534 3019 2420 3045 
Q 2306 3072 2169 3072 
Q 1681 3072 1420 2755 
Q 1159 2438 1159 1844 
L 1159 0 
L 581 0 
L 581 3500 
L 1159 3500 
L 1159 2956 
Q 1341 3275 1631 3429 
Q 1922 3584 2338 3584 
Q 2397 3584 2469 3576 
Q 2541 3569 2628 3553 
L 2631 2963 
z
" transform="scale(0.015625)"/>
      <path id="DejaVuSans-66" d="M 2375 4863 
L 2375 4384 
L 1825 4384 
Q 1516 4384 1395 4259 
Q 1275 4134 1275 3809 
L 1275 3500 
L 2222 3500 
L 2222 3053 
L 1275 3053 
L 1275 0 
L 697 0 
L 697 3053 
L 147 3053 
L 147 3500 
L 697 3500 
L 697 3744 
Q 697 4328 969 4595 
Q 1241 4863 1831 4863 
L 2375 4863 
z
" transform="scale(0.015625)"/>
      <path id="DejaVuSans-74" d="M 1172 4494 
L 1172 3500 
L 2356 3500 
L 2356 3053 
L 1172 3053 
L 1172 1153 
Q 1172 725 1289 603 
Q 1406 481 1766 481 
L 2356 481 
L 2356 0 
L 1766 0 
Q 1100 0 847 248 
Q 594 497 594 1153 
L 594 3053 
L 172 3053 
L 172 3500 
L 594 3500 
L 594 4494 
L 1172 4494 
z
" transform="scale(0.015625)"/>
      <path id="DejaVuSans-68" d="M 3513 2113 
L 3513 0 
L 2938 0 
L 2938 2094 
Q 2938 2591 2744 2837 
Q 2550 3084 2163 3084 
Q 1697 3084 1428 2787 
Q 1159 2491 1159 1978 
L 1159 0 
L 581 0 
L 581 4863 
L 1159 4863 
L 1159 2956 
Q 1366 3272 1645 3428 
Q 1925 3584 2291 3584 
Q 2894 3584 3203 3211 
Q 3513 2838 3513 2113 
z
" transform="scale(0.015625)"/>
      <path id="DejaVuSans-2c" d="M 750 794 
L 1409 794 
L 1409 256 
L 897 -744 
L 494 -744 
L 750 256 
L 750 794 
z
" transform="scale(0.015625)"/>
      <path id="DejaVuSans-38" d="M 2034 2216 
Q 1584 2216 1326 1975 
Q 1069 1734 1069 1313 
Q 1069 891 1326 650 
Q 1584 409 2034 409 
Q 2484 409 2743 651 
Q 3003 894 3003 1313 
Q 3003 1734 2745 1975 
Q 2488 2216 2034 2216 
z
M 1403 2484 
Q 997 2584 770 2862 
Q 544 3141 544 3541 
Q 544 4100 942 4425 
Q 1341 4750 2034 4750 
Q 2731 4750 3128 4425 
Q 3525 4100 3525 3541 
Q 3525 3141 3298 2862 
Q 3072 2584 2669 2484 
Q 3125 2378 3379 2068 
Q 3634 1759 3634 1313 
Q 3634 634 3220 271 
Q 2806 -91 2034 -91 
Q 1263 -91 848 271 
Q 434 634 434 1313 
Q 434 1759 690 2068 
Q 947 2378 1403 2484 
z
M 1172 3481 
Q 1172 3119 1398 2916 
Q 1625 2713 2034 2713 
Q 2441 2713 2670 2916 
Q 2900 3119 2900 3481 
Q 2900 3844 2670 4047 
Q 2441 4250 2034 4250 
Q 1625 4250 1398 4047 
Q 1172 3844 1172 3481 
z
" transform="scale(0.015625)"/>
      <path id="DejaVuSans-47" d="M 3809 666 
L 3809 1919 
L 2778 1919 
L 2778 2438 
L 4434 2438 
L 4434 434 
Q 4069 175 3628 42 
Q 3188 -91 2688 -91 
Q 1594 -91 976 548 
Q 359 1188 359 2328 
Q 359 3472 976 4111 
Q 1594 4750 2688 4750 
Q 3144 4750 3555 4637 
Q 3966 4525 4313 4306 
L 4313 3634 
Q 3963 3931 3569 4081 
Q 3175 4231 2741 4231 
Q 1884 4231 1454 3753 
Q 1025 3275 1025 2328 
Q 1025 1384 1454 906 
Q 1884 428 2741 428 
Q 3075 428 3337 486 
Q 3600 544 3809 666 
z
" transform="scale(0.015625)"/>
      <path id="DejaVuSans-48" d="M 628 4666 
L 1259 4666 
L 1259 2753 
L 3553 2753 
L 3553 4666 
L 4184 4666 
L 4184 0 
L 3553 0 
L 3553 2222 
L 1259 2222 
L 1259 0 
L 628 0 
L 628 4666 
z
" transform="scale(0.015625)"/>
      <path id="DejaVuSans-7a" d="M 353 3500 
L 3084 3500 
L 3084 2975 
L 922 459 
L 3084 459 
L 3084 0 
L 275 0 
L 275 525 
L 2438 3041 
L 353 3041 
L 353 3500 
z
" transform="scale(0.015625)"/>
      <path id="DejaVuSans-36" d="M 2113 2584 
Q 1688 2584 1439 2293 
Q 1191 2003 1191 1497 
Q 1191 994 1439 701 
Q 1688 409 2113 409 
Q 2538 409 2786 701 
Q 3034 994 3034 1497 
Q 3034 2003 2786 2293 
Q 2538 2584 2113 2584 
z
M 3366 4563 
L 3366 3988 
Q 3128 4100 2886 4159 
Q 2644 4219 2406 4219 
Q 1781 4219 1451 3797 
Q 1122 3375 1075 2522 
Q 1259 2794 1537 2939 
Q 1816 3084 2150 3084 
Q 2853 3084 3261 2657 
Q 3669 2231 3669 1497 
Q 3669 778 3244 343 
Q 2819 -91 2113 -91 
Q 1303 -91 875 529 
Q 447 1150 447 2328 
Q 447 3434 972 4092 
Q 1497 4750 2381 4750 
Q 2619 4750 2861 4703 
Q 3103 4656 3366 4563 
z
" transform="scale(0.015625)"/>
      <path id="DejaVuSans-69" d="M 603 3500 
L 1178 3500 
L 1178 0 
L 603 0 
L 603 3500 
z
M 603 4863 
L 1178 4863 
L 1178 4134 
L 603 4134 
L 603 4863 
z
" transform="scale(0.015625)"/>
      <path id="DejaVuSans-61" d="M 2194 1759 
Q 1497 1759 1228 1600 
Q 959 1441 959 1056 
Q 959 750 1161 570 
Q 1363 391 1709 391 
Q 2188 391 2477 730 
Q 2766 1069 2766 1631 
L 2766 1759 
L 2194 1759 
z
M 3341 1997 
L 3341 0 
L 2766 0 
L 2766 531 
Q 2569 213 2275 61 
Q 1981 -91 1556 -91 
Q 1019 -91 701 211 
Q 384 513 384 1019 
Q 384 1609 779 1909 
Q 1175 2209 1959 2209 
L 2766 2209 
L 2766 2266 
Q 2766 2663 2505 2880 
Q 2244 3097 1772 3097 
Q 1472 3097 1187 3025 
Q 903 2953 641 2809 
L 641 3341 
Q 956 3463 1253 3523 
Q 1550 3584 1831 3584 
Q 2591 3584 2966 3190 
Q 3341 2797 3341 1997 
z
" transform="scale(0.015625)"/>
      <path id="DejaVuSans-7c" d="M 1344 4891 
L 1344 -1509 
L 813 -1509 
L 813 4891 
L 1344 4891 
z
" transform="scale(0.015625)"/>
      <path id="DejaVuSans-76" d="M 191 3500 
L 800 3500 
L 1894 563 
L 2988 3500 
L 3597 3500 
L 2284 0 
L 1503 0 
L 191 3500 
z
" transform="scale(0.015625)"/>
      <path id="DejaVuSans-79" d="M 2059 -325 
Q 1816 -950 1584 -1140 
Q 1353 -1331 966 -1331 
L 506 -1331 
L 506 -850 
L 844 -850 
Q 1081 -850 1212 -737 
Q 1344 -625 1503 -206 
L 1606 56 
L 191 3500 
L 800 3500 
L 1894 763 
L 2988 3500 
L 3597 3500 
L 2059 -325 
z
" transform="scale(0.015625)"/>
     </defs>
     <use xlink:href="#DejaVuSans-46"/>
     <use xlink:href="#DejaVuSans-75" x="52.019531"/>
     <use xlink:href="#DejaVuSans-6c" x="115.398438"/>
     <use xlink:href="#DejaVuSans-6c" x="143.181641"/>
     <use xlink:href="#DejaVuSans-20" x="170.964844"/>
     <use xlink:href="#DejaVuSans-70" x="202.751953"/>
     <use xlink:href="#DejaVuSans-72" x="266.228516"/>
     <use xlink:href="#DejaVuSans-65" x="305.091797"/>
     <use xlink:href="#DejaVuSans-66" x="366.615234"/>
     <use xlink:href="#DejaVuSans-65" x="401.820312"/>
     <use xlink:href="#DejaVuSans-74" x="463.34375"/>
     <use xlink:href="#DejaVuSans-63" x="502.552734"/>
     <use xlink:href="#DejaVuSans-68" x="557.533203"/>
     <use xlink:href="#DejaVuSans-2c" x="620.912109"/>
     <use xlink:href="#DejaVuSans-20" x="652.699219"/>
     <use xlink:href="#DejaVuSans-33" x="684.486328"/>
     <use xlink:href="#DejaVuSans-2e" x="748.109375"/>
     <use xlink:href="#DejaVuSans-38" x="779.896484"/>
     <use xlink:href="#DejaVuSans-20" x="843.519531"/>
     <use xlink:href="#DejaVuSans-47" x="875.306641"/>
     <use xlink:href="#DejaVuSans-48" x="952.796875"/>
     <use xlink:href="#DejaVuSans-7a" x="1027.992188"/>
     <use xlink:href="#DejaVuSans-2c" x="1080.482422"/>
     <use xlink:href="#DejaVuSans-20" x="1112.269531"/>
     <use xlink:href="#DejaVuSans-31" x="1144.056641"/>
     <use xlink:href="#DejaVuSans-36" x="1207.679688"/>
     <use xlink:href="#DejaVuSans-20" x="1271.302734"/>
     <use xlink:href="#DejaVuSans-47" x="1303.089844"/>
     <use xlink:href="#DejaVuSans-69" x="1380.580078"/>
     <use xlink:href="#DejaVuSans-42" x="1408.363281"/>
     <use xlink:href="#DejaVuSans-2c" x="1476.966797"/>
     <use xlink:href="#DejaVuSans-20" x="1508.753906"/>
     <use xlink:href="#DejaVuSans-73" x="1540.541016"/>
     <use xlink:href="#DejaVuSans-61" x="1592.640625"/>
     <use xlink:href="#DejaVuSans-74" x="1653.919922"/>
     <use xlink:href="#DejaVuSans-61" x="1693.128906"/>
     <use xlink:href="#DejaVuSans-20" x="1754.408203"/>
     <use xlink:href="#DejaVuSans-7c" x="1786.195312"/>
     <use xlink:href="#DejaVuSans-20" x="1819.886719"/>
     <use xlink:href="#DejaVuSans-76" x="1851.673828"/>
     <use xlink:href="#DejaVuSans-61" x="1910.853516"/>
     <use xlink:href="#DejaVuSans-72" x="1972.132812"/>
     <use xlink:href="#DejaVuSans-79" x="2013.246094"/>
     <use xlink:href="#DejaVuSans-20" x="2072.425781"/>
     <use xlink:href="#DejaVuSans-72" x="2104.212891"/>
     <use xlink:href="#DejaVuSans-65" x="2143.076172"/>
     <use xlink:href="#DejaVuSans-61" x="2204.599609"/>
     <use xlink:href="#DejaVuSans-64" x="2265.878906"/>
     <use xlink:href="#DejaVuSans-61" x="2329.355469"/>
     <use xlink:href="#DejaVuSans-68" x="2390.634766"/>
     <use xlink:href="#DejaVuSans-65" x="2454.013672"/>
     <use xlink:href="#DejaVuSans-61" x="2515.537109"/>
     <use xlink:href="#DejaVuSans-64" x="2576.816406"/>
     <use xlink:href="#DejaVuSans-20" x="2640.292969"/>
     <use xlink:href="#DejaVuSans-61" x="2672.080078"/>
     <use xlink:href="#DejaVuSans-6e" x="2733.359375"/>
     <use xlink:href="#DejaVuSans-64" x="2796.738281"/>
     <use xlink:href="#DejaVuSans-20" x="2860.214844"/>
     <use xlink:href="#DejaVuSans-74" x="2892.001953"/>
     <use xlink:href="#DejaVuSans-68" x="2931.210938"/>
     <use xlink:href="#DejaVuSans-72" x="2994.589844"/>
     <use xlink:href="#DejaVuSans-65" x="3033.453125"/>
     <use xlink:href="#DejaVuSans-61" x="3094.976562"/>
     <use xlink:href="#DejaVuSans-64" x="3156.255859"/>
     <use xlink:href="#DejaVuSans-20" x="3219.732422"/>
     <use xlink:href="#DejaVuSans-63" x="3251.519531"/>
     <use xlink:href="#DejaVuSans-6f" x="3306.5"/>
     <use xlink:href="#DejaVuSans-75" x="3367.681641"/>
     <use xlink:href="#DejaVuSans-6e" x="3431.060547"/>
     <use xlink:href="#DejaVuSans-74" x="3494.439453"/>
    </g>
   </g>
   <g id="legend_1">
    <g id="line2d_43">
     <path d="M 395.615625 35.469062 
L 405.615625 35.469062 
L 415.615625 35.469062 
" style="fill: none; stroke: #1f77b4; stroke-width: 1.5; stroke-linecap: square"/>
    </g>
    <g id="text_16">
     <!-- readahead 0, 1 thread -->
     <g transform="translate(423.615625 38.969062)scale(0.1 -0.1)">
      <use xlink:href="#DejaVuSans-72"/>
      <use xlink:href="#DejaVuSans-65" x="38.863281"/>
      <use xlink:href="#DejaVuSans-61" x="100.386719"/>
      <use xlink:href="#DejaVuSans-64" x="161.666016"/>
      <use xlink:href="#DejaVuSans-61" x="225.142578"/>
      <use xlink:href="#DejaVuSans-68" x="286.421875"/>
      <use xlink:href="#DejaVuSans-65" x="349.800781"/>
      <use xlink:href="#DejaVuSans-61" x="411.324219"/>
      <use xlink:href="#DejaVuSans-64" x="472.603516"/>
      <use xlink:href="#DejaVuSans-20" x="536.080078"/>
      <use xlink:href="#DejaVuSans-30" x="567.867188"/>
      <use xlink:href="#DejaVuSans-2c" x="631.490234"/>
      <use xlink:href="#DejaVuSans-20" x="663.277344"/>
      <use xlink:href="#DejaVuSans-31" x="695.064453"/>
      <use xlink:href="#DejaVuSans-20" x="758.6875"/>
      <use xlink:href="#DejaVuSans-74" x="790.474609"/>
      <use xlink:href="#DejaVuSans-68" x="829.683594"/>
      <use xlink:href="#DejaVuSans-72" x="893.0625"/>
      <use xlink:href="#DejaVuSans-65" x="931.925781"/>
      <use xlink:href="#DejaVuSans-61" x="993.449219"/>
      <use xlink:href="#DejaVuSans-64" x="1054.728516"/>
     </g>
    </g>
    <g id="line2d_44">
     <path d="M 395.615625 50.147187 
L 405.615625 50.147187 
L 415.615625 50.147187 
" style="fill: none; stroke: #ff7f0e; stroke-width: 1.5; stroke-linecap: square"/>
    </g>
    <g id="text_17">
     <!-- readahead 0, 2 threads -->
     <g transform="translate(423.615625 53.647187)scale(0.1 -0.1)">
      <use xlink:href="#DejaVuSans-72"/>
      <use xlink:href="#DejaVuSans-65" x="38.863281"/>
      <use xlink:href="#DejaVuSans-61" x="100.386719"/>
      <use xlink:href="#DejaVuSans-64" x="161.666016"/>
      <use xlink:href="#DejaVuSans-61" x="225.142578"/>
      <use xlink:href="#DejaVuSans-68" x="286.421875"/>
      <use xlink:href="#DejaVuSans-65" x="349.800781"/>
      <use xlink:href="#DejaVuSans-61" x="411.324219"/>
      <use xlink:href="#DejaVuSans-64" x="472.603516"/>
      <use xlink:href="#DejaVuSans-20" x="536.080078"/>
      <use xlink:href="#DejaVuSans-30" x="567.867188"/>
      <use xlink:href="#DejaVuSans-2c" x="631.490234"/>
      <use xlink:href="#DejaVuSans-20" x="663.277344"/>
      <use xlink:href="#DejaVuSans-32" x="695.064453"/>
      <use xlink:href="#DejaVuSans-20" x="758.6875"/>
      <use xlink:href="#DejaVuSans-74" x="790.474609"/>
      <use xlink:href="#DejaVuSans-68" x="829.683594"/>
      <use xlink:href="#DejaVuSans-72" x="893.0625"/>
      <use xlink:href="#DejaVuSans-65" x="931.925781"/>
      <use xlink:href="#DejaVuSans-61" x="993.449219"/>
      <use xlink:href="#DejaVuSans-64" x="1054.728516"/>
      <use xlink:href="#DejaVuSans-73" x="1118.205078"/>
     </g>
    </g>
    <g id="line2d_45">
     <path d="M 395.615625 64.825312 
L 405.615625 64.825312 
L 415.615625 64.825312 
" style="fill: none; stroke: #2ca02c; stroke-width: 1.5; stroke-linecap: square"/>
    </g>
    <g id="text_18">
     <!-- readahead 0, 4 threads -->
     <g transform="translate(423.615625 68.325312)scale(0.1 -0.1)">
      <use xlink:href="#DejaVuSans-72"/>
      <use xlink:href="#DejaVuSans-65" x="38.863281"/>
      <use xlink:href="#DejaVuSans-61" x="100.386719"/>
      <use xlink:href="#DejaVuSans-64" x="161.666016"/>
      <use xlink:href="#DejaVuSans-61" x="225.142578"/>
      <use xlink:href="#DejaVuSans-68" x="286.421875"/>
      <use xlink:href="#DejaVuSans-65" x="349.800781"/>
      <use xlink:href="#DejaVuSans-61" x="411.324219"/>
      <use xlink:href="#DejaVuSans-64" x="472.603516"/>
      <use xlink:href="#DejaVuSans-20" x="536.080078"/>
      <use xlink:href="#DejaVuSans-30" x="567.867188"/>
      <use xlink:href="#DejaVuSans-2c" x="631.490234"/>
      <use xlink:href="#DejaVuSans-20" x="663.277344"/>
      <use xlink:href="#DejaVuSans-34" x="695.064453"/>
      <use xlink:href="#DejaVuSans-20" x="758.6875"/>
      <use xlink:href="#DejaVuSans-74" x="790.474609"/>
      <use xlink:href="#DejaVuSans-68" x="829.683594"/>
      <use xlink:href="#DejaVuSans-72" x="893.0625"/>
      <use xlink:href="#DejaVuSans-65" x="931.925781"/>
      <use xlink:href="#DejaVuSans-61" x="993.449219"/>
      <use xlink:href="#DejaVuSans-64" x="1054.728516"/>
      <use xlink:href="#DejaVuSans-73" x="1118.205078"/>
     </g>
    </g>
    <g id="line2d_46">
     <path d="M 395.615625 79.503437 
L 405.615625 79.503437 
L 415.615625 79.503437 
" style="fill: none; stroke: #d62728; stroke-width: 1.5; stroke-linecap: square"/>
    </g>
    <g id="text_19">
     <!-- readahead 1, 1 thread -->
     <g transform="translate(423.615625 83.003437)scale(0.1 -0.1)">
      <use xlink:href="#DejaVuSans-72"/>
      <use xlink:href="#DejaVuSans-65" x="38.863281"/>
      <use xlink:href="#DejaVuSans-61" x="100.386719"/>
      <use xlink:href="#DejaVuSans-64" x="161.666016"/>
      <use xlink:href="#DejaVuSans-61" x="225.142578"/>
      <use xlink:href="#DejaVuSans-68" x="286.421875"/>
      <use xlink:href="#DejaVuSans-65" x="349.800781"/>
      <use xlink:href="#DejaVuSans-61" x="411.324219"/>
      <use xlink:href="#DejaVuSans-64" x="472.603516"/>
      <use xlink:href="#DejaVuSans-20" x="536.080078"/>
      <use xlink:href="#DejaVuSans-31" x="567.867188"/>
      <use xlink:href="#DejaVuSans-2c" x="631.490234"/>
      <use xlink:href="#DejaVuSans-20" x="663.277344"/>
      <use xlink:href="#DejaVuSans-31" x="695.064453"/>
      <use xlink:href="#DejaVuSans-20" x="758.6875"/>
      <use xlink:href="#DejaVuSans-74" x="790.474609"/>
      <use xlink:href="#DejaVuSans-68" x="829.683594"/>
      <use xlink:href="#DejaVuSans-72" x="893.0625"/>
      <use xlink:href="#DejaVuSans-65" x="931.925781"/>
      <use xlink:href="#DejaVuSans-61" x="993.449219"/>
      <use xlink:href="#DejaVuSans-64" x="1054.728516"/>
     </g>
    </g>
    <g id="line2d_47">
     <path d="M 395.615625 94.181562 
L 405.615625 94.181562 
L 415.615625 94.181562 
" style="fill: none; stroke: #9467bd; stroke-width: 1.5; stroke-linecap: square"/>
    </g>
    <g id="text_20">
     <!-- readahead 1, 2 threads -->
     <g transform="translate(423.615625 97.681562)scale(0.1 -0.1)">
      <use xlink:href="#DejaVuSans-72"/>
      <use xlink:href="#DejaVuSans-65" x="38.863281"/>
      <use xlink:href="#DejaVuSans-61" x="100.386719"/>
      <use xlink:href="#DejaVuSans-64" x="161.666016"/>
      <use xlink:href="#DejaVuSans-61" x="225.142578"/>
      <use xlink:href="#DejaVuSans-68" x="286.421875"/>
      <use xlink:href="#DejaVuSans-65" x="349.800781"/>
      <use xlink:href="#DejaVuSans-61" x="411.324219"/>
      <use xlink:href="#DejaVuSans-64" x="472.603516"/>
      <use xlink:href="#DejaVuSans-20" x="536.080078"/>
      <use xlink:href="#DejaVuSans-31" x="567.867188"/>
      <use xlink:href="#DejaVuSans-2c" x="631.490234"/>
      <use xlink:href="#DejaVuSans-20" x="663.277344"/>
      <use xlink:href="#DejaVuSans-32" x="695.064453"/>
      <use xlink:href="#DejaVuSans-20" x="758.6875"/>
      <use xlink:href="#DejaVuSans-74" x="790.474609"/>
      <use xlink:href="#DejaVuSans-68" x="829.683594"/>
      <use xlink:href="#DejaVuSans-72" x="893.0625"/>
      <use xlink:href="#DejaVuSans-65" x="931.925781"/>
      <use xlink:href="#DejaVuSans-61" x="993.449219"/>
      <use xlink:href="#DejaVuSans-64" x="1054.728516"/>
      <use xlink:href="#DejaVuSans-73" x="1118.205078"/>
     </g>
    </g>
    <g id="line2d_48">
     <path d="M 395.615625 108.859687 
L 405.615625 108.859687 
L 415.615625 108.859687 
" style="fill: none; stroke: #8c564b; stroke-width: 1.5; stroke-linecap: square"/>
    </g>
    <g id="text_21">
     <!-- readahead 1, 4 threads -->
     <g transform="translate(423.615625 112.359687)scale(0.1 -0.1)">
      <use xlink:href="#DejaVuSans-72"/>
      <use xlink:href="#DejaVuSans-65" x="38.863281"/>
      <use xlink:href="#DejaVuSans-61" x="100.386719"/>
      <use xlink:href="#DejaVuSans-64" x="161.666016"/>
      <use xlink:href="#DejaVuSans-61" x="225.142578"/>
      <use xlink:href="#DejaVuSans-68" x="286.421875"/>
      <use xlink:href="#DejaVuSans-65" x="349.800781"/>
      <use xlink:href="#DejaVuSans-61" x="411.324219"/>
      <use xlink:href="#DejaVuSans-64" x="472.603516"/>
      <use xlink:href="#DejaVuSans-20" x="536.080078"/>
      <use xlink:href="#DejaVuSans-31" x="567.867188"/>
      <use xlink:href="#DejaVuSans-2c" x="631.490234"/>
      <use xlink:href="#DejaVuSans-20" x="663.277344"/>
      <use xlink:href="#DejaVuSans-34" x="695.064453"/>
      <use xlink:href="#DejaVuSans-20" x="758.6875"/>
      <use xlink:href="#DejaVuSans-74" x="790.474609"/>
      <use xlink:href="#DejaVuSans-68" x="829.683594"/>
      <use xlink:href="#DejaVuSans-72" x="893.0625"/>
      <use xlink:href="#DejaVuSans-65" x="931.925781"/>
      <use xlink:href="#DejaVuSans-61" x="993.449219"/>
      <use xlink:href="#DejaVuSans-64" x="1054.728516"/>
      <use xlink:href="#DejaVuSans-73" x="1118.205078"/>
     </g>
    </g>
    <g id="line2d_49">
     <path d="M 395.615625 123.537812 
L 405.615625 123.537812 
L 415.615625 123.537812 
" style="fill: none; stroke: #e377c2; stroke-width: 1.5; stroke-linecap: square"/>
    </g>
    <g id="text_22">
     <!-- readahead 15, 1 thread -->
     <g transform="translate(423.615625 127.037812)scale(0.1 -0.1)">
      <use xlink:href="#DejaVuSans-72"/>
      <use xlink:href="#DejaVuSans-65" x="38.863281"/>
      <use xlink:href="#DejaVuSans-61" x="100.386719"/>
      <use xlink:href="#DejaVuSans-64" x="161.666016"/>
      <use xlink:href="#DejaVuSans-61" x="225.142578"/>
      <use xlink:href="#DejaVuSans-68" x="286.421875"/>
      <use xlink:href="#DejaVuSans-65" x="349.800781"/>
      <use xlink:href="#DejaVuSans-61" x="411.324219"/>
      <use xlink:href="#DejaVuSans-64" x="472.603516"/>
      <use xlink:href="#DejaVuSans-20" x="536.080078"/>
      <use xlink:href="#DejaVuSans-31" x="567.867188"/>
      <use xlink:href="#DejaVuSans-35" x="631.490234"/>
      <use xlink:href="#DejaVuSans-2c" x="695.113281"/>
      <use xlink:href="#DejaVuSans-20" x="726.900391"/>
      <use xlink:href="#DejaVuSans-31" x="758.6875"/>
      <use xlink:href="#DejaVuSans-20" x="822.310547"/>
      <use xlink:href="#DejaVuSans-74" x="854.097656"/>
      <use xlink:href="#DejaVuSans-68" x="893.306641"/>
      <use xlink:href="#DejaVuSans-72" x="956.685547"/>
      <use xlink:href="#DejaVuSans-65" x="995.548828"/>
      <use xlink:href="#DejaVuSans-61" x="1057.072266"/>
      <use xlink:href="#DejaVuSans-64" x="1118.351562"/>
     </g>
    </g>
    <g id="line2d_50">
     <path d="M 395.615625 138.215937 
L 405.615625 138.215937 
L 415.615625 138.215937 
" style="fill: none; stroke: #7f7f7f; stroke-width: 1.5; stroke-linecap: square"/>
    </g>
    <g id="text_23">
     <!-- readahead 15, 2 threads -->
     <g transform="translate(423.615625 141.715937)scale(0.1 -0.1)">
      <use xlink:href="#DejaVuSans-72"/>
      <use xlink:href="#DejaVuSans-65" x="38.863281"/>
      <use xlink:href="#DejaVuSans-61" x="100.386719"/>
      <use xlink:href="#DejaVuSans-64" x="161.666016"/>
      <use xlink:href="#DejaVuSans-61" x="225.142578"/>
      <use xlink:href="#DejaVuSans-68" x="286.421875"/>
      <use xlink:href="#DejaVuSans-65" x="349.800781"/>
      <use xlink:href="#DejaVuSans-61" x="411.324219"/>
      <use xlink:href="#DejaVuSans-64" x="472.603516"/>
      <use xlink:href="#DejaVuSans-20" x="536.080078"/>
      <use xlink:href="#DejaVuSans-31" x="567.867188"/>
      <use xlink:href="#DejaVuSans-35" x="631.490234"/>
      <use xlink:href="#DejaVuSans-2c" x="695.113281"/>
      <use xlink:href="#DejaVuSans-20" x="726.900391"/>
      <use xlink:href="#DejaVuSans-32" x="758.6875"/>
      <use xlink:href="#DejaVuSans-20" x="822.310547"/>
      <use xlink:href="#DejaVuSans-74" x="854.097656"/>
      <use xlink:href="#DejaVuSans-68" x="893.306641"/>
      <use xlink:href="#DejaVuSans-72" x="956.685547"/>
      <use xlink:href="#DejaVuSans-65" x="995.548828"/>
      <use xlink:href="#DejaVuSans-61" x="1057.072266"/>
      <use xlink:href="#DejaVuSans-64" x="1118.351562"/>
      <use xlink:href="#DejaVuSans-73" x="1181.828125"/>
     </g>
    </g>
    <g id="line2d_51">
     <path d="M 395.615625 152.894062 
L 405.615625 152.894062 
L 415.615625 152.894062 
" style="fill: none; stroke: #bcbd22; stroke-width: 1.5; stroke-linecap: square"/>
    </g>
    <g id="text_24">
     <!-- readahead 15, 4 threads -->
     <g transform="translate(423.615625 156.394062)scale(0.1 -0.1)">
      <use xlink:href="#DejaVuSans-72"/>
      <use xlink:href="#DejaVuSans-65" x="38.863281"/>
      <use xlink:href="#DejaVuSans-61" x="100.386719"/>
      <use xlink:href="#DejaVuSans-64" x="161.666016"/>
      <use xlink:href="#DejaVuSans-61" x="225.142578"/>
      <use xlink:href="#DejaVuSans-68" x="286.421875"/>
      <use xlink:href="#DejaVuSans-65" x="349.800781"/>
      <use xlink:href="#DejaVuSans-61" x="411.324219"/>
      <use xlink:href="#DejaVuSans-64" x="472.603516"/>
      <use xlink:href="#DejaVuSans-20" x="536.080078"/>
      <use xlink:href="#DejaVuSans-31" x="567.867188"/>
      <use xlink:href="#DejaVuSans-35" x="631.490234"/>
      <use xlink:href="#DejaVuSans-2c" x="695.113281"/>
      <use xlink:href="#DejaVuSans-20" x="726.900391"/>
      <use xlink:href="#DejaVuSans-34" x="758.6875"/>
      <use xlink:href="#DejaVuSans-20" x="822.310547"/>
      <use xlink:href="#DejaVuSans-74" x="854.097656"/>
      <use xlink:href="#DejaVuSans-68" x="893.306641"/>
      <use xlink:href="#DejaVuSans-72" x="956.685547"/>
      <use xlink:href="#DejaVuSans-65" x="995.548828"/>
      <use xlink:href="#DejaVuSans-61" x="1057.072266"/>
      <use xlink:href="#DejaVuSans-64" x="1118.351562"/>
      <use xlink:href="#DejaVuSans-73" x="1181.828125"/>
     </g>
    </g>
    <g id="line2d_52">
     <path d="M 395.615625 167.572187 
L 405.615625 167.572187 
L 415.615625 167.572187 
" style="fill: none; stroke: #17becf; stroke-width: 1.5; stroke-linecap: square"/>
    </g>
    <g id="text_25">
     <!-- readahead 2, 1 thread -->
     <g transform="translate(423.615625 171.072187)scale(0.1 -0.1)">
      <use xlink:href="#DejaVuSans-72"/>
      <use xlink:href="#DejaVuSans-65" x="38.863281"/>
      <use xlink:href="#DejaVuSans-61" x="100.386719"/>
      <use xlink:href="#DejaVuSans-64" x="161.666016"/>
      <use xlink:href="#DejaVuSans-61" x="225.142578"/>
      <use xlink:href="#DejaVuSans-68" x="286.421875"/>
      <use xlink:href="#DejaVuSans-65" x="349.800781"/>
      <use xlink:href="#DejaVuSans-61" x="411.324219"/>
      <use xlink:href="#DejaVuSans-64" x="472.603516"/>
      <use xlink:href="#DejaVuSans-20" x="536.080078"/>
      <use xlink:href="#DejaVuSans-32" x="567.867188"/>
      <use xlink:href="#DejaVuSans-2c" x="631.490234"/>
      <use xlink:href="#DejaVuSans-20" x="663.277344"/>
      <use xlink:href="#DejaVuSans-31" x="695.064453"/>
      <use xlink:href="#DejaVuSans-20" x="758.6875"/>
      <use xlink:href="#DejaVuSans-74" x="790.474609"/>
      <use xlink:href="#DejaVuSans-68" x="829.683594"/>
      <use xlink:href="#DejaVuSans-72" x="893.0625"/>
      <use xlink:href="#DejaVuSans-65" x="931.925781"/>
      <use xlink:href="#DejaVuSans-61" x="993.449219"/>
      <use xlink:href="#DejaVuSans-64" x="1054.728516"/>
     </g>
    </g>
    <g id="line2d_53">
     <path d="M 395.615625 182.250312 
L 405.615625 182.250312 
L 415.615625 182.250312 
" style="fill: none; stroke: #1f77b4; stroke-width: 1.5; stroke-linecap: square"/>
    </g>
    <g id="text_26">
     <!-- readahead 2, 2 threads -->
     <g transform="translate(423.615625 185.750312)scale(0.1 -0.1)">
      <use xlink:href="#DejaVuSans-72"/>
      <use xlink:href="#DejaVuSans-65" x="38.863281"/>
      <use xlink:href="#DejaVuSans-61" x="100.386719"/>
      <use xlink:href="#DejaVuSans-64" x="161.666016"/>
      <use xlink:href="#DejaVuSans-61" x="225.142578"/>
      <use xlink:href="#DejaVuSans-68" x="286.421875"/>
      <use xlink:href="#DejaVuSans-65" x="349.800781"/>
      <use xlink:href="#DejaVuSans-61" x="411.324219"/>
      <use xlink:href="#DejaVuSans-64" x="472.603516"/>
      <use xlink:href="#DejaVuSans-20" x="536.080078"/>
      <use xlink:href="#DejaVuSans-32" x="567.867188"/>
      <use xlink:href="#DejaVuSans-2c" x="631.490234"/>
      <use xlink:href="#DejaVuSans-20" x="663.277344"/>
      <use xlink:href="#DejaVuSans-32" x="695.064453"/>
      <use xlink:href="#DejaVuSans-20" x="758.6875"/>
      <use xlink:href="#DejaVuSans-74" x="790.474609"/>
      <use xlink:href="#DejaVuSans-68" x="829.683594"/>
      <use xlink:href="#DejaVuSans-72" x="893.0625"/>
      <use xlink:href="#DejaVuSans-65" x="931.925781"/>
      <use xlink:href="#DejaVuSans-61" x="993.449219"/>
      <use xlink:href="#DejaVuSans-64" x="1054.728516"/>
      <use xlink:href="#DejaVuSans-73" x="1118.205078"/>
     </g>
    </g>
    <g id="line2d_54">
     <path d="M 395.615625 196.928437 
L 405.615625 196.928437 
L 415.615625 196.928437 
" style="fill: none; stroke: #ff7f0e; stroke-width: 1.5; stroke-linecap: square"/>
    </g>
    <g id="text_27">
     <!-- readahead 2, 4 threads -->
     <g transform="translate(423.615625 200.428437)scale(0.1 -0.1)">
      <use xlink:href="#DejaVuSans-72"/>
      <use xlink:href="#DejaVuSans-65" x="38.863281"/>
      <use xlink:href="#DejaVuSans-61" x="100.386719"/>
      <use xlink:href="#DejaVuSans-64" x="161.666016"/>
      <use xlink:href="#DejaVuSans-61" x="225.142578"/>
      <use xlink:href="#DejaVuSans-68" x="286.421875"/>
      <use xlink:href="#DejaVuSans-65" x="349.800781"/>
      <use xlink:href="#DejaVuSans-61" x="411.324219"/>
      <use xlink:href="#DejaVuSans-64" x="472.603516"/>
      <use xlink:href="#DejaVuSans-20" x="536.080078"/>
      <use xlink:href="#DejaVuSans-32" x="567.867188"/>
      <use xlink:href="#DejaVuSans-2c" x="631.490234"/>
      <use xlink:href="#DejaVuSans-20" x="663.277344"/>
      <use xlink:href="#DejaVuSans-34" x="695.064453"/>
      <use xlink:href="#DejaVuSans-20" x="758.6875"/>
      <use xlink:href="#DejaVuSans-74" x="790.474609"/>
      <use xlink:href="#DejaVuSans-68" x="829.683594"/>
      <use xlink:href="#DejaVuSans-72" x="893.0625"/>
      <use xlink:href="#DejaVuSans-65" x="931.925781"/>
      <use xlink:href="#DejaVuSans-61" x="993.449219"/>
      <use xlink:href="#DejaVuSans-64" x="1054.728516"/>
      <use xlink:href="#DejaVuSans-73" x="1118.205078"/>
     </g>
    </g>
    <g id="line2d_55">
     <path d="M 395.615625 211.606562 
L 405.615625 211.606562 
L 415.615625 211.606562 
" style="fill: none; stroke: #2ca02c; stroke-width: 1.5; stroke-linecap: square"/>
    </g>
    <g id="text_28">
     <!-- readahead 3, 1 thread -->
     <g transform="translate(423.615625 215.106562)scale(0.1 -0.1)">
      <use xlink:href="#DejaVuSans-72"/>
      <use xlink:href="#DejaVuSans-65" x="38.863281"/>
      <use xlink:href="#DejaVuSans-61" x="100.386719"/>
      <use xlink:href="#DejaVuSans-64" x="161.666016"/>
      <use xlink:href="#DejaVuSans-61" x="225.142578"/>
      <use xlink:href="#DejaVuSans-68" x="286.421875"/>
      <use xlink:href="#DejaVuSans-65" x="349.800781"/>
      <use xlink:href="#DejaVuSans-61" x="411.324219"/>
      <use xlink:href="#DejaVuSans-64" x="472.603516"/>
      <use xlink:href="#DejaVuSans-20" x="536.080078"/>
      <use xlink:href="#DejaVuSans-33" x="567.867188"/>
      <use xlink:href="#DejaVuSans-2c" x="631.490234"/>
      <use xlink:href="#DejaVuSans-20" x="663.277344"/>
      <use xlink:href="#DejaVuSans-31" x="695.064453"/>
      <use xlink:href="#DejaVuSans-20" x="758.6875"/>
      <use xlink:href="#DejaVuSans-74" x="790.474609"/>
      <use xlink:href="#DejaVuSans-68" x="829.683594"/>
      <use xlink:href="#DejaVuSans-72" x="893.0625"/>
      <use xlink:href="#DejaVuSans-65" x="931.925781"/>
      <use xlink:href="#DejaVuSans-61" x="993.449219"/>
      <use xlink:href="#DejaVuSans-64" x="1054.728516"/>
     </g>
    </g>
    <g id="line2d_56">
     <path d="M 395.615625 226.284687 
L 405.615625 226.284687 
L 415.615625 226.284687 
" style="fill: none; stroke: #d62728; stroke-width: 1.5; stroke-linecap: square"/>
    </g>
    <g id="text_29">
     <!-- readahead 3, 2 threads -->
     <g transform="translate(423.615625 229.784687)scale(0.1 -0.1)">
      <use xlink:href="#DejaVuSans-72"/>
      <use xlink:href="#DejaVuSans-65" x="38.863281"/>
      <use xlink:href="#DejaVuSans-61" x="100.386719"/>
      <use xlink:href="#DejaVuSans-64" x="161.666016"/>
      <use xlink:href="#DejaVuSans-61" x="225.142578"/>
      <use xlink:href="#DejaVuSans-68" x="286.421875"/>
      <use xlink:href="#DejaVuSans-65" x="349.800781"/>
      <use xlink:href="#DejaVuSans-61" x="411.324219"/>
      <use xlink:href="#DejaVuSans-64" x="472.603516"/>
      <use xlink:href="#DejaVuSans-20" x="536.080078"/>
      <use xlink:href="#DejaVuSans-33" x="567.867188"/>
      <use xlink:href="#DejaVuSans-2c" x="631.490234"/>
      <use xlink:href="#DejaVuSans-20" x="663.277344"/>
      <use xlink:href="#DejaVuSans-32" x="695.064453"/>
      <use xlink:href="#DejaVuSans-20" x="758.6875"/>
      <use xlink:href="#DejaVuSans-74" x="790.474609"/>
      <use xlink:href="#DejaVuSans-68" x="829.683594"/>
      <use xlink:href="#DejaVuSans-72" x="893.0625"/>
      <use xlink:href="#DejaVuSans-65" x="931.925781"/>
      <use xlink:href="#DejaVuSans-61" x="993.449219"/>
      <use xlink:href="#DejaVuSans-64" x="1054.728516"/>
      <use xlink:href="#DejaVuSans-73" x="1118.205078"/>
     </g>
    </g>
    <g id="line2d_57">
     <path d="M 395.615625 240.962812 
L 405.615625 240.962812 
L 415.615625 240.962812 
" style="fill: none; stroke: #9467bd; stroke-width: 1.5; stroke-linecap: square"/>
    </g>
    <g id="text_30">
     <!-- readahead 3, 4 threads -->
     <g transform="translate(423.615625 244.462812)scale(0.1 -0.1)">
      <use xlink:href="#DejaVuSans-72"/>
      <use xlink:href="#DejaVuSans-65" x="38.863281"/>
      <use xlink:href="#DejaVuSans-61" x="100.386719"/>
      <use xlink:href="#DejaVuSans-64" x="161.666016"/>
      <use xlink:href="#DejaVuSans-61" x="225.142578"/>
      <use xlink:href="#DejaVuSans-68" x="286.421875"/>
      <use xlink:href="#DejaVuSans-65" x="349.800781"/>
      <use xlink:href="#DejaVuSans-61" x="411.324219"/>
      <use xlink:href="#DejaVuSans-64" x="472.603516"/>
      <use xlink:href="#DejaVuSans-20" x="536.080078"/>
      <use xlink:href="#DejaVuSans-33" x="567.867188"/>
      <use xlink:href="#DejaVuSans-2c" x="631.490234"/>
      <use xlink:href="#DejaVuSans-20" x="663.277344"/>
      <use xlink:href="#DejaVuSans-34" x="695.064453"/>
      <use xlink:href="#DejaVuSans-20" x="758.6875"/>
      <use xlink:href="#DejaVuSans-74" x="790.474609"/>
      <use xlink:href="#DejaVuSans-68" x="829.683594"/>
      <use xlink:href="#DejaVuSans-72" x="893.0625"/>
      <use xlink:href="#DejaVuSans-65" x="931.925781"/>
      <use xlink:href="#DejaVuSans-61" x="993.449219"/>
      <use xlink:href="#DejaVuSans-64" x="1054.728516"/>
      <use xlink:href="#DejaVuSans-73" x="1118.205078"/>
     </g>
    </g>
    <g id="line2d_58">
     <path d="M 395.615625 255.640937 
L 405.615625 255.640937 
L 415.615625 255.640937 
" style="fill: none; stroke: #8c564b; stroke-width: 1.5; stroke-linecap: square"/>
    </g>
    <g id="text_31">
     <!-- readahead 6, 1 thread -->
     <g transform="translate(423.615625 259.140937)scale(0.1 -0.1)">
      <use xlink:href="#DejaVuSans-72"/>
      <use xlink:href="#DejaVuSans-65" x="38.863281"/>
      <use xlink:href="#DejaVuSans-61" x="100.386719"/>
      <use xlink:href="#DejaVuSans-64" x="161.666016"/>
      <use xlink:href="#DejaVuSans-61" x="225.142578"/>
      <use xlink:href="#DejaVuSans-68" x="286.421875"/>
      <use xlink:href="#DejaVuSans-65" x="349.800781"/>
      <use xlink:href="#DejaVuSans-61" x="411.324219"/>
      <use xlink:href="#DejaVuSans-64" x="472.603516"/>
      <use xlink:href="#DejaVuSans-20" x="536.080078"/>
      <use xlink:href="#DejaVuSans-36" x="567.867188"/>
      <use xlink:href="#DejaVuSans-2c" x="631.490234"/>
      <use xlink:href="#DejaVuSans-20" x="663.277344"/>
      <use xlink:href="#DejaVuSans-31" x="695.064453"/>
      <use xlink:href="#DejaVuSans-20" x="758.6875"/>
      <use xlink:href="#DejaVuSans-74" x="790.474609"/>
      <use xlink:href="#DejaVuSans-68" x="829.683594"/>
      <use xlink:href="#DejaVuSans-72" x="893.0625"/>
      <use xlink:href="#DejaVuSans-65" x="931.925781"/>
      <use xlink:href="#DejaVuSans-61" x="993.449219"/>
      <use xlink:href="#DejaVuSans-64" x="1054.728516"/>
     </g>
    </g>
    <g id="line2d_59">
     <path d="M 395.615625 270.319062 
L 405.615625 270.319062 
L 415.615625 270.319062 
" style="fill: none; stroke: #e377c2; stroke-width: 1.5; stroke-linecap: square"/>
    </g>
    <g id="text_32">
     <!-- readahead 6, 2 threads -->
     <g transform="translate(423.615625 273.819062)scale(0.1 -0.1)">
      <use xlink:href="#DejaVuSans-72"/>
      <use xlink:href="#DejaVuSans-65" x="38.863281"/>
      <use xlink:href="#DejaVuSans-61" x="100.386719"/>
      <use xlink:href="#DejaVuSans-64" x="161.666016"/>
      <use xlink:href="#DejaVuSans-61" x="225.142578"/>
      <use xlink:href="#DejaVuSans-68" x="286.421875"/>
      <use xlink:href="#DejaVuSans-65" x="349.800781"/>
      <use xlink:href="#DejaVuSans-61" x="411.324219"/>
      <use xlink:href="#DejaVuSans-64" x="472.603516"/>
      <use xlink:href="#DejaVuSans-20" x="536.080078"/>
      <use xlink:href="#DejaVuSans-36" x="567.867188"/>
      <use xlink:href="#DejaVuSans-2c" x="631.490234"/>
      <use xlink:href="#DejaVuSans-20" x="663.277344"/>
      <use xlink:href="#DejaVuSans-32" x="695.064453"/>
      <use xlink:href="#DejaVuSans-20" x="758.6875"/>
      <use xlink:href="#DejaVuSans-74" x="790.474609"/>
      <use xlink:href="#DejaVuSans-68" x="829.683594"/>
      <use xlink:href="#DejaVuSans-72" x="893.0625"/>
      <use xlink:href="#DejaVuSans-65" x="931.925781"/>
      <use xlink:href="#DejaVuSans-61" x="993.449219"/>
      <use xlink:href="#DejaVuSans-64" x="1054.728516"/>
      <use xlink:href="#DejaVuSans-73" x="1118.205078"/>
     </g>
    </g>
    <g id="line2d_60">
     <path d="M 395.615625 284.997187 
L 405.615625 284.997187 
L 415.615625 284.997187 
" style="fill: none; stroke: #7f7f7f; stroke-width: 1.5; stroke-linecap: square"/>
    </g>
    <g id="text_33">
     <!-- readahead 6, 4 threads -->
     <g transform="translate(423.615625 288.497187)scale(0.1 -0.1)">
      <use xlink:href="#DejaVuSans-72"/>
      <use xlink:href="#DejaVuSans-65" x="38.863281"/>
      <use xlink:href="#DejaVuSans-61" x="100.386719"/>
      <use xlink:href="#DejaVuSans-64" x="161.666016"/>
      <use xlink:href="#DejaVuSans-61" x="225.142578"/>
      <use xlink:href="#DejaVuSans-68" x="286.421875"/>
      <use xlink:href="#DejaVuSans-65" x="349.800781"/>
      <use xlink:href="#DejaVuSans-61" x="411.324219"/>
      <use xlink:href="#DejaVuSans-64" x="472.603516"/>
      <use xlink:href="#DejaVuSans-20" x="536.080078"/>
      <use xlink:href="#DejaVuSans-36" x="567.867188"/>
      <use xlink:href="#DejaVuSans-2c" x="631.490234"/>
      <use xlink:href="#DejaVuSans-20" x="663.277344"/>
      <use xlink:href="#DejaVuSans-34" x="695.064453"/>
      <use xlink:href="#DejaVuSans-20" x="758.6875"/>
      <use xlink:href="#DejaVuSans-74" x="790.474609"/>
      <use xlink:href="#DejaVuSans-68" x="829.683594"/>
      <use xlink:href="#DejaVuSans-72" x="893.0625"/>
      <use xlink:href="#DejaVuSans-65" x="931.925781"/>
      <use xlink:href="#DejaVuSans-61" x="993.449219"/>
      <use xlink:href="#DejaVuSans-64" x="1054.728516"/>
      <use xlink:href="#DejaVuSans-73" x="1118.205078"/>
     </g>
    </g>
   </g>
  </g>
 </g>
 <defs>
  <clipPath id="pf3bd8f0d66">
   <rect x="51.815625" y="22.370625" width="334.8" height="249.48"/>
  </clipPath>
 </defs>
</svg>
