<?xml version="1.0" encoding="UTF-8"?>
<!DOCTYPE svg PUBLIC "-//W3C//DTD SVG 1.1//EN" "http://www.w3.org/Graphics/SVG/1.1/DTD/svg11.dtd">
<svg width="151mm" height="126mm" viewBox="0 0 15100 12600" version="1.1" xmlns="http://www.w3.org/2000/svg" xmlns:xlink="http://www.w3.org/1999/xlink" stroke-width="28.222" stroke-linejoin="round" xml:space="preserve">
 <path fill="rgb(255,255,255)" stroke="none" d="M 7555,12585 L 1,12585 1,0 15109,0 15109,12585 7555,12585 Z"/>
 <path fill="none" stroke="rgb(179,179,179)" stroke-linejoin="round" d="M 7916,11524 L 1031,11524 1031,1147 14802,1147 14802,11524 7916,11524 Z"/>
 <path fill="none" stroke="rgb(179,179,179)" stroke-linejoin="round" d="M 14802,11523 L 1031,11523"/>
 <path fill="none" stroke="rgb(179,179,179)" stroke-linejoin="round" d="M 14802,10369 L 1031,10369"/>
 <path fill="none" stroke="rgb(179,179,179)" stroke-linejoin="round" d="M 14802,9216 L 1031,9216"/>
 <path fill="none" stroke="rgb(179,179,179)" stroke-linejoin="round" d="M 14802,8063 L 1031,8063"/>
 <path fill="none" stroke="rgb(179,179,179)" stroke-linejoin="round" d="M 14802,6910 L 1031,6910"/>
 <path fill="none" stroke="rgb(179,179,179)" stroke-linejoin="round" d="M 14802,5758 L 1031,5758"/>
 <path fill="none" stroke="rgb(179,179,179)" stroke-linejoin="round" d="M 14802,4605 L 1031,4605"/>
 <path fill="none" stroke="rgb(179,179,179)" stroke-linejoin="round" d="M 14802,3452 L 1031,3452"/>
 <path fill="none" stroke="rgb(179,179,179)" stroke-linejoin="round" d="M 14802,2299 L 1031,2299"/>
 <path fill="none" stroke="rgb(179,179,179)" stroke-linejoin="round" d="M 14802,1146 L 1031,1146"/>
 <path fill="none" stroke="rgb(179,179,179)" stroke-linejoin="round" d="M 1031,11673 L 1031,11523"/>
 <path fill="none" stroke="rgb(179,179,179)" stroke-linejoin="round" d="M 1031,11673 L 1031,11523"/>
 <path fill="none" stroke="rgb(179,179,179)" stroke-linejoin="round" d="M 7916,11673 L 7916,11523"/>
 <path fill="none" stroke="rgb(179,179,179)" stroke-linejoin="round" d="M 7916,11673 L 7916,11523"/>
 <path fill="none" stroke="rgb(179,179,179)" stroke-linejoin="round" d="M 14802,11673 L 14802,11523"/>
 <path fill="none" stroke="rgb(179,179,179)" stroke-linejoin="round" d="M 14802,11673 L 14802,11523"/>
 <path fill="none" stroke="rgb(179,179,179)" stroke-linejoin="round" d="M 1031,11523 L 14802,11523"/>
 <path fill="none" stroke="rgb(179,179,179)" stroke-linejoin="round" d="M 881,11523 L 1031,11523"/>
 <path fill="none" stroke="rgb(179,179,179)" stroke-linejoin="round" d="M 881,11523 L 1031,11523"/>
 <path fill="none" stroke="rgb(179,179,179)" stroke-linejoin="round" d="M 881,10369 L 1031,10369"/>
 <path fill="none" stroke="rgb(179,179,179)" stroke-linejoin="round" d="M 881,10369 L 1031,10369"/>
 <path fill="none" stroke="rgb(179,179,179)" stroke-linejoin="round" d="M 881,9216 L 1031,9216"/>
 <path fill="none" stroke="rgb(179,179,179)" stroke-linejoin="round" d="M 881,9216 L 1031,9216"/>
 <path fill="none" stroke="rgb(179,179,179)" stroke-linejoin="round" d="M 881,8063 L 1031,8063"/>
 <path fill="none" stroke="rgb(179,179,179)" stroke-linejoin="round" d="M 881,8063 L 1031,8063"/>
 <path fill="none" stroke="rgb(179,179,179)" stroke-linejoin="round" d="M 881,6910 L 1031,6910"/>
 <path fill="none" stroke="rgb(179,179,179)" stroke-linejoin="round" d="M 881,6910 L 1031,6910"/>
 <path fill="none" stroke="rgb(179,179,179)" stroke-linejoin="round" d="M 881,5758 L 1031,5758"/>
 <path fill="none" stroke="rgb(179,179,179)" stroke-linejoin="round" d="M 881,5758 L 1031,5758"/>
 <path fill="none" stroke="rgb(179,179,179)" stroke-linejoin="round" d="M 881,4605 L 1031,4605"/>
 <path fill="none" stroke="rgb(179,179,179)" stroke-linejoin="round" d="M 881,4605 L 1031,4605"/>
 <path fill="none" stroke="rgb(179,179,179)" stroke-linejoin="round" d="M 881,3452 L 1031,3452"/>
 <path fill="none" stroke="rgb(179,179,179)" stroke-linejoin="round" d="M 881,3452 L 1031,3452"/>
 <path fill="none" stroke="rgb(179,179,179)" stroke-linejoin="round" d="M 881,2299 L 1031,2299"/>
 <path fill="none" stroke="rgb(179,179,179)" stroke-linejoin="round" d="M 881,2299 L 1031,2299"/>
 <path fill="none" stroke="rgb(179,179,179)" stroke-linejoin="round" d="M 881,1146 L 1031,1146"/>
 <path fill="none" stroke="rgb(179,179,179)" stroke-linejoin="round" d="M 881,1146 L 1031,1146"/>
 <path fill="none" stroke="rgb(179,179,179)" stroke-linejoin="round" d="M 1031,11523 L 1031,1146"/>
 <path fill="rgb(0,69,134)" stroke="none" d="M 9063,11523 L 11358,11523 11358,4605 9063,4605 9063,11523 Z"/>
 <path fill="rgb(0,69,134)" stroke="none" d="M 2178,11523 L 4474,11523 4474,6265 2178,6265 2178,11523 Z"/>
 <path fill="rgb(255,66,14)" stroke="none" d="M 11359,11523 L 13654,11523 13654,1791 11359,1791 11359,11523 Z"/>
 <path fill="rgb(255,66,14)" stroke="none" d="M 4474,11523 L 6769,11523 6769,4859 4474,4859 4474,11523 Z"/>
 <text class="TextShape"><tspan class="TextParagraph" font-family="Liberation Sans, sans-serif" font-size="564px" font-weight="400"><tspan class="TextPosition" x="3921" y="12285"><tspan fill="rgb(0,0,0)" stroke="none">sata</tspan></tspan></tspan></text>
 <text class="TextShape"><tspan class="TextParagraph" font-family="Liberation Sans, sans-serif" font-size="564px" font-weight="400"><tspan class="TextPosition" x="10653" y="12285"><tspan fill="rgb(0,0,0)" stroke="none">nvme</tspan></tspan></tspan></text>
 <text class="TextShape"><tspan class="TextParagraph" font-family="Liberation Sans, sans-serif" font-size="494px" font-weight="400"><tspan class="TextPosition" x="515" y="11699"><tspan fill="rgb(0,0,0)" stroke="none">0</tspan></tspan></tspan></text>
 <text class="TextShape"><tspan class="TextParagraph" font-family="Liberation Sans, sans-serif" font-size="494px" font-weight="400"><tspan class="TextPosition" x="515" y="10545"><tspan fill="rgb(0,0,0)" stroke="none">5</tspan></tspan></tspan></text>
 <text class="TextShape"><tspan class="TextParagraph" font-family="Liberation Sans, sans-serif" font-size="494px" font-weight="400"><tspan class="TextPosition" x="248" y="9392"><tspan fill="rgb(0,0,0)" stroke="none">10</tspan></tspan></tspan></text>
 <text class="TextShape"><tspan class="TextParagraph" font-family="Liberation Sans, sans-serif" font-size="494px" font-weight="400"><tspan class="TextPosition" x="248" y="8239"><tspan fill="rgb(0,0,0)" stroke="none">15</tspan></tspan></tspan></text>
 <text class="TextShape"><tspan class="TextParagraph" font-family="Liberation Sans, sans-serif" font-size="494px" font-weight="400"><tspan class="TextPosition" x="248" y="7086"><tspan fill="rgb(0,0,0)" stroke="none">20</tspan></tspan></tspan></text>
 <text class="TextShape"><tspan class="TextParagraph" font-family="Liberation Sans, sans-serif" font-size="494px" font-weight="400"><tspan class="TextPosition" x="248" y="5933"><tspan fill="rgb(0,0,0)" stroke="none">25</tspan></tspan></tspan></text>
 <text class="TextShape"><tspan class="TextParagraph" font-family="Liberation Sans, sans-serif" font-size="494px" font-weight="400"><tspan class="TextPosition" x="248" y="4780"><tspan fill="rgb(0,0,0)" stroke="none">30</tspan></tspan></tspan></text>
 <text class="TextShape"><tspan class="TextParagraph" font-family="Liberation Sans, sans-serif" font-size="494px" font-weight="400"><tspan class="TextPosition" x="248" y="3627"><tspan fill="rgb(0,0,0)" stroke="none">35</tspan></tspan></tspan></text>
 <text class="TextShape"><tspan class="TextParagraph" font-family="Liberation Sans, sans-serif" font-size="494px" font-weight="400"><tspan class="TextPosition" x="248" y="2474"><tspan fill="rgb(0,0,0)" stroke="none">40</tspan></tspan></tspan></text>
 <text class="TextShape"><tspan class="TextParagraph" font-family="Liberation Sans, sans-serif" font-size="494px" font-weight="400"><tspan class="TextPosition" x="248" y="1321"><tspan fill="rgb(0,0,0)" stroke="none">45</tspan></tspan></tspan></text>
 <text class="TextShape"><tspan class="TextParagraph" font-family="Liberation Sans, sans-serif" font-size="564px" font-weight="400"><tspan class="TextPosition" x="1531" y="805"><tspan fill="rgb(0,0,0)" stroke="none">Blocks / second</tspan></tspan></tspan></text>
 <path fill="rgb(0,69,134)" stroke="none" d="M 9586,809 L 9417,809 9417,471 9755,471 9755,809 9586,809 Z"/>
 <path fill="rgb(255,66,14)" stroke="none" d="M 12670,809 L 12501,809 12501,471 12839,471 12839,809 12670,809 Z"/>
 <text class="TextShape"><tspan class="TextParagraph" font-family="Liberation Sans, sans-serif" font-size="564px" font-weight="400"><tspan class="TextPosition" x="9879" y="834"><tspan fill="rgb(0,0,0)" stroke="none">original</tspan></tspan></tspan></text>
 <text class="TextShape"><tspan class="TextParagraph" font-family="Liberation Sans, sans-serif" font-size="564px" font-weight="400"><tspan class="TextPosition" x="12963" y="834"><tspan fill="rgb(0,0,0)" stroke="none">plain</tspan></tspan></tspan></text>
</svg>